<svg version="1.1" id="Layer_1" xmlns="http://www.w3.org/2000/svg" x="0" y="0" viewBox="0 0 97.4 47.5" xml:space="preserve"><style>.st0{fill:#C6C6C6}</style><path class="st0" d="M30 46.6c-.1-.1-.2-.1-.3-.1-2-.4-3.5-2-3.8-4.1v-6.3c0-.3 0-.4.4-.4H43c9.4-.1 18.8 0 28.2 0h.1c.3 0 .3 0 .3.3v5.9c0 2.8-2.1 4.2-3.7 4.6-.2 0-.3.1-.5.1H30zm35.6-8.9c0-.1 0 0 0 0 .2.4.3.9.5 1.3 0 .1 0 .1.1.2s.2.1.3.1c.1 0 .1-.2.1-.3v-1.8c0-.2-.1-.2-.2-.2s-.2.1-.2.2v1.2c-.1 0-.1 0-.1-.1-.1-.4-.3-.7-.4-1.1 0-.1 0-.1-.1-.2s-.2-.1-.4-.1c-.1 0-.1.2-.1.2v1.8c0 .2.1.2.2.2.2 0 .2-.1.2-.2.1-.4.1-.8.1-1.2zm-11.1 3.6v.7c0 .3.2.5.5.5.4 0 .6-.1.7-.4.1-.2 0-.4 0-.5 0-.5-.2-.6-.7-.5-.1 0-.1 0-.1-.1s0-.3.1-.4c.1-.1.2 0 .3.1h.1c.1 0 .2.1.3 0 .1-.1 0-.2 0-.2-.1-.2-.3-.3-.6-.2-.3.1-.4.2-.5.5-.1.1-.1.3-.1.5zm4.5-1.1c-.2 0-.3 0-.4.2-.1.6-.3 1.3-.5 1.9v.1c.1.1.3 0 .4-.1 0-.1 0-.1.1-.2 0-.1.1-.2.2-.2.3 0 .4 0 .4.3v.1c0 .1.2.2.3.1.1 0 .1-.2.1-.2-.1-.6-.3-1.2-.4-1.7 0-.2 0-.3-.2-.3zm5-1.8v-.7c0-.2-.1-.3-.3-.2h-.2c-.3-.1-.6 0-.6.4v.9c.1.4.2.6.7.4.1 0 .1 0 .1.1 0 .2-.1.3-.3.2-.1 0-.1-.1-.2-.1s-.2-.1-.2 0 0 .2.1.2c.2.2.4.2.6.1.2-.1.4-.3.4-.5-.1-.3-.1-.5-.1-.8zm-36.1-.3v-.6c0-.2.1-.3.3-.3.2 0 .2.1.2.2v.1c.1.2.2.1.3.1.1 0 .1-.1.1-.2 0-.3-.3-.5-.6-.5-.4 0-.6.2-.7.5-.1.5-.1.9 0 1.4 0 .1.1.2.2.3.2.2.5.2.8.1.3-.1.3-.3.3-.6 0-.2 0-.2-.2-.2-.1 0-.2.1-.2.2s0 .3-.2.3-.3-.1-.3-.3v-.5zm40.8.6c-.1 0-.1 0 0 0-.1-.6-.2-1-.3-1.5 0-.1 0-.2-.1-.2-.1-.2-.2-.1-.3-.1-.1 0-.1.1 0 .2.1.6.3 1.2.4 1.8 0 .1.1.2.2.2.2 0 .4 0 .4-.2.1-.6.3-1.3.4-1.9 0-.1 0-.1-.1-.2-.2 0-.3 0-.3.3-.1.6-.2 1.1-.3 1.6zm-24.5 5.6v-.6c0-.2.2-.3.3-.2.1 0 .2.1.2.2 0 .2.2.1.3.1.1 0 .1-.1.1-.2-.1-.3-.3-.5-.7-.5-.4 0-.6.2-.6.5-.1.4-.1.8 0 1.3.1.4.3.6.7.6.4 0 .6-.2.6-.6 0-.2 0-.3-.3-.2-.2 0-.1.1-.1.2s-.1.3-.2.3c-.2 0-.2-.1-.3-.2v-.7zm6.3-4h-.3c-.2 0-.3 0-.2.2v.7c0 .2 0 .3.2.2.1 0 .1 0 .2-.1.2-.1.3-.1.4.1.1.2 0 .3 0 .5 0 .1-.1.2-.2.2-.2 0-.2-.1-.2-.3 0-.2-.2-.2-.3-.1-.1 0-.1.1-.1.2 0 .3.2.5.5.5.4 0 .6-.1.7-.4.1-.2.1-.4 0-.7-.1-.4-.3-.6-.7-.5h-.1v-.3c0-.1.1-.1.2-.1h.4c.1 0 .1-.1.1-.2s0-.1-.1-.1c-.2.2-.3.2-.5.2zm1 .7v.3c0 .1 0 .2.1.2h.3l.1-.1c.2-.1.3-.1.4.1.1.2 0 .4 0 .6 0 .1-.1.1-.2.1s-.2 0-.2-.1V42c0-.2-.1-.2-.2-.2s-.2.1-.1.2c0 .3.2.5.4.5.4.1.6 0 .8-.3.1-.2.1-.4.1-.6 0-.4-.2-.7-.7-.6h-.1v-.3c0-.1.1-.1.2-.1h.4c.1 0 .2 0 .2-.1s0-.2-.1-.2h-.8c-.1 0-.2 0-.2.1-.4.2-.4.4-.4.6zm2 1.5c.3 0 .6-.1.7-.3.1-.3.1-.6-.1-.8-.1-.1-.1-.1 0-.3.2-.2.2-.4.1-.7-.1-.3-.4-.3-.6-.3-.2 0-.4.1-.5.4 0 .1-.1.2.1.3.1 0 .3.1.3-.1 0-.1.1-.2.2-.2s.2.1.2.2c.1.2 0 .3-.3.4-.1 0-.1.1-.1.2s.1.1.2.1.2 0 .3.2v.4c0 .1-.1.2-.2.2s-.2 0-.2-.1 0-.1-.1-.2c0-.1-.1-.2-.2-.1-.1 0-.1.1-.1.2-.3.3 0 .5.3.5zm-19.9-4.2v-.4c0-.1 0-.2.1-.2s.1.1.2.2c0 .1.1.2.2.1.1 0 .1-.1.1-.2s-.1-.3-.2-.3c-.2-.1-.4-.1-.6 0-.2.1-.2.3-.3.4v.7c0 .2.1.4.3.5.1 0 .1 0 .1.1-.1.1 0 .2.1.2s.1 0 .1.1-.1.1-.1.1h-.3c0 .1.1.1.1.1.2 0 .2.1.2.2s0 .2.2.2c.1 0 .2-.1.2-.2s0-.2-.1-.2-.1 0 0-.1c.2-.2.1-.3-.1-.4-.1 0-.1-.1 0-.1h.1c.2-.1.4-.3.3-.5 0-.1-.1-.1-.1-.1-.1 0-.3 0-.2.2 0 .1 0 .2-.1.2s-.1-.1-.1-.2c-.1-.1-.1-.2-.1-.4zm16.3 6.2v-.4c0-.1 0-.2.2-.2.1 0 .1.1.1.2 0 .2.1.2.3.2.1 0 .1-.1.1-.2 0-.2-.1-.3-.2-.3-.4-.2-.8 0-.8.5v.7c0 .2.1.4.3.5.1 0 .1.1.1.1-.1.1 0 .1.1.2.1 0 .1.1.1.1 0 .1-.1.1-.1.1H50s-.1 0-.1.1.1.1.1.1c.2 0 .3.1.2.3 0 .1.1.1.2.1s.2 0 .2-.2c0-.1 0-.2-.1-.2s-.1-.1 0-.2.1-.3-.1-.4c-.1 0-.2 0-.1-.1 0-.1.1-.1.2-.1.2-.1.4-.3.3-.5 0-.1 0-.1-.1-.1s-.2 0-.2.2c0 .1 0 .2-.1.2-.4-.1-.4-.2-.4-.3-.1-.1-.1-.2-.1-.4zm10.6-2h.5c.1 0 .2 0 .2-.2 0-.1-.1-.1-.2-.1h-.5c-.2 0-.2 0-.1-.2l.6-1.2c.1-.1.1-.3.1-.4 0-.1 0-.2-.2-.2H60c-.1 0-.1 0-.1.1s0 .2.1.2h.4c.2 0 .2 0 .1.2l-.6 1.2c-.1.1-.1.2-.1.4 0 .1 0 .2.2.2h.5zm-11.3 2V44c0-.1 0-.2-.2-.3-.2-.1-.5-.1-.8 0-.1 0-.2.1-.2.2s-.1.2 0 .2c.1.1.2 0 .3 0 .1 0 .1-.1.1-.1.1-.1.1-.1.2-.1s.1 0 .1.1 0 .2-.1.2-.1.1-.2.1-.2.1-.3.1c-.2.1-.3.5-.1.7.1.2.4.2.6.1h.2c.1.1.2.1.3 0 .1 0 0-.1 0-.2.1-.1.1-.3.1-.5zm6.9-6.2v.4c0 .3.2.4.5.5.4 0 .6-.1.7-.3 0-.1.1-.2-.1-.3-.1 0-.2 0-.3.1 0 .1-.1.2-.2.2-.2 0-.2-.2-.2-.3 0-.1.1-.2.2-.2h.4c.1 0 .2 0 .2-.1 0-.2 0-.5-.2-.7-.2-.2-.4-.2-.7-.1-.2.1-.3.2-.3.4v.4zm-11.8 3.4v.5c0 .2.2.3.4.4.2 0 .5.1.7-.1.1-.1.1-.2.1-.3 0-.1 0-.1-.1-.1s-.2 0-.3.2c-.1.2-.2.2-.3.1-.1-.1-.1-.2-.1-.4 0-.1.2-.1.2-.1h.1c.5 0 .5 0 .4-.5-.1-.3-.3-.4-.7-.4-.3 0-.5.2-.5.5.1-.1.1 0 .1.2zm7.7 2.9V44c0-.1-.1-.2-.2-.3-.2-.1-.5-.1-.7 0-.1 0-.2.1-.2.2s-.1.2 0 .2.2.1.3-.1c0-.1.1-.2.3-.1.1 0 .1.1.1.1 0 .1-.1.2-.2.2-.1.1-.3.1-.4.2-.2.1-.3.5-.2.7.1.2.3.3.5.2.1 0 .2-.1.3 0 .2.1.3 0 .2-.2.2-.1.2-.3.2-.5zm-6.7-6.2v-.5c0-.3-.1-.4-.4-.4-.4-.1-.7 0-.7.3-.1.2 0 .2.1.2s.2 0 .2-.1c.1-.1.2-.2.3-.1.1 0 .1.1.1.1 0 .1-.1.2-.2.2-.1.1-.2.1-.3.2-.2.1-.3.5-.2.7.1.2.4.2.6.1h.2c.2.1.3 0 .3-.2v-.5zm-3.7.1v.2c0 .3.2.5.5.5.4 0 .6-.1.7-.4 0-.1.1-.2 0-.2s-.2 0-.3.1c0 0 0 .1-.1.1 0 .1-.1.1-.2.1s-.2 0-.2-.1c-.1-.3 0-.4.3-.4.6 0 .5 0 .5-.6 0-.2-.1-.3-.3-.3H42c-.2.1-.3.2-.3.4-.1.2-.2.4-.1.6zm-5.9 0V38c0-.3-.1-.5-.5-.5-.2 0-.3 0-.5.1-.1 0-.2.1-.2.2s-.1.2 0 .2.2.1.3-.1c.1-.1.2-.2.3-.1.1 0 .1.1.1.1 0 .1-.1.2-.2.2 0 0-.1 0-.1.1-.1 0-.2.1-.2.1-.2.1-.3.5-.2.7.1.2.3.2.6.1h.2c.2.1.3 0 .3-.2.1-.1.1-.3.1-.4zm14.3 0v.3c0 .2.2.4.4.4.4 0 .6 0 .7-.3 0-.1.1-.2 0-.3-.1-.1-.3 0-.3.1s-.1.1-.2.1-.2-.1-.2-.1c-.1-.2 0-.4.3-.4.5 0 .6.1.4-.6-.1-.3-.3-.4-.6-.4s-.5.2-.5.4v.8zm-10.1 3.1v.4c0 .3.3.5.6.5s.5-.2.6-.4c0-.1 0-.1-.1-.2s-.3 0-.3.1-.1.2-.2.2-.2-.1-.2-.2c-.1-.3 0-.3.3-.3.5 0 .6-.1.5-.6 0-.2-.1-.3-.3-.3h-.5c-.2.1-.3.2-.4.4v.4zm-7.1-3.2v-.5c0-.2-.1-.3-.3-.4h-.4c-.2 0-.3.1-.3.2s-.1.2 0 .2c.1.1.2 0 .2 0 .1 0 .1-.1.1-.1.1-.1.2-.1.3-.1.1 0 .1 0 .1.1s0 .2-.1.2-.1.1-.2.1-.2.1-.3.2c-.2.2-.2.5 0 .7.1.1.4.2.5.1.1 0 .1-.1.3 0 .2.1.3 0 .3-.2-.2-.1-.2-.3-.2-.5zm20.8 6.1V44c0-.2-.2-.3-.4-.4h-.3c-.3 0-.4.1-.4.4-.1.3-.1.7 0 1 0 .2.2.3.4.3s.5.1.7-.2c0 0 0-.1.1-.2-.1 0-.1-.2-.1-.4zm7.7-6.2v.6c0 .1 0 .2.2.2s.2-.1.2-.2V38c0-.1 0-.3.2-.3s.2.1.2.3v.9c0 .1 0 .2.2.2s.2-.1.2-.2v-1.1c0-.3-.2-.5-.5-.4-.1 0-.2.1-.3 0-.2-.1-.3 0-.3.2-.1.3-.1.5-.1.7zm-22.1 0v.7c0 .2.1.2.3.2.1 0 .1-.1.1-.2v-1c0-.1 0-.2.1-.2h.2c.1.1.1.2.1.3v.9c0 .2.1.2.2.2s.2-.1.2-.2v-1.2c0-.3-.2-.5-.5-.4-.1 0-.2.1-.3 0-.2-.1-.3 0-.3.2-.1.3-.1.5-.1.7zm19.5.1v-.5c0-.3-.3-.5-.6-.4-.1 0-.1.1-.2 0-.2-.1-.3 0-.3.2v1.2c0 .1 0 .2.2.2s.2-.1.2-.2V38c0-.1 0-.3.2-.2.2 0 .2.1.2.3v.9c0 .1 0 .2.2.2s.2-.1.2-.2c-.1-.2-.1-.4-.1-.6zm-17.2 3.2v.6c0 .1 0 .3.2.3s.2-.1.2-.2v-.9c0-.1 0-.3.2-.3s.2.1.2.3v.9c0 .1 0 .2.2.2.1 0 .2 0 .2-.2v-1.2c0-.3-.3-.5-.6-.3-.1 0-.2.1-.3 0-.2-.1-.3 0-.3.2v.6zm-5.4-3.2v.2c0 .6.1.7.7.7.2 0 .3-.1.4-.3.1-.3 0-.5 0-.8 0-.5-.3-.7-.8-.6-.2 0-.3.2-.4.4.1 0 .1.2.1.4zm11.7 3.3v-.6c0-.3-.3-.5-.5-.3-.1 0-.2.1-.3 0-.2-.1-.3 0-.3.2v1.3c0 .1 0 .2.2.2.1 0 .2 0 .2-.2v-1c0-.1 0-.3.2-.3s.2.1.2.3v1c0 .1.1.2.2.2s.2 0 .2-.2c-.1-.2-.1-.4-.1-.6zm-1.9 2.7v-.5c0-.1-.1-.2-.2-.2s-.2 0-.2.2V45c0 .4.3.5.6.3 0 0 .1-.1.1 0 .1.1.2.1.3 0 .1 0 .1-.2.1-.3v-1.2c0-.1 0-.2-.2-.2s-.2.1-.2.2v1c0 .1-.1.2-.2.2s-.2-.1-.2-.2c.1-.1.1-.3.1-.4zm-15.6-6.1v-.7c0-.1 0-.2-.2-.2s-.2.1-.2.2v1.1c0 .1-.1.2-.2.2s-.2-.1-.2-.2v-1.1c0-.1 0-.2-.2-.2-.1 0-.2.1-.2.2v1.2c0 .4.3.5.6.3.1 0 .1-.1.2 0s.2 0 .3 0c.1 0 .1-.1.1-.2v-.6zm29.3-.8c-.3 0-.5.1-.5.3-.1.2 0 .4.2.6.1.1.2.1.3.2.1 0 .1.1.2.1.1.1.1.1 0 .2 0 .1-.1.1-.2.1s-.1 0-.2-.1v-.1c-.1-.2-.2-.1-.3-.1-.1 0-.1.1-.1.2.1.2.3.4.6.4.2 0 .5-.1.5-.3.1-.2 0-.4-.2-.6-.1-.1-.3-.2-.4-.3-.1 0-.1-.1-.1-.2s.1-.1.1-.1c.1 0 .1 0 .2.1v.1h.4c.1 0 .1-.2 0-.2 0-.2-.2-.3-.5-.3zm-1.7 3.7v-.8c0-.2-.1-.2-.2-.2-.2 0-.2.1-.2.2v1.4c0 .1.1.3-.1.3s-.2-.2-.2-.3c0-.1-.1-.1-.2-.1s-.2 0-.2.1c0 .3.1.6.4.6.5.1.7-.1.7-.5v-.7zm-14.4 1.3c.3 0 .5-.1.5-.3.1-.3 0-.4-.3-.6-.1-.1-.2-.2-.3-.2-.1-.1-.1-.1-.1-.2s.1-.1.1-.1c.1 0 .2 0 .2.1.1.1.3.2.3.1.1-.1 0-.2 0-.3-.2-.2-.4-.2-.7-.2-.3.1-.5.3-.3.6.1.1.1.2.2.3.1.1.3.2.4.3.1.1.1.1 0 .2s-.1.1-.2.1-.1-.1-.1-.1c0-.2-.2-.1-.3-.1-.1 0-.1.2 0 .2.1.1.3.2.6.2zM55 38.3V38c0-.1 0-.2.1-.2s.1.1.1.2c0 .2.1.1.2.1s.1-.1.1-.2c0-.3-.2-.4-.5-.4s-.5.1-.6.4c-.1.3-.1.7 0 1 0 .3.2.4.5.4s.5-.2.5-.4 0-.3-.2-.3c-.1 0-.2.1-.2.2s0 .2-.1.2-.1-.1-.1-.2c.3-.2.3-.4.2-.5zm-9.4.1v.5c.1.2.2.4.5.4s.5-.1.5-.4c0-.1.1-.3-.1-.3-.2-.1-.2 0-.3.2 0 .1 0 .2-.1.2s-.1-.1-.2-.2v-.9c0-.1.1-.1.1-.1.1 0 .1.1.1.2 0 .2.1.1.2.1s.2-.1.1-.2c0-.2-.2-.4-.5-.4s-.5.1-.5.3c.2.2.2.3.2.6zm-7.1 3.2v.4c0 .3.2.4.5.4s.5-.1.5-.4c0-.1 0-.2-.1-.2s-.3 0-.3.2c0 .1 0 .2-.2.2-.1 0-.1-.1-.2-.2v-.7c0-.1 0-.2.2-.2.1 0 .1.1.1.2 0 .2.1.1.2.1s.1-.1.1-.2c0-.2-.2-.4-.4-.4-.3 0-.6.1-.6.3.2.2.3.4.2.5zm-2.3-.3v.9c0 .1 0 .2.1.2h.9c.1 0 .1-.1.1-.1 0-.1 0-.1-.1-.1h-.4c-.3 0-.3 0-.3-.3v-1.5c0-.1-.1-.2-.2-.2s-.2.1-.2.2c.2.3.1.6.1.9zm13-2.7c-.1-.1-.1-.1-.1-.2-.1-.3-.1-.6-.1-.8 0-.2-.2-.1-.3-.1-.2 0-.1.1-.1.2 0 .2.1.3.1.5.1.3.1.5.2.8 0 .1.1.2.3.2.1 0 .2 0 .3-.1.1-.5.2-.9.3-1.4 0-.1 0-.1-.1-.2-.2 0-.2 0-.3.2 0 .3-.1.6-.2.9zm3.6-.7v-.7c0-.2-.1-.2-.2-.2-.2 0-.2.1-.2.2V39c0 .1 0 .2.2.2h.9c.1 0 .1-.1.1-.1 0-.1 0-.1-.1-.1h-.4c-.2 0-.3-.1-.3-.3v-.8zm-5.7.5c-.1 0-.1 0 0 0v.4c0 .2.1.3.3.3.1 0 .2 0 .2-.1v-.2c-.1-.1-.1-.2-.1-.3v-.6c0-.1 0-.2.1-.3.1-.1.1-.2 0-.2-.1-.1-.1-.2-.1-.3 0-.1 0-.2-.2-.2-.1 0-.2 0-.2.2 0 .1 0 .2-.1.3-.1.1-.1.2 0 .2.1.1.1.2.1.3-.1.3 0 .4 0 .5zm-6.3 0v.4c0 .3.1.4.4.4.1 0 .1 0 .1-.1v-.2s-.1 0-.1-.1v-.9c0-.1.1-.1.1-.1.1-.1.1-.2 0-.2-.1-.1-.1-.2-.1-.3 0-.1-.1-.2-.2-.2s-.2 0-.2.2c0 .1 0 .2-.1.3-.1.1-.1.2 0 .2.1.1.1.2.1.3v.3zm-2.4-.4v.9c0 .1 0 .2.2.2s.2 0 .2-.2V37c0-.1-.1-.2-.2-.2s-.2 0-.2.2v1zm9 5.9c0-.2-.1-.2-.3-.2-.1 0-.1.1-.1.2v1.2c0 .1 0 .2.2.2s.2-.1.2-.2v-.7c0-.1 0-.3.2-.3.2-.1.2-.2.2-.4 0-.1-.1-.1-.1-.1l-.3.3zm-16.3-6.2c0-.2-.1-.2-.2-.2-.2 0-.1.1-.1.2v1.2c0 .2.1.2.2.2s.2-.1.2-.2v-.7c0-.2.1-.3.2-.3s.2-.1.2-.2 0-.2-.1-.2c-.2 0-.3.1-.4.2.1-.1 0 0 0 0zM48.9 41v-.2c-.1 0-.2 0-.2.1l-.1.1h-.1c0-.2-.1-.1-.2-.1s-.1.1-.1.2v1.3c0 .1 0 .2.2.2s.2-.1.2-.2v-.7c0-.1.1-.3.2-.3.1-.2.1-.3.1-.4zm-5.4-3.3v-.1c0-.1-.1-.1-.2-.1s-.1.1-.1.1v1.3c0 .1 0 .2.2.2s.2-.1.2-.2v-.7c0-.1.1-.3.2-.3s.2 0 .2-.2c0-.1 0-.2-.1-.3-.2.1-.2.2-.4.3.1-.1.1 0 0 0zm12.4 4.9v.1h.2c0-.1.1-.1.1-.2.1-.4.2-.9.4-1.3.1-.3.2-.6.2-.8 0-.1 0-.1-.1-.2-.1 0-.1 0-.2.1v.1l-.3 1.2c-.1.4-.2.7-.3 1zm-2-4.3v.7c0 .1.1.2.2.2s.2 0 .2-.2v-1.4c0-.1-.1-.2-.2-.2s-.2 0-.2.2v.7zm-5.6 0v-.7c0-.1 0-.2-.2-.2-.1 0-.2 0-.2.2v1.3c0 .1.1.2.2.2s.2 0 .2-.2v-.6zm-10.5 3.3v.7c0 .1 0 .2.2.2.1 0 .2 0 .2-.2V41c0-.1-.1-.2-.2-.2s-.2 0-.2.2v.6zm23.1-3.3v-.7c0-.1-.1-.2-.2-.2s-.2 0-.2.1v1.4c0 .1.1.2.2.2s.2 0 .2-.2v-.6zm6.4.9c.2 0 .2-.1.2-.2s0-.2-.2-.2c-.1 0-.2 0-.2.2 0 .1.1.2.2.2zm2.5 0c.1 0 .2 0 .2-.2 0-.1 0-.2-.2-.2-.1 0-.2 0-.2.2 0 .1 0 .2.2.2zM67.3.9c.4.1.9.2 1.3.4 1.7.8 2.7 2.1 2.9 3.9v19.7c0 .5 0 .5-.5.5h-4.7c-.3 0-.3 0-.3-.3 1.2-4.7 2.4-9.4 3.6-14l.3-1.2c.1-.2 0-.3-.2-.3H56.1c-9.2.1-18.3 0-27.5 0h-.2c-.3 0-.3 0-.4.3l-1.5 6c-.2.9-.5 1.8-.7 2.7 0 .1 0 .2-.1.2s0-.1 0-.2V5.4c0-2.2 1.8-4.2 4-4.5.1 0 .2 0 .2-.1 12.6.1 25 .1 37.4.1zM45.4 6.3c0-.1 0-.1-.1-.1C45 5 44.5 3.8 44 2.7c0-.1-.1-.2-.3-.2h-.6c-.2 0-.2.1-.2.2v4.9c0 .2 0 .3.3.3h.5c.2 0 .2-.1.2-.2 0-1.1 0-2.2-.1-3.3v-.2c.1 0 .1.1.1.1.3 1.2.9 2.3 1.3 3.4 0 .1.1.2.3.2h.6c.2 0 .3 0 .3-.3V2.8c0-.2 0-.2-.2-.2h-.6c-.1 0-.2 0-.2.2v.9c0 .8.1 1.6.1 2.5-.1-.1 0 0-.1.1zM63.5 5c0-.1.1-.1.1-.1.3-.2.4-.4.4-.7v-.5c0-.7-.4-1.1-1.1-1.1h-1.7c-.1 0-.2 0-.2.2v5c0 .2.1.2.2.2h1.7c.5 0 .8-.2 1-.6.2-.4.2-.8.2-1.3.1-.6-.1-1-.6-1.1.1 0 .1 0 0 0zm-8.6.1v2.4c0 .3 0 .3.3.3h1.6c.7 0 1.2-.4 1.3-1.1.3-1.1.3-2.2 0-3.4-.1-.6-.6-.9-1.2-.9H55c-.2 0-.2.1-.2.2.1.9.1 1.7.1 2.5zm-6.7 1.3v-.2c0-.2-.1-.3-.2-.2h-.6c-.1 0-.2.1-.2.2v.7c.1.6.4.9 1 1.1h.9c.6-.1 1.1-.4 1.3-1 .2-.7.1-1.3-.5-1.7-.4-.3-.8-.6-1.3-.9-.2-.1-.3-.3-.4-.5-.1-.3 0-.6.3-.7.4-.1.7 0 .8.4 0 .1.1.3.1.4 0 .1.1.2.2.2h.6c.1 0 .2 0 .2-.2 0-.3 0-.5-.1-.7-.1-.3-.3-.6-.7-.7-.4-.1-.7-.2-1.1-.1-1 .1-1.5 1.1-1.1 2 .2.4.5.6.8.8.3.2.7.5 1 .7.3.2.4.6.3.9-.1.2-.3.4-.5.4-.3 0-.5-.1-.6-.3-.2-.3-.2-.5-.2-.6zM36.3 5.2V4c0-.2.1-.5.2-.7.2-.2.4-.3.6-.2.2 0 .3.2.3.4 0 .1 0 .3.1.4 0 .1 0 .1.1.1h.7c.1 0 .2-.1.2-.2v-.2c0-.7-.4-1.1-.9-1.3-.3-.1-.6-.1-.9-.1-.7.1-1.1.4-1.3 1.1-.1.5-.1.9-.1 1.4 0 .6 0 1.3.1 1.9.1.5.4.9.9 1.1.3.3.7.3 1 .3.4-.1.8-.3 1-.7.1-.3.2-.7.2-1.1 0-.1-.1-.2-.2-.2h-.6c-.2 0-.3 0-.3.3 0 .2 0 .4-.1.7-.1.3-.3.4-.6.3-.3-.1-.4-.3-.5-.6 0-.6.1-1.1.1-1.5zm15 0v2.5c0 .1 0 .2.2.2H54c.1 0 .2-.1.2-.2v-.3c0-.3 0-.3-.3-.3h-1.3c-.2 0-.3 0-.3-.2V5.7c0-.2 0-.3.3-.3h1.2c.2 0 .2 0 .2-.2v-.3c0-.2 0-.3-.2-.3h-1.2c-.2 0-.3 0-.3-.3v-.9c0-.2 0-.2.3-.2H54c.1 0 .2-.1.2-.2v-.4c0-.2-.1-.2-.2-.2h-2.3c-.2 0-.3 0-.3.3-.1.9-.1 1.7-.1 2.5zm-12 0v2.4c0 .2.1.2.2.2h2.4c.2 0 .2 0 .2-.2v-.3c0-.2-.1-.2-.2-.2h-1.3c-.3 0-.3 0-.3-.3V5.7c0-.3 0-.3.3-.3h1.1c.2 0 .3 0 .3-.3v-.3c0-.2 0-.2-.2-.2h-1.2c-.2 0-.3 0-.3-.2v-.8c0-.3 0-.3.3-.3h1.3c.1 0 .2-.1.2-.2v-.4c0-.2 0-.3-.2-.3h-2.3c-.3 0-.3 0-.3.3v2.5zm27.3-.6s0-.1 0 0c-.2-.7-.5-1.3-.7-1.9-.1-.1-.1-.2-.3-.2H65c-.3 0-.3 0-.2.3.4.9.8 1.7 1.2 2.6.1.2.1.4.1.6v1.7c0 .1.1.2.2.2h.6c.2 0 .2-.1.2-.2V6.1c0-.3.1-.6.2-.8.4-.8.8-1.7 1.1-2.5.1-.2.1-.2-.1-.2h-.7c-.1 0-.2.1-.3.2-.1.5-.4 1.1-.7 1.8.1-.1.1 0 0 0zm-36.9.6v2.4c0 .2.1.2.2.2h2.4c.2 0 .2-.1.2-.2v-.3c0-.2-.1-.2-.2-.2H31c-.3 0-.4-.1-.4-.4V2.6c0-.1-.1-.2-.2-.2h-.5c-.2 0-.3 0-.3.3.1.9.1 1.7.1 2.5zm3.6 0v2.4c0 .2 0 .3.2.2h.5c.3 0 .3 0 .3-.3V2.7c0-.2-.1-.2-.2-.2h-.5c-.3 0-.3 0-.3.3v2.4z"/><path class="st0" d="M23.6 34c.2-.7.4-1.5.6-2.2 1.3-5.3 2.7-10.5 4-15.8.4-1.5.8-3 1.1-4.4.1-.3.1-.3.4-.3h20.6c.3 0 .3 0 .3.3-.7 2.8-1.4 5.5-2.1 8.3-.1.3-.1.3-.4.3h-3.7c-.3 0-.3 0-.3-.3-.4-2.2-2-3.8-4.2-4.3-1.6-.3-3.2-.1-4.7.6-2.6 1.1-4.5 3-5.5 5.6-.4.9-.6 1.9-.5 3 .1 2.6 1.9 4.8 4.7 5.2 2 .3 3.9-.3 5.6-1.3 1.2-.7 2.2-1.7 3.1-2.9.2-.3.4-.5.8-.5h3.4c.3 0 .3 0 .2.3-.7 2.8-1.4 5.6-2.2 8.4-.1.3-.1.3-.4.3H23.5c.1-.2.1-.2.1-.3zm50.1-6.9c-.2.6-.3 1.3-.5 2L72 33.9c-.1.3-.1.3-.4.3H55.4c-.3 0-.3 0-.2-.3 1.2-4.6 2.4-9.3 3.5-13.9.7-2.8 1.4-5.7 2.2-8.5.1-.3.1-.3.4-.3H68c.3 0 .3 0 .2.3-1.3 5-2.6 10-3.8 15.1-.1.3-.1.4.3.4h9.1c-.1 0-.1.1-.1.1z"/><path class="st0" d="M37.9 18.1c1 0 2 .3 2.7 1 .7.8 1.1 1.7.9 2.7-.3 2.5-1.8 4.2-4.1 5.1-1 .4-2.1.5-3.2.1-1.2-.4-1.9-1.3-2.2-2.6-.2-1 0-2.1.5-3 .9-1.8 2.4-2.9 4.3-3.3.2 0 .4-.1.5-.1.3.1.4.1.6.1zM50 34.2h-3.3c-.3 0-.4 0-.3-.4l2.1-8.1c.2-.6 0-.6.7-.6h6.5c.2 0 .2.1.2.2l-.3 1.2c-.6 2.4-1.2 4.9-1.9 7.3-.1.2-.1.3-.4.3-1 .1-2.2.1-3.3.1zm3.6-14.1h-3.3c-.3 0-.4 0-.3-.3.7-2.6 1.3-5.2 2-7.8 0-.2.1-.4.1-.5.1-.3.1-.3.4-.3h6.7c.3 0 .3 0 .3.3-.3 1.1-.6 2.3-.9 3.4-.4 1.7-.9 3.4-1.3 5 0 .2-.1.2-.3.2h-3.4zm1.3 21.6v-.3c0-.1.1-.2.2-.2s.2.1.2.2c.1.2.1.4 0 .6 0 .1-.1.1-.2.1s-.2-.1-.2-.2v-.2zm4.1-1.1c0 .3.1.6.1.9 0 .1-.1.1-.2.1s-.2 0-.2-.1c.1-.3.1-.6.3-.9-.1 0-.1 0 0 0zm4.6-2.3v.4c0 .1-.1.2-.2.2s-.2-.1-.2-.2v-.8c0-.1.1-.2.2-.2s.2.1.2.2v.4zm-14.8 6.4v.1c0 .1 0 .2-.2.2-.1 0-.1 0-.2-.1s-.1-.2 0-.3c.1-.1.2-.2.3-.2.1 0 .1 0 .1.1v.2zm7.8-6.6c-.1 0-.2 0-.2-.2 0-.1.1-.2.2-.2.2 0 .2.1.2.2.1.2 0 .2-.2.2zm-11.5 3.2c0 .2-.1.2-.2.2s-.2 0-.2-.2c0-.1.1-.2.2-.2.1-.1.2 0 .2.2zm6.6 3.4v.1c0 .1 0 .2-.2.3-.1 0-.2 0-.2-.1-.1-.1-.1-.2 0-.3l.1-.1c.1 0 .2-.2.2-.1.1.1.1.2.1.2zm-6.8-6.1v.2c0 .1-.1.2-.2.2-.2 0-.2-.2-.2-.3 0-.1.2-.3.3-.4 0 0 .1 0 .1.1v.2zm-2.7-.5c-.1 0-.2 0-.2-.2 0-.1.1-.2.2-.2.2 0 .2.1.2.2 0 .2-.1.2-.2.2zm-6.9.5v.1c0 .1 0 .2-.2.2-.1 0-.2 0-.2-.1-.1-.1-.1-.2 0-.3l.2-.2c.1-.1.1 0 .1.1.1.1.1.1.1.2zm15.3-.5c-.1 0-.2 0-.2-.2 0-.1.1-.2.2-.2.2 0 .2.1.2.2 0 .2-.1.2-.2.2zm-10.1 3.3c-.2 0-.2 0-.2-.2 0-.1.1-.2.2-.2.2 0 .2.1.2.2 0 .2-.1.2-.2.2zm-8.1-2.8v.1c0 .1 0 .2-.2.3H32c-.1-.1-.1-.2 0-.3l.1-.1c.1-.1.2-.2.3-.1.1-.1 0 0 0 .1zm20.4 5.9v-.4c0-.1.1-.2.2-.2s.2.1.2.2v.8c0 .1-.1.2-.2.2s-.2-.1-.2-.2v-.4zm-15.9-6.1v.4c0 .1-.1.2-.2.2s-.2-.1-.2-.2V38c0-.1.1-.2.2-.2s.2.1.2.2v.4zM62.1 6.3v-.6c0-.1.1-.2.2-.2h.6c.2.1.3.2.4.4.1.3.1.5 0 .8-.1.2-.3.3-.5.4h-.5c-.2 0-.2-.1-.2-.3v-.5zm0-2.3v-.5c0-.1.1-.2.2-.2h.2c.5 0 .7.2.7.7v.3c0 .2-.2.3-.4.4-.6.1-.7.1-.7-.5V4zm-6.2 1.2V3.6c0-.3 0-.3.3-.3h.3c.4 0 .6.1.7.6.1.2.1.5.1.7 0 .6.1 1.3-.1 1.9-.1.5-.3.7-.8.7s-.5 0-.5-.5V5.2z"/></svg>