<svg width="16" height="16" viewBox="0 0 16 16" fill="none" xmlns="http://www.w3.org/2000/svg">
    <path fill-rule="evenodd" clip-rule="evenodd" d="M8 0C3.582 0 0 3.582 0 8C0 12.418 3.582 16 8 16C12.418 16 16 12.418 16 8C16 3.582 12.418 0 8 0ZM6.64467 10.6733C6.89957 9.86477 7.30891 8.94775 7.58539 8.32835C7.71673 8.03411 7.81809 7.80704 7.85867 7.69067C8.04067 7.166 7.718 6.93333 6.69867 7.83L6.472 7.40333C7.63467 6.13867 10.0287 5.85267 9.214 7.812C9.10015 8.08581 8.99355 8.33971 8.89432 8.57605L8.89415 8.57645L8.89413 8.57649C8.55012 9.39585 8.29475 10.0041 8.13333 10.4987C7.83 11.4273 8.596 11.0507 9.346 10.358L9.35142 10.3669C9.44922 10.5266 9.48316 10.5821 9.58333 10.7707C7.918 12.356 6.06933 12.496 6.64467 10.6733ZM8.632 5.21267C8.926 5.52267 9.45133 5.52933 9.806 5.22733C10.16 4.926 10.208 4.43067 9.91533 4.12C9.62133 3.81067 9.096 3.80333 8.74133 4.10533C8.38733 4.40733 8.338 4.90267 8.632 5.21267Z" fill="white"/>
</svg>
