<svg id="Layer_1" data-name="Layer 1" xmlns="http://www.w3.org/2000/svg" viewBox="0 0 96.05 48"><defs><style>.cls-1{fill:#C6C6C6}</style></defs><path class="cls-1" d="M94.3 26.93c-.44 1.27-.9 2.54-1.33 3.81-.89 2.57-1.76 5.13-2.64 7.7-.11.32-.25.63-.39.94a3.27 3.27 0 01-3.19 2c-.78 0-1.56 0-2.33-.1-.32 0-.47-.16-.47-.49V38.5c0-.3.1-.41.4-.38a9.73 9.73 0 001.08 0c.5 0 .67-.25.54-.74s-.32-1-.49-1.48l-3-8.72c-.16-.48-.12-.54.38-.55h3.46c.36 0 .51.14.58.49.4 1.91.82 3.81 1.24 5.71a.87.87 0 00.18.49c.29-1.27.57-2.5.86-3.73.19-.82.39-1.64.55-2.47.08-.39.27-.5.64-.5h3.89zm-63.75-15.1c1.45-2.17 5.77-2.05 7 .25.23-.25.43-.52.68-.75a4.74 4.74 0 015.73-.22 3.3 3.3 0 011.24 2.6v7.16c0 .35-.12.5-.48.5h-3.31c-.41 0-.53-.18-.53-.56v-5.46a1.31 1.31 0 00-1.6-1.47A1.36 1.36 0 0038 15.37v5.36c0 .61 0 .64-.63.64H34.3c-.51 0-.63-.18-.63-.66V15.3a1.39 1.39 0 00-2-1.34 1.37 1.37 0 00-.91 1.41v5.17c0 .82 0 .82-.8.82h-3c-.39 0-.56-.13-.56-.54v-9.79c0-.38.14-.52.52-.52h3c.65 0 .66 0 .66.65zM31.3 30c.45.16.9.33 1.36.48a.53.53 0 01.42.57v4.87a.59.59 0 01-.39.61A23 23 0 0028.2 39a2.24 2.24 0 01-1.48.23c-1.13 0-2.26-.14-3.4-.13-.22 0-.46.06-.69-.2l.86-.35c.79-.3 1.57-.61 2.37-.88a.73.73 0 00.57-.82V23.5c0-.78 0-.78.78-.78H30c.67 0 .69 0 .69.67v4c.18.09.23-.05.3-.12a4.71 4.71 0 015.84-.2A3.46 3.46 0 0138 29.85v6.87a1.37 1.37 0 00.49 1.28c.27.23.51.5.77.75.07.06.18.13.11.23a.45.45 0 01-.21.09c-.77.17-1.56.07-2.33.17s-1.33 0-2 .11c-.39.06-.59 0-.53-.53a25.32 25.32 0 000-3.26V30.5c0-.48-.17-.63-.63-.61h-2.38zm58.09-10.06a4.66 4.66 0 01-7-1.82 6.63 6.63 0 01.1-5.31 4.3 4.3 0 014-2.56 3.75 3.75 0 013.3 1.06s.09-.06.09-.08c.07-.7.07-.7.76-.7h2.49c.35 0 .5.13.5.48v9.7a8.25 8.25 0 01-.11 1.21 3.55 3.55 0 01-2.57 3 11.43 11.43 0 01-6.63.13 3 3 0 01-2.3-3.12c0-.36.11-.51.47-.51h3c.2 0 .38 0 .47.26a1.39 1.39 0 001.62 1.16 4.14 4.14 0 00.91-.16 1.2 1.2 0 001-1.23v-.73c0-.24-.12-.49-.1-.78zm-3.46-4.16c0 .29.08.63.16 1a1.43 1.43 0 001.45 1.19 1.5 1.5 0 001.58-1.11 5.09 5.09 0 000-2.36A1.41 1.41 0 0088 13.3a1.57 1.57 0 00-1.67.82 4.52 4.52 0 00-.4 1.66zM9.27 20a4.84 4.84 0 01-5 .36 4.41 4.41 0 01-2.49-4 7 7 0 01.36-3.17 4.38 4.38 0 014.13-2.95 3.81 3.81 0 013.3 1.05.37.37 0 00.09-.29c0-.32.15-.42.45-.42h2.82c.34 0 .47.13.47.46v9.89a3.89 3.89 0 01-1.4 3.25 5.49 5.49 0 01-2.64 1 12.4 12.4 0 01-4.93-.13A3.08 3.08 0 011.79 22c-.05-.54 0-.65.57-.65h2.82c.21 0 .42 0 .51.25a1.5 1.5 0 001.86 1.16c1.32-.17 1.7-.61 1.72-1.95zm-3.4-4.2a7 7 0 000 .71 1.51 1.51 0 001.52 1.42 1.56 1.56 0 001.63-1.31 4.89 4.89 0 000-2c-.18-.87-.63-1.32-1.4-1.35A1.59 1.59 0 006 14.53a4.89 4.89 0 00-.13 1.27zm69.26 11.53a4.32 4.32 0 013.87-.85 3.85 3.85 0 012.9 2.36 7.68 7.68 0 01-.1 6.65A4.47 4.47 0 0175.36 37s-.11-.06-.24-.14v3.94c0 .41-.12.59-.55.58h-3.12c-.43 0-.57-.15-.57-.57V27.26c0-.61 0-.63.63-.63h2.83c.49-.02.87.02.79.7zm0 4.78a4.26 4.26 0 00.13 1.37 1.41 1.41 0 001.39 1.15 1.43 1.43 0 001.49-1.09 5.13 5.13 0 000-2.93 1.36 1.36 0 00-1.36-1 1.5 1.5 0 00-1.45 1 3.81 3.81 0 00-.22 1.5zM50.56 20.77c.06.55-.24.61-.63.6h-2.92c-.43 0-.61-.11-.61-.57V7.2c0-.41.11-.59.55-.58h3.17c.4 0 .54.14.54.54 0 1.17 0 2.34.06 3.51 0 .11 0 .24.07.31s.2-.06.29-.12a4.42 4.42 0 016.11 1.5 7.36 7.36 0 01-.56 7.69 4.5 4.5 0 01-5.86.83zm3.18-4.92a3.59 3.59 0 00-.17-1.37 1.4 1.4 0 00-1.41-1.11 1.43 1.43 0 00-1.41 1.13 4.91 4.91 0 000 2.84 1.4 1.4 0 001.38 1.09 1.5 1.5 0 001.42-1.07 4.21 4.21 0 00.19-1.51zM25.29 17v3a2 2 0 00.16.95c.12.24.07.37-.21.37h-3.46c-.22 0-.39-.08-.39-.33s-.13-.36-.41-.2a6.06 6.06 0 01-4.19.65 3.31 3.31 0 01-2.72-3 3.41 3.41 0 012.14-3.53 16.05 16.05 0 013.28-.67c.4-.07.81-.13 1.2-.22s.62-.39.34-.81a1.42 1.42 0 00-1.35-.49c-.46 0-.91.11-1.09.58a.68.68 0 01-.75.47c-1 0-2 0-3 .07-.36 0-.45-.12-.37-.46a3.39 3.39 0 011.82-2.46 9 9 0 014.75-.73 7 7 0 011.82.34 3.13 3.13 0 012.39 3.22v3.26zm-6.21 1.72a2.13 2.13 0 002.08-1.87c0-.2.06-.49-.3-.39-.72.21-1.44.41-2.13.67a.82.82 0 00-.63 1c.06.37.44.6.98.6zm50.75 14.69v2.84a1.46 1.46 0 00.08.72c.23.43.08.52-.35.51h-3.17c-.27 0-.49 0-.47-.39s-.12-.3-.34-.17a6.14 6.14 0 01-3.85.77 3.45 3.45 0 01-.91-6.69 13.46 13.46 0 012.86-.59l1.63-.3c.4-.06.47-.29.31-.62a1.24 1.24 0 00-.21-.33 1.72 1.72 0 00-2.36.37.5.5 0 01-.48.33c-1 0-2.11.05-3.16.1-.39 0-.47-.14-.39-.5a3.29 3.29 0 012.11-2.56 9.4 9.4 0 016.67-.09 2.9 2.9 0 012 2.85c.03 1.34.01 2.58.03 3.75zm-6.28 1.48a2.18 2.18 0 002.14-2.1c0-.2-.07-.27-.26-.21-.74.24-1.5.44-2.22.71a.81.81 0 00-.57 1c.14.48.55.54.91.6zm10.1-23.11a4.52 4.52 0 014.83-1.36 3.39 3.39 0 012.57 3.44v7c0 .35-.13.49-.48.49h-3.31c-.42 0-.53-.19-.53-.57v-5.5c0-1.06-.45-1.47-1.51-1.42a1.23 1.23 0 00-1.3 1.33v5.31c0 .85 0 .85-.87.85h-2.87c-.42 0-.57-.13-.57-.56v-9.74c0-.4.12-.56.53-.55h3c.39 0 .57.12.54.53-.04.23-.03.43-.03.75z"/><path class="cls-1" d="M46.7 32.88h-3.17c-.44 0-.56.18-.45.57a1.63 1.63 0 001.24 1.3 1.85 1.85 0 002-.73c.46-.59.47-.59 1.14-.3l2.24 1c.53.23.54.29.18.76a6.12 6.12 0 01-4.3 2.4A5.85 5.85 0 0139 30a5.44 5.44 0 015.32-3.74 6.09 6.09 0 014.15 1.25 5.32 5.32 0 011.92 3.65 10.56 10.56 0 01.09 1.12c0 .61 0 .64-.61.64zm-2.09-2.36h1c.43 0 .49-.17.36-.54a1.36 1.36 0 00-1.35-1 1.56 1.56 0 00-1.41 1.08c-.08.28 0 .44.31.44zm-24.79 1.87v-2.58c0-.36-.09-.53-.49-.53-1 0-1 .19-1-1v-.09c0-.37-.13-.8.08-1.1s.69-.13 1-.16.4-.21.4-.48v-2.39c0-.4.14-.55.54-.54h3.26c.41 0 .54.15.53.55v2.38c0 .37.14.48.49.48C26 26.94 26 27 26 28.24s.12 1-1 1.05c-.81 0-.81 0-.82.8v3.22c0 .83.28 1.11 1.1 1.12h.39c.32 0 .45.11.45.42v2.14a.39.39 0 01-.36.44 10.57 10.57 0 01-3.72 0 2.53 2.53 0 01-2.18-2.69v-2.39zM58.63 14V7.28c0-.63 0-.65.66-.65h3.17c.39 0 .56.11.55.53v13.68c0 .42-.18.54-.56.53h-3.07c-.73 0-.75 0-.75-.73zM51 32v-4.83c0-.44.15-.6.59-.59h3.07c.31 0 .51.09.48.44s.15.34.38.16a4.25 4.25 0 012.65-.81c.35 0 .49.13.49.49v2.72c0 .34-.1.47-.45.44a4.38 4.38 0 00-1.3.08 1.82 1.82 0 00-1.59 1.92v4.77c0 .49-.15.66-.64.64h-3.12c-.43 0-.56-.16-.56-.57V32zm13.16-16.09v-4.82c0-.43.14-.58.57-.57h3.26c.35 0 .5.13.5.49v9.84c0 .37-.15.52-.52.52H64.7c-.4 0-.54-.14-.53-.54 0-1.64-.01-3.28-.01-4.92zm2.19-9.28H68c.33 0 .48.12.48.45v2.05c0 .3-.14.44-.44.44h-3.47c-.28 0-.41-.12-.41-.41v-2.1c0-.31.13-.44.44-.43z"/></svg>