<svg id="Layer_1" data-name="Layer 1" xmlns="http://www.w3.org/2000/svg" viewBox="0 0 48 48"><defs><style>.cls-1{fill:#C6C6C6}</style></defs><path class="cls-1" d="M24 4a20.11 20.11 0 014 .41 19.52 19.52 0 013.77 1.19 20.22 20.22 0 013.39 1.84 20 20 0 015.4 5.4 20.22 20.22 0 011.84 3.39A19.52 19.52 0 0143.56 20a20 20 0 010 8.06 19.52 19.52 0 01-1.16 3.74 20.22 20.22 0 01-1.84 3.39 20 20 0 01-5.4 5.4 20.22 20.22 0 01-3.39 1.84A19.52 19.52 0 0128 43.56a20 20 0 01-8.06 0 19.52 19.52 0 01-3.74-1.16 20.22 20.22 0 01-3.39-1.84 20 20 0 01-5.4-5.4 20.22 20.22 0 01-1.81-3.39A19.52 19.52 0 014.44 28a20 20 0 010-8.06 19.52 19.52 0 011.16-3.71 20.22 20.22 0 011.84-3.39 20 20 0 015.4-5.4 20.22 20.22 0 013.39-1.84A19.52 19.52 0 0120 4.44 20.11 20.11 0 0124 4m0-3.5A23.5 23.5 0 1047.5 24 23.5 23.5 0 0024 .5z"/><path class="cls-1" d="M12 31.73V21H8.9v-1.6h.23c1.42 0 3.08-.34 3.5-2.23v-.29h1.74v14.85zm6.25-4.15c0-2.21 1.07-3.42 2.54-3.72a3 3 0 01-2.05-3.21c0-2.3 1.53-3.73 4-3.73s4 1.43 4 3.73a3 3 0 01-2.06 3.21c1.47.3 2.54 1.51 2.54 3.72 0 2.91-1.45 4.44-4.49 4.44s-4.48-1.53-4.48-4.44zm4.49 2.77c1.68 0 2.1-1.26 2.1-2.82s-.42-2.81-2.1-2.81-2.1 1.24-2.1 2.81.42 2.82 2.1 2.82zm0-7.3c1.49 0 1.87-1.07 1.87-2.27s-.38-2.22-1.87-2.22-1.87 1.05-1.87 2.22.38 2.27 1.87 2.27zm10.43-3.95H35v4.41h4.4v1.8H35v4.41h-1.8v-4.41h-4.44v-1.8h4.41z"/></svg>