<svg version="1.1" id="Providers" xmlns="http://www.w3.org/2000/svg" x="0" y="0" viewBox="0 0 564.7 120" xml:space="preserve"><style>.st0{fill:#C6C6C6}.st1{opacity:.6}.st4{opacity:.45}.st5{opacity:.8}</style><path class="st0" d="M174.8 101.6l.1.1-.1-.1zm.1-.1h.1v.2h-.1l.1.1h-.1l-.1-.1v.1h-.1v-.3h.2zm0 .4h.1s.1 0 .1-.1c0 0 .1 0 .1-.1v-.2l-.1-.1h-.4s0 .1-.1.1v.2s0 .1.1.1l.1.1h.1m0-.6h.1s.1 0 .1.1l.1.1v.2s0 .1-.1.1l-.1.1h-.2l-.1-.1-.1-.1v-.2s0-.1.1-.1l.1-.1h.1m-34.6-1.3c0-.6.5-1.1 1.1-1.1s1.1.5 1.1 1.1c0 .6-.5 1.1-1.1 1.1-.6.1-1.1-.4-1.1-1.1 0 .1 0 .1 0 0m3 0v-1.8h-.8v.5c-.3-.3-.7-.5-1.2-.5-1 0-1.9.8-1.9 1.9 0 1 .8 1.9 1.9 1.9.4 0 .9-.2 1.2-.5v.4h.8V100zm27.2 0c0-.6.5-1.1 1.1-1.1.6 0 1.1.5 1.1 1.1 0 .6-.5 1.1-1.1 1.1-.6.1-1.1-.4-1.2-1 .1 0 .1 0 .1-.1m3 0v-3.2h-.8v1.9c-.3-.3-.7-.5-1.2-.5-1 0-1.9.8-1.9 1.9 0 1 .8 1.9 1.9 1.9.4 0 .9-.2 1.2-.5v.4h.8V100zm-20.3-1.1c.5 0 .9.4.9.9h-1.9c.1-.6.6-1 1-.9.1 0 .1 0 0 0m.1-.7c-1 0-1.9.8-1.9 1.9 0 1 .8 1.9 1.9 1.9.6 0 1.1-.2 1.5-.5l-.4-.6c-.3.2-.7.4-1.1.4-.5.1-1-.3-1.1-.9h2.8v-.3c.1-1-.6-1.8-1.6-1.9h-.1m9.7 1.8c0-.6.5-1.1 1.1-1.1s1.1.5 1.1 1.1c0 .6-.5 1.1-1.1 1.1-.6.1-1.1-.4-1.1-1.1 0 .1 0 .1 0 0m3 0v-1.8h-.8v.5c-.3-.3-.7-.5-1.2-.5-1 0-1.9.8-1.9 1.9 0 1 .8 1.9 1.9 1.9.5 0 .9-.2 1.2-.5v.4h.8V100zm-7.6 0c0 1 .8 1.8 1.8 1.9h.2c.5 0 1-.1 1.3-.4l-.4-.6c-.3.2-.6.3-1 .3-.6 0-1.1-.5-1.1-1.1 0-.6.5-1.1 1.1-1.1.4 0 .7.1 1 .3l.4-.6c-.4-.3-.9-.4-1.3-.4-1-.1-1.9.6-2 1.7 0-.1 0 0 0 0m10.4-1.8c-.4 0-.8.2-1 .5v-.4h-.8v3.5h.8v-2c0-.6.3-.9.8-.9.2 0 .3 0 .5.1l.3-.7c-.2-.1-.4-.1-.6-.1m-21.7.3c-.5-.3-1-.4-1.5-.4-.9 0-1.5.4-1.5 1.1 0 .7.4.9 1.3 1.1h.4c.4.1.6.2.6.4s-.3.4-.8.4c-.4 0-.9-.1-1.2-.4l-.4.6c.5.3 1 .5 1.6.5 1.1 0 1.7-.5 1.7-1.2s-.5-.9-1.3-1.1l-.4-.1c-.4 0-.6-.1-.6-.3s.3-.4.7-.4c.4 0 .8.1 1.2.3l.2-.5zm10.4-.3c-.4 0-.8.2-1 .5v-.4h-.8v3.5h.8v-2c0-.6.3-.9.8-.9.2 0 .3 0 .5.1l.3-.7c-.2-.1-.4-.2-.6-.1m-6.9 0h-1.2v-1h-.8v1.1h-.8v.7h.8v1.6c0 .8.3 1.3 1.3 1.3.4 0 .7-.1 1-.3l-.2-.7c-.2.1-.5.2-.7.2-.4 0-.5-.2-.5-.6V99h1.3l-.2-.8zm-12 3.6v-2.2c0-.7-.5-1.4-1.3-1.4h-.2c-.5 0-1 .2-1.3.6-.3-.4-.7-.7-1.2-.6-.4 0-.8.2-1.1.5v-.4h-.8v3.5h.8v-2c-.1-.5.3-.9.7-.9h.2c.5 0 .8.3.8.9v2h.8v-2c-.1-.5.3-.9.8-.9h.1c.6 0 .8.3.8.9v2h.9zM175.3 90v-.5h-.1l-.2.4-.2-.4h-.1v.5h.1v-.4l.1.3h.1l.1-.3v.4h.2zm-.9 0v-.4h.2v-.1h-.5v.1h.2v.4h.1z"/><g class="st1"><path class="st0" d="M147.8 81.8c0-4.1 2-8 5.3-10.5-2.5-1.9-5.5-2.9-8.6-2.8-7.7 0-14 6-14 13.3 0 7.3 6.3 13.3 14 13.3 3.1 0 6.1-1 8.6-2.8-3.3-2.5-5.3-6.4-5.3-10.5"/></g><g class="st1"><path class="st0" d="M175.7 81.8c0 7.4-6.3 13.3-14 13.3-3.1 0-6.1-1-8.6-2.8 5.8-4.2 7.1-12.4 2.8-18.2-.8-1.1-1.7-2-2.8-2.8 2.5-1.9 5.5-2.9 8.6-2.8 7.7-.1 14 5.9 14 13.3"/></g><path class="st0" d="M153.1 92.3c-5.8-4.2-7.1-12.4-2.8-18.2.8-1.1 1.7-2 2.8-2.8 5.8 4.2 7.1 12.4 2.8 18.2-.7 1-1.7 2-2.8 2.8z"/><g id="g4158"><path id="polygon9" class="st0" d="M53.4 99.1h-7.1l4.5-27.8h7.1z"/><path id="path11" class="st0" d="M79.4 72c-2.1-.8-4.2-1.2-6.4-1.2-7.1 0-12.1 3.8-12.1 9.2 0 4 3.6 6.2 6.3 7.5s3.7 2.2 3.7 3.5c0 1.9-2.2 2.7-4.3 2.7-2.3.1-4.6-.4-6.7-1.5l-.9-.5-1 6.2c2.6 1 5.3 1.5 8 1.5 7.5 0 12.5-3.7 12.5-9.5 0-3.2-1.9-5.6-6-7.6-2.5-1.3-4-2.1-4-3.4 0-1.3 1.3-2.4 4.1-2.4 1.8-.1 3.7.3 5.3 1.1l.6.3 1-6-.1.1z"/><path id="path13" class="st0" d="M89 89.3c.6-1.6 2.9-7.8 2.9-7.8s.6-1.6 1-2.7l.5 2.4s1.4 6.6 1.7 8l-6.1.1zm8.9-18h-5.6c-1.6-.2-3.2.8-3.8 2.3L77.9 99.1h7.5l1.5-4.2h9.2l.8 4.2h6.7l-5.7-27.8z"/><path id="path15" class="st0" d="M40.3 71.3l-7 18.9-.8-3.9c-1.3-4.4-5.4-9.3-9.9-11.7L29 98.9h7.6l11.3-27.7h-7.6z"/><path id="path17" class="st0" d="M26.7 71.3H15.1l-.1.6c9 2.3 15 7.9 17.4 14.5L30 73.7c-.5-1.8-1.7-2.3-3.3-2.4z"/></g><path class="st0" d="M223.5 70.8c-11.6 0-21 5.5-21 12.3 0 2.9 1.7 5.5 4.6 7.7-1.4-1.6-2.2-3.7-2.2-5.8 0-7.1 9.2-12.8 20.5-12.8 7.3 0 13.7 2.4 17.4 6-3.3-4.4-10.6-7.4-19.3-7.4z"/><path class="st0" d="M214.2 81.6c.6-.5 1.4-.8 2.3-.8.8 0 1.6.3 2.2.8.6.5 1 1.2 1 2h-6.6c.1-.8.5-1.5 1.1-2zm7.5 5c.7 0 1.4-.2 2.1-.5.6-.4.9-1 .9-1.7 0-1.4-.5-2.8-1.4-3.9-1.6-2.1-4.2-3.4-6.9-3.3-2.3-.1-4.5.8-6.1 2.4-1.5 1.5-2.4 3.6-2.4 5.8 0 2.2.9 4.3 2.5 5.8 1.7 1.6 3.9 2.4 6.3 2.3 1.3 0 2.6-.2 3.8-.6 1.2-.3 2.3-1 3.2-1.9.3-.4.5-.9.6-1.4 0-1.2-.7-1.8-2-1.8-.8.2-1.5.4-2.3.8-1 .5-2 .7-3.1.8-.9 0-1.8-.2-2.6-.7-.7-.4-1.1-1.2-1.2-2h8.6zm5.8 4.5c1.6 1.6 3.8 2.5 6.1 2.4 1.3 0 2.6-.2 3.8-.7 1.4-.6 2.1-1.4 2.1-2.4 0-.5-.2-1-.5-1.4-.4-.4-.9-.6-1.4-.6-.5 0-1 .1-1.5.3-.6.2-1.3.4-2 .3-1.1.1-2.1-.4-2.8-1.1-.6-.8-.9-1.7-.9-2.7 0-1 .3-1.9.8-2.7.6-.8 1.7-1.3 2.7-1.2.7 0 1.4.1 2 .3.5.2 1 .3 1.5.4.6 0 1.1-.2 1.5-.6.4-.4.6-.9.6-1.4 0-1.1-.7-1.9-2.1-2.4-1.2-.4-2.4-.6-3.6-.6-2.3-.1-4.6.7-6.3 2.3a7.7 7.7 0 00-2.4 5.9c.1 2.3.9 4.3 2.4 5.9z"/><path class="st0" d="M245.7 82.6c.6-.8 1.6-1.3 2.6-1.2 1 0 1.9.4 2.5 1.3.6.8.8 1.7.8 2.6 0 .9-.2 1.9-.8 2.7-.6.8-1.6 1.3-2.6 1.3s-2-.4-2.5-1.3c-.6-.8-.8-1.7-.8-2.6 0-1 .3-2 .8-2.8zm-3.6 8.5c3.5 3.2 8.9 3.2 12.4 0 1.5-1.5 2.4-3.6 2.3-5.8.1-2.2-.8-4.3-2.3-5.9-3.5-3.1-8.8-3.1-12.4 0-3.2 3.3-3.2 8.4 0 11.7zm21.8-1.1v-3.5h3.5c2.1.1 4.2-.5 5.8-1.8 1.5-1.3 2.2-3.2 2.1-5.2.1-2-.8-4-2.3-5.3-1.7-1.3-3.9-1.9-6-1.8h-4.7c-1-.1-2 .2-2.8.7-.6.7-.9 1.6-.8 2.6V90c0 2.2.9 3.3 2.6 3.3s2.6-1.1 2.6-3.3zm0-13.3h2.3c2.4 0 3.6.9 3.6 2.7 0 1.8-1.2 2.7-3.6 2.8h-2.3v-5.5zm26 16.6c1.7 0 2.5-1.1 2.5-3.3v-9.3c0-2.2-.8-3.3-2.5-3.3-1 0-1.9.6-2.4 1.4-1-1.1-2.5-1.7-4.1-1.7-2.2-.1-4.3.9-5.7 2.6a8.5 8.5 0 00-.1 11.1c1.4 1.7 3.5 2.6 5.6 2.6 1.6.1 3.2-.6 4.3-1.7.4 1 1.4 1.6 2.4 1.6zm-8.3-10.6c.6-.8 1.5-1.2 2.5-1.2.9 0 1.9.4 2.4 1.2.5.7.8 1.6.7 2.5 0 .9-.2 1.8-.7 2.6-.6.8-1.5 1.2-2.5 1.2s-1.9-.4-2.5-1.2c-.5-.7-.8-1.6-.8-2.6.1-.9.4-1.7.9-2.5zm22.5-3.5l-3.1 7.3-2.9-6.9c-.2-.6-.5-1.1-.8-1.6-.5-.4-1.1-.7-1.7-.7-.6 0-1.3.2-1.8.7-.5.4-.7 1-.7 1.6 0 .4.1.9.3 1.3l5.1 10.8-2.1 4.1c-.3.5-.4 1-.4 1.6 0 .6.2 1.2.7 1.6.5.4 1.2.6 1.8.6.9 0 1.6-.6 2.2-1.8l7.7-16.6c.2-.5.4-1 .4-1.6 0-1.5-.8-2.2-2.5-2.2-.9 0-1.6.6-2.2 1.8zm17.2 9.6h-5L323 81c.5-.5.9-1.2 1-2 .1-.5-.3-1-.8-1.2-.8-.2-1.6-.3-2.4-.2h-8.1c-2.1 0-3.2.7-3.2 2.1 0 1.4 1.1 2.1 3.2 2.1h4.3l-6.9 8.2c-.5.5-.7 1.1-.8 1.8 0 .9.9 1.4 2.7 1.4h9.2c2.1 0 3.2-.7 3.2-2.1 0-1.5-1.1-2.3-3.1-2.3zm53.8-3.4h-9.3c-2 0-2.9-1-2.9-3V70.8c-.2-1.4.8-2.7 2.2-2.9h19.4c1.4-.2 2.7.9 2.9 2.3v12.3c.2 1.4-.8 2.7-2.3 2.9h-10zm-.5-1.2c1.4.2 1.4.2 2.1-.6 1.1-1.2 1.9-2.5 2.5-4 .2-.4.3-.8.9-.6s.6.6.4 1.1c-.4 1.2-1.1 2.3-1.9 3.3-.1.2-.5.4-.3.7.3.2.7.2.9 0 .2-.2.4-.4.5-.6.8-1.1 1.4-2.3 1.8-3.6.1-.5.6-.7 1-.6.1 0 .1 0 .2.1.6.2.3.7.2 1-.3 1.1-.8 2.1-1.4 3.1-.1.2-.5.5-.1.7.3.2.7.1.9-.3.3-.6.6-1.1.9-1.7.6-1 .4-2.5 1.6-3.3.1-.1.1-.3.1-.5.2-2.9-.3-5.9-1.3-8.7 0-.1-.1-.3-.1-.4-.1-.3-.4-.5-.7-.4-.4.2-.1.5 0 .7.4 1 .7 2 .9 3.1.1.5.3 1.1-.5 1.2s-.9-.3-1-.9c-.2-1.2-.6-2.4-1.1-3.5-.1-.4-.5-.7-1-.5-.1 0-.2.1-.2.1.6 1.2 1.1 2.5 1.4 3.9.1.6 0 .9-.7 1.1-.7.1-.7-.3-.8-.7-.2-1.3-.7-2.6-1.4-3.8-.2-.5-.7-.7-1.2-.5 0 0-.1 0-.1.1.1.2.1.3.2.4 1.2 2.1 2.2 4.2 1.5 6.8-.1.3-.1.5 0 .8.1.6.1 1.2-.2 1.8-.9 2-2.2 3.9-4 5.2zm-9.3-14.9c1.1.5 2.3.8 3.5.7 3.1.1 5.5 2.7 5.5 5.7s-2.7 5.5-5.7 5.5c-1.2 0-2.4-.1-3.5-.3-.3-.1-.8-.3-.9.2-.2.5.4.6.8.7 1.2.2 2.5.3 3.7.3 2.5.1 4.8-1.3 5.8-3.5 1.2-2.2 1-4.9-.5-6.9-2.4-2.9-5.5-2.7-8.7-2.4zm8.1-.1l.6.5c2.4 2.2 3.2 5.7 2 8.8-1.1 3.1-4.1 5.2-7.4 5.1-1.4 0-2.8-.2-4.3-.3.6.9.8 1 1.7 1h4c.8 0 1.5-.1 2.2-.5 4.5-2.1 6.4-7.5 4.3-12-.3-.7-.8-1.4-1.3-2-.4-.6-1.1-.8-1.8-.6zm-5.5 10.5h.4c2.5 0 4.3-1.5 4.4-3.9.2-2.2-1.4-4.1-3.6-4.3h-.6c-1.1 0-2.3-.2-3.4-.6-.3-.1-.8-.5-1 .1s.3.7.7.8c1.2.4 2.5.6 3.9.7 1.7 0 3.2 1.3 3.2 3.1v.1c0 1.8-1.4 3.2-3.2 3.2h-.1c-1.1 0-2.3-.1-3.4-.3-.3-.1-.9-.5-1 .1s.5.7.9.8c.8.1 1.8.2 2.8.2zm0-2.4h.7c.9.1 1.7-.6 1.8-1.5s-.6-1.7-1.5-1.8c-1.5-.1-2.9-.3-4.4-.7-.2 0-.4-.1-.5.2-.1.2 0 .4.1.6.3.2.5.3.8.3 1.1.3 2.2.4 3.3.4.5 0 1 .1 1 .7s-.5.7-1.1.8c-1.1 0-2.2-.2-3.3-.4-.3 0-.8-.4-.9.2-.1.6.4.7.8.7 1.1.3 2.2.4 3.2.5zm17-8.1c.6 1.6.9 3.3 1 5.1 0 3.2 0 6.5-1.7 9.5-.3.5 0 .6.4.6.9-.1 1.6-.8 1.6-1.8V70.9c.1-.8-.5-1.5-1.3-1.7zm-26.8 30.6c.8-3.2 1.6-6.1 2.4-9 0-.1.1-.3.1-.4.2-.5.1-1.1.9-1.1s.8.5 1 1l2.2 7.9c.1.4.2.8.4 1.4.3-.4.4-.9.5-1.4.7-2.7 1.4-5.3 2.1-8 .1-.4.1-.9.7-.9.8-.1 1.1.1.9.9-1 3.7-2 7.4-3 11.2-.2.7-.6.7-1.2.7-.5.1-1-.3-1.1-.8-.8-2.9-1.5-5.8-2.3-9-.2.4-.3.7-.3 1-.7 2.6-1.3 5.2-1.9 7.8-.2.7-.4 1-1.2 1-.8 0-1-.4-1.2-1-.9-3.5-1.9-7.1-2.9-10.6-.1-.4-.5-1 .2-1.2s1.1.2 1.2.9c.8 2.9 1.6 5.7 2.4 8.6-.2.3-.1.5.1 1zm31.7-1.9h-3.1c-.9 0-1 .3-.7 1.1.8 1.7 2.8 2.4 4.4 1.6.5-.2.9-.5 1.2-.9.3-.4.6-.8 1.3-.8s.7.3.5.8c-1.1 2.4-3.8 3.5-6.2 2.4-.9-.4-1.6-1-2.1-1.8-1.3-1.9-1.1-4.4.3-6.1 1.2-1.5 3.2-2.2 5.1-1.6 1.9.7 3.2 2.4 3.4 4.3.1.8-.2 1.1-1 1.1-1.1-.1-2.1-.1-3.1-.1zm-.7-1.3h2.4c.8 0 .9-.2.6-.8-.5-1.2-1.7-1.9-2.9-1.9-1.3-.1-2.5.7-3.1 1.8-.3.6-.1.9.6.9h2.4zm-11.2 2.3v2.4c0 .4.1.8-.5.8-.5 0-.8.1-1-.4-.2-.6-.5-.2-.7-.1-1.5 1-3.5 1.1-5 .1-2.4-1.3-3.3-4.3-2.1-6.7 1.3-2.4 4.3-3.3 6.7-2.1 1.5.8 2.5 2.2 2.6 3.9.1.7 0 1.4 0 2.1zm-1.5-1.5c.1-1.8-1.2-3.3-3-3.5h-.3c-1.9 0-3.4 1.6-3.3 3.5 0 1.9 1.5 3.5 3.4 3.5 1.8 0 3.3-1.6 3.2-3.4v-.1zm20.9 5c-1.1 0-2.1-.8-2.5-1.9-.1-.4-.2-.7-.2-1.1v-9.2c0-.6.1-.9.8-.9s.7.4.7.9v.9c-.1 1 .1 1.6 1.3 1.5.4-.1.7.2.7.7 0 .5-.2.7-.7.7-1.3-.2-1.4.5-1.4 1.5.1 1.2 0 2.5 0 3.7 0 1 .3 1.7 1.4 1.9.5.1.7.4.6.9s-.4.3-.7.4zM379 95.6v-5.2c0-.5-.1-1 .7-1.1.8-.1.8.5.8 1v10.8c0 .5 0 1-.8 1s-.7-.6-.7-1.1v-5.4zm4 .2v5.4c0 .5 0 1-.7 1s-.6-.5-.6-.9v-11c0-.4 0-.9.6-.9s.7.4.7.9v5.5zm-30.5 1.6v3.9c0 .4-.1.8-.6.8-.6 0-.7-.3-.7-.8v-8c0-.5.2-.8.7-.8.5 0 .6.4.6.8v4.1z"/><path class="st0" d="M382.3 74.6c2.3 0 2.1-.2 2.1 2s.2 2.1-2.1 2.1h-1.2c-1.1 0-2.1-.9-2.1-2.1 0-1.1.9-2.1 2.1-2.1.3.1.8.1 1.2.1zm-30.4 14.7c.4 0 .7.3.7.7v1.3c0 .4-.3.7-.7.7-.4 0-.7-.3-.7-.7V90c0-.4.3-.7.7-.7zm85.5 8.2c-6.6.6-12.4-5.9-12.5-12.1 0-6.8 5.5-12.4 12.3-12.6 6.9-.1 12.5 5.5 12.6 12.3.1 7-6.1 12.9-12.4 12.4zm.5-12.3v-4.8c0-.7.3-.9.9-.9h2.8c.4 0 1 .2 1-.3s-.6-.4-1-.4H433c-.2 0-.5 0-.5.3s.3.3.6.3c1 0 2.1.1 3.1 0 .9 0 1.1.3 1.1 1.1V89c0 1.5 0 1.5-1.5 1.8-.2 0-.4 0-.5.2s.3.3.5.3h3.1c.3 0 .7.2.7-.3s-.4-.3-.7-.2c-.9.1-1.2-.4-1.2-1.2.2-1.4.2-2.9.2-4.4zm4.5.5h-1.6c-.2 0-.5 0-.5.2s.1.4.3.5c1.1.7 2.6.7 3.7-.1.1-.1.2-.3.2-.4s-.3-.2-.4-.2h-1.7zm-9.3 1.3c.6 0 1.2-.3 1.6-.6.2-.1.3-.2.3-.4s-.2-.2-.4-.2h-3.5c-.1 0-.3 0-.4.2s.1.3.2.4c.7.4 1.4.6 2.2.6zm1.6-2.3c-.3-1.4-.8-2.8-1.5-4.1-.2-.5-.4-.1-.6.2-.6 1.1-1 2.4-1.5 3.5-.1.2-.3.4 0 .5s.4-.2.4-.4c.3-.8.6-1.5.9-2.3.1-.3.1-.6.4-.6s.4.3.5.6c.3 1 .8 1.9 1.4 2.6zm9.4.1l.2-.1-1.6-3.8c-.1-.2-.1-.4-.3-.4s-.3.3-.4.4c-.4.7-.7 1.5-1 2.3-.2.5-.6 1-.4 1.7.6-.6.7-1.4 1.1-2.1.2-.4.2-1.2.7-1.2s.5.8.6 1.2c.2.7.6 1.4 1.1 2zm34.9 3c-1.3 1.1-2.5 2.4-3.6 3.7-.8 1-1.3 2-2.9 2.1-1 .1-2.1.2-3.2.2-.4 0-.7-.1-1-.3-1-.5-1.5-1.6-1-2.6.2-.3.4-.6.7-.8.6-.3.8-.9.5-1.5-.2-.8.1-1.5.8-2 1.2-1.2 2.8-1.9 4.4-2 .6-.2 1.3.1 1.6.7.3.6-.1 1.1-.5 1.5s-1.1 1-1.7.6c-.9-.6-1.3 0-1.9.4.1.3.3.2.4.2.5-.2 1 0 1.2.5 0 .1 0 .1.1.2.2.7-.4 1-.8 1.1-.8.3-1.5.7-2.1 1.2-.2.1-.4.3-.3.6s.3.2.5.3c1.2.3 2.4-.3 3-1.4 1-1.7 2-3.3 3-5 .3-.6.9-1 1.6-1 .4 0 .8 0 .9.6s.3.4.6.2c.5-.4 1.1-.6 1.7-.7 1.3-.2 2 .7 1.5 1.8-.5 1-1.2 2.1-1.9 3-.3.6-.6 1.1-.9 1.7-.1.2-.3.5 0 .7.2.1.4.1.6 0 1-.5 1.8-1.3 2.4-2.2.8-1.3 1.5-2.5 2.2-3.8.4-.6.8-1.1 1.5-.7s.5 1.1.1 1.7c-.8 1.4-1.5 2.9-2.3 4.4.4.1.5-.2.7-.3 1.7-1.5 3.1-3.2 4.3-5.1.2-.3.4-.6.7-.8.4-.3 1-.3 1.5 0 .5.4.2.9-.1 1.3-.9 1.3-1.6 2.8-2.2 4.2-.1.4-.5 1-.1 1.2s.7-.3 1-.5l.6-.6c.5-.5.8-1 1.4.1.4.6 1 1 1.7 1.3.7.2 1.4-.3 2.1-.5.1 0 .2-.1.2-.3 0-.2-.1-.3-.3-.3-.6-.2-1.1-.3-1.7-.5-.8-.2-1.6-.5-1.9-1.4-.2-.9.1-1.9.9-2.5 1.2-1.1 2.6-1.8 4.2-2.1.7-.3 1.5-.4 2.2-.2.6.2 1 .5 1 1.2 0 .8-.6 1.5-1.4 1.8-.4.3-1.1.2-1.4-.2 0 0 0-.1-.1-.1-.3-.4-.5-.4-.9-.2-.7.2-1.3.6-1.8 1-.2.1-.4.3-.3.5s.3.2.5.2c.7.1 1.4.2 2 .5.7.2 1.3.8 1.5 1.5.2.8-.2 1.7-.9 2.2-1.4 1.1-3.1 1.6-4.8 1.4-.5 0-1.1-.1-1.4-.6-.4-.9-.7-.5-1.1-.1-.6.5-1.3.8-2 .8-.8.1-1.5-.4-1.7-1.1-.2-.8-.5-.7-1-.2-.4.4-.8.7-1.3 1-.8.5-1.8.4-2.4-.3-.2-.3-.6-.3-.9-.1 0 0-.1 0-.1.1-.4.3-1 .5-1.5.6-1.1.2-2.2-.6-2.4-1.7-.1-.4 0-.9.2-1.3.8-1.3 1.4-2.3 1.8-3.3zm61.9-3.7h-1.7c-.8-.1-1-.6-.5-1.3.4-.7 1.1-1.1 1.9-1.1 1.2.2 2.4-.4 2.9-1.5.2-.5.7-.8 1.3-.7.9 0 1.2.5.7 1.2-.5.8-.4.9.5 1 .6 0 1 .4 1 1v.1c0 .6-.6.8-1.2.8h-.5c-1.2-.1-2.2.6-2.7 1.6-.9 1.9-2.2 3.6-2.9 5.6-.1.3-.3.6 0 .8.4.3.6 0 .8-.2.6-.4 1.2-.9 1.8-1.3.2-.2.5-.4.7-.3s.4.5.4.8c0 .3 0 .6-.2.8-.8 1.3-2.2 2.2-3.7 2.4-.7.1-1.4-.2-1.8-.8-.4-.5-.7-.5-1.1-.1-.4.4-.9.7-1.4.8-.8.3-1.8 0-2.4-.6-.6-.8-.6-1.8-.1-2.7.4-1 .9-1.9 1.6-2.8-.4.1-.7.3-1 .6-1.4 1.3-2.6 2.7-3.7 4.2-.5.7-1 1.1-1.9.8-.3-.1-.7 0-1 .2-.6.3-1.3.4-2 .3-1.1 0-1.9-.9-1.8-2 0-.2.1-.5.2-.7.4-1.1 1-2.1 1.6-3 .2-.3.3-.6.3-.9.1-1.3 1.1-2.4 2.3-2.8.4 0 .8.2 1 .6.3.4.3.8 0 1.2l-2.4 4.2c-.2.4-.9.9-.4 1.3s.9-.3 1.3-.6c1.9-1.3 2.9-3.2 3.9-5.1.3-.7.8-1.2 1.5-1.4.6-.2 1.2-.3 1.3.6.1.5.4.3.6.1.5-.4 1.1-.6 1.8-.7.5-.1 1.1 0 1.5.5.3.5.3 1.1 0 1.6-.8 1.4-1.8 2.6-2.5 4-.2.4-.5.7-.2 1.1s.8 0 1.1-.3c1-.9 2.2-1.7 2.8-3.1.7-1.5 1.5-2.9 2.3-4.2zM459.4 83c-.6.1-1.1.2-1.5.2-.6 0-.9-.4-1.1-.8-.2-.6-.1-1.2.4-1.6.3-.4.6-.6 1.1-.2.3.2.5 0 .8-.1.9-.6 1.8-1.2 2.7-1.9.2-.2.4-.3.7-.5.7-.4 1.6-.3 2.2.2.6.7.1 1.3-.2 1.8-1.7 2.4-3.5 4.8-5 7.3-.5.8-1 1.6-1.4 2.4-.2.3-.5.8-.2 1.1s.7 0 1.1-.2c1.2-.6 2.2-1.4 3.2-2.3 2.7-2.3 5.1-5 7.1-7.9.4-.6 1-1.3.5-2.1v-.3c.6-.6 1.5-.8 2.4-.6.7.3 1 1.1.7 1.8-.3.9-.8 1.8-1.4 2.6-2.8 4.2-6.4 7.8-10.6 10.6-.8.5-1.7.9-2.6 1.2-.9.4-2 .3-2.8-.4-.7-.8-.8-1.9-.4-2.8.6-1.6 1.4-3 2.3-4.4.5-1.1 1.2-2 2-3.1zm51.9-2.9c-1.4.4-2.8 1-4.1 1.7-.3.2-.8.4 0 .7.5.2.3.6 0 .8-.5.5-1.2.7-1.8.8-.6.1-1.1-.2-1.4-.7-.3-.7-.3-1.5.2-2.2 1-1.2 2.3-2.1 3.8-2.5 2.6-.9 5.5-1.2 8.2-.8 1 .2 1.9.6 2.7 1.3 1 .7 1.3 1.9.8 3-1 2.3-2.9 4-5.2 4.8-1.5.6-3 1-4.5.3-.5-.2-.6.2-.8.5-1 1.6-2 3.1-2.9 4.7-.3.6-.9 1-1.5 1-1.2 0-1.6-.5-1-1.6s1.2-2.1 1.9-3.1c1.8-2.8 3.6-5.6 5.6-8.2-.1-.2-.1-.3 0-.5zm3.2-.1c-.3-.1-.6-.1-.7.2-.8 1.6-1.9 3-2.8 4.5-.1.2-.4.4-.2.7s.5.2.8.2c1.9-.3 3.7-1.3 4.9-2.9 1-1.2.5-2.3-1.1-2.6-.3-.1-.6-.1-.9-.1zm9 6.6c-.2 1.3-.7 2.5-1.6 3.5-1 1.6-2.5 2.8-4.2 3.5-1.1.5-2.4.1-3-1-.2-.4-.3-.9-.2-1.4.6-3.1 2.8-5.6 5.8-6.7 1-.1 2.1.2 2.9.8.4.3.3.8.3 1.3zm-2.4.6c0-.5-.5-.7-1-.4-1.7 1-2.9 2.5-3.4 4.4-.1.2 0 .4.1.5.2.1.4.1.5 0 1.6-1 3-2.5 3.8-4.2v-.3zm7.8-3.5c-.4 0-.8-.3-.9-.7v-.2c.1-1 .8-1.8 1.8-2 .5 0 1 .3 1 .8v.1c-.1 1-.9 1.8-1.9 2z"/><path d="M44.2 36.2c-1.9 7.7-9.7 12.4-17.4 10.4S14.4 37 16.4 29.3c1.9-7.7 9.7-12.4 17.4-10.4 7.6 1.9 12.3 9.7 10.4 17.3 0 0 0 0 0 0z" fill="none" stroke="#C6C6C6" stroke-miterlimit="10"/><path class="st0" d="M36.6 30.7c.3-1.9-1.2-2.9-3.1-3.6l.6-2.6-1.6-.4-.6 2.5c-.4-.1-.8-.2-1.3-.3l.6-2.5-1.6-.4L29 26l-1-.2-2.2-.5-.4 1.7s1.2.3 1.1.3c.5.1.8.5.7.9l-.7 3h.2-.2l-1 4.1c-.1.3-.4.5-.7.4l-1.1-.3-.8 1.8 2 .5 1.1.3-.6 2.6 1.6.4.6-2.6 1.3.3-.7 2.5 1.6.4.6-2.6c2.7.5 4.7.3 5.5-2.1.7-1.4.2-3-1.2-3.7-.1 0-.2-.1-.3-.1 1.3-.3 2.1-1.3 2.2-2.4zm-3.6 5c-.5 2-3.8.9-4.9.6l.9-3.5c1.1.4 4.5.9 4 2.9zm.5-5c-.4 1.8-3.2.9-4.1.7l.8-3.1c.9.1 3.7.5 3.3 2.4zM58 27.1c1 0 2.1.2 3 .6.8.4 1.5 1 2.1 1.7.6.7 1 1.6 1.2 2.5.3 1 .4 2 .4 3 0 1.6-.3 3.2-.9 4.7-.6 1.5-1.4 2.8-2.5 3.9s-2.4 2-3.8 2.6c-1.5.7-3.1 1-4.7 1h-1.1c-.6 0-1.2-.1-1.9-.2-.8-.1-1.5-.3-2.2-.4-.8-.2-1.5-.5-2.2-.8l6.3-26.4 5.6-.9-2.2 9.3c.5-.2 1-.4 1.5-.5.3 0 .8-.1 1.4-.1zm-4.8 15.6c.8 0 1.7-.2 2.4-.6.8-.4 1.4-1 1.9-1.7.6-.7 1-1.5 1.3-2.4.3-.9.5-1.8.5-2.7.1-.9-.1-1.9-.6-2.7-.5-.7-1.3-1.1-2.1-1-.4 0-.9.1-1.3.2-.5.1-1.1.4-1.5.8l-2.4 10 .4.1h1.4zm17.3 3.9h-5.4l4.5-19.1H75l-4.5 19.1zm2.7-21.4c-.7 0-1.4-.2-2-.7-.6-.5-1-1.3-.9-2 0-.5.1-1 .3-1.4.2-.4.5-.8.8-1.2.3-.3.7-.6 1.2-.8.5-.2.9-.3 1.4-.3.7 0 1.4.2 2 .7.6.5 1 1.3.9 2 0 .5-.1 1-.3 1.4-.2.4-.5.8-.8 1.2-.3.3-.7.6-1.2.8-.5.2-.9.3-1.4.3zm6.6-2.4l5.6-.9-1.4 5.6h6l-1 4.4h-6l-1.6 6.7c-.1.5-.2 1-.3 1.6 0 .4 0 .9.2 1.3.1.4.4.6.8.8.5.2 1.1.3 1.6.3.6 0 1.1-.1 1.7-.2.6-.1 1.1-.3 1.6-.5l.4 4.1c-.8.3-1.6.5-2.4.7-1 .2-2 .3-3 .3-1.3.1-2.6-.2-3.8-.7-.9-.4-1.6-1.1-2-2-.4-.9-.6-2-.5-3 .1-1.2.2-2.4.5-3.5l3.6-15zM89.9 39c0-1.6.3-3.2.8-4.7.5-1.4 1.3-2.7 2.3-3.8 1-1.1 2.2-2 3.6-2.6 1.5-.6 3.1-1 4.7-.9 1 0 2 .1 2.9.3.8.2 1.6.5 2.3.8l-1.9 4.2c-.5-.2-1-.4-1.5-.5-.6-.2-1.3-.3-1.9-.2-1.6-.1-3.2.6-4.3 1.9-1.1 1.4-1.7 3.2-1.6 5-.1 1.1.2 2.1.8 3 .7.9 1.9 1.3 3 1.1.7 0 1.3-.1 2-.2.6-.1 1.2-.3 1.8-.5l.4 4.3c-.7.3-1.5.5-2.3.7-1 .2-2 .3-3 .3-1.3 0-2.6-.2-3.8-.7-1-.4-1.9-1-2.6-1.8-.7-.7-1.2-1.6-1.5-2.6-.1-1-.2-2.1-.2-3.1zm23.8 8.1c-1.1 0-2.3-.2-3.3-.6-.9-.4-1.7-.9-2.3-1.6-.6-.7-1.1-1.6-1.4-2.5-.3-1-.5-2.1-.5-3.2 0-1.5.2-2.9.7-4.3.5-1.4 1.2-2.7 2.1-3.9.9-1.2 2.1-2.1 3.4-2.9 1.4-.8 3-1.1 4.6-1.1 1.1 0 2.3.2 3.3.6.9.4 1.7.9 2.4 1.6.6.7 1.1 1.6 1.4 2.5.3 1 .5 2.1.5 3.2 0 1.5-.2 2.9-.7 4.3-.4 1.4-1.1 2.7-2 3.9-.9 1.2-2.1 2.1-3.4 2.8-1.5.9-3.1 1.3-4.8 1.2zm2.7-15.5c-.8 0-1.5.2-2.1.7-.6.5-1.1 1.1-1.5 1.7-.4.7-.7 1.5-.9 2.3-.2.8-.3 1.6-.3 2.4 0 1 .2 2 .6 2.8.5.7 1.3 1.1 2.1 1 .8 0 1.5-.2 2.1-.7.6-.5 1.1-1.1 1.5-1.8.4-.7.7-1.5.9-2.3.2-.8.3-1.6.3-2.4.1-1-.1-2-.6-2.8-.4-.6-1.2-1-2.1-.9zm13.9 15H125l4.5-19.1h5.4l-4.6 19.1zm2.6-21.4c-.7 0-1.4-.2-2-.7-.6-.5-1-1.3-.9-2 0-.5.1-1 .3-1.4.2-.4.5-.8.8-1.2.3-.3.7-.6 1.2-.8.5-.2.9-.3 1.4-.3.7 0 1.4.2 2 .7.6.5 1 1.3.9 2 0 .5-.1 1-.3 1.4-.2.4-.5.8-.8 1.2-.3.3-.7.6-1.2.8-.4.2-.9.3-1.4.3zm5.9 3.2l1.4-.4c.5-.2 1.1-.3 1.7-.4.7-.2 1.4-.3 2.1-.3.9-.1 1.7-.1 2.6-.1 2.8 0 4.8.8 5.9 2.5s1.3 3.9.6 6.8l-2.5 10.3H145l2.4-10.1c.2-.6.3-1.2.3-1.8.1-.5.1-1 0-1.6-.1-.4-.3-.8-.7-1.1-.5-.3-1-.5-1.6-.4-.7 0-1.4.1-2.1.2l-3.5 14.8h-5.4l4.4-18.4zm64.6 4.1c0 9.7-7.6 17.4-17.3 17.4-8.9 0-17.3-6.9-17.4-17.5-.1-9.4 7.9-17.3 17.3-17.3 9.6 0 17.4 7.8 17.4 17.4zm-17.2 9.4h5.6c2.3 0 2.3 0 2.9-2.3.3-1.2-.1-1.5-1.2-1.5h-4.7c-3.5 0-3.5 0-2.6-3.5.2-1 .7-1.7 1.7-1.9 1.1-.2 1.4-.9 1.7-1.9.2-1 0-1.3-1-.9-1.1.4-1.2 0-.9-.9.5-1.6.9-3.3 1.3-4.9.2-.9 0-1.4-1-1.4h-3.3c-1-.1-1.5.4-1.7 1.4-.6 2.5-1.3 5-1.9 7.6-.2.8-.6 1.4-1.4 1.6-1.1.2-1.4 1-1.6 2-.1.7-.2 1.2.8.9.9-.3 1 .2.8.9-.3 1.1-.6 2.3-.9 3.4-.3 1 0 1.4 1.1 1.4h6.3zm51.8-3.8h-5.3c-1.3 0-1.4.3-.9 1.5 1.6 3.5 6.6 4.2 9.4 1.3.3-.3.5-.8 1-.8.7.1 1.5-.1 1.9.6.3.6-.3 1.1-.6 1.5-2.9 3.5-8.1 4.1-11.8 1.3-3.3-2.5-4.1-8.2-1.5-11.9 2.4-3.4 7.6-4.4 11.3-2.1 2.7 1.7 3.5 4.4 3.6 7.4 0 .9-.6 1.1-1.4 1.1-2 .1-3.9.1-5.7.1zm-1.3-2.5h4.1c1.1 0 1.4-.3 1-1.4-.8-2-2.7-3.3-5.1-3.3-2.3 0-4.5 1.5-5.1 3.5-.3.9 0 1.2.9 1.2h4.2zm33.6 9.7c-5 0-8.4-3.5-8.4-8.6 0-4.9 3.7-8.4 8.7-8.4 4.9 0 8.4 3.7 8.4 8.7-.1 4.9-3.6 8.3-8.7 8.3zm.1-2.6c3.4 0 6-2.5 6-5.9 0-3.3-2.5-5.8-6-5.8-3.4 0-5.9 2.4-6 5.7 0 3.3 2.6 6 6 6zm17.8-5.9v-6.6c0-.6-.1-1.4.9-1.4.7 0 1.6-.3 1.9.9.3 1 .7.2 1.1 0 2.2-1.5 4.6-1.8 7-.7 2.5 1.2 3.3 3.5 3.4 6 .2 2.9 0 5.8.1 8.8 0 1-.5 1.3-1.4 1.3-.9 0-1.3-.4-1.3-1.3v-8.1c0-3.1-1.3-4.6-3.8-4.6-2.9 0-4.9 1.8-4.9 4.7-.1 2.6 0 5.1 0 7.7 0 1-.2 1.7-1.4 1.7-1.3 0-1.3-.8-1.3-1.7-.3-2.4-.3-4.6-.3-6.7zm-33 8.5c-4.1 0-7.1-2.1-8.2-5.6-1.2-3.5 0-7.6 2.6-9.5 3.1-2.3 7.4-2.5 10.4-.4.6.4 1.1.8.5 1.5-.5.6-.9 1.3-1.9.7-1.1-.7-2.3-1-3.6-1-2.4.1-4.3 1.1-5.3 3.4s-.6 4.6 1.1 6.5c1.5 1.7 4.2 2.3 6.4 1.5.4-.2.9-.3 1.2-.6 1.1-.8 1.8 0 2.3.7.7 1-.4 1.2-.9 1.6-1.5.9-3.1 1.3-4.6 1.2zm-33.5-7.4v-5.3c0-1-.3-1.6-1.4-1.5-.8.1-1.4-.1-1.4-1.2 0-1.1.5-1.4 1.5-1.3 1.1.1 1.4-.5 1.4-1.5V24c0-1 .4-1.4 1.4-1.4.9 0 1.3.4 1.3 1.3 0 1 .1 2.1 0 3.1-.1 1.2.4 1.6 1.6 1.6.6 0 1.4-.2 1.7.7.3 1.1-.1 1.7-1.3 1.8-2 .1-2 .1-2 2.1v10c0 1 .1 2-1.4 1.9-1.5 0-1.3-1-1.3-2-.1-1.8-.1-3.5-.1-5.2zm-13.8-5.6V21.4c0-.9.1-1.6 1.3-1.6s1.3.7 1.3 1.6v22c0 .9-.1 1.6-1.3 1.6s-1.3-.7-1.3-1.6V32.3zm9.1 4.6v6.7c0 .9-.3 1.4-1.3 1.5-1.1 0-1.4-.4-1.4-1.5V30.2c0-.9.3-1.4 1.3-1.5 1.1 0 1.5.4 1.4 1.5v6.7zm67.4 0v6.7c0 .9-.2 1.5-1.3 1.5s-1.3-.6-1.3-1.5V30.2c0-.9.2-1.5 1.3-1.5s1.3.6 1.3 1.5v6.7zm.7-14.2c0 1-.7 1.7-1.8 1.8-1.1 0-1.9-.6-1.9-1.7 0-1 .7-1.8 1.7-1.9 1 0 1.9.8 2 1.8zm-69.4-1.8c1 0 1.9.8 1.9 1.8s-.8 1.8-2 1.8c-1.1 0-1.8-.8-1.8-1.8 0-.9.9-1.8 1.9-1.8z"/><path d="M353.8 34.9c0 .2-.2.3-.3.3h-6.7c.2 1.7 1.4 3.2 3.2 3.2 1.2 0 2.1-.5 2.8-1.4.1-.1.2-.2.4-.1.1 0 .2.1.2.2v.2c-.7 1.2-2 1.7-3.3 1.7-2.3 0-3.9-2-3.9-4.2s1.6-4.2 3.9-4.2c2 .2 3.7 2.2 3.7 4.3m-.7-.3c-.1-1.7-1.4-3.2-3.2-3.2s-3 1.5-3.2 3.2h6.4zm8.8-3.7c.2 0 .3.2.3.3 0 .2-.1.3-.3.3h-1.8v7c0 .2-.1.3-.3.3-.2 0-.3-.2-.3-.3v-7h-1.7c-.2 0-.3-.1-.3-.3 0-.2.1-.3.3-.3h1.7v-2.6c0-.2.1-.3.3-.3.2 0 .4.1.4.3v2.6h1.7zm10.9 3.4v4.3c0 .2-.2.3-.3.3-.2 0-.3-.1-.3-.3v-4.3c0-1.4-.8-2.9-2.4-2.9-2.1 0-2.9 1.8-2.8 3.6v3.5c0 .2-.1.3-.3.3-.2 0-.4-.1-.4-.3v-14c0-.2.1-.3.3-.3.2 0 .3.2.3.3v7.9c.6-1 1.6-1.7 2.8-1.7 2 .1 3.1 1.8 3.1 3.6m12 .6c0 .2-.2.3-.3.3h-6.7c.2 1.7 1.4 3.2 3.2 3.2 1.2 0 2.1-.5 2.8-1.4.1-.1.2-.2.4-.1.1 0 .2.1.2.2v.2c-.7 1.2-2 1.7-3.3 1.7-2.3 0-3.9-2-3.9-4.2s1.6-4.2 3.9-4.2c2.1.2 3.7 2.2 3.7 4.3m-.7-.3c-.1-1.7-1.4-3.2-3.2-3.2s-3 1.5-3.2 3.2h6.4zm8.9-3.3c0 .2-.1.3-.3.4-2 .3-2.8 1.9-2.8 3.8v3.2c0 .2-.1.3-.3.3-.2 0-.4-.1-.4-.3v-7.3c0-.2.1-.3.3-.3.2 0 .4.1.4.3v1.5c.5-.9 1.7-1.8 2.8-1.8.1-.2.3 0 .3.2m11 3.6c0 .2-.2.3-.3.3H397c.2 1.7 1.4 3.2 3.2 3.2 1.2 0 2.1-.5 2.8-1.4.1-.1.2-.2.4-.1.1 0 .2.1.2.2v.2c-.7 1.2-2 1.7-3.3 1.7-2.3 0-3.9-2-3.9-4.2s1.6-4.2 3.9-4.2c2.1.2 3.7 2.2 3.7 4.3m-.7-.3c-.1-1.7-1.4-3.2-3.2-3.2-1.7 0-3 1.5-3.2 3.2h6.4zm11.5-3.3v7.3c0 .2-.2.3-.3.3-.2 0-.3-.1-.3-.3v-1.4c-.5 1.1-1.5 1.9-2.8 1.9-2 0-3.1-1.7-3.1-3.5v-4.3c0-.2.1-.3.3-.3.2 0 .3.2.3.3v4.3c0 1.4.8 2.9 2.4 2.9 2.3 0 2.8-2.1 2.8-4.4v-2.7c0-.2.2-.4.4-.3.2 0 .3.1.3.2m17 3v4.3c0 .2-.2.3-.3.3-.2 0-.3-.1-.3-.3v-4.3c0-1.4-.8-2.8-2.4-2.8-2 0-2.8 2.2-2.8 3.8v3.3c0 .2-.2.3-.3.3-.2 0-.3-.1-.3-.3v-4.3c0-1.4-.8-2.8-2.4-2.8-2 0-2.9 1.6-2.8 3.7v3.4c0 .2-.1.3-.3.3-.2 0-.4-.1-.4-.3v-7.3c0-.2.1-.3.3-.3.2 0 .4.1.4.3v1.2c.6-1 1.6-1.7 2.8-1.7 1.4 0 2.4.9 2.8 2.1.5-1.2 1.6-2.1 3-2.1 1.8 0 3 1.7 3 3.5" fill="#C6C6C6" stroke="#C6C6C6" stroke-miterlimit="10"/><g class="st1"><path class="st0" d="M329 28.9L317.8 34l11.2 6.6 11.2-6.6-11.2-5.1z"/></g><g class="st4"><path class="st0" d="M317.8 34l11.2 6.6V15.5L317.8 34z"/></g><g class="st5"><path class="st0" d="M329 15.5v25.2l11.2-6.6L329 15.5z"/></g><g class="st4"><path class="st0" d="M317.8 36.1L329 51.9v-9.1l-11.2-6.7z"/></g><g class="st5"><path class="st0" d="M329 42.7v9.1L340.2 36 329 42.7z"/></g><path class="st0" d="M484.1 31.3c-.3-.1-.8-.1-1.4-.1-1.7 0-3.5 1.4-3.5 3.1v8.1h-3.9V27.9h3.7v1.5c.9-1.1 2.4-1.8 4.2-1.8.6 0 .9.1 1.3.1l-.4 3.6zm4.4-11c1.4 0 2.5 1.1 2.5 2.5s-1.1 2.5-2.5 2.5-2.5-1.1-2.5-2.5 1.1-2.5 2.5-2.5zm2 22.1h-3.9V27.9h3.9v14.5zm11.4-14.8c-1.6 0-3.1.5-4.2 1.5v-1.2H494v21.6h3.9v-8.2c1.2.9 2.4 1.3 3.9 1.3 2.1 0 4.2-1 5.5-2.4 1.1-1.3 1.8-3.1 1.8-5.1-.1-4.2-3.2-7.5-7.2-7.5zm-.5 11.5c-2.4 0-4-1.7-4-4s1.6-4 4-4c2.1 0 3.7 1.8 3.7 4 .1 2.3-1.6 4-3.7 4zm31.2 3.3h-3.9V21.2h3.9v21.2zm15.8-2.3c-1.4 1.7-3.7 2.6-5.9 2.6-4.3 0-7.6-3-7.6-7.5 0-4 2.7-7.6 7-7.6 4 0 6.8 3.4 6.8 7.4 0 .4 0 .8-.1 1.1h-10c.2 2 1.9 3.4 3.9 3.4 1.6 0 3-.9 3.6-1.7l2.3 2.3zm-3.6-6.8c-.1-1.3-1.3-2.5-2.9-2.5-1.6 0-2.9 1.2-3.1 2.5h6zm-25.5-5.7c-1.6 0-3.1.5-4.2 1.5v-1.2h-3.7v21.6h3.9v-8.2c1.2.9 2.4 1.3 3.9 1.3 2.1 0 4.2-1 5.5-2.4 1.1-1.3 1.8-3.1 1.8-5.1-.1-4.2-3.3-7.5-7.2-7.5zm-.5 11.5c-2.4 0-4-1.7-4-4s1.6-4 4-4c2.1 0 3.7 1.8 3.7 4 0 2.3-1.6 4-3.7 4zm-51.5-2c-.9-.5-1.9-.7-2.8-.7-.8 0-2-.6-2-2 0-1.1.9-2 2-2 1 0 2-.2 2.8-.7 1.6-.9 2.6-2.6 2.6-4.5 0-1.8-1-3.6-2.6-4.5-1.6-.9-3.6-.9-5.2 0s-2.6 2.6-2.6 4.5c0 1 .4 1.9.8 2.8.4.7.6 2.1-.7 2.8-1 .6-2.2.2-2.8-.8-.5-.8-1.1-1.6-2-2.1-1.6-.9-3.6-.9-5.2 0s-2.6 2.6-2.6 4.5c0 1.8 1 3.6 2.6 4.5 1.6.9 3.6.9 5.2 0 .9-.5 1.5-1.3 2-2.1.4-.7 1.5-1.5 2.8-.8 1 .6 1.3 1.8.7 2.8-.5.9-.8 1.8-.8 2.8 0 1.8 1 3.6 2.6 4.5 1.6.9 3.6.9 5.2 0s2.6-2.6 2.6-4.5-1-3.6-2.6-4.5z"/></svg>