<?xml version="1.0" encoding="utf-8"?>
<!-- Generator: Adobe Illustrator 24.0.2, SVG Export Plug-In . SVG Version: 6.00 Build 0)  -->
<svg version="1.1" id="Providers" xmlns="http://www.w3.org/2000/svg" xmlns:xlink="http://www.w3.org/1999/xlink" x="0px" y="0px"
	 viewBox="0 0 464.5 107.2" style="enable-background:new 0 0 464.5 107.2;" xml:space="preserve">
<style type="text/css">
	.st0{fill:#84D5F7;}
</style>
<title>payment_br</title>
<g>
	<path class="st0" d="M295.4,72.7c-1,1.8-1.5,3.8-2.3,5.7c-0.6,1.6-1.3,3.1-2,4.6c-0.6,1.1-1.5,2-2.5,2.6c-0.4,0.2-0.9,0.6-1.3-0.1
		c-0.3-0.6-0.2-1,0.4-1.3c0.4-0.2,0.9-0.5,1.2-0.9c1-0.8,1.3-2.2,0.7-3.3c-1-2.1-1.8-4.4-2.7-6.6c-0.2-0.4-0.8-1,0.1-1.3
		c0.6-0.3,1.3-0.1,1.7,0.5c0,0.1,0.1,0.1,0.1,0.2c0.6,1.7,1.2,3.4,1.9,5.1c0.1,0.4,0.3,0.8,0.6,1.1l1.8-5.3c0.6-1.8,0.6-1.8,2.5-1.8
		L295.4,72.7z"/>
	<path class="st0" d="M230.1,77.6c-0.3,0-0.6,0-0.9,0c-0.7-0.2-1.4,0.3-1.6,1c0,0,0,0.1,0,0.1c-0.2,0.8-0.5,1.5-0.8,2.2
		c-0.1,0.3-0.2,0.7-0.5,0.7c-0.4,0.2-0.9,0.2-1.4,0c-0.4-0.3-0.1-0.7,0-1.1c1.3-3.8,2.6-7.5,3.8-11.3c0.2-0.7,0.9-1.2,1.6-1
		c0.6-0.1,1.1,0.3,1.2,0.9c1.3,3.9,2.7,7.7,3.9,11.6c0.1,0.3,0.4,0.8-0.2,1c-0.6,0.1-1.3,0.3-1.6-0.5c-0.3-0.6-0.4-1.2-0.7-1.8
		c-0.8-2.1-0.3-1.9-2.7-1.9L230.1,77.6z M230.1,70.6c-0.4,1.2-0.7,2.1-1,3c-0.9,2.6-0.8,2.7,2,2.4c0.6-0.1,0.8-0.3,0.6-0.8
		C231.2,73.8,230.7,72.4,230.1,70.6z"/>
	<path class="st0" d="M268.5,75.1c0-1.8,0-3.6,0-5.4c0-0.8,0.3-1.2,1.1-1.3c1.4-0.2,2.9-0.2,4.3,0.1c1.6,0.3,2.8,1.7,2.9,3.3
		c0.3,1.8-0.7,3.5-2.4,4.2c-0.9,0.4-1.8,0.6-2.8,0.5c-1-0.1-1.3,0.4-1.3,1.3s0,1.8,0,2.7c0,0.7-0.1,1.2-0.9,1.2c-0.8,0-1-0.5-1-1.2
		C268.5,78.7,268.5,76.9,268.5,75.1z M270.5,72.4v0.7c0,1.9,0.4,2.3,2.3,1.8c0.2,0,0.4-0.1,0.7-0.2c1.2-0.6,1.8-2,1.4-3.2
		c-0.3-1.1-1.8-1.8-3.3-1.7c-1.6,0.2-0.9,1.4-1.1,2.3C270.4,72.2,270.4,72.3,270.5,72.4L270.5,72.4z"/>
	<path class="st0" d="M266.5,76.8c0,3.1-1.9,5.2-4.7,5.2c-2.8,0-4.6-2-4.6-5c0-3.1,1.9-5.2,4.7-5.2
		C264.6,71.8,266.5,73.8,266.5,76.8z M264.5,76.8c0-2.3-1.1-3.5-3-3.4c-1.5,0.1-2.4,1.4-2.4,3.3c0,2.1,1.1,3.6,2.7,3.6
		S264.5,79,264.5,76.8L264.5,76.8z"/>
	<path class="st0" d="M285.3,78.2c0,0.9,0,1.7,0,2.6c0,0.4,0,0.8-0.5,0.9c-0.4,0.1-0.9,0.2-1.1-0.4c-0.2-0.7-0.5-0.4-0.8-0.1
		c-0.6,0.5-1.3,0.7-2.1,0.7c-1.3,0.1-2.5-0.6-3-1.9c-0.5-1.3,0-2.8,1.2-3.5c1-0.6,2.1-0.9,3.2-1c0.4,0,0.9,0.1,1-0.4
		c0.1-0.5-0.1-1-0.5-1.3c-0.8-0.7-1.7-0.6-2.7-0.4c-0.5,0.1-1.3,0.9-1.5-0.2s0.8-1,1.4-1.2c3.3-0.9,5.3,0.6,5.3,4
		C285.3,76.8,285.3,77.5,285.3,78.2L285.3,78.2z M283.4,78c-0.1-0.3,0.2-1-0.4-1.1c-1-0.1-2.2,0-2.9,0.8c-0.5,0.5-0.6,1.4-0.2,2
		c0.3,0.6,1,0.8,1.6,0.7C282.6,80.3,283.3,79.4,283.4,78z"/>
	<path class="st0" d="M239.4,82c-0.7,0-1.4-0.2-2.1-0.4c-0.4-0.1-0.6-0.5-0.5-0.9c0,0,0-0.1,0.1-0.1c0.2-0.5,0.5-0.7,1-0.4
		c0.6,0.3,1.3,0.4,2,0.3c0.6,0,1.1-0.4,1.3-1c0.1-0.6-0.2-1.2-0.7-1.5c-0.5-0.2-1-0.4-1.5-0.7c-1.4-0.7-2.1-1.7-1.9-2.8
		c0.2-1.3,1.2-2.2,2.8-2.5c0.8-0.1,1.6,0,2.3,0.3c0.4,0.1,0.6,0.4,0.6,0.8c0,0.1,0,0.1-0.1,0.2c-0.2,0.5-0.5,0.7-1,0.4
		c-0.4-0.1-0.8-0.2-1.2-0.2c-0.7,0-1.3,0.1-1.5,0.9s0.2,1.1,0.8,1.4c0.4,0.2,0.9,0.4,1.3,0.6c1.6,0.7,2.3,1.9,2,3.2
		c-0.2,1.3-1.4,2.3-3,2.5C239.8,82,239.6,82,239.4,82z"/>
	<path class="st0" d="M248.2,82c-1.3,0.1-2.5-0.9-2.6-2.2c-0.2-1.7-0.2-3.4-0.2-5c0-0.6,0-1.2-0.9-1.2c-0.5,0-0.6-0.4-0.6-0.8
		s0.1-0.7,0.5-0.7c0.7-0.1,0.9-0.5,0.9-1.1c0-0.9,0.8-0.9,1.4-1c0.8-0.1,0.5,0.7,0.5,1c0,0.8,0.4,1,1.1,1c0.3,0,0.6,0,0.9,0.1
		c0.4,0.1,0.5,0.5,0.5,0.8c0,0.3-0.3,0.6-0.6,0.6c0,0,0,0,0,0c-0.4,0-0.7,0-1.1,0c-0.5,0-0.8,0.2-0.8,0.8c0,1.6,0,3.1,0,4.7
		c0,0.6,0.3,1.2,1,1.2c0.7,0,1.3,0,1.2,0.9C249.6,81.7,249.1,82,248.2,82z"/>
	<path class="st0" d="M252.3,69.9c-0.5,0.1-0.8-0.3-1.1-0.6c-2.1-1.4-4.3-2.5-6.9-2.7c-3-0.2-5.5,1-7.7,2.9
		c-0.3,0.3-0.6,0.5-0.9,0.7c-0.5,0.3-2.9,0.2-2.8,0c0.1-0.9,0.9-1.3,1.4-1.7c6-4.6,12.3-4.3,17.9,0.8
		C252.2,69.6,252.3,69.7,252.3,69.9z"/>
	<path class="st0" d="M253.2,73.5c0.8-0.9,1.4-1.5,2.2-1.6c0.5-0.1,1,0,1,0.6c0,0.5,0.1,1-0.6,1.2c-1.9,0.5-2.3,1.1-2.3,3.1
		c0,1.3,0,2.5,0,3.8c0,0.7-0.1,1.2-1,1.2s-1-0.6-1-1.3c0-2.4,0-4.8,0-7.2c0-0.6-0.2-1.2,0.8-1.3C253.2,71.9,253.3,72.5,253.2,73.5z"
		/>
</g>
<g id="layer1-2">
	<g id="g21587">
		<path id="path10057" class="st0" d="M54.8,32.1l4.6,3.1l5.6-3.7L62.7,30l3-2l6.5,4.3l-10.6,7.1l2.3,1.5L77,32.1l-11.1-7.4
			L54.8,32.1z M77,39.5l-4.6-3.1l-5.6,3.7l2.3,1.5l-3,2l-6.5-4.3l10.6-7.1L68,30.7l-13.2,8.8l11.1,7.4L77,39.5z M77,27.8l-2.3,1.5
			l-2.3-1.5l4.6-3.1V27.8z M54.8,43.8l2.3-1.5l2.3,1.5l-4.6,3.1V43.8z"/>
		<path id="path10059" class="st0" d="M87.5,43.2c1.4,0,5.1-0.2,5.1-3.9c0-2-0.6-3.5-3.1-3.8c1.7-0.2,2.9-1.6,2.8-3.3
			c0-3.2-2.1-3.9-4.8-3.9h-6.1v14.8L87.5,43.2z M196.5,43.2c2,0,4.1-0.3,4.1-3.4c0-3.6-5.2-3.3-5.2-5.6c-0.1-0.7,0.4-1.2,1.1-1.3
			c0.1,0,0.2,0,0.3,0h2.8v-1.9h-4c-3.2,0-4,1.5-4,3.4c0,3.6,5.8,3.5,5.8,5.5c0.1,0.7-0.4,1.3-1.1,1.4c-0.1,0-0.2,0-0.2,0h-4.2
			l-3.1-10.3H185l-3.4,11l-2.1-4.7c1.5-0.3,2.2-1.3,2.2-3.1c0.2-1.6-1-3-2.6-3.2c-0.2,0-0.4,0-0.6,0h-5.8v12.1h3.1V33h1.1
			c0.9,0,1.7,0.8,1.7,1.7c0,0.1,0,0.1,0,0.2c0,1-0.5,1.8-1.3,1.8h-0.9l2.9,6.6h5.1l0.8-2.7h3.3l0.8,2.7L196.5,43.2z M187.9,38.7
			h-2.3l1.1-5L187.9,38.7z M152.8,43.6c4.7,0,4.7-3.1,4.7-6.3s0-6.4-4.7-6.4s-4.7,3.1-4.7,6.4S148,43.6,152.8,43.6 M152.8,41.7
			c-1.4,0-1.5-1.4-1.5-4.5s0.2-4.5,1.5-4.5s1.5,1.4,1.5,4.5C154.3,40.4,154.1,41.7,152.8,41.7 M137.8,43.2h4.6
			c4.8,0,4.5-4.3,4.5-6.2c0-3.8-0.7-6-4.4-6h-4.7V43.2z M140.9,33h1.2c1.7,0,1.7,2,1.7,4.2c0,3.1-0.3,4.2-1.8,4.2h-1.2L140.9,33z
			 M165.3,36.8h0.8c1.5,0,1.9,0.8,1.9,2.1c0,2.1-1.4,2.1-2,2.1h-1.7v-4.2L165.3,36.8z M164.4,34.5v-3.8h1.8c0.9,0,1.7,0.8,1.7,1.7
			c0,0,0,0.1,0,0.1c0,1.4-0.9,1.9-1.5,1.9h-1L164.4,34.5z M166.7,43.2c1.4,0,5.1-0.2,5.1-3.9c0-2-0.6-3.4-3.1-3.8
			c1.7-0.2,2.9-1.6,2.8-3.3c0-3.2-2.2-3.9-4.8-3.9h-6.1v14.8L166.7,43.2z M213.2,43.2v-1.8h-3.6V31.1h-3.1v12.1H213.2z M204.8,31.1
			h-3.1v12.1h3.1V31.1z M129.7,43.6c4.7,0,4.7-3.1,4.7-6.4s0-6.4-4.7-6.4c-4.7,0-4.7,3.1-4.7,6.4S125,43.6,129.7,43.6 M129.7,41.7
			c-1.4,0-1.5-1.4-1.5-4.5c0-3.2,0.2-4.5,1.5-4.5c1.4,0,1.5,1.4,1.5,4.5S131.1,41.7,129.7,41.7 M99.2,38.6h-2.3l1.1-4.9L99.2,38.6z
			 M95.7,43.2l0.8-2.7h3.3l0.8,2.7h3.2l-3.6-12.1h-3.7l-3.7,12.1L95.7,43.2z M119.8,43.5c2.7,0,4.2-1.1,4.2-4.4H121
			c0,1-0.1,2.5-1.2,2.5c-1.3,0-1.5-0.8-1.5-4.5c0-3.9,0.3-4.5,1.4-4.5c0.8,0,1.2,0.6,1.2,2.3h3c0.1-2.7-1.4-4.1-4.3-4.1
			c-4.3,0-4.5,2.8-4.5,6.4S115.1,43.5,119.8,43.5 M107,43.2v-8l3.4,8.1h3.6V31.1h-2.6v7.8l-3.2-7.8h-3.7v12.1L107,43.2z M85.9,36.7
			h0.5c1.8,0,2.4,0.8,2.4,2.1c0,2.1-1.7,2.1-2.5,2.1h-1.1v-4.2L85.9,36.7z M85.1,34.5v-3.8h1.4c1.1-0.1,2,0.7,2.1,1.8
			c0,0,0,0.1,0,0.1c0.1,1-0.7,1.8-1.7,1.9c-0.1,0-0.2,0-0.3,0L85.1,34.5L85.1,34.5z"/>
	</g>
</g>
<g id="g4158">
	<polygon id="polygon9" class="st0" points="425.5,84.3 420.7,84.3 423.7,65.8 428.5,65.8 	"/>
	<path id="path11" class="st0" d="M442.9,66.2c-1.4-0.5-2.8-0.8-4.3-0.8c-4.7,0-8.1,2.5-8.1,6.1c0,2.7,2.4,4.1,4.2,5
		c1.8,0.9,2.5,1.5,2.5,2.3c0,1.2-1.5,1.8-2.9,1.8c-1.6,0-3.1-0.3-4.5-1l-0.6-0.3l-0.7,4.2c1.7,0.7,3.5,1,5.3,1c5,0,8.3-2.5,8.3-6.3
		c0-2.1-1.3-3.7-4-5c-1.7-0.8-2.7-1.4-2.7-2.3s0.9-1.6,2.8-1.6c1.2,0,2.4,0.2,3.6,0.7l0.4,0.2L442.9,66.2L442.9,66.2z"/>
	<path id="path13" class="st0" d="M449.2,77.7c0.4-1.1,1.9-5.2,1.9-5.2s0.4-1.1,0.6-1.8l0.3,1.6c0,0,0.9,4.4,1.1,5.4H449.2z
		 M455.1,65.8h-3.7c-1.1-0.1-2.1,0.5-2.5,1.5l-7.1,17h5l1-2.8h6.1c0.1,0.7,0.6,2.8,0.6,2.8h4.4L455.1,65.8L455.1,65.8z"/>
	<path id="path15" class="st0" d="M416.8,65.8l-4.7,12.6l-0.5-2.6c-0.9-3-3.6-6.2-6.6-7.8l4.3,16.2h5.1l7.5-18.5L416.8,65.8z"/>
	<path id="path17" class="st0" d="M407.7,65.8H400l-0.1,0.4c6,1.5,10,5.2,11.6,9.7l-1.7-8.5C409.6,66.1,408.8,65.8,407.7,65.8z"/>
</g>
<g id="layer1-3">
	<g id="g2995">
		<g id="g2997">
			<path id="path3001" class="st0" d="M78.6,72.4l-2.2,5.5h3L78.6,72.4L78.6,72.4L78.6,72.4z M67,84.9l9-18.5h6.8l3.8,18.5h-6
				l-0.4-2.5h-5.8L73,84.9H67z M89.3,84.9L92,66.4h6l-2.6,18.5H89.3z M129.2,72.4l-2.2,5.5h3L129.2,72.4z M117.6,84.9l9-18.5h6.8
				l3.8,18.5h-6l-0.4-2.5H125l-1.3,2.5H117.6"/>
			<path id="path3003" class="st0" d="M104.4,76.3h7.5l5.1,8.5h-7.5L104.4,76.3"/>
			<path id="path3005" class="st0" d="M105.2,75h7.8l6.7-8.5h-7.8L105.2,75"/>
			<path id="path3007" class="st0" d="M97.4,84.8h7.8l6.7-8.6h-7.8L97.4,84.8"/>
			<path id="path3009" class="st0" d="M100.2,66.4h7.2l5,8.6h-7.2L100.2,66.4"/>
			<path id="path3011" class="st0" d="M67.2,67.1l-0.6,5.4c-2.2-3.1-7.3-0.9-7.7,2.9c-0.5,4.8,4.4,6,7.1,3.1l-0.6,5.4
				c-0.8,0.4-1.5,0.7-2.4,0.9c-0.8,0.2-1.5,0.3-2.3,0.3c-0.9,0-1.8-0.1-2.6-0.3c-0.8-0.2-1.5-0.6-2.1-1c-1.2-0.8-2.1-2-2.7-3.4
				c-0.5-1.5-0.7-3.1-0.5-4.6c0.1-1.3,0.5-2.6,1.1-3.8c0.6-1.2,1.4-2.2,2.3-3.1c0.9-0.9,1.9-1.6,3-2c1.1-0.5,2.3-0.7,3.5-0.7
				c0.8,0,1.5,0.1,2.2,0.2C65.7,66.5,66.5,66.8,67.2,67.1"/>
		</g>
	</g>
</g>
<g>
	<g id="layer1_1_">
		<g id="g8537">
			<g id="g8539">
				<g id="g8541">
					<g id="g8543">
						<path id="path8553" class="st0" d="M336.2,43.7h1.1v-5.5h-1.1V43.7z"/>
						<path id="path8555" class="st0" d="M338.3,43.7h1.8v-7.6h-1.8V43.7z"/>
						<path id="path8557" class="st0" d="M335.2,30.8c1.3-1.1,3.1-1.5,4.8-1.2c0.9,0.2,1.6,0.5,2.3,1.1c0,0,0.2,0.1,0.3,0
							c0,0,0.1-0.1,0-0.3c-0.7-0.8-1.6-1.4-2.6-1.7c-1.6-0.5-3.3-0.4-4.8,0.3c-1,0.5-1.8,1.3-2.3,2.3c-0.7,0.2-1.4,0.5-2.1,0.9
							c0,0-0.3,0.1-0.2,0.3c0,0,0.1,0.1,0.3,0c0,0,0.8-0.3,1.6-0.5c-0.4,1.2-0.4,2.5,0,3.7c0.3,1,0.9,1.9,1.7,2.6
							c0.1,0.1,0.2,0.1,0.3,0c0.1-0.1,0.1-0.2,0-0.2c-0.4-0.7-0.8-1.6-0.9-2.4c-0.3-1.4,0-2.8,0.7-4c1.9-0.2,3.8,0,5.6,0.5
							c0,0,4.4,1.4,3.3,4.1c-0.3,0.7-0.9,1.3-1.5,1.8c0,0-0.2,0.1-0.1,0.3c0.1,0.1,0.2,0.1,0.3,0.1c1.1-0.4,2-1.1,2.7-2.1
							c0,0,1.6-2.5-2.2-4.5c-0.8-0.4-1.6-0.7-2.4-0.9C338.4,30.7,336.8,30.6,335.2,30.8"/>
					</g>
				</g>
			</g>
		</g>
	</g>
	<path id="path8549_1_" class="st0" d="M423.9,31c-2.3,0-4.9,1.3-4.9,4.3c0,4.8,5.6,3.2,5.6,5.5c0,0.9-0.8,1.1-1.6,1.1
		c-1.3,0-2.6-0.3-3.7-0.9v3.2c1.2,0.5,2.6,0.8,3.9,0.8c2.6,0,5.4-0.9,5.4-4.5c0-5.1-5.9-3.4-5.9-5.5c0-0.8,1-0.9,1.8-0.9
		c1.1,0.1,2.2,0.4,3.2,1v-3.3C426.5,31.3,425.2,31,423.9,31 M413.7,36.7c0-1.5-0.6-2.8-2.2-2.8c-1.4,0-2.1,1.3-2.2,2.8H413.7z
		 M417.2,39.3h-7.9c0.2,1.8,1.4,2.6,3.4,2.6c1.2,0,2.5-0.4,3.5-1v3.3c-1.3,0.6-2.8,0.9-4.2,0.8c-3.8,0-6.7-2.6-6.7-7
		s2.6-6.9,6.2-6.9c4.3,0,5.8,3.5,5.8,7.5L417.2,39.3L417.2,39.3z M374.9,31c-1.7,0-2.7,1.1-3.4,2.8l0,0v-2.5h-3.6v13.3h4V39
		c0-2.6,1-4.2,2.9-4.3c0.5,0,0.9,0.1,1.4,0.2v-3.7C375.7,31.1,375.3,31,374.9,31 M384.7,38.6c-0.5,0-1.1-0.1-1.7-0.1
		c-1.3,0-2.4,0.5-2.4,1.8c0,0.8,0.7,1.5,1.5,1.5c0.1,0,0.1,0,0.2,0c1,0,2-0.5,2.5-1.4V38.6L384.7,38.6z M384.7,44.6v-1.8
		c-0.7,1.3-2.1,2.1-3.6,2.1c-2.3,0-4.3-1.3-4.3-4.2c0-4.1,3.9-4.6,5.9-4.6c0.6,0,1.2,0.1,1.9,0.2c0-1.8-1.2-2.3-2.6-2.3
		c-1.3,0-2.6,0.3-3.7,1v-3.2c1.4-0.6,3-0.9,4.5-0.9c2.9,0,5.5,1.5,5.5,5.5v5c0,1.1,0.1,2.1,0.2,3.2H384.7z M450.8,38
		c0,2-0.8,3.7-2.6,3.7c-1.8,0-2.6-1.8-2.6-3.7s0.8-3.8,2.6-3.8S450.8,36,450.8,38 M441.5,38c0,4.4,2.9,6.9,6.7,6.9s6.7-2.6,6.7-6.9
		s-2.9-7-6.7-7S441.5,33.5,441.5,38 M396.8,41.4c-1.5,0-2.4-1.5-2.4-3.6c0-1.8,0.9-3.3,2.4-3.3c1.5,0,2.4,1.5,2.4,3.5
		S398.1,41.4,396.8,41.4 M403.2,26.7h-4V33h0c-0.8-1.3-2.4-2.1-3.9-2c-3.2,0-4.9,3.5-4.9,6.7c0,3.9,1.8,7.2,5.2,7.2
		c1.6,0,3.2-0.9,3.9-2.3h0.1v2h3.7L403.2,26.7L403.2,26.7z M356.8,30.1h1.5c1.4,0,2.7,0.1,2.7,1.8c0,1.5-1.4,1.9-2.7,1.9h-1.5
		L356.8,30.1z M356.8,37.1h1.6c1.4,0,3,0.2,3,2.1c0,1.8-1.5,2.1-3.1,2.1h-1.5L356.8,37.1L356.8,37.1z M352.7,44.6h6.8
		c2.8,0,6-0.9,6-5.2c0.2-1.9-1.2-3.6-3.1-4v-0.1c1.7-0.7,2.7-1.9,2.7-4.2c0-3.1-2.1-4.5-5-4.5h-7.4L352.7,44.6L352.7,44.6z
		 M439.6,41.2c0.3,1,0.8,1.9,1.4,2.7c-0.2,0.1-0.7,0.3-1,0.4c-1,0.4-2.1,0.6-3.2,0.6c-3.8,0-6.7-2.6-6.7-6.9s2.9-7,6.7-7
		c1,0,2,0.2,2.8,0.6l0,0c0.4,0.2,0.8,0.4,1.2,0.7c-0.6,0.9-1.1,1.8-1.4,2.9c-0.7-0.5-1.4-0.7-2.2-0.7c-1.7,0-3,1.3-3,3.6
		c-0.1,1.8,1.3,3.3,3,3.4c0.1,0,0.1,0,0.2,0c0.7,0,1.3-0.1,1.9-0.5c0.1,0,0.1-0.1,0.2-0.1S439.5,41.1,439.6,41.2"/>
	<g id="path8551">
		<path class="st0" d="M349.4,46.9h-22.2V24.7h22.2L349.4,46.9z M327.4,46.6h21.6V25h-21.6V46.6z"/>
	</g>
</g>
<g>
	<path class="st0" d="M237.4,24.7c-8.9,0-16.2,4.2-16.2,9.5c0,2.2,1.3,4.3,3.5,5.9c-1.1-1.2-1.7-2.8-1.7-4.5c0-5.4,7.1-9.9,15.8-9.9
		c5.6,0,10.6,1.8,13.4,4.6C249.8,27.1,244.1,24.7,237.4,24.7L237.4,24.7z"/>
	<path class="st0" d="M230.2,33.1c1-0.8,2.5-0.8,3.5,0c0.5,0.4,0.7,0.9,0.8,1.5h-5.1C229.5,34,229.8,33.5,230.2,33.1L230.2,33.1z
		 M236,36.9c0.6,0,1.1-0.1,1.6-0.4c0.4-0.3,0.7-0.8,0.7-1.3c0-1.1-0.4-2.1-1.1-3c-0.7-0.9-1.7-1.7-2.7-2.1c-0.8-0.3-1.7-0.5-2.6-0.5
		c-1.8-0.1-3.5,0.6-4.7,1.9c-1.2,1.2-1.9,2.8-1.8,4.5c0,1.7,0.7,3.3,1.9,4.5c1.3,1.2,3.1,1.9,4.9,1.8c1,0,2-0.1,3-0.4
		c0.9-0.2,1.8-0.7,2.4-1.5c0.3-0.3,0.4-0.7,0.4-1c0-0.9-0.5-1.4-1.5-1.4c-0.6,0.1-1.2,0.3-1.7,0.6c-0.7,0.3-1.6,0.5-2.4,0.6
		c-0.7,0-1.4-0.2-2-0.5c-0.5-0.3-0.9-0.9-0.9-1.5H236z"/>
	<path class="st0" d="M240.5,40.3c1.2,1.2,3,1.9,4.7,1.8c1,0,2-0.1,2.9-0.5c1.1-0.5,1.6-1.1,1.6-1.8c0-0.4-0.1-0.8-0.4-1.1
		c-0.3-0.3-0.7-0.5-1.1-0.4c-0.4,0-0.8,0.1-1.2,0.3c-0.5,0.2-1,0.3-1.5,0.3c-0.8,0-1.6-0.3-2.2-0.9c-0.5-0.6-0.7-1.3-0.7-2.1
		c0-0.7,0.2-1.5,0.7-2.1c0.5-0.6,1.3-1,2-0.9c0.5,0,1,0.1,1.5,0.3c0.4,0.2,0.8,0.3,1.2,0.3c0.4,0,0.8-0.1,1.2-0.4
		c0.3-0.3,0.5-0.7,0.5-1.1c0-0.8-0.5-1.4-1.6-1.8c-0.9-0.3-1.8-0.5-2.8-0.4c-1.8-0.1-3.5,0.6-4.9,1.8
		C238.1,33.9,238.1,37.8,240.5,40.3L240.5,40.3z"/>
	<path class="st0" d="M254.5,33.8c0.5-0.6,1.2-1,2-0.9c0.8,0,1.5,0.3,1.9,0.9c0.4,0.6,0.6,1.3,0.6,2c0,0.7-0.2,1.4-0.6,2
		c-0.8,1.1-2.4,1.3-3.5,0.4c-0.2-0.1-0.3-0.3-0.4-0.4c-0.4-0.6-0.6-1.3-0.6-2C253.9,35.1,254.1,34.4,254.5,33.8z M251.7,40.4
		c2.7,2.5,6.9,2.5,9.6,0c2.4-2.5,2.4-6.5,0-9c-2.7-2.4-6.8-2.4-9.5,0c-1.2,1.2-1.9,2.8-1.9,4.6C249.9,37.6,250.5,39.2,251.7,40.4
		L251.7,40.4z"/>
	<path class="st0" d="M268.5,39.5v-2.7h2.7c1.6,0.1,3.2-0.4,4.5-1.4c1.1-1,1.7-2.5,1.6-4c0.1-1.6-0.6-3.1-1.8-4.1
		c-1.3-1-3-1.5-4.6-1.4h-3.6c-0.8-0.1-1.5,0.1-2.2,0.6c-0.4,0.5-0.6,1.2-0.6,1.9v11c0,1.7,0.7,2.6,2,2.6S268.5,41.2,268.5,39.5
		L268.5,39.5z M268.5,29.2h1.7c1.8,0,2.7,0.7,2.7,2.1c0,1.4-0.9,2.1-2.7,2.1h-1.7V29.2z"/>
	<path class="st0" d="M288.6,42c1.3,0,1.9-0.9,1.9-2.6v-7.1c0-1.7-0.6-2.6-1.9-2.6c-0.8,0-1.5,0.4-1.8,1.1c-0.8-0.9-1.9-1.3-3.1-1.3
		c-1.7,0-3.3,0.7-4.4,2c-2.2,2.4-2.2,6.1-0.1,8.6c1.1,1.3,2.7,2,4.3,2c1.2,0.1,2.4-0.4,3.3-1.3C287,41.6,287.7,42.1,288.6,42
		L288.6,42z M282.2,33.9c0.4-0.6,1.2-0.9,1.9-0.9c0.7,0,1.4,0.3,1.9,0.9c0.4,0.6,0.6,1.3,0.6,1.9c0,0.7-0.2,1.4-0.6,2
		c-0.4,0.6-1.1,1-1.9,0.9c-0.8,0-1.5-0.3-1.9-0.9c-0.4-0.6-0.6-1.3-0.6-2C281.5,35.2,281.7,34.5,282.2,33.9z"/>
	<path class="st0" d="M299.5,31.2l-2.4,5.6l-2.2-5.3c-0.1-0.4-0.4-0.8-0.6-1.2c-0.4-0.3-0.8-0.5-1.3-0.5c-0.5,0-1,0.2-1.4,0.5
		c-0.3,0.3-0.5,0.8-0.5,1.2c0,0.3,0.1,0.7,0.2,1l3.9,8.3l-1.6,3.2c-0.2,0.4-0.3,0.8-0.3,1.2c0,0.5,0.2,0.9,0.5,1.2
		c0.4,0.3,0.9,0.5,1.4,0.5c0.7,0,1.3-0.5,1.7-1.4l5.9-12.8c0.2-0.4,0.3-0.8,0.3-1.2c0-1.1-0.6-1.7-1.9-1.7
		C300.4,29.8,299.9,30.3,299.5,31.2L299.5,31.2z"/>
	<path class="st0" d="M312.7,38.6h-3.9l5.2-6c0.4-0.4,0.7-1,0.8-1.5c0-0.4-0.2-0.8-0.6-0.9c-0.6-0.1-1.2-0.2-1.9-0.2h-6.2
		c-1.6,0-2.5,0.5-2.5,1.6s0.8,1.6,2.5,1.6h3.3l-5.3,6.3c-0.4,0.4-0.6,0.8-0.6,1.4c0,0.7,0.7,1.1,2,1.1h7.1c1.6,0,2.5-0.5,2.5-1.6
		C315.1,39.2,314.3,38.6,312.7,38.6L312.7,38.6z"/>
</g>
<g>
	<polygon class="st0" points="28.2,82.5 28.2,82.5 28.1,82.5 28,82.5 28,82.5 27.9,82.5 27.9,82.5 27.8,82.5 27.7,82.5 27.6,82.5 
		27.5,82.5 27.4,82.5 27.3,82.6 27.2,82.6 27.1,82.6 27,82.6 26.9,82.6 26.9,82.6 26.8,82.6 26.7,82.7 26.6,82.7 26.5,82.7 
		26.5,82.7 26.4,82.8 26.3,82.8 26.3,82.8 26.2,82.9 26.1,82.9 26.1,82.9 26,83 26,83 25.9,83 25.9,83.1 25.8,83.1 25.8,83.2 
		25.7,83.2 25.7,83.3 25.7,83.3 25.6,83.4 25.6,83.4 25.6,83.5 25.6,83.5 25.6,83.6 25.6,83.7 25.5,83.7 25.5,83.8 25.5,83.9 
		25.5,83.9 25.5,84 25.5,84.1 25.6,84.1 25.6,84.2 25.6,84.2 25.6,84.3 25.6,84.3 25.6,84.4 25.7,84.4 25.7,84.5 25.7,84.5 
		25.7,84.5 25.8,84.6 25.8,84.6 25.9,84.6 25.9,84.7 25.9,84.7 26,84.7 26,84.8 26.1,84.8 26.1,84.8 26.2,84.8 26.2,84.8 26.3,84.9 
		26.3,84.9 26.4,84.9 26.4,84.9 26.5,84.9 26.6,84.9 26.6,84.9 26.7,84.9 26.8,84.9 26.8,84.9 26.9,84.9 27,84.9 27,84.9 27.1,84.9 
		27.2,84.8 27.2,84.8 27.3,84.8 27.3,84.8 27.4,84.8 27.5,84.7 27.5,84.7 27.6,84.7 27.6,84.6 27.7,84.6 27.7,84.6 27.8,84.5 
		27.8,84.5 27.9,84.4 27.9,84.4 28,84.4 28,84.3 28,84.3 28.1,84.2 28.1,84.2 28.1,84.1 28.2,84.1 28.2,84 28.2,84 28.2,83.9 
		28.3,83.9 28.3,83.9 28.3,83.9 28.3,83.8 28.3,83.8 28.3,83.8 28.3,83.8 28.3,83.7 28.3,83.7 28.3,83.6 28.3,83.6 28.3,83.5 
		28.3,83.5 28.3,83.4 28.3,83.4 28.3,83.4 28.3,82.5 28.3,82.5 	"/>
	<path class="st0" d="M42.5,64.6v-0.3l0-0.3l0-0.3l-0.1-0.3l-0.1-0.3l-0.1-0.2l-0.1-0.2L42,62.6l-0.1-0.2l-0.1-0.2l-0.1-0.2
		l-0.1-0.2l-0.2-0.2l-0.2-0.2L41,61.1l-0.2-0.2l-0.2-0.2l-0.2-0.2l-0.2-0.1L40,60.3l-0.2-0.1l-0.2-0.1L39.3,60l-0.2-0.1l-0.2-0.1
		l-0.3-0.1l-0.3-0.1l-0.3,0l-0.3,0h-0.3H15.8h-0.3l-0.3,0l-0.3,0l-0.3,0.1l-0.2,0.1l-0.2,0.1L14,60l-0.2,0.1l-0.2,0.1l-0.2,0.1
		l-0.2,0.1l-0.2,0.1l-0.2,0.2l-0.2,0.2l-0.2,0.2l-0.2,0.2L12,61.5l-0.2,0.2l-0.1,0.2l-0.1,0.2l-0.1,0.2l-0.1,0.2l-0.1,0.2l-0.1,0.2
		L11,63.3l-0.1,0.3l-0.1,0.3l0,0.3l0,0.3l0,0.3v0.3v21.4v0.3l0,0.3l0,0.3l0,0.3l0.1,0.3l0.1,0.3l0.1,0.2l0.1,0.2l0.1,0.2l0.1,0.2
		l0.1,0.2l0.1,0.2l0.1,0.2l0.2,0.2l0.2,0.2l0.2,0.2l0.2,0.2l0.2,0.2l0.2,0.2l0.2,0.1l0.2,0.1l0.2,0.1l0.2,0.1l0.2,0.1l0.2,0.1
		l0.2,0.1l0.2,0.1l0.3,0.1l0.3,0l0.3,0l0.3,0h21.7l0.3,0l0.3,0l0.3,0l0.3-0.1l0.3-0.1l0.2-0.1l0.2-0.1l0.2-0.1l0.2-0.1l0.2-0.1
		l0.2-0.1l0.2-0.1l0.2-0.2l0.2-0.2l0.2-0.2l0.2-0.2l0.2-0.2l0.2-0.2l0.1-0.2l0.1-0.2l0.1-0.2l0.1-0.2l0.1-0.2l0.1-0.2l0.1-0.2
		l0.1-0.3l0.1-0.3l0-0.3l0-0.3v-0.3v-0.3V64.9L42.5,64.6z M15.9,86.3h-2.5V75.6h2.5V86.3z M36.5,75.6h2.3l-2.1,2.2H35L36.5,75.6z
		 M22.1,86.3l-0.1,0l-0.1,0h-0.1h-0.1h-0.1h-0.1h-0.1h-0.1h-0.1h-0.1h-0.1h-0.7h-0.1h-0.1h-0.1h-0.1h-0.1h-0.1H20h-0.1l-0.1,0h-0.1
		h-0.1l-0.1,0l-0.1,0l-0.1,0l-0.1,0l-0.1,0l-0.1,0l-0.1,0l-0.1,0l0,0l0,0l0,0l0,0l0,0l0,0l0,0l0,0l0,0l0,0l0,0l0,0l0,0l0-0.1l0-0.1
		l0-0.1l0-0.1l0-0.1l0-0.1l0-0.1l0-0.1l0-0.1l0-0.1l0-0.1l0-0.1v-0.1v-0.1v-0.1v-0.1v-0.1v-0.1v-0.1v-0.1v-0.1V84v-0.1v-0.1v-3.7
		h-1.1v-1.8h1.1v-2.7h2.4v2.7h1.5v1.8h-1.5v3.3v0.1v0.1v0.1v0.1v0.1v0.1v0.1l0,0.1l0,0.1l0,0.1l0,0l0,0l0,0l0,0l0,0l0,0l0,0l0,0l0,0
		l0.1,0h0.1h0.1h0.1h0.1h0.1h0.2h0.1h0.1H22h0.1h0h0h0L22.1,86.3z M30.6,86.3h-2l-0.3-0.8h0l0,0.1l-0.1,0.1l-0.1,0.1l-0.1,0.1
		L28,85.8L28,85.8l-0.1,0l-0.1,0l-0.1,0l-0.1,0l-0.1,0l-0.1,0l-0.1,0l-0.1,0l-0.1,0l-0.1,0l-0.1,0l-0.1,0l-0.1,0l-0.1,0h-0.1l-0.1,0
		h-0.1l-0.1,0h-0.1h-0.1h-0.1h-0.1h-0.1h-0.5h-0.2h-0.2h-0.1l-0.1,0l-0.1,0l-0.1,0l-0.1,0l-0.1,0l-0.1-0.1l-0.1-0.1L24.2,86
		l-0.1-0.1L24,85.9l-0.1-0.1l-0.1-0.1l-0.1-0.1l-0.1-0.1l-0.1-0.1l-0.1-0.1l-0.1-0.1l-0.1-0.1l0-0.1l0-0.1l0-0.1l0-0.1l0-0.1l0-0.1
		v-0.1v-0.1v-0.1v-0.3v-0.2l0-0.2l0-0.2l0-0.2l0.1-0.2l0.1-0.2l0.1-0.1l0.1-0.1l0.1-0.1l0.1-0.1l0.1-0.1L24,82l0.1-0.1l0.2-0.1
		l0.2-0.1l0.2-0.1l0.2-0.1l0.2-0.1l0.2-0.1l0.2-0.1l0.2-0.1l0.2-0.1l0.2,0l0.2,0l0.3,0l0.3,0l0.3,0h0.3h0.3H28h0.3v-0.2v0v0v0v0l0,0
		l0,0l0,0l0,0l0,0l0,0l0,0l0,0l0,0l-0.1,0l-0.1,0l-0.1,0l-0.1,0l-0.1,0l-0.1,0l-0.2,0l-0.1,0h-0.1l-0.1,0H27h-0.1h-0.1h-0.5h-0.1
		h-0.1H26H26h-0.1h-0.1h-0.1h-0.1h-0.1h-0.1h-0.1h-0.1l-0.1,0h-0.1l-0.1,0l-0.1,0l-0.1,0h-0.1l-0.1,0l-0.1,0l-0.1,0l-0.1,0l-0.1,0
		l-0.1,0l-0.1,0l-0.1,0l-0.1,0.2l-0.1,0l-0.1,0l-0.5-1.6l0.1,0l0.1,0l0.1,0l0.1,0l0.1,0l0.1,0l0.1,0l0.1-0.1l0.1,0l0.1,0l0.1,0
		l0.1,0l0.1,0l0.1,0l0.1,0l0.1,0l0.1,0l0.1,0l0.1,0h0.1h0.1h0.1h0.1h0.1H26h0.1h0.1h0.1h0.1h0.7h0.2l0.2,0l0.2,0l0.2,0l0.2,0
		l0.2,0.1l0.2,0.1l0.2,0.1l0.2,0.1l0.2,0.1l0.1,0.1l0.1,0.1l0.1,0.1l0.1,0.1l0.1,0.1l0.1,0.1l0.1,0.1l0.1,0.1l0.1,0.1l0.1,0.1
		l0.1,0.1l0.1,0.1l0,0.2l0,0.2l0,0.2l0,0.2l0,0.2v0.2v0.2v0.2v4.9L30.6,86.3z M39.9,86.3h-2l-0.3-1.1l0,0l0,0l0,0l0,0l0,0l0,0.1
		l0,0.1l-0.1,0.1l-0.1,0.1l-0.1,0.1l-0.1,0.1L37,85.8l-0.1,0l-0.1,0.1l-0.1,0l-0.1,0l-0.1,0l-0.1,0l-0.1,0l-0.1,0l-0.1,0l-0.1,0
		l-0.1,0l-0.1,0h-0.1h-0.1h-0.1h-0.1h-0.1h-0.1h-0.1h-0.1h-0.1h-0.1h-0.1h-0.7h-0.1h-0.1h-0.1h-0.1h-0.1h-0.1h-0.1H34H34h-0.1
		l-0.1,0l-0.1,0l-0.1,0l-0.1,0l-0.1,0l-0.1,0l-0.1,0l-0.1,0l-0.1,0l-0.1,0l-0.1,0l-0.1,0l-0.1,0l-0.1,0l0,0l-0.1,0l0,0l0-0.1l0-0.1
		l0-0.1l0-0.1l0-0.1l0-0.1l0-0.1l0-0.1l0-0.1l0-0.1l0-0.1l0-0.1l0-0.1l0-0.1l0-0.1l0-0.1l0-0.1l0-0.1v-0.1l0-0.1l0-0.1l0-0.1v-0.1
		V84v-0.1v-0.1v-0.1v-0.1v-0.1v-5.2h2.4v4.5v0.1V83v0.1v0.1v0.1v0.1v0.1l0,0.1l0,0.1l0,0.1l0,0.1l0,0.1l0,0.1l0,0.1l0,0.1l0,0.1
		l0.1,0.1l0.1,0l0.1,0l0.1,0l0.1,0l0.1,0l0.1,0l0.1,0h0.1h0.1h0.1h0.1h0.3H36h0.1h0.1h0.1h0.1h0.1l0.1,0h0.1l0.1,0l0.1,0l0.1,0l0,0
		l0.1,0l0,0l0,0l0,0l0,0l0,0l0,0l0,0l0,0l0,0l0,0l0,0l0,0l0,0l0,0l0,0l0,0l0,0v0v-0.1v-0.1v-0.1v-0.1v-0.1v-4.9h2.4L39.9,86.3z"/>
</g>
<g>
	<rect x="155.4" y="62.4" class="st0" width="2.8" height="11.6"/>
	<rect x="159.1" y="62.4" class="st0" width="0.9" height="11.6"/>
	<rect x="160.7" y="62.4" class="st0" width="1.6" height="11.6"/>
	<rect x="163.8" y="62.4" class="st0" width="0.9" height="11.6"/>
	<rect x="165.1" y="62.4" class="st0" width="0.7" height="11.6"/>
	<rect x="153.3" y="62.4" class="st0" width="0.9" height="26.4"/>
	<rect x="151.3" y="62.4" class="st0" width="1.6" height="26.4"/>
	<rect x="170.4" y="62.4" class="st0" width="2.8" height="11.6"/>
	<rect x="174.1" y="62.4" class="st0" width="0.9" height="11.6"/>
	<rect x="175.7" y="62.4" class="st0" width="1.6" height="11.6"/>
	<rect x="178.8" y="62.4" class="st0" width="0.9" height="11.6"/>
	<rect x="180.1" y="62.4" class="st0" width="0.7" height="11.6"/>
	<rect x="168.3" y="62.4" class="st0" width="0.9" height="11.6"/>
	<rect x="166.3" y="62.4" class="st0" width="1.6" height="11.6"/>
	<rect x="181.8" y="62.4" class="st0" width="1.6" height="11.6"/>
	<rect x="184.9" y="62.4" class="st0" width="0.9" height="11.6"/>
	<rect x="186.2" y="62.4" class="st0" width="0.7" height="11.6"/>
	<rect x="189.3" y="62.4" class="st0" width="0.9" height="11.6"/>
	<rect x="187.4" y="62.4" class="st0" width="1.6" height="11.6"/>
	<rect x="191.4" y="62.4" class="st0" width="0.9" height="11.6"/>
	<rect x="192.6" y="62.4" class="st0" width="0.7" height="11.6"/>
	<rect x="195.8" y="62.4" class="st0" width="0.9" height="11.6"/>
	<rect x="193.9" y="62.4" class="st0" width="1.6" height="11.6"/>
	<rect x="197.5" y="62.4" class="st0" width="2.8" height="11.6"/>
	<rect x="201.2" y="62.4" class="st0" width="0.9" height="11.6"/>
	<rect x="202.8" y="62.4" class="st0" width="1.6" height="11.6"/>
	<rect x="205.9" y="62.4" class="st0" width="0.9" height="11.6"/>
	<rect x="207.1" y="62.4" class="st0" width="0.7" height="11.6"/>
	<rect x="208.9" y="62.4" class="st0" width="1.6" height="26.4"/>
	<path class="st0" d="M155.5,88.3V74.9h5c0.8,0,1.7,0.1,2.5,0.4c0.6,0.3,1.1,0.7,1.4,1.2c0.3,0.5,0.5,1.1,0.5,1.8
		c0,0.6-0.2,1.1-0.5,1.6c-0.3,0.5-0.8,1-1.4,1.2c0.7,0.2,1.4,0.6,1.9,1.2c0.4,0.6,0.7,1.3,0.7,2c0,0.6-0.1,1.2-0.4,1.8
		c-0.2,0.5-0.6,0.9-1,1.2c-0.4,0.3-0.9,0.5-1.5,0.7c-0.7,0.2-1.4,0.2-2.2,0.2H155.5z M157.3,80.5h2.9c0.6,0,1.1,0,1.7-0.2
		c0.4-0.1,0.8-0.3,1-0.7c0.2-0.3,0.4-0.8,0.3-1.2c0-0.4-0.1-0.8-0.3-1.2c-0.2-0.3-0.5-0.6-0.9-0.7c-0.7-0.1-1.3-0.2-2-0.2h-2.7
		L157.3,80.5L157.3,80.5z M157.3,86.7h3.3c0.4,0,0.8,0,1.2-0.1c0.4-0.1,0.7-0.2,1-0.4c0.3-0.2,0.5-0.4,0.7-0.7
		c0.2-0.3,0.3-0.7,0.3-1.1c0-0.5-0.1-0.9-0.4-1.3c-0.3-0.4-0.6-0.6-1.1-0.8c-0.6-0.2-1.3-0.3-2-0.2h-3.1L157.3,86.7L157.3,86.7z"/>
	<path class="st0" d="M167.2,83.4c0-1.8,0.5-3.1,1.5-4c0.8-0.7,1.9-1.1,3.1-1.1c1.2,0,2.4,0.4,3.3,1.3c0.9,1,1.3,2.3,1.3,3.6
		c0,1-0.1,2-0.6,2.9c-0.4,0.7-0.9,1.3-1.6,1.7c-0.7,0.4-1.5,0.6-2.3,0.6c-1.2,0.1-2.5-0.4-3.3-1.3C167.6,86.1,167.1,84.8,167.2,83.4
		L167.2,83.4z M168.9,83.4c-0.1,1,0.2,2,0.8,2.8c0.5,0.6,1.3,0.9,2.1,0.9c0.8,0,1.5-0.3,2-0.9c0.6-0.8,0.9-1.8,0.8-2.8
		c0.1-1-0.2-1.9-0.8-2.7c-0.5-0.6-1.2-0.9-2-0.9c-0.8,0-1.5,0.3-2.1,0.9C169.1,81.5,168.9,82.4,168.9,83.4L168.9,83.4z"/>
	<polygon class="st0" points="178.2,88.3 178.2,74.9 179.9,74.9 179.9,88.3 178.2,88.3 	"/>
	<path class="st0" d="M189,85.2l1.7,0.2c-0.2,0.9-0.7,1.7-1.5,2.3c-1.9,1.3-4.4,1.1-6.1-0.5c-0.9-1-1.3-2.3-1.2-3.7
		c-0.1-1.4,0.4-2.7,1.3-3.8c0.8-0.9,2-1.4,3.3-1.3c1.2,0,2.3,0.4,3.2,1.3c0.9,1,1.3,2.4,1.2,3.7c0,0.1,0,0.2,0,0.4h-7.2
		c0,0.9,0.3,1.8,0.9,2.4c0.5,0.6,1.2,0.9,2,0.8c0.6,0,1.1-0.2,1.5-0.5C188.4,86.3,188.8,85.8,189,85.2L189,85.2z M183.6,82.5h5.4
		c0-0.7-0.2-1.3-0.6-1.8c-0.5-0.6-1.2-1-2-0.9c-0.7,0-1.4,0.3-1.9,0.8C184,81,183.6,81.7,183.6,82.5L183.6,82.5z"/>
	<path class="st0" d="M196.4,86.8l0.2,1.4c-0.4,0.1-0.8,0.1-1.2,0.1c-0.5,0-1-0.1-1.4-0.3c-0.3-0.2-0.5-0.4-0.7-0.7
		c-0.2-0.6-0.2-1.3-0.2-1.9v-5.6h-1.2v-1.3h1.2v-2.4l1.6-1v3.4h1.6v1.3h-1.7v5.7c0,0.3,0,0.6,0.1,0.9c0.1,0.1,0.2,0.3,0.3,0.3
		c0.2,0.1,0.4,0.1,0.6,0.1C195.9,86.9,196.1,86.9,196.4,86.8L196.4,86.8z"/>
	<path class="st0" d="M197.4,83.4c0-1.8,0.5-3.1,1.5-4c0.8-0.7,1.9-1.1,3-1.1c1.2,0,2.4,0.4,3.3,1.3c0.9,1,1.3,2.3,1.3,3.6
		c0,1-0.1,2-0.6,2.9c-0.4,0.7-0.9,1.3-1.6,1.7c-0.7,0.4-1.5,0.6-2.3,0.6c-1.2,0.1-2.4-0.4-3.3-1.3C197.7,86.1,197.2,84.8,197.4,83.4
		L197.4,83.4z M199,83.4c-0.1,1,0.2,2,0.8,2.8c1,1.1,2.7,1.2,3.8,0.2c0.1-0.1,0.2-0.2,0.2-0.2c0.6-0.8,0.9-1.8,0.8-2.8
		c0.1-1-0.2-1.9-0.8-2.7c-1-1.1-2.7-1.2-3.9-0.2c-0.1,0.1-0.2,0.1-0.2,0.2C199.2,81.5,199,82.5,199,83.4L199,83.4z"/>
</g>
<g>
	<path class="st0" d="M13.2,54.4c0-1.3-0.1-2.5-0.1-3.9c0-4.6,0-9.2,0-13.9c0-0.8,0.2-1.1,1.1-1.1c8.2,0.1,16.3,0,24.5,0
		c0.5,0,1.1-0.1,1.1,0.8c-0.1,5.9,0,11.7,0,17.6c0,0.2-0.1,0.2-0.1,0.4C30.9,54.4,22.1,54.4,13.2,54.4z M26.8,40.9
		c-1.6,0-2.7,0.8-2.9,1.9c-0.2,1.1,0.4,2,1.8,2.6c0.5,0.2,1,0.5,1.5,0.7c0.4,0.2,0.7,0.5,0.5,0.9c-0.1,0.5-0.5,0.6-0.9,0.7
		c-0.8,0.1-1.4-0.2-2-0.5c-0.6-0.4-0.7,0.2-1,0.5c-0.4,0.4-0.1,0.5,0.2,0.8c1.3,0.7,2.7,1,4.1,0.3c0.8-0.4,1.3-1,1.3-2
		c0.1-1-0.5-1.6-1.3-2c-0.7-0.3-1.4-0.5-2-0.9c-0.4-0.2-0.8-0.4-0.6-0.9c0.1-0.5,0.5-0.6,0.9-0.7c0.5-0.1,1,0.1,1.4,0.3
		c0.5,0.4,0.8,0,1-0.4c0.4-0.5-0.1-0.7-0.4-0.8C27.9,41,27.3,40.8,26.8,40.9z M20.3,49.1c0.3-0.1,0.7-0.1,1-0.2c1.2-0.3,1.8-1,2-2
		c0.1-1.2-0.3-1.8-1.6-2.4c-0.5-0.2-1.1-0.5-1.7-0.7c-0.4-0.2-0.8-0.4-0.7-0.9c0.1-0.5,0.5-0.7,1-0.7c0.5-0.1,1,0.2,1.5,0.4
		c0.5,0.3,0.8-0.2,1-0.5c0.3-0.5-0.1-0.5-0.4-0.8c-1-0.5-2-0.7-3.1-0.4c-1,0.2-1.7,1.1-1.8,2c-0.1,0.9,0.5,1.7,1.5,2.2
		c0.6,0.2,1.2,0.5,1.8,0.8c0.4,0.2,0.8,0.5,0.7,1c-0.1,0.5-0.5,0.6-1,0.7c-0.7,0.1-1.3-0.2-1.8-0.5c-0.8-0.5-0.9,0.2-1.2,0.5
		c-0.4,0.5,0.2,0.5,0.5,0.8C18.8,48.9,19.5,49.1,20.3,49.1z M30.4,45.1c0,1.1,0,2.2,0,3.2c0,0.5,0.2,0.7,0.7,0.7c1.3,0,2.6,0,3.9,0
		c0.5,0,0.6-0.2,0.5-0.7c-0.1-0.4-0.1-0.7-0.5-0.7c-0.6,0.1-1.2-0.1-1.9,0c-0.8,0.1-1.1-0.2-1.1-1.1c0.1-1.6,0-3.2,0.1-4.8
		c0-0.7-0.3-0.8-0.8-0.8c-0.5,0-0.9,0.2-0.8,0.8C30.4,42.9,30.4,44,30.4,45.1z"/>
	<path class="st0" d="M27.5,17.4c2,0.4,3.9,1.1,5.5,2.5c2.2,1.9,3.2,4.4,3.4,7.2c0.1,1.7,0,3.3,0.1,5c0,0.6-0.2,0.9-0.9,0.8
		c-1-0.1-1.9-0.1-2.8,0c-0.8,0.1-0.9-0.2-0.9-1c0-1.8,0.2-3.7-0.1-5.6c-0.5-2.8-2.8-4.6-5.6-4.5c-2.6,0.2-4.9,2.3-4.9,5
		c-0.1,1.7,0,3.3,0.1,5c0.1,0.7-0.2,1.1-1,1c-1-0.1-1.9-0.1-2.8,0c-0.5,0-0.8-0.2-0.8-0.8c0.1-2-0.1-4,0.1-6.1
		c0.2-4.1,3.8-7.9,8.1-8.7c0.2-0.1,0.5-0.1,0.6-0.2C26,17.4,26.8,17.4,27.5,17.4z"/>
</g>
<g>
	<path class="st0" d="M312.7,71.2c0.4-0.2,0.7-0.5,1.1-0.6c1.8-0.9,3.8-0.5,4.9,1c0.4,0.5,0.6,1,0.7,1.6c0.4,2.7-0.7,5.6-3.2,6.9
		c-1.5,0.8-3,1-4.5,0.1c-0.4-0.2-0.5-0.1-0.5,0.3c-0.2,1.1-0.4,2.3-0.6,3.4c-0.1,0.5-0.3,0.7-0.8,0.7c-0.6,0-1.2,0-1.8,0
		c-0.5,0-0.7-0.2-0.6-0.6c0.1-1,0.2-1.9,0.4-2.8c0.5-3.2,1.1-6.4,1.6-9.5c0-0.2,0.1-0.5,0.2-0.7c0.1-0.4,0.3-0.6,0.7-0.6
		c0.6,0,1.3,0,1.9,0C312.8,70.2,312.7,70.7,312.7,71.2z M316.4,74.8c0-1.2-0.6-1.8-1.8-1.8c-1.5,0-3,1.7-2.8,3.2
		c0.2,1.2,1,1.8,2.2,1.6C315.5,77.5,316.4,76.3,316.4,74.8z"/>
	<path class="st0" d="M320.1,76.4c0.2-2.7,1.3-4.7,3.8-5.8c1.1-0.5,2.4-0.6,3.6-0.2c0.1,0,0.1,0,0.2,0.1c0.4,0.1,0.7,0.6,1,0.7
		c0.4,0.1,0.4-0.6,0.8-0.8c0.4-0.2,0.8-0.1,1.2-0.1c1.4,0,1.5,0.1,1.2,1.5c-0.5,2.7-0.9,5.5-1.4,8.2c0,0.2-0.1,0.4-0.2,0.6
		c-0.6,0.7-2.4,0.6-2.9-0.2c-0.2-0.3-0.3-0.2-0.6-0.1c-1,0.5-2,0.7-3.1,0.6C321.8,80.5,320,78.6,320.1,76.4z M323.2,76
		c0,1.2,1,2,2.2,1.7c1.2-0.2,2.3-1.6,2.4-2.8c0-1.3-1-2.2-2.3-1.9C324.1,73.3,323.2,74.6,323.2,76z"/>
	<path class="st0" d="M375.3,80.7c-0.3,0-0.6,0-0.9,0c-0.2,0-0.4,0-0.5-0.1c-0.3-0.6-0.6-0.3-1-0.2c-2.2,0.8-4.4-0.1-5.2-2.1
		c-0.3-0.7,0.1-1.4,0.2-2.1c0.2-1.8,0.6-3.5,0.9-5.2c0.1-0.5,0.3-0.8,0.9-0.8c0.5,0,1.1,0,1.6,0c0.6,0,0.9,0.3,0.8,0.9
		c-0.3,1.6-0.5,3.2-0.8,4.7c-0.2,0.9,0,1.3,0.5,1.6c0.7,0.3,1.6,0.2,2.1-0.4c0.5-0.5,0.6-1.2,0.7-1.9c0.3-1.4,0.5-2.8,0.7-4.2
		c0.1-0.4,0.3-0.7,0.8-0.7c0.6,0,1.3,0,1.9,0c0.5,0,0.7,0.2,0.6,0.7c-0.5,2.7-0.9,5.4-1.4,8.1c0,0.2,0,0.5-0.1,0.7
		c-0.2,0.8-0.4,1-1.2,1C375.7,80.7,375.5,80.7,375.3,80.7C375.3,80.7,375.3,80.7,375.3,80.7z"/>
	<path class="st0" d="M386.4,80.7c-1.7,0-1.7-0.1-1.4-1.8c0.2-1.4,0.4-2.7,0.7-4.1c0.1-0.5,0.1-1-0.4-1.3c-0.5-0.4-1.1-0.3-1.6-0.1
		c-0.6,0.3-1,0.8-1.2,1.5c-0.3,1.6-0.6,3.2-0.8,4.8c-0.1,0.8-0.3,1-1.1,1c-0.5,0-1,0-1.5,0c-0.6,0-0.7-0.2-0.6-0.8
		c0.3-2.1,0.7-4.1,1-6.2c0.2-0.9,0.3-1.8,0.5-2.8c0.1-0.6,0.4-0.8,0.9-0.8c0.5,0,1,0,1.5,0c0.4,0,0.7,0,0.8,0.5
		c0.1,0.4,0.3,0.1,0.4,0c1.6-0.9,3.5-0.6,4.9,0.7c0.8,0.8,0.8,1.7,0.6,2.6c-0.3,1.9-0.6,3.8-0.9,5.8c-0.2,0.9-0.3,1-1.2,1
		C386.8,80.7,386.6,80.7,386.4,80.7z"/>
	<path class="st0" d="M336.8,76.3c0.8-1.5,1.5-2.8,2.3-4.1c0.1-0.3,0.3-0.5,0.4-0.8c0.4-1.1,1.2-1.5,2.3-1.3c0.3,0,0.6,0,0.9,0
		c0.6,0,0.8,0.3,0.5,0.8c-0.9,1.6-1.8,3.2-2.7,4.8c-1.5,2.7-3,5.4-4.4,8.1c-0.2,0.4-0.5,0.7-1,0.6c-0.6,0-1.2,0-1.8,0
		c-0.6,0-0.8-0.3-0.5-0.8c0.5-0.9,0.9-1.7,1.4-2.6c0.2-0.4,0.3-0.7,0.2-1.2c-0.4-2.1-0.7-4.3-1.1-6.4c-0.1-0.8-0.3-1.7-0.4-2.5
		c-0.1-0.6,0-0.8,0.7-0.8c0.5,0,1,0,1.5,0c0.5,0,0.8,0.3,0.8,0.8C336.2,72.7,336.5,74.4,336.8,76.3z"/>
	<path class="st0" d="M366.2,70.1c0.3,0,0.5,0,0.8,0c0.6,0,0.8,0.2,0.7,0.8c-0.1,0.5-0.2,1.1-0.3,1.6c-0.1,0.5-0.4,0.7-0.9,0.7
		c-0.2,0-0.5,0-0.7,0c-0.6,0.1-1,0.6-0.9,1.2c0,0.2,0.2,0.2,0.4,0.3c0.3,0,0.6,0,1,0c0.6,0,0.8,0.2,0.7,0.8
		c-0.1,0.5-0.2,0.9-0.2,1.4c-0.1,0.6-0.4,0.8-0.9,0.8c-0.2,0-0.3,0-0.5,0c-0.9,0-0.9,0-1.1,0.9c-0.2,1.1-0.2,2.1-0.6,3.1
		c-0.6,1.7-1.9,2.7-3.7,2.7c-0.4,0-0.8,0-1.2,0c-0.4,0-0.6-0.2-0.6-0.6c0.1-0.6,0.2-1.2,0.3-1.7c0.1-0.4,0.4-0.5,0.8-0.6
		c1.1,0,1.1-0.1,1.4-1.2c0.2-0.7,0.3-1.5,0.4-2.3c0.1-0.3-0.1-0.5-0.4-0.5c0,0,0,0-0.1,0c-1.4-0.1-1.4-0.1-1.2-1.5
		c0-0.2,0.1-0.4,0.1-0.7c0.2-0.7,0.3-0.8,1.1-0.8c0.2,0,0.3,0,0.5,0c0.4,0,0.6-0.1,0.6-0.5c0.1-0.6,0.2-1.2,0.5-1.8
		C363,70.8,364.2,70.1,366.2,70.1z"/>
	<path class="st0" d="M350.3,77.2c-0.7,0-1.3,0-2,0c-0.9,0-1.3-0.7-0.8-1.5c1.5-2.6,2.9-5.3,4.4-7.9c0.4-0.8,0.8-0.9,1.6-0.4
		c0.6,0.4,1.2,0.7,1.9,1.1c1.1,0.7,1.5,1.9,0.9,3c-0.9,1.7-1.8,3.3-2.8,5c-0.2,0.4-0.6,0.6-1.1,0.6
		C351.6,77.2,350.9,77.2,350.3,77.2z"/>
	<path class="st0" d="M351.2,78.7c1.5,0,3,0,4.5,0c0.4,0,0.7,0.2,0.7,0.6c0,0.6,0,1.2,0,1.8c0,0.4-0.2,0.6-0.6,0.6c-0.5,0-1,0-1.4,0
		c-0.5,0-0.7,0.2-0.6,0.7c0,0.5,0,1,0,1.5c0,0.4-0.2,0.6-0.6,0.6c-0.8,0-1.5,0-2.3,0c-0.4,0-0.6-0.2-0.6-0.6c0-0.5,0-0.9,0-1.4
		c0-0.8-0.1-0.8-0.8-0.8c-1,0-1.9,0-2.9,0c-0.5,0-0.7-0.2-0.8-0.6c0-0.2-0.1-0.5-0.1-0.7c0-1.4,0.2-1.6,1.6-1.6
		C348.5,78.7,349.8,78.7,351.2,78.7C351.2,78.7,351.2,78.7,351.2,78.7z"/>
	<path class="st0" d="M342.4,77.2c0-0.4,0.1-0.7,0.3-1c1.8-3.3,3.7-6.6,5.5-10c0.4-0.7,1.5-1,2.2-0.6c0.4,0.2,0.5,0.7,0.2,1.2
		c-1.2,2.2-2.4,4.4-3.6,6.6c-0.9,1.6-1.7,3.1-2.6,4.7c-0.5,0.8-1.1,0.9-1.7,0.1C342.5,77.8,342.4,77.5,342.4,77.2z"/>
</g>
</svg>
