<svg id="Providers" xmlns="http://www.w3.org/2000/svg" viewBox="0 0 650 105.05"><defs><style>.cls-1{fill:#84d5f7;}.cls-2{opacity:0.6;}</style></defs><title>payment_no</title><g id="g4158"><polygon id="polygon9" class="cls-1" points="90.4 45.81 83.22 45.81 87.71 18.04 94.89 18.04 90.4 45.81"/><path id="path11" class="cls-1" d="M116.43,18.72A17.7,17.7,0,0,0,110,17.54c-7.09,0-12.08,3.78-12.11,9.19-.06,4,3.57,6.2,6.29,7.53s3.72,2.25,3.72,3.46c0,1.86-2.24,2.72-4.31,2.72A14.37,14.37,0,0,1,96.84,39l-.94-.45-1,6.24a21.84,21.84,0,0,0,8,1.48c7.54,0,12.44-3.73,12.5-9.49,0-3.16-1.89-5.58-6-7.56-2.51-1.27-4.05-2.13-4.05-3.43s1.3-2.39,4.14-2.39a12.24,12.24,0,0,1,5.35,1.06l.65.3,1-6Z"/><path id="path13" class="cls-1" d="M126,36c.59-1.59,2.86-7.77,2.86-7.77s.59-1.62.95-2.66l.5,2.4s1.36,6.65,1.66,8ZM134.84,18h-5.55a3.54,3.54,0,0,0-3.76,2.31L114.87,45.81h7.53s1.24-3.43,1.51-4.16h9.22l.86,4.16h6.64L134.84,18Z"/><path id="path15" class="cls-1" d="M77.22,18,70.19,37l-.77-3.84c-1.3-4.43-5.38-9.25-9.93-11.64l6.44,24.28h7.6L84.82,18Z"/><path id="path17" class="cls-1" d="M63.66,18H52.11L52,18.6c9,2.31,15,7.86,17.43,14.54L66.91,20.38C66.5,18.6,65.23,18.1,63.66,18Z"/></g><g id="layer1"><g id="g3098"><path id="path3741" class="cls-1" d="M253.94,17.54l-5.3,28.69h11.55l2-11.26,4.09,11.26h32.34l3.66-19.8h1.54l-3.36,18.2s-.58,1.59,1.26,1.59h80.64l1.38-7.33,2.19,7.33h11.78l-4-10.65s3.24-1.37,4.53-3a9.7,9.7,0,0,0,1.91-6.1,7.65,7.65,0,0,0-3.39-6.73c-2.16-1.48-5.3-2.21-9.36-2.21h-11.1l-3.64,19.78H363l.24-1.39H371l1.48-8.11h-7.71l.23-1.39h8l1.64-8.9H355.23l-3.46,18.77s-2.86.36-2.43-1.9l3.13-16.87H340.86L337.4,36.31s-2.68.27-2.28-1.9,3.13-16.87,3.13-16.87H326.64L323,37.32H313.2l.26-1.39h7.76l1.48-8.1h-7.76l.25-1.39h8.07l1.62-8.9H271.3l-2.12,11.38-4.09-11.38Zm1.29,1.54H264l5.73,15.69,2.86-15.69H323L322,24.88h-8l-.82,4.48h7.76l-.92,5h-7.77l-.82,4.49h12.93l3.66-19.79h8.46l-3.5,18.77h5.8l3.46-18.77h8.46l-3.49,18.77h5.94l3.46-18.77H372.7l-1.05,5.8h-8l-.84,4.48h7.74l-.92,5h-7.74l-.82,4.49h12.84l3.65-19.79h9.8c3.74,0,6.61.65,8.49,2a6.11,6.11,0,0,1,2.7,5.45A8.2,8.2,0,0,1,397,31.64a7.64,7.64,0,0,1-4.5,2.64l-.88.19,3.84,10.2h-8.38l-3.7-12.49-2.31,12.49H302l3.66-19.79H301l-3.65,19.79h-30l-5.56-16.11-2.85,16.11H250.5Zm24.57,5.8L279,29.32h8l-.92,5.06h-8l-.84,4.49H290l2.56-14Zm1.29,1.56h9.66l-2,10.88h-9.68l.27-1.39h8.05l1.48-8.09h-8Z"/><path id="path3745" class="cls-1" d="M390.35,27.33a2.67,2.67,0,0,0-1.2-2.39,5.61,5.61,0,0,0-3.1-.68h-1.21l-1.27,6.86h1.66a6.5,6.5,0,0,0,3.74-.87,3.38,3.38,0,0,0,1.38-2.92M388.07,29a4.87,4.87,0,0,1-2.63.6c-.08,0,.68-3.77.68-3.77h-.07a4.46,4.46,0,0,1,2.27.42,1.19,1.19,0,0,1,.48,1.1,1.78,1.78,0,0,1-.73,1.65"/><path id="path3747" class="cls-1" d="M400.35,40.32a3.25,3.25,0,1,1,3.25,3.25,3.26,3.26,0,0,1-3.25-3.25m-.35,0a3.6,3.6,0,1,0,3.6-3.61,3.6,3.6,0,0,0-3.6,3.61"/><path id="path3749" class="cls-1" d="M403,40.09h.32a1.54,1.54,0,0,0,.37,0A.88.88,0,0,0,404,40a1,1,0,0,0,.25-.16.56.56,0,0,0,0-.54,1.28,1.28,0,0,0-.25-.15,2.79,2.79,0,0,0-.33-.06H403Zm-1-1.59h1.05c.27,0,.52,0,.81,0a3.3,3.3,0,0,1,.72.09,1.29,1.29,0,0,1,.54.3.88.88,0,0,1,.19.6.69.69,0,0,1-.27.56,1.17,1.17,0,0,1-.72.3h0a.49.49,0,0,1,.32.13.92.92,0,0,1,.2.25l.77,1.45h-1.08L404,41.05a.65.65,0,0,0-.23-.3,1,1,0,0,0-.44-.09H403v1.55h-1Z"/></g></g><path class="cls-1" d="M216.33,47.93V48h.08l.05,0s0,0,0,0a0,0,0,0,0,0,0h-.13Zm.08-.06a.22.22,0,0,1,.1,0,.1.1,0,0,1,0,.15.19.19,0,0,1-.08,0l.11.12h-.09l-.1-.12h0v.12h-.08v-.32Zm0,.44a.2.2,0,0,0,.11,0,.19.19,0,0,0,.09-.05.24.24,0,0,0,.06-.09.31.31,0,0,0,0-.22.16.16,0,0,0-.06-.08.15.15,0,0,0-.09-.06l-.11,0-.11,0a.21.21,0,0,0-.1.06l-.06.08a.31.31,0,0,0,0,.22l.06.09.1.05a.2.2,0,0,0,.11,0m0-.63a.4.4,0,0,1,.15,0l.12.07a.44.44,0,0,1,.08.11.68.68,0,0,1,0,.14.59.59,0,0,1,0,.14.44.44,0,0,1-.08.11.37.37,0,0,1-.12.07.4.4,0,0,1-.15,0l-.15,0a.24.24,0,0,1-.12-.07.44.44,0,0,1-.08-.11.32.32,0,0,1,0-.14.35.35,0,0,1,0-.14.44.44,0,0,1,.08-.11.35.35,0,0,1,.12-.07.4.4,0,0,1,.15,0m-34.63-1.26a1.12,1.12,0,1,1,1.12,1.14,1.08,1.08,0,0,1-1.12-1.14m3,0V44.65H184v.43a1.42,1.42,0,0,0-1.17-.52,1.86,1.86,0,0,0,0,3.72,1.42,1.42,0,0,0,1.17-.52v.43h.81Zm27.28,0a1.12,1.12,0,1,1,1.12,1.14A1.08,1.08,0,0,1,212,46.42m3,0V43.23h-.8v1.85a1.45,1.45,0,0,0-1.18-.52,1.86,1.86,0,0,0,0,3.72,1.45,1.45,0,0,0,1.18-.52v.43h.8Zm-20.26-1.17a.9.9,0,0,1,.94.86h-1.93a1,1,0,0,1,1-.86m0-.69a1.86,1.86,0,1,0,0,3.72,2.33,2.33,0,0,0,1.52-.49l-.39-.58a1.82,1.82,0,0,1-1.08.38,1,1,0,0,1-1.11-.87h2.75a2.83,2.83,0,0,0,0-.3,1.73,1.73,0,0,0-1.76-1.86m9.74,1.86a1.13,1.13,0,1,1,1.13,1.14,1.09,1.09,0,0,1-1.13-1.14m3,0V44.65h-.81v.43a1.43,1.43,0,0,0-1.17-.52,1.86,1.86,0,1,0,0,3.72,1.43,1.43,0,0,0,1.17-.52v.43h.81Zm-7.57,0a1.84,1.84,0,0,0,2,1.86,2,2,0,0,0,1.33-.42l-.39-.62a1.73,1.73,0,0,1-1,.32,1.14,1.14,0,0,1,0-2.27,1.66,1.66,0,0,1,1,.32l.39-.62a2,2,0,0,0-1.33-.43,1.84,1.84,0,0,0-2,1.86m10.41-1.86a1.12,1.12,0,0,0-1,.52v-.43h-.8v3.54h.81v-2c0-.59.26-.91.79-.91a1.31,1.31,0,0,1,.51.09l.25-.73a1.77,1.77,0,0,0-.58-.1m-21.64.37a2.89,2.89,0,0,0-1.51-.37c-.94,0-1.55.43-1.55,1.14s.45.93,1.29,1l.38,0c.44.06.65.17.65.37s-.3.43-.85.43a2,2,0,0,1-1.23-.37l-.38.6a2.76,2.76,0,0,0,1.6.46c1.08,0,1.7-.48,1.7-1.15s-.49-1-1.3-1.06l-.38-.06c-.35,0-.63-.11-.63-.34s.26-.42.71-.42a2.36,2.36,0,0,1,1.15.31Zm10.42-.37a1.11,1.11,0,0,0-1,.52v-.43h-.8v3.54h.81v-2c0-.59.26-.91.79-.91a1.29,1.29,0,0,1,.5.09l.25-.73a1.71,1.71,0,0,0-.57-.1m-6.89.09H191V43.58h-.82v1.07h-.75v.71h.75V47c0,.82.34,1.31,1.29,1.31a2,2,0,0,0,1-.27l-.23-.66a1.57,1.57,0,0,1-.71.2c-.41,0-.54-.24-.54-.59v-1.6h1.32Zm-12.07,3.54V46a1.35,1.35,0,0,0-1.46-1.41,1.49,1.49,0,0,0-1.3.63,1.39,1.39,0,0,0-1.23-.63,1.25,1.25,0,0,0-1.09.53v-.44h-.81v3.54h.82v-2a.85.85,0,0,1,.91-.94c.53,0,.81.33.81.93v2h.81v-2a.85.85,0,0,1,.91-.94c.55,0,.82.33.82.93v2Z"/><path class="cls-1" d="M216.82,36.42V35.9h-.14l-.16.36-.16-.36h-.15v.52h.1V36l.16.34h.1l.15-.34v.39Zm-.89,0V36h.18V35.9h-.46V36h.18v.43Z"/><g class="cls-2"><path class="cls-1" d="M189.3,28.16a13.1,13.1,0,0,1,5.34-10.48A14.31,14.31,0,0,0,186,14.83c-7.72,0-14,6-14,13.33s6.26,13.33,14,13.33a14.31,14.31,0,0,0,8.64-2.85,13.1,13.1,0,0,1-5.34-10.48"/></g><g class="cls-2"><path class="cls-1" d="M217.25,28.16c0,7.36-6.26,13.33-14,13.33a14.33,14.33,0,0,1-8.64-2.85,13,13,0,0,0,0-21,14.33,14.33,0,0,1,8.64-2.85c7.72,0,14,6,14,13.33"/></g><path class="cls-1" d="M194.64,38.64a13,13,0,0,1,0-21,13,13,0,0,1,0,21Z"/><path id="path2491" class="cls-1" d="M467.3,31.05c0-.55-.28-.84-.79-.86h-2.7a1,1,0,0,0-1,1v4.87a1,1,0,0,0,1.09,1h2.48a.82.82,0,0,0,.64-.29.71.71,0,0,0,.27-.57Zm-7.95-.69a4.31,4.31,0,0,1,.82-2.77,3.22,3.22,0,0,1,1-.67,3,3,0,0,1,1.27-.29h5c2.19,0,3.3,1.21,3.34,3.59v7.32a3,3,0,0,1-1,2.19,3.14,3.14,0,0,1-2.27,1h-4.69V46h-3.47V30.36"/><path id="path2493" class="cls-1" d="M477,36.45a.58.58,0,0,0,.27.49,1,1,0,0,0,.63.22h2.67c.6,0,.92-.24.93-.71v-1c0-.54-.31-.81-1-.81h-2.64a1.2,1.2,0,0,0-.72.16,1.17,1.17,0,0,0-.18.76Zm4.5-5.48c0-.54-.29-.79-.93-.78h-7V26.63h7.87c2.29,0,3.46,1.14,3.5,3.33v7.46a3.48,3.48,0,0,1-.87,2.34,3,3,0,0,1-2.27,1h-4.76c-2.32,0-3.49-1.07-3.53-3.18V34.67q0-3.3,3.37-3.36h4.61V31"/><path id="path2495" class="cls-1" d="M494.74,42.43a1.05,1.05,0,0,0,.7-.29.72.72,0,0,0,.28-.57v-.85h-4.44a3.55,3.55,0,0,1-1.39-.22,3.09,3.09,0,0,1-1.1-.74,3.68,3.68,0,0,1-.75-1.18,3.83,3.83,0,0,1-.23-1.42V26.63h3.47V36c0,.75.31,1.13.93,1.13h2.45a1.13,1.13,0,0,0,.76-.29.77.77,0,0,0,.3-.6V26.63h3.44V42.16a4.31,4.31,0,0,1-.88,2.77A3,3,0,0,1,495.91,46h-8.1V42.43h6.93"/><path id="path2497" class="cls-1" d="M501.89,37.16h6.19c.56,0,.86-.25.87-.68v-.32a.62.62,0,0,0-.08-.31c-.14-.27-.31-.4-.51-.4H505.3a3.46,3.46,0,0,1-2.34-.94,2.7,2.7,0,0,1-1-2V29.8c0-2.08,1.16-3.13,3.38-3.17h7.18v3.56h-6.08q-1.08,0-1.08.66v.34c0,.46.37.68,1.1.68h3.06a2.87,2.87,0,0,1,2.09.94A3.21,3.21,0,0,1,512.5,35v2.6a3.47,3.47,0,0,1-1,2.19,2.76,2.76,0,0,1-1,.74,3.88,3.88,0,0,1-1.37.19h-7.26V37.16"/><path id="path2499" class="cls-1" d="M518.44,36.45a.57.57,0,0,0,.28.49.92.92,0,0,0,.62.22H522c.61,0,.92-.24.94-.71v-1c0-.54-.33-.81-1-.81h-2.65a1.2,1.2,0,0,0-.72.16,1.17,1.17,0,0,0-.18.76ZM523,31c0-.54-.3-.79-.94-.78h-7V26.63h7.87c2.29,0,3.46,1.14,3.49,3.33v7.46a3.47,3.47,0,0,1-.86,2.34,2.94,2.94,0,0,1-2.27,1h-4.76c-2.32,0-3.49-1.07-3.52-3.18V34.67q0-3.3,3.36-3.36H523V31"/><path id="path2501" class="cls-1" d="M529.21,24.61a2.93,2.93,0,0,1,1.07-2.32,4,4,0,0,1,2.65-.91h2.21v3.45H533.8a1,1,0,0,0-1.12,1v.76h2.46V30.2h-2.46V40.73h-3.47V24.61"/><path id="path2503" class="cls-1" d="M545,30.9v-.08a.55.55,0,0,0-.22-.46,1,1,0,0,0-.6-.17h-2.42a1,1,0,0,0-.75.27.75.75,0,0,0-.36.65v1.43Zm-4.3,5v.22a1,1,0,0,0,.23.68.5.5,0,0,0,.45.32h7.13v3.56h-7.58a5.23,5.23,0,0,1-1.61-.19,3,3,0,0,1-1.12-.67,3,3,0,0,1-.77-1.16,4.92,4.92,0,0,1-.22-1.64l0-7.14c0-2.16,1.17-3.25,3.38-3.29h4.68c2.16,0,3.26,1.17,3.29,3.41v2.82l-7.83,3.08"/><path id="path2505" class="cls-1" d="M555.89,40.72a8,8,0,0,1-1.44-.13,3.12,3.12,0,0,1-1.37-.65,3.26,3.26,0,0,1-1-1.39,4.89,4.89,0,0,1-.28-1.72V30.17a4.24,4.24,0,0,1,.16-1.43,3,3,0,0,1,.73-1.21A3.28,3.28,0,0,1,554,26.7a6.13,6.13,0,0,1,1.49-.16h5.32v.83h-5.2a3.65,3.65,0,0,0-2.17.57,2.51,2.51,0,0,0-.81,2.12v6.66a4.44,4.44,0,0,0,.21,1.36,2.81,2.81,0,0,0,.74,1.14,2.68,2.68,0,0,0,1.12.54,5.4,5.4,0,0,0,1.23.13h5v.83h-5"/><path id="path2507" class="cls-1" d="M574.5,32.09h-7a2.72,2.72,0,0,0-2,.77,2.91,2.91,0,0,0-.72,2.08v2.13a4.36,4.36,0,0,0,.13,1.12,1.71,1.71,0,0,0,.65,1,3.06,3.06,0,0,0,2,.75h4.23c1.76,0,2.65-1,2.65-2.8Zm.83,4.79a8.45,8.45,0,0,1-.11,1.42,3.17,3.17,0,0,1-.69,1.3,3.49,3.49,0,0,1-2.71,1.12h-4.15a3.67,3.67,0,0,1-2.63-1,3.4,3.4,0,0,1-1-2.64V35c0-2.42,1.24-3.66,3.62-3.71h6.91v-.94a3.31,3.31,0,0,0-.67-2,2.12,2.12,0,0,0-1-.76,5.22,5.22,0,0,0-1.3-.15H564v-.83h7.14a10.77,10.77,0,0,1,1.78.13,2.05,2.05,0,0,1,.76.32,2.54,2.54,0,0,1,.68.64,4.49,4.49,0,0,1,.94,2.86v6.39"/><path id="path2509" class="cls-1" d="M583.13,27.37c-1.93,0-2.89,1.09-2.85,3.17V40.72h-.83V30.54q-.06-4,3.81-4h.93v.83h-1.06"/><path id="path2511" class="cls-1" d="M597.18,27.37h-6.57a5,5,0,0,0-1.28.16,2.23,2.23,0,0,0-1.15.73,2.41,2.41,0,0,0-.66,1.07,3.65,3.65,0,0,0-.16,1.3v6.49a2.41,2.41,0,0,0,.95,2.21,3.83,3.83,0,0,0,1,.41,5.05,5.05,0,0,0,1.28.15h2.88a4.33,4.33,0,0,0,2.63-.74,2.83,2.83,0,0,0,1-2.43Zm.83,9.41c-.07,2.69-1.49,4-4.26,3.95h-3.09a8.28,8.28,0,0,1-1.74-.17,3.3,3.3,0,0,1-1.53-1,3.23,3.23,0,0,1-.7-1.38,5.5,5.5,0,0,1-.16-1.56v-6c0-2.73,1.41-4.09,4.13-4.07h6.52v-4.6H598V36.78"/><path id="path2513" class="cls-1" d="M440.07,26.09a4.14,4.14,0,0,1,.82-.27,5.27,5.27,0,0,1,10.32,0,3.84,3.84,0,0,1,1.93.93,7,7,0,0,0-.06-1.31,7.07,7.07,0,0,0-14.11.33c0,.33,0,.66,0,1a4.63,4.63,0,0,1,1.12-.7"/><path id="path2515" class="cls-1" d="M450.18,26.63H441.7a3,3,0,0,0-1.27.29,3.39,3.39,0,0,0-1,.67,4.31,4.31,0,0,0-.81,2.77V37a4.31,4.31,0,0,0,.81,2.77,3.6,3.6,0,0,0,1,.68,3.18,3.18,0,0,0,1.27.28h8.48q3.29,0,3.33-3.59V30.22c0-2.38-1.14-3.57-3.33-3.59"/><path class="cls-1" d="M223.81,85H214a2.82,2.82,0,0,1-1-.15,2.24,2.24,0,0,1-1.46-1.69c-.2-.86-.39-1.72-.58-2.58-.36-1.63-.72-3.25-1.09-4.87L208.6,70a1.63,1.63,0,0,1,1.05-2,3.1,3.1,0,0,1,1.2-.24h3.77c.22,0,.24,0,.24-.25s0-.69,0-1,0-.79,0-1.19a8.93,8.93,0,0,1,5.39-8.25,9,9,0,0,1,9.33,1.37,8.86,8.86,0,0,1,3.15,6.07c.08,1,0,1.94,0,2.9,0,.39,0,.4.4.4h3.55a3.36,3.36,0,0,1,1.33.26,1.61,1.61,0,0,1,1,1.87c-.19.93-.41,1.86-.61,2.78l-1.8,8.06c-.17.78-.35,1.55-.53,2.32a2.45,2.45,0,0,1-.63,1.2,2.28,2.28,0,0,1-1.57.68c-.14,0-.28,0-.42,0Zm0-17.17h5.58a.13.13,0,0,0,.14-.14,1.34,1.34,0,0,0,0-.2v-2a8.24,8.24,0,0,0,0-1.11,5.58,5.58,0,0,0-2-3.73,5.72,5.72,0,0,0-7.91.6A5.6,5.6,0,0,0,218.1,65c0,.81,0,1.62,0,2.43,0,.36,0,.37.38.37Zm0,3.68h-3.2a1.77,1.77,0,0,0-.32,0,.32.32,0,0,0-.31.37q0,.72,0,1.44c0,.22.07.29.29.32h1.53c.45,0,.46,0,.46.46v5.73a2.06,2.06,0,0,0,0,.35.26.26,0,0,0,.27.26h2.11c.52,0,.61-.09.61-.6V73.92c0-.22.06-.27.29-.27h.79c.33,0,.66,0,1,0s.35-.1.36-.37v-.8c0-.2,0-.41,0-.62a.31.31,0,0,0-.28-.34,1.58,1.58,0,0,0-.37,0Z"/><path class="cls-1" d="M281.11,77.5v3.82a5.14,5.14,0,0,1-.39,2,2.66,2.66,0,0,1-2.5,1.69c-2.11,0-4.22,0-6.33,0a3.29,3.29,0,0,1-1.89-.58,3,3,0,0,1-1.17-1.76,6.28,6.28,0,0,1-.18-1.5V73.82a2.73,2.73,0,0,1,.09-.76.88.88,0,0,1,.93-.74h3.18a1.36,1.36,0,0,1,.73.2,1,1,0,0,1,.49.86V79a5.79,5.79,0,0,0,0,.72.8.8,0,0,0,.86.8.87.87,0,0,0,.91-.82c0-.13,0-.25,0-.38V73.62a4.17,4.17,0,0,1,0-.61.71.71,0,0,1,.66-.67,2.56,2.56,0,0,1,.39,0h2.73a3.13,3.13,0,0,1,.44,0,1,1,0,0,1,1,1c0,.1,0,.2,0,.3Z"/><path class="cls-1" d="M249.74,67.79h6.35a2.2,2.2,0,0,1,.57,0,.57.57,0,0,1,.49.59v3a.46.46,0,0,1-.44.51,3,3,0,0,1-.42,0h-3.2c-.49,0-.55.06-.55.56V84c0,.11,0,.23,0,.35a.64.64,0,0,1-.51.62,3.18,3.18,0,0,1-.81.08H248c-.22,0-.44,0-.66,0a.61.61,0,0,1-.62-.67V72.64a1.74,1.74,0,0,0,0-.32.29.29,0,0,0-.3-.29h-3.2a2.28,2.28,0,0,1-.45,0,.45.45,0,0,1-.39-.44,1.62,1.62,0,0,1,0-.22V68.39a.58.58,0,0,1,.44-.54,1.94,1.94,0,0,1,.59-.06h6.37Z"/><path class="cls-1" d="M319.31,77.86c.09,0,.09-.13.12-.21.57-1.4,1.13-2.8,1.69-4.21a2.34,2.34,0,0,1,.4-.68,1.17,1.17,0,0,1,.93-.44h2.72a2,2,0,0,1,.59.08.39.39,0,0,1,.3.45,1,1,0,0,1-.12.42c-.49,1.14-1,2.28-1.46,3.43l-3,7.13-2,4.8a2.26,2.26,0,0,1-.53.77,1.08,1.08,0,0,1-.74.29h-2.61a1.6,1.6,0,0,1-.53-.09.38.38,0,0,1-.28-.42,1,1,0,0,1,.1-.38L316.44,85a.69.69,0,0,0,0-.61l-4.44-11a2.67,2.67,0,0,1-.13-.4.45.45,0,0,1,.31-.57,2.22,2.22,0,0,1,.68-.08c1.14,0,2.27,0,3.4,0a1.35,1.35,0,0,1,1.34.88,6.56,6.56,0,0,1,.23.62c.45,1.28.9,2.56,1.36,3.84A.31.31,0,0,0,319.31,77.86Z"/><path class="cls-1" d="M288.31,85.33a19.32,19.32,0,0,1-4.54-.55l-.33-.1a.48.48,0,0,1-.42-.47c0-.22-.08-.43-.08-.64A8.65,8.65,0,0,1,283,82a2.07,2.07,0,0,1,.1-.43c.1-.27.22-.34.5-.27s.75.18,1.14.24a13,13,0,0,0,2.64.12,2,2,0,0,0,.54-.09.94.94,0,0,0,.28-.15.36.36,0,0,0,0-.59,2.12,2.12,0,0,0-.56-.33c-.62-.29-1.26-.53-1.87-.85a5.39,5.39,0,0,1-1.57-1.15,3.62,3.62,0,0,1-.82-3.69A3.39,3.39,0,0,1,285,72.88a7.38,7.38,0,0,1,2.57-.87,14.81,14.81,0,0,1,3.26-.12,10.82,10.82,0,0,1,1.7.21l.4.11a.4.4,0,0,1,.29.34,2.8,2.8,0,0,1,0,.5,5.64,5.64,0,0,1-.33,1.72,1.65,1.65,0,0,1-.23.46.42.42,0,0,1-.43.18l-1.48-.18a6.86,6.86,0,0,0-1.36-.07,1.63,1.63,0,0,0-.48.09.38.38,0,0,0-.27.3.36.36,0,0,0,.18.35,6.77,6.77,0,0,0,1.16.61,10.26,10.26,0,0,1,2.22,1.3,4.76,4.76,0,0,1,1.16,1.29,4.2,4.2,0,0,1,.53,2.62,4,4,0,0,1-.32,1.24,3.32,3.32,0,0,1-1.53,1.63,5.85,5.85,0,0,1-2,.63A10.22,10.22,0,0,1,288.31,85.33Z"/><path class="cls-1" d="M296.36,79.09V76.23a1.21,1.21,0,0,0,0-.19c0-.17,0-.19-.18-.2s-.2,0-.3,0h-.13c-.59,0-.84-.23-.86-.82s0-1.24,0-1.86a1.13,1.13,0,0,1,.06-.31.59.59,0,0,1,.45-.45,1.65,1.65,0,0,1,.54-.05h.47c.18,0,.2,0,.21-.2V71.4c0-.2,0-.41,0-.62A.94.94,0,0,1,297,70a2,2,0,0,1,.79-.29c.86-.14,1.72-.29,2.59-.42a1.78,1.78,0,0,1,.61,0,.45.45,0,0,1,.39.36,1.38,1.38,0,0,1,0,.35v2a1,1,0,0,0,0,.17c0,.16,0,.19.19.19h1.24a.69.69,0,0,1,.66.44,1.64,1.64,0,0,1,.13.65v1.83c0,.45-.22.62-.67.62h-1.12c-.23,0-.26,0-.26.25,0,1.59,0,3.18,0,4.76a.51.51,0,0,0,.46.58,2.18,2.18,0,0,0,.57,0c.21,0,.25,0,.33.22a2.41,2.41,0,0,1,.16.6,11,11,0,0,1,.22,2.06c0,.45,0,.49-.46.6a9.92,9.92,0,0,1-3,.31,4,4,0,0,1-2.2-.72,3.19,3.19,0,0,1-1.28-2.14,3.35,3.35,0,0,1-.06-.71C296.37,80.85,296.36,80,296.36,79.09Z"/><path class="cls-1" d="M310.68,76.23V84a2.12,2.12,0,0,1,0,.44.6.6,0,0,1-.54.51,2.72,2.72,0,0,1-.49,0h-3.1a5.46,5.46,0,0,1-.57,0,.45.45,0,0,1-.45-.44,3.27,3.27,0,0,1,0-.54V68.49a1.8,1.8,0,0,1,0-.4.65.65,0,0,1,.61-.55h3.57a1.82,1.82,0,0,1,.57.07.58.58,0,0,1,.43.54c0,.11,0,.21,0,.32Z"/><path class="cls-1" d="M257.92,79.38V75.14a3.7,3.7,0,0,1,.08-.88,2.17,2.17,0,0,1,1.37-1.59,4.59,4.59,0,0,1,1.52-.32c1.08-.07,2.16,0,3.24,0h2.51c.41,0,.56.15.56.55,0,.84,0,1.69,0,2.53,0,.45-.21.65-.66.65a9.57,9.57,0,0,0-1.6.11,2.78,2.78,0,0,0-1.18.48,1.44,1.44,0,0,0-.61,1.12,4.87,4.87,0,0,0,0,.54q0,2.52,0,5c0,.3,0,.59,0,.89a.74.74,0,0,1-.72.77L262,85h-2.7a3.73,3.73,0,0,1-.47,0,1,1,0,0,1-.92-1c0-.1,0-.21,0-.32Z"/><path class="cls-1" d="M226.27,89.17a3.55,3.55,0,1,1,3.53,3.56A3.54,3.54,0,0,1,226.27,89.17Z"/><path class="cls-1" d="M221.37,89.17a3.55,3.55,0,1,1-3.55-3.55A3.52,3.52,0,0,1,221.37,89.17Z"/><g id="Page-1"><g id="skrill-logo-web-1-rgb"><path id="Fill-1" class="cls-1" d="M417.79,68a3.45,3.45,0,1,0-3.45-3.45A3.45,3.45,0,0,0,417.79,68Zm-26.41,1.86a24.16,24.16,0,0,1-4,6.83v-14l-7.22,1.43v25.4h7.22V81.66a27.21,27.21,0,0,1,3.12,7.85h8.64c-.85-3.55-4.59-10.1-4.59-10.1a31.46,31.46,0,0,0,5.06-9.54Zm19-.27c-6.46.21-9.74,3.11-9.74,8.87v11h7.05v-9c0-3.45.45-4.93,4.55-5.07V69.7a10.39,10.39,0,0,0-1.86-.1Zm-42.27,3.06c-.88,0-2.93-.19-2.93-2,0-2.22,3-2.22,4.05-2.22a24.25,24.25,0,0,1,6.26,1.11s1,.35,1.86.72l.07,0V64.17l-.1,0a25.06,25.06,0,0,0-9.16-1.46c-7.88,0-10.68,4.59-10.68,8.53,0,2.26,1,7.6,10,8.22.77,0,2.8.16,2.8,2.06,0,1.58-1.66,2.5-4.46,2.5A21.91,21.91,0,0,1,358,82.47v6.27a36.5,36.5,0,0,0,9.32,1.06c7.7,0,11.16-4.34,11.16-8.65,0-4.88-3.87-8.05-10.35-8.49Zm46.21,16.85h7V69.89h-7Zm20.16-25.58V89.51h7V62.68l-7,1.25Zm-10.2,0,7-1.25V89.51h-7V63.93Z"/></g></g></svg>