<svg id="Providers" xmlns="http://www.w3.org/2000/svg" viewBox="0 0 520.93 120"><defs><style>.cls-1{fill:#84d5f7;}.cls-2{opacity:0.6;}</style></defs><title>payment_uk</title><g id="g4158"><polygon id="polygon9" class="cls-1" points="119.26 48.26 112.08 48.26 116.57 20.48 123.75 20.48 119.26 48.26"/><path id="path11" class="cls-1" d="M145.29,21.16A17.75,17.75,0,0,0,138.85,20c-7.09,0-12.08,3.78-12.12,9.19,0,4,3.58,6.2,6.3,7.53s3.72,2.25,3.72,3.46c0,1.86-2.24,2.72-4.31,2.72a14.25,14.25,0,0,1-6.74-1.48l-1-.44-1,6.23a21.79,21.79,0,0,0,8,1.48c7.53,0,12.44-3.72,12.5-9.49,0-3.16-1.89-5.58-6-7.56-2.51-1.27-4-2.13-4-3.43s1.3-2.39,4.14-2.39a12.16,12.16,0,0,1,5.34,1.06l.65.3,1-6Z"/><path id="path13" class="cls-1" d="M154.84,38.42l2.86-7.77c0,.06.59-1.63,1-2.66l.5,2.39s1.36,6.65,1.65,8Zm8.86-17.94h-5.56a3.55,3.55,0,0,0-3.75,2.31L143.72,48.26h7.54l1.51-4.17H162c.2,1,.85,4.17.85,4.17h6.65L163.7,20.48Z"/><path id="path15" class="cls-1" d="M106.08,20.48l-7,18.94-.77-3.84c-1.3-4.43-5.38-9.25-9.93-11.64l6.44,24.29h7.6l11.28-27.75Z"/><path id="path17" class="cls-1" d="M92.52,20.48H81l-.11.56c9,2.31,15,7.86,17.43,14.54L95.77,22.82c-.42-1.78-1.69-2.28-3.25-2.34Z"/></g><g id="layer1"><g id="g3098"><path id="path3741" class="cls-1" d="M286.83,20l-5.29,28.69h11.54l2-11.26,4.1,11.26h32.34l3.65-19.8h1.55l-3.36,18.2s-.58,1.59,1.26,1.59h80.64l1.37-7.33,2.19,7.33H430.6L426.6,38s3.23-1.37,4.52-3a9.6,9.6,0,0,0,1.91-6.1,7.68,7.68,0,0,0-3.38-6.73c-2.16-1.47-5.31-2.21-9.36-2.21h-11.1l-3.65,19.79h-9.68l.25-1.4h7.73l1.48-8.11h-7.71l.24-1.39h8l1.63-8.9H388.12l-3.45,18.77s-2.86.36-2.43-1.9L385.37,20H373.76L370.3,38.75s-2.69.27-2.28-1.9S371.15,20,371.15,20H359.53l-3.65,19.79H346.1l.25-1.4h7.76l1.48-8.1h-7.76l.25-1.39h8.08l1.62-8.9H304.2l-2.12,11.38L298,20Zm1.3,1.54h8.76l5.73,15.69,2.87-15.69h50.42l-1.05,5.81h-8.05L346,31.8h7.76l-.92,5h-7.78l-.82,4.5h12.94l3.65-19.8h8.46l-3.5,18.78h5.8L375,21.52h8.46L380,40.3H386l3.45-18.78H405.6l-1.06,5.81h-8l-.83,4.47h7.74l-.92,5h-7.74l-.82,4.5h12.83l3.66-19.8h9.8c3.73,0,6.6.66,8.49,2a6.1,6.1,0,0,1,2.7,5.44,8.14,8.14,0,0,1-1.59,5.16,7.61,7.61,0,0,1-4.5,2.64l-.87.19,3.84,10.2H420l-3.7-12.49L414,47.11h-79l3.65-19.78h-4.69l-3.66,19.78h-30L294.64,31l-2.86,16.11h-8.39Zm24.57,5.81-.77,4.43h8L319,36.82h-8l-.84,4.5h12.84l2.56-14ZM314,28.88h9.66l-2,10.89H312l.26-1.4h8l1.49-8.09h-8.05Z"/><path id="path3745" class="cls-1" d="M423.25,29.78a2.64,2.64,0,0,0-1.2-2.39,5.54,5.54,0,0,0-3.1-.69h-1.22l-1.26,6.87h1.66a6.54,6.54,0,0,0,3.73-.87,3.39,3.39,0,0,0,1.39-2.92M421,31.42a4.82,4.82,0,0,1-2.64.6c-.07,0,.69-3.76.69-3.76H419a4.54,4.54,0,0,1,2.27.41,1.2,1.2,0,0,1,.47,1.11,1.77,1.77,0,0,1-.72,1.64"/><path id="path3747" class="cls-1" d="M433.24,42.76A3.25,3.25,0,1,1,436.49,46a3.26,3.26,0,0,1-3.25-3.25m-.34,0a3.59,3.59,0,1,0,3.59-3.6,3.6,3.6,0,0,0-3.59,3.6"/><path id="path3749" class="cls-1" d="M435.88,42.53h.32a1.58,1.58,0,0,0,.37,0,.88.88,0,0,0,.33-.06.6.6,0,0,0,.24-.16.45.45,0,0,0,.07-.27.47.47,0,0,0-.07-.27.84.84,0,0,0-.24-.14l-.33-.07h-.69Zm-1-1.58h1.85a3.21,3.21,0,0,1,.72.1,1.16,1.16,0,0,1,.54.29.85.85,0,0,1,.2.6.74.74,0,0,1-.27.57,1.19,1.19,0,0,1-.72.29h0a.47.47,0,0,1,.32.14,1.06,1.06,0,0,1,.19.24l.77,1.45h-1.07l-.58-1.15a.7.7,0,0,0-.23-.31,1,1,0,0,0-.45-.09h-.3v1.55h-1Z"/></g></g><path class="cls-1" d="M247.2,50.37v.09h.13a.05.05,0,0,0,0,0l0,0h-.13Zm.09-.06a.15.15,0,0,1,.1,0,.1.1,0,0,1,0,.07.09.09,0,0,1,0,.07.11.11,0,0,1-.08,0l.11.13h-.09l-.1-.13h0v.13h-.07v-.33Zm0,.44.11,0,.09-.06.06-.09a.36.36,0,0,0,0-.11.36.36,0,0,0,0-.1.35.35,0,0,0-.06-.09l-.09-.06-.11,0-.12,0-.09.06a.2.2,0,0,0-.06.09.36.36,0,0,0,0,.1.36.36,0,0,0,0,.11.47.47,0,0,0,.06.09l.09.06.12,0m0-.63a.32.32,0,0,1,.14,0,.25.25,0,0,1,.12.08.23.23,0,0,1,.08.11.31.31,0,0,1,0,.13.32.32,0,0,1,0,.14.28.28,0,0,1-.08.11.36.36,0,0,1-.12.08.32.32,0,0,1-.14,0,.33.33,0,0,1-.15,0,.36.36,0,0,1-.12-.08.28.28,0,0,1-.08-.11.32.32,0,0,1,0-.14.31.31,0,0,1,0-.13.23.23,0,0,1,.08-.11.25.25,0,0,1,.12-.08.33.33,0,0,1,.15,0m-34.64-1.25A1.13,1.13,0,1,1,213.76,50a1.09,1.09,0,0,1-1.13-1.13m3,0V47.1h-.81v.42a1.44,1.44,0,0,0-1.17-.51,1.86,1.86,0,1,0,0,3.71,1.44,1.44,0,0,0,1.17-.51v.42h.81Zm27.27,0A1.13,1.13,0,1,1,244,50a1.09,1.09,0,0,1-1.13-1.13m3,0v-3.2h-.81v1.85a1.44,1.44,0,0,0-1.17-.51,1.86,1.86,0,1,0,0,3.71,1.44,1.44,0,0,0,1.17-.51v.42h.81ZM225.66,47.7a.91.91,0,0,1,.94.85h-1.93a.94.94,0,0,1,1-.85m0-.69a1.77,1.77,0,0,0-1.85,1.86,1.79,1.79,0,0,0,1.91,1.85,2.33,2.33,0,0,0,1.52-.49l-.4-.57a1.85,1.85,0,0,1-1.08.37,1,1,0,0,1-1.11-.87h2.76a2.64,2.64,0,0,0,0-.29A1.74,1.74,0,0,0,225.67,47m9.75,1.86A1.12,1.12,0,1,1,236.55,50a1.09,1.09,0,0,1-1.13-1.13m3,0V47.1h-.81v.42a1.47,1.47,0,0,0-1.17-.51,1.86,1.86,0,1,0,0,3.71,1.47,1.47,0,0,0,1.17-.51v.42h.81Zm-7.57,0a1.83,1.83,0,0,0,2,1.85,2,2,0,0,0,1.34-.42l-.39-.62a1.66,1.66,0,0,1-1,.32,1.14,1.14,0,0,1,0-2.27,1.66,1.66,0,0,1,1,.32l.39-.62a2,2,0,0,0-1.34-.42,1.83,1.83,0,0,0-2,1.86M241.27,47a1.1,1.1,0,0,0-1,.51V47.1h-.8v3.53h.81v-2c0-.59.26-.91.79-.91a1.29,1.29,0,0,1,.5.09l.25-.73a2,2,0,0,0-.57-.09m-21.64.37a2.82,2.82,0,0,0-1.51-.37c-.94,0-1.55.43-1.55,1.13s.45.93,1.28,1l.38.06c.45,0,.65.17.65.37s-.29.43-.84.43a2.08,2.08,0,0,1-1.24-.37l-.38.59a2.74,2.74,0,0,0,1.61.46c1.07,0,1.69-.48,1.69-1.15s-.48-1-1.29-1.06l-.38,0c-.35-.05-.63-.11-.63-.35s.26-.41.7-.41a2.5,2.5,0,0,1,1.16.3ZM230.05,47a1.1,1.1,0,0,0-1,.51V47.1h-.8v3.53h.8v-2c0-.59.27-.91.8-.91a1.29,1.29,0,0,1,.5.09l.25-.73a2,2,0,0,0-.57-.09m-6.89.09h-1.32V46H221V47.1h-.75v.7H221v1.61c0,.82.34,1.31,1.29,1.31a2,2,0,0,0,1-.27l-.23-.66a1.6,1.6,0,0,1-.72.2c-.4,0-.53-.24-.53-.59V47.8h1.32Zm-12.07,3.53V48.41a1.34,1.34,0,0,0-1.46-1.4,1.46,1.46,0,0,0-1.31.63A1.35,1.35,0,0,0,207.1,47a1.25,1.25,0,0,0-1.09.52V47.1h-.81v3.53H206v-2a.84.84,0,0,1,.91-.94c.53,0,.8.33.8.93v2h.82v-2a.85.85,0,0,1,.91-.94c.55,0,.81.33.81.93v2Z"/><path class="cls-1" d="M247.7,38.86v-.51h-.14l-.16.35-.17-.35h-.14v.51h.1v-.39l.15.34h.11l.15-.34v.39Zm-.9,0v-.43H247v-.08h-.47v.08h.18v.43Z"/><g class="cls-2"><path class="cls-1" d="M220.18,30.6a13.1,13.1,0,0,1,5.34-10.48,14.4,14.4,0,0,0-8.64-2.85c-7.72,0-14,6-14,13.33s6.26,13.34,14,13.34a14.4,14.4,0,0,0,8.64-2.85,13.12,13.12,0,0,1-5.34-10.49"/></g><g class="cls-2"><path class="cls-1" d="M248.13,30.6c0,7.37-6.26,13.34-14,13.34a14.4,14.4,0,0,1-8.64-2.85,13,13,0,0,0,0-21,14.4,14.4,0,0,1,8.64-2.85c7.72,0,14,6,14,13.33"/></g><path class="cls-1" d="M225.51,41.08a13,13,0,0,1,0-20.95,12.94,12.94,0,0,1,0,21Z"/><g id="g10"><g id="g12"><path id="path14" class="cls-1" d="M252.12,73.45h-8.37a1.16,1.16,0,0,0-1.15,1l-3.39,21.48a.69.69,0,0,0,.69.8h4a1.16,1.16,0,0,0,1.15-1l.91-5.79a1.17,1.17,0,0,1,1.15-1h2.65c5.52,0,8.7-2.67,9.53-8,.38-2.31,0-4.13-1.07-5.4s-3.3-2.14-6.1-2.14Zm1,7.84c-.46,3-2.76,3-5,3h-1.26l.89-5.61a.69.69,0,0,1,.68-.59H249c1.52,0,2.94,0,3.68.86a2.81,2.81,0,0,1,.41,2.33"/><path id="path16" class="cls-1" d="M277.15,81.2h-4a.71.71,0,0,0-.69.59l-.17,1.12L272,82.5c-.86-1.26-2.8-1.68-4.73-1.68a9.22,9.22,0,0,0-8.95,8.06A7.54,7.54,0,0,0,259.8,95a6.27,6.27,0,0,0,5.05,2,7.68,7.68,0,0,0,5.55-2.29l-.18,1.11a.7.7,0,0,0,.69.81h3.61a1.16,1.16,0,0,0,1.15-1L277.84,82A.69.69,0,0,0,277.15,81.2ZM271.56,89A4.46,4.46,0,0,1,267,92.83a3.11,3.11,0,0,1-3.32-3.9,4.49,4.49,0,0,1,4.49-3.86,3.38,3.38,0,0,1,2.67,1.09,3.44,3.44,0,0,1,.68,2.84"/><path id="path18" class="cls-1" d="M298.51,81.2h-4a1.14,1.14,0,0,0-1,.51L288,89.89,285.6,82a1.15,1.15,0,0,0-1.11-.83h-4a.7.7,0,0,0-.67.92l4.44,13L280.13,101a.7.7,0,0,0,.57,1.1h4a1.18,1.18,0,0,0,1-.5l13.4-19.35a.69.69,0,0,0-.57-1.09"/><path id="path20" class="cls-1" d="M311.85,73.45h-8.37a1.16,1.16,0,0,0-1.15,1l-3.39,21.48a.69.69,0,0,0,.69.8h4.3a.81.81,0,0,0,.8-.69l1-6.08a1.17,1.17,0,0,1,1.15-1h2.65c5.52,0,8.7-2.67,9.53-8,.38-2.31,0-4.13-1.07-5.4s-3.3-2.14-6.1-2.14Zm1,7.84c-.46,3-2.76,3-5,3h-1.26l.89-5.61a.69.69,0,0,1,.69-.59h.58c1.51,0,2.93,0,3.67.86a2.81,2.81,0,0,1,.41,2.33"/><path id="path22" class="cls-1" d="M336.88,81.2h-4a.69.69,0,0,0-.68.59L332,82.91l-.28-.41c-.87-1.26-2.81-1.68-4.74-1.68A9.22,9.22,0,0,0,318,88.88,7.58,7.58,0,0,0,319.53,95a6.28,6.28,0,0,0,5.05,2,7.68,7.68,0,0,0,5.55-2.29L330,95.9a.71.71,0,0,0,.69.81h3.62a1.15,1.15,0,0,0,1.14-1L337.57,82a.69.69,0,0,0-.69-.8ZM331.29,89a4.46,4.46,0,0,1-4.52,3.83,3.1,3.1,0,0,1-3.32-3.9,4.49,4.49,0,0,1,4.49-3.86,3.38,3.38,0,0,1,2.67,1.09,3.44,3.44,0,0,1,.68,2.84"/><path id="path24" class="cls-1" d="M341.61,74l-3.44,21.87a.69.69,0,0,0,.69.8h3.46a1.16,1.16,0,0,0,1.15-1l3.38-21.47a.69.69,0,0,0-.68-.81H342.3a.7.7,0,0,0-.69.59"/></g></g><path id="path2491" class="cls-1" d="M85.08,83.68c0-.55-.28-.83-.79-.85h-2.7a1,1,0,0,0-1,1v4.86a1,1,0,0,0,1.1,1.05h2.47a.82.82,0,0,0,.64-.29.71.71,0,0,0,.27-.57Zm-8-.69A4.33,4.33,0,0,1,78,80.22a3.46,3.46,0,0,1,1-.67,3.11,3.11,0,0,1,1.26-.29h5c2.19,0,3.31,1.22,3.34,3.6v7.31a3,3,0,0,1-1,2.19,3.17,3.17,0,0,1-2.27,1H80.6v5.27H77.13V83"/><path id="path2493" class="cls-1" d="M94.82,89.08a.56.56,0,0,0,.27.49,1,1,0,0,0,.64.22h2.66c.6,0,.92-.23.93-.71v-1c0-.55-.31-.82-.95-.82H95.73a1.2,1.2,0,0,0-.73.17,1.15,1.15,0,0,0-.18.76Zm4.5-5.48c0-.54-.29-.79-.93-.77h-7V79.26h7.87q3.44.06,3.5,3.33v7.46a3.44,3.44,0,0,1-.87,2.34,3,3,0,0,1-2.27,1H94.87c-2.31,0-3.49-1.08-3.52-3.18V87.3c0-2.2,1.14-3.31,3.36-3.35h4.61V83.6"/><path id="path2495" class="cls-1" d="M112.52,95.07a1.12,1.12,0,0,0,.7-.3.72.72,0,0,0,.28-.57v-.84h-4.44a3.78,3.78,0,0,1-1.39-.22,3.38,3.38,0,0,1-1.1-.74,3.63,3.63,0,0,1-1-2.61V79.26h3.47v9.4c0,.75.31,1.13.93,1.13h2.45a1.11,1.11,0,0,0,.76-.29.75.75,0,0,0,.3-.59V79.26H117V94.79a4.37,4.37,0,0,1-.89,2.77,2.93,2.93,0,0,1-2.37,1.07h-8.1V95.07h6.93"/><path id="path2497" class="cls-1" d="M119.67,89.79h6.19c.56,0,.86-.25.88-.68v-.32a.67.67,0,0,0-.09-.31c-.13-.27-.3-.4-.51-.4h-3.06a3.41,3.41,0,0,1-2.34-.94,2.68,2.68,0,0,1-1-2V82.43c0-2.08,1.16-3.13,3.38-3.17h7.18v3.57H124.2c-.71,0-1.07.22-1.07.65v.35c0,.45.36.68,1.1.68h3a2.87,2.87,0,0,1,2.09.94,3.14,3.14,0,0,1,.91,2.18v2.6a3.43,3.43,0,0,1-1,2.19,2.64,2.64,0,0,1-1,.74,3.85,3.85,0,0,1-1.37.2h-7.26V89.79"/><path id="path2499" class="cls-1" d="M136.22,89.08a.55.55,0,0,0,.28.49.92.92,0,0,0,.62.22h2.68c.6,0,.91-.23.93-.71v-1c0-.55-.32-.82-1-.82h-2.65a1.13,1.13,0,0,0-.71.17,1.09,1.09,0,0,0-.19.76Zm4.51-5.48c0-.54-.3-.79-.94-.77h-7V79.26h7.87c2.3,0,3.46,1.15,3.5,3.33v7.46a3.44,3.44,0,0,1-.87,2.34,2.93,2.93,0,0,1-2.27,1h-4.76c-2.31,0-3.49-1.08-3.52-3.18V87.3c0-2.2,1.14-3.31,3.36-3.35h4.62V83.6"/><path id="path2501" class="cls-1" d="M147,77.24a3,3,0,0,1,1.07-2.32,3.94,3.94,0,0,1,2.66-.9h2.2v3.44h-1.33c-.74,0-1.11.37-1.13,1.05v.75h2.46v3.57h-2.46V93.36H147V77.24"/><path id="path2503" class="cls-1" d="M162.79,83.53v-.08a.57.57,0,0,0-.22-.46,1,1,0,0,0-.6-.16h-2.41a1.08,1.08,0,0,0-.76.26.76.76,0,0,0-.36.65v1.43Zm-4.29,5v.23a1,1,0,0,0,.22.67.51.51,0,0,0,.45.32h7.13v3.57h-7.58a5.18,5.18,0,0,1-1.61-.2,2.87,2.87,0,0,1-1.12-.67,3,3,0,0,1-.77-1.16,5.23,5.23,0,0,1-.21-1.64l0-7.14c0-2.15,1.16-3.25,3.37-3.29H163c2.17,0,3.26,1.17,3.3,3.41v2.82l-7.83,3.08"/><path id="path2505" class="cls-1" d="M173.67,93.36a7.18,7.18,0,0,1-1.44-.14,3.09,3.09,0,0,1-1.37-.64,3.29,3.29,0,0,1-1-1.4,4.81,4.81,0,0,1-.28-1.72V82.8a4.27,4.27,0,0,1,.16-1.43,3.07,3.07,0,0,1,.73-1.21,3.39,3.39,0,0,1,1.31-.83,6.13,6.13,0,0,1,1.49-.16h5.32V80h-5.2a3.6,3.6,0,0,0-2.16.57,2.51,2.51,0,0,0-.82,2.12v6.66a4.51,4.51,0,0,0,.21,1.37,2.81,2.81,0,0,0,.74,1.14,2.88,2.88,0,0,0,1.12.54,6.11,6.11,0,0,0,1.23.12h5v.84h-5"/><path id="path2507" class="cls-1" d="M192.28,84.72h-7a2.65,2.65,0,0,0-2,.78,2.83,2.83,0,0,0-.73,2.07V89.7a4.44,4.44,0,0,0,.13,1.13,1.84,1.84,0,0,0,.65,1,3.1,3.1,0,0,0,2,.74h4.23c1.76,0,2.65-1,2.65-2.79Zm.83,4.8a8.63,8.63,0,0,1-.11,1.42,3.13,3.13,0,0,1-.69,1.29,3.49,3.49,0,0,1-2.71,1.13h-4.15a3.68,3.68,0,0,1-2.63-1,3.4,3.4,0,0,1-1-2.64V87.61c0-2.43,1.24-3.66,3.62-3.72h6.91V83a3.28,3.28,0,0,0-.67-2,2.09,2.09,0,0,0-1-.77,5.1,5.1,0,0,0-1.3-.15h-7.53v-.83H189a10.63,10.63,0,0,1,1.78.14,2,2,0,0,1,.76.31,2.59,2.59,0,0,1,.68.65,4.39,4.39,0,0,1,.94,2.85v6.4"/><path id="path2509" class="cls-1" d="M200.91,80c-1.93,0-2.89,1.09-2.85,3.17V93.36h-.83V83.18c0-2.68,1.23-4,3.82-4H202V80h-1.06"/><path id="path2511" class="cls-1" d="M215,80h-6.57a5,5,0,0,0-1.28.15,2.23,2.23,0,0,0-1.15.73A2.46,2.46,0,0,0,205.3,82a3.92,3.92,0,0,0-.16,1.3v6.49a2.4,2.4,0,0,0,1,2.21,3.53,3.53,0,0,0,1,.41,4.7,4.7,0,0,0,1.29.16h2.87a4.33,4.33,0,0,0,2.63-.75,2.78,2.78,0,0,0,1-2.42Zm.83,9.4q-.1,4-4.26,4h-3.08a8.35,8.35,0,0,1-1.75-.16,3.17,3.17,0,0,1-2.23-2.35,5.39,5.39,0,0,1-.16-1.55V83.24c0-2.73,1.41-4.09,4.13-4.07H215v-4.6h.83V89.41"/><path id="path2513" class="cls-1" d="M57.85,78.73a3.61,3.61,0,0,1,.82-.28,5.27,5.27,0,0,1,10.32,0,3.86,3.86,0,0,1,1.93.94,7.1,7.1,0,1,0-14.17-1,8.63,8.63,0,0,0,0,1,4.26,4.26,0,0,1,1.11-.69"/><path id="path2515" class="cls-1" d="M68,79.26H59.48a3.2,3.2,0,0,0-1.27.29,3.59,3.59,0,0,0-1,.67A4.39,4.39,0,0,0,56.36,83v6.63a4.35,4.35,0,0,0,.81,2.77,3.6,3.6,0,0,0,1,.68,3.2,3.2,0,0,0,1.27.29H68q3.29,0,3.34-3.6v-6.9q-.06-3.57-3.34-3.6"/><g id="Page-1"><g id="skrill-logo-web-1-rgb"><path id="Fill-1" class="cls-1" d="M440.91,76.55a3.45,3.45,0,1,0-3.44-3.45,3.46,3.46,0,0,0,3.44,3.45Zm-26.4,1.86a24.61,24.61,0,0,1-4,6.83v-14l-7.21,1.43v25.4h7.21V90.2a27.32,27.32,0,0,1,3.12,7.85h8.65c-.86-3.55-4.6-10.1-4.6-10.1a31.85,31.85,0,0,0,5.07-9.54Zm19-.27c-6.46.21-9.74,3.11-9.74,8.87v11h7v-9c0-3.45.45-4.93,4.55-5.07V78.24a10.39,10.39,0,0,0-1.86-.1Zm-42.26,3.07c-.89-.06-2.93-.2-2.93-2,0-2.22,2.94-2.22,4.05-2.22a24.18,24.18,0,0,1,6.25,1.11s1,.36,1.86.72l.08,0V72.71l-.11,0a25,25,0,0,0-9.16-1.46c-7.88,0-10.67,4.6-10.67,8.53,0,2.27,1,7.6,10,8.22.76,0,2.79.16,2.79,2.07,0,1.57-1.66,2.49-4.46,2.49A22,22,0,0,1,381.07,91v6.27a36.5,36.5,0,0,0,9.32,1.06c7.71,0,11.16-4.34,11.16-8.65,0-4.88-3.86-8-10.34-8.48Zm46.21,16.84h7V78.43h-7Zm20.16-25.58V98.05h7V71.22l-7,1.25Zm-10.21,0,7-1.25V98.05h-7V72.47Z"/></g></g></svg>