<svg id="Providers" xmlns="http://www.w3.org/2000/svg" viewBox="0 0 1200 60"><defs><style>.cls-1{fill:#84d5f7;}.cls-2{opacity:0.6;}</style></defs><title>payment_large_uk</title><g id="g4158"><polygon id="polygon9" class="cls-1" points="233.14 44.36 225.96 44.36 230.45 16.59 237.63 16.59 233.14 44.36"/><path id="path11" class="cls-1" d="M259.17,17.27a17.75,17.75,0,0,0-6.44-1.18c-7.09,0-12.09,3.78-12.12,9.19-.06,4,3.58,6.2,6.3,7.53s3.72,2.25,3.72,3.46c0,1.86-2.25,2.72-4.31,2.72a14.34,14.34,0,0,1-6.74-1.48l-1-.45-1,6.24a21.79,21.79,0,0,0,8,1.48c7.53,0,12.44-3.73,12.49-9.49,0-3.16-1.89-5.58-6-7.56-2.51-1.27-4.05-2.13-4.05-3.43s1.3-2.39,4.13-2.39A12.21,12.21,0,0,1,257.54,23l.65.3,1-6Z"/><path id="path13" class="cls-1" d="M268.71,34.52l2.87-7.77c0,.06.59-1.62.94-2.65l.51,2.39s1.36,6.65,1.65,8Zm8.87-17.93H272a3.54,3.54,0,0,0-3.75,2.31L257.6,44.36h7.54l1.5-4.16h9.22c.21,1,.86,4.16.86,4.16h6.65l-5.79-27.77Z"/><path id="path15" class="cls-1" d="M220,16.59l-7,18.94-.77-3.84c-1.3-4.43-5.38-9.25-9.93-11.64l6.44,24.28h7.59l11.29-27.74Z"/><path id="path17" class="cls-1" d="M206.4,16.59H194.84l-.12.56c9,2.31,15,7.86,17.44,14.54l-2.51-12.76c-.42-1.78-1.69-2.28-3.25-2.34Z"/></g><g id="layer1"><g id="g3098"><path id="path3741" class="cls-1" d="M400.71,16.09l-5.3,28.69H407l2-11.26,4.1,11.26H445.4L449.05,25h1.54l-3.36,18.2s-.57,1.59,1.27,1.59h80.63l1.38-7.33,2.19,7.33h11.78l-4-10.65s3.24-1.37,4.53-3a9.7,9.7,0,0,0,1.91-6.1,7.68,7.68,0,0,0-3.38-6.73c-2.16-1.48-5.31-2.21-9.37-2.21h-11.1l-3.64,19.78h-9.68l.24-1.39h7.74l1.48-8.11h-7.71l.24-1.39h8l1.63-8.9H502l-3.45,18.77s-2.86.36-2.43-1.9,3.13-16.87,3.13-16.87H487.63l-3.45,18.77s-2.69.27-2.29-1.9S485,16.09,485,16.09H473.41l-3.65,19.78H460l.25-1.39H468l1.48-8.1h-7.76L462,25H470l1.62-8.9H418.08L416,27.47l-4.1-11.38Zm1.3,1.54h8.76l5.73,15.69,2.87-15.69h50.42l-1.05,5.8h-8.05l-.83,4.48h7.77l-.93,5h-7.77l-.82,4.49h12.94l3.65-19.79h8.46l-3.5,18.77h5.8l3.46-18.77h8.46L493.9,36.4h5.93l3.46-18.77h16.18l-1.05,5.8h-8l-.83,4.48h7.73l-.92,5H508.7l-.83,4.49h12.84l3.65-19.79h9.8c3.74,0,6.61.65,8.5,1.95a6.13,6.13,0,0,1,2.7,5.45,8.14,8.14,0,0,1-1.59,5.16,7.61,7.61,0,0,1-4.5,2.64l-.88.19,3.85,10.2h-8.39l-3.7-12.49-2.3,12.49h-79l3.65-19.79h-4.7l-3.65,19.79h-30l-5.55-16.11-2.86,16.11h-8.39Zm24.57,5.8-.78,4.44h8l-.92,5.06h-8L424,37.42h12.85l2.55-14ZM427.87,25h9.66l-2,10.88h-9.68l.26-1.39h8l1.49-8.09h-8.05Z"/><path id="path3745" class="cls-1" d="M537.13,25.88a2.67,2.67,0,0,0-1.2-2.39,5.65,5.65,0,0,0-3.11-.68h-1.21l-1.26,6.86H532a6.48,6.48,0,0,0,3.74-.87,3.36,3.36,0,0,0,1.39-2.92m-2.28,1.65a4.91,4.91,0,0,1-2.64.6c-.07,0,.69-3.77.69-3.77h-.08a4.43,4.43,0,0,1,2.27.42,1.19,1.19,0,0,1,.48,1.1,1.78,1.78,0,0,1-.72,1.65"/><path id="path3747" class="cls-1" d="M547.12,38.87a3.25,3.25,0,1,1,3.25,3.25,3.26,3.26,0,0,1-3.25-3.25m-.34,0a3.59,3.59,0,1,0,3.59-3.61,3.59,3.59,0,0,0-3.59,3.61"/><path id="path3749" class="cls-1" d="M549.76,38.64h.32a1.46,1.46,0,0,0,.36,0,.81.81,0,0,0,.33-.06.82.82,0,0,0,.25-.16.56.56,0,0,0,0-.54,1,1,0,0,0-.25-.15,2.19,2.19,0,0,0-.33-.06h-.68Zm-1-1.59h1c.27,0,.53,0,.81,0a3.22,3.22,0,0,1,.72.09,1.23,1.23,0,0,1,.54.3.88.88,0,0,1,.2.6.72.72,0,0,1-.27.56,1.23,1.23,0,0,1-.72.3h0a.46.46,0,0,1,.31.13.92.92,0,0,1,.2.25l.77,1.45h-1.08l-.57-1.16a.67.67,0,0,0-.24-.3.94.94,0,0,0-.44-.09h-.3v1.55h-1Z"/></g></g><g id="Page-1"><g id="skrill-logo-web-1-rgb"><path id="Fill-1" class="cls-1" d="M647.7,23a3.45,3.45,0,1,0-3.44-3.44A3.44,3.44,0,0,0,647.7,23Zm-26.4,1.86a24.73,24.73,0,0,1-4,6.83v-14l-7.22,1.42V44.49h7.22V36.63a27.33,27.33,0,0,1,3.12,7.86h8.64c-.86-3.56-4.59-10.11-4.59-10.11a31.59,31.59,0,0,0,5.06-9.54Zm19-.26c-6.47.2-9.75,3.1-9.75,8.87v11h7.05v-9c0-3.45.46-4.93,4.55-5.07V24.68a9.38,9.38,0,0,0-1.85-.1ZM598,27.64c-.88-.06-2.93-.19-2.93-2,0-2.23,2.95-2.23,4-2.23a24.76,24.76,0,0,1,6.26,1.11s1,.36,1.85.72l.08,0V19.14l-.11,0A25,25,0,0,0,598,17.66c-7.88,0-10.67,4.59-10.67,8.52,0,2.27,1,7.61,10,8.22.76.05,2.79.17,2.79,2.07,0,1.57-1.66,2.5-4.46,2.5a21.76,21.76,0,0,1-7.84-1.53v6.27a36.47,36.47,0,0,0,9.32,1.07c7.71,0,11.16-4.35,11.16-8.65,0-4.89-3.86-8.06-10.34-8.49Zm46.21,16.85h7V24.86h-7Zm20.16-25.58V44.49h7V17.66l-7,1.25Zm-10.21,0,7-1.25V44.49h-7V18.91Z"/></g></g><g id="g10"><g id="g12"><path id="path14" class="cls-1" d="M910.53,19.37h-8.37a1.16,1.16,0,0,0-1.15,1l-3.39,21.47a.7.7,0,0,0,.69.81h4a1.17,1.17,0,0,0,1.15-1l.91-5.8a1.17,1.17,0,0,1,1.15-1h2.65c5.52,0,8.7-2.67,9.53-8,.38-2.31,0-4.13-1.06-5.4s-3.3-2.14-6.11-2.14Zm1,7.84c-.46,3-2.75,3-5,3h-1.27l.89-5.62a.69.69,0,0,1,.69-.59h.58c1.51,0,2.94,0,3.67.87a2.76,2.76,0,0,1,.41,2.33"/><path id="path16" class="cls-1" d="M935.56,27.11h-4a.69.69,0,0,0-.68.59l-.18,1.12-.28-.4c-.87-1.26-2.81-1.68-4.74-1.68a9.22,9.22,0,0,0-8.95,8.06A7.55,7.55,0,0,0,918.21,41a6.27,6.27,0,0,0,5,2,7.68,7.68,0,0,0,5.55-2.29l-.18,1.11a.71.71,0,0,0,.69.81h3.61a1.16,1.16,0,0,0,1.15-1l2.17-13.72A.7.7,0,0,0,935.56,27.11ZM930,34.92a4.48,4.48,0,0,1-4.53,3.83,3.11,3.11,0,0,1-3.32-3.9A4.49,4.49,0,0,1,926.62,31a3.41,3.41,0,0,1,2.68,1.09,3.5,3.5,0,0,1,.68,2.84"/><path id="path18" class="cls-1" d="M956.92,27.11h-4a1.17,1.17,0,0,0-1,.51l-5.56,8.19L944,27.94a1.16,1.16,0,0,0-1.11-.83h-4a.7.7,0,0,0-.66.93l4.43,13L938.54,47a.7.7,0,0,0,.57,1.11h4a1.15,1.15,0,0,0,1-.5l13.4-19.35a.7.7,0,0,0-.57-1.1"/><path id="path20" class="cls-1" d="M970.26,19.37h-8.37a1.16,1.16,0,0,0-1.15,1l-3.39,21.47a.7.7,0,0,0,.69.81h4.3a.81.81,0,0,0,.8-.69l1-6.09a1.17,1.17,0,0,1,1.15-1h2.65c5.52,0,8.7-2.67,9.53-8,.38-2.31,0-4.13-1.07-5.4s-3.29-2.14-6.1-2.14Zm1,7.84c-.46,3-2.75,3-5,3H965l.89-5.62a.7.7,0,0,1,.69-.59h.58c1.51,0,2.94,0,3.67.87a2.76,2.76,0,0,1,.41,2.33"/><path id="path22" class="cls-1" d="M995.29,27.11h-4a.69.69,0,0,0-.69.59l-.18,1.12-.28-.4c-.87-1.26-2.8-1.68-4.74-1.68a9.22,9.22,0,0,0-8.95,8.06A7.59,7.59,0,0,0,977.94,41,6.3,6.3,0,0,0,983,43a7.68,7.68,0,0,0,5.55-2.29l-.18,1.11a.7.7,0,0,0,.69.81h3.61a1.17,1.17,0,0,0,1.15-1L996,27.92a.71.71,0,0,0-.7-.81Zm-5.59,7.81a4.46,4.46,0,0,1-4.52,3.83,3.11,3.11,0,0,1-3.32-3.9A4.49,4.49,0,0,1,986.35,31,3.41,3.41,0,0,1,989,32.08a3.46,3.46,0,0,1,.67,2.84"/><path id="path24" class="cls-1" d="M1000,20l-3.44,21.86a.71.71,0,0,0,.69.81h3.46a1.17,1.17,0,0,0,1.15-1l3.39-21.48a.7.7,0,0,0-.69-.8h-3.87a.7.7,0,0,0-.69.59"/></g></g><path class="cls-1" d="M361.08,46.48v.09h.09l0,0s0,0,0,0,0,0,0,0h-.13Zm.09-.06.1,0a.11.11,0,0,1,0,.08.14.14,0,0,1,0,.07.12.12,0,0,1-.09,0l.12.12h-.09l-.1-.12h0v.12H361v-.32Zm0,.44a.27.27,0,0,0,.12,0l.09,0,.06-.09a.36.36,0,0,0,0-.11.43.43,0,0,0,0-.11l-.06-.08a.24.24,0,0,0-.09-.06l-.12,0-.11,0a.18.18,0,0,0-.09.06.16.16,0,0,0-.06.08.22.22,0,0,0,0,.11.2.2,0,0,0,0,.11.24.24,0,0,0,.06.09l.09,0a.23.23,0,0,0,.11,0m0-.63a.37.37,0,0,1,.15,0,.35.35,0,0,1,.12.07.44.44,0,0,1,.08.11.35.35,0,0,1,0,.14.32.32,0,0,1,0,.14.44.44,0,0,1-.08.11.36.36,0,0,1-.12.08l-.15,0-.14,0a.36.36,0,0,1-.12-.08.28.28,0,0,1-.08-.11.32.32,0,0,1,0-.14.35.35,0,0,1,0-.14.28.28,0,0,1,.08-.11.35.35,0,0,1,.12-.07.32.32,0,0,1,.14,0M326.51,45a1.13,1.13,0,1,1,1.13,1.14A1.09,1.09,0,0,1,326.51,45m3,0V43.2h-.81v.43a1.44,1.44,0,0,0-1.17-.52,1.86,1.86,0,0,0,0,3.72,1.44,1.44,0,0,0,1.17-.52v.43h.81Zm27.27,0a1.13,1.13,0,1,1,1.13,1.14A1.09,1.09,0,0,1,356.79,45m3,0V41.78H359v1.85a1.43,1.43,0,0,0-1.17-.52,1.86,1.86,0,0,0,0,3.72,1.43,1.43,0,0,0,1.17-.52v.43h.81ZM339.54,43.8a.91.91,0,0,1,.94.86h-1.93a.94.94,0,0,1,1-.86m0-.69a1.86,1.86,0,1,0,.06,3.72,2.35,2.35,0,0,0,1.52-.49l-.4-.57a1.88,1.88,0,0,1-1.08.37,1,1,0,0,1-1.11-.87h2.76a2.91,2.91,0,0,0,0-.3,1.73,1.73,0,0,0-1.76-1.86M349.3,45a1.12,1.12,0,1,1,1.12,1.14A1.08,1.08,0,0,1,349.3,45m3,0V43.2h-.8v.43a1.45,1.45,0,0,0-1.18-.52,1.86,1.86,0,0,0,0,3.72,1.45,1.45,0,0,0,1.18-.52v.43h.8Zm-7.56,0a1.83,1.83,0,0,0,2,1.86,2,2,0,0,0,1.33-.42l-.38-.62a1.76,1.76,0,0,1-1,.32,1.14,1.14,0,0,1,0-2.27,1.68,1.68,0,0,1,1,.32l.38-.62a2,2,0,0,0-1.33-.43,1.83,1.83,0,0,0-2,1.86m10.41-1.86a1.11,1.11,0,0,0-1,.52V43.2h-.8v3.54h.81v-2c0-.59.26-.91.79-.91a1.29,1.29,0,0,1,.5.09l.25-.73a1.71,1.71,0,0,0-.57-.1m-21.64.37a2.92,2.92,0,0,0-1.52-.37c-.94,0-1.54.43-1.54,1.14s.45.93,1.28,1l.38.05c.44.06.65.17.65.37s-.29.43-.84.43a2.05,2.05,0,0,1-1.24-.37l-.38.6a2.77,2.77,0,0,0,1.61.46c1.07,0,1.69-.48,1.69-1.15s-.49-1-1.29-1.06l-.39-.06c-.34,0-.62-.11-.62-.34s.26-.42.7-.42a2.4,2.4,0,0,1,1.16.31Zm10.41-.37a1.09,1.09,0,0,0-1,.52V43.2h-.8v3.54h.8v-2c0-.59.27-.91.79-.91a1.31,1.31,0,0,1,.51.09l.25-.73a1.73,1.73,0,0,0-.58-.1M337,43.2h-1.33V42.13h-.81V43.2h-.75v.71h.75v1.61c0,.82.33,1.31,1.29,1.31a2,2,0,0,0,1-.27L337,45.9a1.57,1.57,0,0,1-.71.2c-.4,0-.53-.24-.53-.59v-1.6H337ZM325,46.74V44.52a1.35,1.35,0,0,0-1.46-1.41,1.49,1.49,0,0,0-1.31.63,1.39,1.39,0,0,0-1.23-.63,1.23,1.23,0,0,0-1.08.53V43.2h-.81v3.54h.81v-2a.85.85,0,0,1,.91-.94c.54,0,.81.33.81.93v2h.82v-2a.85.85,0,0,1,.9-.94c.56,0,.82.33.82.93v2Z"/><path class="cls-1" d="M361.58,35v-.52h-.14l-.17.36-.16-.36H361V35h.1v-.39l.15.34h.11l.15-.34V35Zm-.9,0v-.43h.18v-.09h-.46v.09h.18V35Z"/><g class="cls-2"><path class="cls-1" d="M334.06,26.71a13.1,13.1,0,0,1,5.34-10.48,14.33,14.33,0,0,0-8.64-2.85c-7.72,0-14,6-14,13.33S323,40,330.76,40a14.33,14.33,0,0,0,8.64-2.85,13.1,13.1,0,0,1-5.34-10.48"/></g><g class="cls-2"><path class="cls-1" d="M362,26.71C362,34.07,355.75,40,348,40a14.34,14.34,0,0,1-8.65-2.85,12.94,12.94,0,0,0,0-21A14.34,14.34,0,0,1,348,13.38c7.72,0,14,6,14,13.33"/></g><path class="cls-1" d="M339.39,37.19a13,13,0,0,1,0-21,13,13,0,0,1,0,21Z"/><path id="path2491" class="cls-1" d="M733.49,29.6c0-.55-.28-.84-.78-.86H730a.94.94,0,0,0-1,1.05v4.87a1,1,0,0,0,1.09,1.05h2.48a.84.84,0,0,0,.64-.29.7.7,0,0,0,.26-.57Zm-7.94-.69a4.25,4.25,0,0,1,.81-2.77,3.27,3.27,0,0,1,1-.67,3,3,0,0,1,1.26-.29h5c2.19,0,3.3,1.21,3.33,3.59v7.32a3,3,0,0,1-1,2.19,3.14,3.14,0,0,1-2.27,1H729v5.28h-3.47V28.91"/><path id="path2493" class="cls-1" d="M743.23,35a.57.57,0,0,0,.28.49.93.93,0,0,0,.63.22h2.66c.61,0,.92-.24.94-.71V34c0-.55-.32-.82-1-.82h-2.64a1.16,1.16,0,0,0-.72.16,1.11,1.11,0,0,0-.19.76Zm4.51-5.48c0-.54-.3-.79-.94-.78h-7V25.18h7.87c2.3,0,3.46,1.14,3.5,3.33V36a3.48,3.48,0,0,1-.87,2.34,2.94,2.94,0,0,1-2.27,1h-4.76c-2.31,0-3.49-1.07-3.52-3.18V33.22q0-3.3,3.36-3.36h4.62v-.34"/><path id="path2495" class="cls-1" d="M760.93,41a1.08,1.08,0,0,0,.71-.29.75.75,0,0,0,.28-.57v-.85h-4.45a3.58,3.58,0,0,1-1.39-.22,3.06,3.06,0,0,1-1.09-.74,3.36,3.36,0,0,1-.75-1.18,3.63,3.63,0,0,1-.24-1.42V25.18h3.47v9.4c0,.75.31,1.13.93,1.13h2.45a1.11,1.11,0,0,0,.76-.29.78.78,0,0,0,.31-.6V25.18h3.44V40.71a4.37,4.37,0,0,1-.88,2.77,3,3,0,0,1-2.38,1.07H754V41h6.93"/><path id="path2497" class="cls-1" d="M768.09,35.71h6.18c.57,0,.86-.25.88-.68v-.32a.75.75,0,0,0-.08-.31c-.14-.27-.31-.4-.51-.4h-3.07a3.46,3.46,0,0,1-2.34-.94,2.7,2.7,0,0,1-1-2.05V28.35c0-2.08,1.17-3.13,3.39-3.17h7.17v3.56h-6.08c-.71,0-1.07.22-1.07.66v.34c0,.46.37.68,1.1.68h3.06a2.86,2.86,0,0,1,2.08.94,3.17,3.17,0,0,1,.91,2.19v2.6a3.47,3.47,0,0,1-1,2.19,2.73,2.73,0,0,1-1,.74,4,4,0,0,1-1.38.19h-7.25V35.71"/><path id="path2499" class="cls-1" d="M784.63,35a.57.57,0,0,0,.28.49.93.93,0,0,0,.63.22h2.67c.6,0,.91-.24.93-.71V34c0-.55-.32-.82-1-.82h-2.64a1.16,1.16,0,0,0-.72.16,1.11,1.11,0,0,0-.19.76Zm4.51-5.48c0-.54-.3-.79-.94-.78h-7V25.18h7.88c2.29,0,3.45,1.14,3.49,3.33V36a3.48,3.48,0,0,1-.87,2.34,2.92,2.92,0,0,1-2.26,1h-4.77c-2.31,0-3.49-1.07-3.52-3.18V33.22q0-3.3,3.36-3.36h4.62v-.34"/><path id="path2501" class="cls-1" d="M795.4,23.16a3,3,0,0,1,1.07-2.32,4,4,0,0,1,2.66-.91h2.2v3.45H800c-.74,0-1.11.37-1.13,1v.76h2.46v3.57h-2.46V39.28H795.4V23.16"/><path id="path2503" class="cls-1" d="M811.21,29.45v-.08a.56.56,0,0,0-.23-.46,1,1,0,0,0-.59-.17H808a1,1,0,0,0-.75.27.76.76,0,0,0-.37.65v1.43Zm-4.3,5v.22a1,1,0,0,0,.22.68.51.51,0,0,0,.45.32h7.14v3.56h-7.59a5.23,5.23,0,0,1-1.61-.19,3,3,0,0,1-1.12-.67,3,3,0,0,1-.77-1.16,5.23,5.23,0,0,1-.21-1.64l0-7.14c0-2.16,1.16-3.25,3.38-3.29h4.68c2.16,0,3.25,1.17,3.29,3.41v2.82l-7.83,3.08"/><path id="path2505" class="cls-1" d="M822.09,39.27a7.07,7.07,0,0,1-1.44-.13,3.15,3.15,0,0,1-1.38-.65,3.32,3.32,0,0,1-1-1.39,4.67,4.67,0,0,1-.29-1.72V28.72a4.51,4.51,0,0,1,.16-1.43,3,3,0,0,1,.74-1.21,3.15,3.15,0,0,1,1.31-.83,6,6,0,0,1,1.48-.16H827v.83h-5.2a3.64,3.64,0,0,0-2.16.57,2.51,2.51,0,0,0-.82,2.12v6.66a4.45,4.45,0,0,0,.22,1.36,2.79,2.79,0,0,0,.73,1.14,2.72,2.72,0,0,0,1.13.54,5.34,5.34,0,0,0,1.23.13h5v.83h-5"/><path id="path2507" class="cls-1" d="M840.7,30.64h-7a2.68,2.68,0,0,0-2,.77,2.87,2.87,0,0,0-.73,2.08v2.13a4.36,4.36,0,0,0,.13,1.12,1.76,1.76,0,0,0,.65.95,3.07,3.07,0,0,0,2,.75H838c1.77,0,2.66-.95,2.66-2.8Zm.82,4.79a8.45,8.45,0,0,1-.11,1.42,3.17,3.17,0,0,1-.69,1.3A3.48,3.48,0,0,1,838,39.27h-4.15a3.65,3.65,0,0,1-2.62-1,3.4,3.4,0,0,1-1-2.64V33.52q.06-3.63,3.62-3.71h6.91v-.94a3.25,3.25,0,0,0-.67-2,2.07,2.07,0,0,0-1-.76,5.08,5.08,0,0,0-1.29-.15h-7.54v-.83h7.15a10.65,10.65,0,0,1,1.77.13,2.05,2.05,0,0,1,.76.32,2.31,2.31,0,0,1,.68.65,4.33,4.33,0,0,1,.94,2.85v6.39"/><path id="path2509" class="cls-1" d="M849.32,25.92c-1.93,0-2.88,1.09-2.85,3.17V39.27h-.83V29.09c0-2.67,1.24-4,3.82-4h.92v.83h-1.06"/><path id="path2511" class="cls-1" d="M863.38,25.92H856.8a5,5,0,0,0-1.28.16,2.23,2.23,0,0,0-1.15.73,2.38,2.38,0,0,0-.65,1.07,3.43,3.43,0,0,0-.16,1.3v6.49a2.4,2.4,0,0,0,.94,2.21,3.89,3.89,0,0,0,1,.41,5.05,5.05,0,0,0,1.28.15h2.87a4.29,4.29,0,0,0,2.63-.74,2.83,2.83,0,0,0,1-2.43Zm.83,9.41q-.12,4-4.27,4h-3.08a8.44,8.44,0,0,1-1.75-.17,3.22,3.22,0,0,1-1.52-1,3.12,3.12,0,0,1-.7-1.38,5.46,5.46,0,0,1-.17-1.55V29.16q.06-4.1,4.13-4.07h6.53v-4.6h.83V35.33"/><path id="path2513" class="cls-1" d="M706.26,24.64a4.37,4.37,0,0,1,.82-.27,5.27,5.27,0,0,1,10.32,0,3.8,3.8,0,0,1,1.93.93,8,8,0,0,0-.05-1.31,7.07,7.07,0,0,0-14.11.33,8.55,8.55,0,0,0,0,1,4.56,4.56,0,0,1,1.11-.7"/><path id="path2515" class="cls-1" d="M716.37,25.18h-8.48a3,3,0,0,0-1.26.29,3.44,3.44,0,0,0-1,.67,4.37,4.37,0,0,0-.81,2.77v6.63a4.37,4.37,0,0,0,.81,2.77,3.66,3.66,0,0,0,1,.68,3.1,3.1,0,0,0,1.26.28h8.48q3.28,0,3.34-3.59V28.77c0-2.38-1.15-3.57-3.34-3.59"/></svg>