<?xml version="1.0" encoding="utf-8"?>
<!-- Generator: Adobe Illustrator 25.2.3, SVG Export Plug-In . SVG Version: 6.00 Build 0)  -->
<svg version="1.1" id="Providers" xmlns="http://www.w3.org/2000/svg" xmlns:xlink="http://www.w3.org/1999/xlink" x="0px" y="0px"
	 viewBox="0 0 1200 60" style="enable-background:new 0 0 1200 60;" xml:space="preserve">
<style type="text/css">
	.st0{opacity:0.6;}
	.st1{fill:none;stroke:#000000;stroke-miterlimit:10;}
	.st2{stroke:#000000;stroke-miterlimit:10;}
	.st3{opacity:0.45;}
	.st4{opacity:0.8;}
	.st5{fill:none;}
</style>
<g>
	<path d="M123.2,46.6L123.2,46.6L123.2,46.6L123.2,46.6L123.2,46.6L123.2,46.6L123.2,46.6L123.2,46.6z M123.3,46.6L123.3,46.6
		L123.3,46.6l0.1,0.2h-0.1l0.1,0.1h-0.1l-0.1-0.1l0,0v0.1l0,0L123.3,46.6L123.3,46.6z M123.3,47.1L123.3,47.1h0.2l0.1-0.1v-0.1v-0.1
		l-0.1-0.1l-0.1-0.1h-0.1h-0.1c0,0-0.1,0-0.1,0.1l-0.1,0.1v0.1V47c0,0,0,0.1,0.1,0.1H123.3L123.3,47.1 M123.3,46.4
		c0.1,0,0.1,0,0.2,0c0,0,0.1,0,0.1,0.1l0.1,0.1c0,0,0,0.1,0,0.2c0,0,0,0.1,0,0.2h-0.1l-0.1,0.1h-0.2h-0.1c0,0-0.1,0-0.1-0.1
		l-0.1-0.1c0,0,0-0.1,0-0.2c0,0,0-0.1,0-0.2c0,0,0-0.1,0.1-0.1H123.3L123.3,46.4 M86.1,45.1c0-0.7,0.6-1.2,1.2-1.2
		c0.7,0,1.2,0.6,1.2,1.2c0,0.7-0.5,1.2-1.2,1.2C86.7,46.3,86.2,45.8,86.1,45.1L86.1,45.1 M89.4,45.1v-1.9h-0.9v0.5
		c-0.3-0.4-0.8-0.6-1.3-0.6c-1.1,0-2,0.9-2,2s0.9,2,2,2c0.5,0,0.9-0.2,1.3-0.6V47h0.9V45.1z M118.6,45.1c0-0.7,0.6-1.2,1.2-1.2
		s1.2,0.6,1.2,1.2c0,0.7-0.5,1.2-1.2,1.2C119.2,46.3,118.7,45.8,118.6,45.1L118.6,45.1 M121.9,45.1v-3.5H121v2
		c-0.3-0.4-0.8-0.6-1.3-0.6c-1.1,0-2,0.9-2,2s0.9,2,2,2c0.5,0,0.9-0.2,1.3-0.6v0.5h0.9V45.1z M100.1,43.8c0.5,0,1,0.4,1,0.9H99
		C99.1,44.1,99.6,43.7,100.1,43.8 M100.1,43c-1,0-1.9,0.8-2,1.8c0,0.1,0,0.1,0,0.2c0,1.1,0.8,2,1.8,2c0.1,0,0.1,0,0.2,0
		c0.6,0,1.2-0.2,1.6-0.5l-0.4-0.6c-0.3,0.2-0.7,0.4-1.2,0.4c-0.6,0.1-1.1-0.3-1.2-0.9h3c0-0.1,0-0.2,0-0.3c0.1-1-0.7-1.9-1.7-2
		C100.2,43.1,100.2,43.1,100.1,43 M110.6,45.1c0-0.7,0.5-1.2,1.2-1.2s1.2,0.5,1.2,1.2s-0.5,1.2-1.2,1.2l0,0
		C111.2,46.3,110.6,45.8,110.6,45.1L110.6,45.1 M113.8,45.1v-1.9h-0.9v0.5c-0.3-0.4-0.8-0.6-1.3-0.6c-1.1,0-2,0.9-2,2s0.9,2,2,2
		c0.5,0,1-0.2,1.3-0.6V47h0.9V45.1z M105.7,45.1c0,1.1,0.8,2,1.9,2c0.1,0,0.1,0,0.2,0c0.5,0,1-0.1,1.4-0.5l-0.4-0.7
		c-0.3,0.2-0.7,0.3-1.1,0.3c-0.7-0.1-1.2-0.7-1.1-1.3c0.1-0.6,0.5-1,1.1-1.1c0.4,0,0.8,0.1,1.1,0.3l0.4-0.7
		c-0.4-0.3-0.9-0.5-1.4-0.5c-1.1-0.1-2,0.7-2.1,1.8C105.7,44.9,105.7,45,105.7,45.1 M116.9,43.1c-0.4,0-0.8,0.2-1.1,0.6v-0.5H115V47
		h0.9v-2.1c0-0.6,0.3-1,0.8-1c0.2,0,0.4,0,0.5,0.1l0.3-0.8C117.3,43,117.1,43,116.9,43.1 M93.7,43.4c-0.5-0.3-1.1-0.4-1.6-0.4
		c-1,0-1.7,0.5-1.7,1.2s0.5,1,1.4,1.1l0.4,0.1c0.5,0.1,0.7,0.2,0.7,0.4s-0.3,0.5-0.9,0.5c-0.5,0-0.9-0.1-1.3-0.4l-0.4,0.6
		c0.5,0.3,1.1,0.5,1.7,0.5c1.1,0,1.8-0.5,1.8-1.2s-0.5-1.1-1.4-1.1L92,44.6c-0.4,0-0.7-0.1-0.7-0.4s0.3-0.5,0.8-0.5
		c0.4,0,0.9,0.1,1.2,0.3L93.7,43.4z M104.9,43c-0.4,0-0.8,0.2-1.1,0.6v-0.4h-0.9V47h0.9v-2.1c0-0.6,0.3-1,0.9-1c0.2,0,0.4,0,0.5,0.1
		l0.3-0.8C105.3,43,105.1,43,104.9,43 M97.5,43.1h-1.4V42h-0.9v1.1h-0.8v0.8h0.8v1.7c0,0.9,0.4,1.4,1.4,1.4c0.4,0,0.7-0.1,1.1-0.3
		L97.5,46c-0.2,0.1-0.5,0.2-0.8,0.2c-0.4,0-0.6-0.3-0.6-0.6v-1.7h1.4V43.1z M84.5,46.9v-2.4c0-0.8-0.6-1.5-1.4-1.5
		c-0.1,0-0.1,0-0.2,0c-0.6,0-1.1,0.2-1.4,0.7c-0.3-0.4-0.8-0.7-1.3-0.7s-0.9,0.2-1.2,0.6V43h-0.8v3.8h0.9v-2.1c-0.1-0.5,0.3-1,0.8-1
		c0.1,0,0.1,0,0.2,0c0.6,0,0.9,0.4,0.9,1v2.1h0.8v-2.1c-0.1-0.5,0.3-1,0.8-1c0.1,0,0.1,0,0.2,0c0.6,0,0.9,0.4,0.9,1v2.1
		C83.7,46.8,84.5,46.8,84.5,46.9z"/>
	<path d="M123.8,34.3v-0.6h-0.2l-0.2,0.4l-0.2-0.4H123v0.6h0.1v-0.4l0.2,0.4h0.1l0.2-0.4v0.4H123.8z M122.8,34.3v-0.5h0.2v-0.1h-0.5
		v0.1h0.2L122.8,34.3L122.8,34.3z"/>
	<g class="st0">
		<path d="M94.2,25.4c0-4.4,2.2-8.6,5.7-11.2c-2.7-2-5.9-3.1-9.3-3.1c-8.3,0-15,6.4-15,14.3s6.7,14.3,15,14.3c3.3,0,6.6-1,9.3-3
			C96.4,34,94.3,29.9,94.2,25.4"/>
	</g>
	<g class="st0">
		<path d="M124.2,25.4c0,7.9-6.7,14.3-15,14.3c-3.3,0-6.6-1.1-9.2-3.1c6.2-4.5,7.6-13.2,3.2-19.4c-0.9-1.2-1.9-2.3-3.2-3.2
			c2.7-2,5.9-3.1,9.3-3.1C117.6,11.1,124.3,17.5,124.2,25.4"/>
	</g>
	<path d="M100,36.7c-6.2-4.5-7.6-13.3-3-19.5c0.9-1.2,1.9-2.2,3-3c6.2,4.5,7.6,13.3,3,19.5C102.2,34.8,101.2,35.8,100,36.7z"/>
</g>
<g>
	<path class="st1" d="M697.4,33.8c-1.6,6.5-8.1,10.4-14.6,8.8s-10.4-8.1-8.8-14.5s8.1-10.4,14.6-8.8S699,27.4,697.4,33.8L697.4,33.8
		z"/>
	<path d="M691,29.2c0.2-1.6-1-2.5-2.7-3l0.5-2.2l-1.3-0.3l-0.5,2.1c-0.3-0.1-0.7-0.2-1.1-0.2l0.5-2.1l-1.3-0.3l-0.5,2.2l-0.9-0.2
		l0,0l-1.7-0.5l-0.4,1.3c0,0,1,0.2,0.9,0.2c0.4,0.1,0.6,0.4,0.6,0.8l-0.6,2.5l0.2,0.1h-0.1l-0.9,3.4c-0.1,0.2-0.3,0.4-0.6,0.3l0,0
		l-0.9-0.2l-0.6,1.5l1.7,0.4l0.9,0.2l-0.5,2.2l1.3,0.3l0.5-2.2l1,0.2l-0.5,2.1l1.3,0.3l0.5-2.2c2.3,0.4,3.9,0.2,4.7-1.8
		c0.6-1.2,0.2-2.5-1-3.1c-0.1-0.1-0.2-0.1-0.2-0.1C690.3,31,690.9,30.2,691,29.2L691,29.2z M688,33.5c-0.4,1.6-3.2,0.8-4.1,0.5
		l0.7-2.9C685.5,31.3,688.4,31.7,688,33.5L688,33.5z M688.4,29.2c-0.4,1.5-2.7,0.7-3.4,0.5l0.6-2.7
		C686.4,27.3,688.8,27.7,688.4,29.2L688.4,29.2z"/>
	<path d="M709,26.2c0.9,0,1.7,0.2,2.5,0.5c0.7,0.3,1.3,0.8,1.8,1.4s0.9,1.3,1,2.1c0.2,0.9,0.3,1.6,0.3,2.5c0,1.3-0.2,2.7-0.8,4
		c-0.5,1.3-1.3,2.3-2.1,3.3c-0.9,0.9-2,1.6-3.2,2.2c-1.3,0.5-2.6,0.9-4,0.9h-0.9c-0.5,0-1-0.1-1.6-0.2c-0.6-0.1-1.3-0.2-1.9-0.4
		c-0.6-0.2-1.3-0.4-1.9-0.7l5.2-22.1l4.7-0.7l-1.9,7.8c0.4-0.2,0.8-0.3,1.3-0.4C708.1,26.3,708.5,26.2,709,26.2L709,26.2z M705,39.2
		c0.7,0,1.4-0.2,2-0.5s1.2-0.8,1.6-1.4c0.5-0.6,0.9-1.3,1.1-2c0.2-0.7,0.4-1.5,0.4-2.3c0.1-0.8-0.2-1.6-0.5-2.3
		c-0.4-0.6-1.1-0.9-1.8-0.9c-0.4,0-0.8,0.1-1.1,0.2c-0.5,0.1-0.9,0.3-1.3,0.6l-2,8.4l0.3,0.1h0.3c0.2,0,0.2,0,0.4,0L705,39.2z"/>
	<path d="M719.6,42.5h-4.5l3.8-16h4.5L719.6,42.5z M721.7,24.5c-0.6,0-1.2-0.2-1.6-0.5c-0.5-0.4-0.8-1-0.8-1.7
		c0-0.4,0.1-0.9,0.2-1.2c0.2-0.4,0.4-0.7,0.7-0.9c0.3-0.3,0.6-0.5,1-0.6s0.8-0.2,1.2-0.2c0.6,0,1.2,0.2,1.6,0.5
		c0.5,0.4,0.8,1,0.8,1.7c0,0.4-0.1,0.9-0.2,1.2c-0.2,0.4-0.4,0.7-0.7,0.9c-0.3,0.3-0.6,0.5-1,0.6S722.1,24.6,721.7,24.5z"/>
	<path d="M727.3,22.5l4.7-0.7l-1.2,4.7h5l-0.9,3.8h-5l-1.3,5.6c-0.2,0.4-0.2,0.9-0.2,1.3c0,0.4,0,0.7,0.2,1s0.4,0.5,0.6,0.7
		c0.4,0.2,0.9,0.3,1.3,0.2c0.5,0,0.9-0.1,1.4-0.2s0.9-0.2,1.4-0.4l0.3,3.4c-0.6,0.2-1.3,0.4-2,0.5c-0.9,0.2-1.6,0.2-2.5,0.2
		c-1.1,0.1-2.2-0.2-3.2-0.6c-0.7-0.4-1.3-0.9-1.6-1.6c-0.3-0.8-0.5-1.6-0.4-2.5c0.1-1,0.2-2,0.4-3L727.3,22.5L727.3,22.5z"/>
	<path d="M735.7,36.2c0-1.3,0.2-2.7,0.7-3.9c0.4-1.2,1.1-2.3,2-3.2c0.9-0.9,1.9-1.6,3-2.2c1.3-0.5,2.6-0.8,4-0.8
		c0.9,0,1.6,0.1,2.4,0.2c0.7,0.2,1.3,0.4,2,0.7l-1.6,3.5c-0.4-0.2-0.9-0.3-1.3-0.5c-0.5-0.2-1.1-0.2-1.6-0.2
		c-1.3-0.1-2.7,0.5-3.6,1.6c-0.9,1.2-1.4,2.7-1.3,4.2c-0.1,0.9,0.2,1.8,0.7,2.5c0.6,0.7,1.6,1.1,2.5,0.9c0.5,0,1.1-0.1,1.6-0.2
		c0.5-0.1,1-0.2,1.5-0.5l0.3,3.6c-0.6,0.2-1.3,0.5-1.9,0.6c-0.8,0.2-1.6,0.3-2.5,0.2c-1.1,0-2.2-0.2-3.2-0.5
		c-0.8-0.3-1.6-0.9-2.2-1.5c-0.5-0.6-1-1.4-1.3-2.2C735.9,37.9,735.7,37,735.7,36.2L735.7,36.2z"/>
	<path d="M755.8,43c-0.9,0-1.9-0.2-2.8-0.5c-0.8-0.3-1.4-0.8-2-1.4c-0.5-0.6-0.9-1.3-1.2-2.1c-0.3-0.9-0.4-1.8-0.4-2.7
		c0-1.3,0.2-2.5,0.6-3.7c0.4-1.2,0.9-2.3,1.7-3.3s1.7-1.8,2.8-2.4c1.2-0.6,2.5-0.9,3.8-0.9c0.9,0,1.9,0.2,2.8,0.5
		c0.8,0.3,1.4,0.8,2,1.3c0.5,0.6,0.9,1.3,1.2,2.1c0.3,0.9,0.4,1.8,0.4,2.7c0,1.3-0.2,2.5-0.5,3.7c-0.4,1.2-0.9,2.3-1.6,3.3
		c-0.8,0.9-1.7,1.8-2.8,2.3C758.5,42.7,757.2,43,755.8,43z M758,29.9c-0.6,0-1.3,0.2-1.8,0.5c-0.5,0.4-0.9,0.9-1.3,1.5
		c-0.4,0.6-0.6,1.3-0.8,2c-0.2,0.6-0.2,1.3-0.2,2c-0.1,0.8,0.2,1.6,0.5,2.3c0.4,0.6,1.1,0.9,1.8,0.9c0.6,0,1.3-0.2,1.8-0.5
		c0.5-0.4,0.9-0.9,1.3-1.5c0.3-0.6,0.6-1.3,0.8-2c0.2-0.6,0.2-1.3,0.2-2c0.1-0.8-0.2-1.6-0.5-2.3C759.4,30.2,758.7,29.9,758,29.9z"
		/>
	<path d="M769.7,42.5h-4.5l3.8-16h4.5L769.7,42.5z M771.9,24.5c-0.6,0-1.2-0.2-1.6-0.5c-0.5-0.4-0.8-1-0.8-1.7
		c0-0.4,0.1-0.9,0.2-1.2c0.2-0.4,0.4-0.7,0.7-0.9c0.3-0.3,0.6-0.5,1-0.6s0.8-0.2,1.2-0.2c0.6,0,1.2,0.2,1.6,0.5
		c0.5,0.4,0.8,1.1,0.8,1.7c0,0.4-0.1,0.9-0.2,1.2c-0.2,0.4-0.4,0.7-0.7,0.9c-0.3,0.3-0.6,0.5-1,0.6
		C772.7,24.5,772.3,24.6,771.9,24.5z"/>
	<path d="M776.8,27.3l1.2-0.4c0.5-0.2,0.9-0.2,1.4-0.4c0.5-0.2,1.2-0.2,1.7-0.3c0.7-0.1,1.5-0.1,2.2-0.1c2.3,0,4,0.7,4.9,2.1
		s1.1,3.3,0.5,5.6l-2.1,8.7h-4.5l2-8.4c0.2-0.5,0.2-1,0.3-1.6c0.1-0.5,0.1-0.9,0-1.3c-0.1-0.4-0.3-0.7-0.5-0.9
		c-0.4-0.2-0.9-0.4-1.3-0.3c-0.6,0-1.2,0.1-1.8,0.2l-3,12.4h-4.5L776.8,27.3z"/>
</g>
<g>
	<path d="M940,30c0,8.2-6.4,14.6-14.5,14.6C918,44.6,911,38.8,911,30c-0.1-7.9,6.6-14.5,14.5-14.5C933.4,15.3,940,21.9,940,30z
		 M925.6,37.9c1.6,0,3.1,0,4.7,0c2,0,1.9,0,2.4-2c0.2-0.9-0.1-1.3-1-1.3c-1.3,0-2.6,0-3.9,0c-3,0-2.9,0-2.2-2.9
		c0.2-0.9,0.5-1.4,1.4-1.6s1.2-0.8,1.4-1.6s0-1.1-0.8-0.7c-0.9,0.4-1,0-0.8-0.8c0.4-1.3,0.7-2.7,1.1-4.1c0.2-0.8,0-1.2-0.9-1.2
		s-1.9,0-2.7,0c-0.9-0.1-1.3,0.3-1.4,1.2c-0.5,2.1-1.1,4.2-1.6,6.3c-0.2,0.7-0.5,1.2-1.2,1.3c-0.9,0.2-1.2,0.9-1.3,1.6
		c-0.2,0.6-0.2,1,0.6,0.7s0.9,0.2,0.7,0.8c-0.2,0.9-0.5,2-0.8,2.9c-0.2,0.9,0,1.2,0.9,1.2C922,37.9,923.8,37.9,925.6,37.9z"/>
	<path d="M969,34.7c-1.5,0-3,0-4.5,0c-1.1,0-1.2,0.2-0.7,1.3c1.4,3,5.6,3.5,7.8,1.1c0.2-0.2,0.5-0.7,0.9-0.6
		c0.5,0.1,1.3-0.1,1.6,0.5c0.2,0.5-0.2,0.9-0.5,1.3c-2.5,3-6.8,3.4-9.9,1.1c-2.8-2.1-3.4-6.9-1.3-10c2-2.9,6.3-3.8,9.5-1.8
		c2.3,1.4,3,3.7,3,6.2c0,0.8-0.5,0.9-1.2,0.9C972.1,34.7,970.6,34.7,969,34.7L969,34.7z M968,32.6c1.2,0,2.3,0,3.4,0
		c0.9,0.1,1.2-0.3,0.9-1.2c-0.6-1.6-2.3-2.7-4.3-2.7s-3.8,1.3-4.3,2.9c-0.2,0.8,0,1,0.7,0.9C965.6,32.5,966.7,32.5,968,32.6z"/>
	<path d="M996.2,40.7c-4.2,0-7.1-3-7-7.2c0-4.1,3-7.1,7.3-7c4.1,0,7,3,7,7.3C1003.4,37.9,1000.5,40.8,996.2,40.7z M996.2,38.6
		c2.9,0,5-2.1,5.1-5c0-2.8-2.1-4.8-5-4.8c-2.8,0-4.9,2-5,4.8C991.2,36.3,993.4,38.6,996.2,38.6z"/>
	<path d="M1011.2,33.6c0-1.8,0-3.7,0-5.5c0-0.5-0.1-1.2,0.7-1.2c0.6,0,1.3-0.2,1.6,0.7c0.2,0.9,0.6,0.2,0.9,0
		c1.9-1.3,3.8-1.5,5.9-0.5s2.7,2.9,2.9,5c0.2,2.4,0,4.9,0.1,7.3c0,0.9-0.4,1.1-1.2,1.1s-1.1-0.3-1.1-1.1c0-2.3,0-4.5,0-6.8
		c0-2.6-1.1-3.9-3.2-3.9c-2.4,0-4.1,1.6-4.1,3.9c-0.1,2.1,0,4.3,0,6.4c0,0.9-0.2,1.4-1.2,1.4c-1.1,0-1.1-0.6-1.1-1.4
		C1011.2,37.2,1011.2,35.4,1011.2,33.6z"/>
	<path d="M983.6,40.7c-3.4,0-5.9-1.7-7-4.7c-0.9-3,0-6.3,2.2-8c2.7-2,6.2-2,8.8-0.3c0.5,0.3,0.9,0.6,0.5,1.3
		c-0.4,0.5-0.8,1.1-1.6,0.6c-0.9-0.6-2-0.9-3-0.9c-2,0.1-3.7,0.9-4.5,2.8c-0.9,2-0.5,3.8,0.9,5.5c1.3,1.4,3.5,2,5.4,1.3
		c0.4-0.2,0.7-0.3,1-0.5c0.9-0.6,1.5,0,1.9,0.6c0.5,0.9-0.3,1-0.8,1.3C986.1,40.4,984.8,40.8,983.6,40.7z"/>
	<path d="M955.4,34.4c0-1.5,0-3,0-4.5c0-0.9-0.2-1.3-1.2-1.3c-0.7,0.1-1.2-0.1-1.2-0.9c0-0.9,0.5-1.2,1.3-1.1
		c0.9,0.1,1.2-0.5,1.2-1.3c0-0.9,0-1.7,0-2.7c0-0.9,0.4-1.2,1.2-1.2s1.1,0.3,1.1,1.1c0,0.9,0.1,1.8,0,2.7c-0.1,1,0.4,1.4,1.3,1.3
		c0.5,0,1.2-0.2,1.4,0.6c0.3,0.9-0.1,1.4-1.1,1.5c-1.6,0.1-1.6,0.1-1.6,1.8c0,2.8,0,5.6,0,8.4c0,0.8,0.2,1.6-1.2,1.6
		c-1.3,0-1.1-0.9-1.1-1.6C955.4,37.4,955.4,35.9,955.4,34.4z"/>
	<path d="M943.8,29.8c0-3,0-6.1,0-9.1c0-0.8,0.1-1.3,1.1-1.3s1.1,0.6,1.1,1.4c0,6.2,0,12.3,0,18.5c0,0.8-0.1,1.3-1.1,1.3
		s-1.1-0.6-1.1-1.3C943.8,36,943.8,32.9,943.8,29.8z"/>
	<path d="M951.5,33.6c0,1.9,0,3.8,0,5.6c0,0.8-0.2,1.2-1.1,1.3c-0.9,0-1.3-0.4-1.2-1.3c0-3.8,0-7.5,0-11.3c0-0.8,0.2-1.2,1.1-1.3
		c0.9,0,1.3,0.4,1.2,1.3C951.4,29.9,951.5,31.8,951.5,33.6z"/>
	<path d="M1008,33.6c0,1.9,0,3.8,0,5.6c0,0.8-0.2,1.3-1.1,1.3s-1.1-0.5-1.1-1.3c0-3.8,0-7.5,0-11.3c0-0.8,0.2-1.3,1.1-1.3
		s1.1,0.5,1.1,1.3C1008,29.9,1008,31.8,1008,33.6z"/>
	<path d="M1008.6,21.8c0,0.9-0.6,1.5-1.6,1.5c-0.9,0-1.6-0.5-1.6-1.4s0.5-1.6,1.5-1.6C1007.8,20.2,1008.5,20.9,1008.6,21.8z"/>
	<path d="M950.3,20.3c0.8,0,1.6,0.7,1.6,1.5c0,0.9-0.7,1.5-1.6,1.5s-1.6-0.6-1.6-1.5C948.8,21,949.5,20.3,950.3,20.3z"/>
</g>
<g>
	<path class="st2" d="M831.6,33.1c0,0.2-0.2,0.3-0.3,0.3h-5.7c0.2,1.4,1.2,2.7,2.7,2.7c1,0,1.7-0.4,2.3-1.2c0.1-0.1,0.2-0.2,0.4-0.1
		c0.1,0,0.2,0.1,0.2,0.2c0,0.1,0,0.2,0,0.2c-0.5,1-1.7,1.5-2.8,1.5c-1.9,0-3.2-1.7-3.2-3.5s1.3-3.5,3.2-3.5
		C830.3,29.6,831.6,31.3,831.6,33.1 M831,32.8c-0.2-1.4-1.2-2.7-2.7-2.7s-2.5,1.3-2.7,2.7H831z M838.4,29.7c0.2,0,0.3,0.2,0.3,0.3
		s-0.2,0.3-0.3,0.3h-1.5v5.9c0,0.2-0.2,0.3-0.3,0.3s-0.3-0.2-0.3-0.3v-5.9h-1.4c-0.2,0-0.3-0.2-0.3-0.3c0-0.2,0.2-0.3,0.3-0.3h1.4
		v-2.2c0-0.2,0.1-0.2,0.2-0.3c0.2,0,0.3,0.1,0.3,0.3v2.2L838.4,29.7L838.4,29.7z M847.6,32.6v3.6c0,0.2-0.2,0.3-0.3,0.3
		s-0.3-0.2-0.3-0.3v-3.6c0-1.2-0.7-2.4-2-2.4c-1.7,0-2.5,1.5-2.3,3c0,0.1,0,0.2,0,0.2v2.7c0,0.2-0.1,0.2-0.2,0.3
		c-0.2,0-0.3-0.1-0.3-0.3V24.4c0-0.2,0.2-0.3,0.3-0.3s0.3,0.2,0.3,0.3V31c0.5-0.9,1.3-1.4,2.3-1.4C846.7,29.6,847.6,31,847.6,32.6
		 M857.7,33.1c0,0.2-0.2,0.3-0.3,0.3h-5.6c0.2,1.4,1.2,2.7,2.7,2.7c1,0,1.7-0.4,2.3-1.2c0.1-0.1,0.2-0.2,0.4-0.1
		c0.1,0,0.2,0.1,0.2,0.2c0,0.1,0,0.2,0,0.2c-0.5,1-1.7,1.5-2.8,1.5c-1.9,0-3.2-1.7-3.2-3.5s1.3-3.5,3.2-3.5
		C856.3,29.6,857.6,31.3,857.7,33.1 M857.1,32.8c-0.2-1.4-1.2-2.7-2.7-2.7s-2.5,1.3-2.7,2.7H857.1z M864.6,30c0,0.2-0.1,0.3-0.2,0.3
		c-1.6,0.2-2.4,1.6-2.4,3.1v2.7c0,0.2-0.1,0.2-0.2,0.3c-0.2,0-0.3-0.1-0.3-0.3V30c0-0.2,0.1-0.2,0.2-0.3c0.2,0,0.3,0.1,0.3,0.3v1.3
		c0.5-0.8,1.4-1.6,2.3-1.6C864.4,29.7,864.6,29.8,864.6,30 M873.8,33.1c0,0.2-0.2,0.3-0.3,0.3h-5.6c0.2,1.4,1.2,2.7,2.7,2.7
		c1,0,1.7-0.4,2.3-1.2c0.1-0.1,0.2-0.2,0.4-0.1c0.1,0,0.2,0.1,0.2,0.2c0,0.1,0,0.2,0,0.2c-0.5,1-1.7,1.5-2.8,1.5
		c-1.9,0-3.2-1.7-3.2-3.5s1.3-3.5,3.2-3.5C872.4,29.6,873.8,31.3,873.8,33.1 M873.2,32.8c-0.2-1.4-1.2-2.7-2.7-2.7s-2.5,1.3-2.7,2.7
		H873.2z M882.9,30.1v6.1c0,0.2-0.2,0.3-0.3,0.3s-0.3-0.2-0.3-0.3V35c-0.5,0.9-1.3,1.6-2.3,1.6c-1.6,0-2.6-1.4-2.6-3V30
		c0-0.2,0.2-0.3,0.3-0.3s0.3,0.2,0.3,0.3v3.6c0,1.2,0.7,2.4,2,2.4c1.9,0,2.3-1.8,2.3-3.8V30c0-0.2,0.2-0.3,0.4-0.2
		C882.8,29.8,882.9,29.9,882.9,30.1 M897,32.6v3.6c0,0.2-0.2,0.3-0.3,0.3c-0.2,0-0.3-0.2-0.3-0.3v-3.6c0-1.2-0.7-2.4-2-2.4
		c-1.7,0-2.3,1.8-2.3,3.2v2.7c0,0.2-0.2,0.3-0.3,0.3s-0.3-0.2-0.3-0.3v-3.6c0-1.2-0.7-2.4-2-2.4c-1.7,0-2.4,1.3-2.3,3.1
		c0,0.1,0,0.2,0,0.2v2.7c0,0.2-0.1,0.2-0.2,0.3c-0.2,0-0.3-0.1-0.3-0.3v-6.2c0-0.2,0.1-0.2,0.2-0.3c0.2,0,0.3,0.1,0.3,0.3v1
		c0.5-0.9,1.3-1.4,2.3-1.4c1.2,0,2,0.7,2.4,1.8c0.5-1,1.3-1.8,2.5-1.8C896.1,29.6,897,31,897,32.6"/>
	<g class="st0">
		<g>
			<path d="M810.8,28.1l-9.4,4.3l9.4,5.6l9.4-5.6L810.8,28.1z"/>
		</g>
	</g>
	<g class="st3">
		<g>
			<path d="M801.4,32.3l9.4,5.6V16.7L801.4,32.3z"/>
		</g>
	</g>
	<g class="st4">
		<g>
			<path d="M810.8,16.7v21.1l9.4-5.6L810.8,16.7z"/>
		</g>
	</g>
	<g class="st3">
		<g>
			<path d="M801.4,34.1l9.4,13.2v-7.7L801.4,34.1z"/>
		</g>
	</g>
	<g class="st4">
		<g>
			<path d="M810.8,39.6v7.7l9.4-13.2L810.8,39.6z"/>
		</g>
	</g>
</g>
<g>
	<g>
		<path d="M1070,30c-0.2-0.1-0.7-0.2-1.2-0.2c-1.4,0-3,1.2-3,2.6v6.8h-3.3v-12h3.1v1.3c0.7-0.9,2-1.5,3.5-1.5c0.5,0,0.8,0.1,1.1,0.1
			L1070,30z"/>
		<path d="M1073.7,20.8c1.2,0,2.1,0.9,2.1,2.1s-0.9,2-2.1,2s-2.1-0.9-2.1-2.1C1071.6,21.6,1072.5,20.8,1073.7,20.8z M1075.3,39.3
			h-3.3V27.2h3.3V39.3z"/>
		<path d="M1084.9,26.9c-1.4,0-2.6,0.5-3.5,1.3v-1h-3.1v18.1h3.3v-6.9c1,0.8,2,1.1,3.3,1.1c1.8,0,3.5-0.8,4.6-2
			c0.9-1.1,1.6-2.6,1.6-4.2C1090.9,29.7,1088.2,26.9,1084.9,26.9z M1084.6,36.6c-2,0-3.4-1.4-3.4-3.4s1.3-3.4,3.4-3.4
			c1.7,0,3.1,1.5,3.1,3.4S1086.3,36.6,1084.6,36.6z"/>
		<path d="M1110.7,39.3h-3.3V21.5h3.3V39.3z"/>
		<path d="M1124,37.3c-1.2,1.4-3.1,2.2-5,2.2c-3.6,0-6.3-2.5-6.3-6.3c0-3.4,2.3-6.3,5.9-6.3c3.4,0,5.7,2.8,5.7,6.2
			c0,0.3,0,0.6-0.1,0.9h-8.4c0.2,1.7,1.6,2.9,3.3,2.9c1.4,0,2.5-0.8,3-1.4L1124,37.3z M1120.9,31.6c-0.1-1.1-1.1-2.1-2.4-2.1
			s-2.4,1-2.6,2.1H1120.9z"/>
		<path d="M1099.6,26.9c-1.4,0-2.6,0.5-3.5,1.3v-1h-3.1v18.1h3.3v-6.9c1,0.8,2,1.1,3.3,1.1c1.8,0,3.5-0.8,4.6-2
			c0.9-1.1,1.6-2.6,1.6-4.2C1105.5,29.7,1102.9,26.9,1099.6,26.9z M1099.2,36.6c-2,0-3.4-1.4-3.4-3.4s1.3-3.4,3.4-3.4
			c1.7,0,3.1,1.5,3.1,3.4S1100.9,36.6,1099.2,36.6z"/>
	</g>
	<g>
		<path d="M1055.9,34.8c-0.7-0.4-1.6-0.5-2.3-0.5c-0.7,0-1.7-0.5-1.7-1.7c0-0.9,0.8-1.7,1.7-1.7c0.8,0,1.6-0.2,2.3-0.5
			c1.3-0.8,2.2-2.2,2.2-3.8c0-1.6-0.9-3-2.2-3.8c-1.3-0.8-3-0.8-4.4,0c-1.3,0.8-2.2,2.2-2.2,3.8c0,0.9,0.3,1.6,0.7,2.3
			c0.3,0.6,0.5,1.7-0.6,2.3c-0.8,0.5-1.9,0.2-2.3-0.6c-0.5-0.7-0.9-1.3-1.7-1.7c-1.3-0.8-3-0.8-4.4,0c-1.3,0.8-2.2,2.2-2.2,3.8
			s0.9,3,2.2,3.8c1.3,0.8,3,0.8,4.4,0c0.7-0.4,1.3-1.1,1.6-1.7c0.4-0.5,1.3-1.3,2.3-0.6c0.8,0.5,1.1,1.5,0.6,2.3
			c-0.4,0.7-0.7,1.5-0.7,2.3c0,1.6,0.9,3,2.2,3.8c1.3,0.8,3,0.8,4.4,0c1.3-0.8,2.2-2.2,2.2-3.8C1058.1,37.1,1057.3,35.6,1055.9,34.8
			z"/>
	</g>
</g>
<g id="g6321" transform="translate(-9.4000001,96.810998)">
	<g id="g6323" transform="matrix(1.8215159,0,0,1.8215159,-8.5437653,-109.83667)">
		<path id="path6325" class="st5" d="M117.5,30.6c0,2.7-2.2,4.8-4.8,4.8H86.5v-19c0-2.7,2.2-4.8,4.8-4.8h26.2V30.6L117.5,30.6z"/>
		<g id="g6327">
			<path id="path6338" d="M108.9,25.7h2c0.1,0,0.2,0,0.2,0c0.4-0.1,0.7-0.4,0.7-0.9s-0.3-0.8-0.7-0.9c-0.1,0-0.2,0-0.2,0h-2V25.7
				L108.9,25.7z"/>
			<path id="path6349" d="M110.7,13.2c-1.9,0-3.5,1.5-3.5,3.5v3.6h4.9c0.1,0,0.2,0,0.3,0c1.1,0.1,1.9,0.6,1.9,1.6
				c0,0.8-0.5,1.4-1.6,1.6l0,0c1.1,0.1,2,0.7,2,1.7s-0.9,1.7-2.2,1.7h-5.3v7h5.1c1.9,0,3.5-1.5,3.5-3.5V13.2H110.7L110.7,13.2z"/>
			<path id="path6360" d="M111.6,22.1c0-0.5-0.3-0.8-0.7-0.8c0,0-0.1,0-0.2,0h-1.8V23h1.8c0.1,0,0.2,0,0.2,0
				C111.3,22.8,111.6,22.5,111.6,22.1z"/>
		</g>
		<path id="path6371" d="M91.6,13.2c-1.9,0-3.5,1.5-3.5,3.5v8.5c1,0.5,2,0.8,3,0.8c1.2,0,1.8-0.7,1.8-1.7v-4h3v4
			c0,1.6-1,2.8-4.2,2.8c-2,0-3.5-0.4-3.5-0.4V34h5.1c1.9,0,3.5-1.5,3.5-3.5V13.2C96.7,13.2,91.6,13.2,91.6,13.2z"/>
		<path id="path6384" d="M101.2,13.2c-1.9,0-3.5,1.5-3.5,3.5v4.5c0.9-0.7,2.4-1.2,4.8-1.1c1.3,0.1,2.7,0.4,2.7,0.4V22
			c-0.7-0.4-1.5-0.7-2.6-0.8c-1.9-0.1-3,0.8-3,2.4s1.1,2.5,3,2.4c1.1-0.1,1.9-0.4,2.6-0.8v1.5c0,0-1.4,0.4-2.7,0.4
			c-2.4,0.1-4-0.4-4.8-1.1v8h5.1c1.9,0,3.5-1.5,3.5-3.5V13.2C106.2,13.2,101.2,13.2,101.2,13.2z"/>
	</g>
	<g id="g6386">
	</g>
</g>
<g id="layer1" transform="translate(-55.5,-1002.3452)">
	<path d="M310.7,1041.8h-16l-1-1.2v1.2h-3.2v-2c0,0-0.4,0.3-1.4,0.3H288v1.7h-4.8l-0.9-1.1l-0.9,1.1h-7.9v-7.5h8l0.9,1.1l0.9-1.1
		h28.8l0.1-0.1v-25.9h-48v20.3l1.8-4.2h3.1l1,2.3v-2.3h3.9l0.6,1.7l0.6-1.7h17.4v0.9c0,0,0.9-0.9,2.4-0.9h5.6l1,2.3v-2.3h3.2
		l0.9,1.3v-1.3h3.3v7.5h-3.3l-0.9-1.3v1.3H300l-0.5-1.2h-1.3l-0.5,1.2h-3.2c-1.3,0-2.1-0.8-2.1-0.8v0.8h-4.9l-1-1.2v1.2h-17.9
		l-0.5-1.2h-1.3l-0.5,1.2h-2.1v24.4h48v-14.9C312,1041.5,311.3,1041.8,310.7,1041.8z"/>
	<path id="path3046" d="M266.6,1025.3l-2.4,5.6h1.6l0.4-1.1h2.6l0.4,1.1h1.6l-2.4-5.6H266.6L266.6,1025.3z M267.5,1026.6l0.8,2h-1.6
		L267.5,1026.6z"/>
	<path id="path3048" d="M271.1,1031v-5.6h2.2l1.3,3.6l1.3-3.6h2.2v5.6h-1.4v-4.2l-1.5,4.2H274l-1.5-4.2v4.2H271.1z"/>
	<path id="path3050" d="M279.1,1031v-5.6h4.6v1.3h-3.2v1h3.1v1.2h-3.1v1h3.2v1.2L279.1,1031L279.1,1031z"/>
	<path id="path3052" d="M284.5,1025.3v5.6h1.4v-2h0.6l1.7,2h1.7l-1.9-2.1c0.8-0.1,1.5-0.7,1.5-1.7c0-1.2-0.9-1.8-2-1.8H284.5
		L284.5,1025.3z M285.9,1026.6h1.6c0.4,0,0.7,0.3,0.7,0.6c0,0.4-0.4,0.6-0.6,0.6H286v-1.2H285.9z"/>
	<path id="path3054" d="M291.6,1031h-1.4v-5.6h1.4V1031z"/>
	<path id="path3056" d="M295,1031h-0.3c-1.5,0-2.4-1.2-2.4-2.8c0-1.7,0.9-2.8,2.8-2.8h1.6v1.3h-1.6c-0.8,0-1.3,0.6-1.3,1.5
		c0,1.1,0.6,1.6,1.5,1.6h0.4L295,1031z"/>
	<path id="path3058" d="M298.1,1025.3l-2.4,5.6h1.6l0.4-1.1h2.6l0.4,1.1h1.6l-2.4-5.6H298.1L298.1,1025.3z M299,1026.6l0.8,2h-1.6
		L299,1026.6L299,1026.6z"/>
	<path id="path3060" d="M302.5,1031v-5.6h1.8l2.3,3.5v-3.5h1.4v5.6h-1.7l-2.3-3.6v3.6H302.5z"/>
	<path id="path3062" d="M274.5,1040.8v-5.6h4.6v1.3h-3.2v1h3.1v1.2h-3.1v1h3.2v1.2L274.5,1040.8L274.5,1040.8z"/>
	<path id="path3064" d="M297,1040.8v-5.6h4.6v1.3h-3.2v1h3.1v1.2h-3.1v1h3.2v1.2L297,1040.8L297,1040.8z"/>
	<path id="path3066" d="M279.3,1040.8l2.2-2.8l-2.3-2.9h1.8l1.4,1.8l1.4-1.8h1.7l-2.3,2.8l2.2,2.8h-1.8l-1.3-1.7l-1.3,1.7
		L279.3,1040.8L279.3,1040.8z"/>
	<path id="path3068" d="M285.6,1035.2v5.6h1.4v-1.8h1.5c1.3,0,2.2-0.7,2.2-2c0-1.1-0.7-1.9-2-1.9h-3.1V1035.2z M287,1036.5h1.6
		c0.4,0,0.7,0.2,0.7,0.6s-0.3,0.6-0.7,0.6H287V1036.5L287,1036.5z"/>
	<path id="path3072" d="M291.3,1035.2v5.6h1.4v-2h0.6l1.7,2h1.7l-1.9-2.1c0.8-0.1,1.5-0.7,1.5-1.7c0-1.2-0.9-1.8-2-1.8H291.3
		L291.3,1035.2z M292.7,1036.4h1.6c0.4,0,0.7,0.3,0.7,0.6c0,0.4-0.4,0.6-0.6,0.6h-1.6v-1.2H292.7z"/>
	<path id="path3074" d="M302.3,1040.8v-1.2h2.8c0.4,0,0.6-0.2,0.6-0.5c0-0.2-0.2-0.5-0.6-0.5h-1.3c-1.1,0-1.7-0.7-1.7-1.7
		c0-0.9,0.6-1.8,2.2-1.8h2.7l-0.6,1.3H304c-0.5,0-0.6,0.2-0.6,0.5c0,0.2,0.2,0.5,0.5,0.5h1.3c1.2,0,1.8,0.7,1.8,1.6
		c0,1-0.6,1.8-1.8,1.8L302.3,1040.8L302.3,1040.8z"/>
	<path id="path3076" d="M307.5,1040.8v-1.2h2.8c0.4,0,0.6-0.2,0.6-0.5c0-0.2-0.2-0.5-0.6-0.5H309c-1.1,0-1.7-0.7-1.7-1.7
		c0-0.9,0.6-1.8,2.2-1.8h2.7l-0.6,1.3h-2.4c-0.5,0-0.6,0.2-0.6,0.5c0,0.2,0.2,0.5,0.5,0.5h1.3c1.2,0,1.8,0.7,1.8,1.6
		c0,1-0.6,1.8-1.8,1.8L307.5,1040.8L307.5,1040.8z"/>
</g>
<g>
	<path d="M282.2,44.2c-7.1,0.6-13.3-6.3-13.4-12.9c0-7.3,5.9-13.3,13.2-13.5c7.4,0,13.4,5.9,13.5,13.2
		C295.6,38.4,289,44.7,282.2,44.2z M282.7,31c0-1.7,0-3.4,0-5.1c0-0.7,0.3-1,1-1c1.1,0,2,0,3.1,0c0.4,0,1.1,0.2,1.1-0.4
		s-0.7-0.4-1.1-0.4h-9.1c-0.3,0-0.6,0-0.6,0.4s0.3,0.3,0.6,0.4c1.1,0,2.2,0.1,3.3,0c0.9,0,1.2,0.3,1.2,1.2c0,3.1,0,6.1,0,9.2
		c0,1.7,0,1.7-1.6,1.9c-0.2,0-0.5,0-0.5,0.2s0.3,0.3,0.5,0.3c1.1,0,2.2,0,3.3,0c0.3,0,0.8,0.2,0.8-0.3s-0.5-0.3-0.7-0.2
		c-1,0.1-1.3-0.4-1.2-1.3C282.8,34.2,282.7,32.6,282.7,31z M287.6,31.6h-1.7c-0.2,0-0.5-0.1-0.6,0.2s0.2,0.4,0.3,0.5
		c1.2,0.8,2.8,0.7,4-0.1c0.1-0.1,0.2-0.3,0.2-0.4c0-0.1-0.3-0.2-0.5-0.2H287.6z M277.5,32.9c0.6,0,1.2-0.3,1.7-0.7
		c0.2-0.1,0.3-0.2,0.3-0.5c-0.1-0.2-0.2-0.2-0.4-0.2h-3.7c-0.2,0-0.4,0-0.4,0.2s0.1,0.3,0.2,0.4C275.9,32.7,276.7,32.9,277.5,32.9z
		 M279.3,30.5c-0.3-1.5-0.9-3-1.6-4.4c-0.2-0.5-0.5-0.1-0.6,0.2c-0.7,1.2-1.1,2.5-1.6,3.8c-0.1,0.2-0.4,0.4,0,0.6
		c0.4,0.1,0.4-0.2,0.5-0.4c0.3-0.8,0.7-1.6,1-2.5c0.1-0.3,0.1-0.6,0.5-0.7s0.5,0.4,0.6,0.7C278.2,28.8,278.6,29.7,279.3,30.5z
		 M289.4,30.6l0.3-0.1l-1.8-4.1c-0.1-0.2-0.1-0.4-0.3-0.4c-0.2,0-0.3,0.3-0.4,0.5c-0.4,0.8-0.8,1.6-1.1,2.4
		c-0.2,0.5-0.7,1.1-0.4,1.8c0.7-0.7,0.7-1.5,1.1-2.2c0.3-0.4,0.2-1.3,0.8-1.2c0.5,0,0.5,0.8,0.7,1.3C288.5,29.2,288.9,30,289.4,30.6
		L289.4,30.6z"/>
	<path d="M326.9,33.8c-1.4,1.2-2.7,2.5-3.9,3.9c-0.8,1-1.4,2.1-3.1,2.2c-1.1,0.1-2.3,0.2-3.4,0.3c-0.4,0-0.7-0.1-1.1-0.3
		c-1.1-0.5-1.6-1.8-1.1-2.8c0.2-0.4,0.4-0.7,0.8-0.9c0.6-0.3,0.8-1,0.6-1.6c-0.2-0.8,0.1-1.6,0.8-2.1c1.3-1.3,2.9-2.1,4.7-2.3
		c0.7-0.2,1.4,0.1,1.7,0.7c0.3,0.6-0.1,1.1-0.5,1.6c-0.4,0.4-1.2,1.1-1.8,0.6c-1-0.6-1.4,0.1-2,0.5c0.1,0.3,0.3,0.2,0.4,0.2
		c0.5-0.2,1.1,0,1.3,0.5c0,0.1,0,0.1,0.1,0.2c0.2,0.7-0.4,1.1-0.9,1.2c-0.8,0.3-1.6,0.8-2.3,1.3c-0.2,0.1-0.4,0.3-0.3,0.6
		s0.4,0.3,0.6,0.3c1.3,0.3,2.6-0.3,3.2-1.5c1.1-1.8,2.1-3.5,3.2-5.4c0.4-0.6,1-1,1.7-1.1c0.5,0,0.9,0.1,0.9,0.6
		c0,0.6,0.4,0.4,0.6,0.2c0.5-0.4,1.1-0.7,1.8-0.8c1.4-0.2,2.1,0.7,1.6,2c-0.6,1.1-1.3,2.2-2,3.2c-0.4,0.6-0.7,1.2-1,1.8
		c-0.1,0.2-0.3,0.5,0,0.7c0.2,0.1,0.5,0.1,0.7,0c1-0.6,1.9-1.4,2.6-2.4c0.8-1.3,1.6-2.7,2.4-4.1c0.4-0.7,0.9-1.2,1.7-0.7
		c0.8,0.5,0.5,1.1,0.1,1.8c-0.8,1.6-1.6,3.1-2.5,4.7c0.4,0.1,0.6-0.2,0.7-0.4c1.8-1.6,3.3-3.4,4.6-5.5c0.2-0.3,0.5-0.6,0.8-0.8
		c0.5-0.3,1.1-0.3,1.6,0c0.5,0.4,0.2,1-0.1,1.4c-0.9,1.4-1.7,3-2.3,4.6c-0.1,0.4-0.5,1.1-0.1,1.3s0.8-0.3,1.1-0.6
		c0.3-0.3,0.5-0.5,0.7-0.7c0.5-0.5,0.9-1.1,1.5,0.1c0.4,0.6,1.1,1.1,1.8,1.4c0.8,0.2,1.5-0.3,2.3-0.5c0.1-0.1,0.2-0.2,0.2-0.3
		c0-0.2-0.1-0.3-0.3-0.3c-0.6-0.2-1.2-0.4-1.8-0.5c-0.9-0.2-1.8-0.5-2-1.5c-0.3-1,0.1-2,0.9-2.7c1.3-1.1,2.8-1.9,4.5-2.3
		c0.8-0.3,1.6-0.4,2.4-0.2c0.6,0.2,1.1,0.6,1.1,1.3c0,0.9-0.6,1.6-1.5,1.9c-0.5,0.4-1.1,0.3-1.5-0.2c0,0,0-0.1-0.1-0.1
		c-0.3-0.5-0.6-0.4-1-0.3c-0.7,0.2-1.4,0.6-2,1.1c-0.2,0.1-0.4,0.3-0.3,0.6s0.3,0.2,0.5,0.2c0.7,0.1,1.5,0.3,2.1,0.5
		c0.8,0.2,1.5,0.8,1.7,1.6c0.2,0.9-0.2,1.8-1,2.3c-1.5,1.1-3.3,1.7-5.2,1.5c-0.6-0.1-1.2-0.2-1.4-0.7c-0.4-1-0.7-0.5-1.2-0.1
		c-0.6,0.5-1.4,0.8-2.1,0.8c-0.8,0.1-1.6-0.4-1.8-1.2c-0.2-0.8-0.6-0.7-1.1-0.2c-0.4,0.4-0.9,0.8-1.4,1.1c-0.8,0.5-1.9,0.4-2.6-0.3
		c-0.4-0.4-0.7-0.3-1,0c-0.5,0.4-1,0.6-1.6,0.6c-1.2,0.2-2.4-0.6-2.6-1.9c-0.1-0.5,0-0.9,0.2-1.4C325.8,35.9,326.4,34.9,326.9,33.8z
		"/>
	<path d="M393.3,29.7c-0.6,0-1.2,0-1.8,0c-0.8-0.1-1.1-0.7-0.6-1.3c0.4-0.7,1.2-1.2,2.1-1.1c1.3,0.3,2.6-0.4,3.1-1.6
		c0.3-0.5,0.8-0.8,1.4-0.8c1,0,1.3,0.5,0.8,1.3s-0.5,1.1,0.5,1.1c0.6,0,1.1,0.5,1.1,1.1c0,0,0,0,0,0.1c-0.1,0.7-0.7,0.8-1.3,0.9H398
		c-1.2-0.1-2.4,0.6-2.9,1.7c-1,2-2.4,3.9-3.1,6c-0.1,0.3-0.4,0.6,0,0.9c0.4,0.3,0.6,0,0.9-0.2c0.6-0.5,1.3-0.9,1.9-1.4
		c0.2-0.2,0.5-0.4,0.8-0.3c0.3,0.1,0.4,0.5,0.4,0.8s0,0.6-0.2,0.8c-0.9,1.4-2.3,2.3-4,2.5c-0.7,0.1-1.5-0.2-1.9-0.8
		c-0.4-0.5-0.7-0.5-1.2-0.2c-0.4,0.4-1,0.7-1.5,0.9c-0.9,0.3-1.9,0-2.5-0.7c-0.6-0.9-0.7-2-0.2-2.9c0.4-1.1,1-2.1,1.7-3
		c-0.4,0.1-0.8,0.3-1.1,0.7c-1.5,1.4-2.8,2.9-4,4.5c-0.5,0.7-1.1,1.2-2,0.9c-0.4-0.1-0.8,0-1.1,0.2c-0.7,0.3-1.4,0.4-2.1,0.3
		c-1.1-0.1-2-1-2-2.2c0-0.3,0.1-0.5,0.2-0.7c0.5-1.1,1-2.2,1.7-3.2c0.2-0.3,0.4-0.6,0.4-1c0.1-1.4,1.1-2.6,2.5-3
		c0.4,0,0.8,0.2,1.1,0.6c0.3,0.4,0.3,0.9,0,1.3c-0.9,1.5-1.7,3-2.6,4.5c-0.2,0.4-0.9,1-0.4,1.4s1-0.3,1.4-0.6c2-1.4,3.1-3.4,4.2-5.5
		c0.3-0.7,0.9-1.3,1.6-1.5c0.6-0.2,1.3-0.4,1.4,0.6c0.1,0.5,0.4,0.3,0.7,0.1c0.5-0.4,1.1-0.7,1.8-0.8c0.6-0.2,1.2,0,1.6,0.5
		s0.4,1.2,0,1.7c-0.8,1.5-2,2.8-2.7,4.3c-0.2,0.4-0.6,0.8-0.2,1.1s0.9,0,1.2-0.3c1.1-1,2.4-1.8,3-3.3
		C391.5,32.6,392.4,31.1,393.3,29.7z"/>
	<path d="M305.8,28.7c-0.7,0.1-1.1,0.2-1.6,0.2s-1-0.4-1.2-0.9c-0.2-0.6-0.1-1.3,0.4-1.7c0.3-0.4,0.7-0.6,1.2-0.2
		c0.3,0.2,0.6,0,0.8-0.2l2.9-2c0.2-0.2,0.5-0.4,0.7-0.5c0.8-0.4,1.7-0.4,2.4,0.2c0.6,0.7,0.2,1.4-0.3,1.9c-1.8,2.6-3.7,5.2-5.4,7.9
		c-0.5,0.9-1.1,1.7-1.5,2.6c-0.2,0.3-0.6,0.8-0.2,1.2c0.4,0.3,0.8,0,1.2-0.2c1.2-0.7,2.4-1.5,3.4-2.5c2.9-2.5,5.4-5.4,7.6-8.5
		c0.5-0.7,1.1-1.4,0.6-2.3c0-0.1,0-0.3,0.1-0.4c0.7-0.6,1.6-0.9,2.5-0.7c0.7,0.3,1,1.2,0.8,1.9c-0.4,1-0.9,1.9-1.5,2.8
		c-3,4.5-6.9,8.3-11.4,11.3c-0.9,0.6-1.8,1-2.8,1.3c-1.2,0.6-2.7,0.1-3.4-1.1c-0.4-0.7-0.3-1.6,0-2.3c0.6-1.7,1.4-3.2,2.5-4.7
		C304.3,30.7,305,29.8,305.8,28.7z"/>
	<path d="M361.5,25.5c-1.5,0.4-3,1.1-4.4,1.9c-0.4,0.2-0.9,0.5,0,0.8c0.6,0.2,0.4,0.6,0,0.9c-0.5,0.5-1.2,0.8-2,0.8
		c-0.6,0.1-1.2-0.2-1.5-0.8c-0.4-0.8-0.3-1.7,0.2-2.4c1.1-1.3,2.5-2.2,4.1-2.7c2.8-1,5.8-1.3,8.8-0.8c1.1,0.2,2.1,0.7,2.9,1.4
		c1,0.7,1.4,2.1,0.8,3.2c-1,2.5-3.1,4.3-5.6,5.2c-1.6,0.7-3.2,1.1-4.8,0.3c-0.5-0.3-0.7,0.2-0.9,0.5c-1.1,1.7-2.1,3.3-3.1,5
		c-0.3,0.6-0.9,1.1-1.7,1.1c-1.3,0-1.7-0.5-1.1-1.7s1.3-2.3,2-3.4c2-3,3.8-6,6.1-8.9C361.4,25.8,361.5,25.7,361.5,25.5z M365,25.4
		c-0.4-0.1-0.6-0.1-0.8,0.2c-0.8,1.7-2.1,3.2-3,4.8c-0.1,0.2-0.4,0.4-0.2,0.7c0.2,0.3,0.5,0.2,0.8,0.2c2.1-0.3,3.9-1.4,5.2-3.1
		c1.1-1.3,0.5-2.5-1.2-2.8C365.5,25.4,365.2,25.4,365,25.4z"/>
	<path d="M374.6,32.5c-0.2,1.4-0.8,2.7-1.7,3.8c-1.1,1.7-2.7,3-4.6,3.8c-1.2,0.6-2.6,0.1-3.2-1c-0.2-0.5-0.3-1-0.2-1.5
		c0.3-2.9,3.4-6.4,6.2-7.1c1.1-0.1,2.2,0.2,3.1,0.9C374.7,31.4,374.6,32,374.6,32.5z M372,33.1c0-0.6-0.5-0.8-1.1-0.5
		c-1.8,1-3.1,2.7-3.7,4.7c-0.1,0.2-0.1,0.4,0.1,0.5s0.4,0.1,0.6,0c1.8-1.1,3.2-2.7,4-4.6C372,33.2,372,33.2,372,33.1L372,33.1z"/>
	<path d="M380.4,29.4c-0.5,0-0.9-0.3-0.9-0.8c0-0.1,0-0.1,0-0.2c0.1-1.1,0.9-2,1.9-2.1c0.5-0.1,1,0.3,1.1,0.9v0.1
		C382.4,28.3,381.5,29.2,380.4,29.4z"/>
</g>
<g>
	<path d="M571,19.9c-9.8,0-17.6,4.6-17.6,10.3c0,2.4,1.4,4.7,3.8,6.4c-1.2-1.3-1.8-3-1.9-4.8c0-5.9,7.7-10.7,17.2-10.7
		c6.1,0,11.5,2,14.5,5C584.4,22.5,578.2,19.9,571,19.9L571,19.9z"/>
	<path d="M563.1,29.1c0.5-0.4,1.2-0.6,1.9-0.6s1.3,0.2,1.9,0.6c0.5,0.4,0.8,1,0.9,1.6h-5.6C562.3,30.1,562.6,29.5,563.1,29.1z
		 M569.4,33.2c0.6,0,1.3-0.2,1.7-0.5c0.5-0.3,0.8-0.9,0.8-1.5c0-1.2-0.4-2.3-1.2-3.3c-1.4-1.8-3.5-2.8-5.8-2.8
		c-1.9-0.1-3.8,0.7-5.2,2c-1.3,1.3-2,3-2,4.8c0,1.9,0.7,3.6,2.1,4.8c1.4,1.3,3.3,2,5.2,2c1.1,0,2.2-0.2,3.2-0.5c1-0.2,2-0.8,2.7-1.6
		c0.3-0.3,0.5-0.7,0.5-1.2c0-1-0.5-1.5-1.6-1.5c-0.6,0.2-1.3,0.3-1.9,0.6c-0.8,0.4-1.7,0.6-2.6,0.6c-0.8,0-1.6-0.2-2.2-0.6
		c-0.6-0.4-0.9-1-1-1.7L569.4,33.2z"/>
	<path d="M574.2,37c1.3,1.3,3.2,2,5.2,2c1.1,0,2.2-0.2,3.2-0.5c1.2-0.5,1.8-1.2,1.8-2c0-0.5-0.2-0.9-0.5-1.2s-0.8-0.5-1.2-0.5
		c-0.5,0-0.9,0.2-1.3,0.3c-0.5,0.2-1.1,0.3-1.6,0.3c-0.9,0.1-1.7-0.3-2.3-0.9c-0.5-0.6-0.8-1.5-0.7-2.3c0-0.8,0.2-1.6,0.7-2.3
		c0.5-0.7,1.4-1,2.3-1c0.5,0,1.2,0.1,1.6,0.3c0.4,0.2,0.9,0.3,1.3,0.3c0.5,0,0.9-0.2,1.3-0.5c0.3-0.3,0.5-0.7,0.5-1.2
		c0-0.9-0.5-1.6-1.7-2c-0.9-0.3-2-0.5-3-0.5c-2-0.1-3.8,0.6-5.3,1.9c-1.3,1.3-2,3.1-2,4.9C572.3,33.9,573,35.6,574.2,37L574.2,37z"
		/>
	<path d="M589.6,29.8c0.9-1.2,2.7-1.4,3.8-0.5c0.2,0.2,0.3,0.3,0.5,0.5c0.5,0.6,0.7,1.4,0.7,2.2s-0.2,1.6-0.6,2.2
		c-0.5,0.7-1.3,1.1-2.1,1c-0.9,0-1.6-0.4-2.1-1s-0.7-1.4-0.7-2.2C588.9,31.2,589.1,30.5,589.6,29.8L589.6,29.8z M586.5,37
		c3,2.7,7.5,2.7,10.4,0c1.3-1.3,2-3,2-4.8c0.1-1.9-0.6-3.6-2-4.9s-3.3-2-5.2-2c-2-0.1-3.8,0.6-5.2,2c-1.3,1.3-2,3-2,4.9
		C584.5,33.9,585.2,35.7,586.5,37L586.5,37z"/>
	<path d="M604.8,36v-3h3c1.7,0.1,3.5-0.5,4.8-1.6c1.3-1.1,1.9-2.7,1.8-4.4c0.1-1.7-0.6-3.4-2-4.4c-1.5-1.1-3.2-1.6-5-1.5h-3.8
		c-0.9-0.1-1.6,0.2-2.3,0.6c-0.5,0.6-0.7,1.4-0.6,2.2v12c0,1.9,0.7,2.8,2.2,2.8C604.1,38.8,604.8,37.9,604.8,36L604.8,36z
		 M604.8,24.8h2c2,0,3,0.8,3,2.3c0,1.6-1,2.3-3,2.3h-1.9L604.8,24.8L604.8,24.8z"/>
	<path d="M626.6,38.8c1.4,0,2.1-0.9,2.1-2.8v-7.8c0-1.9-0.7-2.8-2.1-2.8c-0.9,0-1.6,0.5-2,1.3c-0.9-0.9-2.1-1.4-3.4-1.4
		c-1.9-0.1-3.6,0.8-4.8,2.1c-2.3,2.7-2.3,6.6-0.1,9.3c1.2,1.4,2.9,2.2,4.7,2.1c1.3,0.1,2.7-0.5,3.6-1.4
		C625,38.3,625.8,38.8,626.6,38.8L626.6,38.8z M619.7,29.9c0.5-0.6,1.3-1,2-0.9c0.8-0.1,1.6,0.3,2,0.9c0.5,0.6,0.6,1.3,0.6,2.1
		s-0.2,1.5-0.6,2.1c-0.5,0.7-1.3,1.1-2,1.1s-1.6-0.3-2.1-1c-0.5-0.6-0.7-1.4-0.6-2.1C619,31.3,619.3,30.5,619.7,29.9z"/>
	<path d="M638.6,26.9l-2.6,6.2l-2.4-5.8c-0.2-0.5-0.4-0.9-0.7-1.3c-0.4-0.4-0.9-0.5-1.4-0.5s-1.1,0.2-1.5,0.5s-0.5,0.9-0.5,1.3
		s0.1,0.7,0.2,1.1l4.3,9.1l-1.7,3.4c-0.2,0.4-0.3,0.9-0.4,1.3c0,0.5,0.2,1,0.5,1.3c0.4,0.3,0.9,0.5,1.5,0.5c0.8,0,1.4-0.5,1.9-1.6
		l6.5-13.9c0.2-0.4,0.3-0.9,0.3-1.3c0-1.3-0.7-1.9-2.1-1.9C639.6,25.5,639.1,25.9,638.6,26.9L638.6,26.9z"/>
	<path d="M653,35.1h-4.2l5.6-6.6c0.5-0.5,0.8-1,0.9-1.6c0.1-0.5-0.2-0.9-0.6-0.9c-0.6-0.2-1.3-0.2-2-0.2h-6.8
		c-1.8,0-2.7,0.5-2.7,1.7s0.9,1.8,2.7,1.8h3.7l-6,6.7c-0.4,0.4-0.6,0.9-0.6,1.5c0,0.9,0.8,1.2,2.3,1.2h7.7c1.8,0,2.7-0.6,2.7-1.8
		S654.7,35.1,653,35.1L653,35.1z"/>
</g>
<g>
	<g>
		<g>
			<path d="M447.4,39l-5.6-4.7c-0.3-0.2-0.7-0.3-1-0.1s-0.5,0.5-0.5,0.9v2.8h-1.7c-1.3,0-2.5-0.7-3.2-1.8l-6.1-9.7
				c-1.4-2.2-3.8-3.5-6.4-3.5h-5.3v3.8h5.3c1.3,0,2.5,0.7,3.2,1.8l6.1,9.7c1.4,2.2,3.8,3.5,6.4,3.5h1.6v2.8c0,0.4,0.2,0.7,0.5,0.9
				c0.1,0.1,0.3,0.1,0.4,0.1c0.2,0,0.4-0.1,0.6-0.2l5.6-4.7c0.2-0.2,0.3-0.4,0.3-0.7S447.6,39.2,447.4,39z"/>
		</g>
	</g>
	<g>
		<g>
			<path d="M447.4,24l-5.6-4.7c-0.3-0.2-0.7-0.3-1-0.1c-0.3,0.2-0.5,0.5-0.5,0.8v2.8h-1.7c-2.6,0-5,1.3-6.4,3.5l-0.3,0.5l2.2,3.5
				l1.3-2.1c0.7-1.1,1.9-1.8,3.2-1.8h1.6v2.8c0,0.4,0.2,0.7,0.5,0.9c0.1,0.1,0.3,0.1,0.4,0.1c0.2,0,0.4-0.1,0.6-0.2l5.6-4.7
				c0.2-0.2,0.3-0.4,0.3-0.7S447.6,24.2,447.4,24z"/>
		</g>
	</g>
	<g>
		<g>
			<path d="M427.5,34l-1.3,2.1c-0.7,1.1-1.9,1.8-3.2,1.8h-5.4v3.8h5.3c2.6,0,5-1.3,6.4-3.5l0.3-0.5L427.5,34z"/>
		</g>
	</g>
	<g>
		<path d="M472.9,35c-0.9,0.6-1.9,1.3-2.7,1.8c0.7,1.2,1.7,2.1,3,2.7c-0.7,0.6-1.5,1.7-2,2.5c-1.7-0.9-2.9-2.3-3.8-4.1l0.3,2.4
			c-2.1,0.5-4.3,1-6.1,1.4l-0.4-1.3c-2.6,0.5-5.3,0.9-7.4,1.2l-0.6-2.7c0.9-0.1,1.9-0.2,3-0.4v-1l-2,0.6c-0.1-1-0.4-2.4-0.7-3.5
			l2.1-0.6c0.3,0.9,0.5,2,0.7,2.9v-3.5h-2.6v-2.6h2.6v-1.2h-1.8V29l0,0c-0.4-0.6-1.3-1.6-1.8-2.1c1.8-1.4,3.1-3.3,3.8-5h2.4
			c1.2,1,2.7,2.4,3.5,3.5v-2.7h9.8v9.8h-3.6c0.1,0.7,0.3,1.3,0.5,1.9c0.7-0.5,1.3-1.1,1.8-1.6L472.9,35z M460,27.2
			c-0.5-0.8-1.3-1.7-2-2.4c-0.5,0.8-1.1,1.6-1.8,2.4H460z M458.9,38.2l2.7-0.4v0.9l0.6-0.1V25.8l-1.2,1.4v2.5h-2.2v1.2h2.6v2.6h-2.6
			v3.6c0.3-0.9,0.5-2.3,0.6-3.2l2.2,0.5c-0.4,1.2-0.8,2.5-1.1,3.4l-1.7-0.5v0.9H458.9z M465.2,25.4v1h4v-1H465.2z M469.2,29.9v-1h-4
			v1H469.2z M465.2,37.9c0.7-0.1,1.4-0.3,2.1-0.4c-0.6-1.4-1.1-3.1-1.4-5h-0.7L465.2,37.9L465.2,37.9z"/>
		<path d="M482.3,27.7c-0.6,1.1-1.4,2.1-2.2,3.2v11H477v-7.6c-0.5,0.4-0.9,0.8-1.3,1.2c-0.4-0.7-1.4-2-2.1-2.7
			c2.1-1.5,4.4-3.9,5.8-6.3L482.3,27.7z M481.6,23.2c-1.6,2.1-3.9,4.3-6,5.8c-0.4-0.7-1.2-1.9-1.7-2.5c1.7-1.1,3.8-3,4.7-4.5
			L481.6,23.2z M493.8,31.9H491v6.6c0,1.6-0.3,2.4-1.3,2.9s-2.4,0.5-4.2,0.5c-0.1-0.9-0.5-2.2-0.9-3.1c1,0.1,2.4,0.1,2.8,0.1
			c0.4,0,0.5-0.1,0.5-0.4v-6.6h-5.8V29h11.6v2.9H493.8z M493.2,26.1H483v-2.9h10.2V26.1z"/>
		<path d="M500.5,36.7c0.8,1.3,2.2,1.8,4.3,1.9c2.6,0.1,7.4,0,10.4-0.2c-0.3,0.7-0.8,2.2-1,3.1c-2.7,0.1-6.8,0.2-9.5,0.1
			c-2.5-0.1-4.2-0.6-5.5-2.2c-0.9,0.8-1.7,1.5-2.9,2.4l-1.5-3.2c0.9-0.5,1.8-1.1,2.7-1.7V33h-2.2v-2.8h5.1v6.5H500.5z M498.5,27.6
			c-0.6-1-2.1-2.4-3.3-3.3l2.3-1.8c1.2,0.9,2.7,2.2,3.4,3.1L498.5,27.6z M509.8,32.5c0.9,1.6,2.6,2.8,4.9,3.3
			c-0.7,0.6-1.5,1.8-1.9,2.6c-2.2-0.7-3.8-2-4.9-3.8c-0.9,1.4-2.4,2.8-4.9,3.8c-0.4-0.6-1.3-1.7-2-2.2c2.9-1,4.2-2.4,4.7-3.7h-4.6
			v-2.7h4.9v-1.5h-4.2v-2.7h1.8c-0.3-0.8-0.8-1.7-1.4-2.5l2.6-1.1c0.7,0.9,1.5,2.2,1.8,3.1l-1,0.4h4.1l-1-0.3
			c0.6-0.9,1.3-2.2,1.6-3.2l3.1,0.9c-0.6,1-1.3,1.9-1.8,2.6h2.2v2.7H509v1.5h5.5v2.7h-4.7L509.8,32.5L509.8,32.5z"/>
		<path d="M532.7,35.9c-0.7,1-1.5,2.1-2.1,2.9h4.3v2.6h-17.8v-2.6h3.8c-0.4-0.9-1-2.1-1.6-3l1.6-0.7h-2.6v-2.6h6v-1.7h-3.7V30
			c-0.9,0.7-1.9,1.3-2.9,1.8c-0.4-0.7-1.3-1.8-1.9-2.5c3.6-1.7,6.9-4.9,8.4-7.4h3.2c2.3,3.3,5.5,5.8,8.9,7.1c-0.8,0.8-1.4,1.8-2,2.8
			c-1-0.5-2-1.2-3-1.9v1h-3.7v1.7h6.1v2.6h-2.9L532.7,35.9z M522,35.2c0.7,1,1.4,2.1,1.6,3l-1.5,0.7h2.1v-3.6H522L522,35.2L522,35.2
			z M529.1,28.2c-1.3-1.1-2.4-2.3-3.2-3.3c-0.8,1.1-1.8,2.2-3.1,3.3H529.1z M527.5,35.2v3.6h1.6l-1.1-0.5c0.6-0.9,1.3-2.1,1.7-3.2
			h-2.2V35.2z"/>
	</g>
</g>
</svg>
