<svg id="Layer_1" data-name="Layer 1" xmlns="http://www.w3.org/2000/svg" viewBox="0 0 48 48"><defs><style>.cls-1{fill:#84d5f7;}</style></defs><title>ico_age</title><path class="cls-1" d="M24,4a20.11,20.11,0,0,1,4,.41A19.52,19.52,0,0,1,31.77,5.6a20.22,20.22,0,0,1,3.39,1.84,20,20,0,0,1,5.4,5.4,20.22,20.22,0,0,1,1.84,3.39A19.52,19.52,0,0,1,43.56,20a20,20,0,0,1,0,8.06,19.52,19.52,0,0,1-1.16,3.74,20.22,20.22,0,0,1-1.84,3.39,20,20,0,0,1-5.4,5.4,20.22,20.22,0,0,1-3.39,1.84A19.52,19.52,0,0,1,28,43.56a20,20,0,0,1-8.06,0,19.52,19.52,0,0,1-3.74-1.16,20.22,20.22,0,0,1-3.39-1.84,20,20,0,0,1-5.4-5.4A20.22,20.22,0,0,1,5.6,31.77,19.52,19.52,0,0,1,4.44,28a20,20,0,0,1,0-8.06A19.52,19.52,0,0,1,5.6,16.23a20.22,20.22,0,0,1,1.84-3.39,20,20,0,0,1,5.4-5.4A20.22,20.22,0,0,1,16.23,5.6,19.52,19.52,0,0,1,20,4.44,20.11,20.11,0,0,1,24,4M24,.5A23.5,23.5,0,1,0,47.5,24,23.5,23.5,0,0,0,24,.5Z"/><path class="cls-1" d="M12,31.73V21H8.9V19.4h.23c1.42,0,3.08-.34,3.5-2.23v-.29h1.74V31.73Z"/><path class="cls-1" d="M18.25,27.58c0-2.21,1.07-3.42,2.54-3.72v0a3,3,0,0,1-2.05-3.21c0-2.3,1.53-3.73,4-3.73s4,1.43,4,3.73a3,3,0,0,1-2.06,3.21v0c1.47.3,2.54,1.51,2.54,3.72,0,2.91-1.45,4.44-4.49,4.44S18.25,30.49,18.25,27.58Zm4.49,2.77c1.68,0,2.1-1.26,2.1-2.82s-.42-2.81-2.1-2.81-2.1,1.24-2.1,2.81S21.06,30.35,22.74,30.35Zm0-7.3c1.49,0,1.87-1.07,1.87-2.27s-.38-2.22-1.87-2.22-1.87,1.05-1.87,2.22S21.25,23.05,22.74,23.05Z"/><path class="cls-1" d="M33.17,19.1H35v4.41h4.4v1.8H35v4.41h-1.8V25.31H28.76v-1.8h4.41Z"/></svg>