<svg id="Layer_1" data-name="Layer 1" xmlns="http://www.w3.org/2000/svg" viewBox="0 0 96.05 48"><defs><style>.cls-1{fill:#84d5f7;}</style></defs><title>icon_gt</title><path class="cls-1" d="M94.3,26.93c-.44,1.27-.9,2.54-1.33,3.81-.89,2.57-1.76,5.13-2.64,7.7-.11.32-.25.63-.39.94a3.27,3.27,0,0,1-3.19,2c-.78,0-1.56,0-2.33-.1-.32,0-.47-.16-.47-.49,0-.77,0-1.53,0-2.29,0-.3.1-.41.4-.38a9.73,9.73,0,0,0,1.08,0c.5,0,.67-.25.54-.74s-.32-1-.49-1.48l-3-8.72c-.16-.48-.12-.54.38-.55,1.15,0,2.31,0,3.46,0,.36,0,.51.14.58.49.4,1.91.82,3.81,1.24,5.71a.87.87,0,0,0,.18.49c.29-1.27.57-2.5.86-3.73.19-.82.39-1.64.55-2.47.08-.39.27-.5.64-.5,1.29,0,2.59,0,3.89,0Z"/><path class="cls-1" d="M30.55,11.83c1.45-2.17,5.77-2.05,7,.25.23-.25.43-.52.68-.75a4.74,4.74,0,0,1,5.73-.22,3.3,3.3,0,0,1,1.24,2.6c0,2.38,0,4.77,0,7.16,0,.35-.12.5-.48.5-1.1,0-2.21,0-3.31,0-.41,0-.53-.18-.53-.56q0-2.73,0-5.46a1.31,1.31,0,0,0-1.6-1.47A1.36,1.36,0,0,0,38,15.37c0,1.78,0,3.57,0,5.36,0,.61,0,.64-.63.64-1,0-2.05,0-3.07,0-.51,0-.63-.18-.63-.66,0-1.8,0-3.61,0-5.41a1.39,1.39,0,0,0-2-1.34,1.37,1.37,0,0,0-.91,1.41c0,1.73,0,3.45,0,5.17,0,.82,0,.82-.8.82-1,0-2,0-3,0-.39,0-.56-.13-.56-.54,0-3.26,0-6.53,0-9.79,0-.38.14-.52.52-.52,1,0,2,0,3,0,.65,0,.66,0,.66.65Z"/><path class="cls-1" d="M31.3,30c.45.16.9.33,1.36.48a.53.53,0,0,1,.42.57c0,1.62,0,3.25,0,4.87a.59.59,0,0,1-.39.61A23,23,0,0,0,28.2,39a2.24,2.24,0,0,1-1.48.23c-1.13,0-2.26-.14-3.4-.13-.22,0-.46.06-.69-.2l.86-.35c.79-.3,1.57-.61,2.37-.88a.73.73,0,0,0,.57-.82q0-6.68,0-13.35c0-.78,0-.78.78-.78H30c.67,0,.69,0,.69.67v4c.18.09.23-.05.3-.12a4.71,4.71,0,0,1,5.84-.2A3.46,3.46,0,0,1,38,29.85q0,3.43,0,6.87A1.37,1.37,0,0,0,38.49,38c.27.23.51.5.77.75.07.06.18.13.11.23a.45.45,0,0,1-.21.09c-.77.17-1.56.07-2.33.17s-1.33,0-2,.11c-.39.06-.59,0-.53-.53a25.32,25.32,0,0,0,0-3.26c0-1.69,0-3.38,0-5.06,0-.48-.17-.63-.63-.61-.79,0-1.58,0-2.38,0Z"/><path class="cls-1" d="M89.39,19.94a4.66,4.66,0,0,1-7-1.82,6.63,6.63,0,0,1,.1-5.31,4.3,4.3,0,0,1,4-2.56,3.75,3.75,0,0,1,3.3,1.06s.09-.06.09-.08c.07-.7.07-.7.76-.7s1.66,0,2.49,0c.35,0,.5.13.5.48,0,3.24,0,6.47,0,9.7a8.25,8.25,0,0,1-.11,1.21,3.55,3.55,0,0,1-2.57,3,11.43,11.43,0,0,1-6.63.13,3,3,0,0,1-2.3-3.12c0-.36.11-.51.47-.51h3c.2,0,.38,0,.47.26a1.39,1.39,0,0,0,1.62,1.16,4.14,4.14,0,0,0,.91-.16,1.2,1.2,0,0,0,1-1.23c0-.24,0-.49,0-.73S89.37,20.23,89.39,19.94Zm-3.46-4.16c0,.29.08.63.16,1a1.43,1.43,0,0,0,1.45,1.19,1.5,1.5,0,0,0,1.58-1.11,5.09,5.09,0,0,0,0-2.36A1.41,1.41,0,0,0,88,13.3a1.57,1.57,0,0,0-1.67.82A4.52,4.52,0,0,0,85.93,15.78Z"/><path class="cls-1" d="M9.27,20a4.84,4.84,0,0,1-5,.36,4.41,4.41,0,0,1-2.49-4,7,7,0,0,1,.36-3.17,4.38,4.38,0,0,1,4.13-2.95,3.81,3.81,0,0,1,3.3,1.05A.37.37,0,0,0,9.66,11c0-.32.15-.42.45-.42h2.82c.34,0,.47.13.47.46,0,3.3,0,6.6,0,9.89A3.89,3.89,0,0,1,12,24.18a5.49,5.49,0,0,1-2.64,1,12.4,12.4,0,0,1-4.93-.13A3.08,3.08,0,0,1,1.79,22c-.05-.54,0-.65.57-.65H5.18c.21,0,.42,0,.51.25a1.5,1.5,0,0,0,1.86,1.16c1.32-.17,1.7-.61,1.72-1.95ZM5.87,15.8a7,7,0,0,0,0,.71,1.51,1.51,0,0,0,1.52,1.42,1.56,1.56,0,0,0,1.63-1.31,4.89,4.89,0,0,0,0-2c-.18-.87-.63-1.32-1.4-1.35A1.59,1.59,0,0,0,6,14.53,4.89,4.89,0,0,0,5.87,15.8Z"/><path class="cls-1" d="M75.13,27.33A4.32,4.32,0,0,1,79,26.48a3.85,3.85,0,0,1,2.9,2.36,7.68,7.68,0,0,1-.1,6.65A4.47,4.47,0,0,1,75.36,37s-.11-.06-.24-.14v1.8c0,.71,0,1.43,0,2.14,0,.41-.12.59-.55.58q-1.56,0-3.12,0c-.43,0-.57-.15-.57-.57,0-2.24,0-4.48,0-6.72V27.26c0-.61,0-.63.63-.63,1,0,1.89,0,2.83,0C74.83,26.61,75.21,26.65,75.13,27.33Zm0,4.78a4.26,4.26,0,0,0,.13,1.37,1.41,1.41,0,0,0,1.39,1.15,1.43,1.43,0,0,0,1.49-1.09,5.13,5.13,0,0,0,0-2.93,1.36,1.36,0,0,0-1.36-1,1.5,1.5,0,0,0-1.45,1A3.81,3.81,0,0,0,75.11,32.11Z"/><path class="cls-1" d="M50.56,20.77c.06.55-.24.61-.63.6-1,0-2,0-2.92,0-.43,0-.61-.11-.61-.57q0-6.81,0-13.6c0-.41.11-.59.55-.58,1.06,0,2.11,0,3.17,0,.4,0,.54.14.54.54,0,1.17,0,2.34.06,3.51,0,.11,0,.24.07.31s.2-.06.29-.12a4.42,4.42,0,0,1,6.11,1.5,7.36,7.36,0,0,1-.56,7.69,4.5,4.5,0,0,1-5.86.83Zm3.18-4.92a3.59,3.59,0,0,0-.17-1.37,1.4,1.4,0,0,0-1.41-1.11,1.43,1.43,0,0,0-1.41,1.13,4.91,4.91,0,0,0,0,2.84,1.4,1.4,0,0,0,1.38,1.09,1.5,1.5,0,0,0,1.42-1.07A4.21,4.21,0,0,0,53.74,15.85Z"/><path class="cls-1" d="M25.29,17v3a2,2,0,0,0,.16.95c.12.24.07.37-.21.37-1.16,0-2.31,0-3.46,0-.22,0-.39-.08-.39-.33s-.13-.36-.41-.2a6.06,6.06,0,0,1-4.19.65,3.31,3.31,0,0,1-2.72-3,3.41,3.41,0,0,1,2.14-3.53,16.05,16.05,0,0,1,3.28-.67c.4-.07.81-.13,1.2-.22s.62-.39.34-.81a1.42,1.42,0,0,0-1.35-.49c-.46,0-.91.11-1.09.58a.68.68,0,0,1-.75.47c-1,0-2,0-3,.07-.36,0-.45-.12-.37-.46a3.39,3.39,0,0,1,1.82-2.46,9,9,0,0,1,4.75-.73,7,7,0,0,1,1.82.34,3.13,3.13,0,0,1,2.39,3.22c0,1.09,0,2.18,0,3.26Zm-6.21,1.72a2.13,2.13,0,0,0,2.08-1.87c0-.2.06-.49-.3-.39-.72.21-1.44.41-2.13.67a.82.82,0,0,0-.63,1C18.16,18.5,18.54,18.73,19.08,18.73Z"/><path class="cls-1" d="M69.83,33.41c0,1,0,1.93,0,2.84a1.46,1.46,0,0,0,.08.72c.23.43.08.52-.35.51-1,0-2.11,0-3.17,0-.27,0-.49,0-.47-.39s-.12-.3-.34-.17a6.14,6.14,0,0,1-3.85.77A3.45,3.45,0,0,1,60.82,31a13.46,13.46,0,0,1,2.86-.59l1.63-.3c.4-.06.47-.29.31-.62a1.24,1.24,0,0,0-.21-.33,1.72,1.72,0,0,0-2.36.37.5.5,0,0,1-.48.33c-1,0-2.11.05-3.16.1-.39,0-.47-.14-.39-.5a3.29,3.29,0,0,1,2.11-2.56,9.4,9.4,0,0,1,6.67-.09,2.9,2.9,0,0,1,2,2.85C69.83,31,69.81,32.24,69.83,33.41Zm-6.28,1.48a2.18,2.18,0,0,0,2.14-2.1c0-.2-.07-.27-.26-.21-.74.24-1.5.44-2.22.71a.81.81,0,0,0-.57,1C62.78,34.77,63.19,34.83,63.55,34.89Z"/><path class="cls-1" d="M73.65,11.78a4.52,4.52,0,0,1,4.83-1.36,3.39,3.39,0,0,1,2.57,3.44c0,2.34,0,4.68,0,7,0,.35-.13.49-.48.49-1.11,0-2.21,0-3.31,0-.42,0-.53-.19-.53-.57,0-1.83,0-3.67,0-5.5,0-1.06-.45-1.47-1.51-1.42a1.23,1.23,0,0,0-1.3,1.33c0,1.77,0,3.54,0,5.31,0,.85,0,.85-.87.85s-1.91,0-2.87,0c-.42,0-.57-.13-.57-.56,0-3.25,0-6.49,0-9.74,0-.4.12-.56.53-.55,1,0,2,0,3,0,.39,0,.57.12.54.53C73.64,11.26,73.65,11.46,73.65,11.78Z"/><path class="cls-1" d="M46.7,32.88c-1.06,0-2.12,0-3.17,0-.44,0-.56.18-.45.57a1.63,1.63,0,0,0,1.24,1.3,1.85,1.85,0,0,0,2-.73c.46-.59.47-.59,1.14-.3l2.24,1c.53.23.54.29.18.76a6.12,6.12,0,0,1-4.3,2.4A5.85,5.85,0,0,1,39,30a5.44,5.44,0,0,1,5.32-3.74,6.09,6.09,0,0,1,4.15,1.25,5.32,5.32,0,0,1,1.92,3.65,10.56,10.56,0,0,1,.09,1.12c0,.61,0,.64-.61.64Zm-2.09-2.36h1c.43,0,.49-.17.36-.54a1.36,1.36,0,0,0-1.35-1,1.56,1.56,0,0,0-1.41,1.08c-.08.28,0,.44.31.44Z"/><path class="cls-1" d="M19.82,32.39c0-.86,0-1.72,0-2.58,0-.36-.09-.53-.49-.53-1,0-1,.19-1-1v-.09c0-.37-.13-.8.08-1.1s.69-.13,1-.16.4-.21.4-.48c0-.8,0-1.6,0-2.39,0-.4.14-.55.54-.54,1.08,0,2.17,0,3.26,0,.41,0,.54.15.53.55,0,.79,0,1.59,0,2.38,0,.37.14.48.49.48C26,26.94,26,27,26,28.24s.12,1-1,1.05c-.81,0-.81,0-.82.8,0,1.08,0,2.15,0,3.22,0,.83.28,1.11,1.1,1.12h.39c.32,0,.45.11.45.42,0,.71,0,1.42,0,2.14a.39.39,0,0,1-.36.44,10.57,10.57,0,0,1-3.72,0,2.53,2.53,0,0,1-2.18-2.69c0-.8,0-1.59,0-2.39Z"/><path class="cls-1" d="M58.63,14V7.28c0-.63,0-.65.66-.65,1.06,0,2.11,0,3.17,0,.39,0,.56.11.55.53V20.84c0,.42-.18.54-.56.53-1,0-2.05,0-3.07,0-.73,0-.75,0-.75-.73Z"/><path class="cls-1" d="M51,32c0-1.61,0-3.22,0-4.83,0-.44.15-.6.59-.59,1,0,2.05,0,3.07,0,.31,0,.51.09.48.44s.15.34.38.16a4.25,4.25,0,0,1,2.65-.81c.35,0,.49.13.49.49,0,.9,0,1.81,0,2.72,0,.34-.1.47-.45.44a4.38,4.38,0,0,0-1.3.08,1.82,1.82,0,0,0-1.59,1.92c0,1.59,0,3.18,0,4.77,0,.49-.15.66-.64.64-1,0-2.08,0-3.12,0-.43,0-.56-.16-.56-.57C51,35.28,51,33.66,51,32Z"/><path class="cls-1" d="M64.16,15.91c0-1.61,0-3.22,0-4.82,0-.43.14-.58.57-.57,1.08,0,2.17,0,3.26,0,.35,0,.5.13.5.49q0,4.92,0,9.84c0,.37-.15.52-.52.52q-1.63,0-3.27,0c-.4,0-.54-.14-.53-.54C64.17,19.19,64.16,17.55,64.16,15.91Z"/><path class="cls-1" d="M66.35,6.63H68c.33,0,.48.12.48.45,0,.68,0,1.36,0,2.05,0,.3-.14.44-.44.44H64.57c-.28,0-.41-.12-.41-.41q0-1,0-2.1c0-.31.13-.44.44-.43Z"/></svg>