<svg id="Providers" xmlns="http://www.w3.org/2000/svg" viewBox="0 0 515.78 112.53"><defs><style>.cls-1{fill:#84d5f7;}.cls-2{opacity:0.6;}</style></defs><title>payment_en</title><g id="Page-1"><g id="skrill-logo-web-1-rgb"><path id="Fill-1" class="cls-1" d="M467.22,23a3.45,3.45,0,1,0-3.45-3.44A3.44,3.44,0,0,0,467.22,23Zm-26.41,1.86a24.16,24.16,0,0,1-4,6.83v-14l-7.22,1.42V44.49h7.22V36.63A27.33,27.33,0,0,1,440,44.49h8.64c-.85-3.56-4.59-10.11-4.59-10.11a31.59,31.59,0,0,0,5.06-9.54Zm19-.26c-6.46.2-9.74,3.1-9.74,8.87v11h7v-9c0-3.45.45-4.93,4.54-5.07V24.68a9.36,9.36,0,0,0-1.85-.1Zm-42.27,3.06c-.88-.06-2.93-.19-2.93-2,0-2.23,2.95-2.23,4.05-2.23a24.69,24.69,0,0,1,6.26,1.11s1,.36,1.85.72l.08,0V19.14l-.11,0a25,25,0,0,0-9.15-1.45c-7.89,0-10.68,4.59-10.68,8.52,0,2.27,1,7.61,10,8.22.77.05,2.8.17,2.8,2.07,0,1.57-1.67,2.5-4.46,2.5a21.78,21.78,0,0,1-7.85-1.53v6.27a36.55,36.55,0,0,0,9.33,1.07c7.7,0,11.15-4.35,11.15-8.65,0-4.89-3.86-8.06-10.34-8.49Zm46.21,16.85h7V24.86h-7Zm20.16-25.58V44.49h7V17.66l-7,1.25Zm-10.2,0,7-1.25V44.49h-7V18.91Z"/></g></g><g id="layer1"><g id="g3098"><path id="path3741" class="cls-1" d="M222.78,16.09l-5.29,28.69H229l2-11.26,4.1,11.26h32.34L271.13,25h1.54l-3.36,18.2s-.58,1.59,1.26,1.59h80.64l1.37-7.33,2.19,7.33h11.79l-4-10.65s3.24-1.37,4.52-3A9.65,9.65,0,0,0,369,25a7.69,7.69,0,0,0-3.39-6.73c-2.16-1.48-5.3-2.21-9.36-2.21h-11.1L341.5,35.87h-9.69l.25-1.39h7.74l1.48-8.11h-7.71L333.8,25h8l1.63-8.9H324.08l-3.46,18.77s-2.86.36-2.43-1.9l3.13-16.87H309.71l-3.46,18.77s-2.69.27-2.28-1.9,3.13-16.87,3.13-16.87H295.49l-3.66,19.78h-9.78l.26-1.39h7.76l1.48-8.1h-7.76L284,25h8.07l1.62-8.9H240.15L238,27.47l-4.09-11.38Zm1.3,1.54h8.77l5.72,15.69,2.87-15.69h50.43l-1.06,5.8h-8.05l-.82,4.48h7.76l-.92,5H281l-.82,4.49h12.93l3.65-19.79h8.46L301.74,36.4h5.79L311,17.63h8.46L316,36.4h5.94l3.45-18.77h16.19l-1.06,5.8h-8l-.83,4.48h7.74l-.92,5h-7.74L330,37.42h12.83l3.66-19.79h9.8c3.74,0,6.6.65,8.49,1.95a6.11,6.11,0,0,1,2.7,5.45,8.14,8.14,0,0,1-1.59,5.16,7.62,7.62,0,0,1-4.49,2.64l-.88.19,3.84,10.2h-8.38l-3.7-12.49-2.31,12.49h-79l3.65-19.79h-4.69l-3.66,19.79h-30l-5.55-16.11-2.85,16.11h-8.39Zm24.57,5.8-.77,4.44h8l-.92,5.06h-8l-.84,4.49h12.84l2.56-14ZM249.94,25h9.66l-2,10.88h-9.68l.26-1.39h8.06l1.48-8.09h-8Z"/><path id="path3745" class="cls-1" d="M359.2,25.88a2.67,2.67,0,0,0-1.2-2.39,5.61,5.61,0,0,0-3.1-.68h-1.21l-1.27,6.86h1.66a6.52,6.52,0,0,0,3.74-.87,3.38,3.38,0,0,0,1.38-2.92m-2.28,1.65a4.89,4.89,0,0,1-2.63.6c-.08,0,.68-3.77.68-3.77h-.07a4.46,4.46,0,0,1,2.27.42,1.19,1.19,0,0,1,.48,1.1,1.78,1.78,0,0,1-.73,1.65"/><path id="path3747" class="cls-1" d="M369.19,38.87a3.25,3.25,0,1,1,3.25,3.25,3.26,3.26,0,0,1-3.25-3.25m-.34,0a3.6,3.6,0,1,0,3.59-3.61,3.6,3.6,0,0,0-3.59,3.61"/><path id="path3749" class="cls-1" d="M371.83,38.64h.32a1.58,1.58,0,0,0,.37,0,.88.88,0,0,0,.33-.06.91.91,0,0,0,.24-.16.5.5,0,0,0,0-.54,1.2,1.2,0,0,0-.24-.15,2.79,2.79,0,0,0-.33-.06h-.69Zm-1-1.59h1c.27,0,.53,0,.81,0a3.31,3.31,0,0,1,.73.09,1.29,1.29,0,0,1,.54.3.88.88,0,0,1,.19.6.69.69,0,0,1-.27.56,1.2,1.2,0,0,1-.72.3h0a.51.51,0,0,1,.32.13.87.87,0,0,1,.19.25l.78,1.45h-1.08l-.58-1.16a.65.65,0,0,0-.23-.3,1,1,0,0,0-.44-.09h-.31v1.55h-1Z"/></g></g><g id="g4158"><polygon id="polygon9" class="cls-1" points="60.33 44.36 53.15 44.36 57.65 16.59 64.83 16.59 60.33 44.36"/><path id="path11" class="cls-1" d="M86.37,17.27a17.79,17.79,0,0,0-6.44-1.18c-7.1,0-12.09,3.78-12.12,9.19-.06,4,3.57,6.2,6.29,7.53s3.73,2.25,3.73,3.46c0,1.86-2.25,2.72-4.32,2.72a14.33,14.33,0,0,1-6.73-1.48l-1-.45-1,6.24a21.84,21.84,0,0,0,8,1.48c7.54,0,12.44-3.73,12.5-9.49,0-3.16-1.89-5.58-6-7.56-2.51-1.27-4-2.13-4-3.43s1.31-2.39,4.14-2.39A12.21,12.21,0,0,1,84.74,23l.65.3,1-6Z"/><path id="path13" class="cls-1" d="M95.91,34.52l2.87-7.77c0,.06.59-1.62.94-2.65l.5,2.39s1.36,6.65,1.66,8Zm8.86-17.93H99.22a3.54,3.54,0,0,0-3.75,2.31L84.8,44.36h7.53s1.24-3.43,1.51-4.16h9.22c.21,1,.86,4.16.86,4.16h6.65l-5.8-27.77Z"/><path id="path15" class="cls-1" d="M47.16,16.59l-7,18.94-.77-3.84c-1.3-4.43-5.37-9.25-9.92-11.64l6.44,24.28h7.59L54.75,16.59Z"/><path id="path17" class="cls-1" d="M33.59,16.59H22l-.12.56c9,2.31,15,7.86,17.43,14.54L36.84,18.93c-.41-1.78-1.68-2.28-3.25-2.34Z"/></g><path class="cls-1" d="M185.72,46.48v.09h.08l0,0s0,0,0,0a0,0,0,0,0,0,0h-.13Zm.08-.06.1,0a.1.1,0,0,1,0,.15.1.1,0,0,1-.08,0l.11.12h-.09l-.1-.12h0v.12h-.08v-.32Zm0,.44a.2.2,0,0,0,.11,0,.19.19,0,0,0,.09,0,.24.24,0,0,0,.06-.09.2.2,0,0,0,0-.11.23.23,0,0,0,0-.11.16.16,0,0,0-.06-.08.15.15,0,0,0-.09-.06l-.11,0-.11,0a.21.21,0,0,0-.1.06l-.06.08a.43.43,0,0,0,0,.11.36.36,0,0,0,0,.11l.06.09.1,0a.2.2,0,0,0,.11,0m0-.63a.4.4,0,0,1,.15,0l.12.07a.44.44,0,0,1,.08.11.35.35,0,0,1,0,.14.32.32,0,0,1,0,.14.44.44,0,0,1-.08.11l-.12.08-.15,0-.15,0-.12-.08a.44.44,0,0,1-.08-.11.32.32,0,0,1,0-.14.35.35,0,0,1,0-.14.44.44,0,0,1,.08-.11l.12-.07a.4.4,0,0,1,.15,0M151.15,45a1.12,1.12,0,1,1,1.12,1.14A1.08,1.08,0,0,1,151.15,45m3,0V43.2h-.81v.43a1.42,1.42,0,0,0-1.17-.52,1.86,1.86,0,0,0,0,3.72,1.42,1.42,0,0,0,1.17-.52v.43h.81Zm27.28,0a1.12,1.12,0,1,1,1.12,1.14A1.08,1.08,0,0,1,181.43,45m3,0V41.78h-.8v1.85a1.45,1.45,0,0,0-1.18-.52,1.86,1.86,0,0,0,0,3.72,1.45,1.45,0,0,0,1.18-.52v.43h.8ZM164.17,43.8a.9.9,0,0,1,.94.86h-1.93a1,1,0,0,1,1-.86m0-.69a1.86,1.86,0,1,0,.05,3.72,2.33,2.33,0,0,0,1.52-.49l-.39-.57a1.88,1.88,0,0,1-1.08.37,1,1,0,0,1-1.11-.87h2.75a2.83,2.83,0,0,0,0-.3,1.73,1.73,0,0,0-1.76-1.86M173.93,45a1.13,1.13,0,1,1,1.13,1.14A1.09,1.09,0,0,1,173.93,45m3,0V43.2h-.81v.43a1.43,1.43,0,0,0-1.17-.52,1.86,1.86,0,0,0,0,3.72,1.43,1.43,0,0,0,1.17-.52v.43h.81Zm-7.57,0a1.84,1.84,0,0,0,2,1.86,2,2,0,0,0,1.33-.42l-.39-.62a1.73,1.73,0,0,1-1,.32,1.14,1.14,0,0,1,0-2.27,1.66,1.66,0,0,1,1,.32l.39-.62a2,2,0,0,0-1.33-.43,1.84,1.84,0,0,0-2,1.86m10.41-1.86a1.12,1.12,0,0,0-1,.52V43.2H178v3.54h.81v-2c0-.59.26-.91.79-.91a1.31,1.31,0,0,1,.51.09l.25-.73a1.73,1.73,0,0,0-.58-.1m-21.64.37a2.89,2.89,0,0,0-1.51-.37c-.94,0-1.55.43-1.55,1.14s.46.93,1.29,1l.38.05c.44.06.65.17.65.37s-.3.43-.85.43a2,2,0,0,1-1.23-.37l-.38.6a2.76,2.76,0,0,0,1.6.46c1.08,0,1.7-.48,1.7-1.15s-.49-1-1.3-1.06l-.38-.06c-.35,0-.63-.11-.63-.34s.26-.42.71-.42a2.36,2.36,0,0,1,1.15.31Zm10.42-.37a1.11,1.11,0,0,0-1,.52V43.2h-.8v3.54h.81v-2c0-.59.26-.91.79-.91a1.38,1.38,0,0,1,.51.09l.24-.73a1.67,1.67,0,0,0-.57-.1m-6.89.09h-1.32V42.13h-.82V43.2h-.75v.71h.75v1.61c0,.82.34,1.31,1.29,1.31a2,2,0,0,0,1-.27l-.23-.66a1.57,1.57,0,0,1-.71.2c-.41,0-.54-.24-.54-.59v-1.6h1.32ZM149.6,46.74V44.52a1.35,1.35,0,0,0-1.46-1.41,1.49,1.49,0,0,0-1.3.63,1.39,1.39,0,0,0-1.23-.63,1.25,1.25,0,0,0-1.09.53V43.2h-.81v3.54h.82v-2a.85.85,0,0,1,.91-.94c.53,0,.81.33.81.93v2h.81v-2a.85.85,0,0,1,.91-.94c.55,0,.82.33.82.93v2Z"/><path class="cls-1" d="M186.21,35v-.52h-.14l-.16.36-.16-.36h-.15V35h.11v-.39l.15.34h.1l.16-.34V35Zm-.89,0v-.43h.18v-.09H185v.09h.18V35Z"/><g class="cls-2"><path class="cls-1" d="M158.69,26.71A13.1,13.1,0,0,1,164,16.23a16.94,16.94,0,0,0-9.48-2.85,13,13,0,0,0-13.14,13.33c0,7.36,6.26,13.33,14,13.33A14.31,14.31,0,0,0,164,37.19a13.1,13.1,0,0,1-5.34-10.48"/></g><g class="cls-2"><path class="cls-1" d="M186.64,26.71c0,7.36-6.26,13.33-14,13.33A14.33,14.33,0,0,1,164,37.19a13,13,0,0,0,0-21,14.42,14.42,0,0,1,8.67-2.85c7.72,0,13.95,6,13.95,13.33"/></g><path class="cls-1" d="M164,37.19a13,13,0,0,1,0-21,13,13,0,0,1,0,21Z"/><path id="path2491" class="cls-1" d="M283.24,77.62c0-.55-.28-.84-.78-.86h-2.71a.94.94,0,0,0-1,1v4.87a1,1,0,0,0,1.09,1h2.48a.81.81,0,0,0,.64-.3.67.67,0,0,0,.26-.56Zm-7.94-.69a4.31,4.31,0,0,1,.81-2.77,3.39,3.39,0,0,1,1-.67,3,3,0,0,1,1.27-.29h5c2.19,0,3.3,1.21,3.34,3.59v7.32a3,3,0,0,1-1,2.19,3.18,3.18,0,0,1-2.27,1h-4.69v5.28H275.3V76.93"/><path id="path2493" class="cls-1" d="M293,83a.56.56,0,0,0,.28.48.89.89,0,0,0,.63.23h2.67c.6,0,.91-.24.93-.71V82q0-.81-1-.81h-2.64a1.16,1.16,0,0,0-.72.16,1.11,1.11,0,0,0-.19.76Zm4.51-5.49c0-.53-.29-.78-.93-.77h-7V73.2h7.88q3.44,0,3.49,3.33V84a3.48,3.48,0,0,1-.87,2.34,2.92,2.92,0,0,1-2.27,1H293c-2.32,0-3.49-1.07-3.53-3.18V81.23q0-3.28,3.36-3.35h4.62v-.35"/><path id="path2495" class="cls-1" d="M310.68,89a1.06,1.06,0,0,0,.71-.29.78.78,0,0,0,.28-.57v-.85h-4.45a3.58,3.58,0,0,1-1.39-.22,3.15,3.15,0,0,1-1.09-.74,3.46,3.46,0,0,1-.75-1.18,3.63,3.63,0,0,1-.24-1.42V73.2h3.47v9.4c0,.75.31,1.13.93,1.13h2.46a1.05,1.05,0,0,0,.75-.3.72.72,0,0,0,.31-.59V73.2h3.44V88.73a4.37,4.37,0,0,1-.88,2.77,3,3,0,0,1-2.37,1.07h-8.11V89h6.93"/><path id="path2497" class="cls-1" d="M317.84,83.73H324c.57,0,.86-.25.88-.69v-.32a.75.75,0,0,0-.08-.3c-.14-.27-.31-.41-.51-.41h-3.07a3.4,3.4,0,0,1-2.34-.93,2.7,2.7,0,0,1-1-2.06V76.36c0-2.07,1.17-3.13,3.39-3.16h7.17v3.56h-6.08c-.71,0-1.07.22-1.07.66v.34c0,.46.37.68,1.1.68h3.06a2.85,2.85,0,0,1,2.08.94,3.15,3.15,0,0,1,.91,2.19v2.6a3.47,3.47,0,0,1-1,2.19,2.73,2.73,0,0,1-1,.74,3.94,3.94,0,0,1-1.38.19h-7.25V83.73"/><path id="path2499" class="cls-1" d="M334.38,83a.56.56,0,0,0,.28.48.89.89,0,0,0,.63.23H338c.6,0,.91-.24.93-.71V82q0-.81-1-.81h-2.64a.72.72,0,0,0-.91.92Zm4.51-5.49c0-.53-.29-.78-.94-.77h-7V73.2h7.88q3.44,0,3.49,3.33V84a3.48,3.48,0,0,1-.87,2.34,2.92,2.92,0,0,1-2.26,1h-4.77c-2.31,0-3.48-1.07-3.52-3.18V81.23q0-3.28,3.36-3.35h4.62v-.35"/><path id="path2501" class="cls-1" d="M345.15,71.17a3,3,0,0,1,1.07-2.31,4,4,0,0,1,2.66-.91h2.21V71.4h-1.34c-.73,0-1.11.36-1.12,1v.76h2.46v3.57h-2.46V87.29h-3.48V71.17"/><path id="path2503" class="cls-1" d="M361,77.47v-.09a.56.56,0,0,0-.23-.45,1,1,0,0,0-.59-.17h-2.42A1,1,0,0,0,357,77a.75.75,0,0,0-.36.65v1.43Zm-4.3,5v.22a.94.94,0,0,0,.23.68.49.49,0,0,0,.45.32h7.13v3.56h-7.58a5.26,5.26,0,0,1-1.62-.19,3.19,3.19,0,0,1-1.89-1.83,5.23,5.23,0,0,1-.21-1.64l0-7.14q.06-3.24,3.38-3.29h4.68q3.24,0,3.29,3.41v2.82l-7.83,3.08"/><path id="path2505" class="cls-1" d="M371.84,87.29a7.86,7.86,0,0,1-1.44-.13,3.15,3.15,0,0,1-1.38-.65,3.32,3.32,0,0,1-1-1.39,4.88,4.88,0,0,1-.29-1.72V76.74a4.22,4.22,0,0,1,.17-1.43,2.89,2.89,0,0,1,.73-1.21,3.15,3.15,0,0,1,1.31-.83,6.08,6.08,0,0,1,1.48-.17h5.32v.84h-5.19a3.73,3.73,0,0,0-2.17.56,2.54,2.54,0,0,0-.81,2.13v6.66a4.44,4.44,0,0,0,.21,1.36,2.71,2.71,0,0,0,.74,1.14,2.63,2.63,0,0,0,1.12.54,5.34,5.34,0,0,0,1.23.13h5v.83h-5"/><path id="path2507" class="cls-1" d="M390.45,78.66h-7a2.66,2.66,0,0,0-2,.77,2.87,2.87,0,0,0-.73,2.08v2.12a4.39,4.39,0,0,0,.13,1.13,1.73,1.73,0,0,0,.66.95,3.06,3.06,0,0,0,2,.75h4.22c1.77,0,2.66-.95,2.66-2.8Zm.83,4.79a8.45,8.45,0,0,1-.11,1.42,3.32,3.32,0,0,1-.7,1.3,3.48,3.48,0,0,1-2.71,1.12h-4.14a3.66,3.66,0,0,1-2.63-1,3.4,3.4,0,0,1-1-2.64V81.54c0-2.42,1.24-3.66,3.61-3.72h6.91v-.93a3.23,3.23,0,0,0-.67-2,2,2,0,0,0-1-.76,5.22,5.22,0,0,0-1.3-.15H380V73.1h7.15a10.8,10.8,0,0,1,1.78.14,2.08,2.08,0,0,1,.75.32,2.57,2.57,0,0,1,.69.64,4.47,4.47,0,0,1,.94,2.86v6.39"/><path id="path2509" class="cls-1" d="M399.08,73.94q-2.91,0-2.86,3.17V87.29h-.83V77.11c0-2.67,1.24-4,3.82-4h.92v.84h-1.05"/><path id="path2511" class="cls-1" d="M413.13,73.94h-6.58a5,5,0,0,0-1.28.16,2.23,2.23,0,0,0-1.15.73,2.47,2.47,0,0,0-.65,1.07,3.43,3.43,0,0,0-.16,1.3v6.49a2.39,2.39,0,0,0,.95,2.21,3.7,3.7,0,0,0,1,.41,5.05,5.05,0,0,0,1.28.15h2.87a4.29,4.29,0,0,0,2.63-.74,2.83,2.83,0,0,0,1.05-2.43Zm.83,9.41c-.08,2.69-1.5,4-4.27,4h-3.08a8.44,8.44,0,0,1-1.75-.17,3.27,3.27,0,0,1-1.52-1,3.12,3.12,0,0,1-.7-1.38,5.16,5.16,0,0,1-.16-1.56V77.17c0-2.72,1.41-4.08,4.12-4.06h6.53v-4.6H414V83.35"/><path id="path2513" class="cls-1" d="M256,72.66a4.62,4.62,0,0,1,.82-.27,5.27,5.27,0,0,1,10.32,0,3.8,3.8,0,0,1,1.93.93A8.15,8.15,0,0,0,269,72a7.07,7.07,0,0,0-14.11.34c0,.32,0,.66,0,1a4.56,4.56,0,0,1,1.11-.7"/><path id="path2515" class="cls-1" d="M266.12,73.2h-8.48a3,3,0,0,0-1.26.29,3.27,3.27,0,0,0-1,.67,4.31,4.31,0,0,0-.82,2.77v6.63a4.31,4.31,0,0,0,.82,2.77,3.47,3.47,0,0,0,1,.68,3.13,3.13,0,0,0,1.26.28h8.48c2.19,0,3.31-1.22,3.34-3.59V76.79c0-2.38-1.15-3.57-3.34-3.59"/><path class="cls-1" d="M122.82,66.15c-11.61,0-21,5.5-21,12.33,0,2.89,1.7,5.55,4.58,7.68a9.2,9.2,0,0,1-2.22-5.79c0-7.06,9.21-12.8,20.53-12.8,7.32,0,13.73,2.37,17.37,6-3.26-4.37-10.67-7.4-19.26-7.4Z"/><path class="cls-1" d="M113.48,77A3.66,3.66,0,0,1,118,77a2.75,2.75,0,0,1,1,2h-6.66a3.35,3.35,0,0,1,1.16-2Zm7.5,5a3.56,3.56,0,0,0,2.06-.54,2,2,0,0,0,.9-1.73,6.22,6.22,0,0,0-1.37-3.89A8.62,8.62,0,0,0,119,73.1a8.53,8.53,0,0,0-3.34-.62,8.22,8.22,0,0,0-6.11,2.41,8,8,0,0,0-2.39,5.82,7.59,7.59,0,0,0,2.5,5.78A8.79,8.79,0,0,0,116,88.84a12.93,12.93,0,0,0,3.84-.57A6.24,6.24,0,0,0,123,86.36a2.14,2.14,0,0,0,.56-1.36c0-1.19-.67-1.79-2-1.79a9.18,9.18,0,0,0-2.25.75,8.22,8.22,0,0,1-3.09.76,4.62,4.62,0,0,1-2.6-.71A2.74,2.74,0,0,1,112.39,82Z"/><path class="cls-1" d="M126.76,86.45a8.19,8.19,0,0,0,6.12,2.36,9.45,9.45,0,0,0,3.81-.68c1.42-.65,2.13-1.43,2.13-2.36a2,2,0,0,0-.55-1.41,1.86,1.86,0,0,0-1.42-.58,4.35,4.35,0,0,0-1.5.34,5.51,5.51,0,0,1-2,.34,3.55,3.55,0,0,1-2.81-1.13,4.05,4.05,0,0,1-.88-2.73,4.21,4.21,0,0,1,.85-2.7,3.18,3.18,0,0,1,2.65-1.19,5.92,5.92,0,0,1,2,.35,4.6,4.6,0,0,0,1.54.36,2.06,2.06,0,0,0,1.5-.57,1.84,1.84,0,0,0,.6-1.39c0-1.06-.69-1.86-2.07-2.39a10.24,10.24,0,0,0-3.59-.57,8.74,8.74,0,0,0-6.31,2.29,8.51,8.51,0,0,0-.12,11.66Z"/><path class="cls-1" d="M145,78a3,3,0,0,1,2.56-1.22A3,3,0,0,1,150.06,78a4.24,4.24,0,0,1,.81,2.62,4.31,4.31,0,0,1-.78,2.64,3.22,3.22,0,0,1-5.09,0,4.27,4.27,0,0,1-.81-2.64A4.4,4.4,0,0,1,145,78Zm-3.66,8.47a9.27,9.27,0,0,0,12.44,0,8.53,8.53,0,0,0,0-11.71,9.27,9.27,0,0,0-12.36,0A8,8,0,0,0,139,80.68a7.86,7.86,0,0,0,2.34,5.8Z"/><path class="cls-1" d="M163.15,85.33V81.79h3.5A8.54,8.54,0,0,0,172.46,80a6.52,6.52,0,0,0,2.13-5.2,6.35,6.35,0,0,0-2.35-5.26,9.28,9.28,0,0,0-6-1.79h-4.69a4.1,4.1,0,0,0-2.81.74A3.46,3.46,0,0,0,158,71v14.3c0,2.23.86,3.34,2.59,3.34s2.59-1.11,2.59-3.33Zm0-13.28h2.25c2.38,0,3.56.9,3.56,2.7s-1.18,2.75-3.56,2.75h-2.25V72.05Z"/><path class="cls-1" d="M189.18,88.66c1.67,0,2.5-1.11,2.5-3.35V76.06c0-2.22-.83-3.33-2.5-3.33a2.67,2.67,0,0,0-2.4,1.45,5.28,5.28,0,0,0-4.06-1.65A7.26,7.26,0,0,0,177,75.09a8.47,8.47,0,0,0-.09,11.13,7.09,7.09,0,0,0,5.62,2.56,5.45,5.45,0,0,0,4.25-1.73,2.49,2.49,0,0,0,2.4,1.61ZM180.9,78.1a2.93,2.93,0,0,1,2.46-1.16,2.87,2.87,0,0,1,2.45,1.16,4.15,4.15,0,0,1,.75,2.53,4.27,4.27,0,0,1-.75,2.55,2.85,2.85,0,0,1-2.45,1.2,2.94,2.94,0,0,1-2.49-1.2,4.16,4.16,0,0,1-.78-2.55,4,4,0,0,1,.81-2.53Z"/><path class="cls-1" d="M203.4,74.55l-3.09,7.33L197.43,75a5.44,5.44,0,0,0-.84-1.57,2.29,2.29,0,0,0-1.72-.65,2.53,2.53,0,0,0-1.77.65,2.16,2.16,0,0,0-.7,1.62,2.92,2.92,0,0,0,.28,1.28l5.09,10.82-2.08,4.11a3.66,3.66,0,0,0-.41,1.56,2,2,0,0,0,.68,1.61,2.7,2.7,0,0,0,1.81.59c.9,0,1.64-.62,2.22-1.85l7.72-16.61a3.9,3.9,0,0,0,.41-1.59c0-1.46-.84-2.19-2.5-2.19-1,0-1.7.61-2.22,1.82Z"/><path class="cls-1" d="M220.53,84.18h-5l6.71-7.84a3.42,3.42,0,0,0,1-2,1.08,1.08,0,0,0-.78-1.15,8.84,8.84,0,0,0-2.41-.24H212c-2.14,0-3.22.69-3.22,2.07s1.07,2.11,3.19,2.11h4.34l-6.93,8.15a2.7,2.7,0,0,0-.75,1.76c0,.94.88,1.42,2.65,1.42h9.22c2.12,0,3.19-.7,3.19-2.1s-1.05-2.16-3.15-2.16Z"/></svg>