<svg width="22" height="21" viewBox="0 0 22 21" fill="none" xmlns="http://www.w3.org/2000/svg">
<path d="M12 1H20C20.5523 1 21 1.44772 21 2V15C21 15.5523 20.5523 16 20 16H13.7317L12.5545 17H20C21.1046 17 22 16.1046 22 15V2C22 0.895431 21.1046 0 20 0H12C10.8954 0 10 0.89543 10 2V7.18292L11 8.36013V2C11 1.44772 11.4477 1 12 1Z" fill="#F20574"/>
<path d="M13.5009 8.41487C13.4507 6.89019 15.5009 6.41486 16.0009 7.91486C16.5009 6.41487 18.4506 6.88501 18.5009 8.41487C18.5253 9.1544 18.0191 9.59635 17.1935 10.3173C16.8471 10.6198 16.4443 10.9715 16.0009 11.4149C15.6136 11.0277 15.2503 10.7047 14.927 10.4172C14.0932 9.67587 13.5258 9.1714 13.5009 8.41487Z" fill="#F20574"/>
<path fill-rule="evenodd" clip-rule="evenodd" d="M7.91622 7.8191L1.81911 12.9984L6.99842 19.0955L13.0955 13.9162L7.91622 7.8191ZM1.1717 12.2363C0.750781 12.5938 0.699417 13.2249 1.05697 13.6458L6.23628 19.7429C6.59384 20.1638 7.22491 20.2152 7.64583 19.8577L13.7429 14.6783C14.1639 14.3208 14.2152 13.6897 13.8577 13.2688L8.67836 7.17168C8.32081 6.75077 7.68973 6.6994 7.26881 7.05696L1.1717 12.2363Z" fill="#F20574"/>
<path d="M5.40036 12.5804C5.75791 13.0014 5.70655 13.6324 5.28563 13.99C4.86471 14.3476 4.23363 14.2962 3.87608 13.8753C3.51852 13.4544 3.56989 12.8233 3.9908 12.4657C4.41172 12.1082 5.0428 12.1595 5.40036 12.5804Z" fill="#F20574"/>
<path d="M8.21946 12.8099C8.57702 13.2308 8.52565 13.8619 8.10473 14.2194C7.68382 14.577 7.05274 14.5256 6.69518 14.1047C6.33763 13.6838 6.38899 13.0527 6.80991 12.6952C7.23083 12.3376 7.8619 12.389 8.21946 12.8099Z" fill="#F20574"/>
<path d="M11.0386 13.0393C11.3961 13.4603 11.3448 14.0913 10.9238 14.4489C10.5029 14.8065 9.87184 14.7551 9.51429 14.3342C9.15673 13.9133 9.2081 13.2822 9.62901 12.9246C10.0499 12.5671 10.681 12.6184 11.0386 13.0393Z" fill="#F20574"/>
<path d="M7.99001 15.629C8.34757 16.0499 8.2962 16.681 7.87528 17.0386C7.45437 17.3961 6.82329 17.3447 6.46573 16.9238C6.10817 16.5029 6.15954 15.8718 6.58046 15.5143C7.00137 15.1567 7.63245 15.2081 7.99001 15.629Z" fill="#F20574"/>
<path d="M8.44891 9.99079C8.80647 10.4117 8.7551 11.0428 8.33419 11.4003C7.91327 11.7579 7.28219 11.7065 6.92463 11.2856C6.56708 10.8647 6.61844 10.2336 7.03936 9.87606C7.46028 9.51851 8.09136 9.56987 8.44891 9.99079Z" fill="#F20574"/>
</svg>