<svg version="1.1" id="Providers" xmlns="http://www.w3.org/2000/svg" x="0" y="0" viewBox="0 0 1200 60" xml:space="preserve"><style>.st0{fill:#C6C6C6}.st1{opacity:.6}.st4{opacity:.45}.st5{opacity:.8}</style><path class="st0" d="M184.6 47.6zm.1 0l.1.2h-.1l.1.1h-.1l-.1-.1v.1l.1-.3zm0 .5h.2l.1-.1v-.2l-.1-.1-.1-.1h-.2s-.1 0-.1.1l-.1.1v.2s0 .1.1.1h.2m0-.7h.2s.1 0 .1.1l.1.1v.4h-.1l-.1.1h-.3s-.1 0-.1-.1l-.1-.1v-.4s0-.1.1-.1h.2m-37.2-1.3c0-.7.6-1.2 1.2-1.2.7 0 1.2.6 1.2 1.2 0 .7-.5 1.2-1.2 1.2-.6 0-1.1-.5-1.2-1.2m3.3 0v-1.9h-.9v.5c-.3-.4-.8-.6-1.3-.6-1.1 0-2 .9-2 2s.9 2 2 2c.5 0 .9-.2 1.3-.6v.5h.9v-1.9zm29.2 0c0-.7.6-1.2 1.2-1.2s1.2.6 1.2 1.2c0 .7-.5 1.2-1.2 1.2-.6 0-1.1-.5-1.2-1.2m3.3 0v-3.5h-.9v2c-.3-.4-.8-.6-1.3-.6-1.1 0-2 .9-2 2s.9 2 2 2c.5 0 .9-.2 1.3-.6v.5h.9v-1.8zm-21.8-1.3c.5 0 1 .4 1 .9h-2.1c.1-.6.6-1 1.1-.9m0-.8c-1 0-1.9.8-2 1.8v.2c0 1.1.8 2 1.8 2h.2c.6 0 1.2-.2 1.6-.5l-.4-.6c-.3.2-.7.4-1.2.4-.6.1-1.1-.3-1.2-.9h3v-.3c.1-1-.7-1.9-1.7-2l-.1-.1m10.5 2.1c0-.7.5-1.2 1.2-1.2s1.2.5 1.2 1.2-.5 1.2-1.2 1.2c-.6 0-1.2-.5-1.2-1.2m3.2 0v-1.9h-.9v.5c-.3-.4-.8-.6-1.3-.6-1.1 0-2 .9-2 2s.9 2 2 2c.5 0 1-.2 1.3-.6v.5h.9v-1.9zm-8.1 0c0 1.1.8 2 1.9 2h.2c.5 0 1-.1 1.4-.5l-.4-.7c-.3.2-.7.3-1.1.3-.7-.1-1.2-.7-1.1-1.3.1-.6.5-1 1.1-1.1.4 0 .8.1 1.1.3l.4-.7c-.4-.3-.9-.5-1.4-.5-1.1-.1-2 .7-2.1 1.8v.4m11.2-2c-.4 0-.8.2-1.1.6v-.5h-.8V48h.9v-2.1c0-.6.3-1 .8-1 .2 0 .4 0 .5.1l.3-.8c-.2-.2-.4-.2-.6-.1m-23.2.3c-.5-.3-1.1-.4-1.6-.4-1 0-1.7.5-1.7 1.2s.5 1 1.4 1.1l.4.1c.5.1.7.2.7.4s-.3.5-.9.5c-.5 0-.9-.1-1.3-.4l-.4.6c.5.3 1.1.5 1.7.5 1.1 0 1.8-.5 1.8-1.2s-.5-1.1-1.4-1.1l-.4-.1c-.4 0-.7-.1-.7-.4s.3-.5.8-.5c.4 0 .9.1 1.2.3l.4-.6zm11.2-.4c-.4 0-.8.2-1.1.6v-.4h-.9V48h.9v-2.1c0-.6.3-1 .9-1 .2 0 .4 0 .5.1l.3-.8c-.2-.2-.4-.2-.6-.2m-7.4.1h-1.4V43h-.9v1.1h-.8v.8h.8v1.7c0 .9.4 1.4 1.4 1.4.4 0 .7-.1 1.1-.3l-.2-.7c-.2.1-.5.2-.8.2-.4 0-.6-.3-.6-.6v-1.7h1.4v-.8zm-13 3.8v-2.4c0-.8-.6-1.5-1.4-1.5h-.2c-.6 0-1.1.2-1.4.7-.3-.4-.8-.7-1.3-.7s-.9.2-1.2.6V44h-.8v3.8h.9v-2.1c-.1-.5.3-1 .8-1h.2c.6 0 .9.4.9 1v2.1h.8v-2.1c-.1-.5.3-1 .8-1h.2c.6 0 .9.4.9 1v2.1s.8 0 .8.1zm39.3-12.6v-.6h-.2l-.2.4-.2-.4h-.2v.6h.1v-.4l.2.4h.1l.2-.4v.4h.2zm-1 0v-.5h.2v-.1h-.5v.1h.2l.1.5z"/><g class="st1"><path class="st0" d="M155.6 26.4c0-4.4 2.2-8.6 5.7-11.2-2.7-2-5.9-3.1-9.3-3.1-8.3 0-15 6.4-15 14.3s6.7 14.3 15 14.3c3.3 0 6.6-1 9.3-3-3.5-2.7-5.6-6.8-5.7-11.3"/></g><g class="st1"><path class="st0" d="M185.6 26.4c0 7.9-6.7 14.3-15 14.3-3.3 0-6.6-1.1-9.2-3.1 6.2-4.5 7.6-13.2 3.2-19.4-.9-1.2-1.9-2.3-3.2-3.2 2.7-2 5.9-3.1 9.3-3.1 8.3.2 15 6.6 14.9 14.5"/></g><path class="st0" d="M161.4 37.7c-6.2-4.5-7.6-13.3-3-19.5.9-1.2 1.9-2.2 3-3 6.2 4.5 7.6 13.3 3 19.5-.8 1.1-1.8 2.1-3 3z"/><g id="g4158"><path id="polygon9" class="st0" d="M59.6 44.9h-7.7l4.8-29.8h7.7z"/><path id="path11" class="st0" d="M87.5 15.9c-2.2-.8-4.5-1.3-6.9-1.3-7.6 0-13 4.1-13 9.9-.1 4.3 3.8 6.7 6.8 8.1 2.9 1.4 4 2.4 4 3.7 0 2-2.4 2.9-4.6 2.9-2.5.1-5-.5-7.2-1.6l-1-.5-1.1 6.7c2.7 1.1 5.6 1.6 8.6 1.6 8.1 0 13.4-4 13.4-10.2 0-3.4-2-6-6.4-8.1-2.7-1.4-4.3-2.3-4.3-3.7 0-1.4 1.4-2.6 4.4-2.6 2 0 3.9.4 5.7 1.2l.7.3.9-6.4z"/><path id="path13" class="st0" d="M97.7 34.4c.6-1.7 3.1-8.3 3.1-8.3s.6-1.7 1-2.8l.5 2.6s1.5 7.1 1.8 8.6l-6.4-.1zm9.6-19.3h-6c-1.8-.2-3.4.8-4 2.5L85.9 44.9H94s1.3-3.7 1.6-4.5h9.9l.9 4.5h7.1l-6.2-29.8z"/><path id="path15" class="st0" d="M45.4 15.1l-7.5 20.3-.8-4.1c-1.4-4.8-5.8-9.9-10.7-12.5l6.9 26.1h8.1l12.2-29.8h-8.2z"/><path id="path17" class="st0" d="M30.9 15.1H18.5l-.1.6c9.7 2.5 16.1 8.4 18.7 15.6l-2.7-13.7c-.5-1.9-1.9-2.4-3.5-2.5z"/></g><path d="M758.8 34.8c-1.6 6.5-8.1 10.4-14.6 8.8s-10.4-8.1-8.8-14.5 8.1-10.4 14.6-8.8 10.4 8.1 8.8 14.5h0z" fill="none" stroke="#C6C6C6" stroke-miterlimit="10"/><path class="st0" d="M752.4 30.2c.2-1.6-1-2.5-2.7-3l.5-2.2-1.3-.3-.5 2.1c-.3-.1-.7-.2-1.1-.2l.5-2.1-1.3-.3-.5 2.2-.9-.2-1.7-.5-.4 1.3s1 .2.9.2c.4.1.6.4.6.8l-.6 2.5.2.1h-.1l-.9 3.4c-.1.2-.3.4-.6.3l-.9-.2-.6 1.5 1.7.4.9.2-.5 2.2 1.3.3.5-2.2 1 .2-.5 2.1 1.3.3.5-2.2c2.3.4 3.9.2 4.7-1.8.6-1.2.2-2.5-1-3.1-.1-.1-.2-.1-.2-.1 1 .1 1.6-.7 1.7-1.7zm-3 4.3c-.4 1.6-3.2.8-4.1.5l.7-2.9c.9.2 3.8.6 3.4 2.4zm.4-4.3c-.4 1.5-2.7.7-3.4.5l.6-2.7c.8.3 3.2.7 2.8 2.2zm20.6-3c.9 0 1.7.2 2.5.5.7.3 1.3.8 1.8 1.4s.9 1.3 1 2.1c.2.9.3 1.6.3 2.5 0 1.3-.2 2.7-.8 4-.5 1.3-1.3 2.3-2.1 3.3-.9.9-2 1.6-3.2 2.2-1.3.5-2.6.9-4 .9h-.9c-.5 0-1-.1-1.6-.2-.6-.1-1.3-.2-1.9-.4-.6-.2-1.3-.4-1.9-.7l5.2-22.1 4.7-.7-1.9 7.8c.4-.2.8-.3 1.3-.4.6-.1 1-.2 1.5-.2zm-4 13c.7 0 1.4-.2 2-.5s1.2-.8 1.6-1.4c.5-.6.9-1.3 1.1-2 .2-.7.4-1.5.4-2.3.1-.8-.2-1.6-.5-2.3-.4-.6-1.1-.9-1.8-.9-.4 0-.8.1-1.1.2-.5.1-.9.3-1.3.6l-2 8.4.3.1h.7l.6.1zm14.6 3.3h-4.5l3.8-16h4.5l-3.8 16zm2.1-18c-.6 0-1.2-.2-1.6-.5-.5-.4-.8-1-.8-1.7 0-.4.1-.9.2-1.2.2-.4.4-.7.7-.9.3-.3.6-.5 1-.6s.8-.2 1.2-.2c.6 0 1.2.2 1.6.5.5.4.8 1 .8 1.7 0 .4-.1.9-.2 1.2-.2.4-.4.7-.7.9-.3.3-.6.5-1 .6s-.8.3-1.2.2zm5.6-2l4.7-.7-1.2 4.7h5l-.9 3.8h-5l-1.3 5.6c-.2.4-.2.9-.2 1.3s0 .7.2 1 .4.5.6.7c.4.2.9.3 1.3.2.5 0 .9-.1 1.4-.2s.9-.2 1.4-.4l.3 3.4c-.6.2-1.3.4-2 .5-.9.2-1.6.2-2.5.2-1.1.1-2.2-.2-3.2-.6-.7-.4-1.3-.9-1.6-1.6-.3-.8-.5-1.6-.4-2.5.1-1 .2-2 .4-3l3-12.4zm8.4 13.7c0-1.3.2-2.7.7-3.9.4-1.2 1.1-2.3 2-3.2.9-.9 1.9-1.6 3-2.2 1.3-.5 2.6-.8 4-.8.9 0 1.6.1 2.4.2.7.2 1.3.4 2 .7l-1.6 3.5c-.4-.2-.9-.3-1.3-.5-.5-.2-1.1-.2-1.6-.2-1.3-.1-2.7.5-3.6 1.6-.9 1.2-1.4 2.7-1.3 4.2-.1.9.2 1.8.7 2.5.6.7 1.6 1.1 2.5.9.5 0 1.1-.1 1.6-.2s1-.2 1.5-.5l.3 3.6c-.6.2-1.3.5-1.9.6-.8.2-1.6.3-2.5.2-1.1 0-2.2-.2-3.2-.5-.8-.3-1.6-.9-2.2-1.5-.5-.6-1-1.4-1.3-2.2 0-.6-.2-1.5-.2-2.3zm20.1 6.8c-.9 0-1.9-.2-2.8-.5-.8-.3-1.4-.8-2-1.4-.5-.6-.9-1.3-1.2-2.1-.3-.9-.4-1.8-.4-2.7 0-1.3.2-2.5.6-3.7.4-1.2.9-2.3 1.7-3.3s1.7-1.8 2.8-2.4c1.2-.6 2.5-.9 3.8-.9.9 0 1.9.2 2.8.5.8.3 1.4.8 2 1.3.5.6.9 1.3 1.2 2.1.3.9.4 1.8.4 2.7 0 1.3-.2 2.5-.5 3.7-.4 1.2-.9 2.3-1.6 3.3-.8.9-1.7 1.8-2.8 2.3-1.3.8-2.6 1.1-4 1.1zm2.2-13.1c-.6 0-1.3.2-1.8.5-.5.4-.9.9-1.3 1.5s-.6 1.3-.8 2c-.2.6-.2 1.3-.2 2-.1.8.2 1.6.5 2.3.4.6 1.1.9 1.8.9.6 0 1.3-.2 1.8-.5.5-.4.9-.9 1.3-1.5.3-.6.6-1.3.8-2 .2-.6.2-1.3.2-2 .1-.8-.2-1.6-.5-2.3-.4-.6-1.1-.9-1.8-.9zm11.7 12.6h-4.5l3.8-16h4.5l-3.8 16zm2.2-18c-.6 0-1.2-.2-1.6-.5-.5-.4-.8-1-.8-1.7 0-.4.1-.9.2-1.2.2-.4.4-.7.7-.9.3-.3.6-.5 1-.6s.8-.2 1.2-.2c.6 0 1.2.2 1.6.5.5.4.8 1.1.8 1.7 0 .4-.1.9-.2 1.2-.2.4-.4.7-.7.9-.3.3-.6.5-1 .6-.4.2-.8.3-1.2.2zm4.9 2.8l1.2-.4c.5-.2.9-.2 1.4-.4.5-.2 1.2-.2 1.7-.3.7-.1 1.5-.1 2.2-.1 2.3 0 4 .7 4.9 2.1s1.1 3.3.5 5.6l-2.1 8.7h-4.5l2-8.4c.2-.5.2-1 .3-1.6.1-.5.1-.9 0-1.3s-.3-.7-.5-.9c-.4-.2-.9-.4-1.3-.3-.6 0-1.2.1-1.8.2l-3 12.4h-4.5l3.5-15.3zm163.2 2.7c0 8.2-6.4 14.6-14.5 14.6-7.5 0-14.5-5.8-14.5-14.6-.1-7.9 6.6-14.5 14.5-14.5 7.9-.2 14.5 6.4 14.5 14.5zM987 38.9h4.7c2 0 1.9 0 2.4-2 .2-.9-.1-1.3-1-1.3h-3.9c-3 0-2.9 0-2.2-2.9.2-.9.5-1.4 1.4-1.6s1.2-.8 1.4-1.6 0-1.1-.8-.7c-.9.4-1 0-.8-.8.4-1.3.7-2.7 1.1-4.1.2-.8 0-1.2-.9-1.2h-2.7c-.9-.1-1.3.3-1.4 1.2-.5 2.1-1.1 4.2-1.6 6.3-.2.7-.5 1.2-1.2 1.3-.9.2-1.2.9-1.3 1.6-.2.6-.2 1 .6.7s.9.2.7.8c-.2.9-.5 2-.8 2.9-.2.9 0 1.2.9 1.2 1.8.2 3.6.2 5.4.2zm43.4-3.2h-4.5c-1.1 0-1.2.2-.7 1.3 1.4 3 5.6 3.5 7.8 1.1.2-.2.5-.7.9-.6.5.1 1.3-.1 1.6.5.2.5-.2.9-.5 1.3-2.5 3-6.8 3.4-9.9 1.1-2.8-2.1-3.4-6.9-1.3-10 2-2.9 6.3-3.8 9.5-1.8 2.3 1.4 3 3.7 3 6.2 0 .8-.5.9-1.2.9h-4.7zm-1-2.1h3.4c.9.1 1.2-.3.9-1.2-.6-1.6-2.3-2.7-4.3-2.7s-3.8 1.3-4.3 2.9c-.2.8 0 1 .7.9 1.2 0 2.3 0 3.6.1zm28.2 8.1c-4.2 0-7.1-3-7-7.2 0-4.1 3-7.1 7.3-7 4.1 0 7 3 7 7.3-.1 4.1-3 7-7.3 6.9zm0-2.1c2.9 0 5-2.1 5.1-5 0-2.8-2.1-4.8-5-4.8-2.8 0-4.9 2-5 4.8-.1 2.7 2.1 5 4.9 5zm15-5v-5.5c0-.5-.1-1.2.7-1.2.6 0 1.3-.2 1.6.7.2.9.6.2.9 0 1.9-1.3 3.8-1.5 5.9-.5s2.7 2.9 2.9 5c.2 2.4 0 4.9.1 7.3 0 .9-.4 1.1-1.2 1.1s-1.1-.3-1.1-1.1v-6.8c0-2.6-1.1-3.9-3.2-3.9-2.4 0-4.1 1.6-4.1 3.9-.1 2.1 0 4.3 0 6.4 0 .9-.2 1.4-1.2 1.4-1.1 0-1.1-.6-1.1-1.4-.2-1.8-.2-3.6-.2-5.4zm-27.6 7.1c-3.4 0-5.9-1.7-7-4.7-.9-3 0-6.3 2.2-8 2.7-2 6.2-2 8.8-.3.5.3.9.6.5 1.3-.4.5-.8 1.1-1.6.6-.9-.6-2-.9-3-.9-2 .1-3.7.9-4.5 2.8-.9 2-.5 3.8.9 5.5 1.3 1.4 3.5 2 5.4 1.3.4-.2.7-.3 1-.5.9-.6 1.5 0 1.9.6.5.9-.3 1-.8 1.3-1.3.7-2.6 1.1-3.8 1zm-28.2-6.3v-4.5c0-.9-.2-1.3-1.2-1.3-.7.1-1.2-.1-1.2-.9 0-.9.5-1.2 1.3-1.1.9.1 1.2-.5 1.2-1.3v-2.7c0-.9.4-1.2 1.2-1.2s1.1.3 1.1 1.1c0 .9.1 1.8 0 2.7-.1 1 .4 1.4 1.3 1.3.5 0 1.2-.2 1.4.6.3.9-.1 1.4-1.1 1.5-1.6.1-1.6.1-1.6 1.8v8.4c0 .8.2 1.6-1.2 1.6-1.3 0-1.1-.9-1.1-1.6-.1-1.4-.1-2.9-.1-4.4zm-11.6-4.6v-9.1c0-.8.1-1.3 1.1-1.3s1.1.6 1.1 1.4v18.5c0 .8-.1 1.3-1.1 1.3s-1.1-.6-1.1-1.3v-9.5zm7.7 3.8v5.6c0 .8-.2 1.2-1.1 1.3-.9 0-1.3-.4-1.2-1.3V28.9c0-.8.2-1.2 1.1-1.3.9 0 1.3.4 1.2 1.3-.1 2 0 3.9 0 5.7zm56.5 0v5.6c0 .8-.2 1.3-1.1 1.3s-1.1-.5-1.1-1.3V28.9c0-.8.2-1.3 1.1-1.3s1.1.5 1.1 1.3v5.7zm.6-11.8c0 .9-.6 1.5-1.6 1.5-.9 0-1.6-.5-1.6-1.4s.5-1.6 1.5-1.6c.9-.1 1.6.6 1.7 1.5zm-58.3-1.5c.8 0 1.6.7 1.6 1.5 0 .9-.7 1.5-1.6 1.5s-1.6-.6-1.6-1.5c.1-.8.8-1.5 1.6-1.5z"/><path d="M893 34.1c0 .2-.2.3-.3.3H887c.2 1.4 1.2 2.7 2.7 2.7 1 0 1.7-.4 2.3-1.2.1-.1.2-.2.4-.1.1 0 .2.1.2.2v.2c-.5 1-1.7 1.5-2.8 1.5-1.9 0-3.2-1.7-3.2-3.5s1.3-3.5 3.2-3.5c1.9-.1 3.2 1.6 3.2 3.4m-.6-.3c-.2-1.4-1.2-2.7-2.7-2.7s-2.5 1.3-2.7 2.7h5.4zm7.4-3.1c.2 0 .3.2.3.3s-.2.3-.3.3h-1.5v5.9c0 .2-.2.3-.3.3s-.3-.2-.3-.3v-5.9h-1.4c-.2 0-.3-.2-.3-.3 0-.2.2-.3.3-.3h1.4v-2.2c0-.2.1-.2.2-.3.2 0 .3.1.3.3v2.2h1.6zm9.2 2.9v3.6c0 .2-.2.3-.3.3s-.3-.2-.3-.3v-3.6c0-1.2-.7-2.4-2-2.4-1.7 0-2.5 1.5-2.3 3v2.9c0 .2-.1.2-.2.3-.2 0-.3-.1-.3-.3V25.4c0-.2.2-.3.3-.3s.3.2.3.3V32c.5-.9 1.3-1.4 2.3-1.4 1.6 0 2.5 1.4 2.5 3m10.1.5c0 .2-.2.3-.3.3h-5.6c.2 1.4 1.2 2.7 2.7 2.7 1 0 1.7-.4 2.3-1.2.1-.1.2-.2.4-.1.1 0 .2.1.2.2v.2c-.5 1-1.7 1.5-2.8 1.5-1.9 0-3.2-1.7-3.2-3.5s1.3-3.5 3.2-3.5c1.7-.1 3 1.6 3.1 3.4m-.6-.3c-.2-1.4-1.2-2.7-2.7-2.7s-2.5 1.3-2.7 2.7h5.4zM926 31c0 .2-.1.3-.2.3-1.6.2-2.4 1.6-2.4 3.1v2.7c0 .2-.1.2-.2.3-.2 0-.3-.1-.3-.3V31c0-.2.1-.2.2-.3.2 0 .3.1.3.3v1.3c.5-.8 1.4-1.6 2.3-1.6.1 0 .3.1.3.3m9.2 3.1c0 .2-.2.3-.3.3h-5.6c.2 1.4 1.2 2.7 2.7 2.7 1 0 1.7-.4 2.3-1.2.1-.1.2-.2.4-.1.1 0 .2.1.2.2v.2c-.5 1-1.7 1.5-2.8 1.5-1.9 0-3.2-1.7-3.2-3.5s1.3-3.5 3.2-3.5c1.7-.1 3.1 1.6 3.1 3.4m-.6-.3c-.2-1.4-1.2-2.7-2.7-2.7s-2.5 1.3-2.7 2.7h5.4zm9.7-2.7v6.1c0 .2-.2.3-.3.3s-.3-.2-.3-.3V36c-.5.9-1.3 1.6-2.3 1.6-1.6 0-2.6-1.4-2.6-3V31c0-.2.2-.3.3-.3s.3.2.3.3v3.6c0 1.2.7 2.4 2 2.4 1.9 0 2.3-1.8 2.3-3.8V31c0-.2.2-.3.4-.2.1 0 .2.1.2.3m14.1 2.5v3.6c0 .2-.2.3-.3.3-.2 0-.3-.2-.3-.3v-3.6c0-1.2-.7-2.4-2-2.4-1.7 0-2.3 1.8-2.3 3.2v2.7c0 .2-.2.3-.3.3s-.3-.2-.3-.3v-3.6c0-1.2-.7-2.4-2-2.4-1.7 0-2.4 1.3-2.3 3.1v2.9c0 .2-.1.2-.2.3-.2 0-.3-.1-.3-.3v-6.2c0-.2.1-.2.2-.3.2 0 .3.1.3.3v1c.5-.9 1.3-1.4 2.3-1.4 1.2 0 2 .7 2.4 1.8.5-1 1.3-1.8 2.5-1.8 1.7.1 2.6 1.5 2.6 3.1" fill="#C6C6C6" stroke="#C6C6C6" stroke-miterlimit="10"/><g class="st1"><path class="st0" d="M872.2 29.1l-9.4 4.3 9.4 5.6 9.4-5.6-9.4-4.3z"/></g><g class="st4"><path class="st0" d="M862.8 33.3l9.4 5.6V17.7l-9.4 15.6z"/></g><g class="st5"><path class="st0" d="M872.2 17.7v21.1l9.4-5.6-9.4-15.5z"/></g><g class="st4"><path class="st0" d="M862.8 35.1l9.4 13.2v-7.7l-9.4-5.5z"/></g><g class="st5"><path class="st0" d="M872.2 40.6v7.7l9.4-13.2-9.4 5.5z"/></g><path class="st0" d="M1131.4 31c-.2-.1-.7-.2-1.2-.2-1.4 0-3 1.2-3 2.6v6.8h-3.3v-12h3.1v1.3c.7-.9 2-1.5 3.5-1.5.5 0 .8.1 1.1.1l-.2 2.9zm3.7-9.2c1.2 0 2.1.9 2.1 2.1s-.9 2-2.1 2-2.1-.9-2.1-2.1c0-1.2.9-2 2.1-2zm1.6 18.5h-3.3V28.2h3.3v12.1zm9.6-12.4c-1.4 0-2.6.5-3.5 1.3v-1h-3.1v18.1h3.3v-6.9c1 .8 2 1.1 3.3 1.1 1.8 0 3.5-.8 4.6-2 .9-1.1 1.6-2.6 1.6-4.2-.2-3.6-2.9-6.4-6.2-6.4zm-.3 9.7c-2 0-3.4-1.4-3.4-3.4s1.3-3.4 3.4-3.4c1.7 0 3.1 1.5 3.1 3.4s-1.4 3.4-3.1 3.4zm26.1 2.7h-3.3V22.5h3.3v17.8zm13.3-2c-1.2 1.4-3.1 2.2-5 2.2-3.6 0-6.3-2.5-6.3-6.3 0-3.4 2.3-6.3 5.9-6.3 3.4 0 5.7 2.8 5.7 6.2 0 .3 0 .6-.1.9h-8.4c.2 1.7 1.6 2.9 3.3 2.9 1.4 0 2.5-.8 3-1.4l1.9 1.8zm-3.1-5.7c-.1-1.1-1.1-2.1-2.4-2.1s-2.4 1-2.6 2.1h5zm-21.3-4.7c-1.4 0-2.6.5-3.5 1.3v-1h-3.1v18.1h3.3v-6.9c1 .8 2 1.1 3.3 1.1 1.8 0 3.5-.8 4.6-2 .9-1.1 1.6-2.6 1.6-4.2-.3-3.6-2.9-6.4-6.2-6.4zm-.4 9.7c-2 0-3.4-1.4-3.4-3.4s1.3-3.4 3.4-3.4c1.7 0 3.1 1.5 3.1 3.4s-1.4 3.4-3.1 3.4zm-43.3-1.8c-.7-.4-1.6-.5-2.3-.5-.7 0-1.7-.5-1.7-1.7 0-.9.8-1.7 1.7-1.7.8 0 1.6-.2 2.3-.5 1.3-.8 2.2-2.2 2.2-3.8 0-1.6-.9-3-2.2-3.8-1.3-.8-3-.8-4.4 0-1.3.8-2.2 2.2-2.2 3.8 0 .9.3 1.6.7 2.3.3.6.5 1.7-.6 2.3-.8.5-1.9.2-2.3-.6-.5-.7-.9-1.3-1.7-1.7-1.3-.8-3-.8-4.4 0-1.3.8-2.2 2.2-2.2 3.8s.9 3 2.2 3.8c1.3.8 3 .8 4.4 0 .7-.4 1.3-1.1 1.6-1.7.4-.5 1.3-1.3 2.3-.6.8.5 1.1 1.5.6 2.3-.4.7-.7 1.5-.7 2.3 0 1.6.9 3 2.2 3.8 1.3.8 3 .8 4.4 0 1.3-.8 2.2-2.2 2.2-3.8.1-1.7-.7-3.2-2.1-4z"/><g id="g6321" transform="translate(-9.4 96.811)"><g id="g6323" transform="translate(-8.544 -109.837) scale(1.82152)"><path id="path6325" d="M151.2 31.1c0 2.7-2.2 4.8-4.8 4.8h-26.2v-19c0-2.7 2.2-4.8 4.8-4.8h26.2v19z" fill="none"/><g id="g6327"><path id="path6338" class="st0" d="M142.6 26.2h2.2c.4-.1.7-.4.7-.9s-.3-.8-.7-.9h-2.2v1.8z"/><path id="path6349" class="st0" d="M144.4 13.7c-1.9 0-3.5 1.5-3.5 3.5v3.6h5.2c1.1.1 1.9.6 1.9 1.6 0 .8-.5 1.4-1.6 1.6 1.1.1 2 .7 2 1.7s-.9 1.7-2.2 1.7h-5.3v7h5.1c1.9 0 3.5-1.5 3.5-3.5V13.7h-5.1z"/><path id="path6360" class="st0" d="M145.3 22.6c0-.5-.3-.8-.7-.8h-2v1.7h2c.4-.2.7-.5.7-.9z"/></g><path id="path6371" class="st0" d="M125.3 13.7c-1.9 0-3.5 1.5-3.5 3.5v8.5c1 .5 2 .8 3 .8 1.2 0 1.8-.7 1.8-1.7v-4h3v4c0 1.6-1 2.8-4.2 2.8-2 0-3.5-.4-3.5-.4v7.3h5.1c1.9 0 3.5-1.5 3.5-3.5V13.7h-5.2z"/><path id="path6384" class="st0" d="M134.9 13.7c-1.9 0-3.5 1.5-3.5 3.5v4.5c.9-.7 2.4-1.2 4.8-1.1 1.3.1 2.7.4 2.7.4v1.5c-.7-.4-1.5-.7-2.6-.8-1.9-.1-3 .8-3 2.4 0 1.6 1.1 2.5 3 2.4 1.1-.1 1.9-.4 2.6-.8v1.5s-1.4.4-2.7.4c-2.4.1-4-.4-4.8-1.1v8h5.1c1.9 0 3.5-1.5 3.5-3.5V13.7h-5.1z"/></g></g><g id="layer1" transform="translate(-55.5 -1002.345)"><path class="st0" d="M372.1 1042.8h-16l-1-1.2v1.2h-3.2v-2s-.4.3-1.4.3h-1.1v1.7h-4.8l-.9-1.1-.9 1.1h-7.9v-7.5h8l.9 1.1.9-1.1h28.8l.1-.1v-25.9h-48v20.3l1.8-4.2h3.1l1 2.3v-2.3h3.9l.6 1.7.6-1.7H354v.9s.9-.9 2.4-.9h5.6l1 2.3v-2.3h3.2l.9 1.3v-1.3h3.3v7.5h-3.3l-.9-1.3v1.3h-4.8l-.5-1.2h-1.3l-.5 1.2h-3.2c-1.3 0-2.1-.8-2.1-.8v.8h-4.9l-1-1.2v1.2H330l-.5-1.2h-1.3l-.5 1.2h-2.1v24.4h48v-14.9c-.2.1-.9.4-1.5.4z"/><path id="path3046" class="st0" d="M328 1026.3l-2.4 5.6h1.6l.4-1.1h2.6l.4 1.1h1.6l-2.4-5.6H328zm.9 1.3l.8 2h-1.6l.8-2z"/><path id="path3048" class="st0" d="M332.5 1032v-5.6h2.2l1.3 3.6 1.3-3.6h2.2v5.6h-1.4v-4.2l-1.5 4.2h-1.2l-1.5-4.2v4.2h-1.4z"/><path id="path3050" class="st0" d="M340.5 1032v-5.6h4.6v1.3h-3.2v1h3.1v1.2h-3.1v1h3.2v1.2l-4.6-.1z"/><path id="path3052" class="st0" d="M345.9 1026.3v5.6h1.4v-2h.6l1.7 2h1.7l-1.9-2.1c.8-.1 1.5-.7 1.5-1.7 0-1.2-.9-1.8-2-1.8h-3zm1.4 1.3h1.6c.4 0 .7.3.7.6 0 .4-.4.6-.6.6h-1.6v-1.2h-.1z"/><path id="path3054" class="st0" d="M353 1032h-1.4v-5.6h1.4v5.6z"/><path id="path3056" class="st0" d="M356.4 1032h-.3c-1.5 0-2.4-1.2-2.4-2.8 0-1.7.9-2.8 2.8-2.8h1.6v1.3h-1.6c-.8 0-1.3.6-1.3 1.5 0 1.1.6 1.6 1.5 1.6h.4l-.7 1.2z"/><path id="path3058" class="st0" d="M359.5 1026.3l-2.4 5.6h1.6l.4-1.1h2.6l.4 1.1h1.6l-2.4-5.6h-1.8zm.9 1.3l.8 2h-1.6l.8-2z"/><path id="path3060" class="st0" d="M363.9 1032v-5.6h1.8l2.3 3.5v-3.5h1.4v5.6h-1.7l-2.3-3.6v3.6h-1.5z"/><path id="path3062" class="st0" d="M335.9 1041.8v-5.6h4.6v1.3h-3.2v1h3.1v1.2h-3.1v1h3.2v1.2l-4.6-.1z"/><path id="path3064" class="st0" d="M358.4 1041.8v-5.6h4.6v1.3h-3.2v1h3.1v1.2h-3.1v1h3.2v1.2l-4.6-.1z"/><path id="path3066" class="st0" d="M340.7 1041.8l2.2-2.8-2.3-2.9h1.8l1.4 1.8 1.4-1.8h1.7l-2.3 2.8 2.2 2.8H345l-1.3-1.7-1.3 1.7-1.7.1z"/><path id="path3068" class="st0" d="M347 1036.2v5.6h1.4v-1.8h1.5c1.3 0 2.2-.7 2.2-2 0-1.1-.7-1.9-2-1.9H347v.1zm1.4 1.3h1.6c.4 0 .7.2.7.6s-.3.6-.7.6h-1.6v-1.2z"/><path id="path3072" class="st0" d="M352.7 1036.2v5.6h1.4v-2h.6l1.7 2h1.7l-1.9-2.1c.8-.1 1.5-.7 1.5-1.7 0-1.2-.9-1.8-2-1.8h-3zm1.4 1.2h1.6c.4 0 .7.3.7.6 0 .4-.4.6-.6.6h-1.6v-1.2h-.1z"/><path id="path3074" class="st0" d="M363.7 1041.8v-1.2h2.8c.4 0 .6-.2.6-.5 0-.2-.2-.5-.6-.5h-1.3c-1.1 0-1.7-.7-1.7-1.7 0-.9.6-1.8 2.2-1.8h2.7l-.6 1.3h-2.4c-.5 0-.6.2-.6.5 0 .2.2.5.5.5h1.3c1.2 0 1.8.7 1.8 1.6 0 1-.6 1.8-1.8 1.8h-2.9z"/><path id="path3076" class="st0" d="M368.9 1041.8v-1.2h2.8c.4 0 .6-.2.6-.5 0-.2-.2-.5-.6-.5h-1.3c-1.1 0-1.7-.7-1.7-1.7 0-.9.6-1.8 2.2-1.8h2.7l-.6 1.3h-2.4c-.5 0-.6.2-.6.5 0 .2.2.5.5.5h1.3c1.2 0 1.8.7 1.8 1.6 0 1-.6 1.8-1.8 1.8h-2.9z"/></g><path class="st0" d="M343.6 45.2c-7.1.6-13.3-6.3-13.4-12.9 0-7.3 5.9-13.3 13.2-13.5 7.4 0 13.4 5.9 13.5 13.2.1 7.4-6.5 13.7-13.3 13.2zm.5-13.2v-5.1c0-.7.3-1 1-1h3.1c.4 0 1.1.2 1.1-.4s-.7-.4-1.1-.4h-9.1c-.3 0-.6 0-.6.4s.3.3.6.4c1.1 0 2.2.1 3.3 0 .9 0 1.2.3 1.2 1.2v9.2c0 1.7 0 1.7-1.6 1.9-.2 0-.5 0-.5.2s.3.3.5.3h3.3c.3 0 .8.2.8-.3s-.5-.3-.7-.2c-1 .1-1.3-.4-1.2-1.3 0-1.7-.1-3.3-.1-4.9zm4.9.6h-1.7c-.2 0-.5-.1-.6.2s.2.4.3.5c1.2.8 2.8.7 4-.1.1-.1.2-.3.2-.4 0-.1-.3-.2-.5-.2H349zm-10.1 1.3c.6 0 1.2-.3 1.7-.7.2-.1.3-.2.3-.5-.1-.2-.2-.2-.4-.2h-3.7c-.2 0-.4 0-.4.2s.1.3.2.4c.7.6 1.5.8 2.3.8zm1.8-2.4c-.3-1.5-.9-3-1.6-4.4-.2-.5-.5-.1-.6.2-.7 1.2-1.1 2.5-1.6 3.8-.1.2-.4.4 0 .6.4.1.4-.2.5-.4.3-.8.7-1.6 1-2.5.1-.3.1-.6.5-.7s.5.4.6.7c.1 1 .5 1.9 1.2 2.7zm10.1.1l.3-.1-1.8-4.1c-.1-.2-.1-.4-.3-.4-.2 0-.3.3-.4.5-.4.8-.8 1.6-1.1 2.4-.2.5-.7 1.1-.4 1.8.7-.7.7-1.5 1.1-2.2.3-.4.2-1.3.8-1.2.5 0 .5.8.7 1.3.2.6.6 1.4 1.1 2zm37.5 3.2c-1.4 1.2-2.7 2.5-3.9 3.9-.8 1-1.4 2.1-3.1 2.2-1.1.1-2.3.2-3.4.3-.4 0-.7-.1-1.1-.3-1.1-.5-1.6-1.8-1.1-2.8.2-.4.4-.7.8-.9.6-.3.8-1 .6-1.6-.2-.8.1-1.6.8-2.1 1.3-1.3 2.9-2.1 4.7-2.3.7-.2 1.4.1 1.7.7.3.6-.1 1.1-.5 1.6-.4.4-1.2 1.1-1.8.6-1-.6-1.4.1-2 .5.1.3.3.2.4.2.5-.2 1.1 0 1.3.5 0 .1 0 .1.1.2.2.7-.4 1.1-.9 1.2-.8.3-1.6.8-2.3 1.3-.2.1-.4.3-.3.6s.4.3.6.3c1.3.3 2.6-.3 3.2-1.5 1.1-1.8 2.1-3.5 3.2-5.4.4-.6 1-1 1.7-1.1.5 0 .9.1.9.6 0 .6.4.4.6.2.5-.4 1.1-.7 1.8-.8 1.4-.2 2.1.7 1.6 2-.6 1.1-1.3 2.2-2 3.2-.4.6-.7 1.2-1 1.8-.1.2-.3.5 0 .7.2.1.5.1.7 0 1-.6 1.9-1.4 2.6-2.4.8-1.3 1.6-2.7 2.4-4.1.4-.7.9-1.2 1.7-.7.8.5.5 1.1.1 1.8-.8 1.6-1.6 3.1-2.5 4.7.4.1.6-.2.7-.4 1.8-1.6 3.3-3.4 4.6-5.5.2-.3.5-.6.8-.8.5-.3 1.1-.3 1.6 0 .5.4.2 1-.1 1.4-.9 1.4-1.7 3-2.3 4.6-.1.4-.5 1.1-.1 1.3s.8-.3 1.1-.6l.7-.7c.5-.5.9-1.1 1.5.1.4.6 1.1 1.1 1.8 1.4.8.2 1.5-.3 2.3-.5.1-.1.2-.2.2-.3 0-.2-.1-.3-.3-.3-.6-.2-1.2-.4-1.8-.5-.9-.2-1.8-.5-2-1.5-.3-1 .1-2 .9-2.7 1.3-1.1 2.8-1.9 4.5-2.3.8-.3 1.6-.4 2.4-.2.6.2 1.1.6 1.1 1.3 0 .9-.6 1.6-1.5 1.9-.5.4-1.1.3-1.5-.2 0 0 0-.1-.1-.1-.3-.5-.6-.4-1-.3-.7.2-1.4.6-2 1.1-.2.1-.4.3-.3.6s.3.2.5.2c.7.1 1.5.3 2.1.5.8.2 1.5.8 1.7 1.6.2.9-.2 1.8-1 2.3-1.5 1.1-3.3 1.7-5.2 1.5-.6-.1-1.2-.2-1.4-.7-.4-1-.7-.5-1.2-.1-.6.5-1.4.8-2.1.8-.8.1-1.6-.4-1.8-1.2-.2-.8-.6-.7-1.1-.2-.4.4-.9.8-1.4 1.1-.8.5-1.9.4-2.6-.3-.4-.4-.7-.3-1 0-.5.4-1 .6-1.6.6-1.2.2-2.4-.6-2.6-1.9-.1-.5 0-.9.2-1.4.6-.6 1.2-1.6 1.7-2.7zm66.4-4.1h-1.8c-.8-.1-1.1-.7-.6-1.3.4-.7 1.2-1.2 2.1-1.1 1.3.3 2.6-.4 3.1-1.6.3-.5.8-.8 1.4-.8 1 0 1.3.5.8 1.3s-.5 1.1.5 1.1c.6 0 1.1.5 1.1 1.1v.1c-.1.7-.7.8-1.3.9h-.6c-1.2-.1-2.4.6-2.9 1.7-1 2-2.4 3.9-3.1 6-.1.3-.4.6 0 .9.4.3.6 0 .9-.2.6-.5 1.3-.9 1.9-1.4.2-.2.5-.4.8-.3.3.1.4.5.4.8s0 .6-.2.8c-.9 1.4-2.3 2.3-4 2.5-.7.1-1.5-.2-1.9-.8-.4-.5-.7-.5-1.2-.2-.4.4-1 .7-1.5.9-.9.3-1.9 0-2.5-.7-.6-.9-.7-2-.2-2.9.4-1.1 1-2.1 1.7-3-.4.1-.8.3-1.1.7-1.5 1.4-2.8 2.9-4 4.5-.5.7-1.1 1.2-2 .9-.4-.1-.8 0-1.1.2-.7.3-1.4.4-2.1.3-1.1-.1-2-1-2-2.2 0-.3.1-.5.2-.7.5-1.1 1-2.2 1.7-3.2.2-.3.4-.6.4-1 .1-1.4 1.1-2.6 2.5-3 .4 0 .8.2 1.1.6.3.4.3.9 0 1.3-.9 1.5-1.7 3-2.6 4.5-.2.4-.9 1-.4 1.4s1-.3 1.4-.6c2-1.4 3.1-3.4 4.2-5.5.3-.7.9-1.3 1.6-1.5.6-.2 1.3-.4 1.4.6.1.5.4.3.7.1.5-.4 1.1-.7 1.8-.8.6-.2 1.2 0 1.6.5s.4 1.2 0 1.7c-.8 1.5-2 2.8-2.7 4.3-.2.4-.6.8-.2 1.1s.9 0 1.2-.3c1.1-1 2.4-1.8 3-3.3.7-1.5 1.6-3 2.5-4.4zm-87.5-1c-.7.1-1.1.2-1.6.2s-1-.4-1.2-.9c-.2-.6-.1-1.3.4-1.7.3-.4.7-.6 1.2-.2.3.2.6 0 .8-.2l2.9-2c.2-.2.5-.4.7-.5.8-.4 1.7-.4 2.4.2.6.7.2 1.4-.3 1.9-1.8 2.6-3.7 5.2-5.4 7.9-.5.9-1.1 1.7-1.5 2.6-.2.3-.6.8-.2 1.2.4.3.8 0 1.2-.2 1.2-.7 2.4-1.5 3.4-2.5 2.9-2.5 5.4-5.4 7.6-8.5.5-.7 1.1-1.4.6-2.3 0-.1 0-.3.1-.4.7-.6 1.6-.9 2.5-.7.7.3 1 1.2.8 1.9-.4 1-.9 1.9-1.5 2.8-3 4.5-6.9 8.3-11.4 11.3-.9.6-1.8 1-2.8 1.3-1.2.6-2.7.1-3.4-1.1-.4-.7-.3-1.6 0-2.3.6-1.7 1.4-3.2 2.5-4.7.7-1.1 1.4-2 2.2-3.1zm55.7-3.2c-1.5.4-3 1.1-4.4 1.9-.4.2-.9.5 0 .8.6.2.4.6 0 .9-.5.5-1.2.8-2 .8-.6.1-1.2-.2-1.5-.8-.4-.8-.3-1.7.2-2.4 1.1-1.3 2.5-2.2 4.1-2.7 2.8-1 5.8-1.3 8.8-.8 1.1.2 2.1.7 2.9 1.4 1 .7 1.4 2.1.8 3.2-1 2.5-3.1 4.3-5.6 5.2-1.6.7-3.2 1.1-4.8.3-.5-.3-.7.2-.9.5-1.1 1.7-2.1 3.3-3.1 5-.3.6-.9 1.1-1.7 1.1-1.3 0-1.7-.5-1.1-1.7s1.3-2.3 2-3.4c2-3 3.8-6 6.1-8.9.1-.1.2-.2.2-.4zm3.5-.1c-.4-.1-.6-.1-.8.2-.8 1.7-2.1 3.2-3 4.8-.1.2-.4.4-.2.7.2.3.5.2.8.2 2.1-.3 3.9-1.4 5.2-3.1 1.1-1.3.5-2.5-1.2-2.8h-.8zm9.6 7.1c-.2 1.4-.8 2.7-1.7 3.8-1.1 1.7-2.7 3-4.6 3.8-1.2.6-2.6.1-3.2-1-.2-.5-.3-1-.2-1.5.3-2.9 3.4-6.4 6.2-7.1 1.1-.1 2.2.2 3.1.9.5 0 .4.6.4 1.1zm-2.6.6c0-.6-.5-.8-1.1-.5-1.8 1-3.1 2.7-3.7 4.7-.1.2-.1.4.1.5s.4.1.6 0c1.8-1.1 3.2-2.7 4-4.6.1 0 .1 0 .1-.1zm8.4-3.7c-.5 0-.9-.3-.9-.8v-.2c.1-1.1.9-2 1.9-2.1.5-.1 1 .3 1.1.9v.1c-.1 1-1 1.9-2.1 2.1zm190.6-9.5c-9.8 0-17.6 4.6-17.6 10.3 0 2.4 1.4 4.7 3.8 6.4-1.2-1.3-1.8-3-1.9-4.8 0-5.9 7.7-10.7 17.2-10.7 6.1 0 11.5 2 14.5 5-2.6-3.6-8.8-6.2-16-6.2z"/><path class="st0" d="M624.5 30.1c.5-.4 1.2-.6 1.9-.6s1.3.2 1.9.6c.5.4.8 1 .9 1.6h-5.6c.1-.6.4-1.2.9-1.6zm6.3 4.1c.6 0 1.3-.2 1.7-.5.5-.3.8-.9.8-1.5 0-1.2-.4-2.3-1.2-3.3-1.4-1.8-3.5-2.8-5.8-2.8-1.9-.1-3.8.7-5.2 2-1.3 1.3-2 3-2 4.8 0 1.9.7 3.6 2.1 4.8 1.4 1.3 3.3 2 5.2 2 1.1 0 2.2-.2 3.2-.5 1-.2 2-.8 2.7-1.6.3-.3.5-.7.5-1.2 0-1-.5-1.5-1.6-1.5-.6.2-1.3.3-1.9.6-.8.4-1.7.6-2.6.6-.8 0-1.6-.2-2.2-.6-.6-.4-.9-1-1-1.7l7.3.4zm4.8 3.8c1.3 1.3 3.2 2 5.2 2 1.1 0 2.2-.2 3.2-.5 1.2-.5 1.8-1.2 1.8-2 0-.5-.2-.9-.5-1.2s-.8-.5-1.2-.5c-.5 0-.9.2-1.3.3-.5.2-1.1.3-1.6.3-.9.1-1.7-.3-2.3-.9-.5-.6-.8-1.5-.7-2.3 0-.8.2-1.6.7-2.3.5-.7 1.4-1 2.3-1 .5 0 1.2.1 1.6.3.4.2.9.3 1.3.3.5 0 .9-.2 1.3-.5.3-.3.5-.7.5-1.2 0-.9-.5-1.6-1.7-2-.9-.3-2-.5-3-.5-2-.1-3.8.6-5.3 1.9-1.3 1.3-2 3.1-2 4.9-.2 1.8.5 3.5 1.7 4.9zm15.4-7.2c.9-1.2 2.7-1.4 3.8-.5l.5.5c.5.6.7 1.4.7 2.2s-.2 1.6-.6 2.2c-.5.7-1.3 1.1-2.1 1-.9 0-1.6-.4-2.1-1s-.7-1.4-.7-2.2c-.2-.8 0-1.5.5-2.2zm-3.1 7.2c3 2.7 7.5 2.7 10.4 0 1.3-1.3 2-3 2-4.8.1-1.9-.6-3.6-2-4.9s-3.3-2-5.2-2c-2-.1-3.8.6-5.2 2-1.3 1.3-2 3-2 4.9 0 1.7.7 3.5 2 4.8zm18.3-1v-3h3c1.7.1 3.5-.5 4.8-1.6 1.3-1.1 1.9-2.7 1.8-4.4.1-1.7-.6-3.4-2-4.4-1.5-1.1-3.2-1.6-5-1.5H665c-.9-.1-1.6.2-2.3.6-.5.6-.7 1.4-.6 2.2v12c0 1.9.7 2.8 2.2 2.8 1.2.1 1.9-.8 1.9-2.7zm0-11.2h2c2 0 3 .8 3 2.3 0 1.6-1 2.3-3 2.3h-1.9l-.1-4.6zm21.8 14c1.4 0 2.1-.9 2.1-2.8v-7.8c0-1.9-.7-2.8-2.1-2.8-.9 0-1.6.5-2 1.3-.9-.9-2.1-1.4-3.4-1.4-1.9-.1-3.6.8-4.8 2.1-2.3 2.7-2.3 6.6-.1 9.3 1.2 1.4 2.9 2.2 4.7 2.1 1.3.1 2.7-.5 3.6-1.4.4.9 1.2 1.4 2 1.4zm-6.9-8.9c.5-.6 1.3-1 2-.9.8-.1 1.6.3 2 .9.5.6.6 1.3.6 2.1s-.2 1.5-.6 2.1c-.5.7-1.3 1.1-2 1.1s-1.6-.3-2.1-1c-.5-.6-.7-1.4-.6-2.1 0-.8.3-1.6.7-2.2zm18.9-3l-2.6 6.2-2.4-5.8c-.2-.5-.4-.9-.7-1.3-.4-.4-.9-.5-1.4-.5s-1.1.2-1.5.5-.5.9-.5 1.3.1.7.2 1.1l4.3 9.1-1.7 3.4c-.2.4-.3.9-.4 1.3 0 .5.2 1 .5 1.3.4.3.9.5 1.5.5.8 0 1.4-.5 1.9-1.6l6.5-13.9c.2-.4.3-.9.3-1.3 0-1.3-.7-1.9-2.1-1.9-.9.2-1.4.6-1.9 1.6zm14.4 8.2h-4.2l5.6-6.6c.5-.5.8-1 .9-1.6.1-.5-.2-.9-.6-.9-.6-.2-1.3-.2-2-.2h-6.8c-1.8 0-2.7.5-2.7 1.7s.9 1.8 2.7 1.8h3.7l-6 6.7c-.4.4-.6.9-.6 1.5 0 .9.8 1.2 2.3 1.2h7.7c1.8 0 2.7-.6 2.7-1.8s-1-1.8-2.7-1.8zm-221.8-8.4h7.3c1.2 0 2.1.3 2.8.9s1 1.4 1 2.2c0 .7-.2 1.4-.7 1.9-.3.4-.8.6-1.4.8.9.2 1.6.6 2 1.1s.6 1.2.6 2c0 .7-.2 1.2-.5 1.8-.3.5-.7.9-1.3 1.2-.3.2-.8.3-1.5.4-.9.1-1.5.2-1.8.2h-6.7l.2-12.5zm3.9 4.9h1.7c.6 0 1-.1 1.3-.3s.4-.5.4-.9-.1-.7-.4-.9c-.2-.2-.7-.3-1.2-.3h-1.7l-.1 2.4zm0 5h2c.7 0 1.1-.1 1.4-.4s.4-.6.4-1-.1-.7-.4-.9-.8-.3-1.4-.3h-2v2.6zm17.2.6h-4.4l-.6 2.1h-4l4.7-12.6h4.2l4.7 12.6h-4.1l-.5-2.1zm-.8-2.7l-1.4-4.5-1.4 4.5h2.8zm6.8-7.8h3.6l4.7 7v-7h3.7v12.6H528l-4.7-6.9v6.9h-3.7l.1-12.6zm14.6 0h3.9v4.8l4.1-4.8h5.2l-4.6 4.8 4.8 7.8h-4.8l-2.6-5.2-2 2.1v3.1h-3.9V27.7h-.1zm13.4 0h3.7l1.3 7 1.9-7h3.7l1.9 7 1.3-7h3.7l-2.8 12.6h-3.8l-2.2-7.9-2.2 7.9h-3.8l-2.7-12.6zm19 0h3.9v12.6h-3.9V27.7zm6.8 12.6V27.7h6.5c1.2 0 2.1.1 2.8.3.6.2 1.2.6 1.5 1.2.4.6.6 1.2.6 2 0 .7-.1 1.3-.4 1.8-.3.5-.7.9-1.2 1.2-.3.2-.8.4-1.4.5.5.2.8.3 1 .5.1.1.4.3.6.7.3.3.5.6.5.8l1.9 3.6h-4.4l-2.1-3.8c-.3-.5-.5-.8-.7-1-.3-.2-.6-.3-1-.3h-.3v5.1h-3.9zm3.9-7.5h1.6c.2 0 .5-.1 1-.2.3-.1.5-.2.6-.4s.2-.5.2-.7c0-.4-.1-.7-.4-.9-.3-.2-.7-.3-1.5-.3h-1.7v2.5h.2zm9.7-5.1h10.4v2.7H591v2h6V35h-6v2.5h6.7v2.8h-10.6V27.7zm-108.7 0h11.7v2.5h-11.7zm0 5h11.7v2.5h-11.7zm0 5.1h11.7v2.5h-11.7z"/></svg>