<?xml version="1.0" encoding="utf-8"?>
<!-- Generator: Adobe Illustrator 25.2.3, SVG Export Plug-In . SVG Version: 6.00 Build 0)  -->
<svg version="1.1" id="Providers" xmlns="http://www.w3.org/2000/svg" xmlns:xlink="http://www.w3.org/1999/xlink" x="0px" y="0px"
	 viewBox="0 0 1200 60" style="enable-background:new 0 0 1200 60;" xml:space="preserve">
<style type="text/css">
	.st0{fill:#C6C6C6;}
	.st1{opacity:0.6;}
	.st2{display:none;}
	.st3{display:inline;fill:#C6C6C6;}
	.st4{fill:none;stroke:#C6C6C6;stroke-miterlimit:10;}
	.st5{fill:#C6C6C6;stroke:#C6C6C6;stroke-miterlimit:10;}
	.st6{opacity:0.45;}
	.st7{opacity:0.8;}
	.st8{fill:none;}
</style>
<path class="st0" d="M121.7,47.6l0.1,0.2h-0.1l0.1,0.1h-0.1l-0.1-0.1v0.1L121.7,47.6z M121.7,48.1h0.2L122,48v-0.2l-0.1-0.1
	l-0.1-0.1h-0.2c0,0-0.1,0-0.1,0.1l-0.1,0.1V48c0,0,0,0.1,0.1,0.1H121.7 M121.7,47.4h0.2c0,0,0.1,0,0.1,0.1l0.1,0.1V48H122l-0.1,0.1
	h-0.3c0,0-0.1,0-0.1-0.1l-0.1-0.1v-0.4c0,0,0-0.1,0.1-0.1H121.7 M84.5,46.1c0-0.7,0.6-1.2,1.2-1.2c0.7,0,1.2,0.6,1.2,1.2
	c0,0.7-0.5,1.2-1.2,1.2C85.1,47.3,84.6,46.8,84.5,46.1 M87.8,46.1v-1.9h-0.9v0.5c-0.3-0.4-0.8-0.6-1.3-0.6c-1.1,0-2,0.9-2,2
	s0.9,2,2,2c0.5,0,0.9-0.2,1.3-0.6V48h0.9V46.1z M117,46.1c0-0.7,0.6-1.2,1.2-1.2s1.2,0.6,1.2,1.2c0,0.7-0.5,1.2-1.2,1.2
	C117.6,47.3,117.1,46.8,117,46.1 M120.3,46.1v-3.5h-0.9v2c-0.3-0.4-0.8-0.6-1.3-0.6c-1.1,0-2,0.9-2,2s0.9,2,2,2
	c0.5,0,0.9-0.2,1.3-0.6v0.5h0.9C120.3,47.9,120.3,46.1,120.3,46.1z M98.5,44.8c0.5,0,1,0.4,1,0.9h-2.1C97.5,45.1,98,44.7,98.5,44.8
	 M98.5,44c-1,0-1.9,0.8-2,1.8V46c0,1.1,0.8,2,1.8,2h0.2c0.6,0,1.2-0.2,1.6-0.5l-0.4-0.6c-0.3,0.2-0.7,0.4-1.2,0.4
	c-0.6,0.1-1.1-0.3-1.2-0.9h3v-0.3c0.1-1-0.7-1.9-1.7-2L98.5,44 M109,46.1c0-0.7,0.5-1.2,1.2-1.2s1.2,0.5,1.2,1.2s-0.5,1.2-1.2,1.2
	C109.6,47.3,109,46.8,109,46.1 M112.2,46.1v-1.9h-0.9v0.5c-0.3-0.4-0.8-0.6-1.3-0.6c-1.1,0-2,0.9-2,2s0.9,2,2,2c0.5,0,1-0.2,1.3-0.6
	V48h0.9V46.1z M104.1,46.1c0,1.1,0.8,2,1.9,2h0.2c0.5,0,1-0.1,1.4-0.5l-0.4-0.7c-0.3,0.2-0.7,0.3-1.1,0.3c-0.7-0.1-1.2-0.7-1.1-1.3
	c0.1-0.6,0.5-1,1.1-1.1c0.4,0,0.8,0.1,1.1,0.3l0.4-0.7c-0.4-0.3-0.9-0.5-1.4-0.5c-1.1-0.1-2,0.7-2.1,1.8L104.1,46.1 M115.3,44.1
	c-0.4,0-0.8,0.2-1.1,0.6v-0.5h-0.8V48h0.9v-2.1c0-0.6,0.3-1,0.8-1c0.2,0,0.4,0,0.5,0.1l0.3-0.8C115.7,44,115.5,44,115.3,44.1
	 M92.1,44.4C91.6,44.1,91,44,90.5,44c-1,0-1.7,0.5-1.7,1.2s0.5,1,1.4,1.1l0.4,0.1c0.5,0.1,0.7,0.2,0.7,0.4s-0.3,0.5-0.9,0.5
	c-0.5,0-0.9-0.1-1.3-0.4l-0.4,0.6c0.5,0.3,1.1,0.5,1.7,0.5c1.1,0,1.8-0.5,1.8-1.2s-0.5-1.1-1.4-1.1l-0.4-0.1c-0.4,0-0.7-0.1-0.7-0.4
	s0.3-0.5,0.8-0.5c0.4,0,0.9,0.1,1.2,0.3C91.7,45,92.1,44.4,92.1,44.4z M103.3,44c-0.4,0-0.8,0.2-1.1,0.6v-0.4h-0.9V48h0.9v-2.1
	c0-0.6,0.3-1,0.9-1c0.2,0,0.4,0,0.5,0.1l0.3-0.8C103.7,44,103.5,44,103.3,44 M95.9,44.1h-1.4V43h-0.9v1.1h-0.8v0.8h0.8v1.7
	c0,0.9,0.4,1.4,1.4,1.4c0.4,0,0.7-0.1,1.1-0.3L95.9,47c-0.2,0.1-0.5,0.2-0.8,0.2c-0.4,0-0.6-0.3-0.6-0.6v-1.7h1.4
	C95.9,44.9,95.9,44.1,95.9,44.1z M82.9,47.9v-2.4c0-0.8-0.6-1.5-1.4-1.5h-0.2c-0.6,0-1.1,0.2-1.4,0.7c-0.3-0.4-0.8-0.7-1.3-0.7
	s-0.9,0.2-1.2,0.6V44h-0.8v3.8h0.9v-2.1c-0.1-0.5,0.3-1,0.8-1h0.2c0.6,0,0.9,0.4,0.9,1v2.1h0.8v-2.1c-0.1-0.5,0.3-1,0.8-1h0.2
	c0.6,0,0.9,0.4,0.9,1v2.1C82.1,47.8,82.9,47.8,82.9,47.9z M122.2,35.3v-0.6H122l-0.2,0.4l-0.2-0.4h-0.2v0.6h0.1v-0.4l0.2,0.4h0.1
	l0.2-0.4v0.4H122.2L122.2,35.3z M121.2,35.3v-0.5h0.2v-0.1h-0.5v0.1h0.2L121.2,35.3z"/>
<g class="st1">
	<path class="st0" d="M92.6,26.4c0-4.4,2.2-8.6,5.7-11.2c-2.7-2-5.9-3.1-9.3-3.1c-8.3,0-15,6.4-15,14.3s6.7,14.3,15,14.3
		c3.3,0,6.6-1,9.3-3C94.8,35,92.7,30.9,92.6,26.4"/>
</g>
<g class="st1">
	<path class="st0" d="M122.6,26.4c0,7.9-6.7,14.3-15,14.3c-3.3,0-6.6-1.1-9.2-3.1c6.2-4.5,7.6-13.2,3.2-19.4
		c-0.9-1.2-1.9-2.3-3.2-3.2c2.7-2,5.9-3.1,9.3-3.1C116,12.1,122.7,18.5,122.6,26.4"/>
</g>
<path class="st0" d="M98.4,37.7c-6.2-4.5-7.6-13.3-3-19.5c0.9-1.2,1.9-2.2,3-3c6.2,4.5,7.6,13.3,3,19.5
	C100.6,35.8,99.6,36.8,98.4,37.7z"/>
<g id="g4158" class="st2">
	<path id="polygon9" class="st3" d="M59.6,44.9h-7.7l4.8-29.8h7.7L59.6,44.9z"/>
	<path id="path11" class="st3" d="M87.5,15.9c-2.2-0.8-4.5-1.3-6.9-1.3c-7.6,0-13,4.1-13,9.9c-0.1,4.3,3.8,6.7,6.8,8.1
		c2.9,1.4,4,2.4,4,3.7c0,2-2.4,2.9-4.6,2.9c-2.5,0.1-5-0.5-7.2-1.6l-1-0.5l-1.1,6.7c2.7,1.1,5.6,1.6,8.6,1.6c8.1,0,13.4-4,13.4-10.2
		c0-3.4-2-6-6.4-8.1c-2.7-1.4-4.3-2.3-4.3-3.7c0-1.4,1.4-2.6,4.4-2.6c2,0,3.9,0.4,5.7,1.2l0.7,0.3L87.5,15.9z"/>
	<path id="path13" class="st3" d="M97.7,34.4c0.6-1.7,3.1-8.3,3.1-8.3s0.6-1.7,1-2.8l0.5,2.6c0,0,1.5,7.1,1.8,8.6
		C104.1,34.5,97.7,34.4,97.7,34.4z M107.3,15.1h-6c-1.8-0.2-3.4,0.8-4,2.5L85.9,44.9H94c0,0,1.3-3.7,1.6-4.5h9.9l0.9,4.5h7.1
		C113.5,44.9,107.3,15.1,107.3,15.1z"/>
	<path id="path15" class="st3" d="M45.4,15.1l-7.5,20.3l-0.8-4.1c-1.4-4.8-5.8-9.9-10.7-12.5l6.9,26.1h8.1l12.2-29.8
		C53.6,15.1,45.4,15.1,45.4,15.1z"/>
	<path id="path17" class="st3" d="M30.9,15.1H18.5l-0.1,0.6c9.7,2.5,16.1,8.4,18.7,15.6l-2.7-13.7C33.9,15.7,32.5,15.2,30.9,15.1z"
		/>
</g>
<path class="st4" d="M695.8,34.8c-1.6,6.5-8.1,10.4-14.6,8.8s-10.4-8.1-8.8-14.5s8.1-10.4,14.6-8.8S697.4,28.4,695.8,34.8
	L695.8,34.8z"/>
<path class="st0" d="M689.4,30.2c0.2-1.6-1-2.5-2.7-3l0.5-2.2l-1.3-0.3l-0.5,2.1c-0.3-0.1-0.7-0.2-1.1-0.2l0.5-2.1l-1.3-0.3
	l-0.5,2.2l-0.9-0.2l-1.7-0.5L680,27c0,0,1,0.2,0.9,0.2c0.4,0.1,0.6,0.4,0.6,0.8l-0.6,2.5l0.2,0.1H681l-0.9,3.4
	c-0.1,0.2-0.3,0.4-0.6,0.3l-0.9-0.2l-0.6,1.5l1.7,0.4l0.9,0.2l-0.5,2.2l1.3,0.3l0.5-2.2l1,0.2l-0.5,2.1l1.3,0.3l0.5-2.2
	c2.3,0.4,3.9,0.2,4.7-1.8c0.6-1.2,0.2-2.5-1-3.1c-0.1-0.1-0.2-0.1-0.2-0.1C688.7,32,689.3,31.2,689.4,30.2L689.4,30.2z M686.4,34.5
	c-0.4,1.6-3.2,0.8-4.1,0.5l0.7-2.9C683.9,32.3,686.8,32.7,686.4,34.5L686.4,34.5z M686.8,30.2c-0.4,1.5-2.7,0.7-3.4,0.5L684,28
	C684.8,28.3,687.2,28.7,686.8,30.2L686.8,30.2z M707.4,27.2c0.9,0,1.7,0.2,2.5,0.5c0.7,0.3,1.3,0.8,1.8,1.4s0.9,1.3,1,2.1
	c0.2,0.9,0.3,1.6,0.3,2.5c0,1.3-0.2,2.7-0.8,4c-0.5,1.3-1.3,2.3-2.1,3.3c-0.9,0.9-2,1.6-3.2,2.2c-1.3,0.5-2.6,0.9-4,0.9H702
	c-0.5,0-1-0.1-1.6-0.2c-0.6-0.1-1.3-0.2-1.9-0.4c-0.6-0.2-1.3-0.4-1.9-0.7l5.2-22.1l4.7-0.7l-1.9,7.8c0.4-0.2,0.8-0.3,1.3-0.4
	C706.5,27.3,706.9,27.2,707.4,27.2L707.4,27.2z M703.4,40.2c0.7,0,1.4-0.2,2-0.5s1.2-0.8,1.6-1.4c0.5-0.6,0.9-1.3,1.1-2
	c0.2-0.7,0.4-1.5,0.4-2.3c0.1-0.8-0.2-1.6-0.5-2.3c-0.4-0.6-1.1-0.9-1.8-0.9c-0.4,0-0.8,0.1-1.1,0.2c-0.5,0.1-0.9,0.3-1.3,0.6
	l-2,8.4l0.3,0.1h0.7C702.8,40.1,703.4,40.2,703.4,40.2z M718,43.5h-4.5l3.8-16h4.5L718,43.5z M720.1,25.5c-0.6,0-1.2-0.2-1.6-0.5
	c-0.5-0.4-0.8-1-0.8-1.7c0-0.4,0.1-0.9,0.2-1.2c0.2-0.4,0.4-0.7,0.7-0.9c0.3-0.3,0.6-0.5,1-0.6s0.8-0.2,1.2-0.2
	c0.6,0,1.2,0.2,1.6,0.5c0.5,0.4,0.8,1,0.8,1.7c0,0.4-0.1,0.9-0.2,1.2c-0.2,0.4-0.4,0.7-0.7,0.9c-0.3,0.3-0.6,0.5-1,0.6
	S720.5,25.6,720.1,25.5z M725.7,23.5l4.7-0.7l-1.2,4.7h5l-0.9,3.8h-5l-1.3,5.6c-0.2,0.4-0.2,0.9-0.2,1.3s0,0.7,0.2,1
	s0.4,0.5,0.6,0.7c0.4,0.2,0.9,0.3,1.3,0.2c0.5,0,0.9-0.1,1.4-0.2s0.9-0.2,1.4-0.4l0.3,3.4c-0.6,0.2-1.3,0.4-2,0.5
	c-0.9,0.2-1.6,0.2-2.5,0.2c-1.1,0.1-2.2-0.2-3.2-0.6c-0.7-0.4-1.3-0.9-1.6-1.6c-0.3-0.8-0.5-1.6-0.4-2.5c0.1-1,0.2-2,0.4-3
	C722.7,35.9,725.7,23.5,725.7,23.5z M734.1,37.2c0-1.3,0.2-2.7,0.7-3.9c0.4-1.2,1.1-2.3,2-3.2c0.9-0.9,1.9-1.6,3-2.2
	c1.3-0.5,2.6-0.8,4-0.8c0.9,0,1.6,0.1,2.4,0.2c0.7,0.2,1.3,0.4,2,0.7l-1.6,3.5c-0.4-0.2-0.9-0.3-1.3-0.5c-0.5-0.2-1.1-0.2-1.6-0.2
	c-1.3-0.1-2.7,0.5-3.6,1.6c-0.9,1.2-1.4,2.7-1.3,4.2c-0.1,0.9,0.2,1.8,0.7,2.5c0.6,0.7,1.6,1.1,2.5,0.9c0.5,0,1.1-0.1,1.6-0.2
	s1-0.2,1.5-0.5l0.3,3.6c-0.6,0.2-1.3,0.5-1.9,0.6c-0.8,0.2-1.6,0.3-2.5,0.2c-1.1,0-2.2-0.2-3.2-0.5c-0.8-0.3-1.6-0.9-2.2-1.5
	c-0.5-0.6-1-1.4-1.3-2.2C734.3,38.9,734.1,38,734.1,37.2L734.1,37.2z M754.2,44c-0.9,0-1.9-0.2-2.8-0.5c-0.8-0.3-1.4-0.8-2-1.4
	c-0.5-0.6-0.9-1.3-1.2-2.1c-0.3-0.9-0.4-1.8-0.4-2.7c0-1.3,0.2-2.5,0.6-3.7c0.4-1.2,0.9-2.3,1.7-3.3s1.7-1.8,2.8-2.4
	c1.2-0.6,2.5-0.9,3.8-0.9c0.9,0,1.9,0.2,2.8,0.5c0.8,0.3,1.4,0.8,2,1.3c0.5,0.6,0.9,1.3,1.2,2.1c0.3,0.9,0.4,1.8,0.4,2.7
	c0,1.3-0.2,2.5-0.5,3.7c-0.4,1.2-0.9,2.3-1.6,3.3c-0.8,0.9-1.7,1.8-2.8,2.3C756.9,43.7,755.6,44,754.2,44z M756.4,30.9
	c-0.6,0-1.3,0.2-1.8,0.5c-0.5,0.4-0.9,0.9-1.3,1.5s-0.6,1.3-0.8,2c-0.2,0.6-0.2,1.3-0.2,2c-0.1,0.8,0.2,1.6,0.5,2.3
	c0.4,0.6,1.1,0.9,1.8,0.9c0.6,0,1.3-0.2,1.8-0.5c0.5-0.4,0.9-0.9,1.3-1.5c0.3-0.6,0.6-1.3,0.8-2c0.2-0.6,0.2-1.3,0.2-2
	c0.1-0.8-0.2-1.6-0.5-2.3C757.8,31.2,757.1,30.9,756.4,30.9z M768.1,43.5h-4.5l3.8-16h4.5L768.1,43.5z M770.3,25.5
	c-0.6,0-1.2-0.2-1.6-0.5c-0.5-0.4-0.8-1-0.8-1.7c0-0.4,0.1-0.9,0.2-1.2c0.2-0.4,0.4-0.7,0.7-0.9c0.3-0.3,0.6-0.5,1-0.6
	s0.8-0.2,1.2-0.2c0.6,0,1.2,0.2,1.6,0.5c0.5,0.4,0.8,1.1,0.8,1.7c0,0.4-0.1,0.9-0.2,1.2c-0.2,0.4-0.4,0.7-0.7,0.9
	c-0.3,0.3-0.6,0.5-1,0.6C771.1,25.5,770.7,25.6,770.3,25.5z M775.2,28.3l1.2-0.4c0.5-0.2,0.9-0.2,1.4-0.4c0.5-0.2,1.2-0.2,1.7-0.3
	c0.7-0.1,1.5-0.1,2.2-0.1c2.3,0,4,0.7,4.9,2.1s1.1,3.3,0.5,5.6l-2.1,8.7h-4.5l2-8.4c0.2-0.5,0.2-1,0.3-1.6c0.1-0.5,0.1-0.9,0-1.3
	s-0.3-0.7-0.5-0.9c-0.4-0.2-0.9-0.4-1.3-0.3c-0.6,0-1.2,0.1-1.8,0.2l-3,12.4h-4.5L775.2,28.3L775.2,28.3z M938.4,31
	c0,8.2-6.4,14.6-14.5,14.6c-7.5,0-14.5-5.8-14.5-14.6c-0.1-7.9,6.6-14.5,14.5-14.5C931.8,16.3,938.4,22.9,938.4,31z M924,38.9h4.7
	c2,0,1.9,0,2.4-2c0.2-0.9-0.1-1.3-1-1.3h-3.9c-3,0-2.9,0-2.2-2.9c0.2-0.9,0.5-1.4,1.4-1.6s1.2-0.8,1.4-1.6s0-1.1-0.8-0.7
	c-0.9,0.4-1,0-0.8-0.8c0.4-1.3,0.7-2.7,1.1-4.1c0.2-0.8,0-1.2-0.9-1.2h-2.7c-0.9-0.1-1.3,0.3-1.4,1.2c-0.5,2.1-1.1,4.2-1.6,6.3
	c-0.2,0.7-0.5,1.2-1.2,1.3c-0.9,0.2-1.2,0.9-1.3,1.6c-0.2,0.6-0.2,1,0.6,0.7s0.9,0.2,0.7,0.8c-0.2,0.9-0.5,2-0.8,2.9
	c-0.2,0.9,0,1.2,0.9,1.2C920.4,38.9,922.2,38.9,924,38.9L924,38.9z M967.4,35.7h-4.5c-1.1,0-1.2,0.2-0.7,1.3c1.4,3,5.6,3.5,7.8,1.1
	c0.2-0.2,0.5-0.7,0.9-0.6c0.5,0.1,1.3-0.1,1.6,0.5c0.2,0.5-0.2,0.9-0.5,1.3c-2.5,3-6.8,3.4-9.9,1.1c-2.8-2.1-3.4-6.9-1.3-10
	c2-2.9,6.3-3.8,9.5-1.8c2.3,1.4,3,3.7,3,6.2c0,0.8-0.5,0.9-1.2,0.9H967.4L967.4,35.7z M966.4,33.6h3.4c0.9,0.1,1.2-0.3,0.9-1.2
	c-0.6-1.6-2.3-2.7-4.3-2.7s-3.8,1.3-4.3,2.9c-0.2,0.8,0,1,0.7,0.9C964,33.5,965.1,33.5,966.4,33.6L966.4,33.6z M994.6,41.7
	c-4.2,0-7.1-3-7-7.2c0-4.1,3-7.1,7.3-7c4.1,0,7,3,7,7.3C1001.8,38.9,998.9,41.8,994.6,41.7z M994.6,39.6c2.9,0,5-2.1,5.1-5
	c0-2.8-2.1-4.8-5-4.8c-2.8,0-4.9,2-5,4.8C989.6,37.3,991.8,39.6,994.6,39.6z M1009.6,34.6v-5.5c0-0.5-0.1-1.2,0.7-1.2
	c0.6,0,1.3-0.2,1.6,0.7c0.2,0.9,0.6,0.2,0.9,0c1.9-1.3,3.8-1.5,5.9-0.5s2.7,2.9,2.9,5c0.2,2.4,0,4.9,0.1,7.3c0,0.9-0.4,1.1-1.2,1.1
	s-1.1-0.3-1.1-1.1v-6.8c0-2.6-1.1-3.9-3.2-3.9c-2.4,0-4.1,1.6-4.1,3.9c-0.1,2.1,0,4.3,0,6.4c0,0.9-0.2,1.4-1.2,1.4
	c-1.1,0-1.1-0.6-1.1-1.4C1009.6,38.2,1009.6,36.4,1009.6,34.6L1009.6,34.6z M982,41.7c-3.4,0-5.9-1.7-7-4.7c-0.9-3,0-6.3,2.2-8
	c2.7-2,6.2-2,8.8-0.3c0.5,0.3,0.9,0.6,0.5,1.3c-0.4,0.5-0.8,1.1-1.6,0.6c-0.9-0.6-2-0.9-3-0.9c-2,0.1-3.7,0.9-4.5,2.8
	c-0.9,2-0.5,3.8,0.9,5.5c1.3,1.4,3.5,2,5.4,1.3c0.4-0.2,0.7-0.3,1-0.5c0.9-0.6,1.5,0,1.9,0.6c0.5,0.9-0.3,1-0.8,1.3
	C984.5,41.4,983.2,41.8,982,41.7z M953.8,35.4v-4.5c0-0.9-0.2-1.3-1.2-1.3c-0.7,0.1-1.2-0.1-1.2-0.9c0-0.9,0.5-1.2,1.3-1.1
	c0.9,0.1,1.2-0.5,1.2-1.3v-2.7c0-0.9,0.4-1.2,1.2-1.2s1.1,0.3,1.1,1.1c0,0.9,0.1,1.8,0,2.7c-0.1,1,0.4,1.4,1.3,1.3
	c0.5,0,1.2-0.2,1.4,0.6c0.3,0.9-0.1,1.4-1.1,1.5c-1.6,0.1-1.6,0.1-1.6,1.8v8.4c0,0.8,0.2,1.6-1.2,1.6c-1.3,0-1.1-0.9-1.1-1.6
	C953.8,38.4,953.8,36.9,953.8,35.4L953.8,35.4z M942.2,30.8v-9.1c0-0.8,0.1-1.3,1.1-1.3s1.1,0.6,1.1,1.4v18.5c0,0.8-0.1,1.3-1.1,1.3
	s-1.1-0.6-1.1-1.3C942.2,40.3,942.2,30.8,942.2,30.8z M949.9,34.6v5.6c0,0.8-0.2,1.2-1.1,1.3c-0.9,0-1.3-0.4-1.2-1.3V28.9
	c0-0.8,0.2-1.2,1.1-1.3c0.9,0,1.3,0.4,1.2,1.3C949.8,30.9,949.9,32.8,949.9,34.6z M1006.4,34.6v5.6c0,0.8-0.2,1.3-1.1,1.3
	s-1.1-0.5-1.1-1.3V28.9c0-0.8,0.2-1.3,1.1-1.3s1.1,0.5,1.1,1.3C1006.4,28.9,1006.4,34.6,1006.4,34.6z M1007,22.8
	c0,0.9-0.6,1.5-1.6,1.5c-0.9,0-1.6-0.5-1.6-1.4s0.5-1.6,1.5-1.6C1006.2,21.2,1006.9,21.9,1007,22.8z M948.7,21.3
	c0.8,0,1.6,0.7,1.6,1.5c0,0.9-0.7,1.5-1.6,1.5s-1.6-0.6-1.6-1.5C947.2,22,947.9,21.3,948.7,21.3z"/>
<path class="st5" d="M830,34.1c0,0.2-0.2,0.3-0.3,0.3H824c0.2,1.4,1.2,2.7,2.7,2.7c1,0,1.7-0.4,2.3-1.2c0.1-0.1,0.2-0.2,0.4-0.1
	c0.1,0,0.2,0.1,0.2,0.2v0.2c-0.5,1-1.7,1.5-2.8,1.5c-1.9,0-3.2-1.7-3.2-3.5s1.3-3.5,3.2-3.5C828.7,30.6,830,32.3,830,34.1
	 M829.4,33.8c-0.2-1.4-1.2-2.7-2.7-2.7s-2.5,1.3-2.7,2.7H829.4z M836.8,30.7c0.2,0,0.3,0.2,0.3,0.3s-0.2,0.3-0.3,0.3h-1.5v5.9
	c0,0.2-0.2,0.3-0.3,0.3s-0.3-0.2-0.3-0.3v-5.9h-1.4c-0.2,0-0.3-0.2-0.3-0.3c0-0.2,0.2-0.3,0.3-0.3h1.4v-2.2c0-0.2,0.1-0.2,0.2-0.3
	c0.2,0,0.3,0.1,0.3,0.3v2.2H836.8z M846,33.6v3.6c0,0.2-0.2,0.3-0.3,0.3s-0.3-0.2-0.3-0.3v-3.6c0-1.2-0.7-2.4-2-2.4
	c-1.7,0-2.5,1.5-2.3,3v2.9c0,0.2-0.1,0.2-0.2,0.3c-0.2,0-0.3-0.1-0.3-0.3V25.4c0-0.2,0.2-0.3,0.3-0.3s0.3,0.2,0.3,0.3V32
	c0.5-0.9,1.3-1.4,2.3-1.4C845.1,30.6,846,32,846,33.6 M856.1,34.1c0,0.2-0.2,0.3-0.3,0.3h-5.6c0.2,1.4,1.2,2.7,2.7,2.7
	c1,0,1.7-0.4,2.3-1.2c0.1-0.1,0.2-0.2,0.4-0.1c0.1,0,0.2,0.1,0.2,0.2v0.2c-0.5,1-1.7,1.5-2.8,1.5c-1.9,0-3.2-1.7-3.2-3.5
	s1.3-3.5,3.2-3.5C854.7,30.6,856,32.3,856.1,34.1 M855.5,33.8c-0.2-1.4-1.2-2.7-2.7-2.7s-2.5,1.3-2.7,2.7H855.5z M863,31
	c0,0.2-0.1,0.3-0.2,0.3c-1.6,0.2-2.4,1.6-2.4,3.1v2.7c0,0.2-0.1,0.2-0.2,0.3c-0.2,0-0.3-0.1-0.3-0.3V31c0-0.2,0.1-0.2,0.2-0.3
	c0.2,0,0.3,0.1,0.3,0.3v1.3c0.5-0.8,1.4-1.6,2.3-1.6C862.8,30.7,863,30.8,863,31 M872.2,34.1c0,0.2-0.2,0.3-0.3,0.3h-5.6
	c0.2,1.4,1.2,2.7,2.7,2.7c1,0,1.7-0.4,2.3-1.2c0.1-0.1,0.2-0.2,0.4-0.1c0.1,0,0.2,0.1,0.2,0.2v0.2c-0.5,1-1.7,1.5-2.8,1.5
	c-1.9,0-3.2-1.7-3.2-3.5s1.3-3.5,3.2-3.5C870.8,30.6,872.2,32.3,872.2,34.1 M871.6,33.8c-0.2-1.4-1.2-2.7-2.7-2.7s-2.5,1.3-2.7,2.7
	H871.6z M881.3,31.1v6.1c0,0.2-0.2,0.3-0.3,0.3s-0.3-0.2-0.3-0.3V36c-0.5,0.9-1.3,1.6-2.3,1.6c-1.6,0-2.6-1.4-2.6-3V31
	c0-0.2,0.2-0.3,0.3-0.3s0.3,0.2,0.3,0.3v3.6c0,1.2,0.7,2.4,2,2.4c1.9,0,2.3-1.8,2.3-3.8V31c0-0.2,0.2-0.3,0.4-0.2
	C881.2,30.8,881.3,30.9,881.3,31.1 M895.4,33.6v3.6c0,0.2-0.2,0.3-0.3,0.3c-0.2,0-0.3-0.2-0.3-0.3v-3.6c0-1.2-0.7-2.4-2-2.4
	c-1.7,0-2.3,1.8-2.3,3.2v2.7c0,0.2-0.2,0.3-0.3,0.3s-0.3-0.2-0.3-0.3v-3.6c0-1.2-0.7-2.4-2-2.4c-1.7,0-2.4,1.3-2.3,3.1v2.9
	c0,0.2-0.1,0.2-0.2,0.3c-0.2,0-0.3-0.1-0.3-0.3v-6.2c0-0.2,0.1-0.2,0.2-0.3c0.2,0,0.3,0.1,0.3,0.3v1c0.5-0.9,1.3-1.4,2.3-1.4
	c1.2,0,2,0.7,2.4,1.8c0.5-1,1.3-1.8,2.5-1.8C894.5,30.6,895.4,32,895.4,33.6"/>
<g class="st1">
	<path class="st0" d="M809.2,29.1l-9.4,4.3l9.4,5.6l9.4-5.6C818.6,33.4,809.2,29.1,809.2,29.1z"/>
</g>
<g class="st6">
	<path class="st0" d="M799.8,33.3l9.4,5.6V17.7C809.2,17.7,799.8,33.3,799.8,33.3z"/>
</g>
<g class="st7">
	<path class="st0" d="M809.2,17.7v21.1l9.4-5.6C818.6,33.2,809.2,17.7,809.2,17.7z"/>
</g>
<g class="st6">
	<path class="st0" d="M799.8,35.1l9.4,13.2v-7.7L799.8,35.1z"/>
</g>
<g class="st7">
	<path class="st0" d="M809.2,40.6v7.7l9.4-13.2L809.2,40.6z"/>
</g>
<path class="st0" d="M1068.4,31c-0.2-0.1-0.7-0.2-1.2-0.2c-1.4,0-3,1.2-3,2.6v6.8h-3.3v-12h3.1v1.3c0.7-0.9,2-1.5,3.5-1.5
	c0.5,0,0.8,0.1,1.1,0.1C1068.6,28.1,1068.4,31,1068.4,31z M1072.1,21.8c1.2,0,2.1,0.9,2.1,2.1s-0.9,2-2.1,2s-2.1-0.9-2.1-2.1
	S1070.9,21.8,1072.1,21.8z M1073.7,40.3h-3.3V28.2h3.3C1073.7,28.2,1073.7,40.3,1073.7,40.3z M1083.3,27.9c-1.4,0-2.6,0.5-3.5,1.3
	v-1h-3.1v18.1h3.3v-6.9c1,0.8,2,1.1,3.3,1.1c1.8,0,3.5-0.8,4.6-2c0.9-1.1,1.6-2.6,1.6-4.2C1089.3,30.7,1086.6,27.9,1083.3,27.9
	L1083.3,27.9z M1083,37.6c-2,0-3.4-1.4-3.4-3.4s1.3-3.4,3.4-3.4c1.7,0,3.1,1.5,3.1,3.4S1084.7,37.6,1083,37.6z M1109.1,40.3h-3.3
	V22.5h3.3V40.3z M1122.4,38.3c-1.2,1.4-3.1,2.2-5,2.2c-3.6,0-6.3-2.5-6.3-6.3c0-3.4,2.3-6.3,5.9-6.3c3.4,0,5.7,2.8,5.7,6.2
	c0,0.3,0,0.6-0.1,0.9h-8.4c0.2,1.7,1.6,2.9,3.3,2.9c1.4,0,2.5-0.8,3-1.4C1120.5,36.5,1122.4,38.3,1122.4,38.3z M1119.3,32.6
	c-0.1-1.1-1.1-2.1-2.4-2.1s-2.4,1-2.6,2.1H1119.3z M1098,27.9c-1.4,0-2.6,0.5-3.5,1.3v-1h-3.1v18.1h3.3v-6.9c1,0.8,2,1.1,3.3,1.1
	c1.8,0,3.5-0.8,4.6-2c0.9-1.1,1.6-2.6,1.6-4.2C1103.9,30.7,1101.3,27.9,1098,27.9L1098,27.9z M1097.6,37.6c-2,0-3.4-1.4-3.4-3.4
	s1.3-3.4,3.4-3.4c1.7,0,3.1,1.5,3.1,3.4S1099.3,37.6,1097.6,37.6z M1054.3,35.8c-0.7-0.4-1.6-0.5-2.3-0.5c-0.7,0-1.7-0.5-1.7-1.7
	c0-0.9,0.8-1.7,1.7-1.7c0.8,0,1.6-0.2,2.3-0.5c1.3-0.8,2.2-2.2,2.2-3.8c0-1.6-0.9-3-2.2-3.8c-1.3-0.8-3-0.8-4.4,0
	c-1.3,0.8-2.2,2.2-2.2,3.8c0,0.9,0.3,1.6,0.7,2.3c0.3,0.6,0.5,1.7-0.6,2.3c-0.8,0.5-1.9,0.2-2.3-0.6c-0.5-0.7-0.9-1.3-1.7-1.7
	c-1.3-0.8-3-0.8-4.4,0c-1.3,0.8-2.2,2.2-2.2,3.8s0.9,3,2.2,3.8c1.3,0.8,3,0.8,4.4,0c0.7-0.4,1.3-1.1,1.6-1.7
	c0.4-0.5,1.3-1.3,2.3-0.6c0.8,0.5,1.1,1.5,0.6,2.3c-0.4,0.7-0.7,1.5-0.7,2.3c0,1.6,0.9,3,2.2,3.8c1.3,0.8,3,0.8,4.4,0
	c1.3-0.8,2.2-2.2,2.2-3.8C1056.5,38.1,1055.7,36.6,1054.3,35.8z"/>
<g id="g6321" transform="translate(-9.4 96.811)">
	<g id="g6323" transform="translate(-8.544 -109.837) scale(1.82152)">
		<path id="path6325" class="st8" d="M116.6,31.1c0,2.7-2.2,4.8-4.8,4.8H85.6v-19c0-2.7,2.2-4.8,4.8-4.8h26.2
			C116.6,12.1,116.6,31.1,116.6,31.1z"/>
		<g id="g6327">
			<path id="path6338" class="st0" d="M108,26.2h2.2c0.4-0.1,0.7-0.4,0.7-0.9s-0.3-0.8-0.7-0.9H108V26.2z"/>
			<path id="path6349" class="st0" d="M109.8,13.7c-1.9,0-3.5,1.5-3.5,3.5v3.6h5.2c1.1,0.1,1.9,0.6,1.9,1.6c0,0.8-0.5,1.4-1.6,1.6
				c1.1,0.1,2,0.7,2,1.7s-0.9,1.7-2.2,1.7h-5.3v7h5.1c1.9,0,3.5-1.5,3.5-3.5V13.7H109.8L109.8,13.7z"/>
			<path id="path6360" class="st0" d="M110.7,22.6c0-0.5-0.3-0.8-0.7-0.8h-2v1.7h2C110.4,23.3,110.7,23,110.7,22.6z"/>
		</g>
		<path id="path6371" class="st0" d="M90.7,13.7c-1.9,0-3.5,1.5-3.5,3.5v8.5c1,0.5,2,0.8,3,0.8c1.2,0,1.8-0.7,1.8-1.7v-4h3v4
			c0,1.6-1,2.8-4.2,2.8c-2,0-3.5-0.4-3.5-0.4v7.3h5.1c1.9,0,3.5-1.5,3.5-3.5V13.7H90.7z"/>
		<path id="path6384" class="st0" d="M100.3,13.7c-1.9,0-3.5,1.5-3.5,3.5v4.5c0.9-0.7,2.4-1.2,4.8-1.1c1.3,0.1,2.7,0.4,2.7,0.4v1.5
			c-0.7-0.4-1.5-0.7-2.6-0.8c-1.9-0.1-3,0.8-3,2.4s1.1,2.5,3,2.4c1.1-0.1,1.9-0.4,2.6-0.8v1.5c0,0-1.4,0.4-2.7,0.4
			c-2.4,0.1-4-0.4-4.8-1.1v8h5.1c1.9,0,3.5-1.5,3.5-3.5V13.7H100.3z"/>
	</g>
</g>
<g id="layer1" transform="translate(-55.5 -1002.345)">
	<path class="st0" d="M309.1,1042.8h-16l-1-1.2v1.2h-3.2v-2c0,0-0.4,0.3-1.4,0.3h-1.1v1.7h-4.8l-0.9-1.1l-0.9,1.1h-7.9v-7.5h8
		l0.9,1.1l0.9-1.1h28.8l0.1-0.1v-25.9h-48v20.3l1.8-4.2h3.1l1,2.3v-2.3h3.9l0.6,1.7l0.6-1.7H291v0.9c0,0,0.9-0.9,2.4-0.9h5.6l1,2.3
		v-2.3h3.2l0.9,1.3v-1.3h3.3v7.5h-3.3l-0.9-1.3v1.3h-4.8l-0.5-1.2h-1.3l-0.5,1.2h-3.2c-1.3,0-2.1-0.8-2.1-0.8v0.8h-4.9l-1-1.2v1.2
		H267l-0.5-1.2h-1.3l-0.5,1.2h-2.1v24.4h48v-14.9C310.4,1042.5,309.7,1042.8,309.1,1042.8L309.1,1042.8z"/>
	<path id="path3046" class="st0" d="M265,1026.3l-2.4,5.6h1.6l0.4-1.1h2.6l0.4,1.1h1.6l-2.4-5.6H265z M265.9,1027.6l0.8,2h-1.6
		L265.9,1027.6L265.9,1027.6z"/>
	<path id="path3048" class="st0" d="M269.5,1032v-5.6h2.2l1.3,3.6l1.3-3.6h2.2v5.6h-1.4v-4.2l-1.5,4.2h-1.2l-1.5-4.2v4.2H269.5z"/>
	<path id="path3050" class="st0" d="M277.5,1032v-5.6h4.6v1.3h-3.2v1h3.1v1.2h-3.1v1h3.2v1.2L277.5,1032z"/>
	<path id="path3052" class="st0" d="M282.9,1026.3v5.6h1.4v-2h0.6l1.7,2h1.7l-1.9-2.1c0.8-0.1,1.5-0.7,1.5-1.7c0-1.2-0.9-1.8-2-1.8
		H282.9L282.9,1026.3z M284.3,1027.6h1.6c0.4,0,0.7,0.3,0.7,0.6c0,0.4-0.4,0.6-0.6,0.6h-1.6v-1.2H284.3z"/>
	<path id="path3054" class="st0" d="M290,1032h-1.4v-5.6h1.4V1032z"/>
	<path id="path3056" class="st0" d="M293.4,1032h-0.3c-1.5,0-2.4-1.2-2.4-2.8c0-1.7,0.9-2.8,2.8-2.8h1.6v1.3h-1.6
		c-0.8,0-1.3,0.6-1.3,1.5c0,1.1,0.6,1.6,1.5,1.6h0.4L293.4,1032L293.4,1032z"/>
	<path id="path3058" class="st0" d="M296.5,1026.3l-2.4,5.6h1.6l0.4-1.1h2.6l0.4,1.1h1.6l-2.4-5.6H296.5L296.5,1026.3z
		 M297.4,1027.6l0.8,2h-1.6L297.4,1027.6L297.4,1027.6z"/>
	<path id="path3060" class="st0" d="M300.9,1032v-5.6h1.8l2.3,3.5v-3.5h1.4v5.6h-1.7l-2.3-3.6v3.6H300.9L300.9,1032z"/>
	<path id="path3062" class="st0" d="M272.9,1041.8v-5.6h4.6v1.3h-3.2v1h3.1v1.2h-3.1v1h3.2v1.2L272.9,1041.8z"/>
	<path id="path3064" class="st0" d="M295.4,1041.8v-5.6h4.6v1.3h-3.2v1h3.1v1.2h-3.1v1h3.2v1.2L295.4,1041.8z"/>
	<path id="path3066" class="st0" d="M277.7,1041.8l2.2-2.8l-2.3-2.9h1.8l1.4,1.8l1.4-1.8h1.7l-2.3,2.8l2.2,2.8H282l-1.3-1.7
		l-1.3,1.7L277.7,1041.8z"/>
	<path id="path3068" class="st0" d="M284,1036.2v5.6h1.4v-1.8h1.5c1.3,0,2.2-0.7,2.2-2c0-1.1-0.7-1.9-2-1.9H284V1036.2L284,1036.2z
		 M285.4,1037.5h1.6c0.4,0,0.7,0.2,0.7,0.6s-0.3,0.6-0.7,0.6h-1.6V1037.5z"/>
	<path id="path3072" class="st0" d="M289.7,1036.2v5.6h1.4v-2h0.6l1.7,2h1.7l-1.9-2.1c0.8-0.1,1.5-0.7,1.5-1.7c0-1.2-0.9-1.8-2-1.8
		H289.7L289.7,1036.2z M291.1,1037.4h1.6c0.4,0,0.7,0.3,0.7,0.6c0,0.4-0.4,0.6-0.6,0.6h-1.6v-1.2H291.1z"/>
	<path id="path3074" class="st0" d="M300.7,1041.8v-1.2h2.8c0.4,0,0.6-0.2,0.6-0.5c0-0.2-0.2-0.5-0.6-0.5h-1.3
		c-1.1,0-1.7-0.7-1.7-1.7c0-0.9,0.6-1.8,2.2-1.8h2.7l-0.6,1.3h-2.4c-0.5,0-0.6,0.2-0.6,0.5c0,0.2,0.2,0.5,0.5,0.5h1.3
		c1.2,0,1.8,0.7,1.8,1.6c0,1-0.6,1.8-1.8,1.8L300.7,1041.8L300.7,1041.8z"/>
	<path id="path3076" class="st0" d="M305.9,1041.8v-1.2h2.8c0.4,0,0.6-0.2,0.6-0.5c0-0.2-0.2-0.5-0.6-0.5h-1.3
		c-1.1,0-1.7-0.7-1.7-1.7c0-0.9,0.6-1.8,2.2-1.8h2.7l-0.6,1.3h-2.4c-0.5,0-0.6,0.2-0.6,0.5c0,0.2,0.2,0.5,0.5,0.5h1.3
		c1.2,0,1.8,0.7,1.8,1.6c0,1-0.6,1.8-1.8,1.8L305.9,1041.8L305.9,1041.8z"/>
</g>
<path class="st0" d="M280.6,45.2c-7.1,0.6-13.3-6.3-13.4-12.9c0-7.3,5.9-13.3,13.2-13.5c7.4,0,13.4,5.9,13.5,13.2
	C294,39.4,287.4,45.7,280.6,45.2L280.6,45.2z M281.1,32v-5.1c0-0.7,0.3-1,1-1h3.1c0.4,0,1.1,0.2,1.1-0.4s-0.7-0.4-1.1-0.4h-9.1
	c-0.3,0-0.6,0-0.6,0.4s0.3,0.3,0.6,0.4c1.1,0,2.2,0.1,3.3,0c0.9,0,1.2,0.3,1.2,1.2v9.2c0,1.7,0,1.7-1.6,1.9c-0.2,0-0.5,0-0.5,0.2
	s0.3,0.3,0.5,0.3h3.3c0.3,0,0.8,0.2,0.8-0.3s-0.5-0.3-0.7-0.2c-1,0.1-1.3-0.4-1.2-1.3C281.2,35.2,281.1,33.6,281.1,32L281.1,32z
	 M286,32.6h-1.7c-0.2,0-0.5-0.1-0.6,0.2s0.2,0.4,0.3,0.5c1.2,0.8,2.8,0.7,4-0.1c0.1-0.1,0.2-0.3,0.2-0.4c0-0.1-0.3-0.2-0.5-0.2H286z
	 M275.9,33.9c0.6,0,1.2-0.3,1.7-0.7c0.2-0.1,0.3-0.2,0.3-0.5c-0.1-0.2-0.2-0.2-0.4-0.2h-3.7c-0.2,0-0.4,0-0.4,0.2s0.1,0.3,0.2,0.4
	C274.3,33.7,275.1,33.9,275.9,33.9z M277.7,31.5c-0.3-1.5-0.9-3-1.6-4.4c-0.2-0.5-0.5-0.1-0.6,0.2c-0.7,1.2-1.1,2.5-1.6,3.8
	c-0.1,0.2-0.4,0.4,0,0.6c0.4,0.1,0.4-0.2,0.5-0.4c0.3-0.8,0.7-1.6,1-2.5c0.1-0.3,0.1-0.6,0.5-0.7s0.5,0.4,0.6,0.7
	C276.6,29.8,277,30.7,277.7,31.5z M287.8,31.6l0.3-0.1l-1.8-4.1c-0.1-0.2-0.1-0.4-0.3-0.4c-0.2,0-0.3,0.3-0.4,0.5
	c-0.4,0.8-0.8,1.6-1.1,2.4c-0.2,0.5-0.7,1.1-0.4,1.8c0.7-0.7,0.7-1.5,1.1-2.2c0.3-0.4,0.2-1.3,0.8-1.2c0.5,0,0.5,0.8,0.7,1.3
	C286.9,30.2,287.3,31,287.8,31.6L287.8,31.6z M325.3,34.8c-1.4,1.2-2.7,2.5-3.9,3.9c-0.8,1-1.4,2.1-3.1,2.2
	c-1.1,0.1-2.3,0.2-3.4,0.3c-0.4,0-0.7-0.1-1.1-0.3c-1.1-0.5-1.6-1.8-1.1-2.8c0.2-0.4,0.4-0.7,0.8-0.9c0.6-0.3,0.8-1,0.6-1.6
	c-0.2-0.8,0.1-1.6,0.8-2.1c1.3-1.3,2.9-2.1,4.7-2.3c0.7-0.2,1.4,0.1,1.7,0.7c0.3,0.6-0.1,1.1-0.5,1.6c-0.4,0.4-1.2,1.1-1.8,0.6
	c-1-0.6-1.4,0.1-2,0.5c0.1,0.3,0.3,0.2,0.4,0.2c0.5-0.2,1.1,0,1.3,0.5c0,0.1,0,0.1,0.1,0.2c0.2,0.7-0.4,1.1-0.9,1.2
	c-0.8,0.3-1.6,0.8-2.3,1.3c-0.2,0.1-0.4,0.3-0.3,0.6s0.4,0.3,0.6,0.3c1.3,0.3,2.6-0.3,3.2-1.5c1.1-1.8,2.1-3.5,3.2-5.4
	c0.4-0.6,1-1,1.7-1.1c0.5,0,0.9,0.1,0.9,0.6c0,0.6,0.4,0.4,0.6,0.2c0.5-0.4,1.1-0.7,1.8-0.8c1.4-0.2,2.1,0.7,1.6,2
	c-0.6,1.1-1.3,2.2-2,3.2c-0.4,0.6-0.7,1.2-1,1.8c-0.1,0.2-0.3,0.5,0,0.7c0.2,0.1,0.5,0.1,0.7,0c1-0.6,1.9-1.4,2.6-2.4
	c0.8-1.3,1.6-2.7,2.4-4.1c0.4-0.7,0.9-1.2,1.7-0.7c0.8,0.5,0.5,1.1,0.1,1.8c-0.8,1.6-1.6,3.1-2.5,4.7c0.4,0.1,0.6-0.2,0.7-0.4
	c1.8-1.6,3.3-3.4,4.6-5.5c0.2-0.3,0.5-0.6,0.8-0.8c0.5-0.3,1.1-0.3,1.6,0c0.5,0.4,0.2,1-0.1,1.4c-0.9,1.4-1.7,3-2.3,4.6
	c-0.1,0.4-0.5,1.1-0.1,1.3s0.8-0.3,1.1-0.6l0.7-0.7c0.5-0.5,0.9-1.1,1.5,0.1c0.4,0.6,1.1,1.1,1.8,1.4c0.8,0.2,1.5-0.3,2.3-0.5
	c0.1-0.1,0.2-0.2,0.2-0.3c0-0.2-0.1-0.3-0.3-0.3c-0.6-0.2-1.2-0.4-1.8-0.5c-0.9-0.2-1.8-0.5-2-1.5c-0.3-1,0.1-2,0.9-2.7
	c1.3-1.1,2.8-1.9,4.5-2.3c0.8-0.3,1.6-0.4,2.4-0.2c0.6,0.2,1.1,0.6,1.1,1.3c0,0.9-0.6,1.6-1.5,1.9c-0.5,0.4-1.1,0.3-1.5-0.2
	c0,0,0-0.1-0.1-0.1c-0.3-0.5-0.6-0.4-1-0.3c-0.7,0.2-1.4,0.6-2,1.1c-0.2,0.1-0.4,0.3-0.3,0.6s0.3,0.2,0.5,0.2
	c0.7,0.1,1.5,0.3,2.1,0.5c0.8,0.2,1.5,0.8,1.7,1.6c0.2,0.9-0.2,1.8-1,2.3c-1.5,1.1-3.3,1.7-5.2,1.5c-0.6-0.1-1.2-0.2-1.4-0.7
	c-0.4-1-0.7-0.5-1.2-0.1c-0.6,0.5-1.4,0.8-2.1,0.8c-0.8,0.1-1.6-0.4-1.8-1.2c-0.2-0.8-0.6-0.7-1.1-0.2c-0.4,0.4-0.9,0.8-1.4,1.1
	c-0.8,0.5-1.9,0.4-2.6-0.3c-0.4-0.4-0.7-0.3-1,0c-0.5,0.4-1,0.6-1.6,0.6c-1.2,0.2-2.4-0.6-2.6-1.9c-0.1-0.5,0-0.9,0.2-1.4
	C324.2,36.9,324.8,35.9,325.3,34.8L325.3,34.8z M391.7,30.7h-1.8c-0.8-0.1-1.1-0.7-0.6-1.3c0.4-0.7,1.2-1.2,2.1-1.1
	c1.3,0.3,2.6-0.4,3.1-1.6c0.3-0.5,0.8-0.8,1.4-0.8c1,0,1.3,0.5,0.8,1.3s-0.5,1.1,0.5,1.1c0.6,0,1.1,0.5,1.1,1.1v0.1
	c-0.1,0.7-0.7,0.8-1.3,0.9h-0.6c-1.2-0.1-2.4,0.6-2.9,1.7c-1,2-2.4,3.9-3.1,6c-0.1,0.3-0.4,0.6,0,0.9c0.4,0.3,0.6,0,0.9-0.2
	c0.6-0.5,1.3-0.9,1.9-1.4c0.2-0.2,0.5-0.4,0.8-0.3c0.3,0.1,0.4,0.5,0.4,0.8s0,0.6-0.2,0.8c-0.9,1.4-2.3,2.3-4,2.5
	c-0.7,0.1-1.5-0.2-1.9-0.8c-0.4-0.5-0.7-0.5-1.2-0.2c-0.4,0.4-1,0.7-1.5,0.9c-0.9,0.3-1.9,0-2.5-0.7c-0.6-0.9-0.7-2-0.2-2.9
	c0.4-1.1,1-2.1,1.7-3c-0.4,0.1-0.8,0.3-1.1,0.7c-1.5,1.4-2.8,2.9-4,4.5c-0.5,0.7-1.1,1.2-2,0.9c-0.4-0.1-0.8,0-1.1,0.2
	c-0.7,0.3-1.4,0.4-2.1,0.3c-1.1-0.1-2-1-2-2.2c0-0.3,0.1-0.5,0.2-0.7c0.5-1.1,1-2.2,1.7-3.2c0.2-0.3,0.4-0.6,0.4-1
	c0.1-1.4,1.1-2.6,2.5-3c0.4,0,0.8,0.2,1.1,0.6c0.3,0.4,0.3,0.9,0,1.3c-0.9,1.5-1.7,3-2.6,4.5c-0.2,0.4-0.9,1-0.4,1.4s1-0.3,1.4-0.6
	c2-1.4,3.1-3.4,4.2-5.5c0.3-0.7,0.9-1.3,1.6-1.5c0.6-0.2,1.3-0.4,1.4,0.6c0.1,0.5,0.4,0.3,0.7,0.1c0.5-0.4,1.1-0.7,1.8-0.8
	c0.6-0.2,1.2,0,1.6,0.5s0.4,1.2,0,1.7c-0.8,1.5-2,2.8-2.7,4.3c-0.2,0.4-0.6,0.8-0.2,1.1s0.9,0,1.2-0.3c1.1-1,2.4-1.8,3-3.3
	C389.9,33.6,390.8,32.1,391.7,30.7L391.7,30.7z M304.2,29.7c-0.7,0.1-1.1,0.2-1.6,0.2s-1-0.4-1.2-0.9c-0.2-0.6-0.1-1.3,0.4-1.7
	c0.3-0.4,0.7-0.6,1.2-0.2c0.3,0.2,0.6,0,0.8-0.2l2.9-2c0.2-0.2,0.5-0.4,0.7-0.5c0.8-0.4,1.7-0.4,2.4,0.2c0.6,0.7,0.2,1.4-0.3,1.9
	c-1.8,2.6-3.7,5.2-5.4,7.9c-0.5,0.9-1.1,1.7-1.5,2.6c-0.2,0.3-0.6,0.8-0.2,1.2c0.4,0.3,0.8,0,1.2-0.2c1.2-0.7,2.4-1.5,3.4-2.5
	c2.9-2.5,5.4-5.4,7.6-8.5c0.5-0.7,1.1-1.4,0.6-2.3c0-0.1,0-0.3,0.1-0.4c0.7-0.6,1.6-0.9,2.5-0.7c0.7,0.3,1,1.2,0.8,1.9
	c-0.4,1-0.9,1.9-1.5,2.8c-3,4.5-6.9,8.3-11.4,11.3c-0.9,0.6-1.8,1-2.8,1.3c-1.2,0.6-2.7,0.1-3.4-1.1c-0.4-0.7-0.3-1.6,0-2.3
	c0.6-1.7,1.4-3.2,2.5-4.7C302.7,31.7,303.4,30.8,304.2,29.7L304.2,29.7z M359.9,26.5c-1.5,0.4-3,1.1-4.4,1.9c-0.4,0.2-0.9,0.5,0,0.8
	c0.6,0.2,0.4,0.6,0,0.9c-0.5,0.5-1.2,0.8-2,0.8c-0.6,0.1-1.2-0.2-1.5-0.8c-0.4-0.8-0.3-1.7,0.2-2.4c1.1-1.3,2.5-2.2,4.1-2.7
	c2.8-1,5.8-1.3,8.8-0.8c1.1,0.2,2.1,0.7,2.9,1.4c1,0.7,1.4,2.1,0.8,3.2c-1,2.5-3.1,4.3-5.6,5.2c-1.6,0.7-3.2,1.1-4.8,0.3
	c-0.5-0.3-0.7,0.2-0.9,0.5c-1.1,1.7-2.1,3.3-3.1,5c-0.3,0.6-0.9,1.1-1.7,1.1c-1.3,0-1.7-0.5-1.1-1.7s1.3-2.3,2-3.4
	c2-3,3.8-6,6.1-8.9C359.8,26.8,359.9,26.7,359.9,26.5z M363.4,26.4c-0.4-0.1-0.6-0.1-0.8,0.2c-0.8,1.7-2.1,3.2-3,4.8
	c-0.1,0.2-0.4,0.4-0.2,0.7c0.2,0.3,0.5,0.2,0.8,0.2c2.1-0.3,3.9-1.4,5.2-3.1c1.1-1.3,0.5-2.5-1.2-2.8
	C364.2,26.4,363.4,26.4,363.4,26.4z M373,33.5c-0.2,1.4-0.8,2.7-1.7,3.8c-1.1,1.7-2.7,3-4.6,3.8c-1.2,0.6-2.6,0.1-3.2-1
	c-0.2-0.5-0.3-1-0.2-1.5c0.3-2.9,3.4-6.4,6.2-7.1c1.1-0.1,2.2,0.2,3.1,0.9C373.1,32.4,373,33,373,33.5L373,33.5z M370.4,34.1
	c0-0.6-0.5-0.8-1.1-0.5c-1.8,1-3.1,2.7-3.7,4.7c-0.1,0.2-0.1,0.4,0.1,0.5s0.4,0.1,0.6,0c1.8-1.1,3.2-2.7,4-4.6
	C370.4,34.2,370.4,34.2,370.4,34.1z M378.8,30.4c-0.5,0-0.9-0.3-0.9-0.8v-0.2c0.1-1.1,0.9-2,1.9-2.1c0.5-0.1,1,0.3,1.1,0.9v0.1
	C380.8,29.3,379.9,30.2,378.8,30.4z M569.4,20.9c-9.8,0-17.6,4.6-17.6,10.3c0,2.4,1.4,4.7,3.8,6.4c-1.2-1.3-1.8-3-1.9-4.8
	c0-5.9,7.7-10.7,17.2-10.7c6.1,0,11.5,2,14.5,5C582.8,23.5,576.6,20.9,569.4,20.9z"/>
<path class="st0" d="M561.5,30.1c0.5-0.4,1.2-0.6,1.9-0.6s1.3,0.2,1.9,0.6c0.5,0.4,0.8,1,0.9,1.6h-5.6
	C560.7,31.1,561,30.5,561.5,30.1L561.5,30.1z M567.8,34.2c0.6,0,1.3-0.2,1.7-0.5c0.5-0.3,0.8-0.9,0.8-1.5c0-1.2-0.4-2.3-1.2-3.3
	c-1.4-1.8-3.5-2.8-5.8-2.8c-1.9-0.1-3.8,0.7-5.2,2c-1.3,1.3-2,3-2,4.8c0,1.9,0.7,3.6,2.1,4.8c1.4,1.3,3.3,2,5.2,2
	c1.1,0,2.2-0.2,3.2-0.5c1-0.2,2-0.8,2.7-1.6c0.3-0.3,0.5-0.7,0.5-1.2c0-1-0.5-1.5-1.6-1.5c-0.6,0.2-1.3,0.3-1.9,0.6
	c-0.8,0.4-1.7,0.6-2.6,0.6c-0.8,0-1.6-0.2-2.2-0.6c-0.6-0.4-0.9-1-1-1.7L567.8,34.2z M572.6,38c1.3,1.3,3.2,2,5.2,2
	c1.1,0,2.2-0.2,3.2-0.5c1.2-0.5,1.8-1.2,1.8-2c0-0.5-0.2-0.9-0.5-1.2s-0.8-0.5-1.2-0.5c-0.5,0-0.9,0.2-1.3,0.3
	c-0.5,0.2-1.1,0.3-1.6,0.3c-0.9,0.1-1.7-0.3-2.3-0.9c-0.5-0.6-0.8-1.5-0.7-2.3c0-0.8,0.2-1.6,0.7-2.3c0.5-0.7,1.4-1,2.3-1
	c0.5,0,1.2,0.1,1.6,0.3c0.4,0.2,0.9,0.3,1.3,0.3c0.5,0,0.9-0.2,1.3-0.5c0.3-0.3,0.5-0.7,0.5-1.2c0-0.9-0.5-1.6-1.7-2
	c-0.9-0.3-2-0.5-3-0.5c-2-0.1-3.8,0.6-5.3,1.9c-1.3,1.3-2,3.1-2,4.9C570.7,34.9,571.4,36.6,572.6,38z M588,30.8
	c0.9-1.2,2.7-1.4,3.8-0.5l0.5,0.5c0.5,0.6,0.7,1.4,0.7,2.2s-0.2,1.6-0.6,2.2c-0.5,0.7-1.3,1.1-2.1,1c-0.9,0-1.6-0.4-2.1-1
	s-0.7-1.4-0.7-2.2C587.3,32.2,587.5,31.5,588,30.8L588,30.8z M584.9,38c3,2.7,7.5,2.7,10.4,0c1.3-1.3,2-3,2-4.8
	c0.1-1.9-0.6-3.6-2-4.9s-3.3-2-5.2-2c-2-0.1-3.8,0.6-5.2,2c-1.3,1.3-2,3-2,4.9C582.9,34.9,583.6,36.7,584.9,38z M603.2,37v-3h3
	c1.7,0.1,3.5-0.5,4.8-1.6c1.3-1.1,1.9-2.7,1.8-4.4c0.1-1.7-0.6-3.4-2-4.4c-1.5-1.1-3.2-1.6-5-1.5H602c-0.9-0.1-1.6,0.2-2.3,0.6
	c-0.5,0.6-0.7,1.4-0.6,2.2v12c0,1.9,0.7,2.8,2.2,2.8C602.5,39.8,603.2,38.9,603.2,37L603.2,37z M603.2,25.8h2c2,0,3,0.8,3,2.3
	c0,1.6-1,2.3-3,2.3h-1.9C603.3,30.4,603.2,25.8,603.2,25.8z M625,39.8c1.4,0,2.1-0.9,2.1-2.8v-7.8c0-1.9-0.7-2.8-2.1-2.8
	c-0.9,0-1.6,0.5-2,1.3c-0.9-0.9-2.1-1.4-3.4-1.4c-1.9-0.1-3.6,0.8-4.8,2.1c-2.3,2.7-2.3,6.6-0.1,9.3c1.2,1.4,2.9,2.2,4.7,2.1
	c1.3,0.1,2.7-0.5,3.6-1.4C623.4,39.3,624.2,39.8,625,39.8z M618.1,30.9c0.5-0.6,1.3-1,2-0.9c0.8-0.1,1.6,0.3,2,0.9
	c0.5,0.6,0.6,1.3,0.6,2.1s-0.2,1.5-0.6,2.1c-0.5,0.7-1.3,1.1-2,1.1s-1.6-0.3-2.1-1c-0.5-0.6-0.7-1.4-0.6-2.1
	C617.4,32.3,617.7,31.5,618.1,30.9L618.1,30.9z M637,27.9l-2.6,6.2l-2.4-5.8c-0.2-0.5-0.4-0.9-0.7-1.3c-0.4-0.4-0.9-0.5-1.4-0.5
	s-1.1,0.2-1.5,0.5s-0.5,0.9-0.5,1.3s0.1,0.7,0.2,1.1l4.3,9.1l-1.7,3.4c-0.2,0.4-0.3,0.9-0.4,1.3c0,0.5,0.2,1,0.5,1.3
	c0.4,0.3,0.9,0.5,1.5,0.5c0.8,0,1.4-0.5,1.9-1.6l6.5-13.9c0.2-0.4,0.3-0.9,0.3-1.3c0-1.3-0.7-1.9-2.1-1.9
	C638,26.5,637.5,26.9,637,27.9L637,27.9z M651.4,36.1h-4.2l5.6-6.6c0.5-0.5,0.8-1,0.9-1.6c0.1-0.5-0.2-0.9-0.6-0.9
	c-0.6-0.2-1.3-0.2-2-0.2h-6.8c-1.8,0-2.7,0.5-2.7,1.7s0.9,1.8,2.7,1.8h3.7l-6,6.7c-0.4,0.4-0.6,0.9-0.6,1.5c0,0.9,0.8,1.2,2.3,1.2
	h7.7c1.8,0,2.7-0.6,2.7-1.8S653.1,36.1,651.4,36.1L651.4,36.1z M429.6,27.7h7.3c1.2,0,2.1,0.3,2.8,0.9s1,1.4,1,2.2
	c0,0.7-0.2,1.4-0.7,1.9c-0.3,0.4-0.8,0.6-1.4,0.8c0.9,0.2,1.6,0.6,2,1.1s0.6,1.2,0.6,2c0,0.7-0.2,1.2-0.5,1.8
	c-0.3,0.5-0.7,0.9-1.3,1.2c-0.3,0.2-0.8,0.3-1.5,0.4c-0.9,0.1-1.5,0.2-1.8,0.2h-6.7C429.4,40.2,429.6,27.7,429.6,27.7z M433.5,32.6
	h1.7c0.6,0,1-0.1,1.3-0.3s0.4-0.5,0.4-0.9s-0.1-0.7-0.4-0.9c-0.2-0.2-0.7-0.3-1.2-0.3h-1.7L433.5,32.6L433.5,32.6z M433.5,37.6h2
	c0.7,0,1.1-0.1,1.4-0.4s0.4-0.6,0.4-1s-0.1-0.7-0.4-0.9s-0.8-0.3-1.4-0.3h-2C433.5,35,433.5,37.6,433.5,37.6z M450.7,38.2h-4.4
	l-0.6,2.1h-4l4.7-12.6h4.2l4.7,12.6h-4.1L450.7,38.2L450.7,38.2z M449.9,35.5l-1.4-4.5l-1.4,4.5H449.9z M456.7,27.7h3.6l4.7,7v-7
	h3.7v12.6H465l-4.7-6.9v6.9h-3.7L456.7,27.7L456.7,27.7z M471.3,27.7h3.9v4.8l4.1-4.8h5.2l-4.6,4.8l4.8,7.8h-4.8l-2.6-5.2l-2,2.1
	v3.1h-3.9V27.7L471.3,27.7L471.3,27.7z M484.7,27.7h3.7l1.3,7l1.9-7h3.7l1.9,7l1.3-7h3.7l-2.8,12.6h-3.8l-2.2-7.9l-2.2,7.9h-3.8
	L484.7,27.7L484.7,27.7z M503.7,27.7h3.9v12.6h-3.9C503.7,40.3,503.7,27.7,503.7,27.7z M510.5,40.3V27.7h6.5c1.2,0,2.1,0.1,2.8,0.3
	c0.6,0.2,1.2,0.6,1.5,1.2c0.4,0.6,0.6,1.2,0.6,2c0,0.7-0.1,1.3-0.4,1.8c-0.3,0.5-0.7,0.9-1.2,1.2c-0.3,0.2-0.8,0.4-1.4,0.5
	c0.5,0.2,0.8,0.3,1,0.5c0.1,0.1,0.4,0.3,0.6,0.7c0.3,0.3,0.5,0.6,0.5,0.8l1.9,3.6h-4.4l-2.1-3.8c-0.3-0.5-0.5-0.8-0.7-1
	c-0.3-0.2-0.6-0.3-1-0.3h-0.3v5.1L510.5,40.3L510.5,40.3z M514.4,32.8h1.6c0.2,0,0.5-0.1,1-0.2c0.3-0.1,0.5-0.2,0.6-0.4
	s0.2-0.5,0.2-0.7c0-0.4-0.1-0.7-0.4-0.9c-0.3-0.2-0.7-0.3-1.5-0.3h-1.7v2.5H514.4L514.4,32.8z M524.1,27.7h10.4v2.7H528v2h6V35h-6
	v2.5h6.7v2.8h-10.6C524.1,40.3,524.1,27.7,524.1,27.7z M415.4,27.7h11.7v2.5h-11.7V27.7z M415.4,32.7h11.7v2.5h-11.7V32.7z
	 M415.4,37.8h11.7v2.5h-11.7V37.8z"/>
</svg>
