<?xml version="1.0" encoding="utf-8"?>
<!-- Generator: Adobe Illustrator 25.2.3, SVG Export Plug-In . SVG Version: 6.00 Build 0)  -->
<svg version="1.1" id="Providers" xmlns="http://www.w3.org/2000/svg" xmlns:xlink="http://www.w3.org/1999/xlink" x="0px" y="0px"
	 viewBox="0 0 564.7 116" style="enable-background:new 0 0 564.7 116;" xml:space="preserve">
<style type="text/css">
	.st0{fill:#84D5F7;}
	.st1{opacity:0.6;}
	.st2{display:none;}
	.st3{display:inline;fill:#84D5F7;}
	.st4{fill:none;stroke:#84D5F7;stroke-miterlimit:10;}
	.st5{fill:#84D5F7;stroke:#84D5F7;stroke-miterlimit:10;}
	.st6{opacity:0.45;}
	.st7{opacity:0.8;}
	.st8{fill:none;}
</style>
<g>
	<path class="st0" d="M54,98.6L54,98.6L54,98.6L54,98.6L54,98.6L54,98.6L54,98.6z M54.1,98.5L54.1,98.5L54.1,98.5
		c0.1,0.1,0.1,0.1,0.1,0.1h-0.1l0.1,0.1h-0.1L54,98.6l0,0v0.1h-0.1v-0.2H54.1z M54.1,98.8L54.1,98.8c0.1,0,0.1,0,0.1-0.1
		c0,0,0.1,0,0.1-0.1c0-0.1,0-0.1,0-0.1l-0.1-0.1h-0.1c-0.1,0-0.1,0-0.1,0h-0.1c0,0,0,0.1-0.1,0.1c0,0.1,0,0.1,0,0.1s0,0.1,0.1,0.1
		L54.1,98.8L54.1,98.8 M54.1,98.3L54.1,98.3c0.1,0,0.1,0,0.1,0.1l0.1,0.1v0.1v0.1c0,0,0,0.1-0.1,0.1l-0.1,0.1l0,0H54l-0.1-0.1
		l-0.1-0.1v-0.1v-0.1c0,0,0-0.1,0.1-0.1L54.1,98.3C54,98.3,54,98.3,54.1,98.3 M24.5,97.2c0-0.5,0.5-0.9,0.9-0.9
		c0.5,0,0.9,0.5,0.9,0.9c0,0.5-0.5,0.9-0.9,0.9C24.8,98.2,24.5,97.8,24.5,97.2C24.5,97.3,24.5,97.3,24.5,97.2 M26.9,97.2v-1.5h-0.7
		v0.5c-0.2-0.2-0.6-0.5-1.1-0.5c-0.8,0-1.7,0.7-1.7,1.7c0,0.8,0.7,1.7,1.7,1.7c0.4,0,0.8-0.1,1.1-0.5v0.4h0.7V97.2z M50.4,97.2
		c0-0.5,0.5-0.9,0.9-0.9c0.5,0,0.9,0.5,0.9,0.9c0,0.5-0.5,0.9-0.9,0.9C50.7,98.2,50.4,97.8,50.4,97.2C50.4,97.3,50.4,97.3,50.4,97.2
		 M52.8,97.2v-2.7h-0.7v1.7c-0.2-0.2-0.6-0.5-1.1-0.5c-0.8,0-1.7,0.7-1.7,1.7c0,0.8,0.7,1.7,1.7,1.7c0.4,0,0.8-0.1,1.1-0.5v0.4h0.7
		V97.2z M35.5,96.2c0.5,0,0.8,0.4,0.8,0.8l0,0h-1.7C34.7,96.5,35.1,96.1,35.5,96.2C35.6,96.2,35.6,96.2,35.5,96.2 M35.6,95.6
		c-0.8,0-1.7,0.7-1.7,1.7c0,0.8,0.7,1.7,1.7,1.7c0.5,0,0.9-0.1,1.3-0.5L36.5,98c-0.2,0.1-0.6,0.4-0.9,0.4c-0.5,0.1-0.8-0.2-0.9-0.8
		H37c0-0.1,0-0.1,0-0.2C37.1,96.5,36.5,95.7,35.6,95.6L35.6,95.6 M43.9,97.2c0-0.5,0.5-0.9,0.9-0.9s0.9,0.5,0.9,0.9
		c0,0.5-0.5,0.9-0.9,0.9C44.3,98.2,43.9,97.8,43.9,97.2C43.9,97.3,43.9,97.3,43.9,97.2 M46.5,97.2v-1.5h-0.7v0.5
		c-0.2-0.2-0.6-0.5-1.1-0.5c-0.8,0-1.7,0.7-1.7,1.7c0,0.8,0.7,1.7,1.7,1.7c0.5,0,0.8-0.1,1.1-0.5v0.4h0.7V97.2z M40,97.2
		c0,0.8,0.7,1.5,1.5,1.7c0.1,0,0.1,0,0.1,0c0.5,0,0.8-0.1,1.1-0.4L42.3,98c-0.2,0.1-0.5,0.2-0.8,0.2c-0.5,0-0.9-0.5-0.9-0.9
		c0-0.5,0.5-0.9,0.9-0.9c0.4,0,0.6,0.1,0.8,0.2l0.4-0.5c-0.4-0.2-0.8-0.4-1.1-0.4C40.8,95.6,40.1,96.2,40,97.2
		C40,97,40,97.2,40,97.2 M48.8,95.6c-0.4,0-0.7,0.1-0.8,0.5v-0.4h-0.7v3H48v-1.8c0-0.5,0.2-0.8,0.7-0.8c0.1,0,0.2,0,0.5,0.1l0.2-0.5
		C49.2,95.6,49.1,95.6,48.8,95.6 M30.3,95.9c-0.5-0.2-0.8-0.4-1.3-0.4c-0.8,0-1.3,0.4-1.3,0.9c0,0.6,0.4,0.8,1.1,0.9h0.4
		c0.4,0.1,0.5,0.1,0.5,0.4c0,0.1-0.2,0.4-0.7,0.4c-0.4,0-0.8-0.1-1.1-0.4l-0.4,0.5c0.5,0.2,0.8,0.5,1.4,0.5c0.9,0,1.4-0.5,1.4-1.1
		c0-0.6-0.5-0.8-1.1-0.9l-0.4-0.1c-0.4,0-0.5-0.1-0.5-0.2c0-0.1,0.2-0.4,0.6-0.4s0.7,0.1,1.1,0.2L30.3,95.9z M39.1,95.6
		c-0.4,0-0.7,0.1-0.8,0.5v-0.4h-0.7v3h0.7v-1.8c0-0.5,0.2-0.8,0.7-0.8c0.1,0,0.2,0,0.5,0.1l0.2-0.6C39.5,95.6,39.4,95.5,39.1,95.6
		 M33.2,95.6h-1.1v-0.8h-0.7v0.9h-0.7v0.6h0.7v1.4c0,0.7,0.2,1.1,1.1,1.1c0.4,0,0.6-0.1,0.8-0.2L33.2,98c-0.1,0.1-0.5,0.1-0.6,0.1
		c-0.4,0-0.5-0.1-0.5-0.5v-1.3h1.1V95.6z M22.9,98.7v-1.9c0-0.6-0.5-1.2-1.1-1.2c-0.1,0-0.1,0-0.1,0c-0.5,0-0.8,0.1-1.1,0.5
		c-0.2-0.4-0.6-0.6-1.1-0.5c-0.4,0-0.7,0.1-0.9,0.5v-0.4H18v3h0.7v-1.8c-0.1-0.5,0.2-0.8,0.6-0.8c0.1,0,0.1,0,0.1,0
		c0.5,0,0.7,0.2,0.7,0.8v1.8h0.7v-1.8c-0.1-0.5,0.2-0.8,0.7-0.8h0.1c0.5,0,0.7,0.2,0.7,0.8v1.8H22.9z"/>
	<path class="st0" d="M54.5,88.6v-0.5h-0.1l-0.1,0.4l-0.1-0.4H54v0.5h0.1v-0.4l0.1,0.2h0.1l0.1-0.2V88.6L54.5,88.6z M53.7,88.6v-0.4
		h0.1v-0.1h-0.5v0.1h0.1L53.7,88.6L53.7,88.6z"/>
	<g class="st1">
		<path class="st0" d="M30.8,81.6c0-3.5,1.8-6.9,4.5-9c-2.1-1.7-4.7-2.5-7.3-2.4c-6.6,0-12.1,5.2-12.1,11.4
			c0,6.3,5.4,11.4,12.1,11.4c2.6,0,5.2-0.8,7.3-2.4C32.6,88.4,30.8,85.1,30.8,81.6"/>
	</g>
	<g class="st1">
		<path class="st0" d="M54.7,81.6c0,6.4-5.4,11.4-12.1,11.4c-2.6,0-5.2-0.8-7.3-2.4c5-3.5,6-10.6,2.4-15.6c-0.7-0.9-1.4-1.8-2.4-2.4
			c2.1-1.7,4.7-2.5,7.3-2.4C49.4,70.1,54.7,75.3,54.7,81.6"/>
	</g>
	<path class="st0" d="M35.5,90.5c-5-3.5-6-10.6-2.4-15.6c0.7-0.9,1.4-1.8,2.4-2.4c5,3.5,6,10.6,2.4,15.6
		C37.2,89,36.4,89.9,35.5,90.5z"/>
</g>
<g id="g4158" class="st2">
	<polygon id="polygon9" class="st3" points="42.8,94.6 37.7,94.6 41,74.4 46.1,74.4 	"/>
	<path id="path11" class="st3" d="M61.7,74.9c-1.5-0.6-3-0.9-4.6-0.9c-5.1,0-8.8,2.8-8.8,6.7c0,2.9,2.6,4.5,4.6,5.4s2.7,1.6,2.7,2.5
		c0,1.4-1.6,2-3.1,2c-1.7,0.1-3.3-0.3-4.9-1.1l-0.7-0.4l-0.7,4.5c1.9,0.7,3.8,1.1,5.8,1.1c5.4,0,9.1-2.7,9.1-6.9
		c0-2.3-1.4-4.1-4.4-5.5c-1.8-0.9-2.9-1.5-2.9-2.5s0.9-1.7,3-1.7c1.3-0.1,2.7,0.2,3.8,0.8l0.4,0.2L61.7,74.9L61.7,74.9z"/>
	<path id="path13" class="st3" d="M68.7,87.5c0.4-1.2,2.1-5.7,2.1-5.7s0.4-1.2,0.7-2l0.4,1.7c0,0,1,4.8,1.2,5.8L68.7,87.5z
		 M75.1,74.4H71c-1.2-0.1-2.3,0.6-2.8,1.7l-7.7,18.5h5.4l1.1-3h6.7l0.6,3h4.9L75.1,74.4L75.1,74.4z"/>
	<path id="path15" class="st3" d="M33.3,74.4l-5.1,13.7l-0.6-2.8c-0.9-3.2-3.9-6.7-7.2-8.5L25,94.4h5.5l8.2-20.1L33.3,74.4
		L33.3,74.4z"/>
	<path id="path17" class="st3" d="M23.5,74.4h-8.4L15,74.8c6.5,1.7,10.9,5.7,12.6,10.5l-1.7-9.2C25.5,74.8,24.6,74.5,23.5,74.4z"/>
</g>
<g>
	<path class="st0" d="M95.8,73.5c-9.9,0-18,4.7-18,10.5c0,2.5,1.4,4.7,3.9,6.6c-1.2-1.4-1.9-3.2-1.9-5c0-6,7.9-11,17.6-11
		c6.3,0,11.7,2,14.9,5.2C109.5,76.1,103.2,73.5,95.8,73.5z"/>
	<path class="st0" d="M87.9,82.9c0.5-0.5,1.2-0.7,2-0.7c0.7,0,1.4,0.2,1.9,0.7c0.5,0.5,0.8,1.1,0.8,1.8h-5.7
		C86.9,83.8,87.3,83.2,87.9,82.9L87.9,82.9z M94.3,87.1c0.6,0,1.2-0.1,1.8-0.5c0.5-0.4,0.8-0.8,0.8-1.4c0-1.2-0.5-2.4-1.2-3.3
		c-1.4-1.8-3.5-3-5.9-2.8c-2-0.1-3.9,0.7-5.2,2c-1.3,1.3-2,3.1-2,5c0,1.9,0.8,3.7,2.1,5c1.4,1.4,3.3,2,5.4,2c1.1,0,2.2-0.1,3.3-0.5
		c1.1-0.2,2-0.8,2.7-1.7c0.2-0.4,0.5-0.8,0.5-1.2c0-1.1-0.6-1.5-1.8-1.5c-0.7,0.1-1.3,0.4-2,0.7c-0.8,0.5-1.8,0.6-2.6,0.7
		c-0.8,0-1.5-0.1-2.2-0.6c-0.6-0.4-0.9-1.1-1.1-1.8L94.3,87.1L94.3,87.1z"/>
	<path class="st0" d="M99.2,91c1.4,1.4,3.3,2.1,5.2,2c1.1,0,2.2-0.1,3.3-0.6c1.2-0.5,1.8-1.2,1.8-2c0-0.5-0.1-0.8-0.5-1.2
		c-0.4-0.4-0.8-0.5-1.2-0.5s-0.8,0.1-1.3,0.2c-0.5,0.1-1.1,0.4-1.8,0.2c-0.9,0.1-1.8-0.4-2.4-0.9c-0.5-0.7-0.8-1.4-0.8-2.4
		c0-0.9,0.2-1.7,0.7-2.4c0.5-0.7,1.4-1.1,2.4-1.1c0.6,0,1.2,0.1,1.8,0.2c0.5,0.1,0.8,0.2,1.3,0.4c0.5,0,0.9-0.1,1.3-0.5
		s0.5-0.8,0.5-1.2c0-0.9-0.6-1.7-1.8-2c-1.1-0.4-2-0.5-3.1-0.5c-2-0.1-3.9,0.6-5.4,2c-1.4,1.3-2.1,3.2-2,5.1
		C97.2,87.9,97.9,89.6,99.2,91z"/>
	<path class="st0" d="M114.8,83.7c0.5-0.7,1.4-1.1,2.2-1.1c0.8,0,1.7,0.4,2.1,1.1c0.5,0.7,0.7,1.4,0.7,2.2c0,0.8-0.1,1.7-0.7,2.4
		c-0.6,0.7-1.4,1.1-2.2,1.1c-0.8,0-1.8-0.4-2.1-1.1c-0.5-0.7-0.7-1.4-0.7-2.2S114.4,84.4,114.8,83.7L114.8,83.7z M111.8,91
		c3,2.7,7.7,2.7,10.6,0c1.3-1.3,2-3.1,2-5c0.1-1.9-0.7-3.7-2-5.1c-3-2.6-7.6-2.6-10.6,0C109,83.8,109,88.2,111.8,91L111.8,91z"/>
	<path class="st0" d="M130.5,90.1v-3h3c1.8,0.1,3.5-0.5,5-1.5c1.3-1.1,1.9-2.7,1.8-4.5c0.1-1.8-0.7-3.4-2-4.5
		c-1.4-1.1-3.3-1.7-5.2-1.5h-4c-0.8-0.1-1.8,0.1-2.4,0.6c-0.5,0.6-0.8,1.4-0.7,2.2v12.3c0,1.9,0.8,2.8,2.2,2.8
		C129.7,92.9,130.5,92,130.5,90.1z M130.5,78.6h2c2,0,3.1,0.8,3.1,2.4c0,1.5-1.1,2.4-3.1,2.4h-2C130.5,83.2,130.5,78.6,130.5,78.6z"
		/>
	<path class="st0" d="M152.8,92.9c1.4,0,2.1-0.9,2.1-2.8v-7.9c0-1.9-0.7-2.8-2.1-2.8c-0.8,0-1.7,0.5-2,1.2c-0.8-0.9-2.1-1.4-3.5-1.4
		c-1.9-0.1-3.7,0.8-4.9,2.2c-2.4,2.7-2.4,6.7-0.1,9.6c1.2,1.4,3,2.2,4.9,2.2c1.4,0.1,2.7-0.5,3.7-1.4
		C151,92.3,151.9,92.9,152.8,92.9z M145.6,83.8c0.5-0.7,1.3-1.1,2.1-1.1s1.7,0.4,2,1.1c0.5,0.6,0.7,1.4,0.6,2.1
		c0,0.8-0.1,1.5-0.6,2.2c-0.5,0.7-1.3,1.1-2.1,1.1s-1.7-0.4-2.1-1.1c-0.5-0.6-0.7-1.4-0.7-2.2C145,85.1,145.2,84.5,145.6,83.8
		L145.6,83.8z"/>
	<path class="st0" d="M165,80.7l-2.6,6.3l-2.5-5.9c-0.1-0.5-0.5-0.9-0.7-1.4c-0.5-0.4-0.9-0.6-1.4-0.6c-0.5,0-1.1,0.1-1.5,0.6
		c-0.5,0.4-0.6,0.8-0.6,1.4c0,0.4,0.1,0.8,0.2,1.1l4.4,9.2l-1.8,3.5c-0.2,0.5-0.4,0.8-0.4,1.4c0,0.6,0.1,1.1,0.6,1.4
		c0.5,0.4,1.1,0.5,1.5,0.5c0.8,0,1.4-0.5,1.9-1.5l6.6-14.2c0.1-0.5,0.4-0.8,0.4-1.4c0-1.3-0.7-1.9-2.1-1.9
		C166.1,79.2,165.5,79.8,165,80.7L165,80.7z"/>
	<path class="st0" d="M179.7,89h-4.3l5.8-6.7c0.5-0.5,0.8-1.1,0.8-1.8c0.1-0.5-0.2-0.8-0.7-1.1c-0.7-0.1-1.4-0.2-2-0.1h-7
		c-1.8,0-2.7,0.6-2.7,1.8c0,1.2,0.9,1.8,2.7,1.8h3.7l-5.9,7c-0.5,0.5-0.6,0.9-0.7,1.5c0,0.8,0.8,1.2,2.4,1.2h7.9
		c1.8,0,2.7-0.6,2.7-1.8C182.4,89.7,181.4,89,179.7,89L179.7,89z"/>
</g>
<g>
	<path class="st0" d="M279.3,96.5c-5.7,0.5-10.6-5.1-10.8-10.4c0-5.8,4.7-10.6,10.5-10.8c5.9-0.1,10.8,4.7,10.8,10.5
		C290,91.8,284.7,96.9,279.3,96.5z M279.7,85.9c0-1.4,0-2.7,0-4.1c0-0.6,0.2-0.8,0.8-0.8c0.8,0,1.7,0,2.4,0c0.4,0,0.8,0.1,0.8-0.2
		c0-0.5-0.5-0.4-0.8-0.4h-7c-0.1,0-0.2,0-0.5,0c-0.1,0-0.5,0-0.5,0.2c0,0.2,0.2,0.2,0.5,0.2c0.8,0,1.8,0.1,2.6,0
		c0.8,0,0.9,0.2,0.9,0.9c0,2.4,0,4.9,0,7.3c0,1.3,0,1.3-1.3,1.5c-0.1,0-0.4,0-0.5,0.1c-0.1,0.1,0.2,0.2,0.5,0.2c0.8,0,1.8,0,2.6,0
		c0.2,0,0.6,0.1,0.6-0.2c0-0.5-0.4-0.2-0.6-0.1c-0.8,0.1-1.1-0.4-1.1-1.1C279.7,88.5,279.7,87.2,279.7,85.9L279.7,85.9z M283.6,86.4
		h-1.4c-0.1,0-0.5,0-0.5,0.1s0.1,0.4,0.2,0.5c0.9,0.6,2.2,0.6,3.2-0.1c0.1-0.1,0.1-0.2,0.1-0.4c0-0.1-0.2-0.1-0.4-0.1H283.6z
		 M275.6,87.5c0.5,0,1.1-0.2,1.4-0.5c0.1-0.1,0.2-0.1,0.2-0.4c0-0.2-0.1-0.1-0.4-0.1c-1.1,0-2,0-3,0c-0.1,0-0.2,0-0.4,0.1
		c-0.1,0.1,0.1,0.2,0.1,0.4C274.3,87.3,274.9,87.5,275.6,87.5L275.6,87.5z M277,85.5c-0.2-1.2-0.7-2.4-1.3-3.5
		c-0.1-0.5-0.4-0.1-0.5,0.1c-0.5,0.9-0.8,2-1.3,3c-0.1,0.1-0.2,0.4,0,0.5c0.2,0.1,0.4-0.1,0.4-0.4c0.2-0.7,0.5-1.3,0.8-2
		c0.1-0.2,0.1-0.5,0.4-0.5s0.4,0.2,0.5,0.5C276.1,84.2,276.4,84.9,277,85.5L277,85.5z M285.1,85.6l0.1-0.1l-1.4-3.3
		c-0.1-0.1-0.1-0.4-0.2-0.4s-0.2,0.2-0.4,0.4c-0.4,0.6-0.6,1.3-0.8,2c-0.1,0.5-0.5,0.8-0.4,1.4c0.5-0.5,0.6-1.2,0.9-1.8
		c0.1-0.4,0.1-1.1,0.6-1.1s0.5,0.7,0.5,1.1C284.2,84.5,284.6,85.1,285.1,85.6L285.1,85.6z"/>
	<path class="st0" d="M315,88.2c-1.1,0.9-2.1,2-3.1,3.2c-0.7,0.8-1.1,1.8-2.5,1.8c-0.8,0.1-1.8,0.1-2.7,0.1c-0.4,0-0.6-0.1-0.8-0.2
		c-0.8-0.5-1.3-1.4-0.8-2.2c0.1-0.2,0.4-0.5,0.6-0.7c0.5-0.2,0.7-0.8,0.5-1.3c-0.1-0.7,0.1-1.3,0.7-1.8c1.1-1.1,2.4-1.7,3.8-1.8
		c0.5-0.1,1.1,0.1,1.4,0.6c0.2,0.5-0.1,0.9-0.5,1.3s-0.9,0.8-1.4,0.5c-0.8-0.5-1.1,0-1.7,0.4c0.1,0.2,0.2,0.1,0.4,0.1
		c0.5-0.1,0.8,0,1.1,0.5c0,0.1,0,0.1,0.1,0.1c0.1,0.6-0.4,0.8-0.7,0.9c-0.7,0.2-1.3,0.6-1.8,1.1c-0.1,0.1-0.4,0.2-0.2,0.5
		c0.1,0.2,0.2,0.1,0.5,0.2c1.1,0.2,2-0.2,2.6-1.2c0.8-1.4,1.8-2.8,2.6-4.3c0.2-0.5,0.8-0.8,1.4-0.8c0.4,0,0.7,0,0.8,0.5
		c0.1,0.5,0.2,0.4,0.5,0.1c0.5-0.4,0.9-0.5,1.4-0.6c1.1-0.1,1.8,0.6,1.3,1.5c-0.5,0.8-1.1,1.8-1.7,2.6c-0.2,0.5-0.5,0.9-0.8,1.4
		c-0.1,0.1-0.2,0.5,0,0.6c0.1,0.1,0.4,0.1,0.5,0c0.8-0.5,1.5-1.1,2-1.9c0.7-1.1,1.3-2.1,1.9-3.3c0.4-0.5,0.7-0.9,1.3-0.6
		s0.5,0.9,0.1,1.4c-0.7,1.2-1.3,2.5-2,3.8c0.4,0.1,0.5-0.1,0.6-0.2c1.4-1.3,2.6-2.7,3.7-4.4c0.1-0.2,0.4-0.5,0.6-0.7
		c0.4-0.2,0.8-0.2,1.3,0c0.5,0.4,0.1,0.8-0.1,1.1c-0.8,1.1-1.4,2.4-1.9,3.5c-0.1,0.4-0.5,0.8-0.1,1.1c0.4,0.1,0.6-0.2,0.8-0.5
		c0.1-0.1,0.4-0.4,0.5-0.5c0.5-0.5,0.7-0.8,1.2,0.1c0.4,0.5,0.8,0.8,1.4,1.1c0.6,0.1,1.2-0.2,1.8-0.5c0.1,0,0.1-0.1,0.1-0.2
		c0-0.1-0.1-0.2-0.2-0.2c-0.5-0.1-0.9-0.2-1.4-0.5c-0.7-0.1-1.4-0.5-1.7-1.2c-0.1-0.8,0.1-1.7,0.8-2.1c1.1-0.9,2.2-1.5,3.5-1.8
		c0.6-0.2,1.3-0.4,1.9-0.1c0.5,0.1,0.8,0.5,0.8,1.1c0,0.7-0.5,1.3-1.2,1.5c-0.4,0.2-0.9,0.1-1.2-0.1c0,0,0-0.1-0.1-0.1
		c-0.2-0.4-0.5-0.4-0.8-0.1c-0.6,0.1-1.1,0.5-1.5,0.8c-0.1,0.1-0.4,0.2-0.2,0.5c0.1,0.1,0.2,0.1,0.5,0.1c0.6,0.1,1.2,0.1,1.8,0.5
		c0.6,0.1,1.1,0.7,1.3,1.3c0.1,0.7-0.1,1.4-0.8,1.9c-1.2,0.9-2.6,1.4-4.1,1.2c-0.5,0-0.9-0.1-1.2-0.5c-0.4-0.8-0.6-0.5-0.9-0.1
		c-0.5,0.5-1.1,0.7-1.8,0.7c-0.7,0.1-1.3-0.4-1.4-0.9c-0.1-0.7-0.5-0.6-0.8-0.1c-0.4,0.4-0.7,0.6-1.1,0.8c-0.7,0.5-1.5,0.4-2-0.2
		c-0.1-0.2-0.5-0.2-0.8-0.1c0,0-0.1,0-0.1,0.1c-0.4,0.2-0.8,0.5-1.3,0.5c-0.9,0.1-1.9-0.5-2-1.4c-0.1-0.4,0-0.8,0.1-1.1
		C314.2,89.8,314.6,89,315,88.2z"/>
	<path class="st0" d="M368.1,85c-0.5,0-0.9,0-1.4,0c-0.7-0.1-0.8-0.5-0.5-1.1c0.4-0.6,0.9-0.9,1.7-0.9c1.1,0.1,2-0.4,2.5-1.3
		c0.1-0.5,0.6-0.7,1.1-0.6c0.8,0,1.1,0.5,0.6,1.1c-0.5,0.7-0.4,0.8,0.5,0.8c0.5,0,0.8,0.4,0.8,0.8c0,0,0,0,0,0.1
		c0,0.5-0.5,0.7-1.1,0.7h-0.5c-1.1-0.1-1.9,0.5-2.4,1.4c-0.8,1.7-1.9,3.1-2.5,4.9c-0.1,0.2-0.2,0.5,0,0.7c0.4,0.2,0.5,0,0.7-0.1
		c0.5-0.4,1.1-0.8,1.5-1.1c0.1-0.1,0.5-0.4,0.6-0.2c0.1,0.1,0.4,0.5,0.4,0.7s0,0.5-0.1,0.7c-0.7,1.1-1.9,1.9-3.2,2
		c-0.6,0.1-1.2-0.1-1.5-0.7c-0.4-0.5-0.6-0.5-0.9-0.1c-0.4,0.4-0.8,0.6-1.2,0.7c-0.7,0.2-1.5,0-2-0.5c-0.5-0.7-0.5-1.5-0.1-2.4
		s0.8-1.7,1.4-2.4c-0.4,0.1-0.6,0.2-0.8,0.5c-1.2,1.1-2.2,2.4-3.2,3.5c-0.5,0.6-0.8,0.9-1.7,0.7c-0.2-0.1-0.6,0-0.8,0.1
		c-0.5,0.2-1.1,0.4-1.8,0.2c-0.9,0-1.7-0.8-1.5-1.8c0-0.1,0.1-0.5,0.1-0.6c0.4-0.9,0.8-1.8,1.4-2.6c0.1-0.2,0.2-0.5,0.2-0.8
		c0.1-1.1,0.9-2,2-2.4c0.4,0,0.7,0.1,0.8,0.5c0.2,0.4,0.2,0.7,0,1.1c-0.7,1.2-1.4,2.4-2,3.5c-0.1,0.4-0.8,0.8-0.4,1.1
		c0.5,0.4,0.8-0.2,1.1-0.5c1.7-1.1,2.5-2.7,3.3-4.4c0.2-0.6,0.7-1.1,1.3-1.2c0.5-0.1,1.1-0.2,1.1,0.5c0.1,0.5,0.4,0.2,0.5,0.1
		c0.5-0.4,0.9-0.5,1.5-0.6c0.5-0.1,0.9,0,1.3,0.5c0.2,0.5,0.2,0.9,0,1.4c-0.7,1.2-1.5,2.2-2.1,3.4c-0.1,0.4-0.5,0.6-0.1,0.9
		c0.4,0.4,0.7,0,0.9-0.2c0.8-0.8,1.9-1.4,2.4-2.6C366.7,87.3,367.4,86.2,368.1,85z"/>
	<path class="st0" d="M298.2,84c-0.5,0.1-0.9,0.1-1.3,0.1c-0.5,0-0.8-0.4-0.9-0.7c-0.1-0.5-0.1-1.1,0.4-1.4c0.2-0.4,0.5-0.5,0.9-0.1
		c0.2,0.1,0.5,0,0.7-0.1c0.8-0.5,1.5-1.1,2.4-1.7c0.1-0.1,0.4-0.2,0.6-0.5c0.6-0.4,1.4-0.2,1.9,0.1c0.5,0.6,0.1,1.1-0.1,1.5
		c-1.4,2-3,4.1-4.3,6.3c-0.5,0.7-0.8,1.4-1.2,2c-0.1,0.2-0.5,0.7-0.1,0.9c0.4,0.2,0.6,0,0.9-0.1c1.1-0.5,1.9-1.2,2.7-2
		c2.4-2,4.4-4.3,6-6.7c0.4-0.5,0.8-1.1,0.5-1.8c0-0.1,0-0.1,0-0.2c0.5-0.5,1.3-0.7,2-0.5c0.6,0.2,0.8,0.9,0.6,1.5
		c-0.2,0.8-0.7,1.5-1.2,2.2c-2.4,3.5-5.4,6.7-9.1,9.1c-0.7,0.5-1.4,0.8-2.2,1.1c-0.8,0.4-1.8,0.2-2.4-0.4c-0.6-0.7-0.7-1.7-0.4-2.4
		c0.5-1.4,1.2-2.6,2-3.8C296.9,85.8,297.5,85,298.2,84z"/>
	<path class="st0" d="M342.7,81.6c-1.2,0.4-2.4,0.8-3.5,1.4c-0.2,0.1-0.7,0.4,0,0.6c0.5,0.1,0.2,0.5,0,0.7c-0.5,0.5-1.1,0.6-1.5,0.7
		c-0.5,0.1-0.9-0.1-1.2-0.6c-0.2-0.6-0.2-1.3,0.1-1.9c0.8-1.1,2-1.8,3.3-2.1c2.2-0.8,4.7-1.1,7-0.7c0.8,0.1,1.7,0.5,2.4,1.1
		c0.8,0.6,1.1,1.7,0.7,2.6c-0.8,2-2.5,3.4-4.5,4.1c-1.3,0.5-2.6,0.8-3.9,0.2c-0.5-0.1-0.5,0.1-0.7,0.5c-0.8,1.4-1.8,2.6-2.5,4
		c-0.2,0.5-0.8,0.8-1.3,0.8c-1.1,0-1.4-0.5-0.8-1.4c0.5-0.9,1.1-1.8,1.7-2.6c1.5-2.4,3.1-4.9,4.9-7
		C342.7,81.8,342.7,81.8,342.7,81.6z M345.5,81.4c-0.2-0.1-0.5-0.1-0.6,0.1c-0.7,1.4-1.7,2.6-2.4,3.9c-0.1,0.1-0.4,0.4-0.1,0.6
		c0.1,0.2,0.5,0.1,0.7,0.1c1.7-0.2,3.2-1.1,4.3-2.5c0.8-1.1,0.5-2-0.9-2.2C346,81.4,345.8,81.4,345.5,81.4z"/>
	<path class="st0" d="M353.2,87.1c-0.1,1.1-0.6,2.1-1.4,3c-0.8,1.4-2.1,2.4-3.5,3c-0.9,0.5-2,0.1-2.6-0.8c-0.1-0.4-0.2-0.8-0.1-1.2
		c0.5-2.6,2.4-4.9,5-5.8c0.8-0.1,1.8,0.1,2.5,0.7C353.2,86.3,353.2,86.8,353.2,87.1z M351.1,87.7c0-0.5-0.5-0.6-0.8-0.4
		c-1.4,0.8-2.5,2.1-3,3.8c-0.1,0.1,0,0.4,0.1,0.5c0.1,0.1,0.4,0.1,0.5,0c1.4-0.8,2.6-2.1,3.3-3.5C351.1,87.7,351.1,87.7,351.1,87.7z
		"/>
	<path class="st0" d="M357.8,84.6c-0.4,0-0.7-0.2-0.8-0.6c0-0.1,0-0.1,0-0.1c0.1-0.8,0.7-1.5,1.5-1.8c0.5,0,0.8,0.2,0.8,0.7
		c0,0,0,0,0,0.1C359.4,83.8,358.6,84.5,357.8,84.6z"/>
</g>
<g>
	<g>
		<path class="st4" d="M44.2,36.2c-1.9,7.7-9.7,12.4-17.4,10.4S14.4,37,16.4,29.3c1.9-7.7,9.7-12.4,17.4-10.4
			C41.4,20.8,46.1,28.6,44.2,36.2L44.2,36.2z"/>
		<path class="st0" d="M36.6,30.7c0.3-1.9-1.2-2.9-3.1-3.6l0.6-2.6l-1.6-0.4l-0.6,2.5c-0.4-0.1-0.8-0.2-1.3-0.3l0.6-2.5l-1.6-0.4
			L29,26l-1-0.2l0,0l-2.2-0.5L25.4,27c0,0,1.2,0.3,1.1,0.3c0.5,0.1,0.8,0.5,0.7,0.9l-0.7,3h0.2h-0.2l-1,4.1
			c-0.1,0.3-0.4,0.5-0.7,0.4l0,0l-1.1-0.3l-0.8,1.8l2,0.5L26,38l-0.6,2.6L27,41l0.6-2.6l1.3,0.3l-0.7,2.5l1.6,0.4l0.6-2.6
			c2.7,0.5,4.7,0.3,5.5-2.1c0.7-1.4,0.2-3-1.2-3.7c-0.1,0-0.2-0.1-0.3-0.1C35.7,32.8,36.5,31.8,36.6,30.7L36.6,30.7z M33,35.7
			c-0.5,2-3.8,0.9-4.9,0.6l0.9-3.5C30.1,33.2,33.5,33.7,33,35.7L33,35.7z M33.5,30.7c-0.4,1.8-3.2,0.9-4.1,0.7l0.8-3.1
			C31.1,28.4,33.9,28.8,33.5,30.7L33.5,30.7z"/>
		<path class="st0" d="M58,27.1c1,0,2.1,0.2,3,0.6c0.8,0.4,1.5,1,2.1,1.7s1,1.6,1.2,2.5c0.3,1,0.4,2,0.4,3c0,1.6-0.3,3.2-0.9,4.7
			s-1.4,2.8-2.5,3.9c-1.1,1.1-2.4,2-3.8,2.6c-1.5,0.7-3.1,1-4.7,1h-1.1c-0.6,0-1.2-0.1-1.9-0.2c-0.8-0.1-1.5-0.3-2.2-0.4
			c-0.8-0.2-1.5-0.5-2.2-0.8l6.3-26.4l5.6-0.9l-2.2,9.3c0.5-0.2,1-0.4,1.5-0.5C56.9,27.2,57.4,27.1,58,27.1L58,27.1z M53.2,42.7
			c0.8,0,1.7-0.2,2.4-0.6c0.8-0.4,1.4-1,1.9-1.7c0.6-0.7,1-1.5,1.3-2.4s0.5-1.8,0.5-2.7c0.1-0.9-0.1-1.9-0.6-2.7
			c-0.5-0.7-1.3-1.1-2.1-1c-0.4,0-0.9,0.1-1.3,0.2c-0.5,0.1-1.1,0.4-1.5,0.8l-2.4,10l0.4,0.1h0.3c0.1,0,0.3,0,0.4,0L53.2,42.7z"/>
		<path class="st0" d="M70.5,46.6h-5.4l4.5-19.1H75L70.5,46.6z M73.2,25.2c-0.7,0-1.4-0.2-2-0.7s-1-1.3-0.9-2c0-0.5,0.1-1,0.3-1.4
			c0.2-0.4,0.5-0.8,0.8-1.2c0.3-0.3,0.7-0.6,1.2-0.8c0.5-0.2,0.9-0.3,1.4-0.3c0.7,0,1.4,0.2,2,0.7s1,1.3,0.9,2c0,0.5-0.1,1-0.3,1.4
			c-0.2,0.4-0.5,0.8-0.8,1.2c-0.3,0.3-0.7,0.6-1.2,0.8S73.7,25.2,73.2,25.2z"/>
		<path class="st0" d="M79.8,22.8l5.6-0.9L84,27.5h6l-1,4.4h-6l-1.6,6.7c-0.1,0.5-0.2,1-0.3,1.6c0,0.4,0,0.9,0.2,1.3
			c0.1,0.4,0.4,0.6,0.8,0.8c0.5,0.2,1.1,0.3,1.6,0.3c0.6,0,1.1-0.1,1.7-0.2c0.6-0.1,1.1-0.3,1.6-0.5l0.4,4.1
			c-0.8,0.3-1.6,0.5-2.4,0.7c-1,0.2-2,0.3-3,0.3c-1.3,0.1-2.6-0.2-3.8-0.7c-0.9-0.4-1.6-1.1-2-2s-0.6-2-0.5-3
			c0.1-1.2,0.2-2.4,0.5-3.5L79.8,22.8L79.8,22.8z"/>
		<path class="st0" d="M89.9,39c0-1.6,0.3-3.2,0.8-4.7c0.5-1.4,1.3-2.7,2.3-3.8c1-1.1,2.2-2,3.6-2.6c1.5-0.6,3.1-1,4.7-0.9
			c1,0,2,0.1,2.9,0.3c0.8,0.2,1.6,0.5,2.3,0.8l-1.9,4.2c-0.5-0.2-1-0.4-1.5-0.5c-0.6-0.2-1.3-0.3-1.9-0.2c-1.6-0.1-3.2,0.6-4.3,1.9
			c-1.1,1.4-1.7,3.2-1.6,5c-0.1,1.1,0.2,2.1,0.8,3c0.7,0.9,1.9,1.3,3,1.1c0.7,0,1.3-0.1,2-0.2c0.6-0.1,1.2-0.3,1.8-0.5l0.4,4.3
			c-0.7,0.3-1.5,0.5-2.3,0.7c-1,0.2-2,0.3-3,0.3c-1.3,0-2.6-0.2-3.8-0.7c-1-0.4-1.9-1-2.6-1.8c-0.7-0.7-1.2-1.6-1.5-2.6
			C90,41.1,89.9,40,89.9,39L89.9,39z"/>
		<path class="st0" d="M113.7,47.1c-1.1,0-2.3-0.2-3.3-0.6c-0.9-0.4-1.7-0.9-2.3-1.6c-0.6-0.7-1.1-1.6-1.4-2.5
			c-0.3-1-0.5-2.1-0.5-3.2c0-1.5,0.2-2.9,0.7-4.3c0.5-1.4,1.2-2.7,2.1-3.9c0.9-1.2,2.1-2.1,3.4-2.9c1.4-0.8,3-1.1,4.6-1.1
			c1.1,0,2.3,0.2,3.3,0.6c0.9,0.4,1.7,0.9,2.4,1.6c0.6,0.7,1.1,1.6,1.4,2.5c0.3,1,0.5,2.1,0.5,3.2c0,1.5-0.2,2.9-0.7,4.3
			c-0.4,1.4-1.1,2.7-2,3.9s-2.1,2.1-3.4,2.8C117,46.8,115.4,47.2,113.7,47.1z M116.4,31.6c-0.8,0-1.5,0.2-2.1,0.7
			c-0.6,0.5-1.1,1.1-1.5,1.7c-0.4,0.7-0.7,1.5-0.9,2.3c-0.2,0.8-0.3,1.6-0.3,2.4c0,1,0.2,2,0.6,2.8c0.5,0.7,1.3,1.1,2.1,1
			c0.8,0,1.5-0.2,2.1-0.7s1.1-1.1,1.5-1.8s0.7-1.5,0.9-2.3c0.2-0.8,0.3-1.6,0.3-2.4c0.1-1-0.1-2-0.6-2.8
			C118.1,31.9,117.3,31.5,116.4,31.6z"/>
		<path class="st0" d="M130.3,46.6H125l4.5-19.1h5.4L130.3,46.6z M132.9,25.2c-0.7,0-1.4-0.2-2-0.7s-1-1.3-0.9-2
			c0-0.5,0.1-1,0.3-1.4s0.5-0.8,0.8-1.2c0.3-0.3,0.7-0.6,1.2-0.8c0.5-0.2,0.9-0.3,1.4-0.3c0.7,0,1.4,0.2,2,0.7s1,1.3,0.9,2
			c0,0.5-0.1,1-0.3,1.4s-0.5,0.8-0.8,1.2c-0.3,0.3-0.7,0.6-1.2,0.8C133.9,25.1,133.4,25.2,132.9,25.2z"/>
		<path class="st0" d="M138.8,28.4l1.4-0.4c0.5-0.2,1.1-0.3,1.7-0.4c0.7-0.2,1.4-0.3,2.1-0.3c0.9-0.1,1.7-0.1,2.6-0.1
			c2.8,0,4.8,0.8,5.9,2.5s1.3,3.9,0.6,6.8l-2.5,10.3H145l2.4-10.1c0.2-0.6,0.3-1.2,0.3-1.8c0.1-0.5,0.1-1,0-1.6
			c-0.1-0.4-0.3-0.8-0.7-1.1c-0.5-0.3-1-0.5-1.6-0.4c-0.7,0-1.4,0.1-2.1,0.2l-3.5,14.8h-5.4L138.8,28.4z"/>
	</g>
	<g>
		<path class="st0" d="M203.4,32.5c0,9.7-7.6,17.4-17.3,17.4c-8.9,0-17.3-6.9-17.4-17.5c-0.1-9.4,7.9-17.3,17.3-17.3
			C195.6,15.1,203.4,22.9,203.4,32.5z M186.2,41.9c1.9,0,3.7,0,5.6,0c2.3,0,2.3,0,2.9-2.3c0.3-1.2-0.1-1.5-1.2-1.5
			c-1.6,0-3.1,0-4.7,0c-3.5,0-3.5,0-2.6-3.5c0.2-1,0.7-1.7,1.7-1.9c1.1-0.2,1.4-0.9,1.7-1.9c0.2-1,0-1.3-1-0.9
			c-1.1,0.4-1.2,0-0.9-0.9c0.5-1.6,0.9-3.3,1.3-4.9c0.2-0.9,0-1.4-1-1.4c-1.1,0-2.2,0-3.3,0c-1-0.1-1.5,0.4-1.7,1.4
			c-0.6,2.5-1.3,5-1.9,7.6c-0.2,0.8-0.6,1.4-1.4,1.6c-1.1,0.2-1.4,1-1.6,2c-0.1,0.7-0.2,1.2,0.8,0.9c0.9-0.3,1,0.2,0.8,0.9
			c-0.3,1.1-0.6,2.3-0.9,3.4c-0.3,1,0,1.4,1.1,1.4C181.9,41.9,184,41.9,186.2,41.9z"/>
		<path class="st0" d="M238,38.1c-1.8,0-3.6,0-5.3,0c-1.3,0-1.4,0.3-0.9,1.5c1.6,3.5,6.6,4.2,9.4,1.3c0.3-0.3,0.5-0.8,1-0.8
			c0.7,0.1,1.5-0.1,1.9,0.6c0.3,0.6-0.3,1.1-0.6,1.5c-2.9,3.5-8.1,4.1-11.8,1.3c-3.3-2.5-4.1-8.2-1.5-11.9c2.4-3.4,7.6-4.4,11.3-2.1
			c2.7,1.7,3.5,4.4,3.6,7.4c0,0.9-0.6,1.1-1.4,1.1C241.7,38.1,239.8,38.1,238,38.1L238,38.1z M236.7,35.6c1.4,0,2.7,0,4.1,0
			c1.1,0,1.4-0.3,1-1.4c-0.8-2-2.7-3.3-5.1-3.3c-2.3,0-4.5,1.5-5.1,3.5c-0.3,0.9,0,1.2,0.9,1.2C233.8,35.6,235.3,35.6,236.7,35.6z"
			/>
		<path class="st0" d="M270.3,45.3c-5,0-8.4-3.5-8.4-8.6c0-4.9,3.7-8.4,8.7-8.4c4.9,0,8.4,3.7,8.4,8.7
			C278.9,41.9,275.4,45.3,270.3,45.3z M270.4,42.7c3.4,0,6-2.5,6-5.9c0-3.3-2.5-5.8-6-5.8c-3.4,0-5.9,2.4-6,5.7
			C264.4,40,267,42.7,270.4,42.7z"/>
		<path class="st0" d="M288.2,36.8c0-2.2,0-4.4,0-6.6c0-0.6-0.1-1.4,0.9-1.4c0.7,0,1.6-0.3,1.9,0.9c0.3,1,0.7,0.2,1.1,0
			c2.2-1.5,4.6-1.8,7-0.7c2.5,1.2,3.3,3.5,3.4,6c0.2,2.9,0,5.8,0.1,8.8c0,1-0.5,1.3-1.4,1.3s-1.3-0.4-1.3-1.3c0-2.7,0-5.4,0-8.1
			c0-3.1-1.3-4.6-3.8-4.6c-2.9,0-4.9,1.8-4.9,4.7c-0.1,2.6,0,5.1,0,7.7c0,1-0.2,1.7-1.4,1.7c-1.3,0-1.3-0.8-1.3-1.7
			C288.2,41.1,288.2,38.9,288.2,36.8z"/>
		<path class="st0" d="M255.2,45.3c-4.1,0-7.1-2.1-8.2-5.6c-1.2-3.5,0-7.6,2.6-9.5c3.1-2.3,7.4-2.5,10.4-0.4
			c0.6,0.4,1.1,0.8,0.5,1.5c-0.5,0.6-0.9,1.3-1.9,0.7c-1.1-0.7-2.3-1-3.6-1c-2.4,0.1-4.3,1.1-5.3,3.4c-1,2.3-0.6,4.6,1.1,6.5
			c1.5,1.7,4.2,2.3,6.4,1.5c0.4-0.2,0.9-0.3,1.2-0.6c1.1-0.8,1.8,0,2.3,0.7c0.7,1-0.4,1.2-0.9,1.6C258.3,45,256.7,45.4,255.2,45.3z"
			/>
		<path class="st0" d="M221.7,37.9c0-1.8,0-3.6,0-5.3c0-1-0.3-1.6-1.4-1.5c-0.8,0.1-1.4-0.1-1.4-1.2s0.5-1.4,1.5-1.3
			c1.1,0.1,1.4-0.5,1.4-1.5s0-2.1,0-3.1s0.4-1.4,1.4-1.4c0.9,0,1.3,0.4,1.3,1.3c0,1,0.1,2.1,0,3.1c-0.1,1.2,0.4,1.6,1.6,1.6
			c0.6,0,1.4-0.2,1.7,0.7c0.3,1.1-0.1,1.7-1.3,1.8c-2,0.1-2,0.1-2,2.1c0,3.3,0,6.6,0,10c0,1,0.1,2-1.4,1.9c-1.5,0-1.3-1-1.3-2
			C221.7,41.3,221.7,39.6,221.7,37.9z"/>
		<path class="st0" d="M207.9,32.3c0-3.6,0-7.3,0-10.9c0-0.9,0.1-1.6,1.3-1.6s1.3,0.7,1.3,1.6c0,7.3,0,14.7,0,22
			c0,0.9-0.1,1.6-1.3,1.6s-1.3-0.7-1.3-1.6C207.9,39.7,207.9,36,207.9,32.3z"/>
		<path class="st0" d="M217,36.9c0,2.2,0,4.5,0,6.7c0,0.9-0.3,1.4-1.3,1.5c-1.1,0-1.4-0.4-1.4-1.5c0-4.5,0-8.9,0-13.4
			c0-0.9,0.3-1.4,1.3-1.5c1.1,0,1.5,0.4,1.4,1.5C217,32.4,217,34.6,217,36.9z"/>
		<path class="st0" d="M284.4,36.9c0,2.2,0,4.5,0,6.7c0,0.9-0.2,1.5-1.3,1.5c-1.1,0-1.3-0.6-1.3-1.5c0-4.5,0-8.9,0-13.4
			c0-0.9,0.2-1.5,1.3-1.5c1.1,0,1.3,0.6,1.3,1.5C284.4,32.4,284.4,34.7,284.4,36.9z"/>
		<path class="st0" d="M285.1,22.7c0,1-0.7,1.7-1.8,1.8c-1.1,0-1.9-0.6-1.9-1.7c0-1,0.7-1.8,1.7-1.9C284.1,20.9,285,21.7,285.1,22.7
			z"/>
		<path class="st0" d="M215.7,20.9c1,0,1.9,0.8,1.9,1.8s-0.8,1.8-2,1.8c-1.1,0-1.8-0.8-1.8-1.8C213.8,21.8,214.7,20.9,215.7,20.9z"
			/>
	</g>
	<g>
		<path class="st5" d="M353.8,34.9c0,0.2-0.2,0.3-0.3,0.3h-6.7c0.2,1.7,1.4,3.2,3.2,3.2c1.2,0,2.1-0.5,2.8-1.4
			c0.1-0.1,0.2-0.2,0.4-0.1c0.1,0,0.2,0.1,0.2,0.2c0,0.1,0,0.2,0,0.2c-0.7,1.2-2,1.7-3.3,1.7c-2.3,0-3.9-2-3.9-4.2s1.6-4.2,3.9-4.2
			C352.1,30.8,353.8,32.8,353.8,34.9 M353.1,34.6c-0.1-1.7-1.4-3.2-3.2-3.2s-3,1.5-3.2,3.2H353.1z M361.9,30.9
			c0.2,0,0.3,0.2,0.3,0.3c0,0.2-0.1,0.3-0.3,0.3h-1.8v7c0,0.2-0.1,0.3-0.3,0.3c-0.2,0-0.3-0.2-0.3-0.3v-7h-1.7
			c-0.2,0-0.3-0.1-0.3-0.3c0-0.2,0.1-0.3,0.3-0.3h1.7v-2.6c0-0.2,0.1-0.3,0.3-0.3c0.2,0,0.4,0.1,0.4,0.3v2.6L361.9,30.9L361.9,30.9z
			 M372.8,34.3v4.3c0,0.2-0.2,0.3-0.3,0.3c-0.2,0-0.3-0.1-0.3-0.3v-4.3c0-1.4-0.8-2.9-2.4-2.9c-2.1,0-2.9,1.8-2.8,3.6v0.3v3.2
			c0,0.2-0.1,0.3-0.3,0.3c-0.2,0-0.4-0.1-0.4-0.3v-14c0-0.2,0.1-0.3,0.3-0.3c0.2,0,0.3,0.2,0.3,0.3v7.9c0.6-1,1.6-1.7,2.8-1.7
			C371.7,30.8,372.8,32.5,372.8,34.3 M384.8,34.9c0,0.2-0.2,0.3-0.3,0.3h-6.7c0.2,1.7,1.4,3.2,3.2,3.2c1.2,0,2.1-0.5,2.8-1.4
			c0.1-0.1,0.2-0.2,0.4-0.1c0.1,0,0.2,0.1,0.2,0.2c0,0.1,0,0.2,0,0.2c-0.7,1.2-2,1.7-3.3,1.7c-2.3,0-3.9-2-3.9-4.2s1.6-4.2,3.9-4.2
			C383.2,30.8,384.8,32.8,384.8,34.9 M384.1,34.6c-0.1-1.7-1.4-3.2-3.2-3.2s-3,1.5-3.2,3.2H384.1z M393,31.3c0,0.2-0.1,0.3-0.3,0.4
			c-2,0.3-2.8,1.9-2.8,3.8v3.2c0,0.2-0.1,0.3-0.3,0.3c-0.2,0-0.4-0.1-0.4-0.3v-7.3c0-0.2,0.1-0.3,0.3-0.3c0.2,0,0.4,0.1,0.4,0.3v1.5
			c0.5-0.9,1.7-1.8,2.8-1.8C392.8,30.9,393,31.1,393,31.3 M404,34.9c0,0.2-0.2,0.3-0.3,0.3H397c0.2,1.7,1.4,3.2,3.2,3.2
			c1.2,0,2.1-0.5,2.8-1.4c0.1-0.1,0.2-0.2,0.4-0.1c0.1,0,0.2,0.1,0.2,0.2c0,0.1,0,0.2,0,0.2c-0.7,1.2-2,1.7-3.3,1.7
			c-2.3,0-3.9-2-3.9-4.2s1.6-4.2,3.9-4.2C402.4,30.8,404,32.8,404,34.9 M403.3,34.6c-0.1-1.7-1.4-3.2-3.2-3.2c-1.7,0-3,1.5-3.2,3.2
			H403.3z M414.8,31.3v7.3c0,0.2-0.2,0.3-0.3,0.3c-0.2,0-0.3-0.1-0.3-0.3v-1.4c-0.5,1.1-1.5,1.9-2.8,1.9c-2,0-3.1-1.7-3.1-3.5v-4.3
			c0-0.2,0.1-0.3,0.3-0.3c0.2,0,0.3,0.2,0.3,0.3v4.3c0,1.4,0.8,2.9,2.4,2.9c2.3,0,2.8-2.1,2.8-4.4v-2.7c0-0.2,0.2-0.4,0.4-0.3
			C414.7,31.1,414.8,31.2,414.8,31.3 M431.8,34.3v4.3c0,0.2-0.2,0.3-0.3,0.3c-0.2,0-0.3-0.1-0.3-0.3v-4.3c0-1.4-0.8-2.8-2.4-2.8
			c-2,0-2.8,2.2-2.8,3.8v3.3c0,0.2-0.2,0.3-0.3,0.3c-0.2,0-0.3-0.1-0.3-0.3v-4.3c0-1.4-0.8-2.8-2.4-2.8c-2,0-2.9,1.6-2.8,3.7
			c0,0,0,0.1,0,0.2v3.2c0,0.2-0.1,0.3-0.3,0.3c-0.2,0-0.4-0.1-0.4-0.3v-7.3c0-0.2,0.1-0.3,0.3-0.3c0.2,0,0.4,0.1,0.4,0.3v1.2
			c0.6-1,1.6-1.7,2.8-1.7c1.4,0,2.4,0.9,2.8,2.1c0.5-1.2,1.6-2.1,3-2.1C430.6,30.8,431.8,32.5,431.8,34.3"/>
		<g class="st1">
			<g>
				<path class="st0" d="M329,28.9L317.8,34l11.2,6.6l11.2-6.6L329,28.9z"/>
			</g>
		</g>
		<g class="st6">
			<g>
				<path class="st0" d="M317.8,34l11.2,6.6V15.5L317.8,34z"/>
			</g>
		</g>
		<g class="st7">
			<g>
				<path class="st0" d="M329,15.5v25.2l11.2-6.6L329,15.5z"/>
			</g>
		</g>
		<g class="st6">
			<g>
				<path class="st0" d="M317.8,36.1L329,51.9v-9.1L317.8,36.1z"/>
			</g>
		</g>
		<g class="st7">
			<g>
				<path class="st0" d="M329,42.7v9.1L340.2,36L329,42.7z"/>
			</g>
		</g>
	</g>
	<g>
		<g>
			<path class="st0" d="M484.1,31.3c-0.3-0.1-0.8-0.1-1.4-0.1c-1.7,0-3.5,1.4-3.5,3.1v8.1h-3.9V27.9h3.7v1.5
				c0.9-1.1,2.4-1.8,4.2-1.8c0.6,0,0.9,0.1,1.3,0.1L484.1,31.3z"/>
			<path class="st0" d="M488.5,20.3c1.4,0,2.5,1.1,2.5,2.5s-1.1,2.5-2.5,2.5s-2.5-1.1-2.5-2.5S487.1,20.3,488.5,20.3z M490.5,42.4
				h-3.9V27.9h3.9V42.4z"/>
			<path class="st0" d="M501.9,27.6c-1.6,0-3.1,0.5-4.2,1.5v-1.2H494v21.6h3.9v-8.2c1.2,0.9,2.4,1.3,3.9,1.3c2.1,0,4.2-1,5.5-2.4
				c1.1-1.3,1.8-3.1,1.8-5.1C509,30.9,505.9,27.6,501.9,27.6z M501.4,39.1c-2.4,0-4-1.7-4-4s1.6-4,4-4c2.1,0,3.7,1.8,3.7,4
				C505.2,37.4,503.5,39.1,501.4,39.1z"/>
			<path class="st0" d="M532.6,42.4h-3.9V21.2h3.9V42.4z"/>
			<path class="st0" d="M548.4,40.1c-1.4,1.7-3.7,2.6-5.9,2.6c-4.3,0-7.6-3-7.6-7.5c0-4,2.7-7.6,7-7.6c4,0,6.8,3.4,6.8,7.4
				c0,0.4,0,0.8-0.1,1.1h-10c0.2,2,1.9,3.4,3.9,3.4c1.6,0,3-0.9,3.6-1.7L548.4,40.1z M544.8,33.3c-0.1-1.3-1.3-2.5-2.9-2.5
				c-1.6,0-2.9,1.2-3.1,2.5H544.8z"/>
			<path class="st0" d="M519.3,27.6c-1.6,0-3.1,0.5-4.2,1.5v-1.2h-3.7v21.6h3.9v-8.2c1.2,0.9,2.4,1.3,3.9,1.3c2.1,0,4.2-1,5.5-2.4
				c1.1-1.3,1.8-3.1,1.8-5.1C526.4,30.9,523.2,27.6,519.3,27.6z M518.8,39.1c-2.4,0-4-1.7-4-4s1.6-4,4-4c2.1,0,3.7,1.8,3.7,4
				C522.5,37.4,520.9,39.1,518.8,39.1z"/>
		</g>
		<g>
			<path class="st0" d="M467.3,37.1c-0.9-0.5-1.9-0.7-2.8-0.7c-0.8,0-2-0.6-2-2c0-1.1,0.9-2,2-2c1,0,2-0.2,2.8-0.7
				c1.6-0.9,2.6-2.6,2.6-4.5c0-1.8-1-3.6-2.6-4.5s-3.6-0.9-5.2,0s-2.6,2.6-2.6,4.5c0,1,0.4,1.9,0.8,2.8c0.4,0.7,0.6,2.1-0.7,2.8
				c-1,0.6-2.2,0.2-2.8-0.8c-0.5-0.8-1.1-1.6-2-2.1c-1.6-0.9-3.6-0.9-5.2,0s-2.6,2.6-2.6,4.5c0,1.8,1,3.6,2.6,4.5s3.6,0.9,5.2,0
				c0.9-0.5,1.5-1.3,2-2.1c0.4-0.7,1.5-1.5,2.8-0.8c1,0.6,1.3,1.8,0.7,2.8c-0.5,0.9-0.8,1.8-0.8,2.8c0,1.8,1,3.6,2.6,4.5
				s3.6,0.9,5.2,0s2.6-2.6,2.6-4.5C469.9,39.7,468.9,38,467.3,37.1z"/>
		</g>
	</g>
</g>
<g id="g6321" transform="translate(-9.4000001,96.810998)">
	<g id="g6323" transform="matrix(1.8215159,0,0,1.8215159,-8.5437653,-109.83667)">
		<path id="path6325" class="st8" d="M247.6,59.1c0,2.4-1.9,4.1-4.1,4.1H221V46.9c0-2.4,1.9-4.1,4.1-4.1h22.5V59.1L247.6,59.1z"/>
		<g id="g6327">
			<path id="path6338" class="st0" d="M240.1,54.8h1.8c0.1,0,0.1,0,0.1,0c0.4-0.1,0.6-0.4,0.6-0.8c0-0.5-0.2-0.7-0.6-0.8
				c-0.1,0-0.1,0-0.1,0h-1.8V54.8L240.1,54.8z"/>
			<path id="path6349" class="st0" d="M241.8,44.2c-1.7,0-3,1.3-3,3v3.1h4.3c0.1,0,0.1,0,0.2,0c0.9,0.1,1.7,0.5,1.7,1.4
				c0,0.7-0.5,1.2-1.4,1.4l0,0c0.9,0.1,1.8,0.6,1.8,1.4s-0.8,1.4-1.9,1.4h-4.5v6h4.4c1.7,0,3-1.3,3-3V44.2H241.8L241.8,44.2z"/>
			<path id="path6360" class="st0" d="M242.5,51.7c0-0.5-0.2-0.7-0.6-0.7h-0.1h-1.5v1.4h1.5c0.1,0,0.1,0,0.1,0
				C242.3,52.3,242.5,52.1,242.5,51.7z"/>
		</g>
		<path id="path6371" class="st0" d="M225.3,44.2c-1.7,0-3,1.3-3,3v7.3c0.8,0.5,1.8,0.7,2.6,0.7c1.1,0,1.5-0.6,1.5-1.4v-3.4h2.6v3.4
			c0,1.4-0.8,2.4-3.5,2.4c-1.8,0-3-0.4-3-0.4V62h4.4c1.7,0,3-1.3,3-3V44.2C229.7,44.2,225.3,44.2,225.3,44.2z"/>
		<path id="path6384" class="st0" d="M233.6,44.2c-1.7,0-3,1.3-3,3V51c0.8-0.6,2-1.1,4.1-0.9c1.1,0.1,2.4,0.4,2.4,0.4v1.3
			c-0.6-0.4-1.3-0.6-2.2-0.7c-1.7-0.1-2.6,0.7-2.6,2c0,1.4,0.9,2.1,2.6,2c0.9-0.1,1.7-0.4,2.2-0.7v1.3c0,0-1.2,0.4-2.4,0.4
			c-2,0.1-3.4-0.4-4.1-0.9v6.9h4.4c1.7,0,3-1.3,3-3V44.2C237.9,44.2,233.6,44.2,233.6,44.2z"/>
	</g>
	<g id="g6386">
	</g>
</g>
<g>
	<g>
		<g>
			<path class="st0" d="M474.6,91.7l-4.9-4c-0.2-0.2-0.6-0.2-0.8-0.1s-0.5,0.5-0.5,0.7v2.4H467c-1.1,0-2.1-0.6-2.7-1.5l-5.2-8.4
				c-1.2-1.9-3.2-3.1-5.4-3.1H449v3.2h4.6c1.1,0,2.1,0.6,2.7,1.5l5.2,8.4c1.2,1.9,3.2,3.1,5.4,3.1h1.3v2.4c0,0.4,0.2,0.6,0.5,0.7
				c0.1,0,0.2,0.1,0.4,0.1c0.2,0,0.4-0.1,0.5-0.2l4.9-4c0.2-0.1,0.2-0.4,0.2-0.6C474.7,92,474.7,91.8,474.6,91.7z"/>
		</g>
	</g>
	<g>
		<g>
			<path class="st0" d="M474.6,78.8l-4.9-4c-0.2-0.2-0.6-0.2-0.8-0.1c-0.2,0.1-0.5,0.5-0.5,0.7v2.4H467c-2.2,0-4.3,1.2-5.4,3.1
				l-0.2,0.5l1.9,3.1l1.2-1.8c0.6-0.9,1.7-1.5,2.7-1.5h1.3v2.4c0,0.4,0.2,0.6,0.5,0.7c0.1,0,0.2,0.1,0.4,0.1c0.2,0,0.4-0.1,0.5-0.2
				l4.9-4c0.2-0.1,0.2-0.4,0.2-0.6C474.8,79.2,474.7,78.9,474.6,78.8z"/>
		</g>
	</g>
	<g>
		<g>
			<path class="st0" d="M457.5,87.5l-1.1,1.8c-0.6,0.9-1.7,1.5-2.7,1.5h-4.6V94h4.6c2.2,0,4.3-1.2,5.4-3.1l0.2-0.5L457.5,87.5z"/>
		</g>
	</g>
	<g>
		<path class="st0" d="M496.5,88.3c-0.7,0.6-1.7,1.1-2.4,1.5c0.6,1.1,1.4,1.8,2.6,2.4c-0.6,0.5-1.3,1.5-1.7,2.1
			c-1.4-0.8-2.5-2-3.2-3.4l0.2,2c-1.8,0.5-3.7,0.8-5.2,1.2l-0.4-1.2c-2.2,0.4-4.5,0.7-6.3,1.1l-0.5-2.4c0.7-0.1,1.7-0.2,2.6-0.4
			v-0.8l-1.7,0.5c0-0.8-0.4-2.1-0.6-3.1l1.7-0.5c0.2,0.8,0.5,1.8,0.6,2.5v-3H480v-2.2h2.2v-0.9h-1.5v-0.6l0,0
			c-0.4-0.6-1.1-1.4-1.5-1.8c1.5-1.3,2.6-2.8,3.2-4.3h2.1c1.1,0.8,2.4,2,3,3v-2.4h8.4V86h-3c0.1,0.6,0.2,1.2,0.5,1.7
			c0.6-0.5,1.1-0.9,1.5-1.3L496.5,88.3z M485.3,81.6c-0.5-0.6-1.1-1.4-1.7-2c-0.5,0.6-0.9,1.3-1.5,2H485.3z M484.5,91l2.4-0.4v0.7
			l0.6-0.1V80.4l-1.1,1.3v2.1h-1.9v0.9h2.2V87h-2.2v3.1c0.2-0.8,0.5-1.9,0.5-2.7l1.9,0.5c-0.4,1.1-0.7,2.1-0.9,2.8l-1.5-0.5V91
			H484.5z M489.8,80v0.8h3.4V80H489.8z M493.3,83.9v-0.8h-3.4v0.8H493.3z M489.8,90.8c0.6-0.1,1.2-0.2,1.8-0.4
			c-0.6-1.3-0.9-2.7-1.2-4.3h-0.6V90.8z"/>
		<path class="st0" d="M504.6,82c-0.5,0.9-1.2,1.9-1.9,2.7v9.5h-2.6v-6.5c-0.4,0.4-0.8,0.7-1.2,1.1c-0.4-0.6-1.3-1.8-1.8-2.2
			c1.8-1.3,3.8-3.3,5-5.4L504.6,82z M503.9,78.1c-1.4,1.8-3.3,3.7-5.2,5c-0.4-0.6-0.9-1.7-1.4-2.1c1.5-0.9,3.2-2.6,4-3.8L503.9,78.1
			z M514.3,85.6H512v5.7c0,1.3-0.2,2-1.2,2.5c-0.8,0.4-2.1,0.5-3.5,0.5c-0.1-0.8-0.5-1.9-0.8-2.7c0.8,0,2.1,0,2.4,0
			c0.4,0,0.5-0.1,0.5-0.4v-5.7h-5V83h9.9v2.6H514.3z M513.9,80.6h-8.8v-2.5h8.8V80.6z"/>
		<path class="st0" d="M520.1,89.7c0.7,1.1,1.9,1.5,3.7,1.7c2.2,0.1,6.3,0,8.9-0.2c-0.2,0.6-0.7,1.9-0.8,2.7c-2.2,0.1-5.9,0.1-8.2,0
			c-2.1-0.1-3.5-0.6-4.7-1.9c-0.7,0.6-1.5,1.3-2.5,2.1l-1.3-2.7c0.7-0.5,1.5-0.9,2.4-1.4v-3.3h-1.9v-2.4h4.4v5.4H520.1z M518.5,81.9
			c-0.5-0.8-1.8-2-2.8-2.8l1.9-1.5c1.1,0.7,2.4,1.9,3,2.7L518.5,81.9z M528.2,86c0.8,1.4,2.2,2.4,4.3,2.8c-0.6,0.5-1.3,1.5-1.7,2.2
			c-1.9-0.6-3.2-1.8-4.1-3.3c-0.8,1.2-2.1,2.4-4.1,3.3c-0.4-0.6-1.2-1.4-1.8-1.9c2.5-0.8,3.5-2,4-3.2h-3.9v-2.4h4.3v-1.3h-3.5v-2.2
			h1.5c-0.2-0.7-0.7-1.4-1.2-2.1l2.2-0.9c0.6,0.8,1.3,1.9,1.5,2.7l-0.8,0.4h3.5l-0.8-0.2c0.5-0.8,1.1-1.9,1.4-2.7l2.7,0.8
			c-0.6,0.8-1.1,1.7-1.5,2.2h1.9v2.2h-4.1v1.3h4.7v2.4h-4.5V86z"/>
		<path class="st0" d="M547.8,89c-0.6,0.8-1.3,1.8-1.8,2.5h3.7v2.2h-15.3v-2.2h3.2c-0.4-0.8-0.8-1.8-1.3-2.6l1.3-0.6h-2.2V86h5.2
			v-1.4h-3.1v-0.7c-0.8,0.6-1.7,1.1-2.5,1.5c-0.4-0.6-1.1-1.5-1.7-2.1c3.1-1.4,5.9-4.3,7.2-6.4h2.7c2,2.8,4.7,5,7.7,6.2
			c-0.6,0.7-1.3,1.5-1.8,2.4c-0.8-0.5-1.8-1.1-2.6-1.7v0.8h-3.2V86h5.2v2.2h-2.5L547.8,89z M538.6,88.4c0.6,0.8,1.2,1.8,1.4,2.5
			l-1.3,0.6h1.8v-3.1H538.6z M544.7,82.5c-1.1-0.9-2.1-1.9-2.7-2.8c-0.7,0.9-1.5,1.9-2.7,2.8H544.7z M543.3,88.4v3.1h1.3l-0.9-0.4
			c0.5-0.7,1.1-1.8,1.5-2.7C545.2,88.4,543.3,88.4,543.3,88.4z"/>
	</g>
</g>
<g id="layer1" transform="translate(-55.5,-1002.3452)">
	<path class="st0" d="M300.2,1095.1h-13.7l-0.8-1.1v1.1H283v-1.8c0,0-0.4,0.2-1.2,0.2h-0.9v1.4h-4.1l-0.8-0.9l-0.8,0.9h-6.7v-6.4
		h6.9l0.8,0.9l0.8-0.9h24.7l0.1-0.1v-22.2h-41.2v17.4l1.5-3.5h2.6l0.8,2v-2h3.3l0.5,1.4l0.5-1.4h14.9v0.8c0,0,0.8-0.8,2-0.8h4.9
		l0.8,2v-2h2.7l0.8,1.1v-1.1h2.8v6.4H296l-0.8-1.1v1.1H291l-0.5-1.1h-1.1l-0.5,1.1h-2.7c-1.1,0-1.8-0.7-1.8-0.7v0.7h-4.3l-0.8-1.1
		v1.1H264l-0.5-1.1h-1.1l-0.5,1.1h-1.8v20.9h41.2v-12.8C301.4,1094.8,300.7,1095.1,300.2,1095.1z"/>
	<path id="path3046" class="st0" d="M262.4,1081l-2,4.9h1.4l0.4-0.9h2.2l0.4,0.9h1.4l-2-4.9H262.4L262.4,1081z M263.2,1082.1
		l0.7,1.8h-1.4L263.2,1082.1z"/>
	<path id="path3048" class="st0" d="M266.3,1085.9v-4.9h1.9l1.1,3.1l1.1-3.1h1.9v4.9H271v-3.5l-1.3,3.5h-0.9l-1.3-3.5v3.5H266.3z"/>
	<path id="path3050" class="st0" d="M273.1,1085.9v-4.9h3.9v1.1h-2.7v0.8h2.6v1.1h-2.6v0.8h2.7v1.1H273.1L273.1,1085.9z"/>
	<path id="path3052" class="st0" d="M277.8,1081v4.9h1.2v-1.8h0.5l1.4,1.8h1.4l-1.7-1.8c0.7-0.1,1.3-0.6,1.3-1.4
		c0-1.1-0.8-1.5-1.8-1.5h-2.4V1081z M278.9,1082.1h1.4c0.4,0,0.6,0.2,0.6,0.5c0,0.4-0.4,0.5-0.5,0.5h-1.4L278.9,1082.1L278.9,1082.1
		z"/>
	<path id="path3054" class="st0" d="M283.9,1085.9h-1.2v-4.9h1.2V1085.9z"/>
	<path id="path3056" class="st0" d="M286.7,1085.9h-0.2c-1.3,0-2-1.1-2-2.4c0-1.4,0.8-2.4,2.4-2.4h1.4v1.1h-1.4
		c-0.7,0-1.1,0.5-1.1,1.3c0,0.9,0.5,1.4,1.3,1.4h0.4L286.7,1085.9z"/>
	<path id="path3058" class="st0" d="M289.5,1081l-2,4.9h1.4l0.4-0.9h2.2l0.4,0.9h1.4l-2-4.9H289.5L289.5,1081z M290.2,1082.1
		l0.7,1.8h-1.4L290.2,1082.1L290.2,1082.1z"/>
	<path id="path3060" class="st0" d="M293.2,1085.9v-4.9h1.5l2,3v-3h1.2v4.9h-1.4l-2-3.1v3.1H293.2z"/>
	<path id="path3062" class="st0" d="M269.2,1094.3v-4.9h3.9v1.1h-2.7v0.8h2.6v1.1h-2.6v0.8h2.7v1.1H269.2L269.2,1094.3z"/>
	<path id="path3064" class="st0" d="M288.5,1094.3v-4.9h3.9v1.1h-2.7v0.8h2.6v1.1h-2.6v0.8h2.7v1.1H288.5L288.5,1094.3z"/>
	<path id="path3066" class="st0" d="M273.3,1094.3l1.9-2.4l-2-2.5h1.5l1.2,1.5l1.2-1.5h1.4l-2,2.4l1.9,2.4H277l-1.1-1.4l-1.1,1.4
		L273.3,1094.3L273.3,1094.3z"/>
	<path id="path3068" class="st0" d="M278.7,1089.4v4.9h1.2v-1.5h1.3c1.1,0,1.9-0.6,1.9-1.8c0-0.9-0.6-1.7-1.8-1.7L278.7,1089.4
		L278.7,1089.4z M279.9,1090.6h1.4c0.4,0,0.6,0.1,0.6,0.5c0,0.4-0.2,0.5-0.6,0.5h-1.4V1090.6L279.9,1090.6z"/>
	<path id="path3072" class="st0" d="M283.5,1089.4v4.9h1.2v-1.8h0.5l1.4,1.8h1.4l-1.7-1.8c0.7-0.1,1.3-0.6,1.3-1.4
		c0-1.1-0.8-1.5-1.8-1.5h-2.4V1089.4z M284.8,1090.5h1.4c0.4,0,0.6,0.2,0.6,0.5c0,0.4-0.4,0.5-0.5,0.5H285L284.8,1090.5
		L284.8,1090.5z"/>
	<path id="path3074" class="st0" d="M293,1094.3v-1.1h2.4c0.4,0,0.5-0.1,0.5-0.5c0-0.1-0.1-0.5-0.5-0.5h-1.1c-0.9,0-1.4-0.6-1.4-1.4
		c0-0.8,0.5-1.5,1.9-1.5h2.4l-0.5,1.1h-2c-0.5,0-0.5,0.1-0.5,0.5c0,0.1,0.1,0.5,0.5,0.5h1.1c1.1,0,1.5,0.6,1.5,1.4s-0.5,1.5-1.5,1.5
		H293L293,1094.3z"/>
	<path id="path3076" class="st0" d="M297.5,1094.3v-1.1h2.4c0.4,0,0.5-0.1,0.5-0.5c0-0.1-0.1-0.5-0.5-0.5h-1.1
		c-0.9,0-1.4-0.6-1.4-1.4c0-0.8,0.5-1.5,1.9-1.5h2.4l-0.5,1.1h-2c-0.5,0-0.5,0.1-0.5,0.5c0,0.1,0.1,0.5,0.5,0.5h1.1
		c1.1,0,1.5,0.6,1.5,1.4s-0.5,1.5-1.5,1.5H297.5L297.5,1094.3z"/>
</g>
</svg>
