<svg id="Layer_1" data-name="Layer 1" xmlns="http://www.w3.org/2000/svg" viewBox="0 0 97.36 47.5"><defs><style>.cls-1{fill:#84d5f7;}</style></defs><title>icon_mga</title><path class="cls-1" d="M25.63,23c0-2.48.07-5,0-7.43-.05-1.33.48-1.77,1.72-1.67.79.07,1.59,0,2.39,0,.42,0,.92,0,1.06.51.32,1.18.86.92,1.7.46,3.13-1.73,6.25-2.26,9.15.52.6.57,1,0,1.48-.23a9.17,9.17,0,0,1,7.22-1.44,5.53,5.53,0,0,1,4.45,5.59c.19,3.91.07,7.85.09,11.77,0,.77-.35,1.1-1.11,1.09-1.22,0-2.43,0-3.65,0-.92,0-1.22-.4-1.21-1.27,0-2.57,0-5.15,0-7.72q0-1-.12-1.95c-.11-1-.15-2.06-1.33-2.4a4.38,4.38,0,0,0-3.73.72c-.54.36-.41,1-.42,1.55,0,3.14,0,6.27,0,9.4,0,1.26-.39,1.8-1.7,1.68a22.61,22.61,0,0,0-3.08,0c-1.06.06-1.39-.42-1.38-1.41,0-3,0-6.08,0-9.12,0-1.15,0-2.38-1.34-2.81a4.32,4.32,0,0,0-3.84.81c-.5.34-.38.92-.38,1.42,0,3.13,0,6.27,0,9.4,0,1.22-.28,1.74-1.64,1.73-4.36,0-4.36,0-4.36-4.32Z"/><path class="cls-1" d="M65,41.18a11.26,11.26,0,0,1-5.86-1.09c-3.58-1.8-4-5.46-.9-8,.4-.32.69-.55.37-1.13-.94-1.68-.32-3.08,1-4.24.56-.51.56-.72,0-1.26a6.78,6.78,0,0,1,2.76-11.54,9.69,9.69,0,0,1,6.07.09,1.57,1.57,0,0,0,1.67-.22,7.51,7.51,0,0,1,4.38-1.22c1,0,1.44.32,1.09,1.35a11,11,0,0,0-.42,1.49c-.17,1-.63,1.5-1.71,1.35-.73-.1-1.06.14-.67.95,1.88,4,.28,9.4-6.58,10-.6,0-1.21,0-1.82,0-.36,0-.81-.18-.91.36a.94.94,0,0,0,.53.92,6.3,6.3,0,0,0,2.41.68A27.78,27.78,0,0,1,72,30.72c3.53,1.32,4.37,5.06,1.72,7.76C71.89,40.36,69.49,41,67,41.17,66.33,41.23,65.67,41.18,65,41.18Zm1-4c.54-.09,1.24-.17,1.91-.34s1.43-.37,1.42-1.27-.7-1.07-1.34-1.2c-1.68-.33-3.39-.53-5.07-.89-1.07-.23-1.35.29-1.4,1.16a1.88,1.88,0,0,0,1.21,1.87A9.33,9.33,0,0,0,66.06,37.19Zm1.71-16.44A2.55,2.55,0,0,0,65.32,18a2.43,2.43,0,0,0-2.3,2.5,2.38,2.38,0,0,0,2.33,2.71A2.21,2.21,0,0,0,67.77,20.75Z"/><path class="cls-1" d="M92.78,25.67c0,1.82,0,3.65,0,5.46,0,.8-.19,1.12-1,1.09-1,0-2,0-2.94,0-.27,0-.7,0-.78-.19-.76-1.56-1.6-.51-2.45-.13a6.94,6.94,0,0,1-7.31-.53,5.7,5.7,0,0,1-2.17-6.11,5.25,5.25,0,0,1,3.34-3.86,14.8,14.8,0,0,1,5.47-1c.54,0,1.39.29,1.47-.61s-.61-1.35-1.39-1.5a10.08,10.08,0,0,0-4.3.21c-.63.16-1.35.9-1.93.22a7.48,7.48,0,0,1-1.47-3c-.13-.51.4-.69.78-.85a16,16,0,0,1,9.32-1.06c3.38.64,5.14,2.85,5.26,6.44.06,1.82,0,3.64,0,5.46Zm-6.19.07c.19-1.13-.44-1.49-1.62-1.44-1.94.07-2.88.65-2.88,1.91s.78,1.72,2.24,1.71C86.15,27.91,86.6,27.5,86.59,25.74Z"/><path class="cls-1" d="M9.28,23c-2.09-1-3-3-4.41-4.54-.24-.29-.44-.69-.17-1s.78-.19,1.17,0l11.81,4c.8.27,1.58.58,2.39.81.37.1.82.51,1.16.09s-.07-.81-.2-1.18c-1.53-4.22-3.09-8.42-4.6-12.64-.24-.66-1-1.5-.26-2s1.33.38,1.92.78,1.42,1.06,2.14,1.58a4.23,4.23,0,0,1,1.85,3.59q0,10.65,0,21.31a4.11,4.11,0,0,1-1.76,3.48c-1,.72-1.95,1.45-2.94,2.15-.37.27-.8.66-1.26.3s-.12-.88,0-1.3q2.28-6.32,4.6-12.63a5.21,5.21,0,0,0,.24-.66c.1-.44.57-.9.21-1.3s-.88,0-1.29.15c-4.47,1.5-8.93,3-13.39,4.55a5.44,5.44,0,0,1-1.07.32c-.82.1-1.14-.38-.66-1C6.08,26.12,7.1,24.15,9.28,23Z"/></svg>