<svg id="Providers" xmlns="http://www.w3.org/2000/svg" viewBox="0 0 1200 60"><defs><style>.cls-1{fill:#84d5f7;}.cls-2{opacity:0.6;}</style></defs><title>payment_large_en</title><path id="path2491" class="cls-1" d="M875.25,29.6c0-.55-.28-.84-.78-.86h-2.71a.94.94,0,0,0-1,1.05v4.87a1,1,0,0,0,1.09,1.05h2.48a.84.84,0,0,0,.64-.29.7.7,0,0,0,.26-.57Zm-7.94-.69a4.31,4.31,0,0,1,.81-2.77,3.39,3.39,0,0,1,1-.67,3,3,0,0,1,1.27-.29h5c2.19,0,3.3,1.21,3.34,3.59v7.32a3,3,0,0,1-1,2.19,3.14,3.14,0,0,1-2.27,1h-4.69v5.28h-3.47V28.91"/><path id="path2493" class="cls-1" d="M885,35a.59.59,0,0,0,.28.49.93.93,0,0,0,.63.22h2.67c.6,0,.91-.24.93-.71V34c0-.55-.32-.82-1-.82H885.9a1.16,1.16,0,0,0-.72.16,1.11,1.11,0,0,0-.19.76Zm4.51-5.48c0-.54-.29-.79-.93-.78h-7V25.18h7.88c2.29,0,3.45,1.14,3.49,3.33V36a3.48,3.48,0,0,1-.87,2.34,2.92,2.92,0,0,1-2.27,1h-4.75c-2.32,0-3.49-1.07-3.53-3.18V33.22q0-3.3,3.36-3.36h4.62v-.34"/><path id="path2495" class="cls-1" d="M902.69,41a1.06,1.06,0,0,0,.71-.29.75.75,0,0,0,.28-.57v-.85h-4.45a3.58,3.58,0,0,1-1.39-.22,3.15,3.15,0,0,1-1.09-.74,3.36,3.36,0,0,1-.75-1.18,3.63,3.63,0,0,1-.24-1.42V25.18h3.47v9.4c0,.75.31,1.13.93,1.13h2.45a1.09,1.09,0,0,0,.76-.29.75.75,0,0,0,.31-.6V25.18h3.44V40.71a4.37,4.37,0,0,1-.88,2.77,3,3,0,0,1-2.37,1.07h-8.11V41h6.93"/><path id="path2497" class="cls-1" d="M909.85,35.71H916c.57,0,.86-.25.88-.68v-.32a.75.75,0,0,0-.08-.31c-.14-.27-.31-.4-.51-.4h-3.07a3.46,3.46,0,0,1-2.34-.94,2.7,2.7,0,0,1-1-2.05V28.35c0-2.08,1.17-3.13,3.39-3.17h7.17v3.56h-6.08c-.71,0-1.07.22-1.07.66v.34c0,.46.37.68,1.1.68h3.06a2.85,2.85,0,0,1,2.08.94,3.17,3.17,0,0,1,.91,2.19v2.6a3.47,3.47,0,0,1-1,2.19,2.73,2.73,0,0,1-1,.74,3.94,3.94,0,0,1-1.38.19h-7.25V35.71"/><path id="path2499" class="cls-1" d="M926.39,35a.59.59,0,0,0,.28.49.93.93,0,0,0,.63.22H930c.6,0,.91-.24.93-.71V34c0-.55-.32-.82-1-.82H927.3a1.16,1.16,0,0,0-.72.16,1.16,1.16,0,0,0-.19.76Zm4.51-5.48c0-.54-.29-.79-.94-.78h-7V25.18h7.88c2.29,0,3.45,1.14,3.49,3.33V36a3.48,3.48,0,0,1-.87,2.34,2.92,2.92,0,0,1-2.26,1h-4.77c-2.31,0-3.48-1.07-3.52-3.18V33.22q0-3.3,3.36-3.36h4.62v-.34"/><path id="path2501" class="cls-1" d="M937.16,23.16a3,3,0,0,1,1.07-2.32,4,4,0,0,1,2.66-.91h2.21v3.45h-1.34c-.73,0-1.11.37-1.12,1v.76h2.46v3.57h-2.46V39.28h-3.48V23.16"/><path id="path2503" class="cls-1" d="M953,29.45v-.08a.56.56,0,0,0-.23-.46,1,1,0,0,0-.59-.17h-2.42A1,1,0,0,0,949,29a.75.75,0,0,0-.36.65v1.43Zm-4.3,5v.22a.94.94,0,0,0,.23.68.49.49,0,0,0,.45.32h7.13v3.56H948.9a5.26,5.26,0,0,1-1.62-.19,3.12,3.12,0,0,1-1.89-1.83,5.23,5.23,0,0,1-.21-1.64l0-7.14c0-2.16,1.17-3.25,3.38-3.29h4.68c2.16,0,3.26,1.17,3.29,3.41v2.82l-7.83,3.08"/><path id="path2505" class="cls-1" d="M963.85,39.27a7.07,7.07,0,0,1-1.44-.13,3.15,3.15,0,0,1-1.38-.65,3.32,3.32,0,0,1-1-1.39,4.88,4.88,0,0,1-.29-1.72V28.72a4.22,4.22,0,0,1,.17-1.43,2.89,2.89,0,0,1,.73-1.21,3.15,3.15,0,0,1,1.31-.83,6.1,6.1,0,0,1,1.48-.16h5.32v.83h-5.19a3.65,3.65,0,0,0-2.17.57,2.51,2.51,0,0,0-.81,2.12v6.66a4.44,4.44,0,0,0,.21,1.36,2.71,2.71,0,0,0,.74,1.14,2.63,2.63,0,0,0,1.12.54,5.34,5.34,0,0,0,1.23.13h5v.83h-5"/><path id="path2507" class="cls-1" d="M982.46,30.64h-7a2.7,2.7,0,0,0-2,.77,2.87,2.87,0,0,0-.73,2.08v2.13a4.36,4.36,0,0,0,.13,1.12,1.73,1.73,0,0,0,.66.95,3.06,3.06,0,0,0,2,.75h4.22c1.77,0,2.66-.95,2.66-2.8Zm.83,4.79a8.45,8.45,0,0,1-.11,1.42,3.32,3.32,0,0,1-.7,1.3,3.48,3.48,0,0,1-2.71,1.12h-4.14a3.66,3.66,0,0,1-2.63-1,3.4,3.4,0,0,1-1-2.64V33.52c0-2.42,1.24-3.66,3.61-3.71h6.91v-.94a3.25,3.25,0,0,0-.67-2,2,2,0,0,0-1-.76,5.08,5.08,0,0,0-1.29-.15H972v-.83h7.15a10.86,10.86,0,0,1,1.78.13,2.08,2.08,0,0,1,.75.32,2.46,2.46,0,0,1,.69.65,4.45,4.45,0,0,1,.94,2.85v6.39"/><path id="path2509" class="cls-1" d="M991.09,25.92c-1.94,0-2.89,1.09-2.86,3.17V39.27h-.83V29.09c0-2.67,1.24-4,3.82-4h.92v.83h-1"/><path id="path2511" class="cls-1" d="M1005.14,25.92h-6.58a5,5,0,0,0-1.28.16,2.23,2.23,0,0,0-1.15.73,2.47,2.47,0,0,0-.65,1.07,3.43,3.43,0,0,0-.16,1.3v6.49a2.39,2.39,0,0,0,.95,2.21,3.7,3.7,0,0,0,1,.41,5.05,5.05,0,0,0,1.28.15h2.87a4.29,4.29,0,0,0,2.63-.74,2.83,2.83,0,0,0,1-2.43Zm.83,9.41q-.12,4-4.27,4h-3.08a8.44,8.44,0,0,1-1.75-.17,3.27,3.27,0,0,1-1.52-1,3.12,3.12,0,0,1-.7-1.38,5.13,5.13,0,0,1-.16-1.55V29.16c0-2.73,1.41-4.09,4.12-4.07h6.53v-4.6h.83V35.33"/><path id="path2513" class="cls-1" d="M848,24.64a4.62,4.62,0,0,1,.82-.27,5.27,5.27,0,0,1,10.32,0,3.8,3.8,0,0,1,1.93.93A8,8,0,0,0,861,24a7.07,7.07,0,0,0-14.11.33c0,.33,0,.66,0,1a4.56,4.56,0,0,1,1.11-.7"/><path id="path2515" class="cls-1" d="M858.13,25.18h-8.48a3,3,0,0,0-1.26.29,3.27,3.27,0,0,0-1,.67,4.31,4.31,0,0,0-.82,2.77v6.63a4.31,4.31,0,0,0,.82,2.77,3.47,3.47,0,0,0,1,.68,3.1,3.1,0,0,0,1.26.28h8.48c2.19,0,3.31-1.22,3.34-3.59V28.77c0-2.38-1.15-3.57-3.34-3.59"/><path class="cls-1" d="M714.83,18.13c-11.61,0-21,5.5-21,12.33,0,2.89,1.7,5.55,4.58,7.68a9.17,9.17,0,0,1-2.22-5.78c0-7.07,9.21-12.81,20.53-12.81,7.32,0,13.73,2.37,17.37,6-3.26-4.37-10.67-7.4-19.26-7.4Z"/><path class="cls-1" d="M705.49,29A3.7,3.7,0,0,1,710,29a2.75,2.75,0,0,1,1,2h-6.66a3.35,3.35,0,0,1,1.16-2Zm7.5,5a3.56,3.56,0,0,0,2.06-.54,1.93,1.93,0,0,0,.9-1.73,6.22,6.22,0,0,0-1.37-3.89,8.62,8.62,0,0,0-3.53-2.7,8.72,8.72,0,0,0-3.34-.62,8.22,8.22,0,0,0-6.11,2.41,8,8,0,0,0-2.39,5.82,7.59,7.59,0,0,0,2.5,5.78A8.74,8.74,0,0,0,708,40.82a12.93,12.93,0,0,0,3.84-.57,6.3,6.3,0,0,0,3.19-1.9,2.19,2.19,0,0,0,.56-1.37c0-1.19-.67-1.79-2-1.79a8.94,8.94,0,0,0-2.25.76,8.38,8.38,0,0,1-3.09.75,4.62,4.62,0,0,1-2.6-.71,2.72,2.72,0,0,1-1.21-2.05Z"/><path class="cls-1" d="M718.77,38.43a8.19,8.19,0,0,0,6.12,2.36,9.45,9.45,0,0,0,3.81-.68c1.42-.65,2.13-1.43,2.13-2.36a2,2,0,0,0-.55-1.41,1.9,1.9,0,0,0-1.42-.58,4.35,4.35,0,0,0-1.5.34,5.51,5.51,0,0,1-2,.34,3.55,3.55,0,0,1-2.81-1.13,4,4,0,0,1-.88-2.73,4.21,4.21,0,0,1,.85-2.7,3.18,3.18,0,0,1,2.65-1.19,5.92,5.92,0,0,1,2,.35,4.6,4.6,0,0,0,1.54.36,2.06,2.06,0,0,0,1.5-.57,1.84,1.84,0,0,0,.6-1.39c0-1.06-.69-1.86-2.07-2.39a10.49,10.49,0,0,0-3.59-.56,8.73,8.73,0,0,0-6.31,2.28,7.84,7.84,0,0,0-2.37,5.9,7.85,7.85,0,0,0,2.25,5.76Z"/><path class="cls-1" d="M737,30a3,3,0,0,1,2.56-1.23A3,3,0,0,1,742.07,30a4.24,4.24,0,0,1,.81,2.62,4.31,4.31,0,0,1-.78,2.64,3.22,3.22,0,0,1-5.09,0,4.27,4.27,0,0,1-.81-2.64A4.39,4.39,0,0,1,737,30Zm-3.66,8.46a9.27,9.27,0,0,0,12.44,0,7.94,7.94,0,0,0,2.31-5.82,8,8,0,0,0-2.34-5.88,9.26,9.26,0,0,0-12.36,0A8,8,0,0,0,731,32.67a7.83,7.83,0,0,0,2.34,5.79Z"/><path class="cls-1" d="M755.16,37.31V33.77h3.5a8.54,8.54,0,0,0,5.81-1.84,6.52,6.52,0,0,0,2.13-5.2,6.31,6.31,0,0,0-2.35-5.25,9.22,9.22,0,0,0-6-1.79h-4.69a4.11,4.11,0,0,0-2.81.73A3.48,3.48,0,0,0,750,23V37.3c0,2.23.86,3.35,2.59,3.35s2.59-1.12,2.59-3.34Zm0-13.28h2.25c2.38,0,3.56.9,3.56,2.7s-1.18,2.75-3.56,2.75h-2.25V24Z"/><path class="cls-1" d="M781.19,40.65c1.67,0,2.5-1.12,2.5-3.36V28c0-2.22-.83-3.33-2.5-3.33a2.69,2.69,0,0,0-2.4,1.45,5.28,5.28,0,0,0-4.06-1.65A7.29,7.29,0,0,0,769,27.07a8.47,8.47,0,0,0-.09,11.13,7.09,7.09,0,0,0,5.62,2.56A5.45,5.45,0,0,0,778.79,39a2.5,2.5,0,0,0,2.4,1.62Zm-8.28-10.57a2.93,2.93,0,0,1,2.46-1.16,2.87,2.87,0,0,1,2.45,1.16,4.17,4.17,0,0,1,.75,2.53,4.27,4.27,0,0,1-.75,2.55,2.85,2.85,0,0,1-2.45,1.2,2.94,2.94,0,0,1-2.49-1.2,4.16,4.16,0,0,1-.78-2.55,4,4,0,0,1,.81-2.53Z"/><path class="cls-1" d="M795.41,26.53l-3.09,7.33-2.88-6.93a5.21,5.21,0,0,0-.84-1.56,2.26,2.26,0,0,0-1.72-.66,2.49,2.49,0,0,0-1.77.66,2.13,2.13,0,0,0-.7,1.61,2.92,2.92,0,0,0,.28,1.28l5.09,10.82-2.08,4.11a3.7,3.7,0,0,0-.41,1.56,2,2,0,0,0,.68,1.61,2.7,2.7,0,0,0,1.81.59c.9,0,1.64-.61,2.22-1.84l7.72-16.62a3.9,3.9,0,0,0,.41-1.59c0-1.46-.84-2.19-2.5-2.19-1,0-1.7.61-2.22,1.82Z"/><path class="cls-1" d="M812.54,36.16h-5l6.71-7.84a3.42,3.42,0,0,0,1-2,1.08,1.08,0,0,0-.78-1.16,8.84,8.84,0,0,0-2.41-.24H804c-2.14,0-3.22.69-3.22,2.07s1.07,2.11,3.19,2.11h4.34l-6.93,8.15a2.72,2.72,0,0,0-.75,1.76c0,1,.88,1.42,2.65,1.42h9.22c2.12,0,3.19-.7,3.19-2.1s-1.05-2.16-3.15-2.16Z"/><g id="Page-1"><g id="skrill-logo-web-1-rgb"><path id="Fill-1" class="cls-1" d="M639.33,23a3.45,3.45,0,1,0-3.45-3.44A3.44,3.44,0,0,0,639.33,23Zm-26.41,1.86a24.16,24.16,0,0,1-4,6.83v-14l-7.22,1.42V44.49h7.22V36.63a27.33,27.33,0,0,1,3.12,7.86h8.64c-.85-3.56-4.59-10.11-4.59-10.11a31.34,31.34,0,0,0,5.06-9.54Zm19-.26c-6.46.2-9.74,3.1-9.74,8.87v11h7.05v-9c0-3.45.45-4.93,4.55-5.07V24.68a9.48,9.48,0,0,0-1.86-.1Zm-42.27,3.06c-.88-.06-2.93-.19-2.93-2,0-2.23,2.95-2.23,4-2.23A24.69,24.69,0,0,1,597,24.49s1,.36,1.85.72l.08,0V19.14l-.1,0a25.11,25.11,0,0,0-9.16-1.45c-7.88,0-10.68,4.59-10.68,8.52,0,2.27,1,7.61,10,8.22.77.05,2.8.17,2.8,2.07,0,1.57-1.66,2.5-4.46,2.5a21.67,21.67,0,0,1-7.84-1.53v6.27a36.47,36.47,0,0,0,9.32,1.07c7.7,0,11.16-4.35,11.16-8.65,0-4.89-3.87-8.06-10.35-8.49Zm46.21,16.85h7V24.86h-7ZM656,18.91V44.49h7V17.66l-7,1.25Zm-10.2,0,7-1.25V44.49h-7V18.91Z"/></g></g><g id="layer1"><g id="g3098"><path id="path3741" class="cls-1" d="M394.89,16.09,389.6,44.78h11.55l2-11.26,4.1,11.26h32.34L443.24,25h1.54l-3.36,18.2s-.58,1.59,1.26,1.59h80.64l1.38-7.33,2.19,7.33h11.78l-4-10.65s3.24-1.37,4.53-3A9.7,9.7,0,0,0,541.1,25a7.69,7.69,0,0,0-3.39-6.73c-2.16-1.48-5.3-2.21-9.36-2.21h-11.1l-3.64,19.78h-9.69l.25-1.39h7.74l1.48-8.11h-7.71l.23-1.39h8l1.63-8.9H496.19l-3.46,18.77s-2.86.36-2.43-1.9l3.13-16.87H481.82l-3.46,18.77s-2.68.27-2.28-1.9,3.13-16.87,3.13-16.87H467.6l-3.66,19.78h-9.78l.26-1.39h7.76l1.48-8.1H455.9l.25-1.39h8.07l1.62-8.9H412.26l-2.12,11.38-4.09-11.38Zm1.3,1.54H405l5.72,15.69,2.87-15.69H464l-1.06,5.8h-8.05l-.82,4.48h7.76l-.92,5h-7.77l-.82,4.49h12.93l3.65-19.79h8.46L473.85,36.4h5.8l3.46-18.77h8.46L488.08,36.4H494l3.45-18.77h16.19l-1,5.8h-8l-.83,4.48h7.74l-.92,5h-7.74l-.82,4.49H514.9l3.65-19.79h9.8c3.74,0,6.61.65,8.49,1.95a6.11,6.11,0,0,1,2.7,5.45A8.2,8.2,0,0,1,538,30.19a7.64,7.64,0,0,1-4.5,2.64l-.88.19,3.84,10.2H528l-3.7-12.49L522,43.22H443l3.65-19.79H442L438.3,43.22H408.25L402.7,27.11l-2.85,16.11h-8.39Zm24.57,5.8L420,27.87h8L427,32.93h-8l-.84,4.49H431l2.56-14ZM422.05,25h9.66l-2,10.88H420l.27-1.39h8l1.48-8.09h-8Z"/><path id="path3745" class="cls-1" d="M531.31,25.88a2.67,2.67,0,0,0-1.2-2.39,5.61,5.61,0,0,0-3.1-.68H525.8l-1.27,6.86h1.66a6.5,6.5,0,0,0,3.74-.87,3.38,3.38,0,0,0,1.38-2.92M529,27.53a4.87,4.87,0,0,1-2.63.6c-.08,0,.68-3.77.68-3.77H527a4.46,4.46,0,0,1,2.27.42,1.19,1.19,0,0,1,.48,1.1,1.78,1.78,0,0,1-.73,1.65"/><path id="path3747" class="cls-1" d="M541.31,38.87a3.25,3.25,0,1,1,3.24,3.25,3.25,3.25,0,0,1-3.24-3.25m-.35,0a3.6,3.6,0,1,0,3.59-3.61A3.6,3.6,0,0,0,541,38.87"/><path id="path3749" class="cls-1" d="M543.94,38.64h.32a1.54,1.54,0,0,0,.37,0,.88.88,0,0,0,.33-.06.78.78,0,0,0,.24-.16.5.5,0,0,0,0-.54,1,1,0,0,0-.24-.15,2.79,2.79,0,0,0-.33-.06h-.69Zm-1-1.59h1c.26,0,.52,0,.8,0a3.31,3.31,0,0,1,.73.09,1.29,1.29,0,0,1,.54.3.88.88,0,0,1,.19.6.69.69,0,0,1-.27.56,1.2,1.2,0,0,1-.72.3h0a.49.49,0,0,1,.32.13,1.16,1.16,0,0,1,.2.25l.77,1.45H545.5l-.58-1.16a.65.65,0,0,0-.23-.3,1,1,0,0,0-.44-.09h-.31v1.55h-1Z"/></g></g><g id="g4158"><polygon id="polygon9" class="cls-1" points="232.44 44.36 225.26 44.36 229.76 16.59 236.94 16.59 232.44 44.36"/><path id="path11" class="cls-1" d="M258.48,17.27A17.79,17.79,0,0,0,252,16.09c-7.1,0-12.09,3.78-12.12,9.19-.06,4,3.58,6.2,6.29,7.53s3.73,2.25,3.73,3.46c0,1.86-2.25,2.72-4.32,2.72a14.33,14.33,0,0,1-6.73-1.48l-.95-.45-1,6.24a21.73,21.73,0,0,0,8,1.48c7.54,0,12.44-3.73,12.5-9.49,0-3.16-1.89-5.58-6-7.56-2.52-1.27-4-2.13-4-3.43s1.3-2.39,4.13-2.39A12.21,12.21,0,0,1,256.85,23l.65.3,1-6Z"/><path id="path13" class="cls-1" d="M268,34.52l2.87-7.77c0,.06.59-1.62.94-2.65l.5,2.39s1.36,6.65,1.66,8Zm8.86-17.93h-5.55a3.54,3.54,0,0,0-3.75,2.31L256.91,44.36h7.54L266,40.2h9.22c.21,1,.86,4.16.86,4.16h6.65l-5.8-27.77Z"/><path id="path15" class="cls-1" d="M219.27,16.59l-7,18.94-.76-3.84c-1.3-4.43-5.38-9.25-9.93-11.64L208,44.33h7.59l11.29-27.74Z"/><path id="path17" class="cls-1" d="M205.7,16.59H194.15l-.12.56c9,2.31,15,7.86,17.44,14.54L209,18.93c-.41-1.78-1.68-2.28-3.25-2.34Z"/></g><path class="cls-1" d="M357.83,46.48v.09h.08l0,0s0,0,0,0,0,0,0,0h-.13Zm.08-.06.1,0a.1.1,0,0,1,0,.15.1.1,0,0,1-.08,0l.11.12H358l-.11-.12h0v.12h-.08v-.32Zm0,.44a.2.2,0,0,0,.11,0,.19.19,0,0,0,.09,0,.24.24,0,0,0,.06-.09.2.2,0,0,0,0-.11.23.23,0,0,0,0-.11.16.16,0,0,0-.06-.08.15.15,0,0,0-.09-.06l-.11,0-.11,0a.15.15,0,0,0-.09.06.16.16,0,0,0-.06.08.23.23,0,0,0,0,.11.2.2,0,0,0,0,.11.24.24,0,0,0,.06.09.19.19,0,0,0,.09,0,.2.2,0,0,0,.11,0m0-.63.15,0,.12.07a.44.44,0,0,1,.08.11.35.35,0,0,1,0,.14.32.32,0,0,1,0,.14.44.44,0,0,1-.08.11l-.12.08-.15,0-.15,0-.12-.08a.44.44,0,0,1-.08-.11.32.32,0,0,1,0-.14.35.35,0,0,1,0-.14.44.44,0,0,1,.08-.11l.12-.07a.4.4,0,0,1,.15,0M323.26,45a1.12,1.12,0,1,1,1.12,1.14A1.08,1.08,0,0,1,323.26,45m3,0V43.2h-.8v.43a1.45,1.45,0,0,0-1.18-.52,1.86,1.86,0,0,0,0,3.72,1.45,1.45,0,0,0,1.18-.52v.43h.8Zm27.28,0a1.12,1.12,0,1,1,1.13,1.14A1.09,1.09,0,0,1,353.54,45m3,0V41.78h-.81v1.85a1.45,1.45,0,0,0-1.18-.52,1.86,1.86,0,0,0,0,3.72,1.45,1.45,0,0,0,1.18-.52v.43h.81ZM336.28,43.8a.9.9,0,0,1,.94.86H335.3a.93.93,0,0,1,1-.86m0-.69a1.86,1.86,0,1,0,.05,3.72,2.33,2.33,0,0,0,1.52-.49l-.39-.57a1.88,1.88,0,0,1-1.08.37,1,1,0,0,1-1.11-.87H338a2.83,2.83,0,0,0,0-.3,1.73,1.73,0,0,0-1.76-1.86M346,45a1.13,1.13,0,1,1,1.13,1.14A1.09,1.09,0,0,1,346,45m3,0V43.2h-.81v.43a1.42,1.42,0,0,0-1.17-.52,1.86,1.86,0,0,0,0,3.72,1.42,1.42,0,0,0,1.17-.52v.43h.81Zm-7.56,0a1.83,1.83,0,0,0,2,1.86,2,2,0,0,0,1.33-.42l-.39-.62a1.73,1.73,0,0,1-1,.32,1.14,1.14,0,0,1,0-2.27,1.66,1.66,0,0,1,1,.32l.39-.62a2,2,0,0,0-1.33-.43,1.83,1.83,0,0,0-2,1.86m10.4-1.86a1.12,1.12,0,0,0-1,.52V43.2h-.8v3.54h.81v-2c0-.59.27-.91.79-.91a1.31,1.31,0,0,1,.51.09l.25-.73a1.73,1.73,0,0,0-.58-.1m-21.63.37a3,3,0,0,0-1.52-.37c-.94,0-1.54.43-1.54,1.14s.45.93,1.28,1l.38.05c.44.06.65.17.65.37s-.3.43-.85.43a2,2,0,0,1-1.23-.37l-.38.6a2.77,2.77,0,0,0,1.61.46c1.07,0,1.69-.48,1.69-1.15s-.49-1-1.3-1.06l-.38-.06c-.35,0-.63-.11-.63-.34s.27-.42.71-.42a2.44,2.44,0,0,1,1.16.31Zm10.41-.37a1.11,1.11,0,0,0-1,.52V43.2h-.8v3.54h.81v-2c0-.59.26-.91.79-.91a1.34,1.34,0,0,1,.51.09l.25-.73a1.77,1.77,0,0,0-.58-.1m-6.89.09h-1.32V42.13h-.81V43.2h-.76v.71h.76v1.61c0,.82.33,1.31,1.28,1.31a2,2,0,0,0,1-.27l-.23-.66a1.57,1.57,0,0,1-.71.2c-.41,0-.54-.24-.54-.59v-1.6h1.32Zm-12.07,3.54V44.52a1.35,1.35,0,0,0-1.46-1.41,1.49,1.49,0,0,0-1.3.63,1.39,1.39,0,0,0-1.23-.63,1.25,1.25,0,0,0-1.09.53V43.2h-.8v3.54h.81v-2a.85.85,0,0,1,.91-.94c.54,0,.81.33.81.93v2h.81v-2a.86.86,0,0,1,.91-.94c.55,0,.82.33.82.93v2Z"/><path class="cls-1" d="M358.33,35v-.52h-.15l-.16.36-.16-.36h-.14V35h.1v-.39l.15.34h.1l.16-.34V35Zm-.9,0v-.43h.18v-.09h-.46v.09h.18V35Z"/><g class="cls-2"><path class="cls-1" d="M330.8,26.71a13.1,13.1,0,0,1,5.34-10.48,14.29,14.29,0,0,0-8.64-2.85c-7.72,0-14,6-14,13.33S319.78,40,327.5,40a14.29,14.29,0,0,0,8.64-2.85,13.1,13.1,0,0,1-5.34-10.48"/></g><g class="cls-2"><path class="cls-1" d="M358.75,26.71c0,7.36-6.26,13.33-14,13.33a14.33,14.33,0,0,1-8.64-2.85,13,13,0,0,0,0-21,14.33,14.33,0,0,1,8.64-2.85c7.72,0,14,6,14,13.33"/></g><path class="cls-1" d="M336.14,37.19a13,13,0,0,1,0-21,13,13,0,0,1,0,21Z"/></svg>