<svg width="24" height="24" viewBox="0 0 24 24" fill="none" xmlns="http://www.w3.org/2000/svg">
<path fill-rule="evenodd" clip-rule="evenodd" d="M12 21C16.9706 21 21 16.9706 21 12C21 7.02944 16.9706 3 12 3C7.02944 3 3 7.02944 3 12C3 16.9706 7.02944 21 12 21ZM12 22C17.5228 22 22 17.5228 22 12C22 6.47715 17.5228 2 12 2C6.47715 2 2 6.47715 2 12C2 17.5228 6.47715 22 12 22Z" fill="white"/>
<path d="M16.6802 10.3401C16.6802 10.0606 16.9085 9.83401 17.19 9.83401C17.4716 9.83401 17.6998 10.0606 17.6998 10.3401V13.3765C17.6998 13.656 17.4716 13.8826 17.19 13.8826C16.9085 13.8826 16.6802 13.656 16.6802 13.3765V10.3401Z" fill="white"/>
<path d="M15.6606 12.3644C15.379 12.3644 15.1507 12.1378 15.1507 11.8583C15.1507 11.5788 15.379 11.3522 15.6606 11.3522H18.7195C19.0011 11.3522 19.2293 11.5788 19.2293 11.8583C19.2293 12.1378 19.0011 12.3644 18.7195 12.3644H15.6606Z" fill="white"/>
<path d="M6.35076 15C6.25287 15 6.16858 14.9676 6.09789 14.9028C6.03263 14.8327 6 14.6464 6 14.5547V13.9069C6 13.4804 6.0571 13.1457 6.1713 12.9028C6.2855 12.6545 6.46224 12.4413 6.70151 12.2632C6.94079 12.085 7.34321 11.8313 7.90877 11.502C8.10454 11.3887 8.24593 11.2645 8.33294 11.1296C8.42539 10.9892 8.47161 10.8354 8.47161 10.668C8.47161 10.4413 8.39548 10.2605 8.24321 10.1255C8.09638 9.99055 7.88974 9.92308 7.62327 9.92308C7.29698 9.92308 6.9571 10.0256 6.60363 10.2308C6.571 10.247 6.53565 10.2551 6.49759 10.2551C6.43233 10.2551 6.38339 10.2254 6.35076 10.166L6.08157 9.68016C6.06526 9.65317 6.0571 9.62618 6.0571 9.59919C6.0571 9.53981 6.08157 9.49393 6.13051 9.46154C6.34804 9.31579 6.59275 9.20243 6.86466 9.12146C7.142 9.04049 7.42478 9 7.713 9C8.25681 9 8.68098 9.14575 8.98551 9.43725C9.29548 9.72875 9.45047 10.1282 9.45047 10.6356C9.45047 11.0081 9.35802 11.3239 9.17313 11.583C8.98823 11.8367 8.6837 12.0985 8.25953 12.3684C8.12901 12.4494 8.02025 12.5142 7.93324 12.5628C7.6994 12.7031 7.51995 12.8219 7.39487 12.919C7.26979 13.0108 7.16647 13.1242 7.0849 13.2591C7.00333 13.3887 6.96254 13.5425 6.96254 13.7206V13.9555H9.27917C9.32811 13.9555 9.3689 13.9717 9.40153 14.004C9.43415 14.0364 9.45047 14.0769 9.45047 14.1255V14.7247C9.45047 14.7733 9.43415 14.919 9.40153 14.9514C9.3689 14.9838 9.32811 15 9.27917 15H6.35076Z" fill="white"/>
<path d="M12.1737 15C11.4939 15 10.98 14.7463 10.632 14.2389C10.284 13.7314 10.11 12.9838 10.11 11.996C10.11 11.0135 10.284 10.2686 10.632 9.76113C10.9855 9.25371 11.4994 9 12.1737 9C12.848 9 13.3592 9.25371 13.7073 9.76113C14.0553 10.2686 14.2293 11.0135 14.2293 11.996C14.2293 12.9892 14.0553 13.7395 13.7073 14.247C13.3647 14.749 12.8535 15 12.1737 15ZM12.1737 14.0769C12.4239 14.0769 12.6251 14.0067 12.7773 13.8664C12.9296 13.726 13.0411 13.5047 13.1118 13.2024C13.1825 12.9001 13.2178 12.498 13.2178 11.996C13.2178 11.4939 13.1825 11.0945 13.1118 10.7976C13.0411 10.4953 12.9296 10.2767 12.7773 10.1417C12.6251 10.0013 12.4211 9.93117 12.1656 9.93117C11.9154 9.93117 11.7142 10.0013 11.5619 10.1417C11.4097 10.2821 11.2982 10.5061 11.2275 10.8138C11.1568 11.1161 11.1214 11.5209 11.1214 12.0283C11.1214 12.7571 11.203 13.2807 11.3662 13.5992C11.5293 13.9177 11.7985 14.0769 12.1737 14.0769Z" fill="white"/>
</svg>
