<?xml version="1.0" encoding="utf-8"?>
<!-- Generator: Adobe Illustrator 25.2.3, SVG Export Plug-In . SVG Version: 6.00 Build 0)  -->
<svg version="1.1" id="Providers" xmlns="http://www.w3.org/2000/svg" xmlns:xlink="http://www.w3.org/1999/xlink" x="0px" y="0px"
	 viewBox="0 0 564.7 120" style="enable-background:new 0 0 564.7 120;" xml:space="preserve">
<style type="text/css">
	.st0{fill:#C6C6C6;}
	.st1{opacity:0.6;}
	.st2{display:none;}
	.st3{display:inline;fill:#C6C6C6;}
	.st4{fill:none;stroke:#C6C6C6;stroke-miterlimit:10;}
	.st5{fill:#C6C6C6;stroke:#C6C6C6;stroke-miterlimit:10;}
	.st6{opacity:0.45;}
	.st7{opacity:0.8;}
</style>
<path class="st0" d="M72.4,106.1l0.1,0.1L72.4,106.1z M72.6,106h0.1v0.3h-0.1l0.1,0.1h-0.1l-0.1-0.1v0.1h-0.1V106L72.6,106L72.6,106
	z M72.6,106.5h0.1c0,0,0.1,0,0.1-0.1c0,0,0.1,0,0.1-0.1V106l-0.1-0.1h-0.5c0,0,0,0.1-0.1,0.1v0.3c0,0,0,0.1,0.1,0.1L72.6,106.5
	L72.6,106.5 M72.6,105.7h0.1c0,0,0.1,0,0.1,0.1l0.1,0.1v0.3c0,0,0,0.1-0.1,0.1l-0.1,0.1h-0.3l-0.1-0.1l-0.1-0.1V106
	c0,0,0-0.1,0.1-0.1L72.6,105.7L72.6,105.7 M28.4,104.1c0-0.8,0.6-1.4,1.4-1.4s1.4,0.6,1.4,1.4c0,0.8-0.6,1.4-1.4,1.4
	C29.1,105.6,28.4,105,28.4,104.1C28.4,104.2,28.4,104.2,28.4,104.1 M32.3,104.1v-2.3h-1v0.6c-0.4-0.4-0.9-0.6-1.5-0.6
	c-1.3,0-2.4,1-2.4,2.4c0,1.3,1,2.4,2.4,2.4c0.5,0,1.1-0.3,1.5-0.6v0.5h1V104.1z M66.9,104.1c0-0.8,0.6-1.4,1.4-1.4
	c0.8,0,1.4,0.6,1.4,1.4c0,0.8-0.6,1.4-1.4,1.4C67.6,105.6,66.9,105,66.9,104.1C66.9,104.2,66.9,104.2,66.9,104.1 M70.8,104.1V100h-1
	v2.4c-0.4-0.4-0.9-0.6-1.5-0.6c-1.3,0-2.4,1-2.4,2.4c0,1.3,1,2.4,2.4,2.4c0.5,0,1.1-0.3,1.5-0.6v0.5h1V104.1z M44.9,102.7
	c0.6,0,1.1,0.5,1.1,1.1h-2.4C43.7,103,44.4,102.5,44.9,102.7C45,102.7,45,102.7,44.9,102.7 M45,101.8c-1.3,0-2.4,1-2.4,2.4
	c0,1.3,1,2.4,2.4,2.4c0.8,0,1.4-0.3,1.9-0.6l-0.5-0.8c-0.4,0.3-0.9,0.5-1.4,0.5c-0.6,0.1-1.3-0.4-1.4-1.1h3.6v-0.4
	C47.3,102.9,46.4,101.9,45,101.8L45,101.8 M57.4,104.1c0-0.8,0.6-1.4,1.4-1.4s1.4,0.6,1.4,1.4c0,0.8-0.6,1.4-1.4,1.4
	C58,105.6,57.4,105,57.4,104.1C57.4,104.2,57.4,104.2,57.4,104.1 M61.2,104.1v-2.3h-1v0.6c-0.4-0.4-0.9-0.6-1.5-0.6
	c-1.3,0-2.4,1-2.4,2.4c0,1.3,1,2.4,2.4,2.4c0.6,0,1.1-0.3,1.5-0.6v0.5h1V104.1z M51.5,104.1c0,1.3,1,2.3,2.3,2.4h0.3
	c0.6,0,1.3-0.1,1.7-0.5l-0.5-0.8c-0.4,0.3-0.8,0.4-1.3,0.4c-0.8,0-1.4-0.6-1.4-1.4s0.6-1.4,1.4-1.4c0.5,0,0.9,0.1,1.3,0.4l0.5-0.8
	c-0.5-0.4-1.1-0.5-1.7-0.5C52.8,101.8,51.6,102.7,51.5,104.1C51.5,103.9,51.5,104.1,51.5,104.1 M64.8,101.8c-0.5,0-1,0.3-1.3,0.6
	v-0.5h-1v4.5h1v-2.6c0-0.8,0.4-1.1,1-1.1c0.3,0,0.4,0,0.6,0.1l0.4-0.9C65.3,101.8,65,101.8,64.8,101.8 M37.1,102.1
	c-0.6-0.4-1.3-0.5-1.9-0.5c-1.1,0-1.9,0.5-1.9,1.4c0,0.9,0.5,1.1,1.7,1.4h0.5c0.5,0.1,0.8,0.3,0.8,0.5c0,0.3-0.4,0.5-1,0.5
	c-0.5,0-1.1-0.1-1.5-0.5l-0.5,0.8c0.6,0.4,1.3,0.6,2,0.6c1.4,0,2.2-0.6,2.2-1.5c0-0.9-0.6-1.1-1.7-1.4l-0.5-0.1
	c-0.5,0-0.8-0.1-0.8-0.4c0-0.3,0.4-0.5,0.9-0.5c0.5,0,1,0.1,1.5,0.4L37.1,102.1z M50.4,101.8c-0.5,0-1,0.3-1.3,0.6v-0.5h-1v4.5h1
	v-2.6c0-0.8,0.4-1.1,1-1.1c0.3,0,0.4,0,0.6,0.1l0.4-0.9C50.9,101.8,50.6,101.6,50.4,101.8 M41.6,101.8H40v-1.3h-1v1.4h-1v0.9h1v2
	c0,1,0.4,1.7,1.7,1.7c0.5,0,0.9-0.1,1.3-0.4l-0.3-0.9c-0.3,0.1-0.6,0.3-0.9,0.3c-0.5,0-0.6-0.3-0.6-0.8v-1.9h1.7L41.6,101.8
	L41.6,101.8z M26.3,106.4v-2.8c0-0.9-0.6-1.8-1.7-1.8h-0.3c-0.6,0-1.3,0.3-1.7,0.8c-0.4-0.5-0.9-0.9-1.5-0.8c-0.5,0-1,0.3-1.4,0.6
	v-0.5h-1v4.5h1v-2.6c-0.1-0.6,0.4-1.1,0.9-1.1h0.3c0.6,0,1,0.4,1,1.1v2.6h1v-2.6c-0.1-0.6,0.4-1.1,1-1.1h0.1c0.8,0,1,0.4,1,1.1v2.6
	H26.3z M73.1,91.3v-0.6h-0.1l-0.3,0.5l-0.3-0.5h-0.1v0.6h0.1v-0.5l0.1,0.4h0.1l0.1-0.4v0.5H73.1L73.1,91.3z M71.9,91.3v-0.5h0.3
	v-0.1h-0.6v0.1h0.3v0.5H71.9z"/>
<g class="st1">
	<path class="st0" d="M38,80.9c0-5.2,2.6-10.2,6.8-13.4c-3.2-2.4-7-3.7-11-3.6c-9.8,0-17.9,7.7-17.9,17s8,17,17.9,17
		c4,0,7.8-1.3,11-3.6C40.5,91.1,38,86.1,38,80.9"/>
</g>
<g class="st1">
	<path class="st0" d="M73.6,80.9c0,9.4-8,17-17.9,17c-4,0-7.8-1.3-11-3.6c7.4-5.4,9.1-15.8,3.6-23.2c-1-1.4-2.2-2.6-3.6-3.6
		c3.2-2.4,7-3.7,11-3.6C65.5,63.8,73.6,71.4,73.6,80.9"/>
</g>
<path class="st0" d="M44.8,94.2c-7.4-5.4-9.1-15.8-3.6-23.2c1-1.4,2.2-2.6,3.6-3.6c7.4,5.4,9.1,15.8,3.6,23.2
	C47.4,91.9,46.2,93.2,44.8,94.2z"/>
<g id="g4158" class="st2">
	<path id="polygon9" class="st3" d="M53.4,99.1h-7.1l4.5-27.8h7.1L53.4,99.1z"/>
	<path id="path11" class="st3" d="M79.4,72c-2.1-0.8-4.2-1.2-6.4-1.2c-7.1,0-12.1,3.8-12.1,9.2c0,4,3.6,6.2,6.3,7.5s3.7,2.2,3.7,3.5
		c0,1.9-2.2,2.7-4.3,2.7c-2.3,0.1-4.6-0.4-6.7-1.5L59,91.7l-1,6.2c2.6,1,5.3,1.5,8,1.5c7.5,0,12.5-3.7,12.5-9.5c0-3.2-1.9-5.6-6-7.6
		c-2.5-1.3-4-2.1-4-3.4s1.3-2.4,4.1-2.4c1.8-0.1,3.7,0.3,5.3,1.1l0.6,0.3l1-6C79.5,71.9,79.4,72,79.4,72z"/>
	<path id="path13" class="st3" d="M89,89.3c0.6-1.6,2.9-7.8,2.9-7.8s0.6-1.6,1-2.7l0.5,2.4c0,0,1.4,6.6,1.7,8L89,89.3z M97.9,71.3
		h-5.6c-1.6-0.2-3.2,0.8-3.8,2.3L77.9,99.1h7.5l1.5-4.2h9.2l0.8,4.2h6.7L97.9,71.3z"/>
	<path id="path15" class="st3" d="M40.3,71.3l-7,18.9l-0.8-3.9c-1.3-4.4-5.4-9.3-9.9-11.7L29,98.9h7.6l11.3-27.7h-7.6V71.3z"/>
	<path id="path17" class="st3" d="M26.7,71.3H15.1L15,71.9c9,2.3,15,7.9,17.4,14.5L30,73.7C29.5,71.9,28.3,71.4,26.7,71.3z"/>
</g>
<path class="st0" d="M0,0"/>
<path class="st0" d="M0,0"/>
<path class="st0" d="M407.3,100.9c-8.4,0.8-15.8-7.5-15.9-15.4c0-8.7,7-15.8,15.7-16.1c8.8-0.1,15.9,7,16.1,15.7
	C423.2,94,415.3,101.5,407.3,100.9z M407.9,85.2v-6.1c0-0.9,0.4-1.1,1.1-1.1h3.6c0.5,0,1.3,0.3,1.3-0.4s-0.8-0.5-1.3-0.5h-11
	c-0.3,0-0.6,0-0.6,0.4s0.4,0.4,0.8,0.4c1.3,0,2.7,0.1,4,0c1.1,0,1.4,0.4,1.4,1.4V90c0,1.9,0,1.9-1.9,2.3c-0.3,0-0.5,0-0.6,0.3
	c-0.1,0.3,0.4,0.4,0.6,0.4h4c0.4,0,0.9,0.3,0.9-0.4s-0.5-0.4-0.9-0.3c-1.1,0.1-1.5-0.5-1.5-1.5C407.9,89,407.9,87.1,407.9,85.2
	L407.9,85.2z M413.6,85.8h-2c-0.3,0-0.6,0-0.6,0.3c0,0.3,0.1,0.5,0.4,0.6c1.4,0.9,3.3,0.9,4.7-0.1c0.1-0.1,0.3-0.4,0.3-0.5
	s-0.4-0.3-0.5-0.3H413.6z M401.8,87.5c0.8,0,1.5-0.4,2-0.8c0.3-0.1,0.4-0.3,0.4-0.5c0-0.3-0.3-0.3-0.5-0.3h-4.5
	c-0.1,0-0.4,0-0.5,0.3c-0.1,0.3,0.1,0.4,0.3,0.5C399.9,87.2,400.8,87.5,401.8,87.5L401.8,87.5z M403.8,84.5c-0.4-1.8-1-3.6-1.9-5.2
	c-0.3-0.6-0.5-0.1-0.8,0.3c-0.8,1.4-1.3,3.1-1.9,4.5c-0.1,0.3-0.4,0.5,0,0.6c0.4,0.1,0.5-0.3,0.5-0.5c0.4-1,0.8-1.9,1.1-2.9
	c0.1-0.4,0.1-0.8,0.5-0.8s0.5,0.4,0.6,0.8C402.4,82.5,403,83.7,403.8,84.5L403.8,84.5z M415.8,84.7l0.3-0.1l-2-4.8
	c-0.1-0.3-0.1-0.5-0.4-0.5c-0.3,0-0.4,0.4-0.5,0.5c-0.5,0.9-0.9,1.9-1.3,2.9c-0.3,0.6-0.8,1.3-0.5,2.2c0.8-0.8,0.9-1.8,1.4-2.7
	c0.3-0.5,0.3-1.5,0.9-1.5c0.6,0,0.6,1,0.8,1.5C414.6,83,415.2,83.9,415.8,84.7L415.8,84.7z M460.3,88.5c-1.7,1.4-3.2,3.1-4.6,4.7
	c-1,1.3-1.7,2.6-3.7,2.7c-1.3,0.1-2.7,0.3-4.1,0.3c-0.5,0-0.9-0.1-1.3-0.4c-1.3-0.6-1.9-2-1.3-3.3c0.3-0.4,0.5-0.8,0.9-1
	c0.8-0.4,1-1.1,0.6-1.9c-0.3-1,0.1-1.9,1-2.6c1.5-1.5,3.6-2.4,5.6-2.6c0.8-0.3,1.7,0.1,2,0.9c0.4,0.8-0.1,1.4-0.6,1.9
	c-0.5,0.5-1.4,1.3-2.2,0.8c-1.1-0.8-1.7,0-2.4,0.5c0.1,0.4,0.4,0.3,0.5,0.3c0.6-0.3,1.3,0,1.5,0.6c0,0.1,0,0.1,0.1,0.3
	c0.3,0.9-0.5,1.3-1,1.4c-1,0.4-1.9,0.9-2.7,1.5c-0.3,0.1-0.5,0.4-0.4,0.8c0.1,0.4,0.4,0.3,0.6,0.4c1.5,0.4,3.1-0.4,3.8-1.8
	c1.3-2.2,2.6-4.2,3.8-6.4c0.4-0.8,1.1-1.3,2-1.3c0.5,0,1,0,1.1,0.8c0.1,0.8,0.4,0.5,0.8,0.3c0.6-0.5,1.4-0.8,2.2-0.9
	c1.7-0.3,2.6,0.9,1.9,2.3c-0.6,1.3-1.5,2.7-2.4,3.8c-0.4,0.8-0.8,1.4-1.1,2.2c-0.1,0.3-0.4,0.6,0,0.9c0.3,0.1,0.5,0.1,0.8,0
	c1.3-0.6,2.3-1.7,3.1-2.8c1-1.7,1.9-3.2,2.8-4.8c0.5-0.8,1-1.4,1.9-0.9s0.6,1.4,0.1,2.2c-1,1.8-1.9,3.7-2.9,5.6
	c0.5,0.1,0.6-0.3,0.9-0.4c2.2-1.9,4-4.1,5.5-6.5c0.3-0.4,0.5-0.8,0.9-1c0.5-0.4,1.3-0.4,1.9,0c0.6,0.5,0.3,1.1-0.1,1.7
	c-1.1,1.7-2,3.6-2.8,5.4c-0.1,0.5-0.6,1.3-0.1,1.5c0.5,0.3,0.9-0.4,1.3-0.6l0.8-0.8c0.6-0.6,1-1.3,1.8,0.1c0.5,0.8,1.3,1.3,2.2,1.7
	c0.9,0.3,1.8-0.4,2.7-0.6c0.1,0,0.3-0.1,0.3-0.4c0-0.3-0.1-0.4-0.4-0.4c-0.8-0.3-1.4-0.4-2.2-0.6c-1-0.3-2-0.6-2.4-1.8
	c-0.3-1.1,0.1-2.4,1.1-3.2c1.5-1.4,3.3-2.3,5.4-2.7c0.9-0.4,1.9-0.5,2.8-0.3c0.8,0.3,1.3,0.6,1.3,1.5c0,1-0.8,1.9-1.8,2.3
	c-0.5,0.4-1.4,0.3-1.8-0.3c0,0,0-0.1-0.1-0.1c-0.4-0.5-0.6-0.5-1.1-0.3c-0.9,0.3-1.7,0.8-2.3,1.3c-0.3,0.1-0.5,0.4-0.4,0.6
	c0.1,0.3,0.4,0.3,0.6,0.3c0.9,0.1,1.8,0.3,2.6,0.6c0.9,0.3,1.7,1,1.9,1.9c0.3,1-0.3,2.2-1.1,2.8c-1.8,1.4-4,2-6.1,1.8
	c-0.6,0-1.4-0.1-1.8-0.8c-0.5-1.1-0.9-0.6-1.4-0.1c-0.8,0.6-1.7,1-2.6,1c-1,0.1-1.9-0.5-2.2-1.4c-0.3-1-0.6-0.9-1.3-0.3
	c-0.5,0.5-1,0.9-1.7,1.3c-1,0.6-2.3,0.5-3.1-0.4c-0.3-0.4-0.8-0.4-1.1-0.1c0,0-0.1,0-0.1,0.1c-0.5,0.4-1.3,0.6-1.9,0.8
	c-1.4,0.3-2.8-0.8-3.1-2.2c-0.1-0.5,0-1.1,0.3-1.7C459,91.1,459.8,89.8,460.3,88.5L460.3,88.5z M539.2,83.8h-2.2
	c-1-0.1-1.3-0.8-0.6-1.7c0.5-0.9,1.4-1.4,2.4-1.4c1.5,0.3,3.1-0.5,3.7-1.9c0.3-0.6,0.9-1,1.7-0.9c1.1,0,1.5,0.6,0.9,1.5
	c-0.6,1-0.5,1.1,0.6,1.3c0.8,0,1.3,0.5,1.3,1.3v0.1c0,0.8-0.8,1-1.5,1h-0.6c-1.5-0.1-2.8,0.8-3.4,2c-1.1,2.4-2.8,4.6-3.7,7.1
	c-0.1,0.4-0.4,0.8,0,1c0.5,0.4,0.8,0,1-0.3c0.8-0.5,1.5-1.1,2.3-1.7c0.3-0.3,0.6-0.5,0.9-0.4c0.3,0.1,0.5,0.6,0.5,1s0,0.8-0.3,1
	c-1,1.7-2.8,2.8-4.7,3.1c-0.9,0.1-1.8-0.3-2.3-1c-0.5-0.6-0.9-0.6-1.4-0.1c-0.5,0.5-1.1,0.9-1.8,1c-1,0.4-2.3,0-3.1-0.8
	c-0.8-1-0.8-2.3-0.1-3.4c0.5-1.3,1.1-2.4,2-3.6c-0.5,0.1-0.9,0.4-1.3,0.8c-1.8,1.7-3.3,3.4-4.7,5.4c-0.6,0.9-1.3,1.4-2.4,1
	c-0.4-0.1-0.9,0-1.3,0.3c-0.8,0.4-1.7,0.5-2.6,0.4c-1.4,0-2.4-1.1-2.3-2.6c0-0.3,0.1-0.6,0.3-0.9c0.5-1.4,1.3-2.7,2-3.8
	c0.3-0.4,0.4-0.8,0.4-1.1c0.1-1.7,1.4-3.1,2.9-3.6c0.5,0,1,0.3,1.3,0.8c0.4,0.5,0.4,1,0,1.5l-3.1,5.4c-0.3,0.5-1.1,1.1-0.5,1.7
	s1.1-0.4,1.7-0.8c2.4-1.7,3.7-4.1,5-6.5c0.4-0.9,1-1.5,1.9-1.8c0.8-0.3,1.5-0.4,1.7,0.8c0.1,0.6,0.5,0.4,0.8,0.1
	c0.6-0.5,1.4-0.8,2.3-0.9c0.6-0.1,1.4,0,1.9,0.6c0.4,0.6,0.4,1.4,0,2c-1,1.8-2.3,3.3-3.2,5.1c-0.3,0.5-0.6,0.9-0.3,1.4s1,0,1.4-0.4
	c1.3-1.1,2.8-2.2,3.6-4C537.2,87.2,538.2,85.4,539.2,83.8L539.2,83.8z M435.3,82.4c-0.8,0.1-1.4,0.3-1.9,0.3c-0.8,0-1.1-0.5-1.4-1
	c-0.3-0.8-0.1-1.5,0.5-2c0.4-0.5,0.8-0.8,1.4-0.3c0.4,0.3,0.6,0,1-0.1c1.1-0.8,2.3-1.5,3.4-2.4c0.3-0.3,0.5-0.4,0.9-0.6
	c0.9-0.5,2-0.4,2.8,0.3c0.8,0.9,0.1,1.7-0.3,2.3c-2.2,3.1-4.5,6.1-6.4,9.3c-0.6,1-1.3,2-1.8,3.1c-0.3,0.4-0.6,1-0.3,1.4
	c0.4,0.4,0.9,0,1.4-0.3c1.5-0.8,2.8-1.8,4.1-2.9c3.4-2.9,6.5-6.4,9.1-10.1c0.5-0.8,1.3-1.7,0.6-2.7v-0.4c0.8-0.8,1.9-1,3.1-0.8
	c0.9,0.4,1.3,1.4,0.9,2.3c-0.4,1.1-1,2.3-1.8,3.3c-3.6,5.4-8.2,9.9-13.5,13.5c-1,0.6-2.2,1.1-3.3,1.5c-1.1,0.5-2.6,0.4-3.6-0.5
	c-0.9-1-1-2.4-0.5-3.6c0.8-2,1.8-3.8,2.9-5.6C433.4,84.9,434.3,83.8,435.3,82.4L435.3,82.4z M501.5,78.7c-1.8,0.5-3.6,1.3-5.2,2.2
	c-0.4,0.3-1,0.5,0,0.9c0.6,0.3,0.4,0.8,0,1c-0.6,0.6-1.5,0.9-2.3,1c-0.8,0.1-1.4-0.3-1.8-0.9c-0.4-0.9-0.4-1.9,0.3-2.8
	c1.3-1.5,2.9-2.7,4.8-3.2c3.3-1.1,7-1.5,10.5-1c1.3,0.3,2.4,0.8,3.4,1.7c1.3,0.9,1.7,2.4,1,3.8c-1.3,2.9-3.7,5.1-6.6,6.1
	c-1.9,0.8-3.8,1.3-5.7,0.4c-0.6-0.3-0.8,0.3-1,0.6c-1.3,2-2.6,4-3.7,6c-0.4,0.8-1.1,1.3-1.9,1.3c-1.5,0-2-0.6-1.3-2
	c0.8-1.4,1.5-2.7,2.4-4c2.3-3.6,4.6-7.1,7.1-10.5C501.4,79.1,501.4,78.9,501.5,78.7L501.5,78.7z M505.6,78.6
	c-0.4-0.1-0.8-0.1-0.9,0.3c-1,2-2.4,3.8-3.6,5.7c-0.1,0.3-0.5,0.5-0.3,0.9c0.3,0.4,0.6,0.3,1,0.3c2.4-0.4,4.7-1.7,6.2-3.7
	c1.3-1.5,0.6-2.9-1.4-3.3C506.3,78.6,505.9,78.6,505.6,78.6z M517,87c-0.3,1.7-0.9,3.2-2,4.5c-1.3,2-3.2,3.6-5.4,4.5
	c-1.4,0.6-3.1,0.1-3.8-1.3c-0.3-0.5-0.4-1.1-0.3-1.8c0.8-4,3.6-7.1,7.4-8.5c1.3-0.1,2.7,0.3,3.7,1C517.2,85.7,517,86.3,517,87z
	 M514,87.7c0-0.6-0.6-0.9-1.3-0.5c-2.2,1.3-3.7,3.2-4.3,5.6c-0.1,0.3,0,0.5,0.1,0.6c0.3,0.1,0.5,0.1,0.6,0c2-1.3,3.8-3.2,4.8-5.4
	L514,87.7L514,87.7z M523.9,83.3c-0.5,0-1-0.4-1.1-0.9v-0.3c0.1-1.3,1-2.3,2.3-2.6c0.6,0,1.3,0.4,1.3,1v0.1
	C526.2,82,525.2,83,523.9,83.3L523.9,83.3z"/>
<path class="st4" d="M44.2,36.2c-1.9,7.7-9.7,12.4-17.4,10.4S14.4,37,16.4,29.3c1.9-7.7,9.7-12.4,17.4-10.4
	C41.4,20.8,46.1,28.6,44.2,36.2L44.2,36.2z"/>
<path class="st0" d="M36.6,30.7c0.3-1.9-1.2-2.9-3.1-3.6l0.6-2.6l-1.6-0.4l-0.6,2.5c-0.4-0.1-0.8-0.2-1.3-0.3l0.6-2.5l-1.6-0.4
	L29,26l-1-0.2l-2.2-0.5L25.4,27c0,0,1.2,0.3,1.1,0.3c0.5,0.1,0.8,0.5,0.7,0.9l-0.7,3h0.2h-0.2l-1,4.1c-0.1,0.3-0.4,0.5-0.7,0.4
	l-1.1-0.3l-0.8,1.8l2,0.5L26,38l-0.6,2.6L27,41l0.6-2.6l1.3,0.3l-0.7,2.5l1.6,0.4l0.6-2.6c2.7,0.5,4.7,0.3,5.5-2.1
	c0.7-1.4,0.2-3-1.2-3.7c-0.1,0-0.2-0.1-0.3-0.1C35.7,32.8,36.5,31.8,36.6,30.7z M33,35.7c-0.5,2-3.8,0.9-4.9,0.6l0.9-3.5
	C30.1,33.2,33.5,33.7,33,35.7z M33.5,30.7c-0.4,1.8-3.2,0.9-4.1,0.7l0.8-3.1C31.1,28.4,33.9,28.8,33.5,30.7z M58,27.1
	c1,0,2.1,0.2,3,0.6c0.8,0.4,1.5,1,2.1,1.7s1,1.6,1.2,2.5c0.3,1,0.4,2,0.4,3c0,1.6-0.3,3.2-0.9,4.7s-1.4,2.8-2.5,3.9s-2.4,2-3.8,2.6
	c-1.5,0.7-3.1,1-4.7,1h-1.1c-0.6,0-1.2-0.1-1.9-0.2c-0.8-0.1-1.5-0.3-2.2-0.4c-0.8-0.2-1.5-0.5-2.2-0.8l6.3-26.4l5.6-0.9l-2.2,9.3
	c0.5-0.2,1-0.4,1.5-0.5C56.9,27.2,57.4,27.1,58,27.1z M53.2,42.7c0.8,0,1.7-0.2,2.4-0.6c0.8-0.4,1.4-1,1.9-1.7
	c0.6-0.7,1-1.5,1.3-2.4s0.5-1.8,0.5-2.7c0.1-0.9-0.1-1.9-0.6-2.7c-0.5-0.7-1.3-1.1-2.1-1c-0.4,0-0.9,0.1-1.3,0.2
	c-0.5,0.1-1.1,0.4-1.5,0.8l-2.4,10l0.4,0.1C51.8,42.7,53.2,42.7,53.2,42.7z M70.5,46.6h-5.4l4.5-19.1H75L70.5,46.6z M73.2,25.2
	c-0.7,0-1.4-0.2-2-0.7s-1-1.3-0.9-2c0-0.5,0.1-1,0.3-1.4c0.2-0.4,0.5-0.8,0.8-1.2c0.3-0.3,0.7-0.6,1.2-0.8c0.5-0.2,0.9-0.3,1.4-0.3
	c0.7,0,1.4,0.2,2,0.7s1,1.3,0.9,2c0,0.5-0.1,1-0.3,1.4c-0.2,0.4-0.5,0.8-0.8,1.2c-0.3,0.3-0.7,0.6-1.2,0.8S73.7,25.2,73.2,25.2z
	 M79.8,22.8l5.6-0.9L84,27.5h6l-1,4.4h-6l-1.6,6.7c-0.1,0.5-0.2,1-0.3,1.6c0,0.4,0,0.9,0.2,1.3c0.1,0.4,0.4,0.6,0.8,0.8
	c0.5,0.2,1.1,0.3,1.6,0.3c0.6,0,1.1-0.1,1.7-0.2c0.6-0.1,1.1-0.3,1.6-0.5l0.4,4.1c-0.8,0.3-1.6,0.5-2.4,0.7c-1,0.2-2,0.3-3,0.3
	c-1.3,0.1-2.6-0.2-3.8-0.7c-0.9-0.4-1.6-1.1-2-2s-0.6-2-0.5-3c0.1-1.2,0.2-2.4,0.5-3.5L79.8,22.8L79.8,22.8z M89.9,39
	c0-1.6,0.3-3.2,0.8-4.7c0.5-1.4,1.3-2.7,2.3-3.8c1-1.1,2.2-2,3.6-2.6c1.5-0.6,3.1-1,4.7-0.9c1,0,2,0.1,2.9,0.3
	c0.8,0.2,1.6,0.5,2.3,0.8l-1.9,4.2c-0.5-0.2-1-0.4-1.5-0.5c-0.6-0.2-1.3-0.3-1.9-0.2c-1.6-0.1-3.2,0.6-4.3,1.9
	c-1.1,1.4-1.7,3.2-1.6,5c-0.1,1.1,0.2,2.1,0.8,3c0.7,0.9,1.9,1.3,3,1.1c0.7,0,1.3-0.1,2-0.2c0.6-0.1,1.2-0.3,1.8-0.5l0.4,4.3
	c-0.7,0.3-1.5,0.5-2.3,0.7c-1,0.2-2,0.3-3,0.3c-1.3,0-2.6-0.2-3.8-0.7c-1-0.4-1.9-1-2.6-1.8c-0.7-0.7-1.2-1.6-1.5-2.6
	C90,41.1,89.9,40,89.9,39z M113.7,47.1c-1.1,0-2.3-0.2-3.3-0.6c-0.9-0.4-1.7-0.9-2.3-1.6c-0.6-0.7-1.1-1.6-1.4-2.5
	c-0.3-1-0.5-2.1-0.5-3.2c0-1.5,0.2-2.9,0.7-4.3c0.5-1.4,1.2-2.7,2.1-3.9c0.9-1.2,2.1-2.1,3.4-2.9c1.4-0.8,3-1.1,4.6-1.1
	c1.1,0,2.3,0.2,3.3,0.6c0.9,0.4,1.7,0.9,2.4,1.6c0.6,0.7,1.1,1.6,1.4,2.5c0.3,1,0.5,2.1,0.5,3.2c0,1.5-0.2,2.9-0.7,4.3
	c-0.4,1.4-1.1,2.7-2,3.9s-2.1,2.1-3.4,2.8C117,46.8,115.4,47.2,113.7,47.1z M116.4,31.6c-0.8,0-1.5,0.2-2.1,0.7
	c-0.6,0.5-1.1,1.1-1.5,1.7c-0.4,0.7-0.7,1.5-0.9,2.3c-0.2,0.8-0.3,1.6-0.3,2.4c0,1,0.2,2,0.6,2.8c0.5,0.7,1.3,1.1,2.1,1
	c0.8,0,1.5-0.2,2.1-0.7s1.1-1.1,1.5-1.8s0.7-1.5,0.9-2.3c0.2-0.8,0.3-1.6,0.3-2.4c0.1-1-0.1-2-0.6-2.8
	C118.1,31.9,117.3,31.5,116.4,31.6z M130.3,46.6H125l4.5-19.1h5.4L130.3,46.6z M132.9,25.2c-0.7,0-1.4-0.2-2-0.7s-1-1.3-0.9-2
	c0-0.5,0.1-1,0.3-1.4s0.5-0.8,0.8-1.2c0.3-0.3,0.7-0.6,1.2-0.8c0.5-0.2,0.9-0.3,1.4-0.3c0.7,0,1.4,0.2,2,0.7s1,1.3,0.9,2
	c0,0.5-0.1,1-0.3,1.4s-0.5,0.8-0.8,1.2c-0.3,0.3-0.7,0.6-1.2,0.8C133.9,25.1,133.4,25.2,132.9,25.2z M138.8,28.4l1.4-0.4
	c0.5-0.2,1.1-0.3,1.7-0.4c0.7-0.2,1.4-0.3,2.1-0.3c0.9-0.1,1.7-0.1,2.6-0.1c2.8,0,4.8,0.8,5.9,2.5s1.3,3.9,0.6,6.8l-2.5,10.3H145
	l2.4-10.1c0.2-0.6,0.3-1.2,0.3-1.8c0.1-0.5,0.1-1,0-1.6c-0.1-0.4-0.3-0.8-0.7-1.1c-0.5-0.3-1-0.5-1.6-0.4c-0.7,0-1.4,0.1-2.1,0.2
	l-3.5,14.8h-5.4L138.8,28.4z M203.4,32.5c0,9.7-7.6,17.4-17.3,17.4c-8.9,0-17.3-6.9-17.4-17.5c-0.1-9.4,7.9-17.3,17.3-17.3
	C195.6,15.1,203.4,22.9,203.4,32.5z M186.2,41.9h5.6c2.3,0,2.3,0,2.9-2.3c0.3-1.2-0.1-1.5-1.2-1.5h-4.7c-3.5,0-3.5,0-2.6-3.5
	c0.2-1,0.7-1.7,1.7-1.9c1.1-0.2,1.4-0.9,1.7-1.9c0.2-1,0-1.3-1-0.9c-1.1,0.4-1.2,0-0.9-0.9c0.5-1.6,0.9-3.3,1.3-4.9
	c0.2-0.9,0-1.4-1-1.4h-3.3c-1-0.1-1.5,0.4-1.7,1.4c-0.6,2.5-1.3,5-1.9,7.6c-0.2,0.8-0.6,1.4-1.4,1.6c-1.1,0.2-1.4,1-1.6,2
	c-0.1,0.7-0.2,1.2,0.8,0.9c0.9-0.3,1,0.2,0.8,0.9c-0.3,1.1-0.6,2.3-0.9,3.4c-0.3,1,0,1.4,1.1,1.4L186.2,41.9L186.2,41.9z M238,38.1
	h-5.3c-1.3,0-1.4,0.3-0.9,1.5c1.6,3.5,6.6,4.2,9.4,1.3c0.3-0.3,0.5-0.8,1-0.8c0.7,0.1,1.5-0.1,1.9,0.6c0.3,0.6-0.3,1.1-0.6,1.5
	c-2.9,3.5-8.1,4.1-11.8,1.3c-3.3-2.5-4.1-8.2-1.5-11.9c2.4-3.4,7.6-4.4,11.3-2.1c2.7,1.7,3.5,4.4,3.6,7.4c0,0.9-0.6,1.1-1.4,1.1
	C241.7,38.1,239.8,38.1,238,38.1z M236.7,35.6h4.1c1.1,0,1.4-0.3,1-1.4c-0.8-2-2.7-3.3-5.1-3.3c-2.3,0-4.5,1.5-5.1,3.5
	c-0.3,0.9,0,1.2,0.9,1.2H236.7L236.7,35.6z M270.3,45.3c-5,0-8.4-3.5-8.4-8.6c0-4.9,3.7-8.4,8.7-8.4c4.9,0,8.4,3.7,8.4,8.7
	C278.9,41.9,275.4,45.3,270.3,45.3z M270.4,42.7c3.4,0,6-2.5,6-5.9c0-3.3-2.5-5.8-6-5.8c-3.4,0-5.9,2.4-6,5.7
	C264.4,40,267,42.7,270.4,42.7z M288.2,36.8v-6.6c0-0.6-0.1-1.4,0.9-1.4c0.7,0,1.6-0.3,1.9,0.9c0.3,1,0.7,0.2,1.1,0
	c2.2-1.5,4.6-1.8,7-0.7c2.5,1.2,3.3,3.5,3.4,6c0.2,2.9,0,5.8,0.1,8.8c0,1-0.5,1.3-1.4,1.3s-1.3-0.4-1.3-1.3v-8.1
	c0-3.1-1.3-4.6-3.8-4.6c-2.9,0-4.9,1.8-4.9,4.7c-0.1,2.6,0,5.1,0,7.7c0,1-0.2,1.7-1.4,1.7c-1.3,0-1.3-0.8-1.3-1.7
	C288.2,41.1,288.2,38.9,288.2,36.8L288.2,36.8z M255.2,45.3c-4.1,0-7.1-2.1-8.2-5.6c-1.2-3.5,0-7.6,2.6-9.5
	c3.1-2.3,7.4-2.5,10.4-0.4c0.6,0.4,1.1,0.8,0.5,1.5c-0.5,0.6-0.9,1.3-1.9,0.7c-1.1-0.7-2.3-1-3.6-1c-2.4,0.1-4.3,1.1-5.3,3.4
	s-0.6,4.6,1.1,6.5c1.5,1.7,4.2,2.3,6.4,1.5c0.4-0.2,0.9-0.3,1.2-0.6c1.1-0.8,1.8,0,2.3,0.7c0.7,1-0.4,1.2-0.9,1.6
	C258.3,45,256.7,45.4,255.2,45.3L255.2,45.3z M221.7,37.9v-5.3c0-1-0.3-1.6-1.4-1.5c-0.8,0.1-1.4-0.1-1.4-1.2s0.5-1.4,1.5-1.3
	c1.1,0.1,1.4-0.5,1.4-1.5V24c0-1,0.4-1.4,1.4-1.4c0.9,0,1.3,0.4,1.3,1.3c0,1,0.1,2.1,0,3.1c-0.1,1.2,0.4,1.6,1.6,1.6
	c0.6,0,1.4-0.2,1.7,0.7c0.3,1.1-0.1,1.7-1.3,1.8c-2,0.1-2,0.1-2,2.1v10c0,1,0.1,2-1.4,1.9c-1.5,0-1.3-1-1.3-2
	C221.7,41.3,221.7,39.6,221.7,37.9z M207.9,32.3V21.4c0-0.9,0.1-1.6,1.3-1.6s1.3,0.7,1.3,1.6v22c0,0.9-0.1,1.6-1.3,1.6
	s-1.3-0.7-1.3-1.6V32.3z M217,36.9v6.7c0,0.9-0.3,1.4-1.3,1.5c-1.1,0-1.4-0.4-1.4-1.5V30.2c0-0.9,0.3-1.4,1.3-1.5
	c1.1,0,1.5,0.4,1.4,1.5V36.9z M284.4,36.9v6.7c0,0.9-0.2,1.5-1.3,1.5s-1.3-0.6-1.3-1.5V30.2c0-0.9,0.2-1.5,1.3-1.5s1.3,0.6,1.3,1.5
	V36.9z M285.1,22.7c0,1-0.7,1.7-1.8,1.8c-1.1,0-1.9-0.6-1.9-1.7c0-1,0.7-1.8,1.7-1.9C284.1,20.9,285,21.7,285.1,22.7L285.1,22.7z
	 M215.7,20.9c1,0,1.9,0.8,1.9,1.8s-0.8,1.8-2,1.8c-1.1,0-1.8-0.8-1.8-1.8C213.8,21.8,214.7,20.9,215.7,20.9L215.7,20.9z"/>
<path class="st5" d="M353.8,34.9c0,0.2-0.2,0.3-0.3,0.3h-6.7c0.2,1.7,1.4,3.2,3.2,3.2c1.2,0,2.1-0.5,2.8-1.4
	c0.1-0.1,0.2-0.2,0.4-0.1c0.1,0,0.2,0.1,0.2,0.2v0.2c-0.7,1.2-2,1.7-3.3,1.7c-2.3,0-3.9-2-3.9-4.2s1.6-4.2,3.9-4.2
	C352.1,30.8,353.8,32.8,353.8,34.9 M353.1,34.6c-0.1-1.7-1.4-3.2-3.2-3.2s-3,1.5-3.2,3.2H353.1L353.1,34.6z M361.9,30.9
	c0.2,0,0.3,0.2,0.3,0.3c0,0.2-0.1,0.3-0.3,0.3h-1.8v7c0,0.2-0.1,0.3-0.3,0.3c-0.2,0-0.3-0.2-0.3-0.3v-7h-1.7c-0.2,0-0.3-0.1-0.3-0.3
	c0-0.2,0.1-0.3,0.3-0.3h1.7v-2.6c0-0.2,0.1-0.3,0.3-0.3c0.2,0,0.4,0.1,0.4,0.3v2.6L361.9,30.9L361.9,30.9z M372.8,34.3v4.3
	c0,0.2-0.2,0.3-0.3,0.3c-0.2,0-0.3-0.1-0.3-0.3v-4.3c0-1.4-0.8-2.9-2.4-2.9c-2.1,0-2.9,1.8-2.8,3.6v3.5c0,0.2-0.1,0.3-0.3,0.3
	c-0.2,0-0.4-0.1-0.4-0.3v-14c0-0.2,0.1-0.3,0.3-0.3c0.2,0,0.3,0.2,0.3,0.3v7.9c0.6-1,1.6-1.7,2.8-1.7
	C371.7,30.8,372.8,32.5,372.8,34.3 M384.8,34.9c0,0.2-0.2,0.3-0.3,0.3h-6.7c0.2,1.7,1.4,3.2,3.2,3.2c1.2,0,2.1-0.5,2.8-1.4
	c0.1-0.1,0.2-0.2,0.4-0.1c0.1,0,0.2,0.1,0.2,0.2v0.2c-0.7,1.2-2,1.7-3.3,1.7c-2.3,0-3.9-2-3.9-4.2s1.6-4.2,3.9-4.2
	C383.2,30.8,384.8,32.8,384.8,34.9 M384.1,34.6c-0.1-1.7-1.4-3.2-3.2-3.2s-3,1.5-3.2,3.2H384.1L384.1,34.6z M393,31.3
	c0,0.2-0.1,0.3-0.3,0.4c-2,0.3-2.8,1.9-2.8,3.8v3.2c0,0.2-0.1,0.3-0.3,0.3c-0.2,0-0.4-0.1-0.4-0.3v-7.3c0-0.2,0.1-0.3,0.3-0.3
	c0.2,0,0.4,0.1,0.4,0.3v1.5c0.5-0.9,1.7-1.8,2.8-1.8C392.8,30.9,393,31.1,393,31.3 M404,34.9c0,0.2-0.2,0.3-0.3,0.3H397
	c0.2,1.7,1.4,3.2,3.2,3.2c1.2,0,2.1-0.5,2.8-1.4c0.1-0.1,0.2-0.2,0.4-0.1c0.1,0,0.2,0.1,0.2,0.2v0.2c-0.7,1.2-2,1.7-3.3,1.7
	c-2.3,0-3.9-2-3.9-4.2s1.6-4.2,3.9-4.2C402.4,30.8,404,32.8,404,34.9 M403.3,34.6c-0.1-1.7-1.4-3.2-3.2-3.2c-1.7,0-3,1.5-3.2,3.2
	H403.3L403.3,34.6z M414.8,31.3v7.3c0,0.2-0.2,0.3-0.3,0.3c-0.2,0-0.3-0.1-0.3-0.3v-1.4c-0.5,1.1-1.5,1.9-2.8,1.9
	c-2,0-3.1-1.7-3.1-3.5v-4.3c0-0.2,0.1-0.3,0.3-0.3c0.2,0,0.3,0.2,0.3,0.3v4.3c0,1.4,0.8,2.9,2.4,2.9c2.3,0,2.8-2.1,2.8-4.4v-2.7
	c0-0.2,0.2-0.4,0.4-0.3C414.7,31.1,414.8,31.2,414.8,31.3 M431.8,34.3v4.3c0,0.2-0.2,0.3-0.3,0.3c-0.2,0-0.3-0.1-0.3-0.3v-4.3
	c0-1.4-0.8-2.8-2.4-2.8c-2,0-2.8,2.2-2.8,3.8v3.3c0,0.2-0.2,0.3-0.3,0.3c-0.2,0-0.3-0.1-0.3-0.3v-4.3c0-1.4-0.8-2.8-2.4-2.8
	c-2,0-2.9,1.6-2.8,3.7v3.4c0,0.2-0.1,0.3-0.3,0.3c-0.2,0-0.4-0.1-0.4-0.3v-7.3c0-0.2,0.1-0.3,0.3-0.3c0.2,0,0.4,0.1,0.4,0.3v1.2
	c0.6-1,1.6-1.7,2.8-1.7c1.4,0,2.4,0.9,2.8,2.1c0.5-1.2,1.6-2.1,3-2.1C430.6,30.8,431.8,32.5,431.8,34.3"/>
<g class="st1">
	<path class="st0" d="M329,28.9L317.8,34l11.2,6.6l11.2-6.6L329,28.9z"/>
</g>
<g class="st6">
	<path class="st0" d="M317.8,34l11.2,6.6V15.5L317.8,34z"/>
</g>
<g class="st7">
	<path class="st0" d="M329,15.5v25.2l11.2-6.6L329,15.5z"/>
</g>
<g class="st6">
	<path class="st0" d="M317.8,36.1L329,51.9v-9.1C329,42.8,317.8,36.1,317.8,36.1z"/>
</g>
<g class="st7">
	<path class="st0" d="M329,42.7v9.1L340.2,36L329,42.7z"/>
</g>
<path class="st0" d="M484.1,31.3c-0.3-0.1-0.8-0.1-1.4-0.1c-1.7,0-3.5,1.4-3.5,3.1v8.1h-3.9V27.9h3.7v1.5c0.9-1.1,2.4-1.8,4.2-1.8
	c0.6,0,0.9,0.1,1.3,0.1L484.1,31.3L484.1,31.3z M488.5,20.3c1.4,0,2.5,1.1,2.5,2.5s-1.1,2.5-2.5,2.5s-2.5-1.1-2.5-2.5
	S487.1,20.3,488.5,20.3z M490.5,42.4h-3.9V27.9h3.9V42.4z M501.9,27.6c-1.6,0-3.1,0.5-4.2,1.5v-1.2H494v21.6h3.9v-8.2
	c1.2,0.9,2.4,1.3,3.9,1.3c2.1,0,4.2-1,5.5-2.4c1.1-1.3,1.8-3.1,1.8-5.1C509,30.9,505.9,27.6,501.9,27.6L501.9,27.6z M501.4,39.1
	c-2.4,0-4-1.7-4-4s1.6-4,4-4c2.1,0,3.7,1.8,3.7,4C505.2,37.4,503.5,39.1,501.4,39.1z M532.6,42.4h-3.9V21.2h3.9V42.4z M548.4,40.1
	c-1.4,1.7-3.7,2.6-5.9,2.6c-4.3,0-7.6-3-7.6-7.5c0-4,2.7-7.6,7-7.6c4,0,6.8,3.4,6.8,7.4c0,0.4,0,0.8-0.1,1.1h-10
	c0.2,2,1.9,3.4,3.9,3.4c1.6,0,3-0.9,3.6-1.7C546.1,37.8,548.4,40.1,548.4,40.1z M544.8,33.3c-0.1-1.3-1.3-2.5-2.9-2.5
	c-1.6,0-2.9,1.2-3.1,2.5H544.8z M519.3,27.6c-1.6,0-3.1,0.5-4.2,1.5v-1.2h-3.7v21.6h3.9v-8.2c1.2,0.9,2.4,1.3,3.9,1.3
	c2.1,0,4.2-1,5.5-2.4c1.1-1.3,1.8-3.1,1.8-5.1C526.4,30.9,523.2,27.6,519.3,27.6z M518.8,39.1c-2.4,0-4-1.7-4-4s1.6-4,4-4
	c2.1,0,3.7,1.8,3.7,4C522.5,37.4,520.9,39.1,518.8,39.1z M467.3,37.1c-0.9-0.5-1.9-0.7-2.8-0.7c-0.8,0-2-0.6-2-2c0-1.1,0.9-2,2-2
	c1,0,2-0.2,2.8-0.7c1.6-0.9,2.6-2.6,2.6-4.5c0-1.8-1-3.6-2.6-4.5s-3.6-0.9-5.2,0s-2.6,2.6-2.6,4.5c0,1,0.4,1.9,0.8,2.8
	c0.4,0.7,0.6,2.1-0.7,2.8c-1,0.6-2.2,0.2-2.8-0.8c-0.5-0.8-1.1-1.6-2-2.1c-1.6-0.9-3.6-0.9-5.2,0s-2.6,2.6-2.6,4.5
	c0,1.8,1,3.6,2.6,4.5s3.6,0.9,5.2,0c0.9-0.5,1.5-1.3,2-2.1c0.4-0.7,1.5-1.5,2.8-0.8c1,0.6,1.3,1.8,0.7,2.8c-0.5,0.9-0.8,1.8-0.8,2.8
	c0,1.8,1,3.6,2.6,4.5s3.6,0.9,5.2,0s2.6-2.6,2.6-4.5S468.9,38,467.3,37.1z"/>
<path class="st0" d="M281.9,71.5c-11.1,0-19.9,5.2-19.9,11.6c0,2.7,1.5,5.4,4.3,7.3c-1.4-1.5-2-3.4-2.2-5.5
	c0-6.6,8.7-12.1,19.5-12.1c6.9,0,13,2.3,16.4,5.6C297.1,74.5,290.1,71.5,281.9,71.5z"/>
<path class="st0" d="M273,81.9c0.5-0.5,1.4-0.6,2.2-0.6s1.5,0.3,2.2,0.6c0.5,0.5,0.9,1.1,1,1.8H272C272.1,83,272.4,82.4,273,81.9
	L273,81.9z M280.1,86.6c0.6,0,1.5-0.3,1.9-0.5c0.5-0.4,0.9-1,0.9-1.7c0-1.4-0.5-2.6-1.4-3.7c-1.5-2-4-3.2-6.5-3.2
	c-2.2-0.1-4.3,0.8-5.9,2.3c-1.5,1.5-2.3,3.4-2.3,5.5c0,2.2,0.8,4.1,2.4,5.5c1.5,1.5,3.7,2.3,5.9,2.3c1.3,0,2.6-0.3,3.6-0.5
	c1.1-0.3,2.3-0.9,3.1-1.8c0.4-0.4,0.5-0.8,0.5-1.4c0-1.1-0.5-1.7-1.8-1.7c-0.6,0.3-1.5,0.4-2.2,0.6c-0.9,0.5-1.9,0.6-2.9,0.6
	c-0.9,0-1.8-0.3-2.6-0.6c-0.6-0.5-1-1.1-1.1-1.9L280.1,86.6z M285.5,90.8c1.5,1.5,3.6,2.3,5.9,2.3c1.3,0,2.6-0.3,3.6-0.5
	c1.4-0.5,2-1.4,2-2.3c0-0.5-0.3-1-0.5-1.4c-0.4-0.4-0.9-0.5-1.4-0.5s-1,0.3-1.5,0.4c-0.5,0.3-1.3,0.4-1.8,0.4c-1,0.1-1.9-0.4-2.6-1
	c-0.5-0.6-0.9-1.7-0.8-2.6c0-0.9,0.3-1.8,0.8-2.6s1.5-1.1,2.6-1.1c0.5,0,1.4,0.1,1.8,0.4c0.5,0.3,1,0.4,1.5,0.4c0.5,0,1-0.3,1.5-0.5
	c0.4-0.4,0.5-0.8,0.5-1.4c0-1-0.5-1.8-1.9-2.3c-1-0.4-2.3-0.5-3.4-0.5c-2.3-0.1-4.3,0.6-6,2.2c-1.5,1.5-2.3,3.4-2.3,5.5
	C283.3,87.4,284.2,89.3,285.5,90.8z M303,82.8c1-1.4,3.1-1.5,4.3-0.5l0.5,0.5c0.5,0.6,0.8,1.5,0.8,2.6c0,0.9-0.3,1.8-0.6,2.6
	c-0.5,0.8-1.5,1.3-2.4,1.1c-1,0-1.8-0.5-2.4-1.1c-0.5-0.6-0.8-1.5-0.8-2.6C302.2,84.3,302.3,83.5,303,82.8L303,82.8z M299.4,90.8
	c3.4,3.1,8.5,3.1,11.7,0c1.5-1.5,2.3-3.4,2.3-5.5c0.1-2.2-0.6-4.1-2.3-5.5c-1.7-1.4-3.7-2.3-5.9-2.3c-2.3-0.1-4.3,0.6-5.9,2.3
	c-1.5,1.5-2.3,3.4-2.3,5.5C297.2,87.4,298,89.4,299.4,90.8z M320.2,89.8v-3.4h3.4c1.9,0.1,4-0.5,5.5-1.8c1.5-1.3,2.2-3.1,2-5
	c0.1-1.9-0.6-3.8-2.3-5c-1.7-1.3-3.6-1.8-5.6-1.7h-4.5c-1-0.1-1.8,0.3-2.6,0.6c-0.5,0.6-0.8,1.5-0.6,2.6v13.5c0,2.2,0.8,3.2,2.6,3.2
	C319.3,92.8,320.2,91.8,320.2,89.8L320.2,89.8z M320.2,77h2.3c2.3,0,3.4,0.9,3.4,2.6c0,1.8-1.1,2.6-3.4,2.6h-2.2
	C320.2,82.3,320.2,77,320.2,77z M344.8,92.8c1.5,0,2.4-1,2.4-3.2v-8.8c0-2.2-0.8-3.2-2.4-3.2c-1,0-1.8,0.5-2.3,1.5
	c-1-1-2.4-1.5-3.8-1.5c-2.2-0.1-4.1,0.9-5.5,2.4c-2.6,3.1-2.6,7.5-0.1,10.5c1.4,1.5,3.3,2.6,5.4,2.4c1.5,0.1,3.1-0.5,4.1-1.5
	C343,92.3,343.9,92.8,344.8,92.8z M337,82.9c0.5-0.6,1.5-1.1,2.3-1c0.9-0.1,1.8,0.4,2.3,1c0.5,0.6,0.6,1.5,0.6,2.4
	c0,0.9-0.3,1.7-0.6,2.4c-0.5,0.8-1.5,1.3-2.3,1.3c-0.8,0-1.8-0.4-2.4-1.1c-0.5-0.6-0.8-1.5-0.6-2.4C336.2,84.4,336.5,83.5,337,82.9
	L337,82.9z M358.3,79.4l-2.9,7l-2.7-6.5c-0.3-0.5-0.5-1-0.8-1.5c-0.5-0.5-1-0.5-1.5-0.5c-0.5,0-1.3,0.3-1.7,0.5
	c-0.5,0.4-0.5,1-0.5,1.5c0,0.5,0.1,0.8,0.3,1.3l4.8,10.3l-1.9,3.8c-0.3,0.5-0.4,1-0.5,1.5c0,0.5,0.3,1.1,0.5,1.5
	c0.5,0.4,1,0.5,1.7,0.5c0.9,0,1.5-0.5,2.2-1.8l7.4-15.7c0.3-0.5,0.4-1,0.4-1.5c0-1.5-0.8-2.2-2.4-2.2
	C359.4,77.8,358.9,78.3,358.3,79.4L358.3,79.4z M374.6,88.8h-4.7l6.4-7.5c0.5-0.5,0.9-1.1,1-1.8c0.1-0.5-0.3-1-0.6-1
	c-0.6-0.3-1.5-0.3-2.3-0.3h-7.7c-2,0-3.1,0.5-3.1,1.9c0,1.4,1,2,3.1,2h4.2l-6.8,7.5c-0.5,0.5-0.6,1-0.6,1.7c0,1,0.9,1.4,2.6,1.4h8.7
	c2,0,3.1-0.6,3.1-2C377.7,89.4,376.5,88.8,374.6,88.8L374.6,88.8z M123.8,79.2h8.3c1.4,0,2.4,0.4,3.2,1c0.8,0.6,1.1,1.5,1.1,2.6
	c0,0.8-0.3,1.5-0.8,2.2c-0.4,0.5-0.9,0.6-1.5,0.9c1,0.3,1.8,0.6,2.3,1.3c0.5,0.6,0.6,1.4,0.6,2.3c0,0.8-0.3,1.4-0.5,2
	c-0.4,0.5-0.8,1-1.5,1.4c-0.4,0.3-0.9,0.4-1.7,0.5c-1,0.1-1.7,0.3-2,0.3h-7.5C123.6,93.3,123.8,79.2,123.8,79.2z M128.3,84.8h1.9
	c0.6,0,1.1-0.1,1.5-0.4c0.4-0.3,0.5-0.5,0.5-1s-0.1-0.8-0.5-1c-0.3-0.3-0.8-0.4-1.4-0.4h-1.9L128.3,84.8L128.3,84.8z M128.3,90.4
	h2.3c0.8,0,1.3-0.1,1.5-0.5c0.3-0.4,0.5-0.6,0.5-1.1c0-0.5-0.1-0.8-0.5-1c-0.4-0.3-0.9-0.4-1.5-0.4h-2.3
	C128.3,87.5,128.3,90.4,128.3,90.4z M147.7,91.1h-5l-0.6,2.4h-4.5l5.4-14.3h4.7l5.4,14.3h-4.6L147.7,91.1L147.7,91.1z M146.8,88
	l-1.5-5.1l-1.5,5.1H146.8z M154.4,79.2h4.1l5.4,7.9v-7.9h4.2v14.3h-4.2l-5.4-7.8v7.8h-4.2L154.4,79.2L154.4,79.2z M171,79.2h4.5v5.5
	l4.6-5.5h5.9l-5.2,5.5l5.5,8.8h-5.5l-2.9-5.9l-2.3,2.4v3.4H171L171,79.2L171,79.2L171,79.2z M186.2,79.2h4.2l1.5,7.9l2.2-7.9h4.2
	l2.2,7.9l1.5-7.9h4.2l-3.4,14.3h-4.3l-2.6-8.9l-2.6,8.9H189L186.2,79.2L186.2,79.2z M207.6,79.2h4.5v14.3h-4.5V79.2z M215.2,93.5
	V79.2h7.4c1.4,0,2.4,0.1,3.2,0.4c0.6,0.3,1.4,0.6,1.7,1.4c0.5,0.6,0.6,1.4,0.6,2.3c0,0.8-0.1,1.5-0.5,2c-0.4,0.5-0.8,1-1.4,1.4
	c-0.4,0.3-0.9,0.5-1.5,0.5c0.5,0.3,0.9,0.4,1.1,0.5c0.1,0.1,0.5,0.4,0.6,0.8c0.4,0.4,0.5,0.6,0.5,0.9l2.2,4.1h-5l-2.4-4.3
	c-0.4-0.5-0.5-0.9-0.8-1.1c-0.4-0.3-0.6-0.4-1.1-0.4h-0.4v5.7h-4.2V93.5z M219.7,84.9h1.8c0.3,0,0.5-0.1,1.1-0.3
	c0.4-0.1,0.5-0.3,0.6-0.5c0.1-0.3,0.3-0.5,0.3-0.8c0-0.5-0.1-0.8-0.5-1c-0.4-0.3-0.8-0.4-1.7-0.4h-1.9v2.9H219.7L219.7,84.9z
	 M230.7,79.2h11.7v3.1H235v2.3h6.8v2.9H235v2.8h7.5v3.2h-12C230.7,93.5,230.7,79.2,230.7,79.2z M107.7,79.2H121V82h-13.3V79.2z
	 M107.7,84.8H121v2.8h-13.3V84.8z M107.7,90.7H121v2.8h-13.3V90.7z"/>
</svg>
