<?xml version="1.0" encoding="utf-8"?>
<!-- Generator: Adobe Illustrator 24.0.2, SVG Export Plug-In . SVG Version: 6.00 Build 0)  -->
<svg version="1.1" id="Providers" xmlns="http://www.w3.org/2000/svg" xmlns:xlink="http://www.w3.org/1999/xlink" x="0px" y="0px"
	 viewBox="0 0 1200 60" style="enable-background:new 0 0 1200 60;" xml:space="preserve">
<style type="text/css">
	.st0{fill:#84D5F7;}
</style>
<title>payment_large_br</title>
<g>
	<path class="st0" d="M953,27c-1.4,2.5-2.1,5.2-3.2,7.8c-0.8,2.2-1.7,4.3-2.8,6.4c-0.8,1.5-2,2.7-3.5,3.5c-0.6,0.3-1.3,0.8-1.8-0.2
		c-0.4-0.8-0.3-1.4,0.6-1.8c0.6-0.3,1.2-0.8,1.7-1.3c1.4-1.1,1.8-3,0.9-4.6c-1.3-3-2.5-6-3.7-9.1c-0.2-0.5-1.1-1.4,0.1-1.7
		c0.8-0.4,1.9-0.1,2.3,0.7c0,0.1,0.1,0.2,0.1,0.3c0.8,2.4,1.7,4.7,2.6,7c0.1,0.6,0.4,1.1,0.8,1.6l2.5-7.3c0.8-2.4,0.8-2.4,3.4-2.4
		L953,27z"/>
	<path class="st0" d="M862.7,33.7c-0.4,0-0.9,0-1.3,0c-1-0.2-2,0.4-2.2,1.4c0,0.1,0,0.1,0,0.2c-0.3,1-0.6,2.1-1.1,3.1
		c-0.1,0.4-0.3,0.9-0.7,1c-0.6,0.3-1.3,0.3-1.9-0.1c-0.6-0.4-0.2-1,0-1.5c1.8-5.2,3.6-10.4,5.3-15.6c0.2-1,1.2-1.6,2.2-1.4
		c0.8-0.1,1.5,0.4,1.7,1.2c1.8,5.4,3.7,10.7,5.4,16.1c0.2,0.5,0.5,1.2-0.3,1.3c-0.8,0.2-1.8,0.4-2.3-0.7c-0.3-0.8-0.6-1.6-0.9-2.5
		c-1.1-3-0.5-2.6-3.7-2.6L862.7,33.7z M862.7,24.1c-0.6,1.7-0.9,2.9-1.3,4.1c-1.2,3.6-1.1,3.7,2.8,3.3c0.8-0.1,1-0.4,0.8-1.1
		C864.2,28.5,863.5,26.5,862.7,24.1z"/>
	<path class="st0" d="M915.9,30.3c0-2.5,0-5,0-7.5c0-1.1,0.4-1.7,1.5-1.8c2-0.3,4-0.2,6,0.2c2.2,0.4,3.9,2.3,4,4.6
		c0.4,2.5-1,4.8-3.3,5.8c-1.2,0.6-2.5,0.8-3.8,0.7c-1.4-0.1-1.8,0.5-1.7,1.8c0.1,1.3,0,2.5,0,3.7c0,0.9-0.1,1.6-1.3,1.6
		s-1.4-0.7-1.4-1.7C915.9,35.3,915.9,32.8,915.9,30.3z M918.5,26.5v1c0,2.7,0.6,3.1,3.2,2.5c0.3-0.1,0.6-0.2,0.9-0.3
		c1.7-0.8,2.5-2.7,1.9-4.5c-0.4-1.5-2.5-2.5-4.6-2.3c-2.2,0.2-1.2,2-1.5,3.2C918.5,26.2,918.5,26.4,918.5,26.5L918.5,26.5z"/>
	<path class="st0" d="M913,32.6c0,4.2-2.7,7.2-6.5,7.2c-3.9,0-6.4-2.8-6.4-6.9c0-4.3,2.6-7.2,6.5-7.2C910.5,25.7,913,28.5,913,32.6z
		 M910.3,32.6c0-3.1-1.6-4.9-4.1-4.7c-2.1,0.2-3.3,1.9-3.3,4.6c0,3,1.5,5,3.7,5S910.3,35.6,910.3,32.6L910.3,32.6z"/>
	<path class="st0" d="M939,34.5c0,1.2,0,2.4,0,3.6c0,0.5,0,1.1-0.7,1.3c-0.6,0.1-1.3,0.2-1.5-0.5c-0.3-0.9-0.7-0.5-1.1-0.2
		c-0.8,0.6-1.8,1-2.9,1c-1.8,0.2-3.5-0.9-4.1-2.6c-0.6-1.8,0.1-3.8,1.7-4.9c1.4-0.8,2.9-1.3,4.5-1.4c0.5-0.1,1.2,0.1,1.4-0.6
		c0.1-0.7-0.1-1.3-0.7-1.7c-1.1-1-2.4-0.8-3.7-0.6c-0.7,0.1-1.8,1.3-2.1-0.2c-0.4-1.5,1.1-1.4,1.9-1.6c4.6-1.2,7.3,0.9,7.4,5.6
		C939,32.7,939,33.6,939,34.5L939,34.5z M936.4,34.3c-0.2-0.4,0.3-1.4-0.6-1.5c-1.4-0.1-3,0-4.1,1.2c-0.7,0.8-0.8,1.9-0.3,2.8
		c0.5,0.8,1.4,1.1,2.3,0.9C935.4,37.5,936.3,36.3,936.4,34.3z"/>
	<path class="st0" d="M875.6,39.8c-1,0-2-0.2-2.9-0.6c-0.5-0.1-0.9-0.7-0.7-1.2c0-0.1,0-0.1,0.1-0.2c0.2-0.7,0.7-0.9,1.4-0.6
		c0.8,0.4,1.8,0.5,2.7,0.4c0.8,0,1.6-0.6,1.8-1.4c0.2-0.8-0.2-1.7-1-2c-0.7-0.3-1.4-0.6-2.1-0.9c-1.9-0.9-2.8-2.4-2.6-3.9
		c0.3-1.8,1.7-3.1,3.8-3.5c1.1-0.2,2.2,0,3.2,0.4c0.5,0.1,0.9,0.6,0.8,1.1c0,0.1,0,0.2-0.1,0.3c-0.2,0.8-0.6,0.9-1.3,0.6
		c-0.5-0.2-1-0.3-1.6-0.3c-0.9,0-1.8,0.2-2,1.2c-0.3,1,0.3,1.5,1.1,1.9c0.6,0.3,1.2,0.5,1.8,0.8c2.2,1,3.2,2.6,2.8,4.4
		c-0.3,1.8-1.9,3.2-4.2,3.5C876.1,39.8,875.9,39.8,875.6,39.8z"/>
	<path class="st0" d="M887.7,39.8c-1.8,0.2-3.4-1.2-3.6-3c-0.3-2.3-0.3-4.7-0.2-7c0-0.9,0-1.7-1.2-1.7c-0.6,0-0.8-0.5-0.8-1.1
		s0.2-0.9,0.7-0.9c1-0.1,1.2-0.7,1.3-1.5c0.1-1.2,1.1-1.3,1.9-1.4c1.1-0.1,0.7,0.9,0.7,1.4c0,1.1,0.5,1.4,1.5,1.4
		c0.4,0,0.9,0,1.3,0.1c0.6,0.2,0.7,0.6,0.6,1.2c0,0.5-0.4,0.8-0.8,0.8c0,0,0,0,0,0c-0.5,0-1,0-1.5,0c-0.7,0-1.1,0.3-1.1,1.1
		c0,2.2,0,4.3,0,6.5c0,0.9,0.4,1.6,1.4,1.7c0.9,0,1.8-0.1,1.7,1.3C889.7,39.4,889,39.8,887.7,39.8z"/>
	<path class="st0" d="M893.4,23.1c-0.7,0.1-1.1-0.4-1.5-0.8c-2.9-2-6-3.5-9.6-3.7c-4.2-0.3-7.6,1.4-10.7,4c-0.4,0.4-0.8,0.7-1.3,1
		c-0.6,0.4-4,0.3-3.9,0c0.1-1.2,1.2-1.7,2-2.4c8.3-6.4,17-6,24.8,1.2C893.3,22.6,893.5,22.8,893.4,23.1z"/>
	<path class="st0" d="M894.6,28.1c1.1-1.3,1.9-2,3.1-2.2c0.7-0.1,1.3,0,1.4,0.9c0.1,0.7,0.1,1.4-0.9,1.6c-2.6,0.7-3.2,1.5-3.2,4.2
		c0,1.7,0,3.5,0,5.2c0,1-0.2,1.7-1.4,1.7c-1.2,0-1.4-0.8-1.4-1.7c0-3.3,0-6.6,0-9.9c0-0.8-0.2-1.7,1-1.8
		C894.6,25.9,894.8,26.7,894.6,28.1z"/>
</g>
<g id="layer1-2">
	<g id="g21587">
		<path id="path10057" class="st0" d="M66.6,26.6l5.5,3.7l6.6-4.4L76,24l3.6-2.4l7.7,5.1l-12.7,8.4l2.8,1.8l15.7-10.5l-13.2-8.8
			L66.6,26.6z M93.1,35.4l-5.5-3.7L81,36.1l2.8,1.8l-3.6,2.4l-7.7-5.1l12.7-8.4l-2.8-1.8L66.6,35.4l13.2,8.8L93.1,35.4z M93.1,21.5
			l-2.8,1.8l-2.8-1.8l5.5-3.7V21.5z M66.6,40.5l2.8-1.8l2.8,1.8l-5.5,3.7V40.5z"/>
		<path id="path10059" class="st0" d="M105.6,39.8c1.7,0,6-0.2,6-4.7c0-2.4-0.8-4.1-3.7-4.5c2-0.2,3.4-2,3.3-3.9
			c0-3.8-2.6-4.6-5.7-4.6h-7.2v17.6L105.6,39.8z M235.3,39.8c2.4,0,4.9-0.3,4.9-4.1c0-4.3-6.2-3.9-6.2-6.6c-0.1-0.8,0.5-1.5,1.3-1.6
			c0.1,0,0.2,0,0.3,0h3.4v-2.2h-4.7c-3.9,0-4.8,1.8-4.8,4c0,4.3,6.9,4.2,6.9,6.6c0.1,0.8-0.5,1.5-1.3,1.6c-0.1,0-0.2,0-0.3,0h-5
			l-3.7-12.2h-4.4l-4.1,13.1l-2.5-5.6c1.8-0.3,2.6-1.5,2.6-3.7c0.2-1.9-1.2-3.6-3.1-3.8c-0.2,0-0.4,0-0.7,0h-6.9v14.4h3.7V27.6h1.3
			c1.1,0,2,0.9,2,2c0,0.1,0,0.1,0,0.2c0,1.2-0.6,2.2-1.6,2.1h-1l3.4,7.9h6l0.9-3.2h3.9l0.9,3.2L235.3,39.8z M225.1,34.4h-2.8
			l1.3-5.9L225.1,34.4z M183.3,40.2c5.6,0,5.6-3.7,5.6-7.6s0-7.6-5.6-7.6s-5.6,3.7-5.6,7.6S177.6,40.2,183.3,40.2 M183.3,38
			c-1.7,0-1.8-1.6-1.8-5.4s0.2-5.4,1.8-5.4s1.8,1.6,1.8,5.4S184.9,38,183.3,38 M165.4,39.8h5.5c5.8,0,5.4-5.1,5.4-7.3
			c0-4.5-0.8-7.1-5.2-7.1h-5.6V39.8z M169.1,27.6h1.5c2,0,2,2.3,2,5c0,3.7-0.3,5-2.1,5h-1.4V27.6z M198.2,32.1h0.9
			c1.8,0,2.3,0.9,2.3,2.5c0,2.5-1.7,2.5-2.4,2.5h-2v-5L198.2,32.1z M197.1,29.4v-4.5h2.1c1.1,0,2,0.9,2,2.1c0,0.1,0,0.1,0,0.2
			c0,1.7-1.1,2.2-1.8,2.2h-1.2L197.1,29.4z M199.8,39.8c1.7,0,6-0.2,6-4.7c0-2.4-0.8-4.1-3.7-4.5c2-0.2,3.4-2,3.3-3.9
			c0-3.8-2.6-4.6-5.7-4.6h-7.2v17.7L199.8,39.8z M255.3,39.8v-2.2H251V25.4h-3.7v14.4H255.3z M245.2,25.4h-3.7v14.4h3.7V25.4z
			 M155.8,40.2c5.6,0,5.6-3.7,5.6-7.6s0-7.6-5.6-7.6s-5.6,3.7-5.6,7.6S150.2,40.2,155.8,40.2 M155.8,38c-1.6,0-1.8-1.6-1.8-5.4
			s0.2-5.4,1.8-5.4s1.8,1.6,1.8,5.4S157.4,38,155.8,38 M119.5,34.4h-2.8l1.3-5.9L119.5,34.4z M115.3,39.8l0.9-3.2h3.9l0.9,3.2h3.8
			l-4.3-14.4h-4.4l-4.4,14.4L115.3,39.8z M144.1,40.2c3.2,0,5.1-1.3,5.1-5.2h-3.7c0,1.2-0.1,3-1.4,3c-1.5,0-1.8-0.9-1.8-5.4
			c0-4.6,0.4-5.4,1.7-5.4c0.9,0,1.4,0.7,1.4,2.7h3.6c0.1-3.2-1.6-4.9-5.1-4.9c-5.2,0-5.3,3.3-5.3,7.6S138.4,40.2,144.1,40.2
			 M128.8,39.8v-9.6l4,9.6h4.3V25.4H134v9.3l-3.9-9.3h-4.4v14.4L128.8,39.8z M103.6,32.1h0.6c2.2,0,2.8,0.9,2.8,2.5
			c0,2.5-2,2.5-2.9,2.5h-1.3v-5L103.6,32.1z M102.7,29.4v-4.5h1.7c1.3-0.1,2.4,0.8,2.5,2.1c0,0.1,0,0.1,0,0.2c0.1,1.2-0.8,2.2-2,2.3
			c-0.1,0-0.2,0-0.3,0L102.7,29.4L102.7,29.4z"/>
	</g>
</g>
<g id="g4158">
	<polygon id="polygon9" class="st0" points="1137.4,43.8 1130.8,43.8 1134.9,18.2 1141.5,18.2 	"/>
	<path id="path11" class="st0" d="M1161.4,18.9c-1.9-0.7-3.9-1.1-5.9-1.1c-6.5,0-11.1,3.5-11.2,8.5c-0.1,3.7,3.3,5.7,5.8,6.9
		c2.5,1.2,3.4,2.1,3.4,3.2c0,1.7-2.1,2.5-4,2.5c-2.2,0.1-4.3-0.4-6.2-1.4l-0.9-0.4l-0.9,5.7c2.4,0.9,4.9,1.4,7.4,1.4
		c6.9,0,11.5-3.4,11.5-8.7c0-2.9-1.7-5.1-5.6-7c-2.3-1.2-3.7-2-3.7-3.2s1.2-2.2,3.8-2.2c1.7,0,3.4,0.3,4.9,1l0.6,0.3L1161.4,18.9
		L1161.4,18.9z"/>
	<path id="path13" class="st0" d="M1170.2,34.8c0.6-1.5,2.6-7.2,2.6-7.2s0.6-1.5,0.9-2.4l0.5,2.2c0,0,1.2,6.1,1.5,7.4H1170.2z
		 M1178.3,18.3h-5.1c-1.5-0.2-2.9,0.7-3.5,2.1l-9.8,23.5h6.9l1.4-3.8h8.5c0.2,0.9,0.8,3.8,0.8,3.8h6.1L1178.3,18.3L1178.3,18.3z"/>
	<path id="path15" class="st0" d="M1125.2,18.2l-6.5,17.4l-0.7-3.5c-1.2-4.1-5-8.5-9.2-10.7l5.9,22.4h7l10.4-25.6L1125.2,18.2z"/>
	<path id="path17" class="st0" d="M1112.8,18.2h-10.6l-0.1,0.5c8.3,2.1,13.8,7.2,16.1,13.4l-2.3-11.8
		C1115.4,18.8,1114.2,18.3,1112.8,18.2z"/>
</g>
<g id="layer1-3">
	<g id="g2995">
		<g id="g2997">
			<path id="path3001" class="st0" d="M653.1,26.5l-3,7.6h4.2L653.1,26.5L653.1,26.5L653.1,26.5z M637.1,43.8l12.4-25.5h9.4
				l5.2,25.5h-8.3l-0.6-3.4h-8l-1.8,3.4H637.1z M668,43.8l3.6-25.5h8.3l-3.6,25.5H668z M723.2,26.5l-3,7.6h4.2L723.2,26.5z
				 M707.2,43.8l12.4-25.5h9.4l5.2,25.5h-8.3l-0.6-3.4h-8l-1.8,3.4H707.2"/>
			<path id="path3003" class="st0" d="M688.8,31.9h10.4l7.1,11.8h-10.4L688.8,31.9"/>
			<path id="path3005" class="st0" d="M689.9,30.1h10.7l9.3-11.7h-10.7L689.9,30.1"/>
			<path id="path3007" class="st0" d="M679.2,43.8h10.7l9.3-11.9h-10.7L679.2,43.8"/>
			<path id="path3009" class="st0" d="M683,18.2h10l6.9,11.9h-10L683,18.2"/>
			<path id="path3011" class="st0" d="M637.4,19.2l-0.8,7.5c-3.1-4.2-10.1-1.3-10.7,3.9c-0.7,6.7,6.1,8.3,9.8,4.3l-0.8,7.5
				c-1,0.5-2.1,0.9-3.3,1.2c-1,0.3-2.1,0.4-3.2,0.5c-1.2,0-2.4-0.1-3.6-0.4c-1.1-0.3-2.1-0.8-2.9-1.4c-1.6-1.2-2.9-2.8-3.7-4.7
				c-0.8-2-1-4.3-0.7-6.4c0.2-1.8,0.7-3.6,1.5-5.3c0.8-1.6,1.9-3.1,3.2-4.4c1.2-1.2,2.6-2.2,4.2-2.8c1.6-0.6,3.2-1,4.9-1
				c1,0,2.1,0.1,3.1,0.3C635.4,18.4,636.4,18.7,637.4,19.2"/>
		</g>
	</g>
</g>
<g>
	<g id="layer1_1_">
		<g id="g8537">
			<g id="g8539">
				<g id="g8541">
					<g id="g8543">
						<path id="path8553" class="st0" d="M401.7,40.4h1.3v-6.6h-1.3V40.4z"/>
						<path id="path8555" class="st0" d="M404.2,40.4h2.1v-9h-2.1V40.4z"/>
						<path id="path8557" class="st0" d="M400.6,25c1.6-1.3,3.7-1.8,5.7-1.4c1,0.2,2,0.6,2.8,1.3c0,0,0.2,0.2,0.3,0
							c0,0,0.2-0.1,0-0.3c-0.8-1-1.9-1.7-3.1-2.1c-1.9-0.6-3.9-0.5-5.7,0.4c-1.2,0.6-2.2,1.6-2.8,2.8c-0.8,0.3-1.7,0.6-2.5,1
							c0,0-0.3,0.1-0.2,0.4c0,0,0.1,0.2,0.4,0c0,0,1-0.3,1.9-0.6c-0.5,1.4-0.5,3,0,4.4c0.4,1.2,1.1,2.2,2,3.1
							c0.1,0.1,0.2,0.1,0.3,0.1c0.1-0.1,0.1-0.2,0-0.3c-0.5-0.9-0.9-1.8-1.1-2.9c-0.3-1.6,0-3.3,0.8-4.8c2.3-0.3,4.5,0,6.7,0.7
							c0,0,5.2,1.7,3.9,4.9c-0.4,0.9-1,1.6-1.8,2.1c0,0-0.2,0.1-0.1,0.3c0.1,0.1,0.2,0.1,0.4,0.1c1.3-0.5,2.4-1.3,3.2-2.5
							c0,0,1.9-3-2.6-5.4c-0.9-0.5-1.9-0.8-2.9-1C404.3,24.9,402.4,24.8,400.6,25"/>
					</g>
				</g>
			</g>
		</g>
	</g>
	<path id="path8549_1_" class="st0" d="M506.2,25.2c-2.8,0-5.8,1.5-5.8,5.2c0,5.7,6.7,3.8,6.7,6.5c0,1.1-0.9,1.3-1.9,1.3
		c-1.5,0-3.1-0.4-4.4-1.1v3.8c1.5,0.6,3.1,1,4.7,1c3.1,0,6.4-1.1,6.4-5.3c0-6-7-4.1-7-6.6c0-0.9,1.2-1.1,2.2-1.1
		c1.3,0.1,2.6,0.5,3.8,1.2v-3.9C509.3,25.6,507.7,25.2,506.2,25.2 M494,32c0-1.8-0.7-3.3-2.6-3.3c-1.7,0-2.5,1.5-2.6,3.3H494z
		 M498.2,35.1h-9.4c0.3,2.2,1.7,3,4,3c1.5,0,2.9-0.4,4.2-1.2v3.9c-1.6,0.7-3.3,1-5,1c-4.5,0-8-3.1-8-8.3s3.1-8.3,7.3-8.3
		c5.1,0,6.9,4.2,6.9,8.9L498.2,35.1L498.2,35.1z M447.8,25.2c-2,0-3.2,1.3-4,3.3l0,0v-2.9h-4.3v15.9h4.7v-6.7c0-3.1,1.2-5,3.4-5.1
		c0.5,0,1.1,0.1,1.6,0.3v-4.4C448.8,25.3,448.3,25.2,447.8,25.2 M459.4,34.3c-0.6,0-1.3-0.1-2-0.1c-1.6,0-2.9,0.6-2.9,2.1
		c0,1,0.8,1.8,1.8,1.8c0.1,0,0.1,0,0.2,0c1.2,0,2.4-0.6,2.9-1.7V34.3L459.4,34.3z M459.4,41.5v-2.1c-0.8,1.6-2.5,2.5-4.3,2.5
		c-2.8,0-5.1-1.6-5.1-5c0-4.9,4.6-5.4,7.1-5.4c0.7,0,1.5,0.1,2.2,0.2c0-2.2-1.4-2.8-3.1-2.8c-1.5,0-3.1,0.4-4.4,1.2v-3.8
		c1.7-0.8,3.5-1.1,5.4-1.1c3.5,0,6.5,1.7,6.5,6.6v5.9c0,1.3,0.1,2.5,0.3,3.8H459.4z M538.2,33.6c0,2.3-0.9,4.4-3.1,4.4
		s-3.1-2.1-3.1-4.4c0-2.3,0.9-4.5,3.1-4.5C537.2,29.1,538.2,31.2,538.2,33.6 M527.2,33.6c0,5.2,3.4,8.3,8,8.3c4.5,0,8-3,8-8.3
		s-3.5-8.3-8-8.3S527.1,28.3,527.2,33.6 M473.9,37.6c-1.8,0-2.9-1.7-2.9-4.3c0-2.1,1-3.9,2.9-3.9c1.8,0,2.9,1.7,2.9,4.1
		S475.5,37.6,473.9,37.6 M481.5,20.1h-4.8v7.5h-0.1c-1-1.6-2.8-2.5-4.7-2.4c-3.8,0-5.9,4.1-5.9,8c0,4.7,2.2,8.6,6.2,8.6
		c2,0.1,3.8-1,4.7-2.8h0.1v2.4h4.4L481.5,20.1L481.5,20.1z M426.3,24.2h1.8c1.6,0,3.2,0.2,3.2,2.1c0,1.8-1.7,2.3-3.3,2.3h-1.8
		L426.3,24.2z M426.3,32.5h1.9c1.7,0,3.6,0.2,3.6,2.5c0,2.2-1.8,2.5-3.7,2.5h-1.8L426.3,32.5L426.3,32.5z M421.4,41.5h8.1
		c3.3,0,7.1-1.1,7.1-6.2c0.2-2.3-1.4-4.3-3.7-4.7v-0.1c2.1-0.8,3.2-2.3,3.2-5c0-3.7-2.5-5.4-6-5.4h-8.9L421.4,41.5L421.4,41.5z
		 M524.9,37.4c0.4,1.2,1,2.3,1.7,3.3c-0.2,0.1-0.8,0.4-1.2,0.5c-1.2,0.5-2.5,0.7-3.9,0.7c-4.5,0-8-3-8-8.3s3.4-8.3,8-8.3
		c1.2,0,2.3,0.2,3.4,0.7l0,0c0.5,0.2,1,0.5,1.4,0.8c-0.8,1-1.3,2.2-1.7,3.4c-0.8-0.5-1.7-0.8-2.7-0.8c-2,0-3.5,1.5-3.5,4.2
		c-0.1,2.1,1.5,4,3.6,4.1c0.1,0,0.1,0,0.2,0c0.8,0,1.6-0.2,2.2-0.5c0.1,0,0.2-0.1,0.2-0.1C524.8,37.1,524.8,37.2,524.9,37.4"/>
	<g id="path8551">
		<path class="st0" d="M417.4,44.2H391V17.8h26.4L417.4,44.2z M391.3,43.9h25.8V18.1h-25.8V43.9z"/>
	</g>
</g>
<g>
	<path class="st0" d="M284.1,17.8c-10.6,0-19.3,5-19.3,11.3c0,2.7,1.6,5.1,4.2,7c-1.3-1.5-2-3.4-2-5.3c0-6.5,8.4-11.7,18.8-11.7
		c6.7,0,12.6,2.2,15.9,5.5C298.8,20.6,292,17.8,284.1,17.8L284.1,17.8z"/>
	<path class="st0" d="M275.5,27.7c1.2-1,2.9-1,4.1,0c0.6,0.5,0.9,1.1,0.9,1.8h-6.1C274.6,28.8,275,28.2,275.5,27.7L275.5,27.7z
		 M282.4,32.3c0.7,0,1.3-0.1,1.9-0.5c0.5-0.3,0.8-1,0.8-1.6c0-1.3-0.4-2.6-1.3-3.6c-0.8-1.1-2-2-3.3-2.5c-1-0.4-2-0.6-3.1-0.6
		c-2.1-0.1-4.1,0.7-5.6,2.2c-1.4,1.4-2.2,3.3-2.2,5.3c0,2,0.8,3.9,2.3,5.3c1.6,1.5,3.7,2.2,5.8,2.2c1.2,0,2.4-0.2,3.5-0.5
		c1.1-0.3,2.1-0.9,2.9-1.8c0.3-0.3,0.5-0.8,0.5-1.2c0-1.1-0.6-1.6-1.8-1.6c-0.7,0.1-1.4,0.4-2.1,0.7c-0.9,0.4-1.9,0.7-2.8,0.7
		c-0.8,0-1.7-0.2-2.4-0.7c-0.6-0.4-1-1.1-1.1-1.8H282.4z"/>
	<path class="st0" d="M287.7,36.4c1.5,1.5,3.5,2.3,5.6,2.2c1.2,0,2.4-0.2,3.5-0.6c1.3-0.6,2-1.3,2-2.2c0-0.5-0.2-0.9-0.5-1.3
		c-0.3-0.4-0.8-0.6-1.3-0.5c-0.5,0-0.9,0.1-1.4,0.3c-0.6,0.2-1.2,0.3-1.8,0.3c-1,0.1-1.9-0.3-2.6-1c-0.6-0.7-0.9-1.6-0.8-2.5
		c0-0.9,0.2-1.8,0.8-2.5c0.6-0.7,1.5-1.1,2.4-1.1c0.6,0,1.2,0.1,1.8,0.3c0.4,0.2,0.9,0.3,1.4,0.3c0.5,0,1-0.2,1.4-0.5
		c0.4-0.3,0.6-0.8,0.6-1.3c0-1-0.6-1.7-1.9-2.2c-1.1-0.4-2.2-0.5-3.3-0.5c-2.1-0.1-4.2,0.7-5.8,2.1
		C284.9,28.7,284.9,33.3,287.7,36.4L287.7,36.4z"/>
	<path class="st0" d="M304.5,28.6c0.5-0.7,1.4-1.2,2.3-1.1c0.9,0,1.8,0.4,2.3,1.1c0.5,0.7,0.8,1.5,0.7,2.4c0,0.9-0.2,1.7-0.7,2.4
		c-1,1.3-2.9,1.5-4.1,0.5c-0.2-0.2-0.4-0.3-0.5-0.5c-0.5-0.7-0.8-1.6-0.7-2.4C303.7,30.2,304,29.3,304.5,28.6z M301.1,36.4
		c3.2,2.9,8.2,2.9,11.4,0c2.8-3,2.8-7.7,0-10.7c-3.2-2.9-8.1-2.9-11.3,0c-1.5,1.4-2.3,3.4-2.2,5.4C298.9,33.1,299.7,35,301.1,36.4
		L301.1,36.4z"/>
	<path class="st0" d="M321.1,35.3v-3.2h3.2c1.9,0.1,3.8-0.5,5.3-1.6c1.3-1.2,2.1-3,2-4.8c0.1-1.9-0.7-3.7-2.2-4.8
		c-1.6-1.2-3.5-1.7-5.5-1.6h-4.3c-0.9-0.1-1.8,0.1-2.6,0.7c-0.5,0.6-0.8,1.5-0.7,2.3v13.1c0,2,0.8,3.1,2.4,3.1
		C320.3,38.4,321.1,37.4,321.1,35.3L321.1,35.3z M321.1,23.2h2.1c2.2,0,3.3,0.8,3.3,2.5c0,1.7-1.1,2.5-3.3,2.5h-2.1V23.2z"/>
	<path class="st0" d="M345,38.4c1.5,0,2.3-1,2.3-3.1v-8.5c0-2-0.8-3.1-2.3-3.1c-0.9,0-1.8,0.5-2.2,1.3c-1-1-2.3-1.6-3.7-1.5
		c-2-0.1-3.9,0.8-5.2,2.3c-2.6,2.9-2.6,7.3-0.1,10.2c1.3,1.5,3.2,2.4,5.2,2.3c1.5,0.1,2.9-0.5,3.9-1.6C343.1,37.8,344,38.4,345,38.4
		L345,38.4z M337.4,28.7c0.5-0.7,1.4-1.1,2.3-1.1c0.9,0,1.7,0.4,2.2,1.1c0.5,0.7,0.7,1.5,0.7,2.3c0,0.8-0.2,1.7-0.7,2.3
		c-0.5,0.7-1.4,1.1-2.2,1.1c-0.9,0-1.8-0.4-2.3-1.1c-0.5-0.7-0.7-1.5-0.7-2.3C336.6,30.2,336.9,29.4,337.4,28.7z"/>
	<path class="st0" d="M358,25.5l-2.8,6.7l-2.6-6.3c-0.2-0.5-0.4-1-0.8-1.4c-0.4-0.4-1-0.6-1.6-0.6c-0.6,0-1.2,0.2-1.6,0.6
		c-0.4,0.4-0.6,0.9-0.6,1.5c0,0.4,0.1,0.8,0.3,1.2l4.7,9.9l-1.9,3.8c-0.2,0.4-0.4,0.9-0.4,1.4c0,0.6,0.2,1.1,0.6,1.5
		c0.5,0.4,1.1,0.6,1.7,0.5c0.8,0,1.5-0.6,2-1.7l7.1-15.2c0.2-0.5,0.4-1,0.4-1.5c0-1.3-0.8-2-2.3-2C359.1,23.8,358.5,24.4,358,25.5
		L358,25.5z"/>
	<path class="st0" d="M373.7,34.3h-4.6l6.2-7.2c0.5-0.5,0.8-1.1,0.9-1.8c0-0.5-0.3-0.9-0.7-1.1c-0.7-0.2-1.5-0.2-2.2-0.2h-7.4
		c-2,0-3,0.6-3,1.9s1,1.9,2.9,1.9h4l-6.4,7.5c-0.4,0.4-0.7,1-0.7,1.6c0,0.9,0.8,1.3,2.4,1.3h8.5c1.9,0,2.9-0.6,2.9-1.9
		S375.7,34.3,373.7,34.3L373.7,34.3z"/>
</g>
<g>
	<polygon class="st0" points="583.5,40.5 583.4,40.5 583.3,40.5 583.2,40.5 583.2,40.5 583.1,40.5 583,40.5 582.9,40.5 582.7,40.5 
		582.6,40.6 582.5,40.6 582.4,40.6 582.2,40.6 582.1,40.6 582,40.6 581.9,40.6 581.7,40.7 581.6,40.7 581.5,40.7 581.4,40.7 
		581.3,40.8 581.2,40.8 581.1,40.8 581,40.9 580.9,40.9 580.8,41 580.7,41 580.6,41.1 580.5,41.1 580.5,41.1 580.4,41.2 580.3,41.3 
		580.3,41.3 580.2,41.4 580.1,41.4 580.1,41.5 580,41.6 580,41.6 579.9,41.7 579.9,41.8 579.9,41.9 579.9,42 579.8,42 579.8,42.1 
		579.8,42.2 579.8,42.3 579.8,42.4 579.8,42.5 579.8,42.6 579.8,42.7 579.8,42.7 579.8,42.8 579.9,42.9 579.9,43 579.9,43 
		579.9,43.1 580,43.2 580,43.2 580,43.3 580.1,43.3 580.1,43.4 580.2,43.4 580.2,43.5 580.3,43.5 580.3,43.6 580.4,43.6 580.5,43.6 
		580.5,43.7 580.6,43.7 580.7,43.7 580.7,43.7 580.8,43.8 580.9,43.8 581,43.8 581,43.8 581.1,43.8 581.2,43.8 581.3,43.8 
		581.4,43.8 581.5,43.8 581.6,43.8 581.7,43.8 581.8,43.8 581.9,43.8 582,43.8 582,43.7 582.1,43.7 582.2,43.7 582.3,43.7 
		582.4,43.6 582.5,43.6 582.5,43.5 582.6,43.5 582.7,43.5 582.8,43.4 582.8,43.4 582.9,43.3 583,43.2 583,43.2 583.1,43.1 
		583.1,43.1 583.2,43 583.2,43 583.3,42.9 583.3,42.8 583.4,42.8 583.4,42.7 583.5,42.6 583.5,42.6 583.5,42.5 583.6,42.4 
		583.6,42.4 583.6,42.4 583.6,42.4 583.6,42.3 583.6,42.3 583.6,42.3 583.6,42.2 583.6,42.1 583.6,42.1 583.7,42 583.7,41.9 
		583.7,41.8 583.7,41.8 583.7,41.7 583.7,41.7 583.7,40.5 583.6,40.5 	"/>
	<path class="st0" d="M603.3,15.8v-0.4l-0.1-0.4l-0.1-0.4l-0.1-0.4L603,14l-0.1-0.3l-0.1-0.3l-0.1-0.3l-0.2-0.3l-0.2-0.3l-0.2-0.3
		l-0.2-0.3l-0.2-0.3l-0.2-0.3l-0.2-0.3l-0.3-0.2l-0.3-0.2l-0.3-0.2l-0.3-0.2l-0.3-0.2l-0.3-0.2l-0.3-0.2l-0.3-0.1l-0.3-0.1l-0.3-0.1
		L597.8,9l-0.4-0.1l-0.4-0.1l-0.4,0h-0.4h-30.1h-0.4l-0.4,0l-0.4,0.1L564.8,9l-0.3,0.1l-0.3,0.1l-0.3,0.1l-0.3,0.1l-0.3,0.2
		l-0.3,0.2l-0.3,0.2l-0.3,0.2l-0.3,0.2l-0.3,0.2l-0.3,0.2l-0.2,0.3l-0.2,0.3l-0.2,0.3l-0.2,0.3l-0.2,0.3l-0.2,0.3l-0.2,0.3l-0.1,0.3
		l-0.1,0.3l-0.1,0.3l-0.1,0.4l-0.1,0.4l-0.1,0.4l0,0.4l0,0.4v0.4v29.6v0.4l0,0.4l0,0.4l0.1,0.4l0.1,0.4l0.1,0.4l0.1,0.3l0.1,0.3
		l0.1,0.3l0.2,0.3l0.2,0.3l0.2,0.3l0.2,0.3l0.2,0.3l0.2,0.3l0.2,0.3l0.3,0.2l0.3,0.2l0.3,0.2l0.3,0.2l0.3,0.2l0.3,0.2l0.3,0.2
		l0.3,0.2l0.3,0.1l0.3,0.1l0.3,0.1l0.4,0.1l0.4,0.1l0.4,0l0.4,0h30.1l0.4,0l0.4,0l0.4-0.1l0.4-0.1l0.4-0.1l0.3-0.1l0.3-0.1l0.3-0.2
		l0.3-0.2l0.3-0.2l0.3-0.2l0.3-0.2l0.3-0.2l0.3-0.2l0.3-0.2l0.2-0.3l0.2-0.3l0.2-0.3l0.2-0.3l0.2-0.3l0.2-0.3l0.2-0.3l0.1-0.3
		l0.1-0.3L603,48l0.1-0.4l0.1-0.4l0.1-0.4l0.1-0.4v-0.4v-0.4V16.2L603.3,15.8z M566.4,45.8H563V31h3.4V45.8z M595,31h3.2l-2.9,3
		h-2.4L595,31z M575.1,45.7l-0.2,0.1l-0.2,0.1h-0.1h-0.1h-0.1h-0.1h-0.1h-0.1H574h-0.1h-0.1h-0.9h-0.1h-0.1h-0.1h-0.1h-0.1h-0.1
		h-0.1H572l-0.1,0h-0.1h-0.1l-0.1,0l-0.1,0l-0.1,0l-0.1,0l-0.1,0l-0.1,0l-0.1,0l-0.1,0l-0.1,0l-0.1-0.1l-0.1-0.1l-0.1-0.1l-0.1-0.1
		l-0.1-0.1l-0.1-0.1l-0.1-0.1l-0.1-0.1l-0.1-0.1l-0.1-0.1l-0.1-0.1l-0.1-0.1l-0.1-0.1l-0.1-0.1l-0.1-0.1l0-0.1l0-0.1l0-0.1l0-0.1
		l0-0.1l0-0.1l0-0.1l0-0.1l0-0.1v-0.1v-0.1v-0.1v-0.1v-0.1V43v-0.1v-0.1v-0.1v-0.1v-0.1v-0.1v-5.1h-1.6v-2.5h1.6V31h3.3v3.7h2.1v2.5
		h-2.1v4.5v0.1V42v0.1v0.1v0.1v0.1v0.1l0,0.1l0,0.1l0,0.1l0,0.1l0,0.1l0,0.1l0.1,0.1l0.1,0.1l0.1,0l0.1,0.1l0.1,0l0.1,0l0.1,0h0.1
		h0.1h0.1h0.1h0.1h0.3h0.1h0.1h0.1h0.1h0.1h0.1h0L575.1,45.7z M586.8,45.8H584l-0.4-1.1h0l-0.1,0.1l-0.1,0.1l-0.1,0.1l-0.1,0.1
		l-0.1,0.1l-0.1,0.1l-0.1,0.1l-0.1,0.1l-0.1,0.1l-0.1,0.1l-0.1,0.1l-0.1,0.1l-0.1,0.1l-0.1,0.1l-0.1,0.1l-0.1,0l-0.1,0.1l-0.1,0
		l-0.1,0l-0.1,0h-0.1l-0.1,0h-0.1l-0.1,0h-0.1H581h-0.1h-0.1h-0.1H580h-0.2h-0.2h-0.2l-0.2,0l-0.2-0.1l-0.2-0.1l-0.2-0.1l-0.2-0.1
		l-0.2-0.1l-0.2-0.1l-0.2-0.1l-0.1-0.1l-0.1-0.1l-0.1-0.1l-0.1-0.1l-0.1-0.1l-0.1-0.1l-0.1-0.1l-0.1-0.1l-0.1-0.1l-0.1-0.1l-0.1-0.1
		l-0.1-0.1l-0.1-0.2l-0.1-0.2l0-0.2l0-0.2v-0.2v-0.2v-0.2v-0.4v-0.3l0-0.2l0.1-0.2l0.1-0.2l0.1-0.2l0.1-0.2l0.1-0.2l0.1-0.2l0.1-0.2
		l0.2-0.2l0.2-0.2l0.2-0.2l0.2-0.2l0.2-0.1l0.2-0.1l0.2-0.1l0.3-0.1l0.3-0.1l0.3-0.1l0.3-0.1l0.3-0.1l0.3-0.1l0.3-0.1l0.3-0.1
		l0.4-0.1l0.4,0l0.4,0h0.4h0.4h0.4h0.4V38V38v-0.1v-0.1v-0.1l0-0.1l0-0.1l0-0.1l0-0.1l0-0.1l-0.1-0.1l-0.1-0.1l-0.1-0.1l-0.1-0.1
		l-0.1-0.1l-0.1-0.1l-0.1-0.1l-0.1-0.1l-0.1-0.1l-0.1,0l-0.2,0l-0.1,0h-0.1l-0.1,0h-0.2h-0.2h-0.2h-0.7h-0.1h-0.1h-0.1h-0.1h-0.1
		h-0.1H580h-0.1h-0.1h-0.1h-0.1h-0.1l-0.1,0h-0.1l-0.1,0l-0.1,0l-0.1,0h-0.1l-0.1,0l-0.1,0l-0.1,0l-0.1,0l-0.1,0l-0.1,0l-0.1,0
		l-0.1,0l-0.1,0.2l-0.1,0l-0.1,0l-0.6-2.2l0.1,0l0.1-0.1l0.1-0.1l0.1,0l0.1-0.1l0.1,0l0.1-0.1L578,35l0.1,0l0.1,0l0.1,0l0.1,0l0.1,0
		l0.1,0l0.1,0l0.1,0l0.1,0l0.2,0l0.2,0h0.2h0.2h0.2h0.2h0.2h0.2h0.2h0.2h0.2h0.2h0.9h0.3l0.3,0l0.3,0l0.3,0.1l0.3,0.1l0.3,0.1
		l0.2,0.1l0.2,0.1l0.2,0.1l0.2,0.1l0.2,0.1l0.2,0.1l0.2,0.1l0.2,0.2l0.2,0.2l0.1,0.2l0.1,0.2l0.1,0.2l0.1,0.2l0.1,0.2l0.1,0.2
		l0.1,0.2l0.1,0.2l0.1,0.2l0.1,0.2l0,0.2l0,0.2v0.2v0.2v0.2V46L586.8,45.8z M599.6,45.8h-2.7l-0.4-1.6l0,0.1l0,0.1l-0.1,0.1
		l-0.1,0.1l-0.1,0.1l-0.1,0.1l-0.1,0.1l-0.1,0.1l-0.1,0.1l-0.1,0.1l-0.1,0.1l-0.1,0.1l-0.1,0.1l-0.1,0.1l-0.1,0.1l-0.1,0.1l-0.1,0.1
		l-0.1,0.1l-0.1,0.1l-0.1,0.1l-0.1,0.1l-0.1,0.1l-0.1,0.1l-0.2,0.1h-0.1h-0.1H594h-0.1h-0.1h-0.1h-0.1h-0.1h-0.1h-0.1h-0.1h-0.9
		h-0.1h-0.1h-0.1H592h-0.1h-0.1h-0.1h-0.1h-0.1h-0.1l-0.1,0l-0.1,0l-0.1,0l-0.1,0l-0.1,0l-0.1,0l-0.1-0.1l-0.1,0l-0.1-0.1l-0.1-0.1
		l-0.1-0.1l-0.1-0.1l-0.1-0.1l-0.1-0.1l-0.1-0.1l-0.1-0.1L590,45l-0.1-0.1l-0.1-0.1l-0.1-0.1l-0.1-0.1l-0.1-0.1l-0.1-0.1l-0.1-0.1
		l-0.1-0.1l-0.1-0.1l-0.1-0.1l-0.1-0.1l0-0.1l-0.1-0.1l0-0.1l0-0.1l0-0.1l0-0.1l0-0.1v-0.1l0-0.1l0-0.1l0-0.1v-0.1v-0.1v-0.1v-0.1
		v-0.1V42v-0.2v-7.1h3.3v6.2V41v0.1v0.1v0.1v0.1v0.1v0.1l0,0.1l0,0.1l0,0.1l0,0.1l0.1,0.1l0.1,0.1l0.1,0.1l0.1,0.1l0.1,0.1l0.1,0.1
		l0.1,0.1l0.1,0.1L593,43l0.1,0.1l0.1,0l0.1,0.1l0.1,0h0.1h0.1h0.1h0.1h0.4h0.1h0.1h0.1h0.1h0.1h0.1l0.1,0h0.1l0.1,0l0.1,0l0.1,0
		l0.1,0l0.1,0l0.1-0.1l0.1-0.1l0.1-0.1l0.1-0.1l0.1-0.1l0.1-0.1l0.1-0.1l0.1-0.1l0-0.1l0.1-0.1l0-0.1l0-0.1l0-0.1l0-0.1l0-0.1l0-0.1
		l0-0.1v-0.1v-0.1v-0.1v-0.1v-0.1v-0.1v-6.8h3.4L599.6,45.8z"/>
</g>
<g>
	<rect x="759.4" y="12.8" class="st0" width="3.9" height="16.1"/>
	<rect x="764.5" y="12.8" class="st0" width="1.2" height="16.1"/>
	<rect x="766.8" y="12.8" class="st0" width="2.2" height="16.1"/>
	<rect x="771" y="12.8" class="st0" width="1.2" height="16.1"/>
	<rect x="772.8" y="12.8" class="st0" width="0.9" height="16.1"/>
	<rect x="756.4" y="12.8" class="st0" width="1.2" height="36.5"/>
	<rect x="753.8" y="12.8" class="st0" width="2.2" height="36.5"/>
	<rect x="780.1" y="12.8" class="st0" width="3.9" height="16.1"/>
	<rect x="785.3" y="12.8" class="st0" width="1.2" height="16.1"/>
	<rect x="787.5" y="12.8" class="st0" width="2.2" height="16.1"/>
	<rect x="791.8" y="12.8" class="st0" width="1.2" height="16.1"/>
	<rect x="793.5" y="12.8" class="st0" width="0.9" height="16.1"/>
	<rect x="777.2" y="12.8" class="st0" width="1.2" height="16.1"/>
	<rect x="774.5" y="12.8" class="st0" width="2.2" height="16.1"/>
	<rect x="796" y="12.8" class="st0" width="2.2" height="16.1"/>
	<rect x="800.2" y="12.8" class="st0" width="1.2" height="16.1"/>
	<rect x="801.9" y="12.8" class="st0" width="0.9" height="16.1"/>
	<rect x="806.4" y="12.8" class="st0" width="1.2" height="16.1"/>
	<rect x="803.7" y="12.8" class="st0" width="2.2" height="16.1"/>
	<rect x="809.2" y="12.8" class="st0" width="1.2" height="16.1"/>
	<rect x="810.9" y="12.8" class="st0" width="0.9" height="16.1"/>
	<rect x="815.3" y="12.8" class="st0" width="1.2" height="16.1"/>
	<rect x="812.7" y="12.8" class="st0" width="2.2" height="16.1"/>
	<rect x="817.6" y="12.8" class="st0" width="3.9" height="16.1"/>
	<rect x="822.7" y="12.8" class="st0" width="1.2" height="16.1"/>
	<rect x="825" y="12.8" class="st0" width="2.2" height="16.1"/>
	<rect x="829.2" y="12.8" class="st0" width="1.2" height="16.1"/>
	<rect x="830.9" y="12.8" class="st0" width="0.9" height="16.1"/>
	<rect x="833.4" y="12.8" class="st0" width="2.2" height="36.5"/>
	<path class="st0" d="M759.6,48.5V30h6.9c1.2,0,2.3,0.1,3.4,0.6c0.8,0.4,1.5,1,2,1.7c0.5,0.7,0.7,1.6,0.7,2.4c0,0.8-0.2,1.6-0.6,2.2
		c-0.5,0.7-1.1,1.3-1.9,1.7c1,0.3,1.9,0.9,2.6,1.7c0.6,0.8,0.9,1.8,0.9,2.8c0,0.8-0.2,1.7-0.6,2.4c-0.3,0.7-0.8,1.3-1.4,1.7
		c-0.6,0.4-1.3,0.7-2,0.9c-1,0.2-2,0.3-3,0.3H759.6z M762,37.8h4c0.8,0,1.6,0,2.3-0.2c0.6-0.1,1.1-0.5,1.4-0.9
		c0.3-0.5,0.5-1,0.5-1.6c0-0.6-0.1-1.1-0.4-1.6c-0.3-0.5-0.7-0.8-1.3-1c-0.9-0.2-1.9-0.3-2.8-0.3H762L762,37.8L762,37.8z M762,46.3
		h4.6c0.6,0,1.1,0,1.7-0.1c0.5-0.1,1-0.2,1.4-0.5c0.4-0.3,0.7-0.6,0.9-1c0.3-0.5,0.4-1,0.4-1.6c0-0.7-0.2-1.3-0.5-1.8
		c-0.4-0.5-0.9-0.9-1.5-1.1c-0.9-0.2-1.8-0.4-2.8-0.3h-4.3L762,46.3L762,46.3z"/>
	<path class="st0" d="M775.8,41.8c0-2.5,0.7-4.3,2.1-5.5c1.2-1,2.7-1.5,4.2-1.5c1.7-0.1,3.3,0.6,4.5,1.8c1.2,1.4,1.9,3.2,1.8,5
		c0.1,1.4-0.2,2.8-0.8,4.1c-0.5,1-1.3,1.8-2.3,2.3c-1,0.5-2.1,0.8-3.2,0.8c-1.7,0.1-3.4-0.6-4.6-1.8
		C776.2,45.5,775.6,43.7,775.8,41.8L775.8,41.8z M778.1,41.8c-0.1,1.4,0.3,2.7,1.1,3.8c0.7,0.8,1.8,1.3,2.8,1.3
		c1.1,0,2.1-0.5,2.8-1.3c0.8-1.1,1.2-2.5,1.1-3.9c0.1-1.3-0.3-2.7-1.1-3.8c-0.7-0.8-1.7-1.3-2.8-1.3c-1.1,0-2.1,0.4-2.8,1.3
		C778.4,39.1,778,40.4,778.1,41.8L778.1,41.8z"/>
	<polygon class="st0" points="791,48.5 791,30 793.2,30 793.2,48.5 791,48.5 	"/>
	<path class="st0" d="M805.9,44.2l2.3,0.3c-0.3,1.3-1,2.4-2.1,3.2c-2.6,1.7-6.1,1.5-8.5-0.7c-1.2-1.4-1.8-3.2-1.7-5.1
		c-0.1-1.9,0.5-3.8,1.7-5.2c1.2-1.2,2.8-1.9,4.5-1.8c1.7,0,3.3,0.6,4.4,1.8c1.2,1.4,1.8,3.3,1.7,5.1c0,0.1,0,0.3,0,0.6h-10
		c0,1.2,0.4,2.4,1.2,3.4c0.7,0.8,1.7,1.2,2.8,1.2c0.8,0,1.5-0.2,2.1-0.7C805.1,45.8,805.6,45.1,805.9,44.2L805.9,44.2z M798.5,40.5
		h7.5c0-0.9-0.3-1.8-0.9-2.5c-0.7-0.9-1.7-1.3-2.8-1.3c-1,0-1.9,0.4-2.6,1C798.9,38.5,798.5,39.5,798.5,40.5L798.5,40.5z"/>
	<path class="st0" d="M816,46.5l0.3,2c-0.6,0.1-1.1,0.2-1.7,0.2c-0.7,0-1.3-0.1-1.9-0.4c-0.4-0.2-0.7-0.6-0.9-1
		c-0.2-0.9-0.3-1.8-0.3-2.7v-7.7h-1.7v-1.8h1.7v-3.3l2.3-1.4v4.7h2.3v1.8h-2.3v7.9c0,0.4,0,0.8,0.1,1.2c0.1,0.2,0.2,0.3,0.4,0.4
		c0.2,0.1,0.5,0.2,0.8,0.2C815.4,46.6,815.7,46.5,816,46.5L816,46.5z"/>
	<path class="st0" d="M817.4,41.8c0-2.4,0.7-4.3,2.1-5.5c1.2-1,2.7-1.5,4.2-1.5c1.7-0.1,3.3,0.6,4.5,1.8c1.2,1.4,1.9,3.2,1.8,5
		c0.1,1.4-0.2,2.8-0.8,4.1c-0.5,1-1.3,1.8-2.3,2.3c-1,0.5-2.1,0.8-3.2,0.8c-1.7,0.1-3.4-0.6-4.6-1.8
		C817.9,45.5,817.3,43.7,817.4,41.8L817.4,41.8z M819.8,41.8c-0.1,1.4,0.3,2.7,1.1,3.8c1.4,1.6,3.8,1.7,5.3,0.3
		c0.1-0.1,0.2-0.2,0.3-0.3c0.8-1.1,1.2-2.5,1.1-3.9c0.1-1.3-0.3-2.7-1.1-3.8c-1.4-1.6-3.8-1.7-5.3-0.3c-0.1,0.1-0.2,0.2-0.3,0.3
		C820,39.1,819.7,40.5,819.8,41.8L819.8,41.8z"/>
</g>
<g>
	<path class="st0" d="M17.1,53.1c0-1.6-0.1-3-0.1-4.6c0-5.5,0-11,0-16.5c0-1,0.3-1.3,1.3-1.3c9.7,0.1,19.4,0,29.2,0
		c0.6,0,1.3-0.1,1.3,0.9c-0.1,7,0,13.9,0,20.9c0,0.2-0.1,0.3-0.1,0.5C38.1,53.1,27.6,53.1,17.1,53.1z M33.2,37
		c-1.9,0-3.2,0.9-3.5,2.3c-0.3,1.3,0.5,2.4,2.2,3.1c0.6,0.3,1.2,0.6,1.8,0.8c0.5,0.2,0.8,0.6,0.6,1.1c-0.1,0.6-0.6,0.7-1.1,0.8
		c-0.9,0.1-1.7-0.2-2.4-0.6s-0.8,0.3-1.2,0.6c-0.5,0.5-0.1,0.6,0.3,0.9c1.6,0.8,3.2,1.2,4.9,0.4c1-0.5,1.6-1.2,1.6-2.4
		c0.1-1.2-0.6-1.9-1.6-2.4c-0.8-0.4-1.7-0.6-2.4-1.1c-0.5-0.2-0.9-0.5-0.7-1.1c0.1-0.6,0.6-0.7,1.1-0.8c0.6-0.1,1.2,0.1,1.7,0.4
		c0.6,0.5,0.9,0,1.2-0.5c0.5-0.6-0.1-0.8-0.5-1C34.6,37.1,33.9,37,33.2,37z M25.5,46.8c0.4-0.1,0.8-0.1,1.2-0.2
		c1.5-0.4,2.2-1.2,2.4-2.4c0.1-1.5-0.4-2.1-1.9-2.8c-0.6-0.3-1.3-0.6-2-0.8c-0.5-0.2-0.9-0.5-0.8-1.1c0.1-0.6,0.6-0.8,1.2-0.8
		c0.6-0.1,1.2,0.2,1.8,0.5c0.6,0.4,0.9-0.2,1.2-0.6c0.4-0.6-0.1-0.6-0.5-0.9c-1.2-0.6-2.4-0.8-3.7-0.5c-1.2,0.3-2,1.3-2.1,2.4
		s0.6,2,1.7,2.6c0.7,0.3,1.5,0.6,2.2,0.9c0.5,0.2,0.9,0.6,0.8,1.2s-0.6,0.7-1.2,0.8c-0.8,0.1-1.6-0.2-2.2-0.6
		c-0.9-0.6-1.1,0.3-1.4,0.6c-0.5,0.6,0.2,0.6,0.6,0.9C23.7,46.6,24.6,46.8,25.5,46.8z M37.5,42c0,1.3,0,2.6,0,3.8
		c0,0.6,0.3,0.8,0.8,0.8c1.6,0,3.1,0,4.7,0c0.6,0,0.7-0.2,0.6-0.8c-0.1-0.5-0.1-0.8-0.6-0.8c-0.7,0.1-1.5-0.1-2.3,0
		c-0.9,0.1-1.3-0.3-1.3-1.3c0.1-1.9,0-3.8,0.1-5.7c0-0.8-0.4-0.9-1-0.9c-0.6,0-1.1,0.2-1,0.9C37.5,39.4,37.5,40.7,37.5,42z"/>
	<path class="st0" d="M34.2,9.1c2.4,0.5,4.7,1.3,6.5,3c2.6,2.3,3.9,5.2,4,8.6c0.1,2,0,3.9,0.1,6c0,0.7-0.3,1.1-1.1,1
		c-1.2-0.1-2.3-0.1-3.4,0c-0.9,0.1-1.1-0.3-1.1-1.2c0-2.2,0.2-4.4-0.1-6.7c-0.6-3.3-3.3-5.5-6.7-5.3c-3.1,0.2-5.9,2.8-5.9,6
		c-0.1,2,0,3.9,0.1,6c0.1,0.8-0.3,1.3-1.2,1.2c-1.2-0.1-2.3-0.1-3.4,0c-0.6,0-0.9-0.2-0.9-0.9c0.1-2.4-0.1-4.8,0.1-7.2
		c0.3-4.9,4.5-9.4,9.6-10.4C31.1,9,31.4,9,31.6,8.9C32.3,9.1,33.2,9.1,34.2,9.1z"/>
</g>
<g>
	<path class="st0" d="M981.3,25.7c0.5-0.3,1-0.6,1.5-0.9c2.5-1.2,5.2-0.7,6.8,1.4c0.5,0.7,0.8,1.5,0.9,2.2c0.5,3.8-1,7.7-4.4,9.5
		c-2,1.1-4.2,1.4-6.3,0.1c-0.5-0.3-0.7-0.2-0.7,0.4c-0.2,1.6-0.5,3.1-0.8,4.7c-0.1,0.6-0.4,1-1.1,1c-0.8,0-1.6,0-2.5,0
		c-0.6,0-0.9-0.2-0.9-0.9c0.1-1.3,0.3-2.6,0.6-3.9c0.7-4.4,1.5-8.8,2.2-13.2c0.1-0.3,0.2-0.7,0.2-1c0.1-0.5,0.5-0.8,1-0.8
		c0.9,0,1.8,0,2.7,0C981.5,24.3,981.3,25.1,981.3,25.7z M986.5,30.7c0-1.7-0.8-2.5-2.5-2.5c-2.1,0-4.1,2.4-3.8,4.4
		c0.2,1.6,1.4,2.5,3,2.2C985.2,34.4,986.5,32.8,986.5,30.7z"/>
	<path class="st0" d="M991.6,32.9c0.2-3.7,1.8-6.5,5.3-8c1.6-0.7,3.3-0.8,5-0.3c0.1,0,0.1,0.1,0.2,0.1c0.6,0.2,0.9,0.9,1.4,1
		c0.6,0.1,0.6-0.9,1.1-1.2c0.6-0.3,1.1-0.2,1.7-0.2c2,0,2,0.1,1.7,2c-0.6,3.8-1.3,7.5-1.9,11.3c0,0.3-0.1,0.6-0.3,0.8
		c-0.8,1-3.3,0.8-4-0.2c-0.2-0.4-0.4-0.3-0.8-0.1c-1.3,0.7-2.7,1-4.3,0.9C993.9,38.7,991.5,36,991.6,32.9z M995.8,32.4
		c0,1.7,1.3,2.8,3,2.4c1.7-0.3,3.2-2.2,3.3-3.9c0-1.8-1.4-3-3.1-2.6C997.1,28.7,995.8,30.5,995.8,32.4z"/>
	<path class="st0" d="M1067.9,38.9c-0.4,0-0.8,0-1.2,0c-0.2,0-0.6,0-0.7-0.2c-0.4-0.9-0.9-0.4-1.4-0.2c-3,1.1-6-0.1-7.1-2.9
		c-0.4-1,0.1-1.9,0.2-2.9c0.3-2.4,0.8-4.8,1.2-7.3c0.1-0.7,0.5-1.2,1.3-1.1c0.7,0,1.5,0,2.2,0c0.8,0,1.2,0.5,1,1.3
		c-0.4,2.2-0.7,4.4-1.1,6.5c-0.2,1.2,0,1.8,0.7,2.2c1,0.5,2.2,0.2,3-0.6c0.7-0.8,0.8-1.7,0.9-2.6c0.4-1.9,0.7-3.9,1-5.9
		c0.1-0.6,0.4-0.9,1.1-1c0.9,0,1.7,0,2.6,0c0.7,0,0.9,0.3,0.8,1c-0.6,3.7-1.3,7.4-1.9,11.1c-0.1,0.3-0.1,0.7-0.1,1
		c-0.2,1.1-0.5,1.4-1.6,1.4C1068.5,38.9,1068.2,38.9,1067.9,38.9C1067.9,38.9,1067.9,38.9,1067.9,38.9z"/>
	<path class="st0" d="M1083.3,38.9c-2.3,0-2.4-0.1-2-2.5c0.3-1.9,0.6-3.7,0.9-5.6c0.1-0.7,0.1-1.4-0.6-1.8c-0.7-0.5-1.5-0.5-2.3-0.1
		c-0.9,0.4-1.4,1.1-1.6,2c-0.4,2.2-0.8,4.4-1.1,6.6c-0.2,1.1-0.5,1.4-1.6,1.4c-0.7,0-1.4,0-2.1,0c-0.8,0-1-0.3-0.9-1.1
		c0.5-2.9,1-5.7,1.4-8.6c0.2-1.3,0.5-2.5,0.7-3.8c0.1-0.8,0.5-1.1,1.3-1.1c0.7,0,1.4,0,2.1,0c0.5,0,1,0,1.2,0.7
		c0.1,0.5,0.4,0.1,0.6,0c2.3-1.2,4.9-0.8,6.7,1c1.1,1,1.1,2.3,0.9,3.6c-0.4,2.7-0.8,5.3-1.3,8c-0.2,1.2-0.4,1.3-1.6,1.3
		C1083.8,38.9,1083.5,38.9,1083.3,38.9z"/>
	<path class="st0" d="M1014.7,32.8c1.1-2,2.1-3.8,3.1-5.6c0.2-0.3,0.4-0.7,0.6-1c0.5-1.6,1.6-2.1,3.2-1.8c0.4,0.1,0.8,0,1.2,0
		c0.8,0,1,0.4,0.6,1.1c-1.2,2.2-2.4,4.4-3.7,6.7c-2.1,3.7-4.1,7.4-6.1,11.2c-0.3,0.6-0.7,0.9-1.4,0.9c-0.8,0-1.6,0-2.5,0
		c-0.9,0-1.1-0.4-0.7-1.2c0.7-1.2,1.3-2.4,2-3.6c0.3-0.5,0.4-1,0.3-1.7c-0.5-2.9-1-5.9-1.5-8.8c-0.2-1.2-0.4-2.3-0.6-3.5
		c-0.1-0.9,0-1.1,0.9-1.1c0.7,0,1.4,0,2.1,0c0.7,0,1,0.3,1.2,1.1C1013.8,27.8,1014.3,30.2,1014.7,32.8z"/>
	<path class="st0" d="M1055.3,24.3c0.4,0,0.7,0,1.1,0c0.9,0,1.1,0.3,1,1.1c-0.1,0.7-0.2,1.5-0.4,2.2c-0.1,0.7-0.5,1-1.2,1
		c-0.3,0-0.6,0-1,0c-0.8,0.1-1.4,0.9-1.3,1.7c0.1,0.3,0.3,0.3,0.5,0.4c0.4,0,0.9,0,1.3,0c0.8,0,1,0.3,0.9,1.1
		c-0.1,0.7-0.2,1.3-0.3,1.9c-0.1,0.8-0.6,1.1-1.3,1.1c-0.2,0-0.5,0-0.7,0c-1.3,0-1.3,0-1.5,1.3c-0.2,1.5-0.3,2.9-0.8,4.3
		c-0.8,2.4-2.7,3.7-5.1,3.7c-0.6,0-1.1,0-1.7,0c-0.6,0-0.9-0.2-0.8-0.8c0.1-0.8,0.2-1.6,0.4-2.4c0.1-0.6,0.6-0.7,1.1-0.8
		c1.6-0.1,1.6-0.1,1.9-1.6c0.2-1,0.4-2.1,0.6-3.1c0.1-0.5-0.1-0.6-0.5-0.6c0,0-0.1,0-0.1,0c-1.9-0.1-1.9-0.1-1.7-2
		c0-0.3,0.1-0.6,0.2-0.9c0.2-1,0.5-1.1,1.5-1.2c0.2,0,0.4,0,0.6,0c0.6,0,0.8-0.2,0.9-0.7c0.1-0.8,0.2-1.7,0.6-2.4
		C1050.9,25.2,1052.6,24.3,1055.3,24.3z"/>
	<path class="st0" d="M1033.3,34.1c-0.9,0-1.8,0-2.8,0c-1.2,0-1.7-1-1.2-2c2-3.6,4-7.3,6-10.9c0.6-1.1,1.2-1.2,2.2-0.5
		c0.9,0.5,1.7,1,2.6,1.5c1.5,0.9,2,2.6,1.2,4.2c-1.2,2.3-2.6,4.6-3.8,6.9c-0.3,0.6-0.8,0.9-1.5,0.9
		C1035.2,34.1,1034.2,34.1,1033.3,34.1z"/>
	<path class="st0" d="M1034.5,36.1c2.1,0,4.2,0,6.3,0c0.6,0,1,0.3,1,0.9c0,0.8,0,1.6,0,2.5c0,0.6-0.3,0.9-0.9,0.9c-0.7,0-1.3,0-2,0
		c-0.7,0-0.9,0.3-0.9,0.9c0,0.7,0,1.4,0,2.1c0,0.5-0.2,0.8-0.8,0.8c-1.1,0-2.1,0-3.2,0c-0.6,0-0.8-0.2-0.8-0.8c0-0.6,0-1.3,0-1.9
		c0-1-0.1-1.1-1.1-1.1c-1.3,0-2.6,0-4,0c-0.6,0-1-0.3-1.1-0.9c-0.1-0.3-0.1-0.7-0.1-1c-0.1-1.9,0.3-2.3,2.2-2.3
		C1030.9,36.1,1032.7,36.1,1034.5,36.1C1034.5,36.1,1034.5,36.1,1034.5,36.1z"/>
	<path class="st0" d="M1022.4,34c0-0.5,0.2-0.9,0.4-1.4c2.5-4.6,5.1-9.2,7.6-13.8c0.5-0.9,2.1-1.3,3-0.8c0.6,0.3,0.7,0.9,0.3,1.6
		c-1.7,3-3.4,6-5,9.1c-1.2,2.1-2.4,4.3-3.6,6.4c-0.6,1.2-1.6,1.2-2.4,0.1C1022.6,34.9,1022.5,34.5,1022.4,34z"/>
</g>
</svg>
