<?xml version="1.0" encoding="utf-8"?>
<!-- Generator: Adobe Illustrator 24.0.0, SVG Export Plug-In . SVG Version: 6.00 Build 0)  -->
<svg version="1.1" id="Providers" xmlns="http://www.w3.org/2000/svg" xmlns:xlink="http://www.w3.org/1999/xlink" x="0px" y="0px"
	 viewBox="0 0 600 111.6" style="enable-background:new 0 0 600 111.6;" xml:space="preserve">
<style type="text/css">
	.st0{fill:#84D5F7;}
	.st1{opacity:0.6;}
	.st2{fill-rule:evenodd;clip-rule:evenodd;fill:#84D5F7;}
</style>
<title>payment_de</title>
<g>
	<g id="g4158">
		<polygon id="polygon9" class="st0" points="378.2,44.4 371,44.4 375.5,16.6 382.6,16.6 		"/>
		<path id="path11" class="st0" d="M404.2,17.3c-2.1-0.8-4.2-1.2-6.4-1.2c-7.1,0-12.1,3.8-12.1,9.2c-0.1,4,3.6,6.2,6.3,7.5
			s3.7,2.3,3.7,3.5c0,1.9-2.2,2.7-4.3,2.7c-2.3,0.1-4.6-0.4-6.7-1.5l-0.9-0.5l-1,6.2c2.6,1,5.3,1.5,8,1.5c7.5,0,12.4-3.7,12.5-9.5
			c0-3.2-1.9-5.6-6-7.6c-2.5-1.3-4-2.1-4-3.4s1.3-2.4,4.1-2.4c1.8,0,3.7,0.3,5.3,1.1l0.6,0.3L404.2,17.3L404.2,17.3z"/>
		<path id="path13" class="st0" d="M413.7,34.5l2.9-7.8c0,0.1,0.6-1.6,0.9-2.6l0.5,2.4c0,0,1.4,6.6,1.7,8H413.7z M422.6,16.6h-5.5
			c-1.6-0.2-3.2,0.8-3.7,2.3l-10.7,25.5h7.5c0,0,1.2-3.4,1.5-4.2h9.2c0.2,1,0.9,4.2,0.9,4.2h6.6L422.6,16.6L422.6,16.6z"/>
		<path id="path15" class="st0" d="M365,16.6l-7,18.9l-0.8-3.8c-1.3-4.4-5.4-9.3-9.9-11.6l6.4,24.3h7.6l11.3-27.7L365,16.6z"/>
		<path id="path17" class="st0" d="M351.4,16.6h-11.5l-0.1,0.6c9,2.3,15,7.9,17.4,14.5l-2.5-12.8C354.3,17.1,353,16.6,351.4,16.6z"
			/>
	</g>
	<path class="st0" d="M55.9,12.6c0,0.2-0.2,0.4-0.3,0.4c-1.6,1-2.9,2.4-4,3.9c-0.3,0.4-0.7,0.6-1.2,0.6c-2.2,0-4.3,0-6.4,0
		c-0.4,0-0.8,0.1-1.3,0.2c-0.5,0.2-0.9,0.6-0.9,1.2c0,0.5,0.4,1,0.9,1.1c0.7,0.2,1.4,0.4,2.2,0.6c2.3,0.8,3.2,2.3,2.8,4.6
		c-0.4,2.7-2,5-4.4,6.3c-1.4,0.8-3,1.2-4.6,1.2c-4.6,0-9.2,0-13.8,0c-0.5,0-0.6-0.2-0.4-0.6c0.5-1.3,1-2.6,1.4-4
		c0.1-0.5,0.5-0.8,1-0.7c3.8,0,7.5,0,11.3,0c0.6,0,1.1,0,1.7-0.1c0.6-0.2,1-0.7,1-1.3c0-0.6-0.4-0.9-0.9-1.1s-1.3-0.4-1.9-0.6
		c-0.8-0.2-1.5-0.6-2.1-1.1c-0.9-0.7-1.3-1.8-1.1-2.8c0.3-2.4,1.5-4.6,3.2-6.3c1.1-1,2.6-1.5,4.1-1.5c4-0.2,8-0.1,11.9-0.1
		L55.9,12.6z"/>
	<path class="st0" d="M107.7,26c-0.8,2.1-1.6,4.1-2.3,6.2c-0.1,0.5-0.5,0.8-1,0.7l0,0c-1.6,0-3.2,0-4.9,0c-0.7,0-0.7,0-0.5-0.7
		c1.7-4.8,3.5-9.6,5.2-14.4c0.6-1.5,1.1-3,1.6-4.5c0.1-0.4,0.4-0.7,0.8-0.6c2.5,0,5.1-0.1,7.6,0.1c0.8,0,1.6,0.2,2.4,0.5
		c1.9,0.6,2.9,2.5,2.4,4.4c-0.4,2.5-2,4.6-4.3,5.8c-0.4,0.3-0.9,0.5-1.4,0.7c-0.3,0.1-0.3,0.3-0.2,0.5c1.1,2.4,1.9,5,2.5,7.6
		c0.1,0.5,0,0.6-0.5,0.6c-1.8,0-3.6,0-5.3,0c-0.4,0.1-0.7-0.2-0.8-0.6c0,0,0,0,0-0.1c-0.4-1.9-0.9-3.8-1.4-5.7
		C107.8,26.3,107.8,26.2,107.7,26z M111.2,16.9c-0.3,0.1-0.9-0.3-1.1,0.3c-0.5,1.3-1,2.6-1.5,4c-0.1,0.3,0,0.4,0.3,0.5
		c2.1,0.3,4-1.1,4.4-3.1c0-0.1,0-0.1,0-0.2c0.1-0.6-0.2-1.2-0.8-1.3c0,0,0,0-0.1,0C112.1,16.9,111.7,16.9,111.2,16.9L111.2,16.9z"/>
	<path class="st0" d="M55.1,33.1c-0.9,0-1.8-0.1-2.6-0.4C50.4,32,49,30.1,49,27.9c0-2.1,0.4-4.1,1.3-6c1.2-3.1,3.3-5.8,6-7.7
		c2.2-1.6,5-2.2,7.7-1.8c2.7,0.3,4.8,2.7,4.5,5.5c0,0.1,0,0.1,0,0.2c-0.4,4.4-2.2,8.6-5.4,11.8C60.9,32.1,58.1,33.2,55.1,33.1z
		 M60.9,17c-1.2,0-2.3,0.6-2.9,1.6c-1.3,1.9-2.3,4-2.8,6.2c-0.2,0.7-0.3,1.4-0.3,2c0,1.1,0.6,1.6,1.7,1.6c1.2,0.1,2.2-0.5,2.8-1.5
		c1.6-2.5,2.6-5.3,3.1-8.2C62.7,17.6,62.1,17,60.9,17z"/>
	<path class="st0" d="M88.2,33.1c-1,0-2-0.2-2.9-0.7c-1.8-0.8-2.9-2.5-2.9-4.5c-0.1-2,0.3-4,1.2-5.8c1.1-2.8,2.8-5.4,5.2-7.3
		c2.5-2.2,5.9-3.1,9.1-2.4c2.3,0.5,3.9,2.5,3.9,4.9c0,2.3-0.5,4.5-1.5,6.6c-1,2.5-2.6,4.8-4.6,6.6C93.5,32.3,90.9,33.2,88.2,33.1z
		 M95.8,19c0-1.7-0.3-2.1-1.6-2.1c-0.7,0-1.5,0.3-2,0.8c-0.5,0.4-1,1-1.3,1.5c-0.9,1.6-1.6,3.2-2.1,5c-0.3,0.8-0.4,1.7-0.4,2.6
		c-0.1,0.8,0.5,1.4,1.3,1.5c0.1,0,0.1,0,0.2,0c1.1,0.1,2.2-0.4,2.8-1.3c0.9-1.3,1.7-2.8,2.2-4.3C95.2,21.6,95.6,20.3,95.8,19z"/>
	<path class="st0" d="M89.4,12.6c-0.1,0.3-0.3,0.3-0.5,0.4c-1.6,1.1-3.1,2.4-4.3,4c-0.2,0.3-0.6,0.5-0.9,0.5c-1.8,0-3.7,0-5.5,0
		c-0.8-0.1-1.5,0.4-1.6,1.1l0,0l-0.5,1.5c-0.2,0.4,0,0.5,0.3,0.5c1.3,0,2.7,0,4,0c0.9,0,0.9,0,0.6,0.9s-0.7,1.8-1,2.8
		c-0.1,0.5-0.5,0.8-1,0.7c-1.3,0-2.7,0-4,0c-0.4-0.1-0.8,0.2-0.9,0.6c-0.8,2.2-1.6,4.4-2.4,6.6c-0.1,0.5-0.5,0.8-1,0.7
		c-1.6,0-3.3,0-4.9,0c-0.4,0-0.5-0.1-0.4-0.5c1.8-5,3.6-10,5.5-15c0.9-2.8,3.6-4.7,6.6-4.6c3.8-0.1,7.7,0,11.5,0
		C89.2,12.6,89.3,12.6,89.4,12.6z"/>
	<path class="st0" d="M129,12.6h9.2c0.8,0,0.8,0,0.6,0.8c-0.4,1.1-0.8,2.2-1.2,3.4c-0.1,0.5-0.5,0.8-1,0.7c-1.9,0-3.9,0-5.9,0
		c-0.4-0.1-0.7,0.2-0.8,0.5c-1.7,4.7-3.4,9.3-5.1,14c-0.3,0.9-0.3,0.9-1.3,0.9h-3.9c-0.7,0-0.7,0-0.5-0.7c1.7-4.7,3.4-9.3,5.1-14
		c0.2-0.7,0.3-0.7-0.4-0.7s-1.6,0-2.4,0c-0.4,0-0.6-0.1-0.5-0.5c0.1-1.5-0.4-3-1.5-4c-0.1-0.1-0.2-0.2-0.1-0.3s0.3-0.1,0.4-0.1
		L129,12.6L129,12.6z"/>
	<path class="st0" d="M70.3,41.1l-1.6,2.6c-0.6,1.1-1.3,2.1-1.9,3.2c-0.2,0.5-0.8,0.9-1.4,0.8c-0.4,0-0.7,0-1.1,0
		c-0.4,0-0.7-0.2-0.7-0.7l0.6-5.7c0.1-0.9,0.2-1.8,0.3-2.8s0.3-1,1.1-1c1.4,0,1.3,0,1.1,1.3c-0.3,2.1-0.6,4.2-0.8,6.3
		c0.2-0.1,0.3-0.3,0.4-0.5l3.8-6.3c0.5-0.8,1.5-1.1,2.3-0.8c0.3,0.1,0.3,0.4,0.3,0.7c-0.1,1.2-0.3,2.4-0.4,3.6S72,44,71.9,45.1
		c0.2-0.1,0.3-0.3,0.4-0.5l3.9-6.5c0.4-0.6,1.3-0.9,2-0.7c0.3,0.1,0.2,0.3,0.1,0.5c-0.3,0.5-0.5,0.9-0.8,1.3c-1.5,2.4-3,4.8-4.5,7.2
		c-0.4,0.7-1.1,1.1-1.9,1c-1.3-0.1-1.6,0.1-1.4-1.4C69.9,44.7,70,43,70.3,41.1z"/>
	<path class="st0" d="M113.9,40.4l-1.2,3.3c-0.4,1.1-0.8,2.3-1.2,3.4c-0.4,0.7-1.2,0.9-1.9,0.6c-0.3-0.2-0.1-0.4-0.1-0.6l1.7-4.8
		c0.4-1.2,0.9-2.4,1.3-3.6c0.1-0.7,0.8-1.2,1.5-1.1h0.6c0.9,0,1.1,0.2,1.3,1c0.4,1.9,0.7,3.9,0.9,5.9c0.6-1.6,1.1-3.1,1.6-4.5
		c0.2-0.6,0.4-1.2,0.6-1.7c0.4-0.6,1.2-0.9,1.9-0.6c0.3,0.2,0.1,0.5,0.1,0.7c-0.6,1.5-1.1,3.1-1.7,4.6c-0.4,1.2-0.9,2.5-1.3,3.7
		c-0.4,1-1.5,1.5-2.5,1h-0.1c-0.3-0.2-0.5-0.6-0.5-1C114.6,44.6,114.2,42.6,113.9,40.4z"/>
	<path class="st0" d="M36.9,47.7c-0.7,0-1.2,0-1.7,0s-0.8-0.2-0.6-0.8c1-2.9,2.1-5.8,3.2-8.7c0.1-0.4,0.5-0.7,1-0.7
		c1.2-0.1,2.4,0,3.6,0.1c0.9,0,1.7,0.7,1.7,1.7c0,0.3-0.1,0.7-0.3,0.9c-0.3,0.7-0.8,1.3-1.5,1.7c-0.2,0.1-0.3,0.2-0.1,0.4
		c0.6,0.4,0.9,1.2,0.6,2c-0.3,1.2-1.2,2.2-2.4,2.8c-0.4,0.2-0.8,0.3-1.2,0.4C38.5,47.7,37.7,47.8,36.9,47.7z M38.1,46.1
		c1.4,0,2.2-0.5,2.5-1.5c0.2-0.4,0-0.9-0.4-1h-0.1c-0.5-0.1-0.9-0.2-1.4-0.1c-0.4-0.1-0.7,0.2-0.8,0.5c-0.1,0.4-0.3,0.8-0.4,1.2
		C37.1,46.1,37.1,46.1,38.1,46.1z M39.6,41.8c0.7,0,1.4-0.3,1.8-0.9c0.2-0.3,0.5-0.7,0.3-1.2s-0.7-0.5-1.1-0.5h-0.5
		c-0.3-0.1-0.6,0.1-0.7,0.4l0,0c-0.1,0.5-0.3,0.9-0.5,1.4C38.6,41.8,38.7,41.8,39.6,41.8z"/>
	<path class="st0" d="M128.4,41.9c0.5,0,1,0,1.4,0c0.4,0,0.7,0.3,0.5,0.8c-0.5,1.3-1,2.7-1.5,4c-0.1,0.3-0.4,0.6-0.7,0.7
		c-1.5,0.5-3,0.7-4.6,0.4c-1.5-0.2-2.6-1.6-2.4-3.1c0-0.1,0-0.1,0-0.2c0.4-3.4,3-6.2,6.5-6.9c1.1-0.2,2.2-0.1,3.3,0.3
		c0.4,0.1,0.8,0.3,0.8,0.7c0,0.5-0.2,1.1-0.5,1.5c-0.2,0.2-0.4,0.1-0.5,0c-2.7-1.8-6.1-0.1-7,3.3v0.1c-0.3,0.8-0.1,1.6,0.5,2.2
		c0.8,0.5,1.7,0.6,2.6,0.3c0.2,0,0.4-0.2,0.4-0.4c0.2-0.5,0.4-1,0.6-1.5s0-0.4-0.3-0.4s-0.7,0-1.1,0c-0.2,0-0.3,0-0.4-0.3
		c0-0.7,0.4-1.3,1.1-1.4L128.4,41.9z"/>
	<path class="st0" d="M58.3,37.6c0.7,0,1.5,0,2.2,0.1c1,0.1,1.8,0.9,1.7,1.9c0,0.2-0.1,0.5-0.2,0.7c-0.3,1.1-1.2,2-2.2,2.5
		c-0.4,0.2-0.6,0.3-0.3,0.7c0.5,0.7,0.3,1.6,0.4,2.4c0,0.3,0,0.7,0,1c0,0.7-0.1,0.8-0.8,0.8c-1.5,0-1.5,0-1.5-1.5
		c0-0.6,0-1.2-0.1-1.8c0-0.4-0.4-0.8-0.8-0.8c-0.4-0.1-0.8,0.1-0.9,0.5c0,0,0,0,0,0.1c-0.3,0.9-0.7,1.7-0.9,2.6
		c-0.1,0.5-0.6,0.9-1.1,0.9h-0.1h-0.6c-0.7,0-0.7-0.1-0.5-0.8l3-8.2c0.4-1.1,0.6-1.2,1.7-1.2L58.3,37.6z M58.3,39.3
		c-0.3,0-0.7-0.2-0.8,0.3c-0.3,0.7-0.5,1.4-0.8,2.1c-0.1,0.2,0,0.3,0.2,0.4c0.9,0.2,1.7-0.1,2.4-0.7c0.4-0.4,0.6-0.9,0.5-1.5
		c-0.2-0.6-0.8-0.5-1.3-0.5L58.3,39.3z"/>
	<path class="st0" d="M72.9,37.6h0.3c0.6,0,0.7,0.2,0.5,0.8c-0.6,1.6-1.2,3.3-1.8,4.9c-0.3,0.6-0.4,1.2-0.4,1.8
		c-0.1,0.5,0.3,1,0.9,1.1h0.1c1.4,0.2,2.8-0.7,3.1-2.1c0.5-1.3,0.9-2.6,1.4-3.9c0.2-0.6,0.4-1.2,0.7-1.8c0.4-0.7,1.3-0.9,2.1-0.6
		c0.3,0.2,0.1,0.5,0,0.7c-0.7,1.9-1.3,3.8-2,5.6c-0.2,0.6-0.6,1.3-1,1.8c-1.5,1.8-3.9,2.5-6.1,1.9c-1.1-0.3-1.8-1.5-1.5-2.6
		c0-0.1,0.1-0.2,0.1-0.3c0.4-1.5,1-2.9,1.5-4.3c0.2-0.6,0.5-1.3,0.7-1.9C71.8,37.6,71.9,37.6,72.9,37.6z"/>
	<path class="st0" d="M103.6,46.1c0.9-0.2,1.7-0.9,2-1.8c0.6-1.5,1.1-2.9,1.6-4.4c0.2-0.5,0.4-1.1,0.6-1.6c0.5-0.7,1.4-0.9,2.1-0.6
		c0.2,0.1,0.1,0.3,0.1,0.5c-0.8,2.2-1.5,4.5-2.5,6.7c-1.2,2.3-3.8,3.6-6.4,3c-1.2-0.1-2-1.1-2-2.3c0-0.2,0.1-0.4,0.1-0.6
		c0.4-1.6,1-3.1,1.6-4.7c0.2-0.7,0.5-1.4,0.8-2.1c0.5-0.7,1.4-0.9,2.1-0.5c0.3,0.2,0.1,0.4,0,0.6c-0.6,1.5-1.1,3-1.7,4.6
		c-0.2,0.5-0.3,0.9-0.5,1.4C101.4,45.5,101.9,46.1,103.6,46.1z"/>
	<path class="st0" d="M79.9,47.7c-0.8,0-1.5,0-2.3,0s-0.8-0.2-0.6-0.8c1-2.9,2.1-5.7,3.1-8.6c0.1-0.5,0.6-0.8,1.1-0.7h4.5
		c0.5,0,0.6,0.2,0.5,0.7c-0.2,0.9-0.5,1.1-1.3,1.1s-1.6,0-2.3,0c-0.4-0.1-0.7,0.2-0.8,0.5c-0.1,0.5-0.3,0.9-0.5,1.4
		c-0.1,0.3,0,0.4,0.3,0.4h2.1c0.5,0,0.6,0.2,0.5,0.7c-0.3,0.9-0.4,1-1.3,1c-0.6,0-1.2,0-1.8,0c-0.3-0.1-0.6,0.1-0.7,0.4
		c-0.2,0.6-0.4,1.2-0.7,1.8c-0.1,0.3,0,0.4,0.3,0.4h2.6c0.6,0,0.7,0.1,0.5,0.7c-0.2,0.8-0.4,1-1.3,1L79.9,47.7z"/>
	<path class="st0" d="M47.1,47.7H45c-0.7,0-0.9-0.2-0.7-0.9c0.8-2.4,1.7-4.8,2.6-7.1c0.2-0.4,0.3-0.9,0.5-1.3c0.1-0.5,0.5-0.8,1-0.8
		h4.5c0.4,0,0.6,0.2,0.5,0.6c-0.2,0.9-0.5,1.1-1.4,1.1h-2.3c-0.3,0-0.6,0.2-0.7,0.5c-0.1,0.4-0.3,0.9-0.5,1.3s-0.1,0.5,0.3,0.5
		c0.7,0,1.4,0,2.1,0c0.5,0,0.6,0.2,0.5,0.6c-0.2,0.8-0.4,1-1.3,1c-0.6,0-1.2,0-1.8,0c-0.3-0.1-0.6,0.1-0.7,0.5
		c-0.2,0.6-0.4,1.2-0.6,1.7c-0.2,0.4,0,0.5,0.4,0.5c0.9,0,1.7,0,2.6,0c0.5,0,0.6,0.2,0.5,0.7c-0.2,0.8-0.5,1-1.3,1L47.1,47.7z"/>
	<path class="st0" d="M96.9,37.5c0.5,0,1.1,0.1,1.6,0.3c0.3,0.1,0.6,0.4,0.5,0.8c0,0,0,0.1-0.1,0.1c-0.1,0.1-0.1,0.3-0.1,0.4
		c-0.3,0.8-0.5,0.9-1.2,0.4c-0.7-0.6-1.7-0.6-2.4,0c-0.8,0.6-0.7,1.3,0.1,1.8c0.4,0.3,0.9,0.5,1.4,0.8c0.8,0.5,1.1,1.4,0.8,2.3
		c-0.6,1.9-2.2,3.3-4.2,3.5c-0.9,0.1-1.9,0-2.8-0.4c-0.3-0.2-0.6-0.3-0.5-0.7s0.2-1.1,0.7-1.4c0.2-0.2,0.4,0.1,0.6,0.2
		c0.7,0.5,1.6,0.7,2.4,0.4c0.4-0.1,0.7-0.3,1-0.6c0.4-0.4,0.4-1,0-1.4c-0.1-0.1-0.2-0.1-0.3-0.2c-0.4-0.3-0.9-0.5-1.3-0.8
		c-0.8-0.5-1.1-1.4-0.8-2.3C92.8,38.7,94.8,37.3,96.9,37.5z"/>
	<path class="st0" d="M86.2,47.7h-0.4c-0.4,0-0.6-0.2-0.5-0.7c1.1-3,2.2-5.9,3.3-8.9c0.1-0.3,0.4-0.5,0.7-0.5c0.2,0,0.5,0,0.7,0
		c0.9,0,1,0.1,0.6,1c-1,2.8-2,5.5-3,8.2C87.3,47.7,87.2,47.7,86.2,47.7z"/>
	<path class="st0" d="M77.9,36.8c-0.8,0-1-0.3-0.7-1c0.2-0.7,1-1.1,1.8-0.9c0.3,0,0.5,0.3,0.5,0.6v0.1
		C79.4,36.3,78.7,36.9,77.9,36.8L77.9,36.8z"/>
	<path class="st0" d="M74.5,36.8c-0.9,0-1.1-0.4-0.6-1.3c0.1-0.2,0.3-0.4,0.4-0.5c0.5-0.3,1.4-0.3,1.6,0.1c0.1,0.6-0.2,1.3-0.8,1.6
		C75,36.8,74.8,36.9,74.5,36.8z"/>
	<path class="st0" d="M493.4,46.5L493.4,46.5L493.4,46.5l0.1,0.1l0,0l0,0L493.4,46.5L493.4,46.5z M493.5,46.4h0.1v0.1c0,0,0,0,0,0.1
		h-0.1l0.1,0.1h-0.1l-0.1-0.1l0,0v0.1h-0.1v-0.3L493.5,46.4z M493.5,46.9h0.1h0.1l0.1-0.1v-0.1v-0.1c0,0,0-0.1-0.1-0.1l-0.1-0.1
		h-0.1h-0.1c0,0-0.1,0-0.1,0.1c0,0,0,0-0.1,0.1v0.1v0.1c0,0,0,0.1,0.1,0.1h0.1C493.4,46.9,493.4,46.9,493.5,46.9 M493.5,46.2
		c0,0,0.1,0,0.2,0l0.1,0.1l0.1,0.1v0.1v0.1c0,0,0,0.1-0.1,0.1l-0.1,0.1h-0.2h-0.2l-0.1-0.1l-0.1-0.1v-0.1v-0.1c0,0,0-0.1,0.1-0.1
		l0.1-0.1C493.4,46.2,493.4,46.2,493.5,46.2 M458.8,45c0-0.6,0.5-1.1,1.1-1.1s1.1,0.5,1.1,1.1s-0.5,1.1-1.1,1.1
		C459.3,46.2,458.8,45.7,458.8,45C458.8,45.1,458.8,45,458.8,45 M461.8,45v-1.8H461v0.4c-0.3-0.3-0.7-0.5-1.2-0.5
		c-1,0-1.9,0.8-1.9,1.9s0.8,1.9,1.9,1.9c0.5,0,0.9-0.2,1.2-0.5v0.4h0.8V45z M489.1,45c0-0.6,0.5-1.1,1.1-1.1s1.1,0.5,1.1,1.1
		s-0.5,1.1-1.1,1.1C489.6,46.2,489.1,45.7,489.1,45C489.1,45.1,489.1,45,489.1,45 M492.1,45v-3.2h-0.8v1.8c-0.3-0.3-0.7-0.5-1.2-0.5
		c-1,0-1.9,0.8-1.9,1.9s0.8,1.9,1.9,1.9c0.4,0,0.9-0.2,1.2-0.5v0.4h0.8V45z M471.8,43.8c0.5,0,0.9,0.4,0.9,0.9l0,0h-1.9
		C470.9,44.1,471.3,43.8,471.8,43.8C471.9,43.8,471.9,43.8,471.8,43.8 M471.9,43.1c-1,0-1.8,0.9-1.8,1.9s0.9,1.8,1.9,1.8l0,0
		c0.6,0,1.1-0.2,1.5-0.5l-0.4-0.6c-0.3,0.2-0.7,0.4-1.1,0.4c-0.5,0.1-1-0.3-1.1-0.9h2.8c0-0.1,0-0.2,0-0.3c0.1-1-0.6-1.8-1.6-1.9
		C472,43.1,471.9,43.1,471.9,43.1 M481.6,45c0-0.6,0.5-1.1,1.1-1.1s1.1,0.5,1.1,1.1s-0.5,1.1-1.1,1.1S481.6,45.7,481.6,45L481.6,45
		 M484.6,45v-1.8h-0.8v0.4c-0.3-0.3-0.7-0.5-1.2-0.5c-1,0-1.9,0.8-1.9,1.9s0.8,1.9,1.9,1.9c0.5,0,0.9-0.2,1.2-0.5v0.4h0.8V45z
		 M477,45c0,1,0.8,1.8,1.8,1.9c0.1,0,0.1,0,0.2,0c0.5,0,1-0.1,1.3-0.4l-0.4-0.6c-0.3,0.2-0.6,0.3-1,0.3c-0.6-0.1-1.1-0.6-1-1.2
		c0.1-0.5,0.5-1,1-1c0.4,0,0.7,0.1,1,0.3l0.4-0.6c-0.4-0.3-0.8-0.5-1.3-0.4C478,43.2,477.1,43.9,477,45C477,44.9,477,44.9,477,45
		 M487.4,43.1c-0.4,0-0.8,0.2-1,0.5v-0.5h-0.8v3.5h0.8v-2c0-0.6,0.3-0.9,0.8-0.9c0.2,0,0.3,0,0.5,0.1l0.3-0.7
		C487.8,43.1,487.6,43.1,487.4,43.1 M465.8,43.5c-0.5-0.3-1-0.4-1.5-0.4c-0.9,0-1.5,0.4-1.5,1.1s0.5,0.9,1.3,1h0.4
		c0.4,0.1,0.6,0.2,0.6,0.4s-0.3,0.4-0.9,0.4c-0.4,0-0.9-0.1-1.2-0.4l-0.4,0.6c0.5,0.3,1,0.5,1.6,0.5c1.1,0,1.7-0.5,1.7-1.2
		s-0.5-1-1.3-1.1l-0.4-0.1c-0.4,0-0.6-0.1-0.6-0.3s0.3-0.4,0.7-0.4c0.4,0,0.8,0.1,1.2,0.3L465.8,43.5z M476.2,43.1
		c-0.4,0-0.8,0.2-1,0.5v-0.4h-0.8v3.5h0.9v-2c0-0.6,0.3-0.9,0.8-0.9c0.2,0,0.3,0,0.5,0.1l0.3-0.7C476.7,43.1,476.5,43.1,476.2,43.1
		 M469.3,43.2H468v-1.1h-0.8v1.1h-0.8v0.7h0.8v1.6c0,0.8,0.3,1.3,1.3,1.3c0.4,0,0.7-0.1,1-0.3l-0.2-0.7c-0.2,0.1-0.5,0.2-0.7,0.2
		c-0.4,0-0.5-0.2-0.5-0.6v-1.6h1.3L469.3,43.2L469.3,43.2z M457.3,46.7v-2.2c0-0.7-0.5-1.4-1.3-1.4c-0.1,0-0.1,0-0.2,0
		c-0.5,0-1,0.2-1.3,0.6c-0.3-0.4-0.7-0.7-1.2-0.6c-0.4,0-0.8,0.2-1.1,0.5v-0.4h-0.8v3.5h0.8v-2c-0.1-0.5,0.3-0.9,0.8-0.9
		c0.1,0,0.1,0,0.2,0c0.5,0,0.8,0.3,0.8,0.9v2h0.8v-2c0-0.5,0.3-0.9,0.8-0.9h0.1c0.5,0,0.8,0.3,0.8,0.9v2L457.3,46.7z"/>
	<path class="st0" d="M493.9,35v-0.5h-0.1l-0.2,0.4l-0.2-0.4h-0.1V35h0.1v-0.4l0.2,0.3h0.1l0.2-0.3V35L493.9,35z M493,35v-0.4h0.2
		v-0.1h-0.5v0.1h0.2L493,35L493,35z"/>
	<g class="st1">
		<path class="st0" d="M466.4,26.7c0-4.1,2-8,5.3-10.5c-2.5-1.9-5.5-2.9-8.6-2.8c-7.7,0-14,6-14,13.3s6.2,13.3,14,13.3
			c3.1,0,6.1-1,8.6-2.8C468.4,34.7,466.4,30.8,466.4,26.7"/>
	</g>
	<g class="st1">
		<path class="st0" d="M494.3,26.7c0,7.4-6.3,13.3-14,13.3c-3.1,0-6.1-1-8.6-2.8c5.8-4.2,7.1-12.4,2.8-18.2c-0.8-1.1-1.7-2-2.8-2.8
			c2.5-1.8,5.5-2.8,8.6-2.8C488,13.4,494.3,19.4,494.3,26.7"/>
	</g>
	<path class="st0" d="M471.7,37.2c-5.8-4.2-7.1-12.4-2.8-18.2c0.8-1.1,1.7-2,2.8-2.8c5.8,4.2,7.1,12.4,2.8,18.2
		C473.7,35.4,472.8,36.4,471.7,37.2z"/>
	<path id="path2491" class="st0" d="M188.3,29.6c0-0.5-0.3-0.8-0.8-0.9h-2.7c-0.6,0-1,0.4-1,1c0,0,0,0,0,0.1v4.9
		c0,0.6,0.4,1,0.9,1.1h0.1h2.5c0.2,0,0.5-0.1,0.6-0.3c0.2-0.1,0.3-0.3,0.3-0.6L188.3,29.6z M180.4,28.9c-0.1-1,0.2-2,0.8-2.8
		c0.3-0.3,0.6-0.5,1-0.7s0.8-0.3,1.3-0.3h5c2.2,0,3.3,1.2,3.3,3.6V36c0,0.8-0.4,1.6-1,2.2c-0.6,0.6-1.4,1-2.3,1h-4.7v5.3h-3.5
		L180.4,28.9"/>
	<path id="path2493" class="st0" d="M198.1,35c0,0.2,0.1,0.4,0.3,0.5s0.4,0.2,0.6,0.2h2.7c0.6,0,0.9-0.2,0.9-0.7v-1
		c0-0.5-0.3-0.8-1-0.8H199c-0.3,0-0.5,0-0.7,0.2c-0.1,0.2-0.2,0.5-0.2,0.8V35z M202.6,29.5c0-0.5-0.3-0.8-0.9-0.8h-7v-3.6h7.9
		c2.3,0,3.5,1.1,3.5,3.3V36c0,0.9-0.3,1.7-0.9,2.3c-0.6,0.6-1.4,1-2.3,1h-4.8c-2.3,0-3.5-1.1-3.5-3.2v-2.9c0-2.2,1.1-3.3,3.4-3.4
		h4.6V29.5"/>
	<path id="path2495" class="st0" d="M215.8,41c0.3,0,0.5-0.1,0.7-0.3c0.2-0.1,0.3-0.3,0.3-0.6v-0.8h-4.5c-0.5,0-0.9-0.1-1.4-0.2
		c-0.4-0.2-0.8-0.4-1.1-0.7s-0.6-0.7-0.8-1.2s-0.2-0.9-0.2-1.4V25.2h3.5v9.4c0,0.8,0.3,1.1,0.9,1.1h2.5c0.3,0,0.5-0.1,0.8-0.3
		c0.2-0.1,0.3-0.4,0.3-0.6v-9.6h3.4v15.5c0,1-0.3,2-0.9,2.8c-0.6,0.7-1.5,1.1-2.4,1.1h-8.1V41H215.8"/>
	<path id="path2497" class="st0" d="M222.9,35.7h6.2c0.6,0,0.9-0.3,0.9-0.7v-0.3c0-0.1,0-0.2-0.1-0.3c-0.1-0.3-0.3-0.4-0.5-0.4h-3.1
		c-0.9,0-1.7-0.3-2.3-0.9c-0.6-0.5-1-1.3-1-2v-2.7c0-2.1,1.2-3.1,3.4-3.2h7.2v3.6h-6.1c-0.7,0-1.1,0.2-1.1,0.7v0.3
		c0,0.5,0.4,0.7,1.1,0.7h3.1c0.8,0,1.6,0.4,2.1,0.9c0.6,0.6,0.9,1.4,0.9,2.2v2.6c-0.1,0.8-0.4,1.6-1,2.2c-0.3,0.3-0.6,0.6-1,0.7
		c-0.4,0.1-0.9,0.2-1.4,0.2h-7.3L222.9,35.7"/>
	<path id="path2499" class="st0" d="M239.5,35c0,0.2,0.1,0.4,0.3,0.5s0.4,0.2,0.6,0.2h2.7c0.6,0,0.9-0.2,0.9-0.7v-1
		c0-0.5-0.3-0.8-1-0.8h-2.6c-0.3,0-0.5,0-0.7,0.2c-0.1,0.2-0.2,0.5-0.2,0.8V35z M244,29.5c0-0.5-0.3-0.8-0.9-0.8h-7v-3.6h7.9
		c2.3,0,3.5,1.1,3.5,3.3V36c0,0.9-0.3,1.7-0.9,2.3c-0.6,0.7-1.4,1-2.3,1h-4.8c-2.3,0-3.5-1.1-3.5-3.2v-2.9c0-2.2,1.1-3.3,3.4-3.4
		h4.6V29.5"/>
	<path id="path2501" class="st0" d="M250.3,23.2c0-0.9,0.3-1.7,1-2.3c0.7-0.6,1.7-0.9,2.6-0.9h2.2v3.5h-1.3c-0.7,0-1.1,0.4-1.1,1
		v0.8h2.5v3.6h-2.5v10.6h-3.4V23.2"/>
	<path id="path2503" class="st0" d="M266.1,29.4L266.1,29.4c0-0.3-0.1-0.4-0.2-0.5c-0.2-0.1-0.4-0.2-0.6-0.2h-2.4
		c-0.3,0-0.5,0.1-0.8,0.3c-0.2,0.1-0.4,0.4-0.4,0.6V31L266.1,29.4z M261.8,34.4v0.2c0,0.2,0.1,0.5,0.2,0.7s0.2,0.3,0.5,0.3h7.1v3.6
		H262c-0.5,0-1.1,0-1.6-0.2c-0.4-0.1-0.8-0.4-1.1-0.7c-0.3-0.3-0.6-0.7-0.8-1.2c-0.2-0.5-0.2-1.1-0.2-1.6v-7.1
		c0-2.2,1.2-3.3,3.4-3.3h4.7c2.2,0,3.3,1.2,3.3,3.4v2.8L261.8,34.4"/>
	<path id="path2505" class="st0" d="M276.9,39.3c-0.5,0-1,0-1.4-0.1c-0.5-0.1-1-0.3-1.4-0.7c-0.5-0.4-0.8-0.8-1-1.4
		c-0.2-0.6-0.3-1.1-0.3-1.7v-6.7c0-0.5,0-1,0.2-1.4c0.1-0.5,0.4-0.9,0.7-1.2c0.4-0.4,0.8-0.7,1.3-0.8c0.5-0.1,1-0.2,1.5-0.2h5.3v0.8
		h-5.2c-0.8,0-1.5,0.2-2.2,0.6c-0.6,0.5-0.9,1.3-0.8,2.1v6.7c0,0.5,0.1,0.9,0.2,1.4c0.1,0.4,0.4,0.8,0.7,1.1
		c0.3,0.3,0.7,0.5,1.1,0.5c0.4,0.1,0.8,0.1,1.2,0.1h5v0.8h-4.9"/>
	<path id="path2507" class="st0" d="M295.5,30.6h-7c-0.7,0-1.5,0.2-2,0.8c-0.5,0.6-0.8,1.3-0.7,2.1v2.1c0,0.4,0,0.8,0.1,1.1
		c0.1,0.4,0.3,0.7,0.6,1c0.6,0.5,1.3,0.7,2,0.8h4.2c1.8,0,2.7-1,2.7-2.8L295.5,30.6z M296.4,35.4c0,0.5,0,1-0.1,1.4
		c-0.1,0.5-0.4,0.9-0.7,1.3c-0.7,0.8-1.7,1.2-2.7,1.1h-4.1c-1,0-1.9-0.3-2.6-1s-1.1-1.7-1-2.6v-2.1c0-2.4,1.2-3.7,3.6-3.7h6.9v-0.9
		c0-0.7-0.2-1.4-0.7-2c-0.2-0.3-0.6-0.6-1-0.8c-0.4-0.1-0.9-0.2-1.3-0.1h-7.6v-0.8h7.1c0.6,0,1.2,0,1.8,0.1c0.3,0.1,0.5,0.2,0.8,0.3
		c0.3,0.2,0.5,0.4,0.7,0.6c0.6,0.8,1,1.8,0.9,2.9V35.4"/>
	<path id="path2509" class="st0" d="M304.2,25.9c-1.9,0.1-2.9,1.1-2.9,3.2v10.2h-0.8V29.1c0-2.7,1.2-4,3.8-4h0.9v0.8H304.2"/>
	<path id="path2511" class="st0" d="M318.2,25.9h-6.6c-0.4,0-0.9,0.1-1.3,0.2c-0.5,0.1-0.9,0.4-1.1,0.7c-0.3,0.3-0.5,0.7-0.7,1.1
		c-0.1,0.4-0.2,0.9-0.2,1.3v6.5c-0.1,0.9,0.3,1.7,1,2.2c0.3,0.2,0.6,0.3,1,0.4c0.4,0.1,0.8,0.2,1.3,0.2h2.9c0.9,0,1.9-0.2,2.6-0.7
		c0.7-0.6,1.1-1.5,1-2.4L318.2,25.9z M319.1,35.3c-0.1,2.7-1.5,4-4.3,4h-3.1c-0.6,0-1.2-0.1-1.7-0.2c-0.6-0.2-1.1-0.5-1.5-1
		c-0.3-0.4-0.6-0.9-0.7-1.4s-0.2-1-0.2-1.5v-6.1c0-2.7,1.4-4.1,4.1-4.1h6.5v-4.6h0.8L319.1,35.3"/>
	<path id="path2513" class="st0" d="M161.1,24.6c0.3-0.1,0.5-0.2,0.8-0.3c0.6-2.9,3.4-4.7,6.3-4.1c2,0.4,3.6,2,4.1,4.1
		c0.7,0.1,1.4,0.4,1.9,0.9c0-0.4,0-0.9-0.1-1.3c-0.3-3.9-3.7-6.8-7.6-6.5c-3.6,0.3-6.3,3.2-6.5,6.8c0,0.3,0,0.7,0,1
		C160.4,25,160.7,24.8,161.1,24.6"/>
	<path id="path2515" class="st0" d="M171.2,25.2h-8.5c-0.4,0-0.9,0.1-1.3,0.3c-0.4,0.2-0.7,0.4-1,0.7c-0.6,0.8-0.9,1.8-0.8,2.8v6.6
		c-0.1,1,0.2,2,0.8,2.8c0.3,0.3,0.6,0.5,1,0.7s0.8,0.3,1.3,0.3h8.5c2.2,0,3.3-1.2,3.3-3.6v-6.9C174.6,26.4,173.4,25.2,171.2,25.2"/>
	<g id="layer1">
		<g id="g3098">
			<path id="path3741" class="st0" d="M25.1,66.5l-5.3,28.7h11.5l2-11.3l4.1,11.3h32.3l3.7-19.8h1.5l-3.4,18.2c0,0-0.6,1.6,1.3,1.6
				h80.6l1.4-7.3l2.2,7.3h11.8l-4-10.7c0,0,3.2-1.4,4.5-3c1.3-1.8,1.9-3.9,1.9-6.1c0.1-2.7-1.2-5.2-3.4-6.7
				c-2.1-1.5-5.3-2.2-9.4-2.2h-11.1l-3.6,19.8h-9.6l0.2-1.4h7.7l1.5-8.1h-7.7l0.2-1.4h8l1.6-8.9h-19.3l-3.5,18.8
				c0,0-2.9,0.3-2.4-1.9s3.1-16.9,3.1-16.9h-11.4l-3.4,18.8c0,0-2.7,0.3-2.3-1.9s3.1-16.9,3.1-16.9H97.8l-3.6,19.8h-9.8l0.3-1.4h7.8
				l1.5-8.1h-7.9l0.3-1.4h8.1l1.6-8.9H42.5l-2.1,11.4l-4.1-11.4H25.1z M26.4,68.1h8.8l5.7,15.7l2.9-15.7h50.4l-1,5.8h-8.1l-0.9,4.5
				h7.9l-0.9,5h-7.8l-0.8,4.5h12.9L99.1,68h8.5l-3.5,18.8h5.8l3.5-18.8h8.5l-3.5,18.8h6l3.5-18.8H144l-1,5.8h-8l-0.8,4.5h7.7l-0.9,5
				h-7.9l-0.8,4.5h12.8l3.6-19.8h9.8c3.7,0,6.6,0.7,8.5,2c1.8,1.2,2.8,3.3,2.7,5.4c0.1,1.8-0.5,3.7-1.6,5.2
				c-1.1,1.4-2.7,2.3-4.5,2.6l-0.9,0.2l3.9,10.2h-8.4l-3.7-12.5l-2.3,12.5h-79l3.7-19.8h-4.7l-3.7,19.8h-30l-5.7-16.1l-2.7,16.2
				h-8.4L26.4,68.1z M51,73.9l-0.8,4.4h8l-0.9,5.1h-8l-0.8,4.5h12.8l2.6-14H51z M52.3,75.4H62l-2,10.9h-9.7l0.3-1.4h8l1.5-8.1h-8
				L52.3,75.4z"/>
			<path id="path3745" class="st0" d="M161.6,76.3c0.1-1-0.4-1.9-1.2-2.4c-0.9-0.5-2-0.8-3.1-0.7h-1.2l-1.3,6.9h1.6
				c1.3,0.1,2.6-0.2,3.7-0.9C161.1,78.6,161.6,77.5,161.6,76.3 M159.3,78c-0.8,0.4-1.7,0.7-2.6,0.6c-0.1,0,0.7-3.8,0.7-3.8h-0.1
				c0.8-0.1,1.6,0.1,2.3,0.4c0.3,0.3,0.5,0.7,0.5,1.1C160.1,77,159.8,77.6,159.3,78"/>
			<path id="path3747" class="st0" d="M171.6,89.3c0-1.8,1.5-3.3,3.3-3.3s3.3,1.5,3.3,3.3s-1.5,3.3-3.3,3.3
				C173,92.5,171.6,91.1,171.6,89.3 M171.2,89.3c0,2,1.6,3.6,3.6,3.6s3.6-1.6,3.6-3.6s-1.6-3.6-3.6-3.6
				C172.8,85.7,171.2,87.3,171.2,89.3"/>
			<path id="path3749" class="st0" d="M174.2,89.1h0.3c0.1,0,0.2,0,0.4,0c0.1,0,0.2,0,0.3-0.1c0.1,0,0.2-0.1,0.3-0.2
				s0.1-0.2,0.1-0.3c0-0.1,0-0.2-0.1-0.3c-0.1-0.1-0.2-0.1-0.3-0.2c-0.1,0-0.2-0.1-0.3-0.1h-0.7V89.1z M173.2,87.5h1.9
				c0.2,0,0.5,0,0.7,0.1c0.2,0,0.4,0.1,0.5,0.3c0.1,0.2,0.2,0.4,0.2,0.6s-0.1,0.4-0.3,0.6s-0.5,0.3-0.7,0.3l0,0
				c0.1,0,0.2,0.1,0.3,0.1c0.1,0.1,0.1,0.1,0.2,0.2l0.8,1.4h-1.1l-0.5-1.2c0-0.1-0.1-0.2-0.2-0.3c-0.1-0.1-0.3-0.1-0.4-0.1h-0.3V91
				h-1L173.2,87.5z"/>
		</g>
	</g>
	<g id="Page-1">
		<g id="skrill-logo-web-1-rgb">
			<path id="Fill-1" class="st0" d="M259.4,73.4c1.9,0,3.5-1.5,3.5-3.4s-1.5-3.5-3.4-3.5S256,68,256,69.9l0,0
				C256,71.9,257.5,73.4,259.4,73.4L259.4,73.4z M233,75.3c-1,2.5-2.3,4.8-4,6.8v-14l-7.2,1.4v25.4h7.2V87c1.4,2.4,2.5,5.1,3.1,7.8
				h8.6c-0.9-3.6-4.6-10.1-4.6-10.1c2.2-2.9,4-6.1,5.1-9.5L233,75.3L233,75.3z M252,75c-6.5,0.2-9.8,3.1-9.8,8.9v11h7v-9
				c0-3.4,0.5-4.9,4.5-5.1v-5.7C253.2,75,252.6,75,252,75L252,75z M209.7,78.1c-0.9,0-2.9-0.2-2.9-2c0-2.2,3-2.2,4.1-2.2
				c2.1,0.1,4.2,0.5,6.3,1.1c0,0,1,0.3,1.9,0.7h0.1v-6.1h-0.1c-2.9-1.1-6-1.6-9.2-1.5c-7.9,0-10.7,4.6-10.7,8.5c0,2.3,1,7.6,10,8.2
				c0.8,0,2.8,0.2,2.8,2.1c0,1.6-1.7,2.5-4.4,2.5s-5.3-0.5-7.9-1.5v6.3c3,0.8,6.2,1.1,9.3,1.1c7.7,0,11.2-4.3,11.2-8.7
				C220.1,81.7,216.2,78.6,209.7,78.1L209.7,78.1z M256,94.9h7V75.3h-7V94.9z M276.1,69.3v25.6h7V68.1L276.1,69.3z M265.9,69.3
				l7-1.3v26.8h-7V69.3z"/>
		</g>
	</g>
	<path class="st0" d="M321.7,89.9h-9.8c-0.3,0-0.7,0-1-0.2c-0.8-0.3-1.3-0.9-1.5-1.7c-0.2-0.9-0.4-1.7-0.6-2.6
		c-0.4-1.6-0.7-3.2-1.1-4.9l-1.3-5.7c-0.2-0.8,0.2-1.7,1-2c0.4-0.2,0.8-0.2,1.2-0.2h3.8c0.2,0,0.2,0,0.2-0.3s0-0.7,0-1v-1.2
		c0-1.4,0.3-2.8,0.9-4c2.2-4.4,7.6-6.2,12.1-4c2.2,1.1,3.9,3.1,4.6,5.6c0.2,0.5,0.3,1.1,0.3,1.6c0.1,1,0,1.9,0,2.9
		c0,0.4,0,0.4,0.4,0.4h3.5c0.5,0,0.9,0.1,1.3,0.3c0.8,0.3,1.2,1.1,1,1.9c-0.2,0.9-0.4,1.8-0.6,2.8c-0.6,2.7-1.2,5.4-1.8,8.1
		c-0.2,0.8-0.4,1.6-0.5,2.3c-0.1,0.4-0.3,0.9-0.6,1.2c-0.4,0.4-1,0.7-1.6,0.7L321.7,89.9L321.7,89.9z M321.7,72.7h5.6
		c0.1,0,0.1-0.1,0.1-0.1l0,0c0-0.1,0-0.1,0-0.2v-2c0-0.4,0-0.7,0-1.1c-0.4-3.1-3.3-5.3-6.4-4.9c-2.8,0.4-4.9,2.8-5,5.6v2.4
		c0,0.4,0,0.4,0.4,0.4L321.7,72.7z M321.6,76.4h-3.5c-0.2,0-0.3,0.2-0.3,0.3l0,0v1.4c0,0.2,0.1,0.3,0.3,0.3h1.5c0.5,0,0.5,0,0.5,0.5
		v5.7c0,0.1,0,0.2,0,0.3c0,0.2,0.1,0.3,0.3,0.3h2.1c0.5,0,0.6-0.1,0.6-0.6v-5.9c0-0.2,0.1-0.3,0.3-0.3h0.8c0.3,0,0.7,0,1,0
		s0.4-0.1,0.4-0.4s0-0.5,0-0.8s0-0.4,0-0.6s-0.1-0.3-0.3-0.3c-0.1,0-0.2,0-0.4,0L321.6,76.4z"/>
	<path class="st0" d="M379,82.4c0,1.3,0,2.5,0,3.8c0,0.7-0.1,1.4-0.4,2c-0.4,1-1.4,1.7-2.5,1.7c-2.1,0-4.2,0-6.3,0
		c-0.7,0-1.3-0.2-1.9-0.6s-1-1.1-1.2-1.8c-0.1-0.5-0.2-1-0.2-1.5v-7.4c0-0.3,0-0.5,0.1-0.8c0.1-0.4,0.5-0.8,0.9-0.7h3.2
		c0.3,0,0.5,0.1,0.7,0.2c0.3,0.2,0.5,0.5,0.5,0.8V84c0,0.2,0,0.5,0,0.7c0,0.4,0.4,0.8,0.8,0.8c0,0,0,0,0.1,0c0.5,0,0.9-0.3,0.9-0.8
		l0,0c0-0.1,0-0.2,0-0.4c0-1.9,0-3.8,0-5.7c0-0.2,0-0.4,0-0.6c0-0.4,0.3-0.6,0.6-0.7h0.4h2.7c0.1,0,0.3,0,0.4,0c0.6,0,1,0.4,1,1
		c0,0.1,0,0.2,0,0.3L379,82.4z"/>
	<path class="st0" d="M347.6,72.7h6.4c0.2,0,0.4,0,0.6,0c0.3,0,0.5,0.3,0.5,0.6c0,1,0,2,0,3.1c0,0.3-0.1,0.4-0.4,0.5
		c-0.1,0-0.3,0-0.4,0h-3.2c-0.5,0-0.6,0.1-0.6,0.6V89c0,0.1,0,0.2,0,0.3c0,0.3-0.2,0.6-0.5,0.6c-0.3,0.1-0.5,0.1-0.8,0.1H346
		c-0.2,0-0.5,0-0.7,0c-0.3,0-0.6-0.3-0.6-0.6c0,0,0,0,0-0.1V77.6c0-0.1,0-0.2,0-0.3c0-0.2-0.1-0.3-0.3-0.3h-3.3c-0.1,0-0.3,0-0.5,0
		s-0.4-0.2-0.4-0.4c0-0.1,0-0.2,0-0.2v-3c0-0.3,0.2-0.5,0.4-0.5c0.2-0.1,0.4-0.1,0.6-0.1L347.6,72.7L347.6,72.7z"/>
	<path class="st0" d="M417.2,82.8c0.1,0,0.1-0.1,0.1-0.2c0.6-1.4,1.1-2.8,1.7-4.2c0.1-0.2,0.2-0.5,0.4-0.7c0.2-0.3,0.6-0.5,0.9-0.4
		h2.7c0.2,0,0.4,0,0.6,0.1c0.2,0,0.3,0.2,0.3,0.4c0,0.1-0.1,0.3-0.1,0.4l-1.5,3.4c-1,2.4-2,4.8-3,7.1l-2,4.8
		c-0.1,0.3-0.3,0.6-0.5,0.8c-0.2,0.2-0.5,0.3-0.7,0.3h-2.6c-0.2,0-0.4,0-0.5-0.1c-0.2,0-0.3-0.2-0.3-0.4c0-0.1,0-0.3,0.1-0.4
		l1.6-3.9c0.1-0.2,0.1-0.4,0-0.6c-1.5-3.7-3-7.3-4.4-11c-0.1-0.1-0.1-0.3-0.1-0.4c-0.1-0.2,0.1-0.5,0.3-0.6l0,0
		c0.2-0.1,0.4-0.1,0.7-0.1h3.4c0.6,0,1.1,0.3,1.3,0.9c0.1,0.2,0.2,0.4,0.2,0.6l1.4,3.8C417.1,82.6,417.1,82.7,417.2,82.8z"/>
	<path class="st0" d="M386.2,90.2c-1.5,0-3.1-0.2-4.5-0.5l-0.3-0.1c-0.2,0-0.4-0.2-0.4-0.5c0-0.2-0.1-0.4-0.1-0.6
		c-0.1-0.5-0.1-1.1,0-1.6c0-0.1,0.1-0.3,0.1-0.4c0.1-0.3,0.2-0.3,0.5-0.3c0.4,0.1,0.7,0.2,1.1,0.3c0.9,0.1,1.8,0.2,2.6,0.1
		c0.2,0,0.4,0,0.5-0.1c0.1,0,0.2-0.1,0.3-0.2c0.2-0.1,0.2-0.4,0.1-0.5l-0.1-0.1c-0.2-0.1-0.4-0.2-0.5-0.3c-0.6-0.3-1.3-0.5-1.9-0.8
		s-1.1-0.7-1.6-1.2c-0.9-1-1.2-2.4-0.8-3.7c0.3-0.8,0.9-1.5,1.7-1.9c0.8-0.4,1.7-0.7,2.6-0.9c1.1-0.2,2.2-0.2,3.3-0.1
		c0.6,0,1.1,0.1,1.7,0.2l0.4,0.1c0.2,0,0.3,0.2,0.3,0.3c0,0.2,0,0.3,0,0.5c0,0.6-0.1,1.2-0.3,1.7c-0.1,0.2-0.1,0.3-0.2,0.5
		c-0.1,0.1-0.3,0.2-0.4,0.2l-1.5-0.2c-0.5-0.1-0.9-0.1-1.4-0.1c-0.2,0-0.3,0-0.5,0.1c-0.1,0-0.2,0.2-0.3,0.3c0,0.1,0.1,0.3,0.2,0.3
		c0.4,0.2,0.8,0.4,1.2,0.6c0.8,0.3,1.5,0.8,2.2,1.3c0.5,0.3,0.9,0.8,1.2,1.3c0.5,0.8,0.7,1.7,0.5,2.6c0,0.4-0.2,0.8-0.3,1.2
		c-0.3,0.7-0.8,1.3-1.5,1.6c-0.6,0.3-1.3,0.5-2,0.6C387.4,90.2,386.8,90.3,386.2,90.2z"/>
	<path class="st0" d="M394.2,84v-2.8c0-0.1,0-0.1,0-0.2c0-0.2,0-0.2-0.2-0.2h-0.4c-0.6,0-0.8-0.2-0.9-0.8s0-1.2,0-1.9
		c0-0.1,0-0.2,0-0.3c0.1-0.2,0.2-0.4,0.5-0.4c0.2,0,0.4,0,0.5,0h0.5c0.2,0,0.2,0,0.2-0.2s0-0.5,0-0.7s0-0.4,0-0.6
		c0-0.3,0.2-0.6,0.4-0.8c0.2-0.2,0.5-0.3,0.8-0.3l2.6-0.4c0.2,0,0.4,0,0.6,0s0.3,0.2,0.4,0.4c0,0.1,0,0.2,0,0.3v2.2
		c0,0.2,0,0.2,0.2,0.2h1.2c0.3,0,0.6,0.2,0.7,0.4c0.1,0.2,0.1,0.4,0.1,0.7v1.7v0.1c0,0.4-0.2,0.6-0.7,0.6h-1.1c-0.2,0-0.3,0-0.3,0.3
		v4.8c0,0.3,0.1,0.5,0.5,0.6c0.2,0,0.4,0,0.6,0s0.3,0,0.3,0.2c0.1,0.2,0.1,0.4,0.2,0.6c0.1,0.7,0.2,1.4,0.2,2.1c0,0.4,0,0.5-0.5,0.6
		c-1,0.3-2,0.4-3,0.3c-0.8,0-1.6-0.3-2.2-0.7c-0.7-0.5-1.2-1.3-1.3-2.2c0-0.2-0.1-0.5,0-0.7L394.2,84z"/>
	<path class="st0" d="M408.5,81.1v7.8c0,0.1,0,0.3,0,0.4c0,0.3-0.3,0.5-0.5,0.5s-0.3,0-0.5,0h-3.1c-0.2,0-0.4,0-0.6,0
		s-0.4-0.2-0.5-0.4c0-0.2,0-0.4,0-0.6V73.4c0-0.1,0-0.3,0-0.4c0-0.3,0.3-0.5,0.6-0.6h3.6c0.2,0,0.4,0,0.6,0.1s0.4,0.3,0.4,0.6
		c0,0.1,0,0.2,0,0.3V81.1z"/>
	<path class="st0" d="M355.8,84.3v-4.2c0-0.3,0-0.6,0.1-0.9c0.1-0.7,0.7-1.3,1.4-1.6c0.5-0.2,1-0.3,1.5-0.3c1.1-0.1,2.2,0,3.2,0h2.5
		c0.4,0,0.6,0.2,0.6,0.6c0,0.8,0,1.7,0,2.5c0,0.4-0.2,0.6-0.7,0.7c-0.5,0-1.1,0-1.6,0.1c-0.4,0.1-0.8,0.2-1.2,0.5
		c-0.4,0.3-0.6,0.7-0.6,1.1c0,0.2,0,0.4,0,0.6v5c0,0.3,0,0.6,0,0.9c0,0.4-0.3,0.7-0.7,0.8h-0.4h-2.7c-0.2,0-0.3,0-0.5,0
		c-0.5,0-0.9-0.5-0.9-1c0-0.1,0-0.2,0-0.3L355.8,84.3z"/>
	<path class="st0" d="M324.1,94.1c0-2,1.6-3.5,3.6-3.5s3.5,1.6,3.5,3.6s-1.6,3.5-3.6,3.5l0,0C325.7,97.6,324.1,96.1,324.1,94.1
		L324.1,94.1z"/>
	<path class="st0" d="M319.2,94.1c0,2-1.6,3.6-3.6,3.6s-3.6-1.6-3.6-3.6s1.6-3.6,3.5-3.6l0,0C317.6,90.5,319.2,92.1,319.2,94.1
		C319.2,94,319.2,94.1,319.2,94.1z"/>
	<path id="path3594" class="st0" d="M491.4,57.4h7.4l-8.6,34.4h-6.1l-5.7-22.3h7c0.6,1.8,1.1,3.8,1.8,5.6L491.4,57.4"/>
	<path id="path3596" class="st0" d="M445.2,61.8h15.1v7h-3.8V92h-7.1V68.9h-4.3L445.2,61.8"/>
	<path id="path3598" class="st0" d="M461.4,68.8h7v-7h-7V68.8z"/>
	<path id="path3600" class="st0" d="M470.5,68.8h7v-7h-7V68.8z"/>
	<path id="path3602" class="st0" d="M461.4,69.6h7v15.1c0,0.3,0.3,0.6,0.6,0.6h1.4V69.6h7.1V92h-11.1c-2.2,0-5-2.5-5-4.7V69.6"/>
	<path id="path3604" class="st0" d="M450.3,102c0,0.7-0.1,1.3-0.5,1.9c-0.3,0.4-0.6,0.7-1.1,0.8c-0.4,0.1-0.9,0.2-1.3,0.2
		c-0.6,0-1.1-0.1-1.6-0.5c-0.4-0.3-0.6-0.7-0.7-1.2s-0.2-1.1-0.1-1.6h1.7c0,0.3,0,0.6,0,0.9c0,0.2,0.1,0.4,0.3,0.6
		c0.2,0.2,0.4,0.3,0.7,0.2c0.3,0,0.5-0.1,0.6-0.3c0.2-0.2,0.2-0.5,0.2-0.8s-0.1-0.7-0.4-0.9c-0.3-0.3-0.5-0.5-0.9-0.7
		c-0.3-0.2-0.7-0.5-1-0.7c-0.3-0.3-0.6-0.6-0.9-1c-0.2-0.4-0.4-0.9-0.4-1.4s0.1-1,0.2-1.4c0.2-0.4,0.4-0.8,0.8-1
		c0.5-0.3,1.1-0.4,1.6-0.4c0.7-0.1,1.4,0.2,1.9,0.7c0.4,0.7,0.6,1.5,0.5,2.3h-1.7c0-0.3,0-0.7-0.1-1s-0.4-0.5-0.7-0.5
		c-0.2,0-0.5,0.1-0.6,0.3c-0.2,0.2-0.2,0.5-0.2,0.8s0.1,0.7,0.4,0.9c0.3,0.3,0.5,0.5,0.9,0.7c0.3,0.2,0.7,0.4,1,0.7
		c0.3,0.3,0.6,0.6,0.9,1C450.2,101,450.3,101.5,450.3,102"/>
	<path id="path3606" class="st2" d="M452,104.6h-1.7l2.3-9.8h2.3l2.2,9.8h-1.7l-0.5-2.2h-2.3L452,104.6z M454.4,101l-0.8-4.3l0,0
		l-0.8,4.3H454.4"/>
	<path id="path3608" class="st2" d="M458.9,104.6h-1.7l2.3-9.8h2.3l2.2,9.8h-1.8l-0.5-2.2h-2.3L458.9,104.6z M461.4,101l-0.8-4.3
		l0,0l-0.8,4.3H461.4"/>
	<path id="path3610" class="st2" d="M466.3,96.3V99h0.8c0.2,0,0.4-0.1,0.6-0.2c0.1-0.2,0.2-0.4,0.3-0.6c0.1-0.2,0.1-0.4,0.1-0.7
		c0-0.4-0.1-0.7-0.3-1c-0.2-0.2-0.4-0.3-0.7-0.3L466.3,96.3L466.3,96.3z M466.3,100.6v4.1h-1.8v-9.8h3.4c0.6,0,1.1,0.2,1.5,0.7
		c0.7,1.1,0.7,2.4,0.2,3.5c-0.3,0.4-0.7,0.7-1.3,0.8l0,0c0.2,0,0.4,0.1,0.6,0.1c0.3,0.1,0.5,0.3,0.7,0.5c0.2,0.4,0.3,0.8,0.3,1.3
		c0,0.2,0,0.5,0,0.9s0,0.8,0.1,1.2c0,0.3,0.1,0.5,0.1,0.8h-1.8c-0.1-0.3-0.2-0.6-0.2-0.9s0-0.7,0-1s0-0.8,0-1.1
		c0-0.3-0.1-0.6-0.3-0.8c-0.3-0.2-0.6-0.3-1-0.3L466.3,100.6"/>
	<path id="path3612" class="st0" d="M476,104.6h-4.6v-9.8h2v7.8h2.6V104.6"/>
	<path id="path3614" class="st2" d="M478.1,104.6h-1.7l2.3-9.8h2.3l2.2,9.8h-1.8l-0.5-2.2h-2.3L478.1,104.6z M480.5,101l-0.8-4.3
		l0,0l-0.8,4.3H480.5"/>
	<path id="path3616" class="st0" d="M485,104.6h-1.6v-9.8h2.3l2.2,6.8l0,0v-6.8h1.6v9.8h-2.3l-2.2-7.2l0,0V104.6"/>
	<path id="path3618" class="st2" d="M492.4,96.3v6.8h0.9c0.5,0.1,1-0.3,1.1-0.8c0.2-0.9,0.3-1.7,0.3-2.6c0-0.6,0-1.2,0-1.7
		c0-0.4-0.1-0.9-0.3-1.2c-0.2-0.3-0.5-0.5-0.9-0.5L492.4,96.3z M490.5,104.6v-9.8h3.1c0.7,0,1.3,0.2,1.8,0.6c0.5,0.5,0.7,1,0.8,1.7
		c0.2,0.9,0.2,1.7,0.2,2.6c0,0.4,0,0.9,0,1.4c0,0.6-0.1,1.1-0.3,1.6c-0.2,0.5-0.5,1-0.9,1.4c-0.5,0.4-1.1,0.6-1.8,0.6L490.5,104.6"
		/>
	<g>
		<path class="st0" d="M531,104.8c0-1.7-0.1-3.3-0.1-5c0-6,0-12,0-18c0-1.1,0.3-1.4,1.4-1.4c10.6,0.1,21.2,0,31.8,0
			c0.7,0,1.4-0.1,1.4,1c-0.1,7.6,0,15.2,0,22.8c0,0.2-0.1,0.3-0.1,0.5C553.9,104.8,542.5,104.8,531,104.8z M548.6,87.3
			c-2.1,0-3.5,1-3.8,2.5c-0.3,1.4,0.5,2.6,2.4,3.4c0.6,0.3,1.3,0.6,2,0.9c0.5,0.2,0.9,0.6,0.7,1.2c-0.1,0.6-0.6,0.8-1.2,0.9
			c-1,0.1-1.8-0.2-2.6-0.7c-0.8-0.5-0.9,0.3-1.3,0.6c-0.5,0.5-0.1,0.7,0.3,1c1.7,0.9,3.5,1.3,5.3,0.4c1.1-0.5,1.7-1.3,1.7-2.6
			c0.1-1.3-0.6-2.1-1.7-2.6c-0.9-0.4-1.8-0.7-2.6-1.2c-0.5-0.2-1-0.5-0.8-1.2c0.1-0.6,0.6-0.8,1.2-0.9c0.6-0.1,1.3,0.1,1.8,0.4
			c0.7,0.5,1,0,1.3-0.5c0.5-0.7-0.1-0.9-0.5-1.1C550.1,87.4,549.3,87.2,548.6,87.3z M540.2,97.9c0.4-0.1,0.9-0.1,1.3-0.2
			c1.6-0.4,2.4-1.3,2.6-2.6c0.1-1.6-0.4-2.3-2.1-3.1c-0.7-0.3-1.4-0.6-2.2-0.9c-0.5-0.2-1-0.5-0.9-1.2s0.7-0.9,1.3-0.9
			c0.7-0.1,1.3,0.2,2,0.5c0.7,0.4,1-0.2,1.3-0.6c0.4-0.6-0.1-0.7-0.5-1c-1.3-0.7-2.6-0.9-4-0.5c-1.3,0.3-2.2,1.4-2.3,2.6
			c-0.1,1.2,0.6,2.2,1.9,2.8c0.8,0.3,1.6,0.6,2.4,1c0.5,0.2,1,0.6,0.9,1.3s-0.7,0.8-1.3,0.9c-0.9,0.1-1.7-0.2-2.4-0.6
			c-1-0.6-1.2,0.3-1.5,0.7c-0.5,0.6,0.2,0.7,0.6,1C538.2,97.7,539.2,97.9,540.2,97.9z M553.3,92.7c0,1.4,0,2.8,0,4.1
			c0,0.7,0.3,0.9,0.9,0.9c1.7,0,3.4,0,5.1,0c0.6,0,0.8-0.2,0.7-0.9c-0.1-0.5-0.1-0.9-0.7-0.9c-0.8,0.1-1.6-0.1-2.5,0
			c-1,0.1-1.4-0.3-1.4-1.4c0.1-2.1,0-4.1,0.1-6.2c0-0.9-0.4-1-1.1-1c-0.7,0-1.2,0.2-1.1,1C553.3,89.9,553.3,91.3,553.3,92.7z"/>
		<path class="st0" d="M549.6,56.8c2.6,0.5,5.1,1.4,7.1,3.3c2.8,2.5,4.2,5.7,4.4,9.4c0.1,2.2,0,4.3,0.1,6.5c0,0.8-0.3,1.2-1.2,1.1
			c-1.3-0.1-2.5-0.1-3.7,0c-1,0.1-1.2-0.3-1.2-1.3c0-2.4,0.2-4.8-0.1-7.3c-0.6-3.6-3.6-6-7.3-5.8c-3.4,0.2-6.4,3-6.4,6.5
			c-0.1,2.2,0,4.3,0.1,6.5c0.1,0.9-0.3,1.4-1.3,1.3c-1.3-0.1-2.5-0.1-3.7,0c-0.7,0-1-0.2-1-1c0.1-2.6-0.1-5.2,0.1-7.9
			c0.3-5.3,4.9-10.2,10.5-11.3c0.3-0.1,0.6-0.1,0.8-0.2C547.6,56.8,548.6,56.8,549.6,56.8z"/>
	</g>
	<g>
		<path class="st0" d="M548.2,45.5c-9,0-18,0-27,0c-2.2,0-4-1.3-4.8-3.3c-0.2-0.5-0.3-1.1-0.3-1.7c0-5.9,0-11.7,0-17.6
			c0-2.5,1.9-4.6,4.3-4.9c0.3,0,0.5-0.1,0.8-0.1c17.9,0,35.8,0,53.7,0c2.6,0,4.6,1.6,5.1,4.1c0.1,0.3,0.1,0.6,0.1,0.8
			c0,5.9,0,11.8,0,17.7c0,2.5-2,4.6-4.4,4.9c-0.3,0-0.6,0-0.8,0C566,45.5,557.1,45.5,548.2,45.5z M535.2,43.4c4.7,0,9.3,0,14,0
			c0.4,0,0.4,0,0.4-0.4c0-7.6,0-15.1,0-22.7c0-0.4,0-0.4-0.4-0.4c-2,0-4,0-6,0c-7.3,0-14.6,0-21.9,0c-1.7,0-3.1,1.3-3.1,3
			c0,5.8,0,11.6,0,17.4c0,0.5,0.1,1,0.4,1.4c0.6,1,1.6,1.6,2.8,1.6C526,43.4,530.6,43.4,535.2,43.4z M554.1,34.2
			c0.1,0,0.1,0.1,0.2,0.2c0.2,0.3,0.5,0.5,0.9,0.7c1.4,0.5,3,0.1,3.8-1.4c0.4-0.8,0.5-1.7,0.4-2.7c-0.1-0.9-0.5-1.6-1.1-2.2
			c-1.2-1.2-3.5-0.8-4.3,0.5c0,0,0,0.1-0.1,0.1c-0.1,0-0.1-0.1-0.1-0.2c0-0.2,0-0.5,0-0.7c0-0.2-0.1-0.3-0.3-0.3c-0.5,0-1.1,0-1.6,0
			c-0.2,0-0.3,0.1-0.3,0.3c0,3,0,6.1,0,9.1c0,0.2,0.1,0.3,0.3,0.3c0.6,0,1.2,0,1.7,0c0.2,0,0.3-0.1,0.3-0.3c0-1,0-2,0-3.1
			C554,34.4,554,34.3,554.1,34.2z M569.4,28.3c-0.3,0-0.6,0-0.9,0c-0.3,0-0.3,0-0.2,0.3c0.9,2.2,1.7,4.3,2.6,6.5
			c0.1,0.1,0.1,0.3,0.1,0.4c-0.2,0.4-0.4,0.7-0.9,0.8c-0.3,0.1-0.7,0-1-0.1c-0.1,0-0.2,0-0.2,0.1c0,0.4-0.1,0.9-0.1,1.3
			c0,0.2,0.1,0.3,0.2,0.3c0.5,0.1,1,0.1,1.6,0.1c0.5,0,0.9-0.2,1.3-0.4c0.5-0.4,0.9-0.9,1.1-1.5c0.4-0.9,0.7-1.8,1.1-2.8
			c0.6-1.6,1.3-3.2,1.9-4.8c0.1-0.2,0.1-0.3-0.2-0.3c-0.6,0-1.2,0-1.8,0c-0.2,0-0.3,0.1-0.3,0.2c-0.2,0.6-0.4,1.3-0.6,1.9
			c-0.2,0.7-0.5,1.5-0.7,2.2c0,0.1,0,0.2-0.1,0.2c-0.1,0-0.1-0.1-0.1-0.2c0,0,0-0.1-0.1-0.1c-0.4-1.3-0.8-2.5-1.3-3.8
			c-0.1-0.2-0.2-0.3-0.4-0.3C570,28.3,569.7,28.3,569.4,28.3z M567.3,32.2c0-0.5,0-0.9,0-1.4c0-1.3-0.7-2.2-2-2.5
			c-1.3-0.3-2.5-0.2-3.8,0.2c-0.1,0-0.2,0.1-0.2,0.3c0,0.4,0,0.8,0,1.2c0,0.1,0,0.2,0.2,0.1c0.2-0.1,0.4-0.2,0.6-0.2
			c0.7-0.2,1.5-0.3,2.2-0.1c0.4,0.1,0.7,0.4,0.8,0.9c0,0.2,0,0.3-0.2,0.2c-0.6-0.1-1.2-0.1-1.8,0c-0.7,0.1-1.4,0.3-1.9,0.7
			c-0.9,0.7-0.9,2.3,0,3.1c0.8,0.7,2.2,0.9,3.1,0.4c0.4-0.2,0.7-0.5,0.9-0.8c0,0,0.1-0.1,0.1-0.1c0.1,0,0.1,0.1,0.1,0.1
			c0,0.2,0,0.4,0,0.7c0,0.2,0.1,0.2,0.2,0.2c0.6,0,1.2,0,1.7,0c0.1,0,0.2,0,0.2-0.2C567.3,34,567.3,33.1,567.3,32.2z"/>
		<path class="st0" d="M527,34.1C527,34.1,526.9,34.1,527,34.1c-0.9,1.1-2.1,1.3-3.3,0.9c-0.8-0.2-1.3-0.7-1.7-1.4
			c-0.7-1.4-0.6-2.9,0.1-4.2c0.4-0.8,1.2-1.2,2.1-1.3c1.2-0.1,2.1,0.2,2.8,1.2c0,0,0,0,0.1,0.1c0-0.3,0-0.6,0-0.9
			c0-0.2,0.1-0.3,0.3-0.3c0.6,0,1.1,0,1.7,0c0.2,0,0.3,0.1,0.3,0.3c0,2.1,0,4.3,0,6.4c0,1-0.3,2-1.3,2.6c-0.5,0.4-1.2,0.5-1.8,0.6
			c-1.2,0.1-2.3,0.1-3.4-0.3c-0.3-0.1-0.4-0.2-0.3-0.5c0-0.5,0.1-0.9,0.1-1.4c0-0.2,0.1-0.2,0.2-0.1c0.6,0.3,1.3,0.5,2,0.5
			c0.4,0,0.8,0,1.2-0.2c0.8-0.3,1.1-1,1.1-1.7C527,34.3,527,34.2,527,34.1C527,34.1,527,34.1,527,34.1z M526.9,31.6
			c0-0.2,0-0.4-0.1-0.6c-0.2-0.7-0.7-1.1-1.4-1.1c-0.6,0-1.1,0.4-1.3,1.1c-0.1,0.4-0.1,0.8,0,1.1c0.1,0.6,0.6,1.1,1.1,1.1
			c0.7,0.1,1.3-0.3,1.5-0.9C526.9,32.1,526.9,31.8,526.9,31.6z"/>
		<path class="st0" d="M544.1,35.3c-1.1,0-2.1-0.3-2.9-1c-1.7-1.4-1.6-4.8,0.9-5.9c1.3-0.5,2.5-0.6,3.8-0.1c1.3,0.5,2.1,1.5,2.2,3
			c0.2,1.6-0.7,3-2.1,3.6c-0.3,0.1-0.6,0.2-0.9,0.3C544.7,35.3,544.4,35.3,544.1,35.3z M545.6,31.7c0-0.4,0-0.8-0.2-1.1
			c-0.3-0.5-0.7-0.8-1.3-0.8c-0.6,0-1.1,0.3-1.3,0.8c-0.3,0.8-0.3,1.5,0,2.3c0.2,0.5,0.6,0.7,1.2,0.7c0.6,0,1-0.2,1.3-0.7
			C545.5,32.5,545.6,32.1,545.6,31.7z"/>
		<path class="st0" d="M537.1,29.3c0.2-0.2,0.4-0.5,0.6-0.7c0.6-0.6,1.4-0.6,2.1-0.5c0.1,0,0.2,0.1,0.2,0.2c0,0.6-0.1,1.1-0.1,1.7
			c0,0.1-0.1,0.1-0.2,0.1c-0.3,0-0.6,0-0.8,0c-0.6,0-1,0.3-1.2,0.8c-0.2,0.3-0.3,0.7-0.3,1.1c0,0.9,0,1.8,0,2.7c0,0.5,0,0.5-0.5,0.5
			c-0.6,0-1.1,0-1.7,0c-0.2,0-0.3-0.1-0.3-0.3c0-2.1,0-4.3,0-6.4c0-0.2,0.1-0.3,0.3-0.3c0.6,0,1.1,0,1.7,0c0.2,0,0.3,0.1,0.3,0.3
			C537.1,28.7,537.1,29,537.1,29.3z"/>
		<path class="st0" d="M533.3,31.7c0,1.1,0,2.1,0,3.2c0,0.3-0.1,0.3-0.3,0.3c-0.6,0-1.2,0-1.8,0c-0.2,0-0.3-0.1-0.3-0.3
			c0-2.1,0-4.3,0-6.4c0-0.2,0.1-0.3,0.3-0.3c0.6,0,1.2,0,1.9,0c0.2,0,0.3,0.1,0.3,0.3C533.3,29.6,533.3,30.6,533.3,31.7z"/>
		<path class="st0" d="M532.1,25.3c0.3,0,0.6,0,1,0c0.2,0,0.3,0.1,0.2,0.2c0,0.4,0,0.9,0,1.3c0,0.2-0.1,0.3-0.2,0.3
			c-0.7,0-1.3,0-2,0c-0.2,0-0.2-0.1-0.2-0.2c0-0.4,0-0.9,0-1.3c0-0.2,0.1-0.2,0.3-0.2C531.5,25.3,531.8,25.3,532.1,25.3z"/>
		<path class="st0" d="M554,31.7c0-0.5,0.1-1,0.5-1.4c0.6-0.6,1.6-0.5,2.1,0.2c0.5,0.7,0.4,1.9-0.1,2.5c-0.7,0.8-1.9,0.6-2.4-0.4
			C554.1,32.3,554,32,554,31.7z"/>
		<path class="st0" d="M563.7,33.7C563.6,33.7,563.6,33.7,563.7,33.7c-0.6-0.1-1-0.3-1-0.8c0-0.4,0.3-0.8,0.8-0.9
			c0.5-0.1,1-0.1,1.5,0c0.1,0,0.2,0.1,0.2,0.2C565.1,33.1,564.4,33.8,563.7,33.7z"/>
	</g>
</g>
</svg>
