<svg id="Providers" xmlns="http://www.w3.org/2000/svg" viewBox="0 0 1200 60"><defs><style>.cls-1{fill:#84d5f7;}.cls-2{opacity:0.6;}</style></defs><title>payment_large_se</title><g id="g4158"><polygon id="polygon9" class="cls-1" points="230.95 44.36 223.77 44.36 228.26 16.59 235.44 16.59 230.95 44.36"/><path id="path11" class="cls-1" d="M257,17.27a17.7,17.7,0,0,0-6.44-1.18c-7.09,0-12.08,3.78-12.11,9.19-.06,4,3.57,6.2,6.29,7.53s3.72,2.25,3.72,3.46c0,1.86-2.24,2.72-4.31,2.72a14.37,14.37,0,0,1-6.74-1.48l-.94-.45-1,6.24a21.84,21.84,0,0,0,8,1.48c7.54,0,12.44-3.73,12.5-9.49,0-3.16-1.89-5.58-6-7.56-2.51-1.27-4-2.13-4-3.43s1.3-2.39,4.14-2.39A12.24,12.24,0,0,1,255.36,23l.65.3,1-6Z"/><path id="path13" class="cls-1" d="M266.53,34.52c.59-1.59,2.86-7.77,2.86-7.77s.59-1.62.95-2.65l.5,2.39s1.36,6.65,1.66,8Zm8.86-17.93h-5.55a3.54,3.54,0,0,0-3.76,2.31L255.42,44.36H263s1.24-3.43,1.51-4.16h9.22l.86,4.16h6.64l-5.79-27.77Z"/><path id="path15" class="cls-1" d="M217.77,16.59l-7,18.94L210,31.69c-1.3-4.43-5.38-9.25-9.93-11.64l6.44,24.28h7.6l11.29-27.74Z"/><path id="path17" class="cls-1" d="M204.21,16.59H192.66l-.12.56c9,2.31,15,7.86,17.43,14.54l-2.51-12.76c-.41-1.78-1.68-2.28-3.25-2.34Z"/></g><path class="cls-1" d="M401.37,40c-3.27,0-6.54,0-9.82,0a3.07,3.07,0,0,1-1-.15,2.26,2.26,0,0,1-1.46-1.69c-.2-.86-.39-1.73-.58-2.59-.36-1.62-.72-3.24-1.09-4.86L386.16,25a1.64,1.64,0,0,1,1-2,3.29,3.29,0,0,1,1.2-.24h3.77c.22,0,.24,0,.24-.25s0-.7,0-1V20.29a9,9,0,0,1,5.4-8.26,8.94,8.94,0,0,1,12.48,7.45c.08,1,0,1.93,0,2.9,0,.39,0,.39.4.39h3.55a3.36,3.36,0,0,1,1.33.27,1.6,1.6,0,0,1,1,1.86c-.19.93-.41,1.86-.61,2.79l-1.8,8.06c-.17.77-.35,1.55-.53,2.32a2.42,2.42,0,0,1-.63,1.19,2.28,2.28,0,0,1-1.57.68h-10.1Zm0-17.18H407a.13.13,0,0,0,.14-.14,1.21,1.21,0,0,0,0-.19v-2a10.48,10.48,0,0,0,0-1.12A5.61,5.61,0,0,0,405,15.57a5.72,5.72,0,0,0-7.91.6,5.62,5.62,0,0,0-1.45,3.8c0,.81,0,1.62,0,2.43,0,.37,0,.37.38.37Zm-.05,3.68h-3.2a1.77,1.77,0,0,0-.32,0,.32.32,0,0,0-.31.37q0,.72,0,1.44c0,.22.07.29.29.33h1.53c.45,0,.46,0,.46.46V34.8a2,2,0,0,0,0,.35.28.28,0,0,0,.27.27h2.11c.52,0,.61-.09.61-.61V28.9c0-.23.06-.28.29-.28s.53,0,.79,0h1c.27,0,.35-.1.36-.37v-.79c0-.21,0-.42,0-.62a.31.31,0,0,0-.28-.35,1.58,1.58,0,0,0-.37,0Z"/><path class="cls-1" d="M458.67,32.47v3.82a5.11,5.11,0,0,1-.39,2,2.65,2.65,0,0,1-2.5,1.69c-2.11,0-4.22,0-6.33,0a3.26,3.26,0,0,1-1.89-.57,3,3,0,0,1-1.17-1.76,6.34,6.34,0,0,1-.18-1.5V28.79a2.82,2.82,0,0,1,.09-.76.9.9,0,0,1,.93-.74h3.18a1.46,1.46,0,0,1,.73.2,1,1,0,0,1,.49.86V34a5.53,5.53,0,0,0,0,.71.81.81,0,0,0,.86.81.88.88,0,0,0,.91-.83c0-.12,0-.25,0-.37V28.6a4.3,4.3,0,0,1,0-.62.69.69,0,0,1,.66-.66,2.56,2.56,0,0,1,.39,0h2.73a3.15,3.15,0,0,1,.44,0,1,1,0,0,1,1,1c0,.1,0,.2,0,.3Z"/><path class="cls-1" d="M427.3,22.76h6.35a2.2,2.2,0,0,1,.57,0,.58.58,0,0,1,.49.6v3.05c0,.31-.13.44-.44.5a2,2,0,0,1-.42,0h-3.2c-.49,0-.55.06-.55.56V38.93c0,.12,0,.23,0,.35a.64.64,0,0,1-.51.62,3.72,3.72,0,0,1-.81.09h-3.23a4.89,4.89,0,0,1-.66-.05.61.61,0,0,1-.62-.67V27.62a1.69,1.69,0,0,0,0-.32.29.29,0,0,0-.3-.3h-3.2a2.28,2.28,0,0,1-.45,0,.44.44,0,0,1-.39-.44,1.55,1.55,0,0,1,0-.22V23.36a.57.57,0,0,1,.44-.53,2,2,0,0,1,.59-.07h6.37Z"/><path class="cls-1" d="M496.87,32.83c.09,0,.09-.13.12-.2.57-1.4,1.13-2.81,1.69-4.21a2.61,2.61,0,0,1,.39-.69,1.21,1.21,0,0,1,.94-.44h2.72a2,2,0,0,1,.59.08.39.39,0,0,1,.3.45,1.06,1.06,0,0,1-.12.43L502,31.67l-3,7.14-2,4.79a2.17,2.17,0,0,1-.53.77,1.08,1.08,0,0,1-.74.29h-2.61a1.38,1.38,0,0,1-.53-.09.37.37,0,0,1-.28-.41,1,1,0,0,1,.1-.38L494,39.94a.72.72,0,0,0,0-.61l-4.44-11a3.1,3.1,0,0,1-.13-.4.44.44,0,0,1,.31-.57,2,2,0,0,1,.68-.09c1.14,0,2.27,0,3.4,0a1.35,1.35,0,0,1,1.34.87c.09.2.16.42.23.63.45,1.28.9,2.55,1.36,3.83C496.78,32.7,496.79,32.78,496.87,32.83Z"/><path class="cls-1" d="M465.87,40.3a19.85,19.85,0,0,1-4.54-.54c-.11,0-.22-.08-.33-.1a.49.49,0,0,1-.42-.48c0-.21-.08-.42-.08-.64a8.68,8.68,0,0,1,0-1.61,2.23,2.23,0,0,1,.1-.43c.1-.27.22-.33.5-.27s.75.18,1.14.24a13.71,13.71,0,0,0,2.64.13,2.05,2.05,0,0,0,.54-.1.74.74,0,0,0,.28-.14.37.37,0,0,0,0-.6,2.43,2.43,0,0,0-.56-.33c-.62-.28-1.26-.53-1.87-.85a5.36,5.36,0,0,1-1.57-1.14,3.62,3.62,0,0,1-.82-3.69,3.41,3.41,0,0,1,1.66-1.9,7.37,7.37,0,0,1,2.57-.86,14.22,14.22,0,0,1,3.26-.12,9.74,9.74,0,0,1,1.7.2l.4.12a.4.4,0,0,1,.29.34,2.63,2.63,0,0,1,0,.49,5.64,5.64,0,0,1-.33,1.72,1.65,1.65,0,0,1-.23.46.43.43,0,0,1-.43.19l-1.48-.19a8.79,8.79,0,0,0-1.36-.07,1.65,1.65,0,0,0-.48.1.35.35,0,0,0-.09.65,7.12,7.12,0,0,0,1.16.61,10.22,10.22,0,0,1,2.22,1.29A4.91,4.91,0,0,1,471,34.07a4.44,4.44,0,0,1,.21,3.87,3.41,3.41,0,0,1-1.53,1.63,6.31,6.31,0,0,1-2,.63A10.22,10.22,0,0,1,465.87,40.3Z"/><path class="cls-1" d="M473.92,34.06V31.21a1.34,1.34,0,0,0,0-.2c0-.16,0-.19-.18-.2h-.43c-.59,0-.84-.22-.86-.81s0-1.24,0-1.86a1.13,1.13,0,0,1,.06-.32.59.59,0,0,1,.45-.45,2,2,0,0,1,.54,0H474c.18,0,.2,0,.21-.2v-.74c0-.21,0-.41,0-.62a.91.91,0,0,1,.42-.77,2,2,0,0,1,.79-.29l2.59-.43a1.78,1.78,0,0,1,.61,0,.45.45,0,0,1,.39.37,1.31,1.31,0,0,1,0,.34v2.19c0,.16,0,.18.2.18h1.24a.68.68,0,0,1,.66.43,1.64,1.64,0,0,1,.13.65v1.84c0,.44-.22.61-.67.62h-1.12c-.23,0-.26,0-.26.26,0,1.58,0,3.17,0,4.76a.5.5,0,0,0,.46.57,2.19,2.19,0,0,0,.57,0c.21,0,.25,0,.33.21a2.54,2.54,0,0,1,.16.6,11,11,0,0,1,.22,2.07c0,.44,0,.48-.46.59a9.63,9.63,0,0,1-3,.32,4,4,0,0,1-2.2-.73A3.24,3.24,0,0,1,474,37.43a4.36,4.36,0,0,1-.05-.72C473.93,35.83,473.92,34.94,473.92,34.06Z"/><path class="cls-1" d="M488.24,31.21V39a2.27,2.27,0,0,1,0,.45.63.63,0,0,1-.54.51,4,4,0,0,1-.49,0h-3.1a5.46,5.46,0,0,1-.57,0,.46.46,0,0,1-.45-.45,3.27,3.27,0,0,1,0-.54V23.46a1.71,1.71,0,0,1,0-.39.66.66,0,0,1,.61-.56h3.57a1.86,1.86,0,0,1,.57.07.59.59,0,0,1,.43.54c0,.11,0,.22,0,.33Z"/><path class="cls-1" d="M435.48,34.36c0-1.42,0-2.83,0-4.24a4.41,4.41,0,0,1,.09-.89,2.17,2.17,0,0,1,1.37-1.59,4.59,4.59,0,0,1,1.52-.32c1.08-.06,2.16,0,3.24,0h2.51c.41,0,.56.15.56.55,0,.85,0,1.69,0,2.53,0,.46-.21.65-.66.65a10.76,10.76,0,0,0-1.6.11,2.8,2.8,0,0,0-1.18.49,1.42,1.42,0,0,0-.61,1.11c0,.18,0,.36,0,.55,0,1.67,0,3.35,0,5,0,.3,0,.6,0,.89a.74.74,0,0,1-.72.77c-.12,0-.24,0-.37,0h-2.7a3.73,3.73,0,0,1-.47,0,1,1,0,0,1-.92-1c0-.11,0-.22,0-.33Z"/><path class="cls-1" d="M403.83,44.14a3.55,3.55,0,1,1,3.52,3.57A3.52,3.52,0,0,1,403.83,44.14Z"/><path class="cls-1" d="M398.93,44.14a3.56,3.56,0,1,1-3.55-3.54A3.53,3.53,0,0,1,398.93,44.14Z"/><path class="cls-1" d="M533.47,39a9.32,9.32,0,0,1,2.36,1.33,14.24,14.24,0,0,0,8.37,2.37,3.72,3.72,0,0,0,3.27-1.73,1.81,1.81,0,0,0-1.11-2.8,5,5,0,0,0-2-.1,9.07,9.07,0,0,1-9.58-7,2.7,2.7,0,0,1-.08-.39,1.36,1.36,0,0,1,1.63-1.56,9.1,9.1,0,0,1,2.42.87l3.46,1.71a4.17,4.17,0,0,0,1.29.43,2.43,2.43,0,0,0,2.73-1.61A2.3,2.3,0,0,0,545,27.69c-1.37-.73-2.79-1.38-4.18-2.07-.51-.24-1-.46-1.51-.74-1.52-.92-1.54-1.95,0-2.83a8.22,8.22,0,0,1,6.42-1,9.35,9.35,0,0,1,5.74,4.1,2.24,2.24,0,0,0,3.86,0,2.64,2.64,0,0,0,0-2.34,8.69,8.69,0,0,0-2.65-3.39,15,15,0,0,0-5.08-2.68,6.17,6.17,0,0,1-1.9-.78,14.7,14.7,0,0,1,4.68.29,15.25,15.25,0,0,1,12,12.37,14,14,0,0,1-3.24,11.77,15.32,15.32,0,0,1-11.32,5.61A15.6,15.6,0,0,1,536,41.83c-.67-.61-1.29-1.29-1.93-1.94A1.89,1.89,0,0,1,533.47,39Z"/><path class="cls-1" d="M678.79,31.3q0-4,0-8c0-1.28.29-1.57,1.55-1.58.24,0,.48,0,.72,0,.95,0,1.26.35,1.27,1.28,0,1.5,0,3,0,4.5,0,.2-.11.48.15.58s.32-.15.48-.24a6.09,6.09,0,0,1,6.47-.19,3.46,3.46,0,0,1,1.72,3.1c.05,3,0,6,0,8.93a1,1,0,0,1-1.12,1.17c-2.15.08-2.49,0-2.44-2.22,0-2,0-4,0-5.94,0-1.7-.54-2.35-2-2.44-1.79-.11-2.95.73-3.14,2.26a64.58,64.58,0,0,0-.16,6.67c0,.57.16,1.29-.56,1.52a3.15,3.15,0,0,1-2.57-.09c-.45-.25-.41-.78-.42-1.23Z"/><path class="cls-1" d="M583.87,35.44h-3.21c-.77,0-.95.29-.69,1a2,2,0,0,0,1.74,1.23,12.87,12.87,0,0,0,4.87-.2c1.19-.19,1.43,0,1.57,1.15.16,1.34-.25,2-1.56,2.27a13.62,13.62,0,0,1-6.44,0A4.76,4.76,0,0,1,576.3,36c0-1.26,0-2.52,0-3.78A5.07,5.07,0,0,1,580.75,27a9.29,9.29,0,0,1,3.75,0,4.85,4.85,0,0,1,4,4.7,9.55,9.55,0,0,1-.07,2.56,1.23,1.23,0,0,1-1.35,1.1h-3.22Zm-1.4-2.9c.64,0,1.29,0,1.93,0s.82-.33.68-.92c-.25-1.11-1.21-1.67-2.71-1.59s-2.28.58-2.47,1.68c-.1.53,0,.84.64.83S581.83,32.53,582.47,32.54Z"/><path class="cls-1" d="M624.9,35.44c-1.09,0-2.19,0-3.29,0-.71,0-.82.37-.64.94a2,2,0,0,0,1.77,1.31,12.82,12.82,0,0,0,4.86-.2c1.21-.19,1.48,0,1.59,1.23s-.28,1.9-1.56,2.19a13.66,13.66,0,0,1-6.45,0A4.76,4.76,0,0,1,617.33,36c0-1.28,0-2.57,0-3.85a5.06,5.06,0,0,1,4.35-5.1,9.32,9.32,0,0,1,3.83,0,4.85,4.85,0,0,1,4,4.69,13,13,0,0,1,0,2.33c-.11,1-.51,1.33-1.54,1.34H624.9Zm-1.36-2.91h0c.62,0,1.23,0,1.85,0s.88-.22.71-1c-.28-1.12-1.31-1.68-2.82-1.53s-2.2.61-2.36,1.71c-.08.49.06.78.61.78Z"/><path class="cls-1" d="M663.35,34.24c0,1,0,1.93,0,2.89a3.61,3.61,0,0,1-2.62,3.64,10.83,10.83,0,0,1-6.8,0,3.44,3.44,0,0,1-2.48-3.31c-.11-1.76.34-3.24,2.07-4.08a6.43,6.43,0,0,1,2.72-.64c1,0,1.93,0,2.89,0,.47,0,.66-.21.68-.68a1.63,1.63,0,0,0-1.41-1.92,9.68,9.68,0,0,0-3-.07c-.32,0-.64.08-1,.09-1.07,0-1.3-.14-1.44-1.05s.23-1.8,1.1-1.95a12.33,12.33,0,0,1,7,.51,3.7,3.7,0,0,1,2.32,3.55C663.38,32.2,663.35,33.22,663.35,34.24Zm-5.57,1.19a6.06,6.06,0,0,0-1.82.14,1.26,1.26,0,0,0-.94,1.26,1.22,1.22,0,0,0,1,1.26,7,7,0,0,0,2.63,0c.82-.16,1.23-1,1.12-2.05s-.81-.53-1.29-.62A5.88,5.88,0,0,0,657.78,35.43Z"/><path class="cls-1" d="M603.5,35.56c0,1.37,0,2.74,0,4.1,0,.88-.33,1.19-1.22,1.24-2.09.13-2.32-.1-2.32-2.17s0-4.07,0-6.11c0-1.67-.59-2.27-2.27-2.33a6.16,6.16,0,0,0-1,0c-1.4.16-1.86.54-2,1.94-.19,2.16-.05,4.33-.07,6.5s-.2,2.23-2.26,2.14c-.92,0-1.28-.35-1.28-1.27,0-2.62,0-5.25,0-7.87s1.91-4.49,4.81-4.8a10.57,10.57,0,0,1,4.07.23,4.48,4.48,0,0,1,3.5,4.44C603.52,32.94,603.5,34.25,603.5,35.56Z"/><path class="cls-1" d="M670.2,41.22a9.75,9.75,0,0,1-3.55-.42,2.23,2.23,0,0,1-1-3.12c.32-.42.76-.35,1.18-.24a14.86,14.86,0,0,0,4.46.41,3.44,3.44,0,0,0,.64,0,.75.75,0,0,0,.72-.54.7.7,0,0,0-.5-.82l-3.68-1.61a4,4,0,0,1-2.69-2.65c-.53-2.38,0-4.8,3.79-5.22a11.84,11.84,0,0,1,4.7.29,2.12,2.12,0,0,1,1.19,3c-.32.52-.85.42-1.31.32a15,15,0,0,0-3.6-.28,5.4,5.4,0,0,0-.56,0,.79.79,0,0,0-.75.62c-.07.39.24.58.54.7,1.19.49,2.39.94,3.57,1.44a4.09,4.09,0,0,1,2.51,2.11c.84,2.09.61,5.24-3,5.86A11.2,11.2,0,0,1,670.2,41.22Z"/><path class="cls-1" d="M607.2,34.16c0-.89,0-1.77,0-2.65,0-.65-.19-.91-.87-.91-1.43,0-1.91-.72-1.55-2.12a1.31,1.31,0,0,1,1.29-1c.91-.08,1.24-.58,1.28-1.41a4.58,4.58,0,0,1,.1-.63c.29-1.63.7-1.93,2.33-1.73a1,1,0,0,1,1,1c0,.59,0,1.18,0,1.76s.22.78.77.77c.88,0,1.76,0,2.65,0s1.2.35,1.25,1.22q0,.41,0,.81c0,1-.37,1.32-1.39,1.33-.81,0-1.61,0-2.41,0-.61,0-.88.19-.87.83,0,1.5,0,3,0,4.5s.63,2,2,1.91c.69,0,1.38-.15,2.07-.24a.82.82,0,0,1,1,.81c.25,1.9-.34,2.68-2.24,2.79a9.93,9.93,0,0,1-2.88-.1,4.35,4.35,0,0,1-3.54-4.29c0-.88,0-1.77,0-2.65Z"/><path class="cls-1" d="M640.56,34.13a17.75,17.75,0,0,1,0-2.73,5.34,5.34,0,0,1,5.25-4.47,8.08,8.08,0,0,1,3.42.29,2.19,2.19,0,0,1,.71,3.09,1.08,1.08,0,0,1-1.13.2,6.84,6.84,0,0,0-3.18-.07A1.77,1.77,0,0,0,644.14,32a15.83,15.83,0,0,0,0,4,1.93,1.93,0,0,0,1.62,1.66,8.4,8.4,0,0,0,3.35,0c1-.14,1.3.15,1.35,1.08.1,1.67-.22,2.13-1.87,2.38a9.5,9.5,0,0,1-4.84-.39,4.75,4.75,0,0,1-3.26-4.59c0-.67,0-1.34,0-2Z"/><path class="cls-1" d="M632,35.4c0-1.2,0-2.41,0-3.62a4.55,4.55,0,0,1,4.59-4.86c.51,0,1,0,1.53,0a1.18,1.18,0,0,1,1.26,1.18,5.44,5.44,0,0,1,0,.57c0,1.48-.12,1.62-1.57,1.63-1.8,0-2.24.45-2.28,2.4,0,2.17,0,4.35,0,6.52,0,.57.17,1.29-.56,1.53a3.24,3.24,0,0,1-2.57-.08c-.39-.21-.41-.66-.41-1.08Z"/><path class="cls-1" d="M769.74,37.45A22.94,22.94,0,0,1,767,40.39a3.5,3.5,0,0,1-2.57.81,2.25,2.25,0,0,1-2.3-2.6c0-2.28.73-4.46,1-6.69,0-.1,0-.19,0-.29.11-.9.21-1.82-.72-2.39a2.73,2.73,0,0,0-2.84.51,3.4,3.4,0,0,0-1.17,2c-.47,2.73-1,5.45-1.44,8.19-.14.93-.56,1.27-1.46,1.17a7.51,7.51,0,0,0-.95,0c-1.49,0-1.47,0-1.2-1.51.46-2.6.93-5.21,1.36-7.81a2.08,2.08,0,0,0-.72-2.4,2.32,2.32,0,0,0-2.76.33,4.14,4.14,0,0,0-1.6,2.63c-.44,2.54-.92,5.08-1.32,7.63-.13.87-.52,1.16-1.39,1.15-2.45,0-2.46,0-2.07-2.4l.32-2c-.62.72-1.07,1.22-1.5,1.73a10.32,10.32,0,0,1-2.43,2.28,3,3,0,0,1-3.43,0,2.77,2.77,0,0,1-.94-2.84c.09-.66.23-1.32.35-2s.24-1.24.4-2.06a6.34,6.34,0,0,0-1.38,1.35,26.17,26.17,0,0,1-4.1,4.38A6.22,6.22,0,0,1,728.12,41c-2-.07-4.08,0-6.12,0-.8,0-1-.24-1-1.07.05-1.81,1.3-2.85,2.29-4.06,1.72-2.09,3.51-4.13,5.25-6.19.18-.21.53-.41.4-.71s-.56-.2-.87-.2c-1.3,0-2.61,0-3.92,0-.78,0-1-.32-.86-1.06a3.55,3.55,0,0,0,.12-.65c.06-.91.5-1.23,1.43-1.21,2.87,0,5.74,0,8.61,0,.78,0,1,.19.94,1.05A5,5,0,0,1,733,29.76q-3.21,3.6-6.41,7.21c-.18.2-.54.38-.4.69s.51.18.78.19c.63,0,1.27,0,1.91,0a4.78,4.78,0,0,0,3.68-1.54c1.86-2,3.67-4.15,5.47-6.26a5.19,5.19,0,0,0,.83-2.9c.13-1,.52-1.41,1.6-1.38,2.3.07,2.32,0,1.94,2.26-.5,2.86-1,5.71-1.54,8.56-.08.4-.26.87.2,1.13s.77-.15,1.06-.44c1.27-1.29,2.38-2.73,3.54-4.13a2.23,2.23,0,0,0,.41-1.06c.3-1.75.62-3.51.92-5.27.09-.48.14-1,.79-1s1.54-.34,2,.6c.68,1.32.71,1.31,1.89.37a5,5,0,0,1,4-1.18,3,3,0,0,1,2.24,1.31c.45.77.77.63,1.36.16a5.8,5.8,0,0,1,4.11-1.51c2.39.17,3.66,1.45,3.67,3.87a37.5,37.5,0,0,1-.83,5.66c-.08.54-.2,1.07-.27,1.6,0,.37-.13.83.3,1s.73-.12,1-.4c.5-.54.92-1.16,1.46-1.64,1.94-1.71,2.43-4,2.74-6.41.1-.82.26-1.64.4-2.45.07-.44.09-1,.69-1s1.48-.34,2,.42a2.42,2.42,0,0,1,.27.5c.27.74.66.73,1.21.27a5.43,5.43,0,0,1,3.84-1.43,3.48,3.48,0,0,1,3,1.84,7.78,7.78,0,0,1,1,4A3.79,3.79,0,0,0,784,33c.34.07.46-.2.63-.37a12.07,12.07,0,0,1,.93-1c2.54-1.88,2.9-4.71,3.3-7.53.11-.85.3-1.69.43-2.54a1,1,0,0,1,1.06-.95c2.78-.09,2.81-.11,2.34,2.59-.76,4.39-1.56,8.78-2.34,13.17a3,3,0,0,0-.08.94c.07.61.41.92,1.06.76a7.8,7.8,0,0,0,2.9-1.79c.35-.28.18-.78.2-1.19a11,11,0,0,1,2.32-7,7.05,7.05,0,0,1,7.07-2.33,4,4,0,0,1,2.51,1.79,2.3,2.3,0,0,1-.69,3.48c-2.18,1.49-4.38,3-6.57,4.45-1,.67-1,1.11-.08,1.89a3.57,3.57,0,0,0,4,0A54.71,54.71,0,0,0,808.85,33a2.12,2.12,0,0,0,.66-1.34c.27-1.57.53-3.15.81-4.71.1-.52.09-1.17.88-1.13s1.6-.31,2,.79.48,1.14,1.51.38a7.54,7.54,0,0,1,2.81-1.38c.49-.11.73,0,.64.59-.16.85-.29,1.7-.44,2.54a.52.52,0,0,1-.65.51A3.58,3.58,0,0,0,813,32.53q-.6,3.59-1.21,7.16c-.25,1.43-.25,1.43-1.7,1.43-2.28,0-2.27,0-1.86-2.24a13.08,13.08,0,0,0,.29-3c-1.09.85-2.19,1.69-3.28,2.55a17.21,17.21,0,0,1-3.18,2.11A5.05,5.05,0,0,1,795.51,39c-.4-.55-.66-.55-1.12-.19a14.34,14.34,0,0,1-2.83,1.78,9.59,9.59,0,0,1-1.16.45c-2.76.73-4.41-.76-3.95-3.57.24-1.44.5-2.87.76-4.32-.45-.06-.59.24-.76.44-1.6,1.86-3.4,3.54-5.13,5.27a7.45,7.45,0,0,1-3.1,1.83,4.32,4.32,0,0,1-4.33-.64c-.45-.37-.64-.3-.74.26-.27,1.61-.59,3.2-.84,4.81a1,1,0,0,1-1.19,1c-2.94,0-2.71.31-2.2-2.6.3-1.79.63-3.58,1-5.37A.72.72,0,0,0,769.74,37.45Zm10.35-5.18a11.07,11.07,0,0,0-.06-1.15,2.1,2.1,0,0,0-3.21-1.75,3.88,3.88,0,0,0-2.26,2.79c-.25,1.22-.39,2.45-.64,3.67a1.28,1.28,0,0,0,.79,1.54,3.32,3.32,0,0,0,4.11-1A6.5,6.5,0,0,0,780.09,32.27Zm18.1,1.12a55.29,55.29,0,0,0,4.75-3.09.74.74,0,0,0-.1-1.17,1.62,1.62,0,0,0-1.6-.33A4.41,4.41,0,0,0,798.19,33.39Z"/><path class="cls-1" d="M743.74,22a2.46,2.46,0,0,1-2.46,2.42,1.87,1.87,0,0,1-1.93-1.81,2.68,2.68,0,0,1,2.55-2.49A1.8,1.8,0,0,1,743.74,22Z"/><path class="cls-1" d="M355.34,46.48v.09h.08l.05,0s0,0,0,0,0,0,0,0h-.13Zm.08-.06a.22.22,0,0,1,.1,0,.1.1,0,0,1,0,.15.1.1,0,0,1-.08,0l.11.12h-.08l-.11-.12h0v.12h-.08v-.32Zm0,.44a.2.2,0,0,0,.11,0,.19.19,0,0,0,.09,0,.24.24,0,0,0,.06-.09.2.2,0,0,0,0-.11.23.23,0,0,0,0-.11.16.16,0,0,0-.06-.08.15.15,0,0,0-.09-.06l-.11,0-.11,0a.15.15,0,0,0-.09.06.27.27,0,0,0-.07.08.43.43,0,0,0,0,.11.36.36,0,0,0,0,.11l.07.09a.19.19,0,0,0,.09,0,.2.2,0,0,0,.11,0m0-.63.15,0,.12.07a.44.44,0,0,1,.08.11.35.35,0,0,1,0,.14.32.32,0,0,1,0,.14.44.44,0,0,1-.08.11l-.12.08-.15,0-.15,0-.12-.08a.44.44,0,0,1-.08-.11.32.32,0,0,1,0-.14.35.35,0,0,1,0-.14.44.44,0,0,1,.08-.11l.12-.07.15,0M320.77,45a1.12,1.12,0,1,1,1.12,1.14A1.08,1.08,0,0,1,320.77,45m3,0V43.2H323v.43a1.45,1.45,0,0,0-1.18-.52,1.86,1.86,0,0,0,0,3.72,1.45,1.45,0,0,0,1.18-.52v.43h.8Zm27.28,0a1.12,1.12,0,1,1,1.12,1.14A1.08,1.08,0,0,1,351.05,45m3,0V41.78h-.8v1.85a1.45,1.45,0,0,0-1.18-.52,1.86,1.86,0,0,0,0,3.72,1.45,1.45,0,0,0,1.18-.52v.43h.8ZM333.79,43.8a.9.9,0,0,1,.94.86h-1.92a.93.93,0,0,1,1-.86m0-.69a1.86,1.86,0,1,0,.05,3.72,2.33,2.33,0,0,0,1.52-.49l-.39-.57a1.88,1.88,0,0,1-1.08.37,1,1,0,0,1-1.11-.87h2.75a2.83,2.83,0,0,0,0-.3,1.73,1.73,0,0,0-1.76-1.86M343.55,45a1.13,1.13,0,1,1,1.13,1.14A1.09,1.09,0,0,1,343.55,45m3,0V43.2h-.81v.43a1.42,1.42,0,0,0-1.17-.52,1.86,1.86,0,1,0,0,3.72,1.42,1.42,0,0,0,1.17-.52v.43h.81ZM339,45a1.83,1.83,0,0,0,2,1.86,2,2,0,0,0,1.33-.42l-.39-.62a1.73,1.73,0,0,1-1,.32,1.14,1.14,0,0,1,0-2.27,1.66,1.66,0,0,1,1,.32l.39-.62a2,2,0,0,0-1.33-.43A1.83,1.83,0,0,0,339,45m10.4-1.86a1.12,1.12,0,0,0-1,.52V43.2h-.8v3.54h.81v-2c0-.59.27-.91.79-.91a1.31,1.31,0,0,1,.51.09l.25-.73a1.73,1.73,0,0,0-.58-.1m-21.64.37a2.89,2.89,0,0,0-1.51-.37c-.94,0-1.54.43-1.54,1.14s.45.93,1.28,1l.38.05c.44.06.65.17.65.37s-.3.43-.85.43a2,2,0,0,1-1.23-.37l-.38.6a2.76,2.76,0,0,0,1.6.46c1.08,0,1.7-.48,1.7-1.15s-.49-1-1.3-1.06l-.38-.06c-.35,0-.63-.11-.63-.34s.27-.42.71-.42a2.44,2.44,0,0,1,1.16.31Zm10.42-.37a1.11,1.11,0,0,0-1,.52V43.2h-.8v3.54h.81v-2c0-.59.26-.91.79-.91a1.34,1.34,0,0,1,.51.09l.24-.73a1.67,1.67,0,0,0-.57-.1m-6.89.09H330V42.13h-.81V43.2h-.76v.71h.76v1.61c0,.82.33,1.31,1.28,1.31a2,2,0,0,0,1-.27l-.23-.66a1.57,1.57,0,0,1-.71.2c-.41,0-.54-.24-.54-.59v-1.6h1.32Zm-12.07,3.54V44.52a1.35,1.35,0,0,0-1.46-1.41,1.49,1.49,0,0,0-1.3.63,1.39,1.39,0,0,0-1.23-.63,1.25,1.25,0,0,0-1.09.53V43.2h-.8v3.54h.81v-2a.85.85,0,0,1,.91-.94c.54,0,.81.33.81.93v2h.81v-2a.86.86,0,0,1,.91-.94c.55,0,.82.33.82.93v2Z"/><path class="cls-1" d="M355.84,35v-.52h-.15l-.16.36-.16-.36h-.14V35h.1v-.39l.15.34h.1l.16-.34V35Zm-.9,0v-.43h.18v-.09h-.46v.09h.18V35Z"/><g class="cls-2"><path class="cls-1" d="M328.31,26.71a13.1,13.1,0,0,1,5.34-10.48A14.29,14.29,0,0,0,325,13.38c-7.72,0-14,6-14,13.33S317.29,40,325,40a14.29,14.29,0,0,0,8.64-2.85,13.1,13.1,0,0,1-5.34-10.48"/></g><g class="cls-2"><path class="cls-1" d="M356.26,26.71c0,7.36-6.26,13.33-14,13.33a14.33,14.33,0,0,1-8.64-2.85,13,13,0,0,0,0-21,14.33,14.33,0,0,1,8.64-2.85c7.72,0,14,6,14,13.33"/></g><path class="cls-1" d="M333.65,37.19a13,13,0,0,1,0-21,13,13,0,0,1,0,21Z"/><path id="path2491" class="cls-1" d="M876.75,31.44c0-.55-.28-.83-.79-.85h-2.7a1,1,0,0,0-1,1.05V36.5a1,1,0,0,0,1.09,1h2.48a.82.82,0,0,0,.64-.29.71.71,0,0,0,.27-.57Zm-8-.69a4.33,4.33,0,0,1,.82-2.77,3.22,3.22,0,0,1,1-.67,3,3,0,0,1,1.27-.29h5c2.19,0,3.31,1.22,3.34,3.59v7.32a3,3,0,0,1-1,2.19,3.14,3.14,0,0,1-2.27,1h-4.69v5.27H868.8V30.75"/><path id="path2493" class="cls-1" d="M886.49,36.84a.56.56,0,0,0,.27.49,1,1,0,0,0,.63.22h2.67c.6,0,.92-.23.93-.71v-1c0-.55-.31-.82-1-.82h-2.64a1.19,1.19,0,0,0-.72.17,1.13,1.13,0,0,0-.18.76Zm4.5-5.48c0-.54-.29-.79-.93-.77h-7V27h7.87q3.43.06,3.5,3.33v7.46a3.46,3.46,0,0,1-.87,2.34,3,3,0,0,1-2.27,1h-4.76c-2.32,0-3.49-1.08-3.53-3.18V35.06c0-2.2,1.14-3.31,3.37-3.35H891v-.35"/><path id="path2495" class="cls-1" d="M904.19,42.83a1.12,1.12,0,0,0,.7-.3.72.72,0,0,0,.28-.57v-.84h-4.44a3.53,3.53,0,0,1-1.39-.23,3.19,3.19,0,0,1-1.1-.73,3.63,3.63,0,0,1-1-2.61V27h3.47v9.4c0,.75.31,1.13.93,1.13h2.45a1.13,1.13,0,0,0,.76-.29.75.75,0,0,0,.3-.59V27h3.45V42.55a4.37,4.37,0,0,1-.89,2.77,2.93,2.93,0,0,1-2.37,1.07h-8.1V42.83h6.93"/><path id="path2497" class="cls-1" d="M911.34,37.55h6.19c.56,0,.86-.25.87-.68v-.32a.62.62,0,0,0-.08-.31c-.14-.27-.31-.4-.51-.4h-3.06a3.41,3.41,0,0,1-2.34-.94,2.7,2.7,0,0,1-1-2V30.19c0-2.08,1.16-3.13,3.38-3.17H922v3.57h-6.08c-.72,0-1.08.22-1.08.65v.35c0,.45.37.68,1.1.68H919a2.86,2.86,0,0,1,2.09.93,3.23,3.23,0,0,1,.91,2.19V38a3.47,3.47,0,0,1-1,2.19,2.76,2.76,0,0,1-1,.74,3.85,3.85,0,0,1-1.37.2h-7.26V37.55"/><path id="path2499" class="cls-1" d="M927.89,36.84a.55.55,0,0,0,.28.49.92.92,0,0,0,.62.22h2.67c.61,0,.92-.23.94-.71v-1c0-.55-.33-.82-1-.82h-2.65a1.19,1.19,0,0,0-.72.17,1.13,1.13,0,0,0-.18.76Zm4.51-5.48c0-.54-.3-.79-.94-.77h-7V27h7.87c2.29,0,3.46,1.15,3.49,3.33v7.46a3.45,3.45,0,0,1-.86,2.34,2.93,2.93,0,0,1-2.27,1h-4.76q-3.48,0-3.52-3.18V35.06c0-2.2,1.13-3.31,3.36-3.35h4.62v-.35"/><path id="path2501" class="cls-1" d="M938.66,25a3,3,0,0,1,1.07-2.32,4,4,0,0,1,2.65-.91h2.21v3.45h-1.34c-.73,0-1.1.37-1.12,1.05V27h2.46v3.57h-2.46V41.12h-3.47V25"/><path id="path2503" class="cls-1" d="M954.46,31.29v-.08a.57.57,0,0,0-.22-.46,1,1,0,0,0-.6-.16h-2.42a1,1,0,0,0-.75.26.76.76,0,0,0-.36.65v1.43Zm-4.3,5v.22a1,1,0,0,0,.23.68.51.51,0,0,0,.45.32H958v3.57h-7.58a5.18,5.18,0,0,1-1.61-.2,3.05,3.05,0,0,1-1.89-1.83,5.19,5.19,0,0,1-.22-1.64l0-7.14Q946.7,27.09,950,27h4.68c2.16,0,3.26,1.17,3.29,3.41v2.82l-7.83,3.08"/><path id="path2505" class="cls-1" d="M965.34,41.12A7.18,7.18,0,0,1,963.9,41a3.2,3.2,0,0,1-1.37-.64,3.29,3.29,0,0,1-1-1.4,4.85,4.85,0,0,1-.28-1.72V30.56a4.27,4.27,0,0,1,.16-1.43,3.07,3.07,0,0,1,.73-1.21,3.39,3.39,0,0,1,1.31-.83,6.13,6.13,0,0,1,1.49-.16h5.32v.83h-5.2a3.65,3.65,0,0,0-2.17.57,2.51,2.51,0,0,0-.81,2.12v6.66a4.44,4.44,0,0,0,.21,1.36,2.78,2.78,0,0,0,.74,1.15,3,3,0,0,0,1.12.54,6.11,6.11,0,0,0,1.23.12h5v.84h-5"/><path id="path2507" class="cls-1" d="M984,32.48h-7a2.65,2.65,0,0,0-2,.78,2.83,2.83,0,0,0-.73,2.07v2.13a4.44,4.44,0,0,0,.13,1.13,1.72,1.72,0,0,0,.65.94,3.06,3.06,0,0,0,2,.75h4.23c1.76,0,2.65-1,2.65-2.8Zm.83,4.8a8.63,8.63,0,0,1-.11,1.42A3.13,3.13,0,0,1,984,40a3.54,3.54,0,0,1-2.71,1.13h-4.15a3.68,3.68,0,0,1-2.63-1,3.4,3.4,0,0,1-1-2.64V35.37c0-2.43,1.24-3.67,3.62-3.72H984v-.94a3.28,3.28,0,0,0-.67-2,2.14,2.14,0,0,0-1-.77,5.22,5.22,0,0,0-1.3-.15h-7.53v-.83h7.14a10.77,10.77,0,0,1,1.78.13,2.23,2.23,0,0,1,.76.32,2.43,2.43,0,0,1,.68.65,4.45,4.45,0,0,1,.94,2.85v6.4"/><path id="path2509" class="cls-1" d="M992.58,27.76c-1.93,0-2.89,1.09-2.85,3.17V41.12h-.83V30.93q-.06-4,3.81-4h.93v.83h-1.06"/><path id="path2511" class="cls-1" d="M1006.63,27.77h-6.57a5,5,0,0,0-1.28.15,2.23,2.23,0,0,0-1.15.73,2.46,2.46,0,0,0-.66,1.07,3.68,3.68,0,0,0-.16,1.3v6.49a2.4,2.4,0,0,0,1,2.21,3.83,3.83,0,0,0,1,.41,4.62,4.62,0,0,0,1.28.16H1003a4.33,4.33,0,0,0,2.63-.75,2.81,2.81,0,0,0,1-2.42Zm.83,9.4q-.11,4-4.26,3.95h-3.09a9,9,0,0,1-1.74-.16,3.32,3.32,0,0,1-1.53-1,3.23,3.23,0,0,1-.7-1.38,5.39,5.39,0,0,1-.16-1.55V31c0-2.73,1.41-4.09,4.13-4.07h6.52v-4.6h.83V37.17"/><path id="path2513" class="cls-1" d="M849.52,26.48a4.14,4.14,0,0,1,.82-.27,5.27,5.27,0,0,1,10.32,0,3.86,3.86,0,0,1,1.93.94,7.09,7.09,0,0,0-.06-1.32,7.07,7.07,0,0,0-14.11.33c0,.33,0,.67,0,1a4.63,4.63,0,0,1,1.12-.7"/><path id="path2515" class="cls-1" d="M859.63,27h-8.48a3,3,0,0,0-1.27.29,3.39,3.39,0,0,0-1,.67,4.33,4.33,0,0,0-.81,2.77v6.63a4.31,4.31,0,0,0,.81,2.77,3.6,3.6,0,0,0,1,.68,3.2,3.2,0,0,0,1.27.29h8.48c2.19,0,3.3-1.23,3.33-3.6V30.61q0-3.55-3.33-3.59"/></svg>