<svg id="Providers" xmlns="http://www.w3.org/2000/svg" viewBox="0 0 564.67 106.56"><defs><style>.cls-1{fill:#84d5f7;}.cls-2{opacity:0.6;}</style></defs><title>payment_se</title><g id="g4158"><polygon id="polygon9" class="cls-1" points="71.42 45.17 64.24 45.17 68.73 17.4 75.91 17.4 71.42 45.17"/><path id="path11" class="cls-1" d="M97.45,18.08A17.51,17.51,0,0,0,91,16.89c-7.09,0-12.09,3.78-12.12,9.19-.06,4,3.58,6.21,6.3,7.54s3.72,2.24,3.72,3.45c0,1.86-2.25,2.72-4.31,2.72a14.22,14.22,0,0,1-6.74-1.48l-1-.44-1,6.23a21.75,21.75,0,0,0,8,1.48c7.53,0,12.44-3.72,12.49-9.48,0-3.16-1.89-5.59-6-7.57-2.51-1.27-4-2.12-4-3.42s1.3-2.4,4.13-2.4a12.19,12.19,0,0,1,5.35,1.07l.65.29,1-6Z"/><path id="path13" class="cls-1" d="M107,35.33l2.87-7.77c0,.06.59-1.63.94-2.66l.51,2.39s1.36,6.65,1.65,8Zm8.87-17.93H110.3a3.54,3.54,0,0,0-3.75,2.3L95.88,45.17h7.54s1.24-3.43,1.5-4.17h9.22c.21,1,.86,4.17.86,4.17h6.65L115.86,17.4Z"/><path id="path15" class="cls-1" d="M58.24,17.4l-7,18.93-.77-3.84c-1.3-4.43-5.38-9.24-9.93-11.64L47,45.14h7.59L65.83,17.4Z"/><path id="path17" class="cls-1" d="M44.68,17.4H33.12L33,18c9,2.3,15,7.86,17.44,14.53L47.93,19.73c-.42-1.77-1.69-2.28-3.25-2.33Z"/></g><path class="cls-1" d="M241.84,40.75H232a2.79,2.79,0,0,1-1-.15,2.22,2.22,0,0,1-1.46-1.69c-.21-.86-.39-1.72-.58-2.58-.37-1.63-.73-3.25-1.09-4.87l-1.26-5.66a1.64,1.64,0,0,1,1-2,3.15,3.15,0,0,1,1.21-.24h3.77c.21,0,.24,0,.24-.25V21.09a8.93,8.93,0,0,1,5.39-8.25,8.67,8.67,0,0,1,4.26-.71,8.94,8.94,0,0,1,7.93,6.52,9,9,0,0,1,.29,1.63c.08,1,0,1.94,0,2.9,0,.39,0,.39.4.39h3.55a3.31,3.31,0,0,1,1.32.26,1.61,1.61,0,0,1,1,1.87c-.19.93-.41,1.86-.62,2.78l-1.8,8.06c-.17.78-.34,1.55-.52,2.32a2.59,2.59,0,0,1-.63,1.19,2.25,2.25,0,0,1-1.58.69H241.84Zm0-17.18h5.58a.14.14,0,0,0,.14-.14v-.2c0-.67,0-1.34,0-2a8.24,8.24,0,0,0,0-1.11,5.61,5.61,0,0,0-2-3.73,5.73,5.73,0,0,0-9.37,4.4c0,.81,0,1.62,0,2.43,0,.36,0,.36.37.36Zm0,3.69h-3.2a1.67,1.67,0,0,0-.32,0c-.23,0-.32.14-.32.37v1.44c0,.22.07.29.29.32h1.54c.45,0,.45,0,.45.46v5.73a2.11,2.11,0,0,0,0,.35.28.28,0,0,0,.28.26h.25c.62,0,1.24,0,1.86,0s.61-.09.61-.6v-5.7a1.77,1.77,0,0,1,0-.23c0-.22.05-.27.28-.27h1.79c.27,0,.35-.1.35-.37s0-.53,0-.8,0-.41,0-.62-.08-.29-.29-.34a1.5,1.5,0,0,0-.37,0Z"/><path class="cls-1" d="M299.13,33.28c0,1.27,0,2.55,0,3.82a4.73,4.73,0,0,1-.39,2,2.65,2.65,0,0,1-2.5,1.7c-2.11,0-4.22,0-6.32,0a3.32,3.32,0,0,1-1.9-.58,3,3,0,0,1-1.16-1.76,5.41,5.41,0,0,1-.18-1.5c0-2.45,0-4.91,0-7.36a3.16,3.16,0,0,1,.08-.76.9.9,0,0,1,.94-.74c1.05,0,2.11,0,3.17,0a1.4,1.4,0,0,1,.74.2,1,1,0,0,1,.49.86c0,1.88,0,3.77,0,5.65a5.81,5.81,0,0,0,.05.72.79.79,0,0,0,.85.8.86.86,0,0,0,.91-.82c0-.13,0-.25,0-.38V29.4a4.17,4.17,0,0,1,0-.61.73.73,0,0,1,.66-.67,2.6,2.6,0,0,1,.4,0c.91,0,1.82,0,2.73,0l.44,0a1,1,0,0,1,.95,1,2.8,2.8,0,0,1,0,.29Z"/><path class="cls-1" d="M267.77,23.57h6.35a2.09,2.09,0,0,1,.56.05.55.55,0,0,1,.49.59c0,1,0,2,0,3.05a.44.44,0,0,1-.43.51,3,3,0,0,1-.42,0h-3.2c-.5,0-.56.06-.56.55V39.74c0,.11,0,.23,0,.34a.63.63,0,0,1-.52.62,2.76,2.76,0,0,1-.81.09H266c-.22,0-.45,0-.67,0a.6.6,0,0,1-.61-.67V28.42c0-.1,0-.21,0-.32a.3.3,0,0,0-.31-.29h-3.2a2.18,2.18,0,0,1-.44,0,.45.45,0,0,1-.4-.44,1.62,1.62,0,0,1,0-.22V24.37a1.34,1.34,0,0,1,0-.2.57.57,0,0,1,.44-.54,1.94,1.94,0,0,1,.59-.06h6.37Z"/><path class="cls-1" d="M337.33,33.64c.1,0,.1-.14.13-.21.56-1.4,1.13-2.8,1.69-4.21a2.31,2.31,0,0,1,.39-.68,1.17,1.17,0,0,1,.93-.44c.91,0,1.82,0,2.73,0a2,2,0,0,1,.59.08.39.39,0,0,1,.3.45,1.21,1.21,0,0,1-.13.42l-1.45,3.42-3,7.14-2,4.79a2.06,2.06,0,0,1-.52.77,1.07,1.07,0,0,1-.75.3h-2.6a1.7,1.7,0,0,1-.54-.09.38.38,0,0,1-.27-.42,1,1,0,0,1,.1-.38c.54-1.28,1.07-2.56,1.62-3.83a.75.75,0,0,0,0-.62c-1.49-3.65-3-7.32-4.45-11a2.67,2.67,0,0,1-.13-.4.47.47,0,0,1,.31-.57,2.67,2.67,0,0,1,.69-.09c1.13,0,2.26,0,3.4,0a1.37,1.37,0,0,1,1.34.88c.09.2.15.41.23.62l1.35,3.84C337.25,33.5,337.26,33.59,337.33,33.64Z"/><path class="cls-1" d="M306.33,41.11a19.32,19.32,0,0,1-4.54-.55l-.33-.1A.48.48,0,0,1,301,40c0-.22-.07-.43-.08-.64a7.86,7.86,0,0,1,0-1.61,2.07,2.07,0,0,1,.1-.43c.1-.27.22-.34.49-.27s.76.18,1.14.24a13,13,0,0,0,2.65.12,1.9,1.9,0,0,0,.53-.09,1,1,0,0,0,.29-.15.37.37,0,0,0,0-.6,2.14,2.14,0,0,0-.55-.32c-.62-.29-1.27-.53-1.87-.85a5.49,5.49,0,0,1-1.58-1.15,3.63,3.63,0,0,1-.81-3.69,3.32,3.32,0,0,1,1.66-1.89,7.25,7.25,0,0,1,2.57-.87,14.81,14.81,0,0,1,3.26-.12,10.55,10.55,0,0,1,1.69.21L311,28a.41.41,0,0,1,.29.34,2.68,2.68,0,0,1,0,.49,5.35,5.35,0,0,1-.32,1.73,1.68,1.68,0,0,1-.24.46.42.42,0,0,1-.43.18L308.83,31a6.86,6.86,0,0,0-1.36-.07A1.28,1.28,0,0,0,307,31a.36.36,0,0,0-.27.3.34.34,0,0,0,.18.35,6.42,6.42,0,0,0,1.16.61,10.09,10.09,0,0,1,2.22,1.3,4.89,4.89,0,0,1,1.15,1.29A4.13,4.13,0,0,1,312,37.5a4,4,0,0,1-.31,1.24,3.34,3.34,0,0,1-1.54,1.63,5.74,5.74,0,0,1-2,.63A11.48,11.48,0,0,1,306.33,41.11Z"/><path class="cls-1" d="M314.39,34.87v-3c0-.17,0-.19-.19-.2s-.2,0-.3,0h-.12c-.59,0-.84-.23-.86-.82s0-1.24,0-1.86a1.25,1.25,0,0,1,.05-.32.59.59,0,0,1,.45-.44,1.65,1.65,0,0,1,.54-.05h.48c.18,0,.2,0,.2-.2s0-.5,0-.75v-.62a.92.92,0,0,1,.43-.77,2,2,0,0,1,.78-.29l2.59-.42a1.62,1.62,0,0,1,.62,0,.47.47,0,0,1,.39.36,1.38,1.38,0,0,1,0,.35v2.18c0,.16,0,.18.19.19h1.24a.67.67,0,0,1,.66.44,1.62,1.62,0,0,1,.14.65v1.71s0,.08,0,.12c0,.45-.21.62-.67.62h-1.11c-.24,0-.26,0-.26.25v4.76a.51.51,0,0,0,.46.58,2.18,2.18,0,0,0,.57,0c.21,0,.25,0,.34.22a2.94,2.94,0,0,1,.16.6,11.91,11.91,0,0,1,.22,2.06c0,.45,0,.49-.46.6a9.92,9.92,0,0,1-3,.31,4,4,0,0,1-2.21-.72,3.29,3.29,0,0,1-1.28-2.14,4.17,4.17,0,0,1-.05-.71Z"/><path class="cls-1" d="M328.7,32c0,2.6,0,5.19,0,7.79a1.6,1.6,0,0,1,0,.44.58.58,0,0,1-.53.51,2.81,2.81,0,0,1-.5,0h-3.1a5.09,5.09,0,0,1-.56,0,.46.46,0,0,1-.46-.44,4.91,4.91,0,0,1,0-.55V24.27a2.6,2.6,0,0,1,0-.4.66.66,0,0,1,.62-.55,1,1,0,0,1,.17,0h3.4a1.76,1.76,0,0,1,.56.07.59.59,0,0,1,.44.54c0,.11,0,.21,0,.32C328.71,26.84,328.7,29.43,328.7,32Z"/><path class="cls-1" d="M275.94,35.16V30.92A3.7,3.7,0,0,1,276,30a2.12,2.12,0,0,1,1.36-1.59,4.69,4.69,0,0,1,1.52-.32c1.08-.07,2.17,0,3.25,0h2.51c.4,0,.56.16.56.56,0,.84,0,1.68,0,2.53,0,.45-.21.65-.66.65a10.88,10.88,0,0,0-1.61.1,3,3,0,0,0-1.18.49,1.47,1.47,0,0,0-.61,1.12c0,.18,0,.36,0,.54v5c0,.29,0,.59,0,.89a.75.75,0,0,1-.72.77l-.37,0h-2.7a3.59,3.59,0,0,1-.47,0,1,1,0,0,1-.92-1c0-.11,0-.21,0-.32Z"/><path class="cls-1" d="M244.3,45a3.55,3.55,0,1,1,3.52,3.56A3.53,3.53,0,0,1,244.3,45Z"/><path class="cls-1" d="M239.4,45a3.56,3.56,0,1,1-3.56-3.55A3.52,3.52,0,0,1,239.4,45Z"/><path class="cls-1" d="M373.94,39.78a8.8,8.8,0,0,1,2.35,1.33,14.34,14.34,0,0,0,8.38,2.37,3.7,3.7,0,0,0,3.26-1.73,1.8,1.8,0,0,0-1.11-2.8,5.15,5.15,0,0,0-2-.11,9.07,9.07,0,0,1-9.58-7,1.77,1.77,0,0,1-.08-.4,1.35,1.35,0,0,1,1.63-1.55,8.7,8.7,0,0,1,2.41.87c1.16.56,2.31,1.14,3.46,1.71a4.16,4.16,0,0,0,1.29.42,2.43,2.43,0,0,0,2.74-1.61,2.3,2.3,0,0,0-1.22-2.77c-1.37-.73-2.78-1.39-4.18-2.07-.5-.25-1-.46-1.51-.75-1.51-.91-1.53-1.94,0-2.83a8.19,8.19,0,0,1,6.43-1,9.25,9.25,0,0,1,5.73,4.1,2.25,2.25,0,0,0,3.87,0,2.62,2.62,0,0,0,0-2.33,8.68,8.68,0,0,0-2.64-3.39A15.1,15.1,0,0,0,388,17.61a6.22,6.22,0,0,1-1.9-.77,14.77,14.77,0,0,1,4.69.28,15.26,15.26,0,0,1,12,12.37,14,14,0,0,1-3.25,11.77,15.27,15.27,0,0,1-11.32,5.62,15.6,15.6,0,0,1-11.83-4.25c-.67-.61-1.29-1.28-1.93-1.93A2,2,0,0,1,373.94,39.78Z"/><path class="cls-1" d="M519.26,32.1v-8c0-1.28.29-1.56,1.56-1.58h.72c.94,0,1.25.34,1.26,1.28,0,1.5,0,3,0,4.5,0,.2-.1.47.15.57s.32-.14.48-.24a6.11,6.11,0,0,1,6.48-.18,3.42,3.42,0,0,1,1.71,3.1c.06,3,0,5.95,0,8.92a1,1,0,0,1-1.12,1.18c-2.16.07-2.49,0-2.44-2.22,0-2,0-4,0-5.95,0-1.69-.55-2.34-2-2.43-1.8-.11-3,.73-3.15,2.26a64.31,64.31,0,0,0-.15,6.66c0,.58.16,1.29-.57,1.53a3.16,3.16,0,0,1-2.57-.1c-.45-.24-.41-.77-.41-1.23Z"/><path class="cls-1" d="M424.34,36.24c-1.07,0-2.14,0-3.22,0-.76,0-.95.29-.69,1a2.1,2.1,0,0,0,1.75,1.23,12.82,12.82,0,0,0,4.86-.2c1.2-.19,1.44,0,1.58,1.15.15,1.33-.26,2-1.56,2.27a13.92,13.92,0,0,1-6.45,0,4.76,4.76,0,0,1-3.84-4.88c0-1.26,0-2.52,0-3.78a5.09,5.09,0,0,1,4.45-5.19,9.11,9.11,0,0,1,3.75,0,4.85,4.85,0,0,1,4,4.69,9.55,9.55,0,0,1-.08,2.56,1.23,1.23,0,0,1-1.35,1.11c-1.07,0-2.14,0-3.21,0Zm-1.41-2.9c.65,0,1.29,0,1.93,0s.82-.34.69-.93c-.26-1.1-1.22-1.67-2.71-1.59s-2.28.58-2.48,1.69c-.09.53.05.83.65.82S422.29,33.34,422.93,33.34Z"/><path class="cls-1" d="M465.37,36.24h-3.3c-.71,0-.81.36-.64.94a2.06,2.06,0,0,0,1.77,1.31,12.88,12.88,0,0,0,4.87-.2c1.2-.19,1.48,0,1.58,1.23a1.72,1.72,0,0,1-1.56,2.19,13.88,13.88,0,0,1-6.44,0,4.75,4.75,0,0,1-3.85-4.88c0-1.29,0-2.57,0-3.86a5.07,5.07,0,0,1,4.36-5.1,9.33,9.33,0,0,1,3.83,0,4.82,4.82,0,0,1,4,4.69,12.84,12.84,0,0,1,0,2.32c-.11,1-.52,1.34-1.55,1.35ZM464,33.34h1.84c.75,0,.89-.22.71-1-.27-1.11-1.31-1.67-2.82-1.53s-2.19.61-2.36,1.71c-.07.5.06.79.62.78S463.34,33.34,464,33.34Z"/><path class="cls-1" d="M503.81,35c0,1,0,1.93,0,2.9a3.61,3.61,0,0,1-2.62,3.64,10.87,10.87,0,0,1-6.79,0,3.46,3.46,0,0,1-2.48-3.32c-.11-1.75.34-3.24,2.07-4.08a6.23,6.23,0,0,1,2.71-.63c1,0,1.93,0,2.9,0,.47,0,.66-.21.68-.68a1.64,1.64,0,0,0-1.41-1.92,9.69,9.69,0,0,0-3-.06c-.32,0-.64.08-1,.09-1.07,0-1.31-.14-1.44-1.06s.23-1.8,1.1-1.94a12.2,12.2,0,0,1,7,.5A3.72,3.72,0,0,1,503.81,32C503.84,33,503.81,34,503.81,35Zm-5.56,1.19a5.81,5.81,0,0,0-1.83.15,1.24,1.24,0,0,0-.93,1.26,1.22,1.22,0,0,0,1,1.26,6.9,6.9,0,0,0,2.64,0c.82-.15,1.22-1,1.12-2s-.81-.53-1.3-.62A4.14,4.14,0,0,0,498.25,36.23Z"/><path class="cls-1" d="M444,36.37c0,1.37,0,2.73,0,4.1,0,.88-.33,1.18-1.21,1.24-2.09.12-2.33-.1-2.33-2.17s0-4.08,0-6.11c0-1.68-.6-2.27-2.27-2.33a7.65,7.65,0,0,0-1,0c-1.4.16-1.86.54-2,1.94-.2,2.16-.06,4.34-.07,6.51s-.2,2.23-2.26,2.14c-.93,0-1.28-.36-1.29-1.27,0-2.63-.05-5.25,0-7.88s1.9-4.48,4.81-4.8a10.77,10.77,0,0,1,4.07.24A4.47,4.47,0,0,1,444,32.43C444,33.74,444,35.06,444,36.37Z"/><path class="cls-1" d="M510.66,42a9.7,9.7,0,0,1-3.54-.42,2.23,2.23,0,0,1-1-3.12,1,1,0,0,1,1.18-.23,14.92,14.92,0,0,0,4.46.41c.22,0,.43,0,.64,0s.64-.18.72-.55a.7.7,0,0,0-.49-.82l-3.68-1.61c-1.24-.53-2.38-1.22-2.69-2.65-.53-2.37,0-4.8,3.79-5.22a12.23,12.23,0,0,1,4.7.29,2.11,2.11,0,0,1,1.18,3c-.32.52-.85.42-1.31.32a14.39,14.39,0,0,0-3.59-.27,3.44,3.44,0,0,0-.56,0,.8.8,0,0,0-.76.61c-.07.39.25.58.54.71,1.19.49,2.4.94,3.58,1.43A4.13,4.13,0,0,1,516.32,36c.84,2.08.6,5.23-3,5.86A11.88,11.88,0,0,1,510.66,42Z"/><path class="cls-1" d="M447.66,35c0-.88,0-1.77,0-2.65,0-.64-.2-.91-.87-.91-1.43,0-1.91-.72-1.55-2.11a1.31,1.31,0,0,1,1.28-1c.92-.07,1.24-.58,1.29-1.4a4.49,4.49,0,0,1,.1-.64c.28-1.62.69-1.92,2.33-1.72a.94.94,0,0,1,.94,1c0,.59,0,1.18,0,1.77s.21.78.76.77c.88,0,1.77,0,2.65,0s1.2.36,1.25,1.23a7.12,7.12,0,0,1,0,.8c0,1-.36,1.32-1.39,1.34-.8,0-1.6,0-2.41,0-.6,0-.88.19-.86.83,0,1.5,0,3,0,4.5s.64,1.94,2,1.9a20.83,20.83,0,0,0,2.07-.24.82.82,0,0,1,1,.82c.25,1.89-.35,2.67-2.25,2.79a9.93,9.93,0,0,1-2.88-.1,4.38,4.38,0,0,1-3.54-4.3c0-.88,0-1.76,0-2.65Z"/><path class="cls-1" d="M481,34.93a19.11,19.11,0,0,1,0-2.73,5.35,5.35,0,0,1,5.26-4.46,7.92,7.92,0,0,1,3.42.28,2.2,2.2,0,0,1,.7,3.1,1.1,1.1,0,0,1-1.13.2,6.7,6.7,0,0,0-3.18-.07,1.73,1.73,0,0,0-1.5,1.56,15.75,15.75,0,0,0,0,4,1.93,1.93,0,0,0,1.63,1.67,8.58,8.58,0,0,0,3.35,0c1-.13,1.29.15,1.35,1.09.1,1.66-.22,2.12-1.87,2.38a9.61,9.61,0,0,1-4.84-.39,4.77,4.77,0,0,1-3.27-4.6c0-.67,0-1.34,0-2Z"/><path class="cls-1" d="M472.44,36.21V32.59A4.54,4.54,0,0,1,477,27.73c.5,0,1,0,1.52,0a1.21,1.21,0,0,1,1.27,1.19,5.15,5.15,0,0,1,0,.56c0,1.49-.11,1.62-1.57,1.63-1.79,0-2.24.46-2.27,2.41,0,2.17,0,4.34,0,6.51,0,.57.17,1.29-.55,1.54a3.24,3.24,0,0,1-2.57-.09c-.4-.2-.42-.66-.42-1.07Z"/><path class="cls-1" d="M195.8,47.28v.09h.13s0,0,0,0a.05.05,0,0,0,0,0h-.13Zm.09-.06a.15.15,0,0,1,.1,0,.1.1,0,0,1,0,.08.07.07,0,0,1,0,.06l-.08,0,.11.12h-.09l-.1-.12h0v.12h-.07v-.33Zm0,.44.11,0,.09-.06a.35.35,0,0,0,.06-.09.36.36,0,0,0,0-.1.36.36,0,0,0,0-.11l-.06-.09-.09-.06-.11,0-.12,0-.09.06a.47.47,0,0,0-.06.09.36.36,0,0,0,0,.11.36.36,0,0,0,0,.1.2.2,0,0,0,.06.09l.09.06.12,0m0-.63a.32.32,0,0,1,.14,0,.36.36,0,0,1,.12.08.28.28,0,0,1,.08.11.32.32,0,0,1,0,.14.31.31,0,0,1,0,.13.23.23,0,0,1-.08.11.25.25,0,0,1-.12.08.32.32,0,0,1-.14,0,.33.33,0,0,1-.15,0,.25.25,0,0,1-.12-.08.23.23,0,0,1-.08-.11.31.31,0,0,1,0-.13.32.32,0,0,1,0-.14.28.28,0,0,1,.08-.11.36.36,0,0,1,.12-.08.33.33,0,0,1,.15,0m-34.64-1.25a1.13,1.13,0,1,1,1.13,1.13,1.09,1.09,0,0,1-1.13-1.13m3,0V44h-.81v.43a1.42,1.42,0,0,0-1.17-.52,1.86,1.86,0,1,0,0,3.72,1.42,1.42,0,0,0,1.17-.52v.43h.81Zm27.27,0a1.13,1.13,0,1,1,1.13,1.13,1.09,1.09,0,0,1-1.13-1.13m3,0V42.59h-.81v1.85a1.42,1.42,0,0,0-1.17-.52,1.86,1.86,0,1,0,0,3.72,1.42,1.42,0,0,0,1.17-.52v.43h.81Zm-20.26-1.17a.91.91,0,0,1,.94.86h-1.93a.94.94,0,0,1,1-.86m0-.69a1.77,1.77,0,0,0-1.85,1.86,1.8,1.8,0,0,0,1.91,1.86,2.34,2.34,0,0,0,1.52-.5l-.4-.57a1.79,1.79,0,0,1-1.08.37,1,1,0,0,1-1.11-.87H176a2.64,2.64,0,0,0,0-.29,1.74,1.74,0,0,0-1.77-1.86M184,45.78a1.12,1.12,0,1,1,2.24,0,1.12,1.12,0,1,1-2.24,0m3,0V44h-.8v.43a1.44,1.44,0,0,0-1.17-.52,1.86,1.86,0,0,0,0,3.72,1.44,1.44,0,0,0,1.17-.52v.43h.8Zm-7.56,0a1.84,1.84,0,0,0,2,1.86,2,2,0,0,0,1.34-.43l-.39-.62a1.66,1.66,0,0,1-1,.32,1.14,1.14,0,0,1,0-2.27,1.73,1.73,0,0,1,1,.32l.39-.62a2,2,0,0,0-1.34-.42,1.83,1.83,0,0,0-2,1.86m10.41-1.86a1.11,1.11,0,0,0-1,.52V44h-.8v3.54h.81v-2c0-.58.26-.91.79-.91a1.29,1.29,0,0,1,.5.09l.25-.72a1.71,1.71,0,0,0-.57-.1m-21.64.37a2.91,2.91,0,0,0-1.51-.37c-.94,0-1.55.43-1.55,1.13s.45.94,1.28,1.05l.38,0c.45.06.65.17.65.37s-.29.43-.84.43a2.08,2.08,0,0,1-1.24-.37l-.38.6a2.82,2.82,0,0,0,1.61.46c1.07,0,1.69-.48,1.69-1.16s-.49-.95-1.29-1.06l-.38-.05c-.35,0-.63-.11-.63-.35s.26-.41.7-.41a2.5,2.5,0,0,1,1.16.3Zm10.42-.37a1.11,1.11,0,0,0-1,.52V44h-.8v3.54h.8v-2c0-.58.27-.91.8-.91a1.29,1.29,0,0,1,.5.09l.25-.72a1.71,1.71,0,0,0-.57-.1m-6.89.09h-1.32V42.93h-.82V44h-.75v.7h.75v1.62c0,.82.34,1.31,1.29,1.31a2,2,0,0,0,1-.28l-.23-.66a1.48,1.48,0,0,1-.72.2c-.4,0-.53-.23-.53-.59v-1.6h1.32Zm-12.07,3.54V45.33a1.35,1.35,0,0,0-1.46-1.41,1.45,1.45,0,0,0-1.31.63,1.37,1.37,0,0,0-1.22-.63,1.25,1.25,0,0,0-1.09.52V44h-.81v3.54h.82v-2a.85.85,0,0,1,.91-1c.53,0,.8.34.8.94v2h.82v-2a.86.86,0,0,1,.91-1c.55,0,.81.34.81.94v2Z"/><path class="cls-1" d="M196.3,35.78v-.52h-.14l-.16.35-.17-.35h-.14v.52h.1v-.39l.15.33h.11l.15-.34v.4Zm-.9,0v-.43h.19v-.09h-.47v.09h.18v.43Z"/><g class="cls-2"><path class="cls-1" d="M168.78,27.52A13.12,13.12,0,0,1,174.12,17a14.4,14.4,0,0,0-8.64-2.85c-7.72,0-14,6-14,13.34s6.26,13.33,14,13.33A14.4,14.4,0,0,0,174.12,38a13.1,13.1,0,0,1-5.34-10.48"/></g><g class="cls-2"><path class="cls-1" d="M196.73,27.52c0,7.36-6.26,13.33-14,13.33A14.4,14.4,0,0,1,174.11,38a13,13,0,0,0,0-21,14.4,14.4,0,0,1,8.64-2.85c7.72,0,14,6,14,13.34"/></g><path class="cls-1" d="M174.11,38a13,13,0,0,1,0-21,12.94,12.94,0,0,1,0,21Z"/><path class="cls-1" d="M187.82,81.14A22.94,22.94,0,0,1,185,84.08a3.52,3.52,0,0,1-2.57.81,2.25,2.25,0,0,1-2.3-2.6c0-2.28.72-4.46,1-6.69,0-.1.05-.19.06-.29.11-.9.21-1.82-.73-2.39a2.74,2.74,0,0,0-2.84.51,3.5,3.5,0,0,0-1.17,2c-.47,2.73-1,5.45-1.43,8.19-.15.93-.56,1.27-1.46,1.17a7.53,7.53,0,0,0-1,0c-1.49,0-1.48,0-1.2-1.51.46-2.6.92-5.21,1.36-7.81a2.08,2.08,0,0,0-.72-2.4,2.32,2.32,0,0,0-2.76.33,4.14,4.14,0,0,0-1.6,2.63c-.45,2.54-.92,5.08-1.32,7.63-.13.87-.52,1.16-1.39,1.15-2.46,0-2.46,0-2.08-2.4.09-.56.19-1.12.32-2l-1.5,1.73a10.08,10.08,0,0,1-2.42,2.28,3,3,0,0,1-3.43,0,2.75,2.75,0,0,1-.94-2.84c.09-.66.22-1.32.35-2s.24-1.24.4-2.06a6.34,6.34,0,0,0-1.38,1.35,26.58,26.58,0,0,1-4.1,4.38,6.23,6.23,0,0,1-4.07,1.39c-2-.06-4.08,0-6.12,0-.79,0-1-.24-.94-1.07.05-1.81,1.3-2.85,2.29-4.06,1.72-2.09,3.5-4.13,5.25-6.19.18-.21.53-.41.4-.71s-.57-.2-.87-.2c-1.3,0-2.61,0-3.92,0-.78,0-1-.32-.86-1.06a3.55,3.55,0,0,0,.12-.65c.06-.91.5-1.23,1.43-1.21,2.87,0,5.74,0,8.6,0,.78,0,1,.19,1,1a5,5,0,0,1-1.46,2.92q-3.23,3.6-6.41,7.21c-.18.2-.54.38-.4.69s.5.18.77.19c.64,0,1.28,0,1.92,0A4.78,4.78,0,0,0,150.62,80c1.86-2.05,3.67-4.15,5.47-6.26a5.1,5.1,0,0,0,.82-2.9c.14-1,.53-1.41,1.6-1.38,2.31.07,2.33,0,1.94,2.26-.49,2.86-1,5.71-1.53,8.56-.08.4-.26.87.2,1.13s.77-.15,1-.44c1.28-1.29,2.39-2.73,3.55-4.13a2.19,2.19,0,0,0,.41-1.06c.3-1.75.62-3.51.92-5.27.09-.48.14-1,.79-1s1.54-.34,2,.6c.68,1.32.71,1.31,1.89.37a5,5,0,0,1,4-1.18A2.91,2.91,0,0,1,176,70.63c.46.76.78.63,1.37.15a5.8,5.8,0,0,1,4.11-1.51c2.39.17,3.66,1.45,3.67,3.87a38.82,38.82,0,0,1-.83,5.66c-.08.54-.2,1.07-.27,1.6,0,.38-.14.83.3,1s.73-.12,1-.4a20.82,20.82,0,0,1,1.46-1.64c1.93-1.71,2.43-4,2.74-6.41.1-.82.26-1.64.4-2.45.07-.44.09-1,.68-1s1.49-.34,2,.42a2.42,2.42,0,0,1,.27.5c.27.74.66.73,1.2.27A5.47,5.47,0,0,1,198,69.3a3.48,3.48,0,0,1,3,1.84,7.88,7.88,0,0,1,1,4,3.79,3.79,0,0,0,.08,1.5c.34.07.46-.2.63-.37a12.07,12.07,0,0,1,.93-1c2.54-1.88,2.9-4.71,3.29-7.52.12-.86.31-1.7.44-2.55a1,1,0,0,1,1.06-1c2.78-.09,2.81-.11,2.34,2.59-.76,4.39-1.56,8.78-2.34,13.17a3,3,0,0,0-.08.94c.07.61.41.92,1.06.76A7.8,7.8,0,0,0,212.3,80c.34-.28.18-.78.2-1.18.11-2.57.58-5,2.32-7a7.05,7.05,0,0,1,7.07-2.33,4,4,0,0,1,2.51,1.79,2.3,2.3,0,0,1-.69,3.48c-2.18,1.49-4.38,3-6.57,4.45-1,.67-1,1.11-.08,1.89a3.57,3.57,0,0,0,4,0,53.63,53.63,0,0,0,5.9-4.38,2.09,2.09,0,0,0,.67-1.34c.26-1.57.53-3.15.81-4.71.09-.52.09-1.17.88-1.13s1.6-.31,2,.79.48,1.14,1.51.38a7.54,7.54,0,0,1,2.81-1.38c.49-.11.73,0,.63.59-.15.85-.28,1.7-.43,2.54a.52.52,0,0,1-.65.51,3.58,3.58,0,0,0-4.08,3.28q-.62,3.59-1.21,7.16c-.25,1.43-.25,1.43-1.7,1.43-2.28,0-2.28,0-1.86-2.24a13.08,13.08,0,0,0,.29-3c-1.09.85-2.19,1.69-3.28,2.55a17.21,17.21,0,0,1-3.18,2.11,5.05,5.05,0,0,1-6.54-1.59c-.4-.55-.66-.55-1.13-.19a14.26,14.26,0,0,1-2.82,1.78,9.59,9.59,0,0,1-1.16.45c-2.76.73-4.41-.76-3.95-3.57.24-1.44.5-2.87.76-4.32-.45-.06-.59.24-.76.44-1.6,1.86-3.4,3.54-5.13,5.27a7.35,7.35,0,0,1-3.1,1.83A4.32,4.32,0,0,1,192,83.7c-.45-.37-.64-.3-.74.27-.27,1.6-.59,3.19-.84,4.8a1,1,0,0,1-1.19,1c-2.94,0-2.71.31-2.21-2.6.31-1.79.64-3.58,1-5.37A.72.72,0,0,0,187.82,81.14ZM198.17,76a11.07,11.07,0,0,0-.06-1.15,2.1,2.1,0,0,0-3.21-1.75,3.86,3.86,0,0,0-2.26,2.79c-.25,1.22-.39,2.45-.64,3.67a1.28,1.28,0,0,0,.79,1.54,3.32,3.32,0,0,0,4.11-1A6.48,6.48,0,0,0,198.17,76Zm18.1,1.12A55.29,55.29,0,0,0,221,74a.74.74,0,0,0-.1-1.17,1.62,1.62,0,0,0-1.6-.33A4.41,4.41,0,0,0,216.27,77.08Z"/><path class="cls-1" d="M161.82,65.69a2.48,2.48,0,0,1-2.46,2.42,1.86,1.86,0,0,1-1.93-1.81A2.68,2.68,0,0,1,160,63.81,1.8,1.8,0,0,1,161.82,65.69Z"/><path id="path2491" class="cls-1" d="M294.83,75.13c0-.55-.28-.83-.79-.85h-2.7a1,1,0,0,0-1,1v4.86a1,1,0,0,0,1.09,1h2.48a.82.82,0,0,0,.64-.29.71.71,0,0,0,.27-.57Zm-7.95-.69a4.39,4.39,0,0,1,.81-2.77,3.39,3.39,0,0,1,1-.67,3.2,3.2,0,0,1,1.27-.29h5q3.29,0,3.34,3.59v7.32a3,3,0,0,1-1,2.19,3.15,3.15,0,0,1-2.27,1h-4.69v5.27h-3.47V74.44"/><path id="path2493" class="cls-1" d="M304.57,80.53a.56.56,0,0,0,.27.49,1,1,0,0,0,.63.22h2.67c.6,0,.91-.23.93-.71v-1c0-.55-.32-.82-1-.82h-2.64a.72.72,0,0,0-.9.93Zm4.5-5.48c0-.54-.29-.79-.93-.77h-7V70.71H309c2.29,0,3.46,1.15,3.49,3.33V81.5a3.45,3.45,0,0,1-.86,2.34,3,3,0,0,1-2.27,1h-4.76c-2.32,0-3.49-1.08-3.53-3.18V78.75c0-2.2,1.14-3.31,3.36-3.35h4.62v-.35"/><path id="path2495" class="cls-1" d="M322.26,86.52a1.12,1.12,0,0,0,.71-.3.72.72,0,0,0,.28-.57v-.84h-4.44a3.53,3.53,0,0,1-1.39-.23,3.19,3.19,0,0,1-1.1-.73,3.72,3.72,0,0,1-.75-1.18,3.93,3.93,0,0,1-.23-1.43V70.71h3.47v9.4c0,.75.3,1.13.93,1.13h2.45a1.08,1.08,0,0,0,.75-.29.73.73,0,0,0,.31-.59V70.71h3.44V86.24a4.37,4.37,0,0,1-.88,2.77,3,3,0,0,1-2.37,1.07h-8.1V86.52h6.92"/><path id="path2497" class="cls-1" d="M329.42,81.24h6.19c.56,0,.86-.25.87-.68v-.32a.79.79,0,0,0-.08-.31c-.14-.27-.31-.4-.51-.4h-3.07a3.43,3.43,0,0,1-2.34-.94,2.67,2.67,0,0,1-1-2V73.88c0-2.08,1.16-3.13,3.38-3.17H340v3.57H334c-.72,0-1.08.22-1.08.65v.35c0,.45.37.68,1.1.68H337a2.85,2.85,0,0,1,2.09.94,3.13,3.13,0,0,1,.9,2.18v2.6a3.39,3.39,0,0,1-1,2.19,2.76,2.76,0,0,1-1,.74,3.85,3.85,0,0,1-1.37.2h-7.26V81.24"/><path id="path2499" class="cls-1" d="M346,80.53a.56.56,0,0,0,.29.49.9.9,0,0,0,.62.22h2.67c.61,0,.92-.23.93-.71v-1c0-.55-.32-.82-1-.82h-2.64a1.19,1.19,0,0,0-.72.17,1.14,1.14,0,0,0-.19.76Zm4.51-5.48c0-.54-.29-.79-.93-.77h-7V70.71h7.87c2.29,0,3.46,1.15,3.49,3.33V81.5a3.5,3.5,0,0,1-.86,2.34,3,3,0,0,1-2.27,1H346q-3.48,0-3.52-3.18V78.75c0-2.2,1.13-3.31,3.36-3.35h4.61v-.35"/><path id="path2501" class="cls-1" d="M356.74,68.69a3,3,0,0,1,1.07-2.32,4,4,0,0,1,2.65-.91h2.21v3.45h-1.34c-.73,0-1.11.37-1.12,1v.75h2.46v3.57h-2.46V84.81h-3.47V68.69"/><path id="path2503" class="cls-1" d="M372.54,75V74.9a.57.57,0,0,0-.22-.46,1,1,0,0,0-.6-.16H369.3a1,1,0,0,0-.75.26.76.76,0,0,0-.36.65v1.43Zm-4.3,5v.22a1,1,0,0,0,.23.68.5.5,0,0,0,.45.32h7.13v3.57h-7.58a5.18,5.18,0,0,1-1.61-.2A3.05,3.05,0,0,1,365,82.78a4.92,4.92,0,0,1-.22-1.64l0-7.14q.06-3.23,3.38-3.29h4.68c2.16,0,3.26,1.17,3.29,3.41v2.82L368.24,80"/><path id="path2505" class="cls-1" d="M383.42,84.81a7.18,7.18,0,0,1-1.44-.14,3.2,3.2,0,0,1-1.37-.64,3.29,3.29,0,0,1-1-1.4,4.85,4.85,0,0,1-.28-1.72V74.25a4.27,4.27,0,0,1,.16-1.43,3.07,3.07,0,0,1,.73-1.21,3.32,3.32,0,0,1,1.31-.83,6.1,6.1,0,0,1,1.48-.16h5.33v.83h-5.2A3.65,3.65,0,0,0,381,72a2.51,2.51,0,0,0-.81,2.12V80.8a4.44,4.44,0,0,0,.21,1.36,2.78,2.78,0,0,0,.74,1.15,3,3,0,0,0,1.12.54,6,6,0,0,0,1.23.12h5v.84h-5"/><path id="path2507" class="cls-1" d="M402,76.17h-7a2.66,2.66,0,0,0-2,.78,2.87,2.87,0,0,0-.72,2.07v2.13a4.44,4.44,0,0,0,.13,1.13,1.67,1.67,0,0,0,.65.94,3.06,3.06,0,0,0,2,.75h4.22c1.77,0,2.66-1,2.66-2.8Zm.83,4.8a8.63,8.63,0,0,1-.11,1.42,3.13,3.13,0,0,1-.69,1.29,3.5,3.5,0,0,1-2.71,1.13H395.2a3.68,3.68,0,0,1-2.63-1,3.4,3.4,0,0,1-1-2.64V79.06q0-3.65,3.62-3.72h6.91V74.4a3.28,3.28,0,0,0-.67-2,2.14,2.14,0,0,0-1-.77,5.22,5.22,0,0,0-1.3-.15h-7.54v-.83h7.15a10.86,10.86,0,0,1,1.78.13,2.27,2.27,0,0,1,.75.32,2.33,2.33,0,0,1,.69.65,4.45,4.45,0,0,1,.94,2.85V81"/><path id="path2509" class="cls-1" d="M410.66,71.45c-1.94,0-2.89,1.09-2.85,3.17V84.81H407V74.63c0-2.68,1.23-4,3.81-4h.93v.83h-1.06"/><path id="path2511" class="cls-1" d="M424.71,71.46h-6.57a5.13,5.13,0,0,0-1.29.15,2.2,2.2,0,0,0-1.14.73,2.46,2.46,0,0,0-.66,1.07,3.68,3.68,0,0,0-.16,1.3V81.2a2.38,2.38,0,0,0,.95,2.21,3.7,3.7,0,0,0,1,.41,4.62,4.62,0,0,0,1.28.16H421a4.28,4.28,0,0,0,2.62-.75,2.79,2.79,0,0,0,1-2.42Zm.83,9.4q-.1,4-4.27,4h-3.08a8.32,8.32,0,0,1-1.74-.16,3.32,3.32,0,0,1-1.53-1,3.23,3.23,0,0,1-.7-1.38,5.06,5.06,0,0,1-.16-1.55V74.69q0-4.09,4.13-4.07h6.52V66h.83V80.86"/><path id="path2513" class="cls-1" d="M267.6,70.17a4.28,4.28,0,0,1,.81-.27,5.28,5.28,0,0,1,10.33,0,3.78,3.78,0,0,1,1.92.94,7.15,7.15,0,0,0-.05-1.32,7.07,7.07,0,0,0-14.11.33c0,.33,0,.67,0,1a4.63,4.63,0,0,1,1.12-.7"/><path id="path2515" class="cls-1" d="M277.7,70.71h-8.47A3.2,3.2,0,0,0,268,71a3.39,3.39,0,0,0-1,.67,4.27,4.27,0,0,0-.81,2.77v6.63a4.25,4.25,0,0,0,.81,2.77,3.6,3.6,0,0,0,1,.68,3.2,3.2,0,0,0,1.27.29h8.47c2.19,0,3.31-1.22,3.34-3.6V74.3c0-2.37-1.15-3.57-3.34-3.59"/></svg>