<?xml version="1.0" encoding="utf-8"?>
<!-- Generator: Adobe Illustrator 25.1.0, SVG Export Plug-In . SVG Version: 6.00 Build 0)  -->
<svg version="1.1" id="Layer_1" xmlns="http://www.w3.org/2000/svg" xmlns:xlink="http://www.w3.org/1999/xlink" x="0px" y="0px"
	 viewBox="0 0 96.1 48" style="enable-background:new 0 0 96.1 48;" xml:space="preserve">
<path d="M94.3,26.9c-0.4,1.3-0.9,2.5-1.3,3.8c-0.9,2.6-1.8,5.1-2.6,7.7c-0.1,0.3-0.2,0.6-0.4,0.9c-0.5,1.3-1.8,2.1-3.2,2
	c-0.8,0-1.6,0-2.3-0.1c-0.3,0-0.5-0.2-0.5-0.5c0-0.8,0-1.5,0-2.3c0-0.3,0.1-0.4,0.4-0.4c0.4,0,0.7,0,1.1,0c0.5,0,0.7-0.2,0.5-0.7
	s-0.3-1-0.5-1.5l-3-8.7c-0.2-0.5-0.1-0.5,0.4-0.5c1.2,0,2.3,0,3.5,0c0.4,0,0.5,0.1,0.6,0.5c0.4,1.9,0.8,3.8,1.2,5.7
	c0,0.2,0.1,0.3,0.2,0.5c0.3-1.3,0.6-2.5,0.9-3.7c0.2-0.8,0.4-1.6,0.6-2.5c0.1-0.4,0.3-0.5,0.6-0.5c1.3,0,2.6,0,3.9,0L94.3,26.9z"/>
<path d="M30.5,11.8c1.5-2.2,5.8-2.1,7,0.2c0.2-0.2,0.4-0.5,0.7-0.8c1.6-1.4,4-1.4,5.7-0.2c0.8,0.6,1.2,1.6,1.2,2.6
	c0,2.4,0,4.8,0,7.2c0,0.4-0.1,0.5-0.5,0.5c-1.1,0-2.2,0-3.3,0c-0.4,0-0.5-0.2-0.5-0.6c0-1.8,0-3.6,0-5.5c0.1-0.7-0.4-1.4-1.1-1.5
	c-0.2,0-0.3,0-0.5,0c-0.8,0-1.3,0.7-1.3,1.4c0,0,0,0,0,0.1c0,1.8,0,3.6,0,5.4c0,0.6,0,0.6-0.6,0.6c-1,0-2,0-3.1,0
	c-0.5,0-0.6-0.2-0.6-0.7c0-1.8,0-3.6,0-5.4c0.1-0.8-0.5-1.4-1.3-1.5c-0.2,0-0.5,0-0.7,0.1c-0.6,0.2-1,0.8-0.9,1.4c0,1.7,0,3.5,0,5.2
	c0,0.8,0,0.8-0.8,0.8c-1,0-2,0-3,0c-0.4,0-0.6-0.1-0.6-0.5c0-3.3,0-6.5,0-9.8c0-0.4,0.1-0.5,0.5-0.5c1,0,2,0,3,0
	c0.6,0,0.7,0,0.7,0.6L30.5,11.8z"/>
<path d="M31.3,30c0.5,0.2,0.9,0.3,1.4,0.5c0.3,0.1,0.4,0.3,0.4,0.6c0,1.6,0,3.2,0,4.9c0,0.3-0.1,0.5-0.4,0.6
	c-1.6,0.7-3.1,1.5-4.5,2.5c-0.5,0.2-1,0.3-1.5,0.2c-1.1,0-2.3-0.1-3.4-0.1c-0.2,0-0.5,0.1-0.7-0.2l0.9-0.3c0.8-0.3,1.6-0.6,2.4-0.9
	c0.4-0.1,0.6-0.4,0.6-0.8c0-4.5,0-8.9,0-13.4c0-0.8,0-0.8,0.8-0.8H30c0.7,0,0.7,0,0.7,0.7v4c0.2,0.1,0.2,0,0.3-0.1
	c1.7-1.4,4.1-1.5,5.8-0.2c0.8,0.7,1.2,1.7,1.2,2.8c0,2.3,0,4.6,0,6.9c-0.1,0.5,0.1,1,0.5,1.3c0.3,0.2,0.5,0.5,0.8,0.8
	c0.1,0.1,0.2,0.1,0.1,0.2c-0.1,0-0.1,0.1-0.2,0.1c-0.8,0.2-1.6,0.1-2.3,0.2s-1.3,0-2,0.1c-0.4,0.1-0.6,0-0.5-0.5
	c0.1-1.1,0.1-2.2,0-3.3c0-1.7,0-3.4,0-5.1c0-0.5-0.2-0.6-0.6-0.6c-0.8,0-1.6,0-2.4,0L31.3,30z"/>
<path d="M89.4,19.9c-2.1,1.5-5,1.1-6.5-1c-0.2-0.3-0.4-0.5-0.5-0.8c-0.7-1.7-0.7-3.6,0.1-5.3c0.7-1.6,2.3-2.6,4-2.6
	c1.2-0.2,2.4,0.2,3.3,1.1l0.1-0.1c0.1-0.7,0.1-0.7,0.8-0.7s1.7,0,2.5,0c0.3,0,0.5,0.1,0.5,0.5c0,3.2,0,6.5,0,9.7
	c0,0.4,0,0.8-0.1,1.2c-0.2,1.4-1.2,2.6-2.6,3c-2.1,0.7-4.5,0.7-6.6,0.1c-1.4-0.3-2.4-1.7-2.3-3.1c0-0.4,0.1-0.5,0.5-0.5h3
	c0.2,0,0.4,0,0.5,0.3c0.1,0.8,0.8,1.3,1.6,1.2l0,0c0.3,0,0.6-0.1,0.9-0.2c0.6-0.1,1-0.6,1-1.2c0-0.2,0-0.5,0-0.7
	S89.4,20.2,89.4,19.9z M85.9,15.8c0,0.3,0.1,0.6,0.2,1c0.1,0.7,0.7,1.2,1.4,1.2c0.7,0.1,1.4-0.4,1.6-1.1c0.2-0.8,0.2-1.6,0-2.4
	c-0.1-0.6-0.5-1.1-1.1-1.2c-0.7-0.1-1.4,0.2-1.7,0.8C86.1,14.6,86,15.2,85.9,15.8z"/>
<path d="M9.3,20c-1.5,1-3.4,1.2-5,0.4c-1.5-0.7-2.5-2.3-2.5-4c-0.1-1.1,0-2.2,0.4-3.2c0.6-1.8,2.3-2.9,4.1-2.9
	c1.2-0.2,2.4,0.2,3.3,1.1c0.1-0.1,0.1-0.2,0.1-0.3c0-0.3,0.1-0.4,0.4-0.4h2.8c0.3,0,0.5,0.1,0.5,0.5c0,3.3,0,6.6,0,9.9
	c0.1,1.2-0.4,2.5-1.4,3.2c-0.8,0.6-1.7,0.9-2.6,1c-1.6,0.3-3.3,0.2-4.9-0.1C3,25,1.9,23.7,1.9,22.1c0-0.5,0-0.6,0.6-0.6h2.8
	c0.2,0,0.4,0,0.5,0.2C6,22.5,6.7,23,7.6,22.9h0.1c1.3-0.2,1.7-0.6,1.7-2L9.3,20z M5.9,15.8c0,0.2,0,0.5,0,0.7c0,0.8,0.7,1.4,1.5,1.4
	s1.5-0.5,1.6-1.3c0.1-0.7,0.1-1.3,0-2c-0.2-0.9-0.6-1.3-1.4-1.4c-0.8,0-1.5,0.5-1.6,1.3C5.9,14.9,5.9,15.4,5.9,15.8z"/>
<path d="M75.1,27.3c1.1-0.9,2.5-1.2,3.9-0.9c1.3,0.2,2.4,1.1,2.9,2.4c1,2.1,0.9,4.6-0.1,6.7c-1.2,2.2-3.9,2.9-6.1,1.7
	c-0.1-0.1-0.2-0.1-0.4-0.2c0,0-0.1-0.1-0.2-0.1v1.8c0,0.7,0,1.4,0,2.1c0,0.4-0.1,0.6-0.6,0.6c-1,0-2.1,0-3.1,0
	c-0.4,0-0.6-0.2-0.6-0.6c0-2.2,0-4.5,0-6.7v-6.8c0-0.6,0-0.6,0.6-0.6c1,0,1.9,0,2.8,0C74.8,26.6,75.2,26.6,75.1,27.3z M75.1,32.1
	c0,0.5,0,0.9,0.1,1.4c0.1,0.7,0.7,1.2,1.4,1.2c0.7,0,1.3-0.4,1.5-1.1c0.3-1,0.3-2,0-2.9c-0.2-0.6-0.7-1-1.4-1c-0.6,0-1.2,0.4-1.4,1
	C75.2,31.1,75.1,31.6,75.1,32.1L75.1,32.1z"/>
<path d="M50.6,20.8c0.1,0.5-0.2,0.6-0.6,0.6c-1,0-2,0-2.9,0c-0.4,0-0.6-0.1-0.6-0.6c0-4.5,0-9.1,0-13.6c0-0.4,0.1-0.6,0.5-0.6
	c1.1,0,2.1,0,3.2,0c0.4,0,0.5,0.1,0.5,0.5c0,1.2,0,2.3,0.1,3.5c0,0.1,0,0.2,0.1,0.3s0.2-0.1,0.3-0.1c2.1-1.3,4.8-0.6,6.1,1.5l0,0
	c1.3,2.5,1.1,5.4-0.6,7.7c-1.5,1.7-4,2.1-5.9,0.8L50.6,20.8z M53.7,15.9c0-0.5,0-0.9-0.2-1.4c-0.1-0.7-0.7-1.1-1.4-1.1
	s-1.3,0.5-1.4,1.1c-0.3,0.9-0.3,1.9,0,2.8c0.1,0.6,0.7,1.1,1.4,1.1s1.2-0.4,1.4-1.1C53.7,16.9,53.8,16.4,53.7,15.9z"/>
<path d="M25.3,17v3c0,0.3,0,0.7,0.2,1c0.1,0.2,0.1,0.4-0.2,0.4c-1.2,0-2.3,0-3.5,0c-0.2,0-0.4-0.1-0.4-0.3s-0.1-0.4-0.4-0.2
	c-1.3,0.7-2.8,0.9-4.2,0.6c-1.5-0.3-2.6-1.5-2.7-3c-0.2-1.5,0.7-3,2.1-3.5c1.1-0.3,2.2-0.6,3.3-0.7c0.4-0.1,0.8-0.1,1.2-0.2
	s0.6-0.4,0.3-0.8c-0.3-0.4-0.8-0.6-1.4-0.5c-0.5,0-0.9,0.1-1.1,0.6c-0.1,0.3-0.4,0.5-0.8,0.5c-1,0-2,0-3,0.1c-0.4,0-0.4-0.1-0.4-0.5
	c0.2-1.1,0.9-2,1.8-2.5c1.5-0.7,3.1-0.9,4.8-0.7c0.6,0,1.2,0.1,1.8,0.3c1.5,0.4,2.5,1.7,2.4,3.2C25.3,14.8,25.3,15.9,25.3,17
	L25.3,17z M19.1,18.7c1.1,0,2-0.8,2.1-1.9c0-0.2,0.1-0.5-0.3-0.4c-0.7,0.2-1.4,0.4-2.1,0.7c-0.4,0.1-0.7,0.5-0.6,1l0,0
	C18.2,18.5,18.5,18.7,19.1,18.7L19.1,18.7z"/>
<path d="M69.8,33.4c0,1,0,1.9,0,2.8c0,0.2,0,0.5,0.1,0.7c0.2,0.4,0.1,0.5-0.3,0.5c-1,0-2.1,0-3.2,0c-0.3,0-0.5,0-0.5-0.4
	s-0.1-0.3-0.3-0.2c-1.2,0.7-2.5,0.9-3.8,0.8c-1.9-0.1-3.3-1.8-3.2-3.7c0.1-1.4,1-2.5,2.3-3c0.9-0.3,1.9-0.5,2.9-0.6l1.6-0.3
	c0.4-0.1,0.5-0.3,0.3-0.6c-0.1-0.1-0.1-0.2-0.2-0.3c-0.8-0.5-1.8-0.4-2.4,0.4c-0.1,0.2-0.3,0.3-0.5,0.3c-1,0-2.1,0-3.2,0.1
	c-0.4,0-0.5-0.1-0.4-0.5c0.2-1.2,1-2.1,2.1-2.6c2.1-0.8,4.5-0.9,6.7-0.1c1.2,0.4,2,1.6,2,2.9C69.8,31,69.8,32.2,69.8,33.4z
	 M63.6,34.9c1.2,0,2.1-0.9,2.1-2.1c0-0.2-0.1-0.3-0.3-0.2c-0.7,0.2-1.5,0.4-2.2,0.7c-0.4,0.1-0.7,0.6-0.6,1l0,0
	C62.8,34.8,63.2,34.8,63.6,34.9z"/>
<path d="M73.7,11.8c1.2-1.4,3.1-1.9,4.8-1.4c1.6,0.4,2.6,1.8,2.6,3.4c0,2.3,0,4.7,0,7c0,0.4-0.1,0.5-0.5,0.5c-1.1,0-2.2,0-3.3,0
	c-0.4,0-0.5-0.2-0.5-0.6c0-1.8,0-3.7,0-5.5c0-1.1-0.4-1.5-1.5-1.4c-0.7,0-1.3,0.5-1.3,1.2c0,0.1,0,0.1,0,0.2c0,1.8,0,3.5,0,5.3
	c0,0.9,0,0.9-0.9,0.9s-1.9,0-2.9,0c-0.4,0-0.6-0.1-0.6-0.6c0-3.2,0-6.5,0-9.7c0-0.4,0.1-0.6,0.5-0.6c1,0,2,0,3,0
	c0.4,0,0.6,0.1,0.5,0.5C73.6,11.3,73.7,11.5,73.7,11.8z"/>
<path d="M46.7,32.9c-1.1,0-2.1,0-3.2,0c-0.4,0-0.6,0.2-0.5,0.6c0.1,0.6,0.6,1.2,1.2,1.3c0.8,0.2,1.6-0.1,2-0.7
	c0.5-0.6,0.5-0.6,1.1-0.3l2.2,1c0.5,0.2,0.5,0.3,0.2,0.8c-1,1.4-2.6,2.2-4.3,2.4c-3.2,0.6-6.2-1.4-6.9-4.6c0-1.2,0.1-2.4,0.5-3.4
	c0.8-2.3,2.9-3.8,5.3-3.7c1.5-0.1,3,0.3,4.2,1.2c1.1,0.9,1.8,2.2,1.9,3.6c0,0.4,0.1,0.7,0.1,1.1c0,0.6,0,0.6-0.6,0.6L46.7,32.9z
	 M44.6,30.5h1c0.4,0,0.5-0.2,0.4-0.5c-0.2-0.6-0.7-1-1.3-1s-1.2,0.5-1.4,1.1c-0.1,0.3,0,0.4,0.3,0.4H44.6z"/>
<path d="M19.8,32.4c0-0.9,0-1.7,0-2.6c0-0.4-0.1-0.5-0.5-0.5c-1,0-1,0.2-1-1v-0.1c0-0.4-0.1-0.8,0.1-1.1s0.7-0.1,1-0.2
	s0.4-0.2,0.4-0.5c0-0.8,0-1.6,0-2.4c0-0.4,0.1-0.5,0.5-0.5c1.1,0,2.2,0,3.3,0c0.4,0,0.5,0.1,0.5,0.5c0,0.8,0,1.6,0,2.4
	c0,0.4,0.1,0.5,0.5,0.5c1.4,0,1.4,0.1,1.4,1.3s0.1,1-1,1c-0.8,0-0.8,0-0.8,0.8c0,1.1,0,2.1,0,3.2c0,0.8,0.3,1.1,1.1,1.1h0.4
	c0.3,0,0.5,0.1,0.5,0.4c0,0.7,0,1.4,0,2.1c0,0.2-0.1,0.4-0.3,0.4l0,0c-1.2,0.2-2.5,0.2-3.7,0c-1.3-0.2-2.3-1.4-2.2-2.7
	C19.9,33.9,19.9,33.1,19.8,32.4L19.8,32.4z"/>
<path d="M58.6,14V7.3c0-0.6,0-0.7,0.7-0.7c1.1,0,2.1,0,3.2,0c0.4,0,0.6,0.1,0.5,0.5v13.7c0,0.4-0.2,0.5-0.6,0.5c-1,0-2,0-3.1,0
	c-0.7,0-0.8,0-0.8-0.7L58.6,14z"/>
<path d="M51,32c0-1.6,0-3.2,0-4.8c0-0.4,0.2-0.6,0.6-0.6c1,0,2,0,3.1,0c0.3,0,0.5,0.1,0.5,0.4s0.2,0.3,0.4,0.2
	c0.8-0.6,1.7-0.8,2.7-0.8c0.3,0,0.5,0.1,0.5,0.5c0,0.9,0,1.8,0,2.7c0,0.3-0.1,0.5-0.5,0.4c-0.4,0-0.9,0-1.3,0.1
	c-1,0.1-1.7,1-1.6,1.9c0,1.6,0,3.2,0,4.8c0,0.5-0.2,0.7-0.6,0.6c-1,0-2.1,0-3.1,0c-0.4,0-0.6-0.2-0.6-0.6C51,35.3,51,33.7,51,32z"/>
<path d="M64.2,15.9c0-1.6,0-3.2,0-4.8c0-0.4,0.1-0.6,0.6-0.6c1.1,0,2.2,0,3.3,0c0.3,0,0.5,0.1,0.5,0.5c0,3.3,0,6.6,0,9.8
	c0,0.4-0.2,0.5-0.5,0.5c-1.1,0-2.2,0-3.3,0c-0.4,0-0.5-0.1-0.5-0.5C64.2,19.2,64.2,17.5,64.2,15.9z"/>
<path d="M66.3,6.6H68c0.3,0,0.5,0.1,0.5,0.4c0,0.7,0,1.4,0,2.1c0,0.3-0.1,0.4-0.4,0.4h-3.5c-0.3,0-0.4-0.1-0.4-0.4
	c0-0.7,0-1.4,0-2.1c0-0.3,0.1-0.4,0.4-0.4C64.6,6.6,66.3,6.6,66.3,6.6z"/>
</svg>
