<svg id="Providers" xmlns="http://www.w3.org/2000/svg" viewBox="0 0 1200 60"><defs><style>.cls-1{fill:#84d5f7;}.cls-2{opacity:0.6;}</style></defs><title>payment_large_fi</title><path class="cls-1" d="M125.09,39a9.43,9.43,0,0,1,2.35,1.33,14.25,14.25,0,0,0,8.38,2.37,3.71,3.71,0,0,0,3.26-1.73,1.8,1.8,0,0,0-1.11-2.8,5,5,0,0,0-2-.1,9.09,9.09,0,0,1-9.58-7,2.7,2.7,0,0,1-.08-.39,1.36,1.36,0,0,1,1.63-1.56,9.1,9.1,0,0,1,2.42.87l3.46,1.71a4.17,4.17,0,0,0,1.29.43,2.42,2.42,0,0,0,2.73-1.61,2.3,2.3,0,0,0-1.21-2.78c-1.37-.73-2.78-1.38-4.18-2.07-.51-.24-1-.46-1.51-.74-1.52-.92-1.54-1.95,0-2.83a8.22,8.22,0,0,1,6.42-1,9.32,9.32,0,0,1,5.74,4.1,2.24,2.24,0,0,0,3.86,0,2.61,2.61,0,0,0,0-2.34,8.75,8.75,0,0,0-2.64-3.39,15.17,15.17,0,0,0-5.09-2.68,6.27,6.27,0,0,1-1.9-.78,14.7,14.7,0,0,1,4.68.29,15.25,15.25,0,0,1,12,12.37,14,14,0,0,1-3.24,11.77,15.32,15.32,0,0,1-11.32,5.61,15.57,15.57,0,0,1-11.83-4.24c-.68-.61-1.3-1.29-1.94-1.94A1.88,1.88,0,0,1,125.09,39Z"/><path class="cls-1" d="M270.41,31.3c0-2.66,0-5.31,0-8,0-1.28.29-1.57,1.55-1.58.24,0,.49,0,.73,0,.94,0,1.25.35,1.26,1.28,0,1.5,0,3,0,4.5,0,.2-.1.48.15.58s.32-.15.48-.24a6.11,6.11,0,0,1,6.48-.19,3.45,3.45,0,0,1,1.71,3.1c.06,3,0,6,0,8.93a1,1,0,0,1-1.12,1.17c-2.15.08-2.48,0-2.43-2.22,0-2,0-4,0-5.94,0-1.7-.54-2.35-2-2.44-1.79-.11-2.94.73-3.14,2.26a64.58,64.58,0,0,0-.16,6.67c0,.57.16,1.29-.56,1.52a3.16,3.16,0,0,1-2.57-.09c-.45-.25-.41-.78-.41-1.23Z"/><path class="cls-1" d="M175.48,35.44h-3.21c-.77,0-1,.29-.69,1a2.05,2.05,0,0,0,1.75,1.23,12.82,12.82,0,0,0,4.86-.2c1.19-.19,1.44,0,1.57,1.15.16,1.34-.25,2-1.55,2.27a13.66,13.66,0,0,1-6.45,0A4.76,4.76,0,0,1,167.91,36c0-1.26,0-2.52,0-3.78A5.08,5.08,0,0,1,172.36,27a9.29,9.29,0,0,1,3.75,0,4.84,4.84,0,0,1,4,4.7,9.55,9.55,0,0,1-.07,2.56,1.23,1.23,0,0,1-1.35,1.1h-3.22Zm-1.4-2.9c.64,0,1.29,0,1.93,0s.82-.33.68-.92C176.44,30.51,175.48,30,174,30s-2.27.58-2.47,1.68c-.1.53.05.84.64.83S173.44,32.53,174.08,32.54Z"/><path class="cls-1" d="M216.52,35.44c-1.1,0-2.2,0-3.3,0-.71,0-.82.37-.64.94a2,2,0,0,0,1.77,1.31,12.82,12.82,0,0,0,4.86-.2c1.21-.19,1.48,0,1.59,1.23s-.28,1.9-1.56,2.19a13.66,13.66,0,0,1-6.45,0A4.76,4.76,0,0,1,208.94,36c0-1.28,0-2.57,0-3.85a5.06,5.06,0,0,1,4.36-5.1,9.33,9.33,0,0,1,3.83,0,4.86,4.86,0,0,1,4,4.69,14,14,0,0,1,0,2.33c-.12,1-.52,1.33-1.55,1.34h-3Zm-1.37-2.91h0c.62,0,1.23,0,1.85,0s.89-.22.71-1c-.27-1.12-1.31-1.68-2.82-1.53s-2.2.61-2.36,1.71c-.08.49.06.78.61.78Z"/><path class="cls-1" d="M255,34.24c0,1,0,1.93,0,2.89a3.61,3.61,0,0,1-2.62,3.64,10.8,10.8,0,0,1-6.79,0,3.45,3.45,0,0,1-2.49-3.31c-.11-1.76.34-3.24,2.07-4.08a6.43,6.43,0,0,1,2.72-.64c1,0,1.93,0,2.89,0,.48,0,.66-.21.68-.68A1.63,1.63,0,0,0,250,30.1a9.68,9.68,0,0,0-3-.07c-.32,0-.63.08-.95.09-1.08,0-1.31-.14-1.45-1.05s.24-1.8,1.1-1.95a12.33,12.33,0,0,1,7,.51A3.7,3.7,0,0,1,255,31.18C255,32.2,255,33.22,255,34.24Zm-5.57,1.19a6.06,6.06,0,0,0-1.82.14,1.27,1.27,0,0,0-.94,1.26,1.22,1.22,0,0,0,1,1.26,7,7,0,0,0,2.63,0c.82-.16,1.23-1,1.13-2.05s-.82-.53-1.3-.62A5.88,5.88,0,0,0,249.39,35.43Z"/><path class="cls-1" d="M195.11,35.56c0,1.37,0,2.74,0,4.1,0,.88-.33,1.19-1.22,1.24-2.08.13-2.32-.1-2.32-2.17s0-4.07,0-6.11c0-1.67-.59-2.27-2.27-2.33a6.16,6.16,0,0,0-1,0c-1.39.16-1.86.54-2,1.94-.19,2.16-.05,4.33-.07,6.5S186.07,41,184,40.9c-.92,0-1.28-.35-1.28-1.27,0-2.62,0-5.25,0-7.87s1.9-4.49,4.8-4.8a10.55,10.55,0,0,1,4.07.23,4.48,4.48,0,0,1,3.5,4.44C195.13,32.94,195.11,34.25,195.11,35.56Z"/><path class="cls-1" d="M261.81,41.22a9.78,9.78,0,0,1-3.55-.42,2.23,2.23,0,0,1-1-3.12,1,1,0,0,1,1.18-.24,14.89,14.89,0,0,0,4.46.41,3.44,3.44,0,0,0,.64,0c.33-.05.64-.17.72-.54a.7.7,0,0,0-.5-.82l-3.68-1.61a4,4,0,0,1-2.69-2.65c-.53-2.38,0-4.8,3.79-5.22a11.9,11.9,0,0,1,4.71.29,2.12,2.12,0,0,1,1.18,3c-.32.52-.85.42-1.31.32a15,15,0,0,0-3.59-.28,5.12,5.12,0,0,0-.56,0,.79.79,0,0,0-.76.62c-.07.39.24.58.54.7,1.19.49,2.39.94,3.58,1.44a4.12,4.12,0,0,1,2.51,2.11c.83,2.09.6,5.24-3,5.86A11.2,11.2,0,0,1,261.81,41.22Z"/><path class="cls-1" d="M198.81,34.16c0-.89,0-1.77,0-2.65,0-.65-.2-.91-.88-.91-1.43,0-1.91-.72-1.55-2.12a1.31,1.31,0,0,1,1.29-1c.91-.08,1.24-.58,1.28-1.41a4.58,4.58,0,0,1,.1-.63c.29-1.63.7-1.93,2.33-1.73a1,1,0,0,1,1,1c0,.59,0,1.18,0,1.76s.21.78.76.77c.88,0,1.76,0,2.65,0s1.2.35,1.25,1.22q0,.41,0,.81c0,1-.36,1.32-1.39,1.33-.8,0-1.61,0-2.41,0-.61,0-.88.19-.87.83,0,1.5,0,3,0,4.5s.63,2,2,1.91c.7,0,1.38-.15,2.07-.24a.82.82,0,0,1,1,.81c.25,1.9-.34,2.68-2.24,2.79a9.93,9.93,0,0,1-2.88-.1,4.35,4.35,0,0,1-3.54-4.29c0-.88,0-1.77,0-2.65Z"/><path class="cls-1" d="M232.17,34.13a17.75,17.75,0,0,1,0-2.73,5.34,5.34,0,0,1,5.25-4.47,8.14,8.14,0,0,1,3.43.29,2.18,2.18,0,0,1,.7,3.09,1.08,1.08,0,0,1-1.13.2,6.84,6.84,0,0,0-3.18-.07A1.77,1.77,0,0,0,235.75,32a15.83,15.83,0,0,0,0,4,1.93,1.93,0,0,0,1.63,1.66,8.4,8.4,0,0,0,3.35,0c.95-.14,1.29.15,1.35,1.08.09,1.67-.22,2.13-1.88,2.38a9.45,9.45,0,0,1-4.83-.39,4.75,4.75,0,0,1-3.27-4.59c0-.67,0-1.34,0-2Z"/><path class="cls-1" d="M223.59,35.4c0-1.2,0-2.41,0-3.62a4.53,4.53,0,0,1,4.58-4.86c.51,0,1,0,1.53,0A1.18,1.18,0,0,1,231,28.09a3.63,3.63,0,0,1,0,.57c0,1.48-.12,1.62-1.57,1.63-1.79,0-2.24.45-2.27,2.4,0,2.17,0,4.35,0,6.52,0,.57.17,1.29-.55,1.53a3.26,3.26,0,0,1-2.58-.08c-.39-.21-.41-.66-.41-1.08Z"/><path class="cls-1" d="M319,40c-3.27,0-6.54,0-9.82,0a3.11,3.11,0,0,1-1-.15,2.23,2.23,0,0,1-1.45-1.69c-.21-.86-.4-1.73-.59-2.59l-1.08-4.86q-.65-2.84-1.27-5.67a1.65,1.65,0,0,1,1-2,3.34,3.34,0,0,1,1.21-.24h3.77c.21,0,.23,0,.24-.25V20.29a8.76,8.76,0,0,1,.92-4,8.95,8.95,0,0,1,8.73-5,8.78,8.78,0,0,1,5.08,2.09,8.89,8.89,0,0,1,3.14,6.07c.08,1,0,1.93,0,2.9,0,.39,0,.39.41.39h3.54a3.36,3.36,0,0,1,1.33.27,1.59,1.59,0,0,1,1,1.86c-.19.93-.41,1.86-.61,2.79l-1.8,8.06c-.17.77-.35,1.55-.53,2.32a2.49,2.49,0,0,1-.62,1.19,2.32,2.32,0,0,1-1.58.68H319Zm0-17.18h5.58a.13.13,0,0,0,.14-.14,1.21,1.21,0,0,0,0-.19v-2a8.39,8.39,0,0,0,0-1.12,5.61,5.61,0,0,0-2.05-3.73,5.72,5.72,0,0,0-7.91.6,5.62,5.62,0,0,0-1.45,3.8c0,.81,0,1.62,0,2.43,0,.37,0,.37.38.37ZM319,26.45h-3.19a1.67,1.67,0,0,0-.32,0c-.23,0-.32.14-.32.37q0,.72,0,1.44c0,.22.07.29.29.33H317c.45,0,.46,0,.46.46V34.8a2,2,0,0,0,0,.35.28.28,0,0,0,.28.27h2.1c.53,0,.61-.09.61-.61V28.9c0-.23.06-.28.29-.28s.53,0,.79,0h1c.27,0,.35-.1.36-.37v-.79c0-.21,0-.42,0-.62a.32.32,0,0,0-.29-.35,1.54,1.54,0,0,0-.37,0Z"/><path class="cls-1" d="M376.3,32.47v3.82a5.11,5.11,0,0,1-.39,2,2.65,2.65,0,0,1-2.5,1.69c-2.11,0-4.22,0-6.33,0a3.28,3.28,0,0,1-1.89-.57A3,3,0,0,1,364,37.66a5.85,5.85,0,0,1-.17-1.5c0-2.46,0-4.91,0-7.37a2.82,2.82,0,0,1,.09-.76.9.9,0,0,1,.93-.74H368a1.43,1.43,0,0,1,.73.2,1,1,0,0,1,.49.86V34a5.53,5.53,0,0,0,0,.71.81.81,0,0,0,.86.81.87.87,0,0,0,.91-.83c0-.12,0-.25,0-.37V28.6a4.3,4.3,0,0,1,0-.62.69.69,0,0,1,.66-.66l.39,0h2.73a3.4,3.4,0,0,1,.45,0,1,1,0,0,1,.94,1c0,.1,0,.2,0,.3Z"/><path class="cls-1" d="M344.93,22.76h6.35a2.2,2.2,0,0,1,.57,0,.57.57,0,0,1,.49.6v3.05c0,.31-.13.44-.44.5a2,2,0,0,1-.42,0h-3.2c-.49,0-.55.06-.55.56V38.93c0,.12,0,.23,0,.35a.63.63,0,0,1-.51.62,3.72,3.72,0,0,1-.81.09h-3.23a4.89,4.89,0,0,1-.66-.05.59.59,0,0,1-.61-.67,2.81,2.81,0,0,1,0-.29c0-3.79,0-7.58,0-11.36,0-.11,0-.22,0-.32a.3.3,0,0,0-.31-.3h-3.2a2.12,2.12,0,0,1-.44,0,.44.44,0,0,1-.4-.44,1.55,1.55,0,0,1,0-.22V23.56a1.41,1.41,0,0,1,0-.2.55.55,0,0,1,.43-.53,2,2,0,0,1,.59-.07h6.37Z"/><path class="cls-1" d="M414.5,32.83c.09,0,.09-.13.12-.2.57-1.4,1.13-2.81,1.69-4.21a2.39,2.39,0,0,1,.4-.69,1.19,1.19,0,0,1,.93-.44h2.72a2,2,0,0,1,.59.08.41.41,0,0,1,.31.45,1.26,1.26,0,0,1-.13.43c-.48,1.14-1,2.28-1.46,3.42l-3,7.14-2,4.79a2,2,0,0,1-.53.77,1.06,1.06,0,0,1-.74.29h-2.6a1.39,1.39,0,0,1-.54-.09.37.37,0,0,1-.28-.41,1.18,1.18,0,0,1,.1-.38c.54-1.28,1.08-2.56,1.63-3.84a.72.72,0,0,0,0-.61q-2.23-5.49-4.45-11a3.1,3.1,0,0,1-.13-.4.45.45,0,0,1,.31-.57,2,2,0,0,1,.69-.09c1.13,0,2.26,0,3.39,0a1.35,1.35,0,0,1,1.34.87,4.75,4.75,0,0,1,.23.63c.46,1.28.91,2.55,1.36,3.83C414.41,32.7,414.42,32.78,414.5,32.83Z"/><path class="cls-1" d="M383.5,40.3a19.85,19.85,0,0,1-4.54-.54c-.11,0-.22-.08-.33-.1a.49.49,0,0,1-.42-.48c0-.21-.08-.42-.08-.64a8.68,8.68,0,0,1,0-1.61,1.7,1.7,0,0,1,.11-.43c.09-.27.21-.33.49-.27s.75.18,1.14.24a13.75,13.75,0,0,0,2.64.13,2.05,2.05,0,0,0,.54-.1.74.74,0,0,0,.28-.14.37.37,0,0,0,0-.6,2.59,2.59,0,0,0-.55-.33c-.63-.28-1.27-.53-1.88-.85a5.36,5.36,0,0,1-1.57-1.14,3.62,3.62,0,0,1-.81-3.69,3.36,3.36,0,0,1,1.65-1.9,7.37,7.37,0,0,1,2.57-.86,14.22,14.22,0,0,1,3.26-.12,9.74,9.74,0,0,1,1.7.2l.4.12a.4.4,0,0,1,.29.34,2.63,2.63,0,0,1,0,.49,5.35,5.35,0,0,1-.33,1.72,1.65,1.65,0,0,1-.23.46.43.43,0,0,1-.43.19L386,30.2a8.92,8.92,0,0,0-1.36-.07,1.64,1.64,0,0,0-.49.1.36.36,0,0,0-.09.65,7.56,7.56,0,0,0,1.16.61,10.53,10.53,0,0,1,2.23,1.29,5.05,5.05,0,0,1,1.15,1.29,4.23,4.23,0,0,1,.53,2.63,3.92,3.92,0,0,1-.32,1.24,3.41,3.41,0,0,1-1.53,1.63,6.23,6.23,0,0,1-2,.63A10.22,10.22,0,0,1,383.5,40.3Z"/><path class="cls-1" d="M391.56,34.06V31.21a1.34,1.34,0,0,0,0-.2c0-.16,0-.19-.18-.2H391c-.6,0-.84-.22-.87-.81s0-1.24,0-1.86a1.13,1.13,0,0,1,.06-.32.61.61,0,0,1,.45-.45,2,2,0,0,1,.54,0h.47c.18,0,.2,0,.21-.2V25.76a.91.91,0,0,1,.42-.77,2,2,0,0,1,.79-.29l2.59-.43a1.79,1.79,0,0,1,.61,0,.45.45,0,0,1,.39.37,1.31,1.31,0,0,1,0,.34c0,.67,0,1.34,0,2a1.08,1.08,0,0,0,0,.18c0,.16,0,.18.19.18h1.24a.68.68,0,0,1,.66.43,1.64,1.64,0,0,1,.13.65v1.84c0,.44-.22.61-.67.62h-1.12c-.23,0-.25,0-.25.26,0,1.58,0,3.17,0,4.76a.5.5,0,0,0,.46.57,2.19,2.19,0,0,0,.57,0c.21,0,.25,0,.33.21a3.15,3.15,0,0,1,.17.6,11.91,11.91,0,0,1,.21,2.07c0,.44,0,.48-.46.59a9.6,9.6,0,0,1-3,.32,4,4,0,0,1-2.2-.73,3.19,3.19,0,0,1-1.28-2.13,3.49,3.49,0,0,1-.05-.72Z"/><path class="cls-1" d="M405.87,31.21V39a2.27,2.27,0,0,1,0,.45.63.63,0,0,1-.54.51,3.89,3.89,0,0,1-.49,0h-3.1a5.46,5.46,0,0,1-.57,0,.46.46,0,0,1-.45-.45,4.9,4.9,0,0,1,0-.54V23.46a1.71,1.71,0,0,1,0-.39.67.67,0,0,1,.61-.56h3.58a1.79,1.79,0,0,1,.56.07.59.59,0,0,1,.43.54c0,.11,0,.22,0,.33Z"/><path class="cls-1" d="M353.11,34.36V30.12a3.79,3.79,0,0,1,.09-.89,2.15,2.15,0,0,1,1.36-1.59,4.59,4.59,0,0,1,1.52-.32c1.08-.06,2.16,0,3.25,0h2.5c.41,0,.56.15.57.55v2.53c0,.46-.21.65-.66.65a10.8,10.8,0,0,0-1.61.11,2.85,2.85,0,0,0-1.18.49,1.42,1.42,0,0,0-.61,1.11c0,.18,0,.36,0,.55,0,1.67,0,3.35,0,5a8.7,8.7,0,0,1,0,.89.74.74,0,0,1-.71.77l-.37,0H354.5a3.73,3.73,0,0,1-.47,0,1,1,0,0,1-.92-1V34.36Z"/><path class="cls-1" d="M321.46,44.14A3.56,3.56,0,1,1,325,47.71,3.53,3.53,0,0,1,321.46,44.14Z"/><path class="cls-1" d="M316.56,44.14A3.55,3.55,0,1,1,313,40.6,3.53,3.53,0,0,1,316.56,44.14Z"/><g id="g4158"><polygon id="polygon9" class="cls-1" points="480.6 44.36 473.42 44.36 477.91 16.59 485.09 16.59 480.6 44.36"/><path id="path11" class="cls-1" d="M506.63,17.27a17.7,17.7,0,0,0-6.44-1.18c-7.09,0-12.08,3.78-12.11,9.19-.06,4,3.57,6.2,6.29,7.53s3.72,2.25,3.72,3.46c0,1.86-2.24,2.72-4.31,2.72A14.37,14.37,0,0,1,487,37.51l-.94-.45-1,6.24a21.84,21.84,0,0,0,8,1.48c7.54,0,12.44-3.73,12.5-9.49,0-3.16-1.89-5.58-6-7.56-2.51-1.27-4.05-2.13-4.05-3.43s1.3-2.39,4.14-2.39A12.24,12.24,0,0,1,505,23l.65.3,1-6Z"/><path id="path13" class="cls-1" d="M516.18,34.52l2.87-7.77c0,.06.59-1.62.94-2.65l.5,2.39s1.36,6.65,1.66,8ZM525,16.59h-5.55a3.53,3.53,0,0,0-3.75,2.31L505.07,44.36h7.53s1.24-3.43,1.51-4.16h9.22c.21,1,.86,4.16.86,4.16h6.65L525,16.59Z"/><path id="path15" class="cls-1" d="M467.42,16.59l-7,18.94-.77-3.84c-1.3-4.43-5.37-9.25-9.92-11.64l6.44,24.28h7.59L475,16.59Z"/><path id="path17" class="cls-1" d="M453.86,16.59H442.31l-.12.56c9,2.31,15,7.86,17.43,14.54l-2.51-12.76c-.41-1.78-1.68-2.28-3.25-2.34Z"/></g><path class="cls-1" d="M596.07,46.48v.09h.09l0,0s0,0,0,0,0,0,0,0h-.13Zm.09-.06.1,0a.12.12,0,0,1,0,.08.09.09,0,0,1,0,.07.11.11,0,0,1-.08,0l.11.12h-.09l-.1-.12h0v.12H596v-.32Zm0,.44a.23.23,0,0,0,.11,0l.09,0a.47.47,0,0,0,.06-.09.36.36,0,0,0,0-.11.43.43,0,0,0,0-.11.24.24,0,0,0-.06-.08l-.09-.06-.11,0-.12,0-.09.06-.06.08a.43.43,0,0,0,0,.11.36.36,0,0,0,0,.11l.06.09.09,0a.27.27,0,0,0,.12,0m0-.63a.32.32,0,0,1,.14,0,.35.35,0,0,1,.12.07.28.28,0,0,1,.08.11.35.35,0,0,1,0,.14.32.32,0,0,1,0,.14.28.28,0,0,1-.08.11.36.36,0,0,1-.12.08l-.14,0-.15,0a.36.36,0,0,1-.12-.08.28.28,0,0,1-.08-.11.32.32,0,0,1,0-.14.35.35,0,0,1,0-.14.28.28,0,0,1,.08-.11.35.35,0,0,1,.12-.07.33.33,0,0,1,.15,0M561.5,45a1.13,1.13,0,1,1,1.13,1.14A1.09,1.09,0,0,1,561.5,45m3,0V43.2h-.81v.43a1.42,1.42,0,0,0-1.17-.52,1.86,1.86,0,0,0,0,3.72,1.42,1.42,0,0,0,1.17-.52v.43h.81Zm27.27,0a1.13,1.13,0,1,1,1.13,1.14A1.09,1.09,0,0,1,591.78,45m3,0V41.78H594v1.85a1.42,1.42,0,0,0-1.17-.52,1.86,1.86,0,1,0,0,3.72,1.42,1.42,0,0,0,1.17-.52v.43h.81ZM574.53,43.8a.91.91,0,0,1,.94.86h-1.93a.94.94,0,0,1,1-.86m0-.69a1.86,1.86,0,1,0,.06,3.72,2.33,2.33,0,0,0,1.52-.49l-.4-.57a1.85,1.85,0,0,1-1.08.37,1,1,0,0,1-1.11-.87h2.76a2.83,2.83,0,0,0,0-.3,1.74,1.74,0,0,0-1.77-1.86M584.29,45a1.12,1.12,0,1,1,1.13,1.14A1.09,1.09,0,0,1,584.29,45m3,0V43.2h-.81v.43a1.44,1.44,0,0,0-1.17-.52,1.86,1.86,0,0,0,0,3.72,1.44,1.44,0,0,0,1.17-.52v.43h.81Zm-7.57,0a1.83,1.83,0,0,0,2,1.86,2,2,0,0,0,1.34-.42l-.39-.62a1.73,1.73,0,0,1-1,.32,1.14,1.14,0,0,1,0-2.27,1.66,1.66,0,0,1,1,.32l.39-.62a2,2,0,0,0-1.34-.43,1.84,1.84,0,0,0-2,1.86m10.41-1.86a1.11,1.11,0,0,0-1,.52V43.2h-.8v3.54h.81v-2c0-.59.26-.91.79-.91a1.29,1.29,0,0,1,.5.09l.25-.73a1.67,1.67,0,0,0-.57-.1m-21.64.37a2.91,2.91,0,0,0-1.51-.37c-.94,0-1.55.43-1.55,1.14s.45.93,1.28,1l.38.05c.45.06.66.17.66.37s-.3.43-.85.43a2.08,2.08,0,0,1-1.24-.37l-.38.6a2.82,2.82,0,0,0,1.61.46c1.07,0,1.69-.48,1.69-1.15s-.48-1-1.29-1.06l-.38-.06c-.35,0-.63-.11-.63-.34s.26-.42.7-.42a2.37,2.37,0,0,1,1.16.31Zm10.42-.37a1.11,1.11,0,0,0-1,.52V43.2h-.8v3.54H578v-2c0-.59.26-.91.79-.91a1.29,1.29,0,0,1,.5.09l.25-.73a1.71,1.71,0,0,0-.57-.1M572,43.2h-1.32V42.13h-.82V43.2h-.75v.71h.75v1.61c0,.82.34,1.31,1.29,1.31a2,2,0,0,0,1-.27L572,45.9a1.6,1.6,0,0,1-.72.2c-.4,0-.53-.24-.53-.59v-1.6H572ZM560,46.74V44.52a1.35,1.35,0,0,0-1.46-1.41,1.5,1.5,0,0,0-1.31.63,1.37,1.37,0,0,0-1.22-.63,1.24,1.24,0,0,0-1.09.53V43.2h-.81v3.54h.82v-2a.84.84,0,0,1,.91-.94c.53,0,.8.33.8.93v2h.82v-2a.85.85,0,0,1,.91-.94c.55,0,.81.33.81.93v2Z"/><path class="cls-1" d="M596.57,35v-.52h-.14l-.16.36-.17-.36H596V35h.1v-.39l.16.34h.1l.15-.34V35Zm-.9,0v-.43h.19v-.09h-.47v.09h.19V35Z"/><g class="cls-2"><path class="cls-1" d="M569.05,26.71a13.1,13.1,0,0,1,5.34-10.48,14.33,14.33,0,0,0-8.64-2.85c-7.72,0-14,6-14,13.33S558,40,565.75,40a14.33,14.33,0,0,0,8.64-2.85,13.1,13.1,0,0,1-5.34-10.48"/></g><g class="cls-2"><path class="cls-1" d="M597,26.71C597,34.07,590.74,40,583,40a14.33,14.33,0,0,1-8.64-2.85,13,13,0,0,0,0-21A14.33,14.33,0,0,1,583,13.38c7.72,0,14,6,14,13.33"/></g><path class="cls-1" d="M574.38,37.19a13,13,0,0,1,0-21,13,13,0,0,1,0,21Z"/><path class="cls-1" d="M666.62,37.45a21.63,21.63,0,0,1-2.78,2.94,3.5,3.5,0,0,1-2.57.81,2.26,2.26,0,0,1-2.3-2.6c0-2.28.73-4.46,1-6.69,0-.1,0-.19,0-.29.11-.9.21-1.82-.72-2.39a2.73,2.73,0,0,0-2.84.51,3.45,3.45,0,0,0-1.17,2c-.47,2.73-1,5.45-1.43,8.19-.15.93-.57,1.27-1.46,1.17a7.69,7.69,0,0,0-1,0c-1.48,0-1.47,0-1.2-1.51.47-2.6.93-5.21,1.37-7.81.15-.91.19-1.81-.72-2.4a2.32,2.32,0,0,0-2.76.33,4.16,4.16,0,0,0-1.61,2.63c-.44,2.54-.91,5.08-1.31,7.63-.14.87-.53,1.16-1.39,1.15-2.46,0-2.46,0-2.08-2.4l.32-2-1.5,1.73a10.27,10.27,0,0,1-2.42,2.28,3,3,0,0,1-3.43,0,2.75,2.75,0,0,1-.94-2.84c.09-.66.22-1.32.34-2l.4-2.06a6.06,6.06,0,0,0-1.37,1.35,26.58,26.58,0,0,1-4.1,4.38A6.25,6.25,0,0,1,625,41c-2-.07-4.08,0-6.12,0-.8,0-1-.24-1-1.07.06-1.81,1.31-2.85,2.3-4.06,1.72-2.09,3.5-4.13,5.25-6.19.17-.21.53-.41.4-.71s-.57-.2-.87-.2c-1.31,0-2.61,0-3.92,0-.78,0-1.05-.32-.86-1.06a4.66,4.66,0,0,0,.12-.65c.06-.91.5-1.23,1.43-1.21,2.86,0,5.73,0,8.6,0,.78,0,1,.19,1,1.05a5,5,0,0,1-1.47,2.92L623.45,37c-.18.2-.53.38-.4.69s.51.18.78.19c.64,0,1.28,0,1.91,0a4.79,4.79,0,0,0,3.69-1.54c1.86-2,3.66-4.15,5.46-6.26a5.19,5.19,0,0,0,.83-2.9c.13-1,.53-1.41,1.6-1.38,2.31.07,2.33,0,1.94,2.26-.49,2.86-1,5.71-1.54,8.56-.07.4-.25.87.21,1.13s.77-.15,1.05-.44c1.28-1.29,2.39-2.73,3.54-4.13a2,2,0,0,0,.41-1.06l.93-5.27c.08-.48.13-1,.78-1s1.54-.34,2,.6c.68,1.32.7,1.31,1.88.37a5,5,0,0,1,4-1.18,2.93,2.93,0,0,1,2.23,1.31c.45.77.78.63,1.37.16a5.79,5.79,0,0,1,4.11-1.51c2.38.17,3.65,1.45,3.67,3.87a38.82,38.82,0,0,1-.83,5.66c-.08.54-.21,1.07-.27,1.6-.05.37-.14.83.29,1s.73-.12,1-.4a20.94,20.94,0,0,1,1.47-1.64c1.93-1.71,2.43-4,2.73-6.41.11-.82.27-1.64.41-2.45.07-.44.09-1,.68-1s1.49-.34,2,.42a2.38,2.38,0,0,1,.26.5c.27.74.66.73,1.21.27a5.47,5.47,0,0,1,3.85-1.43,3.46,3.46,0,0,1,3,1.84,7.89,7.89,0,0,1,1,4,3.62,3.62,0,0,0,.08,1.5c.34.07.46-.2.63-.37a10.54,10.54,0,0,1,.93-1c2.53-1.88,2.9-4.71,3.29-7.53.12-.85.3-1.69.43-2.54a1,1,0,0,1,1.07-.95c2.77-.09,2.8-.11,2.34,2.59-.76,4.39-1.57,8.78-2.35,13.17a3.36,3.36,0,0,0-.08.94c.08.61.42.92,1.06.76a7.64,7.64,0,0,0,2.9-1.79c.35-.28.19-.78.21-1.19a11,11,0,0,1,2.31-7,7.07,7.07,0,0,1,7.08-2.33,4,4,0,0,1,2.5,1.79,2.3,2.3,0,0,1-.68,3.48L696,35.47c-1,.67-1,1.11-.09,1.89a3.58,3.58,0,0,0,4,0,53.63,53.63,0,0,0,5.9-4.38,2.09,2.09,0,0,0,.67-1.34c.26-1.57.52-3.15.81-4.71.09-.52.09-1.17.88-1.13s1.6-.31,2,.79.49,1.14,1.52.38a7.49,7.49,0,0,1,2.8-1.38c.5-.11.74,0,.64.59-.15.85-.29,1.7-.43,2.54a.52.52,0,0,1-.65.51,3.58,3.58,0,0,0-4.08,3.28c-.41,2.39-.81,4.78-1.22,7.16-.24,1.43-.25,1.43-1.7,1.43-2.27,0-2.27,0-1.85-2.24a13.08,13.08,0,0,0,.29-3c-1.1.85-2.2,1.69-3.29,2.55a16.81,16.81,0,0,1-3.17,2.11A5.07,5.07,0,0,1,692.39,39c-.39-.55-.65-.55-1.12-.19a14.05,14.05,0,0,1-2.83,1.78,9.45,9.45,0,0,1-1.15.45c-2.76.73-4.41-.76-3.95-3.57.23-1.44.5-2.87.76-4.32-.45-.06-.59.24-.76.44-1.61,1.86-3.4,3.54-5.14,5.27a7.42,7.42,0,0,1-3.09,1.83,4.34,4.34,0,0,1-4.34-.64c-.44-.37-.64-.3-.73.26-.28,1.61-.6,3.2-.84,4.81a1,1,0,0,1-1.2,1c-2.94,0-2.7.31-2.2-2.6.31-1.79.64-3.58,1-5.37A.67.67,0,0,0,666.62,37.45ZM677,32.27c0-.38,0-.77-.06-1.15a2.11,2.11,0,0,0-3.22-1.75,3.87,3.87,0,0,0-2.25,2.79c-.26,1.22-.4,2.45-.65,3.67a1.29,1.29,0,0,0,.8,1.54,3.32,3.32,0,0,0,4.11-1A6.56,6.56,0,0,0,677,32.27Zm18.09,1.12a55.47,55.47,0,0,0,4.76-3.09.74.74,0,0,0-.1-1.17,1.63,1.63,0,0,0-1.6-.33A4.42,4.42,0,0,0,695.07,33.39Z"/><path class="cls-1" d="M640.63,22a2.48,2.48,0,0,1-2.46,2.42,1.86,1.86,0,0,1-1.93-1.81,2.67,2.67,0,0,1,2.54-2.49A1.82,1.82,0,0,1,640.63,22Z"/><g id="layer1"><g id="g3098"><path id="path3741" class="cls-1" d="M741.29,16.09,736,44.78h11.54l2-11.26,4.1,11.26H786L789.63,25h1.55l-3.36,18.2s-.58,1.59,1.26,1.59h80.64l1.37-7.33,2.19,7.33h11.78l-4-10.65s3.24-1.37,4.52-3a9.64,9.64,0,0,0,1.91-6.1,7.68,7.68,0,0,0-3.38-6.73c-2.16-1.48-5.31-2.21-9.36-2.21h-11.1L860,35.87h-9.69l.25-1.39h7.73l1.48-8.11h-7.7l.23-1.39h8l1.63-8.9H842.58l-3.45,18.77s-2.86.36-2.43-1.9l3.13-16.87H828.22l-3.46,18.77s-2.69.27-2.28-1.9,3.13-16.87,3.13-16.87H814l-3.65,19.78h-9.78l.25-1.39h7.77l1.48-8.1h-7.77l.26-1.39h8.07l1.62-8.9H758.66l-2.12,11.38-4.1-11.38Zm1.3,1.54h8.76l5.73,15.69L760,17.63h50.43l-1.06,5.8h-8.05l-.82,4.48h7.76l-.92,5h-7.77l-.83,4.49h12.94l3.65-19.79h8.46L820.25,36.4H826l3.46-18.77H838L834.48,36.4h5.94l3.45-18.77h16.19L859,23.43h-8l-.83,4.48h7.74l-.92,5h-7.74l-.82,4.49h12.83L865,17.63h9.8c3.74,0,6.6.65,8.49,1.95a6.11,6.11,0,0,1,2.7,5.45,8.14,8.14,0,0,1-1.59,5.16,7.62,7.62,0,0,1-4.49,2.64L879,33l3.84,10.2h-8.38l-3.7-12.49-2.31,12.49h-79L793,23.43h-4.69l-3.66,19.79h-30L749.1,27.11l-2.86,16.11h-8.39Zm24.57,5.8-.77,4.44h8l-.92,5.06h-8l-.84,4.49H777.4l2.56-14ZM768.45,25h9.66l-2,10.88h-9.68l.26-1.39h8.06l1.48-8.09h-8Z"/><path id="path3745" class="cls-1" d="M877.71,25.88a2.67,2.67,0,0,0-1.2-2.39,5.61,5.61,0,0,0-3.1-.68h-1.22l-1.26,6.86h1.66a6.52,6.52,0,0,0,3.74-.87,3.38,3.38,0,0,0,1.38-2.92m-2.28,1.65a4.91,4.91,0,0,1-2.64.6c-.07,0,.69-3.77.69-3.77h-.07a4.5,4.5,0,0,1,2.27.42,1.19,1.19,0,0,1,.47,1.1,1.78,1.78,0,0,1-.72,1.65"/><path id="path3747" class="cls-1" d="M887.7,38.87A3.25,3.25,0,1,1,891,42.12a3.26,3.26,0,0,1-3.25-3.25m-.34,0A3.59,3.59,0,1,0,891,35.26a3.6,3.6,0,0,0-3.59,3.61"/><path id="path3749" class="cls-1" d="M890.34,38.64h.32a1.58,1.58,0,0,0,.37,0,.88.88,0,0,0,.33-.06.91.91,0,0,0,.24-.16.5.5,0,0,0,0-.54,1.2,1.2,0,0,0-.24-.15,2.79,2.79,0,0,0-.33-.06h-.69Zm-1-1.59h1c.27,0,.53,0,.81,0a3.39,3.39,0,0,1,.73.09,1.29,1.29,0,0,1,.54.3.88.88,0,0,1,.19.6.69.69,0,0,1-.27.56,1.2,1.2,0,0,1-.72.3h0a.51.51,0,0,1,.32.13,1.1,1.1,0,0,1,.19.25l.78,1.45H891.9l-.58-1.16a.65.65,0,0,0-.23-.3,1,1,0,0,0-.44-.09h-.31v1.55h-1Z"/></g></g><path id="path2491" class="cls-1" d="M944.2,29.6c0-.55-.28-.84-.79-.86h-2.7a1,1,0,0,0-1,1.05v4.87a1,1,0,0,0,1.1,1.05h2.47a.84.84,0,0,0,.65-.29.73.73,0,0,0,.26-.57Zm-8-.69a4.31,4.31,0,0,1,.82-2.77,3.27,3.27,0,0,1,1-.67,3,3,0,0,1,1.26-.29h5c2.18,0,3.3,1.21,3.33,3.59v7.32a3,3,0,0,1-1,2.19,3.16,3.16,0,0,1-2.27,1h-4.7v5.28h-3.47V28.91"/><path id="path2493" class="cls-1" d="M953.94,35a.57.57,0,0,0,.28.49.93.93,0,0,0,.63.22h2.66c.6,0,.92-.24.94-.71V34c0-.55-.32-.82-1-.82h-2.64a1.21,1.21,0,0,0-.73.16,1.17,1.17,0,0,0-.18.76Zm4.51-5.48c0-.54-.3-.79-.94-.78h-7V25.18h7.87c2.29,0,3.46,1.14,3.5,3.33V36a3.48,3.48,0,0,1-.87,2.34,2.94,2.94,0,0,1-2.27,1H954c-2.31,0-3.49-1.07-3.52-3.18V33.22c0-2.2,1.14-3.32,3.36-3.36h4.62v-.34"/><path id="path2495" class="cls-1" d="M971.64,41a1.1,1.1,0,0,0,.71-.29.74.74,0,0,0,.27-.57v-.85h-4.44a3.58,3.58,0,0,1-1.39-.22,3.06,3.06,0,0,1-1.09-.74,3.36,3.36,0,0,1-.75-1.18,3.63,3.63,0,0,1-.24-1.42V25.18h3.47v9.4c0,.75.31,1.13.93,1.13h2.45a1.11,1.11,0,0,0,.76-.29.77.77,0,0,0,.3-.6V25.18h3.45V40.71a4.37,4.37,0,0,1-.89,2.77,3,3,0,0,1-2.37,1.07h-8.1V41h6.93"/><path id="path2497" class="cls-1" d="M978.79,35.71H985c.56,0,.86-.25.88-.68v-.32a.64.64,0,0,0-.09-.31c-.13-.27-.3-.4-.51-.4H982.2a3.46,3.46,0,0,1-2.34-.94,2.7,2.7,0,0,1-1-2.05V28.35c0-2.08,1.16-3.13,3.38-3.17h7.18v3.56h-6.08c-.71,0-1.07.22-1.07.66v.34c0,.46.36.68,1.1.68h3a2.87,2.87,0,0,1,2.09.94,3.17,3.17,0,0,1,.91,2.19v2.6a3.47,3.47,0,0,1-1,2.19,2.76,2.76,0,0,1-1,.74,3.88,3.88,0,0,1-1.37.19h-7.26V35.71"/><path id="path2499" class="cls-1" d="M995.34,35a.57.57,0,0,0,.28.49.93.93,0,0,0,.63.22h2.67c.6,0,.91-.24.93-.71V34c0-.55-.32-.82-1-.82h-2.64a1.16,1.16,0,0,0-.72.16,1.11,1.11,0,0,0-.19.76Zm4.51-5.48c0-.54-.3-.79-.94-.78h-7V25.18h7.88c2.29,0,3.45,1.14,3.49,3.33V36a3.48,3.48,0,0,1-.87,2.34,2.92,2.92,0,0,1-2.27,1h-4.76c-2.31,0-3.49-1.07-3.52-3.18V33.22c0-2.2,1.14-3.32,3.36-3.36h4.62v-.34"/><path id="path2501" class="cls-1" d="M1006.11,23.16a2.93,2.93,0,0,1,1.07-2.32,4,4,0,0,1,2.66-.91h2.2v3.45h-1.33c-.74,0-1.11.37-1.13,1v.76H1012v3.57h-2.46V39.28h-3.47V23.16"/><path id="path2503" class="cls-1" d="M1021.91,29.45v-.08a.55.55,0,0,0-.22-.46,1,1,0,0,0-.6-.17h-2.41a1.09,1.09,0,0,0-.76.27.75.75,0,0,0-.36.65v1.43Zm-4.29,5v.22a1,1,0,0,0,.22.68.51.51,0,0,0,.45.32h7.13v3.56h-7.58a5.23,5.23,0,0,1-1.61-.19,3,3,0,0,1-1.12-.67,3,3,0,0,1-.77-1.16,5.23,5.23,0,0,1-.21-1.64l0-7.14c0-2.16,1.16-3.25,3.38-3.29h4.68c2.16,0,3.25,1.17,3.29,3.41v2.82l-7.83,3.08"/><path id="path2505" class="cls-1" d="M1032.8,39.27a7.24,7.24,0,0,1-1.45-.13,3.12,3.12,0,0,1-1.37-.65,3.26,3.26,0,0,1-1-1.39,4.89,4.89,0,0,1-.28-1.72V28.72a4.51,4.51,0,0,1,.16-1.43,2.92,2.92,0,0,1,.74-1.21,3.18,3.18,0,0,1,1.3-.83,6.19,6.19,0,0,1,1.49-.16h5.32v.83h-5.2a3.6,3.6,0,0,0-2.16.57,2.51,2.51,0,0,0-.82,2.12v6.66a4.17,4.17,0,0,0,.22,1.36,2.69,2.69,0,0,0,.73,1.14,2.74,2.74,0,0,0,1.12.54,5.46,5.46,0,0,0,1.23.13h5v.83h-5"/><path id="path2507" class="cls-1" d="M1051.4,30.64h-7a2.68,2.68,0,0,0-2,.77,2.87,2.87,0,0,0-.73,2.08v2.13a4.36,4.36,0,0,0,.13,1.12,1.76,1.76,0,0,0,.65.95,3.06,3.06,0,0,0,2,.75h4.23c1.76,0,2.65-.95,2.65-2.8Zm.83,4.79a8.45,8.45,0,0,1-.11,1.42,3.17,3.17,0,0,1-.69,1.3,3.48,3.48,0,0,1-2.71,1.12h-4.15a3.67,3.67,0,0,1-2.63-1,3.4,3.4,0,0,1-1-2.64V33.52c0-2.42,1.24-3.66,3.62-3.71h6.91v-.94a3.31,3.31,0,0,0-.67-2,2.07,2.07,0,0,0-1-.76,5.08,5.08,0,0,0-1.29-.15h-7.54v-.83h7.14a10.69,10.69,0,0,1,1.78.13,2.05,2.05,0,0,1,.76.32,2.43,2.43,0,0,1,.68.65,4.39,4.39,0,0,1,.94,2.85v6.39"/><path id="path2509" class="cls-1" d="M1060,25.92c-1.93,0-2.89,1.09-2.85,3.17V39.27h-.83V29.09q-.06-4,3.82-4h.92v.83H1060"/><path id="path2511" class="cls-1" d="M1074.08,25.92h-6.57a5,5,0,0,0-1.28.16,2.23,2.23,0,0,0-1.15.73,2.41,2.41,0,0,0-.66,1.07,3.66,3.66,0,0,0-.15,1.3v6.49a2.4,2.4,0,0,0,.94,2.21,3.83,3.83,0,0,0,1,.41,5.13,5.13,0,0,0,1.29.15h2.87a4.33,4.33,0,0,0,2.63-.74,2.8,2.8,0,0,0,1-2.43Zm.83,9.41q-.11,4-4.26,4h-3.08a8.37,8.37,0,0,1-1.75-.17,3.3,3.3,0,0,1-1.53-1,3.21,3.21,0,0,1-.69-1.38,5.12,5.12,0,0,1-.17-1.55V29.16c0-2.73,1.41-4.09,4.13-4.07h6.52v-4.6h.83V35.33"/><path id="path2513" class="cls-1" d="M917,24.64a4.14,4.14,0,0,1,.82-.27,5.27,5.27,0,0,1,10.32,0,3.84,3.84,0,0,1,1.93.93A7,7,0,0,0,930,24a7.07,7.07,0,0,0-14.11.33,8.61,8.61,0,0,0,0,1,4.56,4.56,0,0,1,1.11-.7"/><path id="path2515" class="cls-1" d="M927.08,25.18H918.6a3,3,0,0,0-1.27.29,3.39,3.39,0,0,0-1,.67,4.37,4.37,0,0,0-.81,2.77v6.63a4.37,4.37,0,0,0,.81,2.77,3.6,3.6,0,0,0,1,.68,3.18,3.18,0,0,0,1.27.28h8.48q3.28,0,3.34-3.59V28.77c0-2.38-1.15-3.57-3.34-3.59"/></svg>