<svg id="Providers" xmlns="http://www.w3.org/2000/svg" viewBox="0 0 650 105.05"><defs><style>.cls-1{fill:#84d5f7;}.cls-2{opacity:0.6;}</style></defs><title>payment_fi</title><path class="cls-1" d="M89,39A9.32,9.32,0,0,1,91.4,40.3a14.24,14.24,0,0,0,8.37,2.37A3.72,3.72,0,0,0,103,40.94a1.81,1.81,0,0,0-1.12-2.8,5,5,0,0,0-2-.1,9.07,9.07,0,0,1-9.58-7,2.7,2.7,0,0,1-.08-.39,1.36,1.36,0,0,1,1.63-1.56,8.91,8.91,0,0,1,2.41.87l3.47,1.71a4.17,4.17,0,0,0,1.29.43,2.43,2.43,0,0,0,2.73-1.61,2.3,2.3,0,0,0-1.21-2.78c-1.37-.73-2.79-1.38-4.18-2.07-.51-.24-1-.46-1.51-.74-1.52-.92-1.54-1.95,0-2.83a8.22,8.22,0,0,1,6.42-1,9.35,9.35,0,0,1,5.74,4.1,2.24,2.24,0,0,0,3.86,0,2.64,2.64,0,0,0,0-2.34,8.69,8.69,0,0,0-2.65-3.39,15,15,0,0,0-5.08-2.68,6.31,6.31,0,0,1-1.91-.78,14.74,14.74,0,0,1,4.69.29,15.25,15.25,0,0,1,12,12.37,14,14,0,0,1-3.24,11.77,15.32,15.32,0,0,1-11.33,5.61,15.59,15.59,0,0,1-11.83-4.24c-.67-.61-1.29-1.29-1.93-1.94A1.89,1.89,0,0,1,89,39Z"/><path class="cls-1" d="M234.36,31.3q0-4,0-8c0-1.28.29-1.57,1.55-1.58.24,0,.48,0,.72,0,1,0,1.26.35,1.27,1.28,0,1.5,0,3,0,4.5,0,.2-.11.48.15.58s.32-.15.47-.24a6.11,6.11,0,0,1,6.48-.19,3.46,3.46,0,0,1,1.72,3.1c0,3,0,6,0,8.93a1,1,0,0,1-1.12,1.17c-2.15.08-2.49,0-2.44-2.22.05-2,0-4,0-5.94,0-1.7-.54-2.35-2-2.44-1.79-.11-3,.73-3.14,2.26a64.58,64.58,0,0,0-.16,6.67c0,.57.16,1.29-.56,1.52a3.15,3.15,0,0,1-2.57-.09c-.46-.25-.42-.78-.42-1.23Z"/><path class="cls-1" d="M139.44,35.44h-3.21c-.77,0-.95.29-.69,1a2,2,0,0,0,1.74,1.23,12.87,12.87,0,0,0,4.87-.2c1.19-.19,1.43,0,1.57,1.15.16,1.34-.25,2-1.56,2.27a13.62,13.62,0,0,1-6.44,0A4.76,4.76,0,0,1,131.87,36c0-1.26,0-2.52,0-3.78A5.07,5.07,0,0,1,136.32,27a9.29,9.29,0,0,1,3.75,0,4.85,4.85,0,0,1,4,4.7,9.55,9.55,0,0,1-.07,2.56,1.23,1.23,0,0,1-1.35,1.1h-3.22Zm-1.4-2.9c.64,0,1.29,0,1.93,0s.82-.33.68-.92c-.25-1.11-1.21-1.67-2.71-1.59s-2.28.58-2.47,1.68c-.1.53,0,.84.64.83S137.4,32.53,138,32.54Z"/><path class="cls-1" d="M180.47,35.44c-1.09,0-2.19,0-3.29,0-.71,0-.82.37-.64.94a2,2,0,0,0,1.77,1.31,12.82,12.82,0,0,0,4.86-.2c1.21-.19,1.48,0,1.59,1.23s-.28,1.9-1.56,2.19a13.66,13.66,0,0,1-6.45,0A4.76,4.76,0,0,1,172.9,36c0-1.28,0-2.57,0-3.85a5.06,5.06,0,0,1,4.35-5.1,9.32,9.32,0,0,1,3.83,0,4.85,4.85,0,0,1,4,4.69,13,13,0,0,1,0,2.33c-.11,1-.51,1.33-1.54,1.34h-3.06Zm-1.36-2.91h0c.62,0,1.23,0,1.85,0s.88-.22.7-1c-.27-1.12-1.3-1.68-2.81-1.53s-2.2.61-2.36,1.71c-.08.49.06.78.61.78Z"/><path class="cls-1" d="M218.92,34.24c0,1,0,1.93,0,2.89a3.62,3.62,0,0,1-2.62,3.64,10.83,10.83,0,0,1-6.8,0A3.44,3.44,0,0,1,207,37.42c-.11-1.76.34-3.24,2.07-4.08a6.43,6.43,0,0,1,2.72-.64c1,0,1.93,0,2.89,0,.47,0,.66-.21.68-.68A1.63,1.63,0,0,0,214,30.1a9.68,9.68,0,0,0-3-.07c-.32,0-.64.08-1,.09-1.07,0-1.3-.14-1.44-1.05s.23-1.8,1.1-1.95a12.33,12.33,0,0,1,7,.51,3.7,3.7,0,0,1,2.32,3.55C219,32.2,218.92,33.22,218.92,34.24Zm-5.57,1.19a6.06,6.06,0,0,0-1.82.14,1.26,1.26,0,0,0-.94,1.26,1.21,1.21,0,0,0,1,1.26,7,7,0,0,0,2.63,0c.82-.16,1.23-1,1.12-2.05s-.81-.53-1.29-.62A5.88,5.88,0,0,0,213.35,35.43Z"/><path class="cls-1" d="M159.07,35.56c0,1.37,0,2.74,0,4.1,0,.88-.33,1.19-1.22,1.24-2.09.13-2.32-.1-2.32-2.17s0-4.07,0-6.11c0-1.67-.6-2.27-2.27-2.33a6.16,6.16,0,0,0-1,0c-1.4.16-1.86.54-2,1.94-.2,2.16-.05,4.33-.07,6.5S150,41,148,40.9c-.92,0-1.28-.35-1.28-1.27,0-2.62-.05-5.25,0-7.87s1.91-4.49,4.81-4.8a10.57,10.57,0,0,1,4.07.23,4.48,4.48,0,0,1,3.5,4.44C159.09,32.94,159.07,34.25,159.07,35.56Z"/><path class="cls-1" d="M225.76,41.22a9.72,9.72,0,0,1-3.54-.42,2.23,2.23,0,0,1-1-3.12c.31-.42.76-.35,1.18-.24a14.86,14.86,0,0,0,4.46.41,3.44,3.44,0,0,0,.64,0c.33-.05.63-.17.71-.54a.69.69,0,0,0-.49-.82L224,34.84a4,4,0,0,1-2.69-2.65c-.53-2.38,0-4.8,3.79-5.22a11.84,11.84,0,0,1,4.7.29,2.12,2.12,0,0,1,1.19,3c-.32.52-.85.42-1.31.32a15,15,0,0,0-3.6-.28,5.4,5.4,0,0,0-.56,0,.79.79,0,0,0-.75.62c-.07.39.24.58.54.7,1.19.49,2.39.94,3.57,1.44a4.09,4.09,0,0,1,2.51,2.11c.84,2.09.61,5.24-3,5.86A11.25,11.25,0,0,1,225.76,41.22Z"/><path class="cls-1" d="M162.77,34.16c0-.89,0-1.77,0-2.65,0-.65-.19-.91-.87-.91-1.43,0-1.91-.72-1.55-2.12a1.31,1.31,0,0,1,1.29-1c.91-.08,1.24-.58,1.28-1.41a4.58,4.58,0,0,1,.1-.63c.29-1.63.7-1.93,2.33-1.73a1,1,0,0,1,.94,1c0,.59,0,1.18,0,1.76s.22.78.76.77c.89,0,1.77,0,2.66,0s1.2.35,1.25,1.22q0,.41,0,.81c0,1-.37,1.32-1.39,1.33-.81,0-1.61,0-2.41,0-.61,0-.88.19-.87.83,0,1.5,0,3,0,4.5s.63,2,2,1.91c.69,0,1.38-.15,2.07-.24a.82.82,0,0,1,1,.81c.25,1.9-.34,2.68-2.24,2.79a9.93,9.93,0,0,1-2.88-.1,4.35,4.35,0,0,1-3.54-4.29c0-.88,0-1.77,0-2.65Z"/><path class="cls-1" d="M196.12,34.13a17.75,17.75,0,0,1,0-2.73,5.34,5.34,0,0,1,5.25-4.47,8.08,8.08,0,0,1,3.42.29,2.19,2.19,0,0,1,.71,3.09,1.08,1.08,0,0,1-1.13.2,6.88,6.88,0,0,0-3.19-.07,1.77,1.77,0,0,0-1.5,1.56,15.83,15.83,0,0,0,0,4,1.93,1.93,0,0,0,1.62,1.66,8.4,8.4,0,0,0,3.35,0c1-.14,1.3.15,1.35,1.08.1,1.67-.22,2.13-1.87,2.38a9.5,9.5,0,0,1-4.84-.39,4.75,4.75,0,0,1-3.26-4.59c0-.67,0-1.34,0-2Z"/><path class="cls-1" d="M187.54,35.4V31.78a4.55,4.55,0,0,1,4.59-4.86c.51,0,1,0,1.53,0a1.18,1.18,0,0,1,1.26,1.18,3.62,3.62,0,0,1,0,.57c0,1.48-.11,1.62-1.56,1.63-1.8,0-2.24.45-2.28,2.4,0,2.17,0,4.35,0,6.52,0,.57.17,1.29-.56,1.53a3.24,3.24,0,0,1-2.57-.08c-.39-.21-.41-.66-.41-1.08C187.54,38.19,187.55,36.8,187.54,35.4Z"/><path class="cls-1" d="M283,40c-3.27,0-6.55,0-9.82,0a3.07,3.07,0,0,1-1-.15,2.26,2.26,0,0,1-1.46-1.69c-.2-.86-.39-1.73-.58-2.59-.36-1.62-.72-3.24-1.09-4.86L267.75,25a1.64,1.64,0,0,1,1.05-2,3.29,3.29,0,0,1,1.2-.24h3.77c.22,0,.24,0,.24-.25s0-.7,0-1V20.29a9,9,0,0,1,5.4-8.26,8.94,8.94,0,0,1,12.48,7.45c.08,1,0,1.93,0,2.9,0,.39,0,.39.4.39h3.55a3.4,3.4,0,0,1,1.33.27,1.6,1.6,0,0,1,1,1.86c-.19.93-.41,1.86-.62,2.79q-.88,4-1.79,8.06c-.17.77-.35,1.55-.53,2.32a2.42,2.42,0,0,1-.63,1.19,2.28,2.28,0,0,1-1.57.68H283Zm0-17.18h5.58a.13.13,0,0,0,.14-.14,1.21,1.21,0,0,0,0-.19v-2c0-.37,0-.75,0-1.12a5.65,5.65,0,0,0-2.05-3.73,5.72,5.72,0,0,0-7.91.6,5.68,5.68,0,0,0-1.46,3.8V22.4c0,.37,0,.37.38.37Zm-.05,3.68h-3.2a1.77,1.77,0,0,0-.32,0,.32.32,0,0,0-.31.37q0,.72,0,1.44c0,.22.07.29.29.33h1.53c.45,0,.46,0,.46.46V34.8a2,2,0,0,0,0,.35.28.28,0,0,0,.27.27h2.11c.52,0,.61-.09.61-.61V28.9c0-.23.06-.28.29-.28s.53,0,.79,0h1c.27,0,.35-.1.36-.37v-.79c0-.21,0-.42,0-.62a.31.31,0,0,0-.28-.35,1.58,1.58,0,0,0-.37,0Z"/><path class="cls-1" d="M340.26,32.47v3.82a5.11,5.11,0,0,1-.39,2,2.65,2.65,0,0,1-2.5,1.69c-2.11,0-4.22,0-6.33,0a3.26,3.26,0,0,1-1.89-.57A3,3,0,0,1,328,37.66a5.86,5.86,0,0,1-.18-1.5V28.79a2.82,2.82,0,0,1,.09-.76.9.9,0,0,1,.93-.74H332a1.49,1.49,0,0,1,.73.2,1,1,0,0,1,.49.86V34a5.53,5.53,0,0,0,0,.71.81.81,0,0,0,.86.81.87.87,0,0,0,.9-.83,2.3,2.3,0,0,0,0-.37c0-1.91,0-3.82,0-5.73a4.32,4.32,0,0,1,.05-.62.69.69,0,0,1,.66-.66,2.56,2.56,0,0,1,.39,0h2.73a3.15,3.15,0,0,1,.44,0,1,1,0,0,1,.95,1c0,.1,0,.2,0,.3Z"/><path class="cls-1" d="M308.89,22.76h6.35a2.2,2.2,0,0,1,.57,0,.58.58,0,0,1,.49.6v3.05c0,.31-.13.44-.44.5a2,2,0,0,1-.42,0h-3.2c-.5,0-.55.06-.55.56V38.93c0,.12,0,.23,0,.35a.64.64,0,0,1-.51.62,3.72,3.72,0,0,1-.81.09h-3.23a5.16,5.16,0,0,1-.67-.05.6.6,0,0,1-.61-.67V27.62a1.69,1.69,0,0,0,0-.32.29.29,0,0,0-.3-.3h-3.2a2.28,2.28,0,0,1-.45,0,.44.44,0,0,1-.39-.44,1.55,1.55,0,0,1,0-.22V23.36a.57.57,0,0,1,.44-.53,2,2,0,0,1,.59-.07h6.37Z"/><path class="cls-1" d="M378.46,32.83c.09,0,.09-.13.12-.2.57-1.4,1.13-2.81,1.69-4.21a2.61,2.61,0,0,1,.39-.69,1.2,1.2,0,0,1,.93-.44h2.73a2,2,0,0,1,.59.08.39.39,0,0,1,.3.45,1.06,1.06,0,0,1-.12.43l-1.46,3.42q-1.51,3.57-3,7.14c-.67,1.6-1.35,3.19-2,4.79a2.17,2.17,0,0,1-.53.77,1.08,1.08,0,0,1-.74.29h-2.61a1.38,1.38,0,0,1-.53-.09.37.37,0,0,1-.28-.41,1,1,0,0,1,.1-.38l1.62-3.84a.72.72,0,0,0,0-.61l-4.44-11A3.17,3.17,0,0,1,371,28a.46.46,0,0,1,.32-.57,2,2,0,0,1,.68-.09c1.14,0,2.27,0,3.4,0a1.35,1.35,0,0,1,1.34.87c.09.2.16.42.23.63l1.35,3.83C378.37,32.7,378.38,32.78,378.46,32.83Z"/><path class="cls-1" d="M347.46,40.3a19.78,19.78,0,0,1-4.54-.54c-.11,0-.22-.08-.33-.1a.5.5,0,0,1-.43-.48c0-.21-.07-.42-.08-.64a8.69,8.69,0,0,1,0-1.61,2.23,2.23,0,0,1,.1-.43c.1-.27.22-.33.5-.27s.75.18,1.14.24a13.71,13.71,0,0,0,2.64.13,2.05,2.05,0,0,0,.54-.1.74.74,0,0,0,.28-.14.37.37,0,0,0,0-.6,2.43,2.43,0,0,0-.56-.33c-.62-.28-1.26-.53-1.87-.85a5.36,5.36,0,0,1-1.57-1.14,3.62,3.62,0,0,1-.82-3.69,3.41,3.41,0,0,1,1.66-1.9,7.37,7.37,0,0,1,2.57-.86,14.22,14.22,0,0,1,3.26-.12,9.74,9.74,0,0,1,1.7.2l.4.12a.4.4,0,0,1,.29.34,2.63,2.63,0,0,1,0,.49,5.64,5.64,0,0,1-.33,1.72,2,2,0,0,1-.23.46.43.43,0,0,1-.43.19L350,30.2a8.79,8.79,0,0,0-1.36-.07,1.65,1.65,0,0,0-.48.1.35.35,0,0,0-.09.65,7.12,7.12,0,0,0,1.16.61,10.22,10.22,0,0,1,2.22,1.29,5.09,5.09,0,0,1,1.16,1.29,4.23,4.23,0,0,1,.53,2.63,4.53,4.53,0,0,1-.32,1.24,3.41,3.41,0,0,1-1.53,1.63,6.31,6.31,0,0,1-2,.63A10.22,10.22,0,0,1,347.46,40.3Z"/><path class="cls-1" d="M355.51,34.06V31.21a1.34,1.34,0,0,0,0-.2c0-.16,0-.19-.19-.2h-.42c-.59,0-.84-.22-.86-.81s0-1.24,0-1.86a1.13,1.13,0,0,1,.06-.32.59.59,0,0,1,.45-.45,2,2,0,0,1,.54,0h.47c.18,0,.2,0,.2-.2s0-.49,0-.74,0-.41,0-.62a.91.91,0,0,1,.42-.77,2,2,0,0,1,.79-.29l2.59-.43a1.78,1.78,0,0,1,.61,0,.46.46,0,0,1,.39.37,1.31,1.31,0,0,1,0,.34v2.19c0,.16,0,.18.2.18H362a.68.68,0,0,1,.66.43,1.64,1.64,0,0,1,.13.65v1.84c0,.44-.22.61-.67.62H361c-.23,0-.26,0-.26.26v4.76a.51.51,0,0,0,.47.57,2.12,2.12,0,0,0,.56,0c.22,0,.26,0,.34.21a2.54,2.54,0,0,1,.16.6,11,11,0,0,1,.22,2.07c0,.44,0,.48-.46.59a9.63,9.63,0,0,1-3,.32,4,4,0,0,1-2.2-.73,3.24,3.24,0,0,1-1.29-2.13,4.36,4.36,0,0,1-.05-.72Z"/><path class="cls-1" d="M369.83,31.21V39a2.27,2.27,0,0,1,0,.45.63.63,0,0,1-.54.51,4,4,0,0,1-.49,0h-3.1a5.46,5.46,0,0,1-.57,0,.46.46,0,0,1-.45-.45,3.27,3.27,0,0,1,0-.54V23.46a1.71,1.71,0,0,1,0-.39.66.66,0,0,1,.61-.56h3.57a1.86,1.86,0,0,1,.57.07.59.59,0,0,1,.43.54c0,.11,0,.22,0,.33Z"/><path class="cls-1" d="M317.07,34.36c0-1.42,0-2.83,0-4.24a4.41,4.41,0,0,1,.09-.89,2.17,2.17,0,0,1,1.37-1.59,4.59,4.59,0,0,1,1.52-.32c1.08-.06,2.16,0,3.24,0h2.51c.41,0,.56.15.56.55,0,.85,0,1.69,0,2.53,0,.46-.21.65-.66.65a10.76,10.76,0,0,0-1.6.11,2.8,2.8,0,0,0-1.18.49,1.39,1.39,0,0,0-.61,1.11,5,5,0,0,0,0,.55c0,1.67,0,3.35,0,5,0,.3,0,.6,0,.89a.74.74,0,0,1-.72.77c-.12,0-.24,0-.37,0h-2.7a3.73,3.73,0,0,1-.47,0,1,1,0,0,1-.92-1c0-.11,0-.22,0-.33Z"/><path class="cls-1" d="M285.42,44.14a3.55,3.55,0,1,1,3.52,3.57A3.52,3.52,0,0,1,285.42,44.14Z"/><path class="cls-1" d="M280.52,44.14A3.56,3.56,0,1,1,277,40.6,3.53,3.53,0,0,1,280.52,44.14Z"/><g id="g4158"><polygon id="polygon9" class="cls-1" points="444.56 44.36 437.38 44.36 441.87 16.59 449.05 16.59 444.56 44.36"/><path id="path11" class="cls-1" d="M470.59,17.27a17.7,17.7,0,0,0-6.44-1.18c-7.09,0-12.08,3.78-12.11,9.19-.06,4,3.57,6.2,6.29,7.53s3.72,2.25,3.72,3.46c0,1.86-2.24,2.72-4.31,2.72A14.37,14.37,0,0,1,451,37.51l-.94-.45-1,6.24a21.84,21.84,0,0,0,8,1.48c7.54,0,12.44-3.73,12.5-9.49,0-3.16-1.89-5.58-6-7.56-2.51-1.27-4-2.13-4-3.43s1.3-2.39,4.14-2.39A12.24,12.24,0,0,1,469,23l.65.3,1-6Z"/><path id="path13" class="cls-1" d="M480.14,34.52c.59-1.59,2.86-7.77,2.86-7.77s.59-1.62.95-2.65l.5,2.39s1.36,6.65,1.66,8ZM489,16.59h-5.55a3.54,3.54,0,0,0-3.76,2.31L469,44.36h7.53s1.24-3.43,1.51-4.16h9.22l.85,4.16h6.65L489,16.59Z"/><path id="path15" class="cls-1" d="M431.38,16.59l-7,18.94-.77-3.84c-1.3-4.43-5.38-9.25-9.93-11.64l6.44,24.28h7.6L439,16.59Z"/><path id="path17" class="cls-1" d="M417.82,16.59H406.27l-.12.56c9,2.31,15,7.86,17.43,14.54l-2.51-12.76c-.41-1.78-1.68-2.28-3.25-2.34Z"/></g><path class="cls-1" d="M560,46.48v.09h.09l0,0s0,0,0,0,0,0,0,0H560Zm.09-.06.1,0a.11.11,0,0,1,0,.08.08.08,0,0,1,0,.07.12.12,0,0,1-.09,0l.12.12h-.09l-.1-.12h0v.12H560v-.32Zm0,.44.12,0,.09,0,.06-.09a.36.36,0,0,0,0-.11.43.43,0,0,0,0-.11l-.06-.08-.09-.06-.12,0-.11,0a.24.24,0,0,0-.09.06.16.16,0,0,0-.06.08.22.22,0,0,0,0,.11.2.2,0,0,0,0,.11.24.24,0,0,0,.06.09l.09,0a.23.23,0,0,0,.11,0m0-.63a.33.33,0,0,1,.15,0,.35.35,0,0,1,.12.07.44.44,0,0,1,.08.11.35.35,0,0,1,0,.14.32.32,0,0,1,0,.14.44.44,0,0,1-.08.11.36.36,0,0,1-.12.08l-.15,0-.14,0a.36.36,0,0,1-.12-.08.28.28,0,0,1-.08-.11.32.32,0,0,1,0-.14.35.35,0,0,1,0-.14.28.28,0,0,1,.08-.11.35.35,0,0,1,.12-.07.32.32,0,0,1,.14,0M525.46,45a1.13,1.13,0,1,1,1.13,1.14A1.09,1.09,0,0,1,525.46,45m3,0V43.2h-.81v.43a1.43,1.43,0,0,0-1.17-.52,1.86,1.86,0,0,0,0,3.72,1.43,1.43,0,0,0,1.17-.52v.43h.81Zm27.27,0a1.13,1.13,0,1,1,1.13,1.14A1.09,1.09,0,0,1,555.74,45m3,0V41.78h-.81v1.85a1.42,1.42,0,0,0-1.17-.52,1.86,1.86,0,0,0,0,3.72,1.42,1.42,0,0,0,1.17-.52v.43h.81ZM538.49,43.8a.91.91,0,0,1,.94.86H537.5a.94.94,0,0,1,1-.86m0-.69A1.77,1.77,0,0,0,536.65,45a1.79,1.79,0,0,0,1.91,1.86,2.33,2.33,0,0,0,1.52-.49l-.4-.57a1.85,1.85,0,0,1-1.08.37,1,1,0,0,1-1.11-.87h2.76a2.91,2.91,0,0,0,0-.3,1.73,1.73,0,0,0-1.76-1.86M548.25,45a1.12,1.12,0,1,1,1.12,1.14A1.08,1.08,0,0,1,548.25,45m3,0V43.2h-.8v.43a1.45,1.45,0,0,0-1.18-.52,1.86,1.86,0,0,0,0,3.72,1.45,1.45,0,0,0,1.18-.52v.43h.8Zm-7.56,0a1.83,1.83,0,0,0,2,1.86,2,2,0,0,0,1.34-.42l-.39-.62a1.76,1.76,0,0,1-1,.32,1.14,1.14,0,0,1,0-2.27,1.68,1.68,0,0,1,1,.32l.39-.62a2,2,0,0,0-1.34-.43,1.83,1.83,0,0,0-2,1.86m10.41-1.86a1.11,1.11,0,0,0-1,.52V43.2h-.8v3.54h.81v-2c0-.59.26-.91.79-.91a1.29,1.29,0,0,1,.5.09l.25-.73a1.71,1.71,0,0,0-.57-.1m-21.64.37a2.91,2.91,0,0,0-1.51-.37c-1,0-1.55.43-1.55,1.14s.45.93,1.28,1l.38.05c.44.06.65.17.65.37s-.29.43-.84.43a2.05,2.05,0,0,1-1.24-.37l-.38.6a2.77,2.77,0,0,0,1.61.46c1.07,0,1.69-.48,1.69-1.15s-.49-1-1.29-1.06l-.38-.06c-.35,0-.63-.11-.63-.34s.26-.42.7-.42a2.4,2.4,0,0,1,1.16.31Zm10.41-.37a1.09,1.09,0,0,0-1,.52V43.2h-.8v3.54h.8v-2c0-.59.27-.91.8-.91a1.29,1.29,0,0,1,.5.09l.25-.73a1.73,1.73,0,0,0-.58-.1M536,43.2h-1.32V42.13h-.82V43.2h-.75v.71h.75v1.61c0,.82.33,1.31,1.29,1.31a2,2,0,0,0,1-.27l-.23-.66a1.64,1.64,0,0,1-.72.2c-.4,0-.53-.24-.53-.59v-1.6H536Zm-12.07,3.54V44.52a1.35,1.35,0,0,0-1.46-1.41,1.49,1.49,0,0,0-1.31.63,1.38,1.38,0,0,0-1.23-.63,1.23,1.23,0,0,0-1.08.53V43.2H518v3.54h.81v-2a.85.85,0,0,1,.91-.94c.54,0,.81.33.81.93v2h.82v-2a.85.85,0,0,1,.91-.94c.55,0,.81.33.81.93v2Z"/><path class="cls-1" d="M560.53,35v-.52h-.14l-.17.36-.16-.36h-.14V35h.1v-.39l.15.34h.11l.15-.34V35Zm-.9,0v-.43h.18v-.09h-.46v.09h.18V35Z"/><g class="cls-2"><path class="cls-1" d="M533,26.71a13.1,13.1,0,0,1,5.34-10.48,14.33,14.33,0,0,0-8.64-2.85c-7.72,0-14,6-14,13.33S522,40,529.71,40a14.33,14.33,0,0,0,8.64-2.85A13.1,13.1,0,0,1,533,26.71"/></g><g class="cls-2"><path class="cls-1" d="M561,26.71C561,34.07,554.7,40,547,40a14.29,14.29,0,0,1-8.64-2.85,13,13,0,0,0,0-21A14.29,14.29,0,0,1,547,13.38c7.72,0,14,6,14,13.33"/></g><path class="cls-1" d="M538.34,37.19a13,13,0,0,1,0-21,13,13,0,0,1,0,21Z"/><path class="cls-1" d="M145.2,81.35a24.34,24.34,0,0,1-2.78,2.94,3.5,3.5,0,0,1-2.57.81,2.26,2.26,0,0,1-2.3-2.6c0-2.28.73-4.46,1-6.7,0-.09,0-.18,0-.28.11-.9.21-1.82-.72-2.39a2.71,2.71,0,0,0-2.84.51,3.37,3.37,0,0,0-1.17,2c-.47,2.73-1,5.45-1.44,8.18-.14.94-.56,1.28-1.46,1.17-.31,0-.63,0-.95,0-1.49,0-1.47,0-1.2-1.51.47-2.61.93-5.21,1.37-7.82a2.09,2.09,0,0,0-.73-2.39,2.31,2.31,0,0,0-2.75.33,4.16,4.16,0,0,0-1.61,2.63c-.44,2.54-.92,5.08-1.31,7.63-.14.87-.53,1.15-1.39,1.15-2.46,0-2.46,0-2.08-2.4.09-.56.18-1.13.32-2l-1.5,1.73a10.53,10.53,0,0,1-2.43,2.28,3,3,0,0,1-3.43,0,2.74,2.74,0,0,1-.93-2.84c.08-.66.22-1.32.34-2s.24-1.24.4-2.06a6.34,6.34,0,0,0-1.38,1.35,26.17,26.17,0,0,1-4.1,4.38,6.2,6.2,0,0,1-4.06,1.39c-2-.07-4.08,0-6.12,0-.8,0-1-.24-.95-1.08,0-1.8,1.3-2.84,2.3-4.05,1.71-2.09,3.5-4.13,5.24-6.19.18-.21.53-.41.4-.71s-.56-.2-.86-.21c-1.31,0-2.62,0-3.92,0-.79,0-1-.32-.87-1.06a3.56,3.56,0,0,0,.13-.65c0-.91.49-1.23,1.42-1.21,2.87,0,5.74,0,8.61,0,.78,0,1,.19.94,1a5.07,5.07,0,0,1-1.46,2.92q-3.21,3.59-6.41,7.21c-.18.2-.54.37-.4.69s.51.18.78.19c.63,0,1.27,0,1.91,0A4.81,4.81,0,0,0,108,80.22c1.86-2,3.66-4.15,5.46-6.26a5.21,5.21,0,0,0,.83-2.9c.13-1,.53-1.41,1.6-1.38,2.31.07,2.33,0,1.94,2.26-.5,2.86-1,5.71-1.54,8.56-.07.4-.25.87.21,1.13s.76-.15,1-.44c1.27-1.29,2.39-2.73,3.54-4.13a2.27,2.27,0,0,0,.41-1.06c.3-1.76.62-3.51.92-5.27.09-.48.14-1,.79-1s1.54-.34,2,.6c.67,1.32.7,1.31,1.88.37a5,5,0,0,1,4-1.18,3,3,0,0,1,2.24,1.31c.45.77.77.63,1.36.16a5.8,5.8,0,0,1,4.11-1.51c2.39.17,3.66,1.44,3.68,3.87a37.52,37.52,0,0,1-.84,5.66c-.08.54-.2,1.07-.27,1.6,0,.37-.13.83.3,1s.73-.11,1-.4c.5-.53.92-1.15,1.46-1.63,1.94-1.72,2.44-4,2.74-6.41.1-.83.27-1.64.4-2.46.07-.44.09-1,.69-1s1.48-.35,2,.42a2.19,2.19,0,0,1,.27.5c.27.74.66.73,1.21.26a5.43,5.43,0,0,1,3.85-1.42,3.44,3.44,0,0,1,3,1.84,7.78,7.78,0,0,1,1,4,4,4,0,0,0,.08,1.5c.34.07.47-.2.64-.37a10.49,10.49,0,0,1,.92-1c2.54-1.89,2.9-4.71,3.3-7.53.12-.85.3-1.69.43-2.54a1,1,0,0,1,1.06-1c2.78-.1,2.81-.11,2.34,2.58-.76,4.4-1.56,8.79-2.34,13.18a3,3,0,0,0-.08.94c.07.6.41.92,1.06.76a7.93,7.93,0,0,0,2.9-1.79c.35-.28.18-.78.2-1.19a11,11,0,0,1,2.32-7,7,7,0,0,1,7.07-2.33,4,4,0,0,1,2.51,1.79,2.28,2.28,0,0,1-.69,3.47c-2.18,1.5-4.38,3-6.57,4.46-1,.67-1,1.11-.08,1.89a3.6,3.6,0,0,0,4,0,53.39,53.39,0,0,0,5.9-4.39,2,2,0,0,0,.66-1.34c.27-1.57.53-3.14.81-4.7.1-.52.09-1.17.88-1.13s1.6-.31,2,.78.49,1.14,1.51.39A7.61,7.61,0,0,1,193,69.51c.49-.11.74,0,.64.59-.16.85-.29,1.7-.44,2.54-.06.36-.21.54-.64.51a3.57,3.57,0,0,0-4.08,3.28c-.41,2.39-.81,4.78-1.22,7.16C187,85,187,85,185.54,85c-2.28,0-2.27,0-1.85-2.24a13.74,13.74,0,0,0,.28-3c-1.09.85-2.19,1.69-3.28,2.55a17.66,17.66,0,0,1-3.17,2.11A5.07,5.07,0,0,1,171,82.86c-.39-.55-.65-.55-1.12-.19A14.34,14.34,0,0,1,167,84.45a10.13,10.13,0,0,1-1.15.45c-2.76.73-4.42-.77-4-3.57.24-1.44.51-2.87.76-4.32-.45-.06-.59.24-.76.43-1.6,1.87-3.39,3.54-5.13,5.28a7.45,7.45,0,0,1-3.1,1.83,4.32,4.32,0,0,1-4.33-.65c-.44-.36-.64-.29-.74.27-.27,1.6-.59,3.2-.83,4.8a1,1,0,0,1-1.2,1c-2.94,0-2.7.3-2.2-2.61q.47-2.67,1-5.36A.72.72,0,0,0,145.2,81.35Zm10.35-5.19a8.71,8.71,0,0,0-.06-1.14,2.1,2.1,0,0,0-3.21-1.75A3.88,3.88,0,0,0,150,76.06c-.25,1.21-.39,2.45-.64,3.67a1.28,1.28,0,0,0,.79,1.54,3.32,3.32,0,0,0,4.11-1A6.46,6.46,0,0,0,155.55,76.16Zm18.1,1.13a53.09,53.09,0,0,0,4.75-3.1.73.73,0,0,0-.09-1.16,1.64,1.64,0,0,0-1.61-.34A4.43,4.43,0,0,0,173.65,77.29Z"/><path class="cls-1" d="M119.2,65.9a2.46,2.46,0,0,1-2.45,2.42,1.86,1.86,0,0,1-1.93-1.82A2.69,2.69,0,0,1,117.36,64,1.82,1.82,0,0,1,119.2,65.9Z"/><g id="layer1"><g id="g3098"><path id="path3741" class="cls-1" d="M219.87,60l-5.3,28.69h11.55l2-11.26,4.1,11.26h32.34l3.65-19.8h1.54l-3.36,18.19s-.57,1.6,1.27,1.6h80.63l1.38-7.33,2.19,7.33h11.78l-4-10.66s3.24-1.36,4.53-3a9.71,9.71,0,0,0,1.91-6.11,7.69,7.69,0,0,0-3.38-6.73c-2.16-1.47-5.31-2.2-9.37-2.2h-11.1l-3.64,19.78H328.9l.24-1.39h7.74l1.48-8.12-7.71,0,.24-1.39h8L340.5,60H321.16l-3.45,18.77s-2.86.36-2.43-1.9S318.41,60,318.41,60H306.79l-3.45,18.77s-2.69.27-2.29-1.9S304.18,60,304.18,60H292.57l-3.65,19.78h-9.78l.25-1.39h7.76l1.48-8.1h-7.76l.25-1.39h8.08l1.62-8.9H237.24l-2.12,11.37L231,60Zm1.3,1.54h8.76l5.73,15.68,2.87-15.68H289l-1.05,5.8h-8L279,71.81h7.77l-.93,5h-7.77l-.82,4.49h12.94l3.65-19.79h8.46l-3.5,18.77h5.8l3.46-18.77h8.46L313.06,80.3H319l3.46-18.77h16.18l-1.05,5.8h-8l-.83,4.48h7.73l-.92,5h-7.73L327,81.32h12.84l3.65-19.79h9.8c3.74,0,6.61.65,8.5,1.95a6.13,6.13,0,0,1,2.7,5.44,8.21,8.21,0,0,1-1.59,5.17,7.61,7.61,0,0,1-4.5,2.64l-.88.19,3.85,10.2H353l-3.7-12.49L347,87.12H268l3.65-19.79h-4.7l-3.65,19.79h-30L227.68,71l-2.86,16.11h-8.39Zm24.57,5.8L245,71.77h8L252,76.83h-8l-.84,4.49H256l2.55-14ZM247,68.89h9.66l-2,10.88H245l.26-1.39h8.05l1.49-8.09h-8.05Z"/><path id="path3745" class="cls-1" d="M356.29,69.78a2.67,2.67,0,0,0-1.2-2.39,5.65,5.65,0,0,0-3.11-.68h-1.21l-1.26,6.86h1.65a6.48,6.48,0,0,0,3.74-.87,3.36,3.36,0,0,0,1.39-2.92M354,71.43a4.91,4.91,0,0,1-2.64.6c-.07,0,.69-3.77.69-3.77H352a4.43,4.43,0,0,1,2.27.42,1.19,1.19,0,0,1,.48,1.1,1.78,1.78,0,0,1-.72,1.65"/><path id="path3747" class="cls-1" d="M366.28,82.77A3.25,3.25,0,1,1,369.53,86a3.25,3.25,0,0,1-3.25-3.25m-.34,0a3.59,3.59,0,1,0,3.59-3.61,3.59,3.59,0,0,0-3.59,3.61"/><path id="path3749" class="cls-1" d="M368.92,82.53h.31a2.23,2.23,0,0,0,.37,0,1,1,0,0,0,.33-.06.82.82,0,0,0,.25-.16.47.47,0,0,0,.07-.27.45.45,0,0,0-.07-.27,1,1,0,0,0-.25-.15,2.19,2.19,0,0,0-.33-.06h-.68ZM368,81h1.85a3.91,3.91,0,0,1,.72.1,1.14,1.14,0,0,1,.54.3.88.88,0,0,1,.2.6.72.72,0,0,1-.27.56,1.23,1.23,0,0,1-.73.3h0a.47.47,0,0,1,.32.13.92.92,0,0,1,.2.25l.77,1.44h-1.08l-.57-1.15a.67.67,0,0,0-.24-.3.94.94,0,0,0-.44-.09h-.3v1.54h-1Z"/></g></g><path id="path2491" class="cls-1" d="M422.78,73.5c0-.55-.28-.84-.79-.86h-2.7a1,1,0,0,0-1,1v4.87a1,1,0,0,0,1.09,1h2.48a.79.79,0,0,0,.64-.29.68.68,0,0,0,.27-.56Zm-7.95-.69a4.37,4.37,0,0,1,.81-2.77,3.39,3.39,0,0,1,1-.67,3,3,0,0,1,1.27-.29h5q3.29,0,3.34,3.59V80a3,3,0,0,1-1,2.19,3.18,3.18,0,0,1-2.27,1H418.3v5.28h-3.47V72.81"/><path id="path2493" class="cls-1" d="M432.52,78.9a.55.55,0,0,0,.27.48.9.9,0,0,0,.63.22h2.67c.6,0,.91-.23.93-.7v-1q0-.81-1-.81h-2.64a.72.72,0,0,0-.9.92Zm4.5-5.49c0-.53-.29-.78-.93-.77h-7V69.08H437c2.29,0,3.46,1.14,3.49,3.33v7.46a3.42,3.42,0,0,1-.86,2.34,3,3,0,0,1-2.27,1h-4.76c-2.32,0-3.49-1.08-3.53-3.18V77.11q0-3.28,3.36-3.35H437v-.35"/><path id="path2495" class="cls-1" d="M450.21,84.88a1.06,1.06,0,0,0,.71-.29.75.75,0,0,0,.28-.57v-.85h-4.44a3.55,3.55,0,0,1-1.39-.22,3.09,3.09,0,0,1-1.1-.74,3.79,3.79,0,0,1-.75-1.18,3.85,3.85,0,0,1-.23-1.43V69.08h3.47v9.4c0,.75.3,1.12.93,1.12h2.45a1,1,0,0,0,.75-.29.72.72,0,0,0,.31-.59V69.08h3.44V84.61a4.37,4.37,0,0,1-.88,2.77,3,3,0,0,1-2.37,1.07h-8.1V84.88h6.92"/><path id="path2497" class="cls-1" d="M457.37,79.6h6.19c.56,0,.86-.24.87-.68V78.6a.75.75,0,0,0-.08-.3c-.14-.27-.31-.41-.51-.41h-3.07a3.38,3.38,0,0,1-2.33-.93,2.67,2.67,0,0,1-1-2.06V72.24c0-2.07,1.16-3.13,3.38-3.16H468v3.56H461.9q-1.08,0-1.08.66v.34c0,.46.37.68,1.1.68H465a2.89,2.89,0,0,1,2.09.94,3.14,3.14,0,0,1,.9,2.19v2.6a3.41,3.41,0,0,1-1,2.19,2.76,2.76,0,0,1-1,.74,3.88,3.88,0,0,1-1.37.19h-7.26V79.6"/><path id="path2499" class="cls-1" d="M473.91,78.9a.55.55,0,0,0,.29.48.86.86,0,0,0,.62.22h2.67c.61,0,.92-.23.93-.7v-1q0-.81-1-.81h-2.64a1.2,1.2,0,0,0-.72.16,1.16,1.16,0,0,0-.19.76Zm4.51-5.49c0-.53-.29-.78-.93-.77h-7V69.08h7.87c2.29,0,3.46,1.14,3.49,3.33v7.46a3.52,3.52,0,0,1-.86,2.34,2.94,2.94,0,0,1-2.27,1H474q-3.48,0-3.52-3.18V77.11q0-3.28,3.36-3.35h4.61v-.35"/><path id="path2501" class="cls-1" d="M484.69,67.05a2.93,2.93,0,0,1,1.07-2.31,4,4,0,0,1,2.65-.91h2.21v3.45h-1.34c-.73,0-1.11.36-1.12,1v.76h2.46v3.57h-2.46V83.17h-3.47V67.05"/><path id="path2503" class="cls-1" d="M500.49,73.35v-.09a.55.55,0,0,0-.22-.45,1,1,0,0,0-.6-.17h-2.42a1,1,0,0,0-.75.27.74.74,0,0,0-.36.64V75Zm-4.3,5v.22a1,1,0,0,0,.23.68.48.48,0,0,0,.45.31H504v3.57h-7.58a5.23,5.23,0,0,1-1.61-.19,2.89,2.89,0,0,1-1.12-.68,3,3,0,0,1-.77-1.15,5,5,0,0,1-.22-1.64l0-7.14q.06-3.24,3.38-3.29h4.68q3.24,0,3.29,3.41v2.82l-7.83,3.08"/><path id="path2505" class="cls-1" d="M511.37,83.17a7.18,7.18,0,0,1-1.44-.14,3,3,0,0,1-1.37-.64,3.26,3.26,0,0,1-1-1.39,4.89,4.89,0,0,1-.28-1.72V72.62a4.24,4.24,0,0,1,.16-1.43,3,3,0,0,1,.73-1.21,3.11,3.11,0,0,1,1.31-.83A6.11,6.11,0,0,1,511,69h5.32v.84h-5.2a3.73,3.73,0,0,0-2.17.56,2.54,2.54,0,0,0-.81,2.13v6.66a4.49,4.49,0,0,0,.21,1.36,2.81,2.81,0,0,0,.74,1.14,2.68,2.68,0,0,0,1.12.54,5.34,5.34,0,0,0,1.23.13h5v.83h-5"/><path id="path2507" class="cls-1" d="M530,74.54h-7a2.66,2.66,0,0,0-2,.77,2.91,2.91,0,0,0-.72,2.08v2.12a4.39,4.39,0,0,0,.13,1.13,1.66,1.66,0,0,0,.65,1,3.06,3.06,0,0,0,2,.75h4.22c1.77,0,2.66-1,2.66-2.8Zm.83,4.79a8.45,8.45,0,0,1-.11,1.42,3.17,3.17,0,0,1-.69,1.3,3.49,3.49,0,0,1-2.71,1.12h-4.15a3.67,3.67,0,0,1-2.63-1,3.4,3.4,0,0,1-1-2.64V77.42q0-3.63,3.62-3.72H530v-.94a3.28,3.28,0,0,0-.67-2,2.12,2.12,0,0,0-1-.76,5.22,5.22,0,0,0-1.3-.15H519.5V69h7.15a10.8,10.8,0,0,1,1.78.14,1.92,1.92,0,0,1,.75.32,2.29,2.29,0,0,1,.69.64,4.47,4.47,0,0,1,.94,2.86v6.39"/><path id="path2509" class="cls-1" d="M538.61,69.82c-1.93,0-2.89,1.09-2.85,3.17V83.17h-.83V73q-.06-4,3.81-4h.93v.84h-1.06"/><path id="path2511" class="cls-1" d="M552.66,69.82h-6.57a5,5,0,0,0-1.28.16,2.23,2.23,0,0,0-1.15.72,2.43,2.43,0,0,0-.66,1.08,3.65,3.65,0,0,0-.16,1.3v6.49a2.39,2.39,0,0,0,.95,2.21,3.7,3.7,0,0,0,1,.41,5.05,5.05,0,0,0,1.28.15H549a4.35,4.35,0,0,0,2.62-.74,2.81,2.81,0,0,0,1-2.43Zm.83,9.41c-.07,2.69-1.49,4-4.26,4h-3.09A8.28,8.28,0,0,1,544.4,83a3.3,3.3,0,0,1-1.53-1,3.23,3.23,0,0,1-.7-1.38,5.5,5.5,0,0,1-.16-1.56V73.05c0-2.73,1.41-4.08,4.13-4.06h6.52v-4.6h.83V79.23"/><path id="path2513" class="cls-1" d="M395.55,68.54a4.28,4.28,0,0,1,.81-.27,5.28,5.28,0,0,1,10.33,0,3.77,3.77,0,0,1,1.92.93,7.1,7.1,0,1,0-14.16-1c0,.32,0,.66,0,1a4.63,4.63,0,0,1,1.12-.7"/><path id="path2515" class="cls-1" d="M405.65,69.08h-8.47a3,3,0,0,0-1.27.29,3.39,3.39,0,0,0-1,.67,4.25,4.25,0,0,0-.81,2.77v6.63a4.25,4.25,0,0,0,.81,2.77,3.39,3.39,0,0,0,1,.67,3,3,0,0,0,1.27.29h8.47c2.19,0,3.31-1.22,3.34-3.59V72.67c0-2.38-1.15-3.58-3.34-3.59"/></svg>