<svg id="Providers" xmlns="http://www.w3.org/2000/svg" viewBox="0 0 1200 60"><defs><style>.cls-1{fill:#84d5f7;}.cls-2{opacity:0.6;}</style></defs><title>payment_large_no</title><g id="g4158"><polygon id="polygon9" class="cls-1" points="233.26 44.36 226.08 44.36 230.57 16.59 237.75 16.59 233.26 44.36"/><path id="path11" class="cls-1" d="M259.29,17.27a17.75,17.75,0,0,0-6.44-1.18c-7.09,0-12.09,3.78-12.12,9.19,0,4,3.58,6.2,6.3,7.53s3.72,2.25,3.72,3.46c0,1.86-2.24,2.72-4.31,2.72a14.34,14.34,0,0,1-6.74-1.48l-.95-.45-1,6.24a21.79,21.79,0,0,0,8,1.48c7.53,0,12.44-3.73,12.5-9.49,0-3.16-1.89-5.58-6-7.56-2.51-1.27-4-2.13-4-3.43s1.3-2.39,4.14-2.39A12.16,12.16,0,0,1,257.66,23l.65.3,1-6Z"/><path id="path13" class="cls-1" d="M268.83,34.52c.6-1.59,2.87-7.77,2.87-7.77s.59-1.62.95-2.65l.5,2.39s1.36,6.65,1.65,8Zm8.87-17.93h-5.56a3.54,3.54,0,0,0-3.75,2.31L257.72,44.36h7.54s1.24-3.43,1.51-4.16H276l.85,4.16h6.65L277.7,16.59Z"/><path id="path15" class="cls-1" d="M220.08,16.59l-7,18.94-.77-3.84c-1.3-4.43-5.38-9.25-9.93-11.64l6.44,24.28h7.6l11.28-27.74Z"/><path id="path17" class="cls-1" d="M206.52,16.59H195l-.11.56c9,2.31,15,7.86,17.43,14.54l-2.51-12.76c-.42-1.78-1.69-2.28-3.25-2.34Z"/></g><g id="layer1"><g id="g3098"><path id="path3741" class="cls-1" d="M396.79,16.09,391.5,44.78h11.55l2-11.26,4.1,11.26h32.34L445.14,25h1.54l-3.36,18.2s-.58,1.59,1.26,1.59h80.64l1.37-7.33,2.19,7.33h11.79l-4-10.65s3.24-1.37,4.52-3A9.65,9.65,0,0,0,543,25a7.69,7.69,0,0,0-3.39-6.73c-2.16-1.48-5.3-2.21-9.36-2.21h-11.1l-3.64,19.78h-9.69l.25-1.39h7.74l1.47-8.11h-7.7l.23-1.39h8l1.63-8.9H498.09l-3.46,18.77s-2.86.36-2.43-1.9l3.13-16.87H483.72l-3.46,18.77s-2.69.27-2.28-1.9,3.13-16.87,3.13-16.87H469.5l-3.66,19.78h-9.78l.26-1.39h7.76l1.48-8.1H457.8l.25-1.39h8.07l1.62-8.9H414.16L412,27.47,408,16.09Zm1.3,1.54h8.77l5.72,15.69,2.87-15.69h50.43l-1.06,5.8h-8.05L456,27.91h7.76l-.92,5H455l-.82,4.49h12.93l3.65-19.79h8.46L475.75,36.4h5.79L485,17.63h8.46L490,36.4h5.94l3.45-18.77h16.19l-1.06,5.8h-8l-.83,4.48h7.74l-.92,5h-7.74L504,37.42h12.83l3.66-19.79h9.8c3.74,0,6.6.65,8.49,1.95a6.11,6.11,0,0,1,2.7,5.45,8.14,8.14,0,0,1-1.59,5.16,7.62,7.62,0,0,1-4.49,2.64l-.88.19,3.84,10.2h-8.38l-3.7-12.49-2.31,12.49h-79l3.65-19.79h-4.69l-3.66,19.79h-30L404.6,27.11l-2.85,16.11h-8.39Zm24.57,5.8-.77,4.44h8l-.92,5.06h-8l-.84,4.49H432.9l2.56-14ZM424,25h9.66l-2,10.88h-9.68l.26-1.39h8.06l1.48-8.09h-8Z"/><path id="path3745" class="cls-1" d="M533.21,25.88a2.67,2.67,0,0,0-1.2-2.39,5.61,5.61,0,0,0-3.1-.68H527.7l-1.27,6.86h1.66a6.52,6.52,0,0,0,3.74-.87,3.38,3.38,0,0,0,1.38-2.92m-2.28,1.65a4.89,4.89,0,0,1-2.63.6c-.08,0,.68-3.77.68-3.77h-.07a4.46,4.46,0,0,1,2.27.42,1.19,1.19,0,0,1,.48,1.1,1.78,1.78,0,0,1-.73,1.65"/><path id="path3747" class="cls-1" d="M543.2,38.87a3.25,3.25,0,1,1,3.25,3.25,3.26,3.26,0,0,1-3.25-3.25m-.34,0a3.6,3.6,0,1,0,3.59-3.61,3.6,3.6,0,0,0-3.59,3.61"/><path id="path3749" class="cls-1" d="M545.84,38.64h.32a1.58,1.58,0,0,0,.37,0,.88.88,0,0,0,.33-.06.91.91,0,0,0,.24-.16.5.5,0,0,0,0-.54,1.2,1.2,0,0,0-.24-.15,2.79,2.79,0,0,0-.33-.06h-.69Zm-1-1.59h1c.27,0,.53,0,.81,0a3.31,3.31,0,0,1,.73.09,1.29,1.29,0,0,1,.54.3.88.88,0,0,1,.19.6.69.69,0,0,1-.27.56,1.2,1.2,0,0,1-.72.3h0a.51.51,0,0,1,.32.13.87.87,0,0,1,.19.25l.78,1.45H547.4l-.58-1.16a.65.65,0,0,0-.23-.3,1,1,0,0,0-.44-.09h-.31v1.55h-1Z"/></g></g><path class="cls-1" d="M359.18,46.48v.09h.09a.05.05,0,0,0,0,0s0,0,0,0,0,0,0,0h-.13Zm.09-.06.1,0a.12.12,0,0,1,0,.08.09.09,0,0,1,0,.07.11.11,0,0,1-.08,0l.11.12h-.09l-.1-.12h0v.12h-.07v-.32Zm0,.44a.23.23,0,0,0,.11,0l.09,0a.47.47,0,0,0,.06-.09.36.36,0,0,0,0-.11.43.43,0,0,0,0-.11.24.24,0,0,0-.06-.08.24.24,0,0,0-.09-.06l-.11,0-.12,0a.24.24,0,0,0-.09.06l-.06.08a.43.43,0,0,0,0,.11.36.36,0,0,0,0,.11l.06.09.09,0a.27.27,0,0,0,.12,0m0-.63a.32.32,0,0,1,.14,0,.35.35,0,0,1,.12.07.28.28,0,0,1,.08.11.35.35,0,0,1,0,.14.32.32,0,0,1,0,.14.28.28,0,0,1-.08.11.36.36,0,0,1-.12.08l-.14,0-.15,0a.36.36,0,0,1-.12-.08.44.44,0,0,1-.08-.11.32.32,0,0,1,0-.14.35.35,0,0,1,0-.14.44.44,0,0,1,.08-.11.35.35,0,0,1,.12-.07.37.37,0,0,1,.15,0M324.61,45a1.13,1.13,0,1,1,1.13,1.14A1.09,1.09,0,0,1,324.61,45m3,0V43.2h-.81v.43a1.42,1.42,0,0,0-1.17-.52,1.86,1.86,0,0,0,0,3.72,1.42,1.42,0,0,0,1.17-.52v.43h.81Zm27.28,0A1.12,1.12,0,1,1,356,46.11,1.08,1.08,0,0,1,354.9,45m3,0V41.78h-.81v1.85a1.42,1.42,0,0,0-1.17-.52,1.86,1.86,0,0,0,0,3.72,1.42,1.42,0,0,0,1.17-.52v.43h.81ZM337.64,43.8a.91.91,0,0,1,.94.86h-1.93a.94.94,0,0,1,1-.86m0-.69a1.86,1.86,0,1,0,.06,3.72,2.33,2.33,0,0,0,1.52-.49l-.39-.57a1.9,1.9,0,0,1-1.08.37,1,1,0,0,1-1.12-.87h2.76a2.83,2.83,0,0,0,0-.3,1.74,1.74,0,0,0-1.77-1.86M347.4,45a1.13,1.13,0,1,1,1.13,1.14A1.09,1.09,0,0,1,347.4,45m3,0V43.2h-.81v.43a1.44,1.44,0,0,0-1.17-.52,1.86,1.86,0,0,0,0,3.72,1.44,1.44,0,0,0,1.17-.52v.43h.81Zm-7.57,0a1.83,1.83,0,0,0,2,1.86,2,2,0,0,0,1.34-.42l-.39-.62a1.73,1.73,0,0,1-1,.32,1.14,1.14,0,0,1,0-2.27,1.66,1.66,0,0,1,1,.32l.39-.62a2,2,0,0,0-1.34-.43,1.84,1.84,0,0,0-2,1.86m10.41-1.86a1.11,1.11,0,0,0-1,.52V43.2h-.8v3.54h.81v-2c0-.59.26-.91.79-.91a1.38,1.38,0,0,1,.51.09l.24-.73a1.67,1.67,0,0,0-.57-.1m-21.64.37a2.91,2.91,0,0,0-1.51-.37c-.94,0-1.55.43-1.55,1.14s.45.93,1.28,1l.38.05c.45.06.66.17.66.37s-.3.43-.85.43a2.08,2.08,0,0,1-1.24-.37l-.38.6a2.82,2.82,0,0,0,1.61.46c1.07,0,1.7-.48,1.7-1.15s-.49-1-1.3-1.06l-.38-.06c-.35,0-.63-.11-.63-.34s.26-.42.7-.42a2.37,2.37,0,0,1,1.16.31ZM342,43.11a1.11,1.11,0,0,0-1,.52V43.2h-.8v3.54h.81v-2c0-.59.26-.91.79-.91a1.29,1.29,0,0,1,.5.09l.25-.73a1.71,1.71,0,0,0-.57-.1m-6.89.09h-1.32V42.13H333V43.2h-.75v.71H333v1.61c0,.82.34,1.31,1.29,1.31a2,2,0,0,0,1-.27l-.23-.66a1.6,1.6,0,0,1-.72.2c-.4,0-.53-.24-.53-.59v-1.6h1.32Zm-12.07,3.54V44.52a1.35,1.35,0,0,0-1.46-1.41,1.5,1.5,0,0,0-1.31.63,1.37,1.37,0,0,0-1.22-.63,1.24,1.24,0,0,0-1.09.53V43.2h-.81v3.54H318v-2a.84.84,0,0,1,.91-.94c.53,0,.8.33.8.93v2h.82v-2a.85.85,0,0,1,.91-.94c.55,0,.81.33.81.93v2Z"/><path class="cls-1" d="M359.68,35v-.52h-.14l-.16.36-.17-.36h-.14V35h.1v-.39l.16.34h.1l.15-.34V35Zm-.89,0v-.43H359v-.09h-.47v.09h.19V35Z"/><g class="cls-2"><path class="cls-1" d="M332.16,26.71a13.1,13.1,0,0,1,5.34-10.48,14.33,14.33,0,0,0-8.64-2.85c-7.72,0-14,6-14,13.33S321.14,40,328.86,40a14.33,14.33,0,0,0,8.64-2.85,13.1,13.1,0,0,1-5.34-10.48"/></g><g class="cls-2"><path class="cls-1" d="M360.11,26.71c0,7.36-6.26,13.33-14,13.33a14.33,14.33,0,0,1-8.64-2.85,13,13,0,0,0,0-21,14.33,14.33,0,0,1,8.64-2.85c7.72,0,14,6,14,13.33"/></g><path class="cls-1" d="M337.49,37.19a13,13,0,0,1,0-21,13,13,0,0,1,0,21Z"/><path id="path2491" class="cls-1" d="M610.15,29.6c0-.55-.27-.84-.78-.86h-2.7a1,1,0,0,0-1,1.05v4.87a1,1,0,0,0,1.09,1.05h2.48a.82.82,0,0,0,.64-.29.7.7,0,0,0,.26-.57Zm-7.94-.69a4.37,4.37,0,0,1,.81-2.77,3.39,3.39,0,0,1,1-.67,3,3,0,0,1,1.27-.29h5c2.19,0,3.3,1.21,3.34,3.59v7.32a3,3,0,0,1-1,2.19,3.14,3.14,0,0,1-2.27,1h-4.69v5.28h-3.47V28.91"/><path id="path2493" class="cls-1" d="M619.89,35a.59.59,0,0,0,.28.49.93.93,0,0,0,.63.22h2.67c.6,0,.91-.24.93-.71V34c0-.55-.32-.82-1-.82H620.8a1.16,1.16,0,0,0-.72.16,1.16,1.16,0,0,0-.19.76Zm4.51-5.48c0-.54-.29-.79-.93-.78h-7V25.18h7.87c2.29,0,3.45,1.14,3.49,3.33V36a3.43,3.43,0,0,1-.87,2.34,2.92,2.92,0,0,1-2.26,1H620c-2.32,0-3.49-1.07-3.53-3.18V33.22q0-3.3,3.36-3.36h4.62v-.34"/><path id="path2495" class="cls-1" d="M637.59,41a1.06,1.06,0,0,0,.71-.29.72.72,0,0,0,.28-.57v-.85h-4.44a3.55,3.55,0,0,1-1.39-.22,3.09,3.09,0,0,1-1.1-.74,3.36,3.36,0,0,1-.75-1.18,3.63,3.63,0,0,1-.24-1.42V25.18h3.48v9.4c0,.75.3,1.13.93,1.13h2.45a1.08,1.08,0,0,0,.75-.29.75.75,0,0,0,.31-.6V25.18H642V40.71a4.37,4.37,0,0,1-.88,2.77,3,3,0,0,1-2.37,1.07h-8.11V41h6.93"/><path id="path2497" class="cls-1" d="M644.75,35.71h6.18c.57,0,.86-.25.88-.68v-.32a.75.75,0,0,0-.08-.31c-.14-.27-.31-.4-.51-.4h-3.07a3.48,3.48,0,0,1-2.34-.94,2.69,2.69,0,0,1-1-2.05V28.35c0-2.08,1.16-3.13,3.38-3.17h7.17v3.56h-6.07q-1.08,0-1.08.66v.34c0,.46.37.68,1.1.68h3.06a2.89,2.89,0,0,1,2.09.94,3.2,3.2,0,0,1,.9,2.19v2.6a3.46,3.46,0,0,1-1,2.19,2.85,2.85,0,0,1-1,.74,3.92,3.92,0,0,1-1.37.19h-7.26V35.71"/><path id="path2499" class="cls-1" d="M661.29,35a.59.59,0,0,0,.28.49,1,1,0,0,0,.63.22h2.67c.6,0,.92-.24.93-.71V34c0-.55-.32-.82-1-.82H662.2a1.16,1.16,0,0,0-.72.16,1.16,1.16,0,0,0-.19.76Zm4.51-5.48c0-.54-.29-.79-.93-.78h-7V25.18h7.87c2.29,0,3.46,1.14,3.49,3.33V36a3.48,3.48,0,0,1-.87,2.34,2.9,2.9,0,0,1-2.26,1h-4.76c-2.32,0-3.49-1.07-3.53-3.18V33.22q0-3.3,3.36-3.36h4.62v-.34"/><path id="path2501" class="cls-1" d="M672.06,23.16a3,3,0,0,1,1.08-2.32,4,4,0,0,1,2.65-.91H678v3.45h-1.34c-.73,0-1.11.37-1.12,1v.76H678v3.57h-2.46V39.28h-3.48V23.16"/><path id="path2503" class="cls-1" d="M687.87,29.45v-.08a.55.55,0,0,0-.22-.46,1.06,1.06,0,0,0-.6-.17h-2.42a1,1,0,0,0-.75.27.75.75,0,0,0-.36.65v1.43Zm-4.3,5v.22a1,1,0,0,0,.23.68.5.5,0,0,0,.45.32h7.13v3.56H683.8a5.35,5.35,0,0,1-1.62-.19,3,3,0,0,1-1.11-.67,3,3,0,0,1-.77-1.16,4.92,4.92,0,0,1-.22-1.64l0-7.14c0-2.16,1.17-3.25,3.38-3.29h4.68c2.16,0,3.26,1.17,3.29,3.41v2.82l-7.83,3.08"/><path id="path2505" class="cls-1" d="M698.75,39.27a7.2,7.2,0,0,1-1.44-.13,3.07,3.07,0,0,1-1.37-.65,3.26,3.26,0,0,1-1-1.39,4.89,4.89,0,0,1-.28-1.72V28.72a4.24,4.24,0,0,1,.16-1.43,2.89,2.89,0,0,1,.73-1.21,3.15,3.15,0,0,1,1.31-.83,6.1,6.1,0,0,1,1.48-.16h5.32v.83h-5.19a3.65,3.65,0,0,0-2.17.57,2.51,2.51,0,0,0-.81,2.12v6.66a4.44,4.44,0,0,0,.21,1.36,2.81,2.81,0,0,0,.74,1.14,2.68,2.68,0,0,0,1.12.54,5.34,5.34,0,0,0,1.23.13h5v.83h-5"/><path id="path2507" class="cls-1" d="M717.36,30.64h-7a2.7,2.7,0,0,0-2,.77,2.91,2.91,0,0,0-.73,2.08v2.13a4.35,4.35,0,0,0,.14,1.12,1.66,1.66,0,0,0,.65.95,3.06,3.06,0,0,0,2,.75h4.22c1.77,0,2.66-.95,2.66-2.8Zm.83,4.79a8.45,8.45,0,0,1-.11,1.42,3.19,3.19,0,0,1-.7,1.3,3.47,3.47,0,0,1-2.71,1.12h-4.14a3.67,3.67,0,0,1-2.63-1,3.4,3.4,0,0,1-1-2.64V33.52c0-2.42,1.24-3.66,3.61-3.71h6.91v-.94a3.25,3.25,0,0,0-.67-2,2,2,0,0,0-1-.76,5.22,5.22,0,0,0-1.3-.15h-7.54v-.83H714a10.86,10.86,0,0,1,1.78.13,2.08,2.08,0,0,1,.75.32,2.33,2.33,0,0,1,.69.65,4.45,4.45,0,0,1,.94,2.85v6.39"/><path id="path2509" class="cls-1" d="M726,25.92c-1.94,0-2.89,1.09-2.85,3.17V39.27h-.83V29.09q-.06-4,3.81-4h.93v.83H726"/><path id="path2511" class="cls-1" d="M740,25.92h-6.58a5.09,5.09,0,0,0-1.28.16,2.27,2.27,0,0,0-1.15.73,2.47,2.47,0,0,0-.65,1.07,3.65,3.65,0,0,0-.16,1.3v6.49a2.39,2.39,0,0,0,.95,2.21,3.7,3.7,0,0,0,1,.41,5.05,5.05,0,0,0,1.28.15h2.88A4.28,4.28,0,0,0,739,37.7a2.81,2.81,0,0,0,1-2.43Zm.83,9.41c-.07,2.69-1.5,4-4.27,4h-3.08a8.44,8.44,0,0,1-1.75-.17,3.27,3.27,0,0,1-1.52-1,3.23,3.23,0,0,1-.7-1.38,5.13,5.13,0,0,1-.16-1.55V29.16q0-4.1,4.13-4.07H740v-4.6h.83V35.33"/><path id="path2513" class="cls-1" d="M582.92,24.64a4.62,4.62,0,0,1,.82-.27,5.28,5.28,0,0,1,10.33,0,3.77,3.77,0,0,1,1.92.93,8,8,0,0,0,0-1.31,7.07,7.07,0,0,0-14.11.33c0,.33,0,.66,0,1a4.76,4.76,0,0,1,1.11-.7"/><path id="path2515" class="cls-1" d="M593,25.18h-8.48a3,3,0,0,0-1.26.29,3.27,3.27,0,0,0-1,.67,4.31,4.31,0,0,0-.82,2.77v6.63a4.31,4.31,0,0,0,.82,2.77,3.47,3.47,0,0,0,1,.68,3.13,3.13,0,0,0,1.26.28H593c2.19,0,3.31-1.22,3.34-3.59V28.77c0-2.38-1.15-3.57-3.34-3.59"/><path class="cls-1" d="M787.52,40c-3.27,0-6.55,0-9.82,0a3,3,0,0,1-1-.15,2.26,2.26,0,0,1-1.46-1.69c-.21-.86-.39-1.73-.58-2.59-.37-1.62-.73-3.24-1.09-4.86L772.31,25a1.64,1.64,0,0,1,1-2,3.34,3.34,0,0,1,1.21-.24h3.77c.21,0,.24,0,.24-.25V20.29a8.76,8.76,0,0,1,.92-4,8.95,8.95,0,0,1,8.73-5,9,9,0,0,1,7.93,6.53,8.07,8.07,0,0,1,.29,1.63c.08,1,0,1.93,0,2.9,0,.39,0,.39.4.39h3.55a3.4,3.4,0,0,1,1.33.27,1.61,1.61,0,0,1,1,1.86c-.19.93-.41,1.86-.62,2.79l-1.8,8.06c-.17.77-.34,1.55-.52,2.32a2.5,2.5,0,0,1-.63,1.19,2.29,2.29,0,0,1-1.58.68H787.52Zm0-17.18h5.58c.09,0,.13-.05.14-.14v-.19c0-.67,0-1.34,0-2a8.39,8.39,0,0,0,0-1.12,5.64,5.64,0,0,0-2-3.73A5.73,5.73,0,0,0,781.8,20V22.4c0,.37,0,.37.37.37Zm0,3.68h-3.2a1.67,1.67,0,0,0-.32,0c-.23,0-.32.14-.32.37v1.44c0,.22.07.29.29.33h1.54c.45,0,.45,0,.45.46V34.8c0,.12,0,.24,0,.35a.29.29,0,0,0,.28.27h2.11c.52,0,.61-.09.61-.61v-5.7a1.62,1.62,0,0,1,0-.22c0-.23,0-.28.28-.28s.53,0,.8,0h1c.27,0,.35-.1.35-.37s0-.53,0-.79,0-.42,0-.62a.31.31,0,0,0-.29-.35,1.5,1.5,0,0,0-.37,0Z"/><path class="cls-1" d="M844.81,32.47c0,1.28,0,2.55,0,3.82a4.77,4.77,0,0,1-.39,2,2.64,2.64,0,0,1-2.5,1.69c-2.11,0-4.21,0-6.32,0a3.31,3.31,0,0,1-1.9-.57,3,3,0,0,1-1.16-1.76,5.86,5.86,0,0,1-.18-1.5c0-2.46,0-4.91,0-7.37a2.82,2.82,0,0,1,.09-.76.9.9,0,0,1,.93-.74h3.17a1.49,1.49,0,0,1,.74.2,1,1,0,0,1,.49.86c0,1.89,0,3.77,0,5.66a5.52,5.52,0,0,0,.05.71.8.8,0,0,0,.85.81.87.87,0,0,0,.91-.83c0-.12,0-.25,0-.37V28.6a3.24,3.24,0,0,1,0-.62.69.69,0,0,1,.65-.66,2.69,2.69,0,0,1,.4,0h2.73a3.25,3.25,0,0,1,.44,0,1,1,0,0,1,.95,1c0,.1,0,.2,0,.3Z"/><path class="cls-1" d="M813.45,22.76h6.35a2.09,2.09,0,0,1,.56,0,.56.56,0,0,1,.49.6c0,1,0,2,0,3.05,0,.31-.12.44-.43.5a2,2,0,0,1-.42,0h-3.2c-.5,0-.56.06-.56.56V38.93c0,.12,0,.23,0,.35a.65.65,0,0,1-.52.62,3.66,3.66,0,0,1-.81.09h-3.22a5,5,0,0,1-.67-.05.6.6,0,0,1-.61-.67V27.62c0-.11,0-.22,0-.32a.3.3,0,0,0-.31-.3h-3.2a2.18,2.18,0,0,1-.44,0,.44.44,0,0,1-.4-.44V23.36a.56.56,0,0,1,.44-.53,2,2,0,0,1,.59-.07h6.37Z"/><path class="cls-1" d="M883,32.83c.1,0,.1-.13.13-.2l1.69-4.21a2.36,2.36,0,0,1,.39-.69,1.2,1.2,0,0,1,.93-.44h2.73a2,2,0,0,1,.59.08.39.39,0,0,1,.3.45,1.26,1.26,0,0,1-.13.43l-1.45,3.42-3,7.14-2,4.79a2.14,2.14,0,0,1-.52.77,1.1,1.1,0,0,1-.75.29h-2.6a1.46,1.46,0,0,1-.54-.09.36.36,0,0,1-.27-.41,1,1,0,0,1,.1-.38c.54-1.28,1.07-2.56,1.62-3.84a.72.72,0,0,0,0-.61q-2.24-5.49-4.45-11a3.1,3.1,0,0,1-.13-.4.46.46,0,0,1,.32-.57,2,2,0,0,1,.68-.09c1.13,0,2.26,0,3.4,0a1.37,1.37,0,0,1,1.34.87c.09.2.16.42.23.63l1.35,3.83C882.93,32.7,882.94,32.78,883,32.83Z"/><path class="cls-1" d="M852,40.3a19.85,19.85,0,0,1-4.54-.54c-.11,0-.22-.08-.33-.1a.49.49,0,0,1-.42-.48c0-.21-.07-.42-.08-.64a7.9,7.9,0,0,1,0-1.61,2.23,2.23,0,0,1,.1-.43c.1-.27.22-.33.49-.27s.76.18,1.14.24a13.81,13.81,0,0,0,2.65.13,1.91,1.91,0,0,0,.53-.1.78.78,0,0,0,.29-.14.37.37,0,0,0,0-.6,2.17,2.17,0,0,0-.55-.33c-.62-.28-1.26-.53-1.87-.85a5.28,5.28,0,0,1-1.58-1.14,3.64,3.64,0,0,1-.81-3.69,3.34,3.34,0,0,1,1.66-1.9A7.23,7.23,0,0,1,851.3,27a14.22,14.22,0,0,1,3.26-.12,9.52,9.52,0,0,1,1.69.2c.14,0,.27.08.41.12a.41.41,0,0,1,.29.34,2,2,0,0,1,0,.49,5.34,5.34,0,0,1-.32,1.72,1.68,1.68,0,0,1-.24.46.43.43,0,0,1-.43.19l-1.47-.19a8.79,8.79,0,0,0-1.36-.07,1.52,1.52,0,0,0-.48.1.35.35,0,0,0-.27.29.37.37,0,0,0,.18.36,7.12,7.12,0,0,0,1.16.61A10.46,10.46,0,0,1,856,32.78a5.05,5.05,0,0,1,1.15,1.29,4.1,4.1,0,0,1,.53,2.63,4.18,4.18,0,0,1-.31,1.24,3.43,3.43,0,0,1-1.54,1.63,6.18,6.18,0,0,1-2,.63A10.34,10.34,0,0,1,852,40.3Z"/><path class="cls-1" d="M860.07,34.06V31c0-.16,0-.19-.19-.2h-.42c-.59,0-.84-.22-.86-.81s0-1.24,0-1.86a1.64,1.64,0,0,1,0-.32.61.61,0,0,1,.45-.45,2,2,0,0,1,.55,0h.47c.18,0,.2,0,.2-.2s0-.49,0-.74,0-.41,0-.62a.89.89,0,0,1,.42-.77,2,2,0,0,1,.78-.29l2.59-.43a1.85,1.85,0,0,1,.62,0,.47.47,0,0,1,.39.37,1.31,1.31,0,0,1,0,.34v2.19c0,.16,0,.18.19.18h1.24a.67.67,0,0,1,.66.43,1.65,1.65,0,0,1,.14.65v1.71a.53.53,0,0,1,0,.13c0,.44-.21.61-.67.62H865.6c-.23,0-.26,0-.26.26v4.76a.51.51,0,0,0,.47.57,2.09,2.09,0,0,0,.56,0c.21,0,.25,0,.34.21a3.13,3.13,0,0,1,.16.6,11,11,0,0,1,.22,2.07c0,.44,0,.48-.46.59a9.63,9.63,0,0,1-3,.32,4.08,4.08,0,0,1-2.21-.73,3.26,3.26,0,0,1-1.28-2.13,4.36,4.36,0,0,1,0-.72Z"/><path class="cls-1" d="M874.39,31.21V39a1.71,1.71,0,0,1,0,.45.6.6,0,0,1-.53.51,4.21,4.21,0,0,1-.5,0h-3.1a5.09,5.09,0,0,1-.56,0,.47.47,0,0,1-.46-.45,4.9,4.9,0,0,1,0-.54V23.46a1.72,1.72,0,0,1,0-.39.66.66,0,0,1,.61-.56h3.57a1.76,1.76,0,0,1,.56.07.6.6,0,0,1,.44.54c0,.11,0,.22,0,.33Z"/><path class="cls-1" d="M821.62,34.36V30.12a4.41,4.41,0,0,1,.09-.89,2.15,2.15,0,0,1,1.36-1.59,4.69,4.69,0,0,1,1.52-.32c1.09-.06,2.17,0,3.25,0h2.51c.4,0,.56.15.56.55,0,.85,0,1.69,0,2.53,0,.46-.21.65-.66.65a10.89,10.89,0,0,0-1.61.11,2.85,2.85,0,0,0-1.18.49,1.41,1.41,0,0,0-.6,1.11,5,5,0,0,0,0,.55v5c0,.3,0,.6,0,.89a.75.75,0,0,1-.72.77l-.37,0H823a3.57,3.57,0,0,1-.47,0,.94.94,0,0,1-.92-1c0-.11,0-.22,0-.33Z"/><path class="cls-1" d="M790,44.14a3.55,3.55,0,1,1,3.52,3.57A3.52,3.52,0,0,1,790,44.14Z"/><path class="cls-1" d="M785.08,44.14a3.56,3.56,0,1,1-3.56-3.54A3.53,3.53,0,0,1,785.08,44.14Z"/><g id="Page-1"><g id="skrill-logo-web-1-rgb"><path id="Fill-1" class="cls-1" d="M981.49,23a3.45,3.45,0,1,0-3.44-3.44A3.44,3.44,0,0,0,981.49,23Zm-26.4,1.86a24.73,24.73,0,0,1-4,6.83v-14l-7.22,1.42V44.49h7.22V36.63a27.33,27.33,0,0,1,3.12,7.86h8.64c-.86-3.56-4.59-10.11-4.59-10.11a31.59,31.59,0,0,0,5.06-9.54Zm19-.26c-6.47.2-9.75,3.1-9.75,8.87v11h7.05v-9c0-3.45.46-4.93,4.55-5.07V24.68a9.38,9.38,0,0,0-1.85-.1Zm-42.27,3.06c-.88-.06-2.93-.19-2.93-2,0-2.23,2.95-2.23,4-2.23a24.76,24.76,0,0,1,6.26,1.11s1,.36,1.85.72l.08,0V19.14l-.11,0a25,25,0,0,0-9.16-1.45c-7.88,0-10.67,4.59-10.67,8.52,0,2.27,1,7.61,10,8.22.76.05,2.79.17,2.79,2.07,0,1.57-1.66,2.5-4.46,2.5a21.76,21.76,0,0,1-7.84-1.53v6.27A36.47,36.47,0,0,0,931,44.78c7.71,0,11.16-4.35,11.16-8.65,0-4.89-3.86-8.06-10.34-8.49ZM978,44.49h7V24.86h-7Zm20.16-25.58V44.49h7V17.66l-7,1.25Zm-10.21,0,7-1.25V44.49h-7V18.91Z"/></g></g></svg>