<?xml version="1.0" encoding="utf-8"?>
<!-- Generator: Adobe Illustrator 24.3.0, SVG Export Plug-In . SVG Version: 6.00 Build 0)  -->
<svg version="1.1" id="Providers" xmlns="http://www.w3.org/2000/svg" xmlns:xlink="http://www.w3.org/1999/xlink" x="0px" y="0px"
	 viewBox="0 0 564.7 116" style="enable-background:new 0 0 564.7 116;" xml:space="preserve">
<style type="text/css">
	.st0{fill:#84D5F7;}
	.st1{opacity:0.6;}
	.st2{fill:none;stroke:#84D5F7;stroke-miterlimit:10;}
	.st3{fill:#84D5F7;stroke:#84D5F7;stroke-miterlimit:10;}
	.st4{opacity:0.45;}
	.st5{opacity:0.8;}
	.st6{fill:none;}
</style>
<g>
	<path class="st0" d="M130.9,96.4L130.9,96.4L130.9,96.4L130.9,96.4L130.9,96.4L130.9,96.4L130.9,96.4z M131,96.3L131,96.3L131,96.3
		c0.1,0.1,0.1,0.1,0.1,0.1H131l0.1,0.1H131l-0.1-0.1l0,0v0.1h-0.1v-0.2L131,96.3z M131,96.6L131,96.6c0.1,0,0.1,0,0.1-0.1
		c0,0,0.1,0,0.1-0.1c0-0.1,0-0.1,0-0.1l-0.1-0.1H131c-0.1,0-0.1,0-0.1,0h-0.1c0,0,0,0.1-0.1,0.1c0,0.1,0,0.1,0,0.1s0,0.1,0.1,0.1
		L131,96.6L131,96.6 M131,96.2L131,96.2c0.1,0,0.1,0,0.1,0.1l0.1,0.1v0.1v0.1c0,0,0,0.1-0.1,0.1l-0.1,0.1H131h-0.1l-0.1-0.1
		l-0.1-0.1v-0.1v-0.1c0,0,0-0.1,0.1-0.1L131,96.2C130.9,96.2,130.9,96.2,131,96.2 M105.9,95.2c0-0.4,0.4-0.8,0.8-0.8
		s0.8,0.4,0.8,0.8s-0.4,0.8-0.8,0.8C106.2,96.1,105.9,95.7,105.9,95.2C105.9,95.3,105.9,95.3,105.9,95.2 M108,95.2v-1.3h-0.6v0.4
		c-0.2-0.2-0.5-0.4-0.9-0.4c-0.7,0-1.4,0.6-1.4,1.4c0,0.7,0.6,1.4,1.4,1.4c0.3,0,0.7-0.1,0.9-0.4v0.3h0.6V95.2z M127.8,95.2
		c0-0.4,0.4-0.8,0.8-0.8c0.4,0,0.8,0.4,0.8,0.8S129,96,128.6,96C128.1,96.1,127.8,95.7,127.8,95.2C127.8,95.3,127.8,95.3,127.8,95.2
		 M129.9,95.2v-2.3h-0.6v1.4c-0.2-0.2-0.5-0.4-0.9-0.4c-0.7,0-1.4,0.6-1.4,1.4c0,0.7,0.6,1.4,1.4,1.4c0.3,0,0.7-0.1,0.9-0.4v0.3h0.6
		V95.2z M115.2,94.4c0.4,0,0.7,0.3,0.7,0.7l0,0h-1.4C114.6,94.6,114.9,94.3,115.2,94.4C115.3,94.4,115.3,94.4,115.2,94.4
		 M115.3,93.9c-0.7,0-1.4,0.6-1.4,1.4c0,0.7,0.6,1.4,1.4,1.4c0.4,0,0.8-0.1,1.1-0.4l-0.3-0.4c-0.2,0.1-0.5,0.3-0.8,0.3
		c-0.4,0.1-0.7-0.2-0.8-0.7h2c0-0.1,0-0.1,0-0.2C116.6,94.6,116.1,94,115.3,93.9C115.3,93.9,115.3,93.9,115.3,93.9 M122.3,95.2
		c0-0.4,0.4-0.8,0.8-0.8c0.4,0,0.8,0.4,0.8,0.8s-0.4,0.8-0.8,0.8C122.7,96.1,122.3,95.7,122.3,95.2
		C122.3,95.3,122.3,95.3,122.3,95.2 M124.5,95.2v-1.3h-0.6v0.4c-0.2-0.2-0.5-0.4-0.9-0.4c-0.7,0-1.4,0.6-1.4,1.4
		c0,0.7,0.6,1.4,1.4,1.4c0.4,0,0.7-0.1,0.9-0.4v0.3h0.6V95.2z M119,95.2c0,0.7,0.6,1.3,1.3,1.4c0.1,0,0.1,0,0.1,0
		c0.4,0,0.7-0.1,0.9-0.3l-0.3-0.4c-0.2,0.1-0.4,0.2-0.7,0.2c-0.4,0-0.8-0.4-0.8-0.8s0.4-0.8,0.8-0.8c0.3,0,0.5,0.1,0.7,0.2l0.3-0.4
		c-0.3-0.2-0.7-0.3-0.9-0.3C119.7,93.9,119.1,94.4,119,95.2C119,95.1,119,95.2,119,95.2 M126.5,93.9c-0.3,0-0.6,0.1-0.7,0.4V94h-0.6
		v2.5h0.6v-1.5c0-0.4,0.2-0.7,0.6-0.7c0.1,0,0.2,0,0.4,0.1L127,94C126.8,93.9,126.7,93.9,126.5,93.9 M110.8,94.1
		c-0.4-0.2-0.7-0.3-1.1-0.3c-0.7,0-1.1,0.3-1.1,0.8s0.3,0.7,0.9,0.8h0.3c0.3,0.1,0.4,0.1,0.4,0.3c0,0.1-0.2,0.3-0.6,0.3
		c-0.3,0-0.7-0.1-0.9-0.3l-0.3,0.4c0.4,0.2,0.7,0.4,1.2,0.4c0.8,0,1.2-0.4,1.2-0.9c0-0.5-0.4-0.7-0.9-0.8l-0.3-0.1
		c-0.3,0-0.4-0.1-0.4-0.2c0-0.1,0.2-0.3,0.5-0.3s0.6,0.1,0.9,0.2L110.8,94.1z M118.3,93.9c-0.3,0-0.6,0.1-0.7,0.4V94H117v2.5h0.6
		v-1.5c0-0.4,0.2-0.7,0.6-0.7c0.1,0,0.2,0,0.4,0.1l0.2-0.5C118.6,93.9,118.5,93.8,118.3,93.9 M113.3,93.9h-0.9v-0.7h-0.6V94h-0.6
		v0.5h0.6v1.2c0,0.6,0.2,0.9,0.9,0.9c0.3,0,0.5-0.1,0.7-0.2l-0.1-0.5c-0.1,0.1-0.4,0.1-0.5,0.1c-0.3,0-0.4-0.1-0.4-0.4v-1.1h0.9
		L113.3,93.9z M104.6,96.5v-1.6c0-0.5-0.4-1-0.9-1c-0.1,0-0.1,0-0.1,0c-0.4,0-0.7,0.1-0.9,0.4c-0.2-0.3-0.5-0.5-0.9-0.4
		c-0.3,0-0.6,0.1-0.8,0.4V94h-0.6v2.5h0.6v-1.5c-0.1-0.4,0.2-0.7,0.5-0.7c0.1,0,0.1,0,0.1,0c0.4,0,0.6,0.2,0.6,0.7v1.5h0.6v-1.5
		c-0.1-0.4,0.2-0.7,0.6-0.7h0.1c0.4,0,0.6,0.2,0.6,0.7v1.5H104.6z"/>
	<path class="st0" d="M131.3,88v-0.4h-0.1l-0.1,0.3l-0.1-0.3h-0.1V88h0.1v-0.3l0.1,0.2h0.1l0.1-0.2V88H131.3z M130.6,88v-0.3h0.1
		v-0.1h-0.4v0.1h0.1L130.6,88L130.6,88z"/>
	<g class="st1">
		<path class="st0" d="M111.3,82c0-3,1.5-5.8,3.8-7.6c-1.8-1.4-4-2.1-6.2-2c-5.6,0-10.2,4.4-10.2,9.6c0,5.3,4.6,9.6,10.2,9.6
			c2.2,0,4.4-0.7,6.2-2C112.8,87.8,111.3,85,111.3,82"/>
	</g>
	<g class="st1">
		<path class="st0" d="M131.5,82c0,5.4-4.6,9.6-10.2,9.6c-2.2,0-4.4-0.7-6.2-2c4.2-3,5.1-9,2-13.2c-0.6-0.8-1.2-1.5-2-2
			c1.8-1.4,4-2.1,6.2-2C127,72.3,131.5,76.7,131.5,82"/>
	</g>
	<path class="st0" d="M115.2,89.6c-4.2-3-5.1-9-2-13.2c0.6-0.8,1.2-1.5,2-2c4.2,3,5.1,9,2,13.2C116.7,88.3,116,89.1,115.2,89.6z"/>
</g>
<g id="g4158">
	<polygon id="polygon9" class="st0" points="42.8,94.6 37.7,94.6 41,74.4 46.1,74.4 	"/>
	<path id="path11" class="st0" d="M61.7,74.9c-1.5-0.6-3-0.9-4.6-0.9c-5.1,0-8.8,2.8-8.8,6.7c0,2.9,2.6,4.5,4.6,5.4
		c2,0.9,2.7,1.6,2.7,2.5c0,1.4-1.6,2-3.1,2c-1.7,0.1-3.3-0.3-4.9-1.1l-0.7-0.4l-0.7,4.5c1.9,0.7,3.8,1.1,5.8,1.1
		c5.4,0,9.1-2.7,9.1-6.9c0-2.3-1.4-4.1-4.4-5.5c-1.8-0.9-2.9-1.5-2.9-2.5s0.9-1.7,3-1.7c1.3-0.1,2.7,0.2,3.8,0.8l0.4,0.2L61.7,74.9
		L61.7,74.9z"/>
	<path id="path13" class="st0" d="M68.7,87.5c0.4-1.2,2.1-5.7,2.1-5.7s0.4-1.2,0.7-2l0.4,1.7c0,0,1,4.8,1.2,5.8L68.7,87.5z
		 M75.1,74.4h-4.1c-1.2-0.1-2.3,0.6-2.8,1.7l-7.7,18.5h5.4l1.1-3h6.7l0.6,3h4.9L75.1,74.4L75.1,74.4z"/>
	<path id="path15" class="st0" d="M33.3,74.4l-5.1,13.7l-0.6-2.8c-0.9-3.2-3.9-6.7-7.2-8.5l4.6,17.6h5.5l8.2-20.1L33.3,74.4
		L33.3,74.4z"/>
	<path id="path17" class="st0" d="M23.5,74.4h-8.4L15,74.8c6.5,1.7,10.9,5.7,12.6,10.5l-1.7-9.2C25.5,74.8,24.6,74.5,23.5,74.4z"/>
</g>
<g>
	<path class="st0" d="M166.2,75.2c-8.4,0-15.2,4-15.2,8.9c0,2.1,1.2,4,3.3,5.6c-1-1.2-1.6-2.7-1.6-4.2c0-5.1,6.7-9.3,14.9-9.3
		c5.3,0,9.9,1.7,12.6,4.4C177.8,77.4,172.5,75.2,166.2,75.2z"/>
	<path class="st0" d="M159.5,83.1c0.4-0.4,1-0.6,1.7-0.6c0.6,0,1.2,0.2,1.6,0.6c0.4,0.4,0.7,0.9,0.7,1.5h-4.8
		C158.7,83.9,159,83.4,159.5,83.1L159.5,83.1z M164.9,86.7c0.5,0,1-0.1,1.5-0.4c0.4-0.3,0.7-0.7,0.7-1.2c0-1-0.4-2-1-2.8
		c-1.2-1.5-3-2.5-5-2.4c-1.7-0.1-3.3,0.6-4.4,1.7c-1.1,1.1-1.7,2.6-1.7,4.2s0.7,3.1,1.8,4.2c1.2,1.2,2.8,1.7,4.6,1.7
		c0.9,0,1.9-0.1,2.8-0.4c0.9-0.2,1.7-0.7,2.3-1.4c0.2-0.3,0.4-0.7,0.4-1c0-0.9-0.5-1.3-1.5-1.3c-0.6,0.1-1.1,0.3-1.7,0.6
		c-0.7,0.4-1.5,0.5-2.2,0.6c-0.7,0-1.3-0.1-1.9-0.5c-0.5-0.3-0.8-0.9-0.9-1.5L164.9,86.7L164.9,86.7z"/>
	<path class="st0" d="M169.1,90c1.2,1.2,2.8,1.8,4.4,1.7c0.9,0,1.9-0.1,2.8-0.5c1-0.4,1.5-1,1.5-1.7c0-0.4-0.1-0.7-0.4-1
		c-0.3-0.3-0.7-0.4-1-0.4s-0.7,0.1-1.1,0.2c-0.4,0.1-0.9,0.3-1.5,0.2c-0.8,0.1-1.5-0.3-2-0.8c-0.4-0.6-0.7-1.2-0.7-2s0.2-1.4,0.6-2
		c0.4-0.6,1.2-0.9,2-0.9c0.5,0,1,0.1,1.5,0.2c0.4,0.1,0.7,0.2,1.1,0.3c0.4,0,0.8-0.1,1.1-0.4c0.3-0.3,0.4-0.7,0.4-1
		c0-0.8-0.5-1.4-1.5-1.7c-0.9-0.3-1.7-0.4-2.6-0.4c-1.7-0.1-3.3,0.5-4.6,1.7c-1.2,1.1-1.8,2.7-1.7,4.3C167.4,87.4,168,88.8,169.1,90
		z"/>
	<path class="st0" d="M182.3,83.8c0.4-0.6,1.2-0.9,1.9-0.9c0.7,0,1.4,0.3,1.8,0.9c0.4,0.6,0.6,1.2,0.6,1.9s-0.1,1.4-0.6,2
		s-1.2,0.9-1.9,0.9c-0.7,0-1.5-0.3-1.8-0.9c-0.4-0.6-0.6-1.2-0.6-1.9C181.7,85.1,181.9,84.4,182.3,83.8L182.3,83.8z M179.7,90
		c2.5,2.3,6.5,2.3,9,0c1.1-1.1,1.7-2.6,1.7-4.2c0.1-1.6-0.6-3.1-1.7-4.3c-2.5-2.2-6.4-2.2-9,0C177.4,83.9,177.4,87.6,179.7,90
		L179.7,90z"/>
	<path class="st0" d="M195.5,89.2v-2.5h2.5c1.5,0.1,3-0.4,4.2-1.3c1.1-0.9,1.6-2.3,1.5-3.8c0.1-1.5-0.6-2.9-1.7-3.8
		c-1.2-0.9-2.8-1.4-4.4-1.3h-3.4c-0.7-0.1-1.5,0.1-2,0.5c-0.4,0.5-0.7,1.2-0.6,1.9v10.4c0,1.6,0.7,2.4,1.9,2.4
		C194.9,91.6,195.5,90.8,195.5,89.2z M195.5,79.5h1.7c1.7,0,2.6,0.7,2.6,2c0,1.3-0.9,2-2.6,2h-1.7C195.5,83.4,195.5,79.5,195.5,79.5
		z"/>
	<path class="st0" d="M214.4,91.6c1.2,0,1.8-0.8,1.8-2.4v-6.7c0-1.6-0.6-2.4-1.8-2.4c-0.7,0-1.4,0.4-1.7,1c-0.7-0.8-1.8-1.2-3-1.2
		c-1.6-0.1-3.1,0.7-4.1,1.9c-2,2.3-2,5.7-0.1,8.1c1,1.2,2.5,1.9,4.1,1.9c1.2,0.1,2.3-0.4,3.1-1.2C212.9,91.1,213.6,91.6,214.4,91.6z
		 M208.3,83.9c0.4-0.6,1.1-0.9,1.8-0.9c0.7,0,1.4,0.3,1.7,0.9c0.4,0.5,0.6,1.2,0.5,1.8c0,0.7-0.1,1.3-0.5,1.9
		c-0.4,0.6-1.1,0.9-1.8,0.9c-0.7,0-1.4-0.3-1.8-0.9c-0.4-0.5-0.6-1.2-0.6-1.9C207.8,85,208,84.5,208.3,83.9L208.3,83.9z"/>
	<path class="st0" d="M224.7,81.3l-2.2,5.3l-2.1-5c-0.1-0.4-0.4-0.8-0.6-1.2c-0.4-0.3-0.8-0.5-1.2-0.5s-0.9,0.1-1.3,0.5
		c-0.4,0.3-0.5,0.7-0.5,1.2c0,0.3,0.1,0.7,0.2,0.9l3.7,7.8l-1.5,3c-0.2,0.4-0.3,0.7-0.3,1.2s0.1,0.9,0.5,1.2
		c0.4,0.3,0.9,0.4,1.3,0.4c0.7,0,1.2-0.4,1.6-1.3l5.6-12c0.1-0.4,0.3-0.7,0.3-1.2c0-1.1-0.6-1.6-1.8-1.6
		C225.6,80,225.1,80.5,224.7,81.3L224.7,81.3z"/>
	<path class="st0" d="M237.1,88.3h-3.6l4.9-5.7c0.4-0.4,0.7-0.9,0.7-1.5c0.1-0.4-0.2-0.7-0.6-0.9c-0.6-0.1-1.2-0.2-1.7-0.1h-5.9
		c-1.5,0-2.3,0.5-2.3,1.5c0,1,0.8,1.5,2.3,1.5h3.1l-5,5.9c-0.4,0.4-0.5,0.8-0.6,1.3c0,0.7,0.7,1,2,1h6.7c1.5,0,2.3-0.5,2.3-1.5
		C239.4,88.9,238.6,88.3,237.1,88.3L237.1,88.3z"/>
</g>
<g>
	<path class="st0" d="M321.3,94.6c-4.8,0.4-9-4.3-9.1-8.8c0-4.9,4-9,8.9-9.1c5-0.1,9.1,4,9.1,8.9C330.4,90.7,325.9,95,321.3,94.6z
		 M321.7,85.7c0-1.2,0-2.3,0-3.5c0-0.5,0.2-0.7,0.7-0.7c0.7,0,1.4,0,2,0c0.3,0,0.7,0.1,0.7-0.2c0-0.4-0.4-0.3-0.7-0.3h-5.9
		c-0.1,0-0.2,0-0.4,0c-0.1,0-0.4,0-0.4,0.2c0,0.2,0.2,0.2,0.4,0.2c0.7,0,1.5,0.1,2.2,0c0.7,0,0.8,0.2,0.8,0.8c0,2,0,4.1,0,6.2
		c0,1.1,0,1.1-1.1,1.3c-0.1,0-0.3,0-0.4,0.1c-0.1,0.1,0.2,0.2,0.4,0.2c0.7,0,1.5,0,2.2,0c0.2,0,0.5,0.1,0.5-0.2
		c0-0.4-0.3-0.2-0.5-0.1c-0.7,0.1-0.9-0.3-0.9-0.9C321.7,87.9,321.7,86.8,321.7,85.7L321.7,85.7z M325,86.1h-1.2
		c-0.1,0-0.4,0-0.4,0.1c0,0.1,0.1,0.3,0.2,0.4c0.8,0.5,1.9,0.5,2.7-0.1c0.1-0.1,0.1-0.2,0.1-0.3c0-0.1-0.2-0.1-0.3-0.1H325z
		 M318.2,87c0.4,0,0.9-0.2,1.2-0.4c0.1-0.1,0.2-0.1,0.2-0.3s-0.1-0.1-0.3-0.1c-0.9,0-1.7,0-2.5,0c-0.1,0-0.2,0-0.3,0.1
		c-0.1,0.1,0.1,0.2,0.1,0.3C317.1,86.9,317.6,87,318.2,87L318.2,87z M319.4,85.3c-0.2-1-0.6-2-1.1-3c-0.1-0.4-0.3-0.1-0.4,0.1
		c-0.4,0.8-0.7,1.7-1.1,2.5c-0.1,0.1-0.2,0.3,0,0.4c0.2,0.1,0.3-0.1,0.3-0.3c0.2-0.6,0.4-1.1,0.7-1.7c0.1-0.2,0.1-0.4,0.3-0.4
		s0.3,0.2,0.4,0.4C318.6,84.2,318.9,84.8,319.4,85.3L319.4,85.3z M326.2,85.4l0.1-0.1l-1.2-2.8c-0.1-0.1-0.1-0.3-0.2-0.3
		c-0.1,0-0.2,0.2-0.3,0.3c-0.3,0.5-0.5,1.1-0.7,1.7c-0.1,0.4-0.4,0.7-0.3,1.2c0.4-0.4,0.5-1,0.8-1.5c0.1-0.3,0.1-0.9,0.5-0.9
		s0.4,0.6,0.4,0.9C325.5,84.5,325.8,85,326.2,85.4L326.2,85.4z"/>
	<path class="st0" d="M351.5,87.6c-0.9,0.8-1.8,1.7-2.6,2.7c-0.6,0.7-0.9,1.5-2.1,1.5c-0.7,0.1-1.5,0.1-2.3,0.1
		c-0.3,0-0.5-0.1-0.7-0.2c-0.7-0.4-1.1-1.2-0.7-1.9c0.1-0.2,0.3-0.4,0.5-0.6c0.4-0.2,0.6-0.7,0.4-1.1c-0.1-0.6,0.1-1.1,0.6-1.5
		c0.9-0.9,2-1.4,3.2-1.5c0.4-0.1,0.9,0.1,1.2,0.5c0.2,0.4-0.1,0.8-0.4,1.1s-0.8,0.7-1.2,0.4c-0.7-0.4-0.9,0-1.4,0.3
		c0.1,0.2,0.2,0.1,0.3,0.1c0.4-0.1,0.7,0,0.9,0.4c0,0.1,0,0.1,0.1,0.1c0.1,0.5-0.3,0.7-0.6,0.8c-0.6,0.2-1.1,0.5-1.5,0.9
		c-0.1,0.1-0.3,0.2-0.2,0.4c0.1,0.2,0.2,0.1,0.4,0.2c0.9,0.2,1.7-0.2,2.2-1c0.7-1.2,1.5-2.4,2.2-3.6c0.2-0.4,0.7-0.7,1.2-0.7
		c0.3,0,0.6,0,0.7,0.4c0.1,0.4,0.2,0.3,0.4,0.1c0.4-0.3,0.8-0.4,1.2-0.5c0.9-0.1,1.5,0.5,1.1,1.3c-0.4,0.7-0.9,1.5-1.4,2.2
		c-0.2,0.4-0.4,0.8-0.7,1.2c-0.1,0.1-0.2,0.4,0,0.5c0.1,0.1,0.3,0.1,0.4,0c0.7-0.4,1.3-0.9,1.7-1.6c0.6-0.9,1.1-1.8,1.6-2.8
		c0.3-0.4,0.6-0.8,1.1-0.5c0.5,0.3,0.4,0.8,0.1,1.2c-0.6,1-1.1,2.1-1.7,3.2c0.3,0.1,0.4-0.1,0.5-0.2c1.2-1.1,2.2-2.3,3.1-3.7
		c0.1-0.2,0.3-0.4,0.5-0.6c0.3-0.2,0.7-0.2,1.1,0c0.4,0.3,0.1,0.7-0.1,0.9c-0.7,0.9-1.2,2-1.6,3c-0.1,0.3-0.4,0.7-0.1,0.9
		c0.3,0.1,0.5-0.2,0.7-0.4c0.1-0.1,0.3-0.3,0.4-0.4c0.4-0.4,0.6-0.7,1,0.1c0.3,0.4,0.7,0.7,1.2,0.9c0.5,0.1,1-0.2,1.5-0.4
		c0.1,0,0.1-0.1,0.1-0.2s-0.1-0.2-0.2-0.2c-0.4-0.1-0.8-0.2-1.2-0.4c-0.6-0.1-1.2-0.4-1.4-1c-0.1-0.7,0.1-1.4,0.7-1.8
		c0.9-0.8,1.9-1.3,3-1.5c0.5-0.2,1.1-0.3,1.6-0.1c0.4,0.1,0.7,0.4,0.7,0.9c0,0.6-0.4,1.1-1,1.3c-0.3,0.2-0.8,0.1-1-0.1
		c0,0,0-0.1-0.1-0.1c-0.2-0.3-0.4-0.3-0.7-0.1c-0.5,0.1-0.9,0.4-1.3,0.7c-0.1,0.1-0.3,0.2-0.2,0.4c0.1,0.1,0.2,0.1,0.4,0.1
		c0.5,0.1,1,0.1,1.5,0.4c0.5,0.1,0.9,0.6,1.1,1.1c0.1,0.6-0.1,1.2-0.7,1.6c-1,0.8-2.2,1.2-3.5,1c-0.4,0-0.8-0.1-1-0.4
		c-0.3-0.7-0.5-0.4-0.8-0.1c-0.4,0.4-0.9,0.6-1.5,0.6c-0.6,0.1-1.1-0.3-1.2-0.8c-0.1-0.6-0.4-0.5-0.7-0.1c-0.3,0.3-0.6,0.5-0.9,0.7
		c-0.6,0.4-1.3,0.3-1.7-0.2c-0.1-0.2-0.4-0.2-0.7-0.1c0,0-0.1,0-0.1,0.1c-0.3,0.2-0.7,0.4-1.1,0.4c-0.8,0.1-1.6-0.4-1.7-1.2
		c-0.1-0.3,0-0.7,0.1-0.9C350.8,89,351.2,88.3,351.5,87.6z"/>
	<path class="st0" d="M396.4,84.9c-0.4,0-0.8,0-1.2,0c-0.6-0.1-0.7-0.4-0.4-0.9c0.3-0.5,0.8-0.8,1.4-0.8c0.9,0.1,1.7-0.3,2.1-1.1
		c0.1-0.4,0.5-0.6,0.9-0.5c0.7,0,0.9,0.4,0.5,0.9c-0.4,0.6-0.3,0.7,0.4,0.7c0.4,0,0.7,0.3,0.7,0.7c0,0,0,0,0,0.1
		c0,0.4-0.4,0.6-0.9,0.6h-0.4c-0.9-0.1-1.6,0.4-2,1.2c-0.7,1.4-1.6,2.6-2.1,4.1c-0.1,0.2-0.2,0.4,0,0.6c0.3,0.2,0.4,0,0.6-0.1
		c0.4-0.3,0.9-0.7,1.3-0.9c0.1-0.1,0.4-0.3,0.5-0.2s0.3,0.4,0.3,0.6c0,0.2,0,0.4-0.1,0.6c-0.6,0.9-1.6,1.6-2.7,1.7
		c-0.5,0.1-1-0.1-1.3-0.6c-0.3-0.4-0.5-0.4-0.8-0.1c-0.3,0.3-0.7,0.5-1,0.6c-0.6,0.2-1.3,0-1.7-0.4c-0.4-0.6-0.4-1.3-0.1-2
		c0.3-0.7,0.7-1.4,1.2-2c-0.3,0.1-0.5,0.2-0.7,0.4c-1,0.9-1.9,2-2.7,3c-0.4,0.5-0.7,0.8-1.4,0.6c-0.2-0.1-0.5,0-0.7,0.1
		c-0.4,0.2-0.9,0.3-1.5,0.2c-0.8,0-1.4-0.7-1.3-1.5c0-0.1,0.1-0.4,0.1-0.5c0.3-0.8,0.7-1.5,1.2-2.2c0.1-0.2,0.2-0.4,0.2-0.7
		c0.1-0.9,0.8-1.7,1.7-2c0.3,0,0.6,0.1,0.7,0.4c0.2,0.3,0.2,0.6,0,0.9c-0.6,1-1.2,2-1.7,3c-0.1,0.3-0.7,0.7-0.3,0.9
		c0.4,0.3,0.7-0.2,0.9-0.4c1.4-0.9,2.1-2.3,2.8-3.7c0.2-0.5,0.6-0.9,1.1-1c0.4-0.1,0.9-0.2,0.9,0.4c0.1,0.4,0.3,0.2,0.4,0.1
		c0.4-0.3,0.8-0.4,1.3-0.5c0.4-0.1,0.8,0,1.1,0.4c0.2,0.4,0.2,0.8,0,1.2c-0.6,1-1.3,1.9-1.8,2.9c-0.1,0.3-0.4,0.5-0.1,0.8
		s0.6,0,0.8-0.2c0.7-0.7,1.6-1.2,2-2.2C395.2,86.9,395.8,85.9,396.4,84.9z"/>
	<path class="st0" d="M337.3,84.1c-0.4,0.1-0.8,0.1-1.1,0.1c-0.4,0-0.7-0.3-0.8-0.6c-0.1-0.4-0.1-0.9,0.3-1.2
		c0.2-0.3,0.4-0.4,0.8-0.1c0.2,0.1,0.4,0,0.6-0.1c0.7-0.4,1.3-0.9,2-1.4c0.1-0.1,0.3-0.2,0.5-0.4c0.5-0.3,1.2-0.2,1.6,0.1
		c0.4,0.5,0.1,0.9-0.1,1.3c-1.2,1.7-2.5,3.5-3.6,5.3c-0.4,0.6-0.7,1.2-1,1.7c-0.1,0.2-0.4,0.6-0.1,0.8s0.5,0,0.8-0.1
		c0.9-0.4,1.6-1,2.3-1.7c2-1.7,3.7-3.6,5.1-5.7c0.3-0.4,0.7-0.9,0.4-1.5c0-0.1,0-0.1,0-0.2c0.4-0.4,1.1-0.6,1.7-0.4
		c0.5,0.2,0.7,0.8,0.5,1.3c-0.2,0.7-0.6,1.3-1,1.9c-2,3-4.6,5.7-7.7,7.7c-0.6,0.4-1.2,0.7-1.9,0.9c-0.7,0.3-1.5,0.2-2-0.3
		c-0.5-0.6-0.6-1.4-0.3-2c0.4-1.2,1-2.2,1.7-3.2C336.2,85.6,336.7,84.9,337.3,84.1z"/>
	<path class="st0" d="M374.9,82c-1,0.3-2,0.7-3,1.2c-0.2,0.1-0.6,0.3,0,0.5c0.4,0.1,0.2,0.4,0,0.6c-0.4,0.4-0.9,0.5-1.3,0.6
		c-0.4,0.1-0.8-0.1-1-0.5c-0.2-0.5-0.2-1.1,0.1-1.6c0.7-0.9,1.7-1.5,2.8-1.8c1.9-0.7,4-0.9,5.9-0.6c0.7,0.1,1.4,0.4,2,0.9
		c0.7,0.5,0.9,1.4,0.6,2.2c-0.7,1.7-2.1,2.9-3.8,3.5c-1.1,0.4-2.2,0.7-3.3,0.2c-0.4-0.1-0.4,0.1-0.6,0.4c-0.7,1.2-1.5,2.2-2.1,3.4
		c-0.2,0.4-0.7,0.7-1.1,0.7c-0.9,0-1.2-0.4-0.7-1.2c0.4-0.8,0.9-1.5,1.4-2.2c1.3-2,2.6-4.1,4.1-5.9C374.9,82.2,374.9,82.2,374.9,82z
		 M377.3,81.9c-0.2-0.1-0.4-0.1-0.5,0.1c-0.6,1.2-1.4,2.2-2,3.3c-0.1,0.1-0.3,0.3-0.1,0.5c0.1,0.2,0.4,0.1,0.6,0.1
		c1.4-0.2,2.7-0.9,3.6-2.1c0.7-0.9,0.4-1.7-0.8-1.9C377.7,81.9,377.5,81.9,377.3,81.9z"/>
	<path class="st0" d="M383.8,86.7c-0.1,0.9-0.5,1.8-1.2,2.5c-0.7,1.2-1.8,2-3,2.5c-0.8,0.4-1.7,0.1-2.2-0.7c-0.1-0.3-0.2-0.7-0.1-1
		c0.4-2.2,2-4.1,4.2-4.9c0.7-0.1,1.5,0.1,2.1,0.6C383.8,86,383.8,86.4,383.8,86.7z M382,87.2c0-0.4-0.4-0.5-0.7-0.3
		c-1.2,0.7-2.1,1.8-2.5,3.2c-0.1,0.1,0,0.3,0.1,0.4c0.1,0.1,0.3,0.1,0.4,0c1.2-0.7,2.2-1.8,2.8-3C382,87.2,382,87.2,382,87.2z"/>
	<path class="st0" d="M387.7,84.6c-0.3,0-0.6-0.2-0.7-0.5c0-0.1,0-0.1,0-0.1c0.1-0.7,0.6-1.3,1.3-1.5c0.4,0,0.7,0.2,0.7,0.6
		c0,0,0,0,0,0.1C389,83.9,388.4,84.5,387.7,84.6z"/>
</g>
<g>
	<g>
		<path class="st2" d="M44.2,36.2c-1.9,7.7-9.7,12.4-17.4,10.4S14.4,37,16.4,29.3c1.9-7.7,9.7-12.4,17.4-10.4
			C41.4,20.8,46.1,28.6,44.2,36.2L44.2,36.2z"/>
		<path class="st0" d="M36.6,30.7c0.3-1.9-1.2-2.9-3.1-3.6l0.6-2.6l-1.6-0.4l-0.6,2.5c-0.4-0.1-0.8-0.2-1.3-0.3l0.6-2.5l-1.6-0.4
			L29,26l-1-0.2l0,0l-2.2-0.5L25.4,27c0,0,1.2,0.3,1.1,0.3c0.5,0.1,0.8,0.5,0.7,0.9l-0.7,3h0.2h-0.2l-1,4.1
			c-0.1,0.3-0.4,0.5-0.7,0.4l0,0l-1.1-0.3l-0.8,1.8l2,0.5L26,38l-0.6,2.6L27,41l0.6-2.6l1.3,0.3l-0.7,2.5l1.6,0.4l0.6-2.6
			c2.7,0.5,4.7,0.3,5.5-2.1c0.7-1.4,0.2-3-1.2-3.7c-0.1,0-0.2-0.1-0.3-0.1C35.7,32.8,36.5,31.8,36.6,30.7L36.6,30.7z M33,35.7
			c-0.5,2-3.8,0.9-4.9,0.6l0.9-3.5C30.1,33.2,33.5,33.7,33,35.7L33,35.7z M33.5,30.7c-0.4,1.8-3.2,0.9-4.1,0.7l0.8-3.1
			C31.1,28.4,33.9,28.8,33.5,30.7L33.5,30.7z"/>
		<path class="st0" d="M58,27.1c1,0,2.1,0.2,3,0.6c0.8,0.4,1.5,1,2.1,1.7s1,1.6,1.2,2.5c0.3,1,0.4,2,0.4,3c0,1.6-0.3,3.2-0.9,4.7
			s-1.4,2.8-2.5,3.9c-1.1,1.1-2.4,2-3.8,2.6c-1.5,0.7-3.1,1-4.7,1h-1.1c-0.6,0-1.2-0.1-1.9-0.2c-0.8-0.1-1.5-0.3-2.2-0.4
			c-0.8-0.2-1.5-0.5-2.2-0.8l6.3-26.4l5.6-0.9l-2.2,9.3c0.5-0.2,1-0.4,1.5-0.5C56.9,27.2,57.4,27.1,58,27.1L58,27.1z M53.2,42.7
			c0.8,0,1.7-0.2,2.4-0.6c0.8-0.4,1.4-1,1.9-1.7c0.6-0.7,1-1.5,1.3-2.4s0.5-1.8,0.5-2.7c0.1-0.9-0.1-1.9-0.6-2.7
			c-0.5-0.7-1.3-1.1-2.1-1c-0.4,0-0.9,0.1-1.3,0.2c-0.5,0.1-1.1,0.4-1.5,0.8l-2.4,10l0.4,0.1h0.3c0.1,0,0.3,0,0.4,0L53.2,42.7z"/>
		<path class="st0" d="M70.5,46.6h-5.4l4.5-19.1H75L70.5,46.6z M73.2,25.2c-0.7,0-1.4-0.2-2-0.7s-1-1.3-0.9-2c0-0.5,0.1-1,0.3-1.4
			c0.2-0.4,0.5-0.8,0.8-1.2c0.3-0.3,0.7-0.6,1.2-0.8c0.5-0.2,0.9-0.3,1.4-0.3c0.7,0,1.4,0.2,2,0.7s1,1.3,0.9,2c0,0.5-0.1,1-0.3,1.4
			c-0.2,0.4-0.5,0.8-0.8,1.2c-0.3,0.3-0.7,0.6-1.2,0.8S73.7,25.2,73.2,25.2z"/>
		<path class="st0" d="M79.8,22.8l5.6-0.9L84,27.5h6l-1,4.4h-6l-1.6,6.7c-0.1,0.5-0.2,1-0.3,1.6c0,0.4,0,0.9,0.2,1.3
			c0.1,0.4,0.4,0.6,0.8,0.8c0.5,0.2,1.1,0.3,1.6,0.3c0.6,0,1.1-0.1,1.7-0.2c0.6-0.1,1.1-0.3,1.6-0.5l0.4,4.1
			c-0.8,0.3-1.6,0.5-2.4,0.7c-1,0.2-2,0.3-3,0.3c-1.3,0.1-2.6-0.2-3.8-0.7c-0.9-0.4-1.6-1.1-2-2s-0.6-2-0.5-3
			c0.1-1.2,0.2-2.4,0.5-3.5L79.8,22.8L79.8,22.8z"/>
		<path class="st0" d="M89.9,39c0-1.6,0.3-3.2,0.8-4.7c0.5-1.4,1.3-2.7,2.3-3.8c1-1.1,2.2-2,3.6-2.6c1.5-0.6,3.1-1,4.7-0.9
			c1,0,2,0.1,2.9,0.3c0.8,0.2,1.6,0.5,2.3,0.8l-1.9,4.2c-0.5-0.2-1-0.4-1.5-0.5c-0.6-0.2-1.3-0.3-1.9-0.2c-1.6-0.1-3.2,0.6-4.3,1.9
			c-1.1,1.4-1.7,3.2-1.6,5c-0.1,1.1,0.2,2.1,0.8,3c0.7,0.9,1.9,1.3,3,1.1c0.7,0,1.3-0.1,2-0.2c0.6-0.1,1.2-0.3,1.8-0.5l0.4,4.3
			c-0.7,0.3-1.5,0.5-2.3,0.7c-1,0.2-2,0.3-3,0.3c-1.3,0-2.6-0.2-3.8-0.7c-1-0.4-1.9-1-2.6-1.8c-0.7-0.7-1.2-1.6-1.5-2.6
			C90,41.1,89.9,40,89.9,39L89.9,39z"/>
		<path class="st0" d="M113.7,47.1c-1.1,0-2.3-0.2-3.3-0.6c-0.9-0.4-1.7-0.9-2.3-1.6c-0.6-0.7-1.1-1.6-1.4-2.5
			c-0.3-1-0.5-2.1-0.5-3.2c0-1.5,0.2-2.9,0.7-4.3c0.5-1.4,1.2-2.7,2.1-3.9c0.9-1.2,2.1-2.1,3.4-2.9c1.4-0.8,3-1.1,4.6-1.1
			c1.1,0,2.3,0.2,3.3,0.6c0.9,0.4,1.7,0.9,2.4,1.6c0.6,0.7,1.1,1.6,1.4,2.5c0.3,1,0.5,2.1,0.5,3.2c0,1.5-0.2,2.9-0.7,4.3
			c-0.4,1.4-1.1,2.7-2,3.9s-2.1,2.1-3.4,2.8C117,46.8,115.4,47.2,113.7,47.1z M116.4,31.6c-0.8,0-1.5,0.2-2.1,0.7
			c-0.6,0.5-1.1,1.1-1.5,1.7c-0.4,0.7-0.7,1.5-0.9,2.3c-0.2,0.8-0.3,1.6-0.3,2.4c0,1,0.2,2,0.6,2.8c0.5,0.7,1.3,1.1,2.1,1
			c0.8,0,1.5-0.2,2.1-0.7s1.1-1.1,1.5-1.8s0.7-1.5,0.9-2.3c0.2-0.8,0.3-1.6,0.3-2.4c0.1-1-0.1-2-0.6-2.8
			C118.1,31.9,117.3,31.5,116.4,31.6z"/>
		<path class="st0" d="M130.3,46.6H125l4.5-19.1h5.4L130.3,46.6z M132.9,25.2c-0.7,0-1.4-0.2-2-0.7s-1-1.3-0.9-2
			c0-0.5,0.1-1,0.3-1.4s0.5-0.8,0.8-1.2c0.3-0.3,0.7-0.6,1.2-0.8c0.5-0.2,0.9-0.3,1.4-0.3c0.7,0,1.4,0.2,2,0.7s1,1.3,0.9,2
			c0,0.5-0.1,1-0.3,1.4s-0.5,0.8-0.8,1.2c-0.3,0.3-0.7,0.6-1.2,0.8C133.9,25.1,133.4,25.2,132.9,25.2z"/>
		<path class="st0" d="M138.8,28.4l1.4-0.4c0.5-0.2,1.1-0.3,1.7-0.4c0.7-0.2,1.4-0.3,2.1-0.3c0.9-0.1,1.7-0.1,2.6-0.1
			c2.8,0,4.8,0.8,5.9,2.5s1.3,3.9,0.6,6.8l-2.5,10.3H145l2.4-10.1c0.2-0.6,0.3-1.2,0.3-1.8c0.1-0.5,0.1-1,0-1.6
			c-0.1-0.4-0.3-0.8-0.7-1.1c-0.5-0.3-1-0.5-1.6-0.4c-0.7,0-1.4,0.1-2.1,0.2l-3.5,14.8h-5.4L138.8,28.4z"/>
	</g>
	<g>
		<path class="st0" d="M203.4,32.5c0,9.7-7.6,17.4-17.3,17.4c-8.9,0-17.3-6.9-17.4-17.5c-0.1-9.4,7.9-17.3,17.3-17.3
			C195.6,15.1,203.4,22.9,203.4,32.5z M186.2,41.9c1.9,0,3.7,0,5.6,0c2.3,0,2.3,0,2.9-2.3c0.3-1.2-0.1-1.5-1.2-1.5
			c-1.6,0-3.1,0-4.7,0c-3.5,0-3.5,0-2.6-3.5c0.2-1,0.7-1.7,1.7-1.9c1.1-0.2,1.4-0.9,1.7-1.9c0.2-1,0-1.3-1-0.9
			c-1.1,0.4-1.2,0-0.9-0.9c0.5-1.6,0.9-3.3,1.3-4.9c0.2-0.9,0-1.4-1-1.4c-1.1,0-2.2,0-3.3,0c-1-0.1-1.5,0.4-1.7,1.4
			c-0.6,2.5-1.3,5-1.9,7.6c-0.2,0.8-0.6,1.4-1.4,1.6c-1.1,0.2-1.4,1-1.6,2c-0.1,0.7-0.2,1.2,0.8,0.9c0.9-0.3,1,0.2,0.8,0.9
			c-0.3,1.1-0.6,2.3-0.9,3.4c-0.3,1,0,1.4,1.1,1.4C181.9,41.9,184,41.9,186.2,41.9z"/>
		<path class="st0" d="M238,38.1c-1.8,0-3.6,0-5.3,0c-1.3,0-1.4,0.3-0.9,1.5c1.6,3.5,6.6,4.2,9.4,1.3c0.3-0.3,0.5-0.8,1-0.8
			c0.7,0.1,1.5-0.1,1.9,0.6c0.3,0.6-0.3,1.1-0.6,1.5c-2.9,3.5-8.1,4.1-11.8,1.3c-3.3-2.5-4.1-8.2-1.5-11.9c2.4-3.4,7.6-4.4,11.3-2.1
			c2.7,1.7,3.5,4.4,3.6,7.4c0,0.9-0.6,1.1-1.4,1.1C241.7,38.1,239.8,38.1,238,38.1L238,38.1z M236.7,35.6c1.4,0,2.7,0,4.1,0
			c1.1,0,1.4-0.3,1-1.4c-0.8-2-2.7-3.3-5.1-3.3c-2.3,0-4.5,1.5-5.1,3.5c-0.3,0.9,0,1.2,0.9,1.2C233.8,35.6,235.3,35.6,236.7,35.6z"
			/>
		<path class="st0" d="M270.3,45.3c-5,0-8.4-3.5-8.4-8.6c0-4.9,3.7-8.4,8.7-8.4c4.9,0,8.4,3.7,8.4,8.7
			C278.9,41.9,275.4,45.3,270.3,45.3z M270.4,42.7c3.4,0,6-2.5,6-5.9c0-3.3-2.5-5.8-6-5.8c-3.4,0-5.9,2.4-6,5.7
			C264.4,40,267,42.7,270.4,42.7z"/>
		<path class="st0" d="M288.2,36.8c0-2.2,0-4.4,0-6.6c0-0.6-0.1-1.4,0.9-1.4c0.7,0,1.6-0.3,1.9,0.9c0.3,1,0.7,0.2,1.1,0
			c2.2-1.5,4.6-1.8,7-0.7c2.5,1.2,3.3,3.5,3.4,6c0.2,2.9,0,5.8,0.1,8.8c0,1-0.5,1.3-1.4,1.3s-1.3-0.4-1.3-1.3c0-2.7,0-5.4,0-8.1
			c0-3.1-1.3-4.6-3.8-4.6c-2.9,0-4.9,1.8-4.9,4.7c-0.1,2.6,0,5.1,0,7.7c0,1-0.2,1.7-1.4,1.7c-1.3,0-1.3-0.8-1.3-1.7
			C288.2,41.1,288.2,38.9,288.2,36.8z"/>
		<path class="st0" d="M255.2,45.3c-4.1,0-7.1-2.1-8.2-5.6c-1.2-3.5,0-7.6,2.6-9.5c3.1-2.3,7.4-2.5,10.4-0.4
			c0.6,0.4,1.1,0.8,0.5,1.5c-0.5,0.6-0.9,1.3-1.9,0.7c-1.1-0.7-2.3-1-3.6-1c-2.4,0.1-4.3,1.1-5.3,3.4c-1,2.3-0.6,4.6,1.1,6.5
			c1.5,1.7,4.2,2.3,6.4,1.5c0.4-0.2,0.9-0.3,1.2-0.6c1.1-0.8,1.8,0,2.3,0.7c0.7,1-0.4,1.2-0.9,1.6C258.3,45,256.7,45.4,255.2,45.3z"
			/>
		<path class="st0" d="M221.7,37.9c0-1.8,0-3.6,0-5.3c0-1-0.3-1.6-1.4-1.5c-0.8,0.1-1.4-0.1-1.4-1.2s0.5-1.4,1.5-1.3
			c1.1,0.1,1.4-0.5,1.4-1.5s0-2.1,0-3.1s0.4-1.4,1.4-1.4c0.9,0,1.3,0.4,1.3,1.3c0,1,0.1,2.1,0,3.1c-0.1,1.2,0.4,1.6,1.6,1.6
			c0.6,0,1.4-0.2,1.7,0.7c0.3,1.1-0.1,1.7-1.3,1.8c-2,0.1-2,0.1-2,2.1c0,3.3,0,6.6,0,10c0,1,0.1,2-1.4,1.9c-1.5,0-1.3-1-1.3-2
			C221.7,41.3,221.7,39.6,221.7,37.9z"/>
		<path class="st0" d="M207.9,32.3c0-3.6,0-7.3,0-10.9c0-0.9,0.1-1.6,1.3-1.6s1.3,0.7,1.3,1.6c0,7.3,0,14.7,0,22
			c0,0.9-0.1,1.6-1.3,1.6s-1.3-0.7-1.3-1.6C207.9,39.7,207.9,36,207.9,32.3z"/>
		<path class="st0" d="M217,36.9c0,2.2,0,4.5,0,6.7c0,0.9-0.3,1.4-1.3,1.5c-1.1,0-1.4-0.4-1.4-1.5c0-4.5,0-8.9,0-13.4
			c0-0.9,0.3-1.4,1.3-1.5c1.1,0,1.5,0.4,1.4,1.5C217,32.4,217,34.6,217,36.9z"/>
		<path class="st0" d="M284.4,36.9c0,2.2,0,4.5,0,6.7c0,0.9-0.2,1.5-1.3,1.5c-1.1,0-1.3-0.6-1.3-1.5c0-4.5,0-8.9,0-13.4
			c0-0.9,0.2-1.5,1.3-1.5c1.1,0,1.3,0.6,1.3,1.5C284.4,32.4,284.4,34.7,284.4,36.9z"/>
		<path class="st0" d="M285.1,22.7c0,1-0.7,1.7-1.8,1.8c-1.1,0-1.9-0.6-1.9-1.7c0-1,0.7-1.8,1.7-1.9C284.1,20.9,285,21.7,285.1,22.7
			z"/>
		<path class="st0" d="M215.7,20.9c1,0,1.9,0.8,1.9,1.8s-0.8,1.8-2,1.8c-1.1,0-1.8-0.8-1.8-1.8C213.8,21.8,214.7,20.9,215.7,20.9z"
			/>
	</g>
	<g>
		<path class="st3" d="M353.8,34.9c0,0.2-0.2,0.3-0.3,0.3h-6.7c0.2,1.7,1.4,3.2,3.2,3.2c1.2,0,2.1-0.5,2.8-1.4
			c0.1-0.1,0.2-0.2,0.4-0.1c0.1,0,0.2,0.1,0.2,0.2c0,0.1,0,0.2,0,0.2c-0.7,1.2-2,1.7-3.3,1.7c-2.3,0-3.9-2-3.9-4.2s1.6-4.2,3.9-4.2
			C352.1,30.8,353.8,32.8,353.8,34.9 M353.1,34.6c-0.1-1.7-1.4-3.2-3.2-3.2s-3,1.5-3.2,3.2H353.1z M361.9,30.9
			c0.2,0,0.3,0.2,0.3,0.3c0,0.2-0.1,0.3-0.3,0.3h-1.8v7c0,0.2-0.1,0.3-0.3,0.3c-0.2,0-0.3-0.2-0.3-0.3v-7h-1.7
			c-0.2,0-0.3-0.1-0.3-0.3c0-0.2,0.1-0.3,0.3-0.3h1.7v-2.6c0-0.2,0.1-0.3,0.3-0.3c0.2,0,0.4,0.1,0.4,0.3v2.6L361.9,30.9L361.9,30.9z
			 M372.8,34.3v4.3c0,0.2-0.2,0.3-0.3,0.3c-0.2,0-0.3-0.1-0.3-0.3v-4.3c0-1.4-0.8-2.9-2.4-2.9c-2.1,0-2.9,1.8-2.8,3.6v0.3v3.2
			c0,0.2-0.1,0.3-0.3,0.3c-0.2,0-0.4-0.1-0.4-0.3v-14c0-0.2,0.1-0.3,0.3-0.3c0.2,0,0.3,0.2,0.3,0.3v7.9c0.6-1,1.6-1.7,2.8-1.7
			C371.7,30.8,372.8,32.5,372.8,34.3 M384.8,34.9c0,0.2-0.2,0.3-0.3,0.3h-6.7c0.2,1.7,1.4,3.2,3.2,3.2c1.2,0,2.1-0.5,2.8-1.4
			c0.1-0.1,0.2-0.2,0.4-0.1c0.1,0,0.2,0.1,0.2,0.2c0,0.1,0,0.2,0,0.2c-0.7,1.2-2,1.7-3.3,1.7c-2.3,0-3.9-2-3.9-4.2s1.6-4.2,3.9-4.2
			C383.2,30.8,384.8,32.8,384.8,34.9 M384.1,34.6c-0.1-1.7-1.4-3.2-3.2-3.2s-3,1.5-3.2,3.2H384.1z M393,31.3c0,0.2-0.1,0.3-0.3,0.4
			c-2,0.3-2.8,1.9-2.8,3.8v3.2c0,0.2-0.1,0.3-0.3,0.3c-0.2,0-0.4-0.1-0.4-0.3v-7.3c0-0.2,0.1-0.3,0.3-0.3c0.2,0,0.4,0.1,0.4,0.3v1.5
			c0.5-0.9,1.7-1.8,2.8-1.8C392.8,30.9,393,31.1,393,31.3 M404,34.9c0,0.2-0.2,0.3-0.3,0.3H397c0.2,1.7,1.4,3.2,3.2,3.2
			c1.2,0,2.1-0.5,2.8-1.4c0.1-0.1,0.2-0.2,0.4-0.1c0.1,0,0.2,0.1,0.2,0.2c0,0.1,0,0.2,0,0.2c-0.7,1.2-2,1.7-3.3,1.7
			c-2.3,0-3.9-2-3.9-4.2s1.6-4.2,3.9-4.2C402.4,30.8,404,32.8,404,34.9 M403.3,34.6c-0.1-1.7-1.4-3.2-3.2-3.2c-1.7,0-3,1.5-3.2,3.2
			H403.3z M414.8,31.3v7.3c0,0.2-0.2,0.3-0.3,0.3c-0.2,0-0.3-0.1-0.3-0.3v-1.4c-0.5,1.1-1.5,1.9-2.8,1.9c-2,0-3.1-1.7-3.1-3.5v-4.3
			c0-0.2,0.1-0.3,0.3-0.3c0.2,0,0.3,0.2,0.3,0.3v4.3c0,1.4,0.8,2.9,2.4,2.9c2.3,0,2.8-2.1,2.8-4.4v-2.7c0-0.2,0.2-0.4,0.4-0.3
			C414.7,31.1,414.8,31.2,414.8,31.3 M431.8,34.3v4.3c0,0.2-0.2,0.3-0.3,0.3c-0.2,0-0.3-0.1-0.3-0.3v-4.3c0-1.4-0.8-2.8-2.4-2.8
			c-2,0-2.8,2.2-2.8,3.8v3.3c0,0.2-0.2,0.3-0.3,0.3c-0.2,0-0.3-0.1-0.3-0.3v-4.3c0-1.4-0.8-2.8-2.4-2.8c-2,0-2.9,1.6-2.8,3.7
			c0,0,0,0.1,0,0.2v3.2c0,0.2-0.1,0.3-0.3,0.3c-0.2,0-0.4-0.1-0.4-0.3v-7.3c0-0.2,0.1-0.3,0.3-0.3c0.2,0,0.4,0.1,0.4,0.3v1.2
			c0.6-1,1.6-1.7,2.8-1.7c1.4,0,2.4,0.9,2.8,2.1c0.5-1.2,1.6-2.1,3-2.1C430.6,30.8,431.8,32.5,431.8,34.3"/>
		<g class="st1">
			<g>
				<path class="st0" d="M329,28.9L317.8,34l11.2,6.6l11.2-6.6L329,28.9z"/>
			</g>
		</g>
		<g class="st4">
			<g>
				<path class="st0" d="M317.8,34l11.2,6.6V15.5L317.8,34z"/>
			</g>
		</g>
		<g class="st5">
			<g>
				<path class="st0" d="M329,15.5v25.2l11.2-6.6L329,15.5z"/>
			</g>
		</g>
		<g class="st4">
			<g>
				<path class="st0" d="M317.8,36.1L329,51.9v-9.1L317.8,36.1z"/>
			</g>
		</g>
		<g class="st5">
			<g>
				<path class="st0" d="M329,42.7v9.1L340.2,36L329,42.7z"/>
			</g>
		</g>
	</g>
	<g>
		<g>
			<path class="st0" d="M484.1,31.3c-0.3-0.1-0.8-0.1-1.4-0.1c-1.7,0-3.5,1.4-3.5,3.1v8.1h-3.9V27.9h3.7v1.5
				c0.9-1.1,2.4-1.8,4.2-1.8c0.6,0,0.9,0.1,1.3,0.1L484.1,31.3z"/>
			<path class="st0" d="M488.5,20.3c1.4,0,2.5,1.1,2.5,2.5s-1.1,2.5-2.5,2.5s-2.5-1.1-2.5-2.5S487.1,20.3,488.5,20.3z M490.5,42.4
				h-3.9V27.9h3.9V42.4z"/>
			<path class="st0" d="M501.9,27.6c-1.6,0-3.1,0.5-4.2,1.5v-1.2H494v21.6h3.9v-8.2c1.2,0.9,2.4,1.3,3.9,1.3c2.1,0,4.2-1,5.5-2.4
				c1.1-1.3,1.8-3.1,1.8-5.1C509,30.9,505.9,27.6,501.9,27.6z M501.4,39.1c-2.4,0-4-1.7-4-4s1.6-4,4-4c2.1,0,3.7,1.8,3.7,4
				C505.2,37.4,503.5,39.1,501.4,39.1z"/>
			<path class="st0" d="M532.6,42.4h-3.9V21.2h3.9V42.4z"/>
			<path class="st0" d="M548.4,40.1c-1.4,1.7-3.7,2.6-5.9,2.6c-4.3,0-7.6-3-7.6-7.5c0-4,2.7-7.6,7-7.6c4,0,6.8,3.4,6.8,7.4
				c0,0.4,0,0.8-0.1,1.1h-10c0.2,2,1.9,3.4,3.9,3.4c1.6,0,3-0.9,3.6-1.7L548.4,40.1z M544.8,33.3c-0.1-1.3-1.3-2.5-2.9-2.5
				c-1.6,0-2.9,1.2-3.1,2.5H544.8z"/>
			<path class="st0" d="M519.3,27.6c-1.6,0-3.1,0.5-4.2,1.5v-1.2h-3.7v21.6h3.9v-8.2c1.2,0.9,2.4,1.3,3.9,1.3c2.1,0,4.2-1,5.5-2.4
				c1.1-1.3,1.8-3.1,1.8-5.1C526.4,30.9,523.2,27.6,519.3,27.6z M518.8,39.1c-2.4,0-4-1.7-4-4s1.6-4,4-4c2.1,0,3.7,1.8,3.7,4
				C522.5,37.4,520.9,39.1,518.8,39.1z"/>
		</g>
		<g>
			<path class="st0" d="M467.3,37.1c-0.9-0.5-1.9-0.7-2.8-0.7c-0.8,0-2-0.6-2-2c0-1.1,0.9-2,2-2c1,0,2-0.2,2.8-0.7
				c1.6-0.9,2.6-2.6,2.6-4.5c0-1.8-1-3.6-2.6-4.5s-3.6-0.9-5.2,0s-2.6,2.6-2.6,4.5c0,1,0.4,1.9,0.8,2.8c0.4,0.7,0.6,2.1-0.7,2.8
				c-1,0.6-2.2,0.2-2.8-0.8c-0.5-0.8-1.1-1.6-2-2.1c-1.6-0.9-3.6-0.9-5.2,0s-2.6,2.6-2.6,4.5c0,1.8,1,3.6,2.6,4.5s3.6,0.9,5.2,0
				c0.9-0.5,1.5-1.3,2-2.1c0.4-0.7,1.5-1.5,2.8-0.8c1,0.6,1.3,1.8,0.7,2.8c-0.5,0.9-0.8,1.8-0.8,2.8c0,1.8,1,3.6,2.6,4.5
				s3.6,0.9,5.2,0s2.6-2.6,2.6-4.5C469.9,39.7,468.9,38,467.3,37.1z"/>
		</g>
	</g>
</g>
<g id="g6321" transform="translate(-9.4000001,96.810998)">
	<g id="g6323" transform="matrix(1.8215159,0,0,1.8215159,-8.5437653,-109.83667)">
		<path id="path6325" class="st6" d="M257.6,58.2c0,2-1.6,3.5-3.5,3.5h-19V47.9c0-2,1.6-3.5,3.5-3.5h19V58.2L257.6,58.2z"/>
		<g id="g6327">
			<path id="path6338" class="st0" d="M251.3,54.6h1.5c0.1,0,0.1,0,0.1,0c0.3-0.1,0.5-0.3,0.5-0.7s-0.2-0.6-0.5-0.7
				c-0.1,0-0.1,0-0.1,0h-1.5V54.6L251.3,54.6z"/>
			<path id="path6349" class="st0" d="M252.7,45.6c-1.4,0-2.5,1.1-2.5,2.5v2.6h3.6c0.1,0,0.1,0,0.2,0c0.8,0.1,1.4,0.4,1.4,1.2
				c0,0.6-0.4,1-1.2,1.2l0,0c0.8,0.1,1.5,0.5,1.5,1.2c0,0.7-0.7,1.2-1.6,1.2h-3.8v5.1h3.7c1.4,0,2.5-1.1,2.5-2.5V45.6H252.7
				L252.7,45.6z"/>
			<path id="path6360" class="st0" d="M253.3,52c0-0.4-0.2-0.6-0.5-0.6c0,0-0.1,0-0.1,0h-1.3v1.2h1.3c0.1,0,0.1,0,0.1,0
				C253.1,52.5,253.3,52.3,253.3,52z"/>
		</g>
		<path id="path6371" class="st0" d="M238.8,45.6c-1.4,0-2.5,1.1-2.5,2.5v6.2c0.7,0.4,1.5,0.6,2.2,0.6c0.9,0,1.3-0.5,1.3-1.2v-2.9
			h2.2v2.9c0,1.2-0.7,2-3,2c-1.5,0-2.5-0.3-2.5-0.3v5.3h3.7c1.4,0,2.5-1.1,2.5-2.5V45.6C242.5,45.6,238.8,45.6,238.8,45.6z"/>
		<path id="path6384" class="st0" d="M245.8,45.6c-1.4,0-2.5,1.1-2.5,2.5v3.3c0.7-0.5,1.7-0.9,3.5-0.8c0.9,0.1,2,0.3,2,0.3v1.1
			c-0.5-0.3-1.1-0.5-1.9-0.6c-1.4-0.1-2.2,0.6-2.2,1.7c0,1.2,0.8,1.8,2.2,1.7c0.8-0.1,1.4-0.3,1.9-0.6v1.1c0,0-1,0.3-2,0.3
			c-1.7,0.1-2.9-0.3-3.5-0.8v5.8h3.7c1.4,0,2.5-1.1,2.5-2.5V45.6C249.4,45.6,245.8,45.6,245.8,45.6z"/>
	</g>
	<g id="g6386">
	</g>
</g>
<g>
	<g>
		<g>
			<path class="st0" d="M486.4,90.6l-4.1-3.4c-0.2-0.2-0.5-0.2-0.7-0.1c-0.2,0.1-0.4,0.4-0.4,0.6v2H480c-0.9,0-1.8-0.5-2.3-1.3
				l-4.4-7.1c-1-1.6-2.7-2.6-4.6-2.6h-3.9v2.7h3.9c0.9,0,1.8,0.5,2.3,1.3l4.4,7.1c1,1.6,2.7,2.6,4.6,2.6h1.1v2
				c0,0.3,0.2,0.5,0.4,0.6c0.1,0,0.2,0.1,0.3,0.1c0.2,0,0.3-0.1,0.4-0.2l4.1-3.4c0.2-0.1,0.2-0.3,0.2-0.5S486.5,90.7,486.4,90.6z"/>
		</g>
	</g>
	<g>
		<g>
			<path class="st0" d="M486.4,79.7l-4.1-3.4c-0.2-0.2-0.5-0.2-0.7-0.1c-0.2,0.1-0.4,0.4-0.4,0.6v2H480c-1.9,0-3.6,1-4.6,2.6
				l-0.2,0.4l1.6,2.6l1-1.5c0.5-0.8,1.4-1.3,2.3-1.3h1.1v2c0,0.3,0.2,0.5,0.4,0.6c0.1,0,0.2,0.1,0.3,0.1c0.2,0,0.3-0.1,0.4-0.2
				l4.1-3.4c0.2-0.1,0.2-0.3,0.2-0.5S486.5,79.8,486.4,79.7z"/>
		</g>
	</g>
	<g>
		<g>
			<path class="st0" d="M472,87l-0.9,1.5c-0.5,0.8-1.4,1.3-2.3,1.3h-3.9v2.7h3.9c1.9,0,3.6-1,4.6-2.6l0.2-0.4L472,87z"/>
		</g>
	</g>
	<g>
		<path class="st0" d="M504.9,87.7c-0.6,0.5-1.4,0.9-2,1.3c0.5,0.9,1.2,1.5,2.2,2c-0.5,0.4-1.1,1.3-1.4,1.8
			c-1.2-0.7-2.1-1.7-2.7-2.9l0.2,1.7c-1.5,0.4-3.1,0.7-4.4,1l-0.3-1c-1.9,0.3-3.8,0.6-5.3,0.9l-0.4-2c0.6-0.1,1.4-0.2,2.2-0.3v-0.7
			l-1.4,0.4c0-0.7-0.3-1.8-0.5-2.6l1.4-0.4c0.2,0.7,0.4,1.5,0.5,2.1v-2.5H491v-1.9h1.9v-0.8h-1.3v-0.5l0,0c-0.3-0.5-0.9-1.2-1.3-1.5
			c1.3-1.1,2.2-2.4,2.7-3.6h1.8c0.9,0.7,2,1.7,2.5,2.5v-2h7.1v7.1h-2.5c0.1,0.5,0.2,1,0.4,1.4c0.5-0.4,0.9-0.8,1.3-1.1L504.9,87.7z
			 M495.5,82c-0.4-0.5-0.9-1.2-1.4-1.7c-0.4,0.5-0.8,1.1-1.3,1.7H495.5z M494.8,90l2-0.3l0,0.6l0.5-0.1V81l-0.9,1.1v1.8h-1.6v0.8
			h1.9v1.9h-1.9v2.6c0.2-0.7,0.4-1.6,0.4-2.3l1.6,0.4c-0.3,0.9-0.6,1.8-0.8,2.4l-1.3-0.4V90z M499.3,80.7v0.7h2.9v-0.7H499.3z
			 M502.2,84v-0.7h-2.9V84H502.2z M499.3,89.8c0.5-0.1,1-0.2,1.5-0.3c-0.5-1.1-0.8-2.3-1-3.6h-0.5V89.8z"/>
		<path class="st0" d="M511.8,82.4c-0.4,0.8-1,1.6-1.6,2.3v8h-2.2v-5.5c-0.3,0.3-0.7,0.6-1,0.9c-0.3-0.5-1.1-1.5-1.5-1.9
			c1.5-1.1,3.2-2.8,4.2-4.6L511.8,82.4z M511.2,79.1c-1.2,1.5-2.8,3.1-4.4,4.2c-0.3-0.5-0.8-1.4-1.2-1.8c1.3-0.8,2.7-2.2,3.4-3.2
			L511.2,79.1z M520,85.4h-2v4.8c0,1.1-0.2,1.7-1,2.1c-0.7,0.3-1.8,0.4-3,0.4c-0.1-0.7-0.4-1.6-0.7-2.3c0.7,0,1.8,0,2,0
			c0.3,0,0.4-0.1,0.4-0.3v-4.8h-4.2v-2.1h8.4V85.4z M519.6,81.2h-7.4v-2.1h7.4V81.2z"/>
		<path class="st0" d="M524.9,88.9c0.6,0.9,1.6,1.3,3.1,1.4c1.9,0.1,5.3,0,7.5-0.2c-0.2,0.5-0.6,1.6-0.7,2.3c-1.9,0.1-5,0.1-6.9,0
			c-1.8-0.1-3-0.5-4-1.6c-0.6,0.5-1.3,1.1-2.1,1.8l-1.1-2.3c0.6-0.4,1.3-0.8,2-1.2v-2.8h-1.6v-2h3.7V88.9z M523.5,82.3
			c-0.4-0.7-1.5-1.7-2.4-2.4l1.6-1.3c0.9,0.6,2,1.6,2.5,2.3L523.5,82.3z M531.7,85.8c0.7,1.2,1.9,2,3.6,2.4
			c-0.5,0.4-1.1,1.3-1.4,1.9c-1.6-0.5-2.7-1.5-3.5-2.8c-0.7,1-1.8,2-3.5,2.8c-0.3-0.5-1-1.2-1.5-1.6c2.1-0.7,3-1.7,3.4-2.7h-3.3v-2
			h3.6v-1.1h-3v-1.9h1.3c-0.2-0.6-0.6-1.2-1-1.8l1.9-0.8c0.5,0.7,1.1,1.6,1.3,2.3l-0.7,0.3h3l-0.7-0.2c0.4-0.7,0.9-1.6,1.2-2.3
			l2.3,0.7c-0.5,0.7-0.9,1.4-1.3,1.9h1.6v1.9h-3.5v1.1h4v2H531.7z"/>
		<path class="st0" d="M548.3,88.3c-0.5,0.7-1.1,1.5-1.5,2.1h3.1v1.9H537v-1.9h2.7c-0.3-0.7-0.7-1.5-1.1-2.2l1.1-0.5h-1.9v-1.9h4.4
			v-1.2h-2.6V84c-0.7,0.5-1.4,0.9-2.1,1.3c-0.3-0.5-0.9-1.3-1.4-1.8c2.6-1.2,5-3.6,6.1-5.4h2.3c1.7,2.4,4,4.2,6.5,5.2
			c-0.5,0.6-1.1,1.3-1.5,2c-0.7-0.4-1.5-0.9-2.2-1.4v0.7h-2.7v1.2h4.4v1.9h-2.1L548.3,88.3z M540.5,87.8c0.5,0.7,1,1.5,1.2,2.1
			l-1.1,0.5h1.5v-2.6H540.5z M545.7,82.8c-0.9-0.8-1.8-1.6-2.3-2.4c-0.6,0.8-1.3,1.6-2.3,2.4H545.7z M544.5,87.8v2.6h1.1l-0.8-0.3
			c0.4-0.6,0.9-1.5,1.3-2.3H544.5z"/>
	</g>
</g>
<g id="layer1" transform="translate(-55.5,-1002.3452)">
	<path class="st0" d="M347.6,1093.8H336l-0.7-0.9v0.9H333v-1.5c0,0-0.3,0.2-1,0.2h-0.8v1.2h-3.5l-0.7-0.8l-0.7,0.8h-5.7v-5.4h5.8
		l0.7,0.8l0.7-0.8h20.9l0.1-0.1v-18.8h-34.8v14.7l1.3-3h2.2l0.7,1.7v-1.7h2.8l0.4,1.2l0.4-1.2h12.6v0.7c0,0,0.7-0.7,1.7-0.7h4.1
		l0.7,1.7v-1.7h2.3l0.7,0.9v-0.9h2.4v5.4H344l-0.7-0.9v0.9h-3.5l-0.4-0.9h-0.9l-0.4,0.9h-2.3c-0.9,0-1.5-0.6-1.5-0.6v0.6h-3.6
		l-0.7-0.9v0.9h-13l-0.4-0.9h-0.9l-0.4,0.9h-1.5v17.7h34.8v-10.8C348.6,1093.6,348,1093.8,347.6,1093.8z"/>
	<path id="path3046" class="st0" d="M315.6,1081.9l-1.7,4.1h1.2l0.3-0.8h1.9l0.3,0.8h1.2l-1.7-4.1H315.6L315.6,1081.9z
		 M316.3,1082.8l0.6,1.5h-1.2L316.3,1082.8z"/>
	<path id="path3048" class="st0" d="M318.9,1086v-4.1h1.6l0.9,2.6l0.9-2.6h1.6v4.1h-1v-3l-1.1,3H321l-1.1-3v3H318.9z"/>
	<path id="path3050" class="st0" d="M324.7,1086v-4.1h3.3v0.9h-2.3v0.7h2.2v0.9h-2.2v0.7h2.3v0.9L324.7,1086L324.7,1086z"/>
	<path id="path3052" class="st0" d="M328.6,1081.9v4.1h1v-1.5h0.4l1.2,1.5h1.2l-1.4-1.5c0.6-0.1,1.1-0.5,1.1-1.2
		c0-0.9-0.7-1.3-1.5-1.3H328.6L328.6,1081.9z M329.6,1082.8h1.2c0.3,0,0.5,0.2,0.5,0.4c0,0.3-0.3,0.4-0.4,0.4h-1.2L329.6,1082.8
		L329.6,1082.8z"/>
	<path id="path3054" class="st0" d="M333.8,1086h-1v-4.1h1V1086z"/>
	<path id="path3056" class="st0" d="M336.2,1086H336c-1.1,0-1.7-0.9-1.7-2c0-1.2,0.7-2,2-2h1.2v0.9h-1.2c-0.6,0-0.9,0.4-0.9,1.1
		c0,0.8,0.4,1.2,1.1,1.2h0.3L336.2,1086z"/>
	<path id="path3058" class="st0" d="M338.5,1081.9l-1.7,4.1h1.2l0.3-0.8h1.9l0.3,0.8h1.2l-1.7-4.1H338.5L338.5,1081.9z
		 M339.1,1082.8l0.6,1.5h-1.2L339.1,1082.8L339.1,1082.8z"/>
	<path id="path3060" class="st0" d="M341.7,1086v-4.1h1.3l1.7,2.5v-2.5h1v4.1h-1.2l-1.7-2.6v2.6H341.7z"/>
	<path id="path3062" class="st0" d="M321.4,1093.1v-4.1h3.3v0.9h-2.3v0.7h2.2v0.9h-2.2v0.7h2.3v0.9L321.4,1093.1L321.4,1093.1z"/>
	<path id="path3064" class="st0" d="M337.7,1093.1v-4.1h3.3v0.9h-2.3v0.7h2.2v0.9h-2.2v0.7h2.3v0.9L337.7,1093.1L337.7,1093.1z"/>
	<path id="path3066" class="st0" d="M324.8,1093.1l1.6-2l-1.7-2.1h1.3l1,1.3l1-1.3h1.2l-1.7,2l1.6,2H328l-0.9-1.2l-0.9,1.2
		L324.8,1093.1L324.8,1093.1z"/>
	<path id="path3068" class="st0" d="M329.4,1089v4.1h1v-1.3h1.1c0.9,0,1.6-0.5,1.6-1.5c0-0.8-0.5-1.4-1.5-1.4L329.4,1089L329.4,1089
		z M330.4,1090h1.2c0.3,0,0.5,0.1,0.5,0.4s-0.2,0.4-0.5,0.4h-1.2V1090L330.4,1090z"/>
	<path id="path3072" class="st0" d="M333.5,1089v4.1h1v-1.5h0.4l1.2,1.5h1.2l-1.4-1.5c0.6-0.1,1.1-0.5,1.1-1.2
		c0-0.9-0.7-1.3-1.5-1.3H333.5L333.5,1089z M334.6,1089.9h1.2c0.3,0,0.5,0.2,0.5,0.4c0,0.3-0.3,0.4-0.4,0.4h-1.2L334.6,1089.9
		L334.6,1089.9z"/>
	<path id="path3074" class="st0" d="M341.5,1093.1v-0.9h2c0.3,0,0.4-0.1,0.4-0.4c0-0.1-0.1-0.4-0.4-0.4h-0.9c-0.8,0-1.2-0.5-1.2-1.2
		c0-0.7,0.4-1.3,1.6-1.3h2l-0.4,0.9h-1.7c-0.4,0-0.4,0.1-0.4,0.4c0,0.1,0.1,0.4,0.4,0.4h0.9c0.9,0,1.3,0.5,1.3,1.2
		c0,0.7-0.4,1.3-1.3,1.3L341.5,1093.1L341.5,1093.1z"/>
	<path id="path3076" class="st0" d="M345.3,1093.1v-0.9h2c0.3,0,0.4-0.1,0.4-0.4c0-0.1-0.1-0.4-0.4-0.4h-0.9c-0.8,0-1.2-0.5-1.2-1.2
		c0-0.7,0.4-1.3,1.6-1.3h2l-0.4,0.9h-1.7c-0.4,0-0.4,0.1-0.4,0.4c0,0.1,0.1,0.4,0.4,0.4h0.9c0.9,0,1.3,0.5,1.3,1.2
		c0,0.7-0.4,1.3-1.3,1.3L345.3,1093.1L345.3,1093.1z"/>
</g>
</svg>
