<?xml version="1.0" encoding="utf-8"?>
<!-- Generator: Adobe Illustrator 24.3.0, SVG Export Plug-In . SVG Version: 6.00 Build 0)  -->
<svg version="1.1" id="Providers" xmlns="http://www.w3.org/2000/svg" xmlns:xlink="http://www.w3.org/1999/xlink" x="0px" y="0px"
	 viewBox="0 0 1200 60" style="enable-background:new 0 0 1200 60;" xml:space="preserve">
<style type="text/css">
	.st0{fill:#84D5F7;}
	.st1{opacity:0.6;}
	.st2{fill:none;stroke:#84D5F7;stroke-miterlimit:10;}
	.st3{fill:#84D5F7;stroke:#84D5F7;stroke-miterlimit:10;}
	.st4{opacity:0.45;}
	.st5{opacity:0.8;}
	.st6{fill:none;}
</style>
<g>
	<path class="st0" d="M184.6,47.6L184.6,47.6L184.6,47.6L184.6,47.6L184.6,47.6L184.6,47.6L184.6,47.6L184.6,47.6z M184.7,47.6
		L184.7,47.6L184.7,47.6l0.1,0.2h-0.1l0.1,0.1h-0.1l-0.1-0.1l0,0v0.1l0,0L184.7,47.6L184.7,47.6z M184.7,48.1L184.7,48.1h0.2L185,48
		v-0.1v-0.1l-0.1-0.1l-0.1-0.1h-0.1h-0.1c0,0-0.1,0-0.1,0.1l-0.1,0.1v0.1V48c0,0,0,0.1,0.1,0.1H184.7L184.7,48.1 M184.7,47.4
		c0.1,0,0.1,0,0.2,0c0,0,0.1,0,0.1,0.1l0.1,0.1c0,0,0,0.1,0,0.2c0,0,0,0.1,0,0.2H185l-0.1,0.1h-0.2h-0.1c0,0-0.1,0-0.1-0.1l-0.1-0.1
		c0,0,0-0.1,0-0.2c0,0,0-0.1,0-0.2c0,0,0-0.1,0.1-0.1H184.7L184.7,47.4 M147.5,46.1c0-0.7,0.6-1.2,1.2-1.2c0.7,0,1.2,0.6,1.2,1.2
		c0,0.7-0.5,1.2-1.2,1.2C148.1,47.3,147.6,46.8,147.5,46.1L147.5,46.1 M150.8,46.1v-1.9h-0.9v0.5c-0.3-0.4-0.8-0.6-1.3-0.6
		c-1.1,0-2,0.9-2,2s0.9,2,2,2c0.5,0,0.9-0.2,1.3-0.6V48h0.9V46.1z M180,46.1c0-0.7,0.6-1.2,1.2-1.2s1.2,0.6,1.2,1.2
		c0,0.7-0.5,1.2-1.2,1.2C180.6,47.3,180.1,46.8,180,46.1L180,46.1 M183.3,46.1v-3.5h-0.9v2c-0.3-0.4-0.8-0.6-1.3-0.6
		c-1.1,0-2,0.9-2,2s0.9,2,2,2c0.5,0,0.9-0.2,1.3-0.6v0.5h0.9V46.1z M161.5,44.8c0.5,0,1,0.4,1,0.9h-2.1
		C160.5,45.1,161,44.7,161.5,44.8 M161.5,44c-1,0-1.9,0.8-2,1.8c0,0.1,0,0.1,0,0.2c0,1.1,0.8,2,1.8,2c0.1,0,0.1,0,0.2,0
		c0.6,0,1.2-0.2,1.6-0.5l-0.4-0.6c-0.3,0.2-0.7,0.4-1.2,0.4c-0.6,0.1-1.1-0.3-1.2-0.9h3c0-0.1,0-0.2,0-0.3c0.1-1-0.7-1.9-1.7-2
		C161.6,44.1,161.6,44.1,161.5,44 M172,46.1c0-0.7,0.5-1.2,1.2-1.2s1.2,0.5,1.2,1.2s-0.5,1.2-1.2,1.2l0,0
		C172.6,47.3,172,46.8,172,46.1L172,46.1 M175.2,46.1v-1.9h-0.9v0.5c-0.3-0.4-0.8-0.6-1.3-0.6c-1.1,0-2,0.9-2,2s0.9,2,2,2
		c0.5,0,1-0.2,1.3-0.6V48h0.9V46.1z M167.1,46.1c0,1.1,0.8,2,1.9,2c0.1,0,0.1,0,0.2,0c0.5,0,1-0.1,1.4-0.5l-0.4-0.7
		c-0.3,0.2-0.7,0.3-1.1,0.3c-0.7-0.1-1.2-0.7-1.1-1.3c0.1-0.6,0.5-1,1.1-1.1c0.4,0,0.8,0.1,1.1,0.3l0.4-0.7
		c-0.4-0.3-0.9-0.5-1.4-0.5c-1.1-0.1-2,0.7-2.1,1.8C167.1,45.9,167.1,46,167.1,46.1 M178.3,44.1c-0.4,0-0.8,0.2-1.1,0.6v-0.5h-0.8
		V48h0.9v-2.1c0-0.6,0.3-1,0.8-1c0.2,0,0.4,0,0.5,0.1l0.3-0.8C178.7,44,178.5,44,178.3,44.1 M155.1,44.4c-0.5-0.3-1.1-0.4-1.6-0.4
		c-1,0-1.7,0.5-1.7,1.2s0.5,1,1.4,1.1l0.4,0.1c0.5,0.1,0.7,0.2,0.7,0.4s-0.3,0.5-0.9,0.5c-0.5,0-0.9-0.1-1.3-0.4l-0.4,0.6
		c0.5,0.3,1.1,0.5,1.7,0.5c1.1,0,1.8-0.5,1.8-1.2s-0.5-1.1-1.4-1.1l-0.4-0.1c-0.4,0-0.7-0.1-0.7-0.4s0.3-0.5,0.8-0.5
		c0.4,0,0.9,0.1,1.2,0.3L155.1,44.4z M166.3,44c-0.4,0-0.8,0.2-1.1,0.6v-0.4h-0.9V48h0.9v-2.1c0-0.6,0.3-1,0.9-1
		c0.2,0,0.4,0,0.5,0.1l0.3-0.8C166.7,44,166.5,44,166.3,44 M158.9,44.1h-1.4V43h-0.9v1.1h-0.8v0.8h0.8v1.7c0,0.9,0.4,1.4,1.4,1.4
		c0.4,0,0.7-0.1,1.1-0.3l-0.2-0.7c-0.2,0.1-0.5,0.2-0.8,0.2c-0.4,0-0.6-0.3-0.6-0.6v-1.7h1.4V44.1z M145.9,47.9v-2.4
		c0-0.8-0.6-1.5-1.4-1.5c-0.1,0-0.1,0-0.2,0c-0.6,0-1.1,0.2-1.4,0.7c-0.3-0.4-0.8-0.7-1.3-0.7s-0.9,0.2-1.2,0.6V44h-0.8v3.8h0.9
		v-2.1c-0.1-0.5,0.3-1,0.8-1c0.1,0,0.1,0,0.2,0c0.6,0,0.9,0.4,0.9,1v2.1h0.8v-2.1c-0.1-0.5,0.3-1,0.8-1c0.1,0,0.1,0,0.2,0
		c0.6,0,0.9,0.4,0.9,1v2.1C145.1,47.8,145.9,47.8,145.9,47.9z"/>
	<path class="st0" d="M185.2,35.3v-0.6H185l-0.2,0.4l-0.2-0.4h-0.2v0.6h0.1v-0.4l0.2,0.4h0.1l0.2-0.4v0.4H185.2z M184.2,35.3v-0.5
		h0.2v-0.1h-0.5v0.1h0.2L184.2,35.3L184.2,35.3z"/>
	<g class="st1">
		<path class="st0" d="M155.6,26.4c0-4.4,2.2-8.6,5.7-11.2c-2.7-2-5.9-3.1-9.3-3.1c-8.3,0-15,6.4-15,14.3s6.7,14.3,15,14.3
			c3.3,0,6.6-1,9.3-3C157.8,35,155.7,30.9,155.6,26.4"/>
	</g>
	<g class="st1">
		<path class="st0" d="M185.6,26.4c0,7.9-6.7,14.3-15,14.3c-3.3,0-6.6-1.1-9.2-3.1c6.2-4.5,7.6-13.2,3.2-19.4
			c-0.9-1.2-1.9-2.3-3.2-3.2c2.7-2,5.9-3.1,9.3-3.1C179,12.1,185.7,18.5,185.6,26.4"/>
	</g>
	<path class="st0" d="M161.4,37.7c-6.2-4.5-7.6-13.3-3-19.5c0.9-1.2,1.9-2.2,3-3c6.2,4.5,7.6,13.3,3,19.5
		C163.6,35.8,162.6,36.8,161.4,37.7z"/>
</g>
<g id="g4158">
	<polygon id="polygon9" class="st0" points="59.6,44.9 51.9,44.9 56.7,15.1 64.4,15.1 	"/>
	<path id="path11" class="st0" d="M87.5,15.9c-2.2-0.8-4.5-1.3-6.9-1.3c-7.6,0-13,4.1-13,9.9c-0.1,4.3,3.8,6.7,6.8,8.1
		c2.9,1.4,4,2.4,4,3.7c0,2-2.4,2.9-4.6,2.9c-2.5,0.1-5-0.5-7.2-1.6l-1-0.5l-1.1,6.7c2.7,1.1,5.6,1.6,8.6,1.6c8.1,0,13.4-4,13.4-10.2
		c0-3.4-2-6-6.4-8.1c-2.7-1.4-4.3-2.3-4.3-3.7c0-1.4,1.4-2.6,4.4-2.6c2,0,3.9,0.4,5.7,1.2l0.7,0.3L87.5,15.9L87.5,15.9z"/>
	<path id="path13" class="st0" d="M97.7,34.4c0.6-1.7,3.1-8.3,3.1-8.3s0.6-1.7,1-2.8l0.5,2.6c0,0,1.5,7.1,1.8,8.6L97.7,34.4z
		 M107.3,15.1h-6c-1.8-0.2-3.4,0.8-4,2.5L85.9,44.9H94c0,0,1.3-3.7,1.6-4.5h9.9l0.9,4.5h7.1L107.3,15.1L107.3,15.1z"/>
	<path id="path15" class="st0" d="M45.4,15.1l-7.5,20.3l-0.8-4.1c-1.4-4.8-5.8-9.9-10.7-12.5l6.9,26.1h8.1l12.2-29.8
		C53.6,15.1,45.4,15.1,45.4,15.1z"/>
	<path id="path17" class="st0" d="M30.9,15.1H18.5l-0.1,0.6c9.7,2.5,16.1,8.4,18.7,15.6l-2.7-13.7C33.9,15.7,32.5,15.2,30.9,15.1z"
		/>
</g>
<g>
	<path class="st2" d="M758.8,34.8c-1.6,6.5-8.1,10.4-14.6,8.8s-10.4-8.1-8.8-14.5s8.1-10.4,14.6-8.8S760.4,28.4,758.8,34.8
		L758.8,34.8z"/>
	<path class="st0" d="M752.4,30.2c0.2-1.6-1-2.5-2.7-3l0.5-2.2l-1.3-0.3l-0.5,2.1c-0.3-0.1-0.7-0.2-1.1-0.2l0.5-2.1l-1.3-0.3
		l-0.5,2.2l-0.9-0.2l0,0l-1.7-0.5L743,27c0,0,1,0.2,0.9,0.2c0.4,0.1,0.6,0.4,0.6,0.8l-0.6,2.5l0.2,0.1H744l-0.9,3.4
		c-0.1,0.2-0.3,0.4-0.6,0.3l0,0l-0.9-0.2l-0.6,1.5l1.7,0.4l0.9,0.2l-0.5,2.2l1.3,0.3l0.5-2.2l1,0.2l-0.5,2.1l1.3,0.3l0.5-2.2
		c2.3,0.4,3.9,0.2,4.7-1.8c0.6-1.2,0.2-2.5-1-3.1c-0.1-0.1-0.2-0.1-0.2-0.1C751.7,32,752.3,31.2,752.4,30.2L752.4,30.2z M749.4,34.5
		c-0.4,1.6-3.2,0.8-4.1,0.5l0.7-2.9C746.9,32.3,749.8,32.7,749.4,34.5L749.4,34.5z M749.8,30.2c-0.4,1.5-2.7,0.7-3.4,0.5L747,28
		C747.8,28.3,750.2,28.7,749.8,30.2L749.8,30.2z"/>
	<path class="st0" d="M770.4,27.2c0.9,0,1.7,0.2,2.5,0.5c0.7,0.3,1.3,0.8,1.8,1.4s0.9,1.3,1,2.1c0.2,0.9,0.3,1.6,0.3,2.5
		c0,1.3-0.2,2.7-0.8,4c-0.5,1.3-1.3,2.3-2.1,3.3c-0.9,0.9-2,1.6-3.2,2.2c-1.3,0.5-2.6,0.9-4,0.9H765c-0.5,0-1-0.1-1.6-0.2
		c-0.6-0.1-1.3-0.2-1.9-0.4c-0.6-0.2-1.3-0.4-1.9-0.7l5.2-22.1l4.7-0.7l-1.9,7.8c0.4-0.2,0.8-0.3,1.3-0.4
		C769.5,27.3,769.9,27.2,770.4,27.2L770.4,27.2z M766.4,40.2c0.7,0,1.4-0.2,2-0.5s1.2-0.8,1.6-1.4c0.5-0.6,0.9-1.3,1.1-2
		c0.2-0.7,0.4-1.5,0.4-2.3c0.1-0.8-0.2-1.6-0.5-2.3c-0.4-0.6-1.1-0.9-1.8-0.9c-0.4,0-0.8,0.1-1.1,0.2c-0.5,0.1-0.9,0.3-1.3,0.6
		l-2,8.4l0.3,0.1h0.3c0.2,0,0.2,0,0.4,0L766.4,40.2z"/>
	<path class="st0" d="M781,43.5h-4.5l3.8-16h4.5L781,43.5z M783.1,25.5c-0.6,0-1.2-0.2-1.6-0.5c-0.5-0.4-0.8-1-0.8-1.7
		c0-0.4,0.1-0.9,0.2-1.2c0.2-0.4,0.4-0.7,0.7-0.9c0.3-0.3,0.6-0.5,1-0.6s0.8-0.2,1.2-0.2c0.6,0,1.2,0.2,1.6,0.5
		c0.5,0.4,0.8,1,0.8,1.7c0,0.4-0.1,0.9-0.2,1.2c-0.2,0.4-0.4,0.7-0.7,0.9c-0.3,0.3-0.6,0.5-1,0.6S783.5,25.6,783.1,25.5z"/>
	<path class="st0" d="M788.7,23.5l4.7-0.7l-1.2,4.7h5l-0.9,3.8h-5l-1.3,5.6c-0.2,0.4-0.2,0.9-0.2,1.3c0,0.4,0,0.7,0.2,1
		s0.4,0.5,0.6,0.7c0.4,0.2,0.9,0.3,1.3,0.2c0.5,0,0.9-0.1,1.4-0.2s0.9-0.2,1.4-0.4l0.3,3.4c-0.6,0.2-1.3,0.4-2,0.5
		c-0.9,0.2-1.6,0.2-2.5,0.2c-1.1,0.1-2.2-0.2-3.2-0.6c-0.7-0.4-1.3-0.9-1.6-1.6c-0.3-0.8-0.5-1.6-0.4-2.5c0.1-1,0.2-2,0.4-3
		L788.7,23.5L788.7,23.5z"/>
	<path class="st0" d="M797.1,37.2c0-1.3,0.2-2.7,0.7-3.9c0.4-1.2,1.1-2.3,2-3.2c0.9-0.9,1.9-1.6,3-2.2c1.3-0.5,2.6-0.8,4-0.8
		c0.9,0,1.6,0.1,2.4,0.2c0.7,0.2,1.3,0.4,2,0.7l-1.6,3.5c-0.4-0.2-0.9-0.3-1.3-0.5c-0.5-0.2-1.1-0.2-1.6-0.2
		c-1.3-0.1-2.7,0.5-3.6,1.6c-0.9,1.2-1.4,2.7-1.3,4.2c-0.1,0.9,0.2,1.8,0.7,2.5c0.6,0.7,1.6,1.1,2.5,0.9c0.5,0,1.1-0.1,1.6-0.2
		c0.5-0.1,1-0.2,1.5-0.5l0.3,3.6c-0.6,0.2-1.3,0.5-1.9,0.6c-0.8,0.2-1.6,0.3-2.5,0.2c-1.1,0-2.2-0.2-3.2-0.5
		c-0.8-0.3-1.6-0.9-2.2-1.5c-0.5-0.6-1-1.4-1.3-2.2C797.3,38.9,797.1,38,797.1,37.2L797.1,37.2z"/>
	<path class="st0" d="M817.2,44c-0.9,0-1.9-0.2-2.8-0.5c-0.8-0.3-1.4-0.8-2-1.4c-0.5-0.6-0.9-1.3-1.2-2.1c-0.3-0.9-0.4-1.8-0.4-2.7
		c0-1.3,0.2-2.5,0.6-3.7c0.4-1.2,0.9-2.3,1.7-3.3s1.7-1.8,2.8-2.4c1.2-0.6,2.5-0.9,3.8-0.9c0.9,0,1.9,0.2,2.8,0.5
		c0.8,0.3,1.4,0.8,2,1.3c0.5,0.6,0.9,1.3,1.2,2.1c0.3,0.9,0.4,1.8,0.4,2.7c0,1.3-0.2,2.5-0.5,3.7c-0.4,1.2-0.9,2.3-1.6,3.3
		c-0.8,0.9-1.7,1.8-2.8,2.3C819.9,43.7,818.6,44,817.2,44z M819.4,30.9c-0.6,0-1.3,0.2-1.8,0.5c-0.5,0.4-0.9,0.9-1.3,1.5
		c-0.4,0.6-0.6,1.3-0.8,2c-0.2,0.6-0.2,1.3-0.2,2c-0.1,0.8,0.2,1.6,0.5,2.3c0.4,0.6,1.1,0.9,1.8,0.9c0.6,0,1.3-0.2,1.8-0.5
		c0.5-0.4,0.9-0.9,1.3-1.5c0.3-0.6,0.6-1.3,0.8-2c0.2-0.6,0.2-1.3,0.2-2c0.1-0.8-0.2-1.6-0.5-2.3C820.8,31.2,820.1,30.9,819.4,30.9z
		"/>
	<path class="st0" d="M831.1,43.5h-4.5l3.8-16h4.5L831.1,43.5z M833.3,25.5c-0.6,0-1.2-0.2-1.6-0.5c-0.5-0.4-0.8-1-0.8-1.7
		c0-0.4,0.1-0.9,0.2-1.2c0.2-0.4,0.4-0.7,0.7-0.9c0.3-0.3,0.6-0.5,1-0.6s0.8-0.2,1.2-0.2c0.6,0,1.2,0.2,1.6,0.5
		c0.5,0.4,0.8,1.1,0.8,1.7c0,0.4-0.1,0.9-0.2,1.2c-0.2,0.4-0.4,0.7-0.7,0.9c-0.3,0.3-0.6,0.5-1,0.6
		C834.1,25.5,833.7,25.6,833.3,25.5z"/>
	<path class="st0" d="M838.2,28.3l1.2-0.4c0.5-0.2,0.9-0.2,1.4-0.4c0.5-0.2,1.2-0.2,1.7-0.3c0.7-0.1,1.5-0.1,2.2-0.1
		c2.3,0,4,0.7,4.9,2.1s1.1,3.3,0.5,5.6l-2.1,8.7h-4.5l2-8.4c0.2-0.5,0.2-1,0.3-1.6c0.1-0.5,0.1-0.9,0-1.3c-0.1-0.4-0.3-0.7-0.5-0.9
		c-0.4-0.2-0.9-0.4-1.3-0.3c-0.6,0-1.2,0.1-1.8,0.2l-3,12.4h-4.5L838.2,28.3z"/>
</g>
<g>
	<path class="st0" d="M1001.4,31c0,8.2-6.4,14.6-14.5,14.6c-7.5,0-14.5-5.8-14.5-14.6c-0.1-7.9,6.6-14.5,14.5-14.5
		C994.8,16.3,1001.4,22.9,1001.4,31z M987,38.9c1.6,0,3.1,0,4.7,0c2,0,1.9,0,2.4-2c0.2-0.9-0.1-1.3-1-1.3c-1.3,0-2.6,0-3.9,0
		c-3,0-2.9,0-2.2-2.9c0.2-0.9,0.5-1.4,1.4-1.6s1.2-0.8,1.4-1.6s0-1.1-0.8-0.7c-0.9,0.4-1,0-0.8-0.8c0.4-1.3,0.7-2.7,1.1-4.1
		c0.2-0.8,0-1.2-0.9-1.2s-1.9,0-2.7,0c-0.9-0.1-1.3,0.3-1.4,1.2c-0.5,2.1-1.1,4.2-1.6,6.3c-0.2,0.7-0.5,1.2-1.2,1.3
		c-0.9,0.2-1.2,0.9-1.3,1.6c-0.2,0.6-0.2,1,0.6,0.7s0.9,0.2,0.7,0.8c-0.2,0.9-0.5,2-0.8,2.9c-0.2,0.9,0,1.2,0.9,1.2
		C983.4,38.9,985.2,38.9,987,38.9z"/>
	<path class="st0" d="M1030.4,35.7c-1.5,0-3,0-4.5,0c-1.1,0-1.2,0.2-0.7,1.3c1.4,3,5.6,3.5,7.8,1.1c0.2-0.2,0.5-0.7,0.9-0.6
		c0.5,0.1,1.3-0.1,1.6,0.5c0.2,0.5-0.2,0.9-0.5,1.3c-2.5,3-6.8,3.4-9.9,1.1c-2.8-2.1-3.4-6.9-1.3-10c2-2.9,6.3-3.8,9.5-1.8
		c2.3,1.4,3,3.7,3,6.2c0,0.8-0.5,0.9-1.2,0.9C1033.5,35.7,1032,35.7,1030.4,35.7L1030.4,35.7z M1029.4,33.6c1.2,0,2.3,0,3.4,0
		c0.9,0.1,1.2-0.3,0.9-1.2c-0.6-1.6-2.3-2.7-4.3-2.7s-3.8,1.3-4.3,2.9c-0.2,0.8,0,1,0.7,0.9C1027,33.5,1028.1,33.5,1029.4,33.6z"/>
	<path class="st0" d="M1057.6,41.7c-4.2,0-7.1-3-7-7.2c0-4.1,3-7.1,7.3-7c4.1,0,7,3,7,7.3C1064.8,38.9,1061.9,41.8,1057.6,41.7z
		 M1057.6,39.6c2.9,0,5-2.1,5.1-5c0-2.8-2.1-4.8-5-4.8c-2.8,0-4.9,2-5,4.8C1052.6,37.3,1054.8,39.6,1057.6,39.6z"/>
	<path class="st0" d="M1072.6,34.6c0-1.8,0-3.7,0-5.5c0-0.5-0.1-1.2,0.7-1.2c0.6,0,1.3-0.2,1.6,0.7c0.2,0.9,0.6,0.2,0.9,0
		c1.9-1.3,3.8-1.5,5.9-0.5s2.7,2.9,2.9,5c0.2,2.4,0,4.9,0.1,7.3c0,0.9-0.4,1.1-1.2,1.1s-1.1-0.3-1.1-1.1c0-2.3,0-4.5,0-6.8
		c0-2.6-1.1-3.9-3.2-3.9c-2.4,0-4.1,1.6-4.1,3.9c-0.1,2.1,0,4.3,0,6.4c0,0.9-0.2,1.4-1.2,1.4c-1.1,0-1.1-0.6-1.1-1.4
		C1072.6,38.2,1072.6,36.4,1072.6,34.6z"/>
	<path class="st0" d="M1045,41.7c-3.4,0-5.9-1.7-7-4.7c-0.9-3,0-6.3,2.2-8c2.7-2,6.2-2,8.8-0.3c0.5,0.3,0.9,0.6,0.5,1.3
		c-0.4,0.5-0.8,1.1-1.6,0.6c-0.9-0.6-2-0.9-3-0.9c-2,0.1-3.7,0.9-4.5,2.8c-0.9,2-0.5,3.8,0.9,5.5c1.3,1.4,3.5,2,5.4,1.3
		c0.4-0.2,0.7-0.3,1-0.5c0.9-0.6,1.5,0,1.9,0.6c0.5,0.9-0.3,1-0.8,1.3C1047.5,41.4,1046.2,41.8,1045,41.7z"/>
	<path class="st0" d="M1016.8,35.4c0-1.5,0-3,0-4.5c0-0.9-0.2-1.3-1.2-1.3c-0.7,0.1-1.2-0.1-1.2-0.9c0-0.9,0.5-1.2,1.3-1.1
		c0.9,0.1,1.2-0.5,1.2-1.3c0-0.9,0-1.7,0-2.7c0-0.9,0.4-1.2,1.2-1.2s1.1,0.3,1.1,1.1c0,0.9,0.1,1.8,0,2.7c-0.1,1,0.4,1.4,1.3,1.3
		c0.5,0,1.2-0.2,1.4,0.6c0.3,0.9-0.1,1.4-1.1,1.5c-1.6,0.1-1.6,0.1-1.6,1.8c0,2.8,0,5.6,0,8.4c0,0.8,0.2,1.6-1.2,1.6
		c-1.3,0-1.1-0.9-1.1-1.6C1016.8,38.4,1016.8,36.9,1016.8,35.4z"/>
	<path class="st0" d="M1005.2,30.8c0-3,0-6.1,0-9.1c0-0.8,0.1-1.3,1.1-1.3s1.1,0.6,1.1,1.4c0,6.2,0,12.3,0,18.5
		c0,0.8-0.1,1.3-1.1,1.3s-1.1-0.6-1.1-1.3C1005.2,37,1005.2,33.9,1005.2,30.8z"/>
	<path class="st0" d="M1012.9,34.6c0,1.9,0,3.8,0,5.6c0,0.8-0.2,1.2-1.1,1.3c-0.9,0-1.3-0.4-1.2-1.3c0-3.8,0-7.5,0-11.3
		c0-0.8,0.2-1.2,1.1-1.3c0.9,0,1.3,0.4,1.2,1.3C1012.8,30.9,1012.9,32.8,1012.9,34.6z"/>
	<path class="st0" d="M1069.4,34.6c0,1.9,0,3.8,0,5.6c0,0.8-0.2,1.3-1.1,1.3s-1.1-0.5-1.1-1.3c0-3.8,0-7.5,0-11.3
		c0-0.8,0.2-1.3,1.1-1.3s1.1,0.5,1.1,1.3C1069.4,30.9,1069.4,32.8,1069.4,34.6z"/>
	<path class="st0" d="M1070,22.8c0,0.9-0.6,1.5-1.6,1.5c-0.9,0-1.6-0.5-1.6-1.4s0.5-1.6,1.5-1.6C1069.2,21.2,1069.9,21.9,1070,22.8z
		"/>
	<path class="st0" d="M1011.7,21.3c0.8,0,1.6,0.7,1.6,1.5c0,0.9-0.7,1.5-1.6,1.5s-1.6-0.6-1.6-1.5
		C1010.2,22,1010.9,21.3,1011.7,21.3z"/>
</g>
<g>
	<path class="st3" d="M893,34.1c0,0.2-0.2,0.3-0.3,0.3H887c0.2,1.4,1.2,2.7,2.7,2.7c1,0,1.7-0.4,2.3-1.2c0.1-0.1,0.2-0.2,0.4-0.1
		c0.1,0,0.2,0.1,0.2,0.2c0,0.1,0,0.2,0,0.2c-0.5,1-1.7,1.5-2.8,1.5c-1.9,0-3.2-1.7-3.2-3.5s1.3-3.5,3.2-3.5
		C891.7,30.6,893,32.3,893,34.1 M892.4,33.8c-0.2-1.4-1.2-2.7-2.7-2.7s-2.5,1.3-2.7,2.7H892.4z M899.8,30.7c0.2,0,0.3,0.2,0.3,0.3
		s-0.2,0.3-0.3,0.3h-1.5v5.9c0,0.2-0.2,0.3-0.3,0.3s-0.3-0.2-0.3-0.3v-5.9h-1.4c-0.2,0-0.3-0.2-0.3-0.3c0-0.2,0.2-0.3,0.3-0.3h1.4
		v-2.2c0-0.2,0.1-0.2,0.2-0.3c0.2,0,0.3,0.1,0.3,0.3v2.2L899.8,30.7L899.8,30.7z M909,33.6v3.6c0,0.2-0.2,0.3-0.3,0.3
		s-0.3-0.2-0.3-0.3v-3.6c0-1.2-0.7-2.4-2-2.4c-1.7,0-2.5,1.5-2.3,3c0,0.1,0,0.2,0,0.2v2.7c0,0.2-0.1,0.2-0.2,0.3
		c-0.2,0-0.3-0.1-0.3-0.3V25.4c0-0.2,0.2-0.3,0.3-0.3s0.3,0.2,0.3,0.3V32c0.5-0.9,1.3-1.4,2.3-1.4C908.1,30.6,909,32,909,33.6
		 M919.1,34.1c0,0.2-0.2,0.3-0.3,0.3h-5.6c0.2,1.4,1.2,2.7,2.7,2.7c1,0,1.7-0.4,2.3-1.2c0.1-0.1,0.2-0.2,0.4-0.1
		c0.1,0,0.2,0.1,0.2,0.2c0,0.1,0,0.2,0,0.2c-0.5,1-1.7,1.5-2.8,1.5c-1.9,0-3.2-1.7-3.2-3.5s1.3-3.5,3.2-3.5
		C917.7,30.6,919,32.3,919.1,34.1 M918.5,33.8c-0.2-1.4-1.2-2.7-2.7-2.7s-2.5,1.3-2.7,2.7H918.5z M926,31c0,0.2-0.1,0.3-0.2,0.3
		c-1.6,0.2-2.4,1.6-2.4,3.1v2.7c0,0.2-0.1,0.2-0.2,0.3c-0.2,0-0.3-0.1-0.3-0.3V31c0-0.2,0.1-0.2,0.2-0.3c0.2,0,0.3,0.1,0.3,0.3v1.3
		c0.5-0.8,1.4-1.6,2.3-1.6C925.8,30.7,926,30.8,926,31 M935.2,34.1c0,0.2-0.2,0.3-0.3,0.3h-5.6c0.2,1.4,1.2,2.7,2.7,2.7
		c1,0,1.7-0.4,2.3-1.2c0.1-0.1,0.2-0.2,0.4-0.1c0.1,0,0.2,0.1,0.2,0.2c0,0.1,0,0.2,0,0.2c-0.5,1-1.7,1.5-2.8,1.5
		c-1.9,0-3.2-1.7-3.2-3.5s1.3-3.5,3.2-3.5C933.8,30.6,935.2,32.3,935.2,34.1 M934.6,33.8c-0.2-1.4-1.2-2.7-2.7-2.7s-2.5,1.3-2.7,2.7
		H934.6z M944.3,31.1v6.1c0,0.2-0.2,0.3-0.3,0.3s-0.3-0.2-0.3-0.3V36c-0.5,0.9-1.3,1.6-2.3,1.6c-1.6,0-2.6-1.4-2.6-3V31
		c0-0.2,0.2-0.3,0.3-0.3s0.3,0.2,0.3,0.3v3.6c0,1.2,0.7,2.4,2,2.4c1.9,0,2.3-1.8,2.3-3.8V31c0-0.2,0.2-0.3,0.4-0.2
		C944.2,30.8,944.3,30.9,944.3,31.1 M958.4,33.6v3.6c0,0.2-0.2,0.3-0.3,0.3c-0.2,0-0.3-0.2-0.3-0.3v-3.6c0-1.2-0.7-2.4-2-2.4
		c-1.7,0-2.3,1.8-2.3,3.2v2.7c0,0.2-0.2,0.3-0.3,0.3s-0.3-0.2-0.3-0.3v-3.6c0-1.2-0.7-2.4-2-2.4c-1.7,0-2.4,1.3-2.3,3.1
		c0,0.1,0,0.2,0,0.2v2.7c0,0.2-0.1,0.2-0.2,0.3c-0.2,0-0.3-0.1-0.3-0.3v-6.2c0-0.2,0.1-0.2,0.2-0.3c0.2,0,0.3,0.1,0.3,0.3v1
		c0.5-0.9,1.3-1.4,2.3-1.4c1.2,0,2,0.7,2.4,1.8c0.5-1,1.3-1.8,2.5-1.8C957.5,30.6,958.4,32,958.4,33.6"/>
	<g class="st1">
		<g>
			<path class="st0" d="M872.2,29.1l-9.4,4.3l9.4,5.6l9.4-5.6L872.2,29.1z"/>
		</g>
	</g>
	<g class="st4">
		<g>
			<path class="st0" d="M862.8,33.3l9.4,5.6V17.7L862.8,33.3z"/>
		</g>
	</g>
	<g class="st5">
		<g>
			<path class="st0" d="M872.2,17.7v21.1l9.4-5.6L872.2,17.7z"/>
		</g>
	</g>
	<g class="st4">
		<g>
			<path class="st0" d="M862.8,35.1l9.4,13.2v-7.7L862.8,35.1z"/>
		</g>
	</g>
	<g class="st5">
		<g>
			<path class="st0" d="M872.2,40.6v7.7l9.4-13.2L872.2,40.6z"/>
		</g>
	</g>
</g>
<g>
	<g>
		<path class="st0" d="M1131.4,31c-0.2-0.1-0.7-0.2-1.2-0.2c-1.4,0-3,1.2-3,2.6v6.8h-3.3v-12h3.1v1.3c0.7-0.9,2-1.5,3.5-1.5
			c0.5,0,0.8,0.1,1.1,0.1L1131.4,31z"/>
		<path class="st0" d="M1135.1,21.8c1.2,0,2.1,0.9,2.1,2.1s-0.9,2-2.1,2s-2.1-0.9-2.1-2.1C1133,22.6,1133.9,21.8,1135.1,21.8z
			 M1136.7,40.3h-3.3V28.2h3.3V40.3z"/>
		<path class="st0" d="M1146.3,27.9c-1.4,0-2.6,0.5-3.5,1.3v-1h-3.1v18.1h3.3v-6.9c1,0.8,2,1.1,3.3,1.1c1.8,0,3.5-0.8,4.6-2
			c0.9-1.1,1.6-2.6,1.6-4.2C1152.3,30.7,1149.6,27.9,1146.3,27.9z M1146,37.6c-2,0-3.4-1.4-3.4-3.4s1.3-3.4,3.4-3.4
			c1.7,0,3.1,1.5,3.1,3.4S1147.7,37.6,1146,37.6z"/>
		<path class="st0" d="M1172.1,40.3h-3.3V22.5h3.3V40.3z"/>
		<path class="st0" d="M1185.4,38.3c-1.2,1.4-3.1,2.2-5,2.2c-3.6,0-6.3-2.5-6.3-6.3c0-3.4,2.3-6.3,5.9-6.3c3.4,0,5.7,2.8,5.7,6.2
			c0,0.3,0,0.6-0.1,0.9h-8.4c0.2,1.7,1.6,2.9,3.3,2.9c1.4,0,2.5-0.8,3-1.4L1185.4,38.3z M1182.3,32.6c-0.1-1.1-1.1-2.1-2.4-2.1
			s-2.4,1-2.6,2.1H1182.3z"/>
		<path class="st0" d="M1161,27.9c-1.4,0-2.6,0.5-3.5,1.3v-1h-3.1v18.1h3.3v-6.9c1,0.8,2,1.1,3.3,1.1c1.8,0,3.5-0.8,4.6-2
			c0.9-1.1,1.6-2.6,1.6-4.2C1166.9,30.7,1164.3,27.9,1161,27.9z M1160.6,37.6c-2,0-3.4-1.4-3.4-3.4s1.3-3.4,3.4-3.4
			c1.7,0,3.1,1.5,3.1,3.4S1162.3,37.6,1160.6,37.6z"/>
	</g>
	<g>
		<path class="st0" d="M1117.3,35.8c-0.7-0.4-1.6-0.5-2.3-0.5c-0.7,0-1.7-0.5-1.7-1.7c0-0.9,0.8-1.7,1.7-1.7c0.8,0,1.6-0.2,2.3-0.5
			c1.3-0.8,2.2-2.2,2.2-3.8c0-1.6-0.9-3-2.2-3.8c-1.3-0.8-3-0.8-4.4,0c-1.3,0.8-2.2,2.2-2.2,3.8c0,0.9,0.3,1.6,0.7,2.3
			c0.3,0.6,0.5,1.7-0.6,2.3c-0.8,0.5-1.9,0.2-2.3-0.6c-0.5-0.7-0.9-1.3-1.7-1.7c-1.3-0.8-3-0.8-4.4,0c-1.3,0.8-2.2,2.2-2.2,3.8
			s0.9,3,2.2,3.8c1.3,0.8,3,0.8,4.4,0c0.7-0.4,1.3-1.1,1.6-1.7c0.4-0.5,1.3-1.3,2.3-0.6c0.8,0.5,1.1,1.5,0.6,2.3
			c-0.4,0.7-0.7,1.5-0.7,2.3c0,1.6,0.9,3,2.2,3.8c1.3,0.8,3,0.8,4.4,0c1.3-0.8,2.2-2.2,2.2-3.8C1119.5,38.1,1118.7,36.6,1117.3,35.8
			z"/>
	</g>
</g>
<g id="g6321" transform="translate(-9.4000001,96.810998)">
	<g id="g6323" transform="matrix(1.8215159,0,0,1.8215159,-8.5437653,-109.83667)">
		<path id="path6325" class="st6" d="M151.2,31.1c0,2.7-2.2,4.8-4.8,4.8h-26.2v-19c0-2.7,2.2-4.8,4.8-4.8h26.2V31.1L151.2,31.1z"/>
		<g id="g6327">
			<path id="path6338" class="st0" d="M142.6,26.2h2c0.1,0,0.2,0,0.2,0c0.4-0.1,0.7-0.4,0.7-0.9c0-0.5-0.3-0.8-0.7-0.9
				c-0.1,0-0.2,0-0.2,0h-2V26.2L142.6,26.2z"/>
			<path id="path6349" class="st0" d="M144.4,13.7c-1.9,0-3.5,1.5-3.5,3.5v3.6h4.9c0.1,0,0.2,0,0.3,0c1.1,0.1,1.9,0.6,1.9,1.6
				c0,0.8-0.5,1.4-1.6,1.6l0,0c1.1,0.1,2,0.7,2,1.7c0,1-0.9,1.7-2.2,1.7h-5.3v7h5.1c1.9,0,3.5-1.5,3.5-3.5V13.7H144.4L144.4,13.7z"
				/>
			<path id="path6360" class="st0" d="M145.3,22.6c0-0.5-0.3-0.8-0.7-0.8c0,0-0.1,0-0.2,0h-1.8v1.7h1.8c0.1,0,0.2,0,0.2,0
				C145,23.3,145.3,23,145.3,22.6z"/>
		</g>
		<path id="path6371" class="st0" d="M125.3,13.7c-1.9,0-3.5,1.5-3.5,3.5v8.5c1,0.5,2,0.8,3,0.8c1.2,0,1.8-0.7,1.8-1.7v-4h3v4
			c0,1.6-1,2.8-4.2,2.8c-2,0-3.5-0.4-3.5-0.4v7.3h5.1c1.9,0,3.5-1.5,3.5-3.5V13.7C130.4,13.7,125.3,13.7,125.3,13.7z"/>
		<path id="path6384" class="st0" d="M134.9,13.7c-1.9,0-3.5,1.5-3.5,3.5v4.5c0.9-0.7,2.4-1.2,4.8-1.1c1.3,0.1,2.7,0.4,2.7,0.4v1.5
			c-0.7-0.4-1.5-0.7-2.6-0.8c-1.9-0.1-3,0.8-3,2.4c0,1.6,1.1,2.5,3,2.4c1.1-0.1,1.9-0.4,2.6-0.8v1.5c0,0-1.4,0.4-2.7,0.4
			c-2.4,0.1-4-0.4-4.8-1.1v8h5.1c1.9,0,3.5-1.5,3.5-3.5V13.7C139.9,13.7,134.9,13.7,134.9,13.7z"/>
	</g>
	<g id="g6386">
	</g>
</g>
<g id="layer1" transform="translate(-55.5,-1002.3452)">
	<path class="st0" d="M372.1,1042.8h-16l-1-1.2v1.2h-3.2v-2c0,0-0.4,0.3-1.4,0.3h-1.1v1.7h-4.8l-0.9-1.1l-0.9,1.1h-7.9v-7.5h8
		l0.9,1.1l0.9-1.1h28.8l0.1-0.1v-25.9h-48v20.3l1.8-4.2h3.1l1,2.3v-2.3h3.9l0.6,1.7l0.6-1.7H354v0.9c0,0,0.9-0.9,2.4-0.9h5.6l1,2.3
		v-2.3h3.2l0.9,1.3v-1.3h3.3v7.5h-3.3l-0.9-1.3v1.3h-4.8l-0.5-1.2h-1.3l-0.5,1.2h-3.2c-1.3,0-2.1-0.8-2.1-0.8v0.8h-4.9l-1-1.2v1.2
		H330l-0.5-1.2h-1.3l-0.5,1.2h-2.1v24.4h48v-14.9C373.4,1042.5,372.7,1042.8,372.1,1042.8z"/>
	<path id="path3046" class="st0" d="M328,1026.3l-2.4,5.6h1.6l0.4-1.1h2.6l0.4,1.1h1.6l-2.4-5.6H328L328,1026.3z M328.9,1027.6
		l0.8,2h-1.6L328.9,1027.6z"/>
	<path id="path3048" class="st0" d="M332.5,1032v-5.6h2.2l1.3,3.6l1.3-3.6h2.2v5.6h-1.4v-4.2l-1.5,4.2h-1.2l-1.5-4.2v4.2H332.5z"/>
	<path id="path3050" class="st0" d="M340.5,1032v-5.6h4.6v1.3h-3.2v1h3.1v1.2h-3.1v1h3.2v1.2L340.5,1032L340.5,1032z"/>
	<path id="path3052" class="st0" d="M345.9,1026.3v5.6h1.4v-2h0.6l1.7,2h1.7l-1.9-2.1c0.8-0.1,1.5-0.7,1.5-1.7c0-1.2-0.9-1.8-2-1.8
		H345.9L345.9,1026.3z M347.3,1027.6h1.6c0.4,0,0.7,0.3,0.7,0.6c0,0.4-0.4,0.6-0.6,0.6h-1.6v-1.2H347.3z"/>
	<path id="path3054" class="st0" d="M353,1032h-1.4v-5.6h1.4V1032z"/>
	<path id="path3056" class="st0" d="M356.4,1032h-0.3c-1.5,0-2.4-1.2-2.4-2.8c0-1.7,0.9-2.8,2.8-2.8h1.6v1.3h-1.6
		c-0.8,0-1.3,0.6-1.3,1.5c0,1.1,0.6,1.6,1.5,1.6h0.4L356.4,1032z"/>
	<path id="path3058" class="st0" d="M359.5,1026.3l-2.4,5.6h1.6l0.4-1.1h2.6l0.4,1.1h1.6l-2.4-5.6H359.5L359.5,1026.3z
		 M360.4,1027.6l0.8,2h-1.6L360.4,1027.6L360.4,1027.6z"/>
	<path id="path3060" class="st0" d="M363.9,1032v-5.6h1.8l2.3,3.5v-3.5h1.4v5.6h-1.7l-2.3-3.6v3.6H363.9z"/>
	<path id="path3062" class="st0" d="M335.9,1041.8v-5.6h4.6v1.3h-3.2v1h3.1v1.2h-3.1v1h3.2v1.2L335.9,1041.8L335.9,1041.8z"/>
	<path id="path3064" class="st0" d="M358.4,1041.8v-5.6h4.6v1.3h-3.2v1h3.1v1.2h-3.1v1h3.2v1.2L358.4,1041.8L358.4,1041.8z"/>
	<path id="path3066" class="st0" d="M340.7,1041.8l2.2-2.8l-2.3-2.9h1.8l1.4,1.8l1.4-1.8h1.7l-2.3,2.8l2.2,2.8H345l-1.3-1.7
		l-1.3,1.7L340.7,1041.8L340.7,1041.8z"/>
	<path id="path3068" class="st0" d="M347,1036.2v5.6h1.4v-1.8h1.5c1.3,0,2.2-0.7,2.2-2c0-1.1-0.7-1.9-2-1.9H347V1036.2z
		 M348.4,1037.5h1.6c0.4,0,0.7,0.2,0.7,0.6s-0.3,0.6-0.7,0.6h-1.6V1037.5L348.4,1037.5z"/>
	<path id="path3072" class="st0" d="M352.7,1036.2v5.6h1.4v-2h0.6l1.7,2h1.7l-1.9-2.1c0.8-0.1,1.5-0.7,1.5-1.7c0-1.2-0.9-1.8-2-1.8
		H352.7L352.7,1036.2z M354.1,1037.4h1.6c0.4,0,0.7,0.3,0.7,0.6c0,0.4-0.4,0.6-0.6,0.6h-1.6v-1.2H354.1z"/>
	<path id="path3074" class="st0" d="M363.7,1041.8v-1.2h2.8c0.4,0,0.6-0.2,0.6-0.5c0-0.2-0.2-0.5-0.6-0.5h-1.3
		c-1.1,0-1.7-0.7-1.7-1.7c0-0.9,0.6-1.8,2.2-1.8h2.7l-0.6,1.3h-2.4c-0.5,0-0.6,0.2-0.6,0.5c0,0.2,0.2,0.5,0.5,0.5h1.3
		c1.2,0,1.8,0.7,1.8,1.6c0,1-0.6,1.8-1.8,1.8L363.7,1041.8L363.7,1041.8z"/>
	<path id="path3076" class="st0" d="M368.9,1041.8v-1.2h2.8c0.4,0,0.6-0.2,0.6-0.5c0-0.2-0.2-0.5-0.6-0.5h-1.3
		c-1.1,0-1.7-0.7-1.7-1.7c0-0.9,0.6-1.8,2.2-1.8h2.7l-0.6,1.3h-2.4c-0.5,0-0.6,0.2-0.6,0.5c0,0.2,0.2,0.5,0.5,0.5h1.3
		c1.2,0,1.8,0.7,1.8,1.6c0,1-0.6,1.8-1.8,1.8L368.9,1041.8L368.9,1041.8z"/>
</g>
<g>
	<path class="st0" d="M343.6,45.2c-7.1,0.6-13.3-6.3-13.4-12.9c0-7.3,5.9-13.3,13.2-13.5c7.4,0,13.4,5.9,13.5,13.2
		C357,39.4,350.4,45.7,343.6,45.2z M344.1,32c0-1.7,0-3.4,0-5.1c0-0.7,0.3-1,1-1c1.1,0,2,0,3.1,0c0.4,0,1.1,0.2,1.1-0.4
		s-0.7-0.4-1.1-0.4h-9.1c-0.3,0-0.6,0-0.6,0.4s0.3,0.3,0.6,0.4c1.1,0,2.2,0.1,3.3,0c0.9,0,1.2,0.3,1.2,1.2c0,3.1,0,6.1,0,9.2
		c0,1.7,0,1.7-1.6,1.9c-0.2,0-0.5,0-0.5,0.2s0.3,0.3,0.5,0.3c1.1,0,2.2,0,3.3,0c0.3,0,0.8,0.2,0.8-0.3s-0.5-0.3-0.7-0.2
		c-1,0.1-1.3-0.4-1.2-1.3C344.2,35.2,344.1,33.6,344.1,32z M349,32.6h-1.7c-0.2,0-0.5-0.1-0.6,0.2s0.2,0.4,0.3,0.5
		c1.2,0.8,2.8,0.7,4-0.1c0.1-0.1,0.2-0.3,0.2-0.4c0-0.1-0.3-0.2-0.5-0.2H349z M338.9,33.9c0.6,0,1.2-0.3,1.7-0.7
		c0.2-0.1,0.3-0.2,0.3-0.5c-0.1-0.2-0.2-0.2-0.4-0.2h-3.7c-0.2,0-0.4,0-0.4,0.2s0.1,0.3,0.2,0.4C337.3,33.7,338.1,33.9,338.9,33.9z
		 M340.7,31.5c-0.3-1.5-0.9-3-1.6-4.4c-0.2-0.5-0.5-0.1-0.6,0.2c-0.7,1.2-1.1,2.5-1.6,3.8c-0.1,0.2-0.4,0.4,0,0.6
		c0.4,0.1,0.4-0.2,0.5-0.4c0.3-0.8,0.7-1.6,1-2.5c0.1-0.3,0.1-0.6,0.5-0.7s0.5,0.4,0.6,0.7C339.6,29.8,340,30.7,340.7,31.5z
		 M350.8,31.6l0.3-0.1l-1.8-4.1c-0.1-0.2-0.1-0.4-0.3-0.4c-0.2,0-0.3,0.3-0.4,0.5c-0.4,0.8-0.8,1.6-1.1,2.4
		c-0.2,0.5-0.7,1.1-0.4,1.8c0.7-0.7,0.7-1.5,1.1-2.2c0.3-0.4,0.2-1.3,0.8-1.2c0.5,0,0.5,0.8,0.7,1.3C349.9,30.2,350.3,31,350.8,31.6
		L350.8,31.6z"/>
	<path class="st0" d="M388.3,34.8c-1.4,1.2-2.7,2.5-3.9,3.9c-0.8,1-1.4,2.1-3.1,2.2c-1.1,0.1-2.3,0.2-3.4,0.3
		c-0.4,0-0.7-0.1-1.1-0.3c-1.1-0.5-1.6-1.8-1.1-2.8c0.2-0.4,0.4-0.7,0.8-0.9c0.6-0.3,0.8-1,0.6-1.6c-0.2-0.8,0.1-1.6,0.8-2.1
		c1.3-1.3,2.9-2.1,4.7-2.3c0.7-0.2,1.4,0.1,1.7,0.7c0.3,0.6-0.1,1.1-0.5,1.6c-0.4,0.4-1.2,1.1-1.8,0.6c-1-0.6-1.4,0.1-2,0.5
		c0.1,0.3,0.3,0.2,0.4,0.2c0.5-0.2,1.1,0,1.3,0.5c0,0.1,0,0.1,0.1,0.2c0.2,0.7-0.4,1.1-0.9,1.2c-0.8,0.3-1.6,0.8-2.3,1.3
		c-0.2,0.1-0.4,0.3-0.3,0.6s0.4,0.3,0.6,0.3c1.3,0.3,2.6-0.3,3.2-1.5c1.1-1.8,2.1-3.5,3.2-5.4c0.4-0.6,1-1,1.7-1.1
		c0.5,0,0.9,0.1,0.9,0.6c0,0.6,0.4,0.4,0.6,0.2c0.5-0.4,1.1-0.7,1.8-0.8c1.4-0.2,2.1,0.7,1.6,2c-0.6,1.1-1.3,2.2-2,3.2
		c-0.4,0.6-0.7,1.2-1,1.8c-0.1,0.2-0.3,0.5,0,0.7c0.2,0.1,0.5,0.1,0.7,0c1-0.6,1.9-1.4,2.6-2.4c0.8-1.3,1.6-2.7,2.4-4.1
		c0.4-0.7,0.9-1.2,1.7-0.7c0.8,0.5,0.5,1.1,0.1,1.8c-0.8,1.6-1.6,3.1-2.5,4.7c0.4,0.1,0.6-0.2,0.7-0.4c1.8-1.6,3.3-3.4,4.6-5.5
		c0.2-0.3,0.5-0.6,0.8-0.8c0.5-0.3,1.1-0.3,1.6,0c0.5,0.4,0.2,1-0.1,1.4c-0.9,1.4-1.7,3-2.3,4.6c-0.1,0.4-0.5,1.1-0.1,1.3
		s0.8-0.3,1.1-0.6c0.3-0.3,0.5-0.5,0.7-0.7c0.5-0.5,0.9-1.1,1.5,0.1c0.4,0.6,1.1,1.1,1.8,1.4c0.8,0.2,1.5-0.3,2.3-0.5
		c0.1-0.1,0.2-0.2,0.2-0.3c0-0.2-0.1-0.3-0.3-0.3c-0.6-0.2-1.2-0.4-1.8-0.5c-0.9-0.2-1.8-0.5-2-1.5c-0.3-1,0.1-2,0.9-2.7
		c1.3-1.1,2.8-1.9,4.5-2.3c0.8-0.3,1.6-0.4,2.4-0.2c0.6,0.2,1.1,0.6,1.1,1.3c0,0.9-0.6,1.6-1.5,1.9c-0.5,0.4-1.1,0.3-1.5-0.2
		c0,0,0-0.1-0.1-0.1c-0.3-0.5-0.6-0.4-1-0.3c-0.7,0.2-1.4,0.6-2,1.1c-0.2,0.1-0.4,0.3-0.3,0.6s0.3,0.2,0.5,0.2
		c0.7,0.1,1.5,0.3,2.1,0.5c0.8,0.2,1.5,0.8,1.7,1.6c0.2,0.9-0.2,1.8-1,2.3c-1.5,1.1-3.3,1.7-5.2,1.5c-0.6-0.1-1.2-0.2-1.4-0.7
		c-0.4-1-0.7-0.5-1.2-0.1c-0.6,0.5-1.4,0.8-2.1,0.8c-0.8,0.1-1.6-0.4-1.8-1.2c-0.2-0.8-0.6-0.7-1.1-0.2c-0.4,0.4-0.9,0.8-1.4,1.1
		c-0.8,0.5-1.9,0.4-2.6-0.3c-0.4-0.4-0.7-0.3-1,0c-0.5,0.4-1,0.6-1.6,0.6c-1.2,0.2-2.4-0.6-2.6-1.9c-0.1-0.5,0-0.9,0.2-1.4
		C387.2,36.9,387.8,35.9,388.3,34.8z"/>
	<path class="st0" d="M454.7,30.7c-0.6,0-1.2,0-1.8,0c-0.8-0.1-1.1-0.7-0.6-1.3c0.4-0.7,1.2-1.2,2.1-1.1c1.3,0.3,2.6-0.4,3.1-1.6
		c0.3-0.5,0.8-0.8,1.4-0.8c1,0,1.3,0.5,0.8,1.3s-0.5,1.1,0.5,1.1c0.6,0,1.1,0.5,1.1,1.1c0,0,0,0,0,0.1c-0.1,0.7-0.7,0.8-1.3,0.9
		h-0.6c-1.2-0.1-2.4,0.6-2.9,1.7c-1,2-2.4,3.9-3.1,6c-0.1,0.3-0.4,0.6,0,0.9c0.4,0.3,0.6,0,0.9-0.2c0.6-0.5,1.3-0.9,1.9-1.4
		c0.2-0.2,0.5-0.4,0.8-0.3c0.3,0.1,0.4,0.5,0.4,0.8s0,0.6-0.2,0.8c-0.9,1.4-2.3,2.3-4,2.5c-0.7,0.1-1.5-0.2-1.9-0.8
		c-0.4-0.5-0.7-0.5-1.2-0.2c-0.4,0.4-1,0.7-1.5,0.9c-0.9,0.3-1.9,0-2.5-0.7c-0.6-0.9-0.7-2-0.2-2.9c0.4-1.1,1-2.1,1.7-3
		c-0.4,0.1-0.8,0.3-1.1,0.7c-1.5,1.4-2.8,2.9-4,4.5c-0.5,0.7-1.1,1.2-2,0.9c-0.4-0.1-0.8,0-1.1,0.2c-0.7,0.3-1.4,0.4-2.1,0.3
		c-1.1-0.1-2-1-2-2.2c0-0.3,0.1-0.5,0.2-0.7c0.5-1.1,1-2.2,1.7-3.2c0.2-0.3,0.4-0.6,0.4-1c0.1-1.4,1.1-2.6,2.5-3
		c0.4,0,0.8,0.2,1.1,0.6c0.3,0.4,0.3,0.9,0,1.3c-0.9,1.5-1.7,3-2.6,4.5c-0.2,0.4-0.9,1-0.4,1.4s1-0.3,1.4-0.6c2-1.4,3.1-3.4,4.2-5.5
		c0.3-0.7,0.9-1.3,1.6-1.5c0.6-0.2,1.3-0.4,1.4,0.6c0.1,0.5,0.4,0.3,0.7,0.1c0.5-0.4,1.1-0.7,1.8-0.8c0.6-0.2,1.2,0,1.6,0.5
		s0.4,1.2,0,1.7c-0.8,1.5-2,2.8-2.7,4.3c-0.2,0.4-0.6,0.8-0.2,1.1s0.9,0,1.2-0.3c1.1-1,2.4-1.8,3-3.3
		C452.9,33.6,453.8,32.1,454.7,30.7z"/>
	<path class="st0" d="M367.2,29.7c-0.7,0.1-1.1,0.2-1.6,0.2s-1-0.4-1.2-0.9c-0.2-0.6-0.1-1.3,0.4-1.7c0.3-0.4,0.7-0.6,1.2-0.2
		c0.3,0.2,0.6,0,0.8-0.2l2.9-2c0.2-0.2,0.5-0.4,0.7-0.5c0.8-0.4,1.7-0.4,2.4,0.2c0.6,0.7,0.2,1.4-0.3,1.9c-1.8,2.6-3.7,5.2-5.4,7.9
		c-0.5,0.9-1.1,1.7-1.5,2.6c-0.2,0.3-0.6,0.8-0.2,1.2c0.4,0.3,0.8,0,1.2-0.2c1.2-0.7,2.4-1.5,3.4-2.5c2.9-2.5,5.4-5.4,7.6-8.5
		c0.5-0.7,1.1-1.4,0.6-2.3c0-0.1,0-0.3,0.1-0.4c0.7-0.6,1.6-0.9,2.5-0.7c0.7,0.3,1,1.2,0.8,1.9c-0.4,1-0.9,1.9-1.5,2.8
		c-3,4.5-6.9,8.3-11.4,11.3c-0.9,0.6-1.8,1-2.8,1.3c-1.2,0.6-2.7,0.1-3.4-1.1c-0.4-0.7-0.3-1.6,0-2.3c0.6-1.7,1.4-3.2,2.5-4.7
		C365.7,31.7,366.4,30.8,367.2,29.7z"/>
	<path class="st0" d="M422.9,26.5c-1.5,0.4-3,1.1-4.4,1.9c-0.4,0.2-0.9,0.5,0,0.8c0.6,0.2,0.4,0.6,0,0.9c-0.5,0.5-1.2,0.8-2,0.8
		c-0.6,0.1-1.2-0.2-1.5-0.8c-0.4-0.8-0.3-1.7,0.2-2.4c1.1-1.3,2.5-2.2,4.1-2.7c2.8-1,5.8-1.3,8.8-0.8c1.1,0.2,2.1,0.7,2.9,1.4
		c1,0.7,1.4,2.1,0.8,3.2c-1,2.5-3.1,4.3-5.6,5.2c-1.6,0.7-3.2,1.1-4.8,0.3c-0.5-0.3-0.7,0.2-0.9,0.5c-1.1,1.7-2.1,3.3-3.1,5
		c-0.3,0.6-0.9,1.1-1.7,1.1c-1.3,0-1.7-0.5-1.1-1.7s1.3-2.3,2-3.4c2-3,3.8-6,6.1-8.9C422.8,26.8,422.9,26.7,422.9,26.5z M426.4,26.4
		c-0.4-0.1-0.6-0.1-0.8,0.2c-0.8,1.7-2.1,3.2-3,4.8c-0.1,0.2-0.4,0.4-0.2,0.7c0.2,0.3,0.5,0.2,0.8,0.2c2.1-0.3,3.9-1.4,5.2-3.1
		c1.1-1.3,0.5-2.5-1.2-2.8C426.9,26.4,426.6,26.4,426.4,26.4z"/>
	<path class="st0" d="M436,33.5c-0.2,1.4-0.8,2.7-1.7,3.8c-1.1,1.7-2.7,3-4.6,3.8c-1.2,0.6-2.6,0.1-3.2-1c-0.2-0.5-0.3-1-0.2-1.5
		c0.3-2.9,3.4-6.4,6.2-7.1c1.1-0.1,2.2,0.2,3.1,0.9C436.1,32.4,436,33,436,33.5z M433.4,34.1c0-0.6-0.5-0.8-1.1-0.5
		c-1.8,1-3.1,2.7-3.7,4.7c-0.1,0.2-0.1,0.4,0.1,0.5s0.4,0.1,0.6,0c1.8-1.1,3.2-2.7,4-4.6C433.4,34.2,433.4,34.2,433.4,34.1
		L433.4,34.1z"/>
	<path class="st0" d="M441.8,30.4c-0.5,0-0.9-0.3-0.9-0.8c0-0.1,0-0.1,0-0.2c0.1-1.1,0.9-2,1.9-2.1c0.5-0.1,1,0.3,1.1,0.9v0.1
		C443.8,29.3,442.9,30.2,441.8,30.4z"/>
</g>
<g>
	<path class="st0" d="M632.4,20.9c-9.8,0-17.6,4.6-17.6,10.3c0,2.4,1.4,4.7,3.8,6.4c-1.2-1.3-1.8-3-1.9-4.8
		c0-5.9,7.7-10.7,17.2-10.7c6.1,0,11.5,2,14.5,5C645.8,23.5,639.6,20.9,632.4,20.9L632.4,20.9z"/>
	<path class="st0" d="M624.5,30.1c0.5-0.4,1.2-0.6,1.9-0.6s1.3,0.2,1.9,0.6c0.5,0.4,0.8,1,0.9,1.6h-5.6
		C623.7,31.1,624,30.5,624.5,30.1z M630.8,34.2c0.6,0,1.3-0.2,1.7-0.5c0.5-0.3,0.8-0.9,0.8-1.5c0-1.2-0.4-2.3-1.2-3.3
		c-1.4-1.8-3.5-2.8-5.8-2.8c-1.9-0.1-3.8,0.7-5.2,2c-1.3,1.3-2,3-2,4.8c0,1.9,0.7,3.6,2.1,4.8c1.4,1.3,3.3,2,5.2,2
		c1.1,0,2.2-0.2,3.2-0.5c1-0.2,2-0.8,2.7-1.6c0.3-0.3,0.5-0.7,0.5-1.2c0-1-0.5-1.5-1.6-1.5c-0.6,0.2-1.3,0.3-1.9,0.6
		c-0.8,0.4-1.7,0.6-2.6,0.6c-0.8,0-1.6-0.2-2.2-0.6c-0.6-0.4-0.9-1-1-1.7L630.8,34.2z"/>
	<path class="st0" d="M635.6,38c1.3,1.3,3.2,2,5.2,2c1.1,0,2.2-0.2,3.2-0.5c1.2-0.5,1.8-1.2,1.8-2c0-0.5-0.2-0.9-0.5-1.2
		s-0.8-0.5-1.2-0.5c-0.5,0-0.9,0.2-1.3,0.3c-0.5,0.2-1.1,0.3-1.6,0.3c-0.9,0.1-1.7-0.3-2.3-0.9c-0.5-0.6-0.8-1.5-0.7-2.3
		c0-0.8,0.2-1.6,0.7-2.3c0.5-0.7,1.4-1,2.3-1c0.5,0,1.2,0.1,1.6,0.3c0.4,0.2,0.9,0.3,1.3,0.3c0.5,0,0.9-0.2,1.3-0.5
		c0.3-0.3,0.5-0.7,0.5-1.2c0-0.9-0.5-1.6-1.7-2c-0.9-0.3-2-0.5-3-0.5c-2-0.1-3.8,0.6-5.3,1.9c-1.3,1.3-2,3.1-2,4.9
		C633.7,34.9,634.4,36.6,635.6,38L635.6,38z"/>
	<path class="st0" d="M651,30.8c0.9-1.2,2.7-1.4,3.8-0.5c0.2,0.2,0.3,0.3,0.5,0.5c0.5,0.6,0.7,1.4,0.7,2.2s-0.2,1.6-0.6,2.2
		c-0.5,0.7-1.3,1.1-2.1,1c-0.9,0-1.6-0.4-2.1-1s-0.7-1.4-0.7-2.2C650.3,32.2,650.5,31.5,651,30.8L651,30.8z M647.9,38
		c3,2.7,7.5,2.7,10.4,0c1.3-1.3,2-3,2-4.8c0.1-1.9-0.6-3.6-2-4.9s-3.3-2-5.2-2c-2-0.1-3.8,0.6-5.2,2c-1.3,1.3-2,3-2,4.9
		C645.9,34.9,646.6,36.7,647.9,38L647.9,38z"/>
	<path class="st0" d="M666.2,37v-3h3c1.7,0.1,3.5-0.5,4.8-1.6c1.3-1.1,1.9-2.7,1.8-4.4c0.1-1.7-0.6-3.4-2-4.4
		c-1.5-1.1-3.2-1.6-5-1.5H665c-0.9-0.1-1.6,0.2-2.3,0.6c-0.5,0.6-0.7,1.4-0.6,2.2v12c0,1.9,0.7,2.8,2.2,2.8
		C665.5,39.8,666.2,38.9,666.2,37L666.2,37z M666.2,25.8h2c2,0,3,0.8,3,2.3c0,1.6-1,2.3-3,2.3h-1.9L666.2,25.8L666.2,25.8z"/>
	<path class="st0" d="M688,39.8c1.4,0,2.1-0.9,2.1-2.8v-7.8c0-1.9-0.7-2.8-2.1-2.8c-0.9,0-1.6,0.5-2,1.3c-0.9-0.9-2.1-1.4-3.4-1.4
		c-1.9-0.1-3.6,0.8-4.8,2.1c-2.3,2.7-2.3,6.6-0.1,9.3c1.2,1.4,2.9,2.2,4.7,2.1c1.3,0.1,2.7-0.5,3.6-1.4
		C686.4,39.3,687.2,39.8,688,39.8L688,39.8z M681.1,30.9c0.5-0.6,1.3-1,2-0.9c0.8-0.1,1.6,0.3,2,0.9c0.5,0.6,0.6,1.3,0.6,2.1
		s-0.2,1.5-0.6,2.1c-0.5,0.7-1.3,1.1-2,1.1s-1.6-0.3-2.1-1c-0.5-0.6-0.7-1.4-0.6-2.1C680.4,32.3,680.7,31.5,681.1,30.9z"/>
	<path class="st0" d="M700,27.9l-2.6,6.2l-2.4-5.8c-0.2-0.5-0.4-0.9-0.7-1.3c-0.4-0.4-0.9-0.5-1.4-0.5s-1.1,0.2-1.5,0.5
		s-0.5,0.9-0.5,1.3s0.1,0.7,0.2,1.1l4.3,9.1l-1.7,3.4c-0.2,0.4-0.3,0.9-0.4,1.3c0,0.5,0.2,1,0.5,1.3c0.4,0.3,0.9,0.5,1.5,0.5
		c0.8,0,1.4-0.5,1.9-1.6l6.5-13.9c0.2-0.4,0.3-0.9,0.3-1.3c0-1.3-0.7-1.9-2.1-1.9C701,26.5,700.5,26.9,700,27.9L700,27.9z"/>
	<path class="st0" d="M714.4,36.1h-4.2l5.6-6.6c0.5-0.5,0.8-1,0.9-1.6c0.1-0.5-0.2-0.9-0.6-0.9c-0.6-0.2-1.3-0.2-2-0.2h-6.8
		c-1.8,0-2.7,0.5-2.7,1.7s0.9,1.8,2.7,1.8h3.7l-6,6.7c-0.4,0.4-0.6,0.9-0.6,1.5c0,0.9,0.8,1.2,2.3,1.2h7.7c1.8,0,2.7-0.6,2.7-1.8
		S716.1,36.1,714.4,36.1L714.4,36.1z"/>
</g>
<g>
	<g>
		<g>
			<path class="st0" d="M508.8,40l-5.6-4.7c-0.3-0.2-0.7-0.3-1-0.1c-0.3,0.2-0.5,0.5-0.5,0.9v2.8H500c-1.3,0-2.5-0.7-3.2-1.8
				l-6.1-9.7c-1.4-2.2-3.8-3.5-6.4-3.5H479v3.8h5.3c1.3,0,2.5,0.7,3.2,1.8l6.1,9.7c1.4,2.2,3.8,3.5,6.4,3.5h1.6v2.8
				c0,0.4,0.2,0.7,0.5,0.9c0.1,0.1,0.3,0.1,0.4,0.1c0.2,0,0.4-0.1,0.6-0.2l5.6-4.7c0.2-0.2,0.3-0.4,0.3-0.7S509,40.2,508.8,40z"/>
		</g>
	</g>
	<g>
		<g>
			<path class="st0" d="M508.8,25l-5.6-4.7c-0.3-0.2-0.7-0.3-1-0.1c-0.3,0.2-0.5,0.5-0.5,0.8v2.8H500c-2.6,0-5,1.3-6.4,3.5l-0.3,0.5
				l2.2,3.5l1.3-2.1c0.7-1.1,1.9-1.8,3.2-1.8h1.6v2.8c0,0.4,0.2,0.7,0.5,0.9c0.1,0.1,0.3,0.1,0.4,0.1c0.2,0,0.4-0.1,0.6-0.2l5.6-4.7
				c0.2-0.2,0.3-0.4,0.3-0.7S509,25.2,508.8,25z"/>
		</g>
	</g>
	<g>
		<g>
			<path class="st0" d="M488.9,35l-1.3,2.1c-0.7,1.1-1.9,1.8-3.2,1.8H479v3.8h5.3c2.6,0,5-1.3,6.4-3.5l0.3-0.5L488.9,35z"/>
		</g>
	</g>
	<g>
		<path class="st0" d="M534.3,36c-0.9,0.6-1.9,1.3-2.7,1.8c0.7,1.2,1.7,2.1,3,2.7c-0.7,0.6-1.5,1.7-2,2.5c-1.7-0.9-2.9-2.3-3.8-4.1
			l0.3,2.4c-2.1,0.5-4.3,1-6.1,1.4l-0.4-1.3c-2.6,0.5-5.3,0.9-7.4,1.2l-0.6-2.7c0.9-0.1,1.9-0.2,3-0.4v-1l-2,0.6
			c-0.1-1-0.4-2.4-0.7-3.5L517,35c0.3,0.9,0.5,2,0.7,2.9v-3.5h-2.6v-2.6h2.6v-1.2h-1.8V30l0,0c-0.4-0.6-1.3-1.6-1.8-2.1
			c1.8-1.4,3.1-3.3,3.8-5h2.4c1.2,1,2.7,2.4,3.5,3.5v-2.7h9.8v9.8H530c0.1,0.7,0.3,1.3,0.5,1.9c0.7-0.5,1.3-1.1,1.8-1.6L534.3,36z
			 M521.4,28.2c-0.5-0.8-1.3-1.7-2-2.4c-0.5,0.8-1.1,1.6-1.8,2.4H521.4z M520.3,39.2l2.7-0.4l0,0.9l0.6-0.1V26.8l-1.2,1.4v2.5h-2.2
			v1.2h2.6v2.6h-2.6v3.6c0.3-0.9,0.5-2.3,0.6-3.2l2.2,0.5c-0.4,1.2-0.8,2.5-1.1,3.4l-1.7-0.5V39.2z M526.6,26.4v1h4v-1H526.6z
			 M530.6,30.9v-1h-4v1H530.6z M526.6,38.9c0.7-0.1,1.4-0.3,2.1-0.4c-0.6-1.4-1.1-3.1-1.4-5h-0.7V38.9z"/>
		<path class="st0" d="M543.7,28.7c-0.6,1.1-1.4,2.1-2.2,3.2v11h-3.1v-7.6c-0.5,0.4-0.9,0.8-1.3,1.2c-0.4-0.7-1.4-2-2.1-2.7
			c2.1-1.5,4.4-3.9,5.8-6.3L543.7,28.7z M543,24.2c-1.6,2.1-3.9,4.3-6,5.8c-0.4-0.7-1.2-1.9-1.7-2.5c1.7-1.1,3.8-3,4.7-4.5L543,24.2
			z M555.2,32.9h-2.8v6.6c0,1.6-0.3,2.4-1.3,2.9c-1,0.5-2.4,0.5-4.2,0.5c-0.1-0.9-0.5-2.2-0.9-3.1c1,0.1,2.4,0.1,2.8,0.1
			c0.4,0,0.5-0.1,0.5-0.4v-6.6h-5.8V30h11.6V32.9z M554.6,27.1h-10.2v-2.9h10.2V27.1z"/>
		<path class="st0" d="M561.9,37.7c0.8,1.3,2.2,1.8,4.3,1.9c2.6,0.1,7.4,0,10.4-0.2c-0.3,0.7-0.8,2.2-1,3.1
			c-2.7,0.1-6.8,0.2-9.5,0.1c-2.5-0.1-4.2-0.6-5.5-2.2c-0.9,0.8-1.7,1.5-2.9,2.4l-1.5-3.2c0.9-0.5,1.8-1.1,2.7-1.7v-3.9h-2.2v-2.8
			h5.1V37.7z M559.9,28.6c-0.6-1-2.1-2.4-3.3-3.3l2.3-1.8c1.2,0.9,2.7,2.2,3.4,3.1L559.9,28.6z M571.2,33.5c0.9,1.6,2.6,2.8,4.9,3.3
			c-0.7,0.6-1.5,1.8-1.9,2.6c-2.2-0.7-3.8-2-4.9-3.8c-0.9,1.4-2.4,2.8-4.9,3.8c-0.4-0.6-1.3-1.7-2-2.2c2.9-1,4.2-2.4,4.7-3.7h-4.6
			v-2.7h4.9v-1.5h-4.2v-2.7h1.8c-0.3-0.8-0.8-1.7-1.4-2.5l2.6-1.1c0.7,0.9,1.5,2.2,1.8,3.1l-1,0.4h4.1l-1-0.3
			c0.6-0.9,1.3-2.2,1.6-3.2l3.1,0.9c-0.6,1-1.3,1.9-1.8,2.6h2.2v2.7h-4.8v1.5h5.5v2.7H571.2z"/>
		<path class="st0" d="M594.1,36.9c-0.7,1-1.5,2.1-2.1,2.9h4.3v2.6h-17.8v-2.6h3.8c-0.4-0.9-1-2.1-1.6-3l1.6-0.7h-2.6v-2.6h6v-1.7
			H582V31c-0.9,0.7-1.9,1.3-2.9,1.8c-0.4-0.7-1.3-1.8-1.9-2.5c3.6-1.7,6.9-4.9,8.4-7.4h3.2c2.3,3.3,5.5,5.8,8.9,7.1
			c-0.8,0.8-1.4,1.8-2,2.8c-1-0.5-2-1.2-3-1.9v1h-3.7v1.7h6.1v2.6h-2.9L594.1,36.9z M583.4,36.2c0.7,1,1.4,2.1,1.6,3l-1.5,0.7h2.1
			v-3.6H583.4z M590.5,29.2c-1.3-1.1-2.4-2.3-3.2-3.3c-0.8,1.1-1.8,2.2-3.1,3.3H590.5z M588.9,36.2v3.6h1.6l-1.1-0.5
			c0.6-0.9,1.3-2.1,1.7-3.2H588.9z"/>
	</g>
</g>
</svg>
