<?xml version="1.0" encoding="utf-8"?>
<!-- Generator: Adobe Illustrator 25.1.0, SVG Export Plug-In . SVG Version: 6.00 Build 0)  -->
<svg version="1.1" id="Layer_1" xmlns="http://www.w3.org/2000/svg" xmlns:xlink="http://www.w3.org/1999/xlink" x="0px" y="0px"
	 viewBox="0 0 48 48" style="enable-background:new 0 0 48 48;" xml:space="preserve">
<style type="text/css">
	.st0{display:none;fill:#84D5F7;}
</style>
<path d="M24,4c1.3,0,2.7,0.1,4,0.4s2.6,0.7,3.8,1.2c1.2,0.5,2.3,1.1,3.4,1.8c2.1,1.4,4,3.3,5.4,5.4c0.7,1.1,1.3,2.2,1.8,3.4
	s0.9,2.5,1.2,3.8c0.5,2.7,0.5,5.4,0,8.1c-0.3,1.3-0.6,2.5-1.2,3.7c-0.5,1.2-1.1,2.3-1.8,3.4c-1.4,2.1-3.3,4-5.4,5.4
	c-1.1,0.7-2.2,1.3-3.4,1.8c-1.2,0.5-2.5,0.9-3.8,1.1c-2.7,0.5-5.4,0.5-8.1,0c-1.3-0.3-2.5-0.6-3.7-1.2c-1.2-0.5-2.3-1.1-3.4-1.8
	c-2.1-1.4-4-3.3-5.4-5.4c-0.7-1.1-1.3-2.2-1.8-3.4c-0.5-1.2-0.9-2.5-1.2-3.8c-0.5-2.7-0.5-5.4,0-8.1c0.3-1.3,0.7-2.5,1.2-3.7
	s1.1-2.3,1.8-3.4c1.4-2.1,3.3-4,5.4-5.4C13.9,6.6,15,6,16.2,5.5s2.5-0.9,3.8-1.2C21.3,4.2,22.7,4,24,4 M24,0.5C11,0.5,0.5,11,0.5,24
	S11,47.5,24,47.5S47.5,37,47.5,24S37,0.5,24,0.5z"/>
<path class="st0" d="M12,31.7V21H8.9v-1.6h0.2c1.4,0,3.1-0.3,3.5-2.2v-0.3h1.7v14.9L12,31.7L12,31.7z"/>
<path class="st0" d="M18.2,27.6c0-2.2,1.1-3.4,2.5-3.7l0,0c-1.4-0.4-2.2-1.8-2-3.2c0-2.3,1.5-3.7,4-3.7s4,1.4,4,3.7
	c0.2,1.4-0.7,2.8-2.1,3.2l0,0c1.5,0.3,2.5,1.5,2.5,3.7c0,2.9-1.5,4.4-4.5,4.4S18.2,30.5,18.2,27.6z M22.7,30.4
	c1.7,0,2.1-1.3,2.1-2.8s-0.4-2.8-2.1-2.8s-2.1,1.2-2.1,2.8S21.1,30.4,22.7,30.4z M22.7,23c1.5,0,1.9-1.1,1.9-2.3s-0.4-2.2-1.9-2.2
	s-1.9,1-1.9,2.2S21.2,23,22.7,23z"/>
<path d="M33.2,19.1H35v4.4h4.4v1.8H35v4.4h-1.8v-4.4h-4.4v-1.8h4.4V19.1z"/>
<g>
	<path d="M6.8,29.4l5.5-5.4c0.4-0.4,0.8-0.9,1.1-1.3s0.4-0.9,0.4-1.5c0-0.7-0.2-1.2-0.7-1.6c-0.4-0.4-1-0.6-1.6-0.6
		c-0.7,0-1.2,0.2-1.7,0.7c-0.4,0.5-0.7,1.1-0.8,1.8L6.6,21c0.1-0.6,0.2-1.1,0.5-1.6s0.6-0.9,1-1.3c0.4-0.4,0.9-0.7,1.5-0.9
		c0.6-0.2,1.2-0.3,1.8-0.3s1.2,0.1,1.8,0.3c0.6,0.2,1.1,0.4,1.5,0.8s0.8,0.8,1.1,1.3c0.3,0.5,0.4,1.1,0.4,1.8c0,0.5-0.1,0.9-0.2,1.3
		s-0.3,0.8-0.5,1.1c-0.2,0.4-0.5,0.7-0.7,1s-0.6,0.6-0.9,0.9l-4.1,4h6.5v2.2H6.8V29.4z"/>
	<path d="M27.8,24.5c0,1.2-0.1,2.2-0.3,3.1c-0.2,0.9-0.5,1.7-1,2.4c-0.4,0.6-1,1.2-1.6,1.5c-0.6,0.4-1.3,0.5-2.2,0.5
		c-0.8,0-1.5-0.2-2.2-0.5c-0.6-0.4-1.2-0.9-1.6-1.5s-0.8-1.4-1-2.4c-0.2-0.9-0.3-2-0.3-3.1s0.1-2.2,0.3-3.1c0.2-0.9,0.6-1.7,1-2.4
		c0.4-0.6,1-1.1,1.6-1.5s1.4-0.5,2.2-0.5c0.8,0,1.5,0.2,2.2,0.5c0.6,0.4,1.2,0.9,1.6,1.5s0.8,1.4,1,2.4
		C27.7,22.3,27.8,23.3,27.8,24.5z M25.3,24.5c0-0.5,0-1.1-0.1-1.7S25,21.6,24.8,21c-0.2-0.6-0.4-1-0.8-1.4c-0.3-0.4-0.8-0.6-1.3-0.6
		c-0.6,0-1,0.2-1.3,0.6s-0.6,0.9-0.8,1.4c-0.2,0.6-0.3,1.2-0.4,1.8c-0.1,0.6-0.1,1.2-0.1,1.7s0,1.1,0.1,1.7s0.2,1.2,0.4,1.8
		c0.2,0.6,0.4,1,0.8,1.4c0.3,0.4,0.8,0.6,1.3,0.6s1-0.2,1.3-0.6s0.6-0.9,0.8-1.4c0.2-0.6,0.3-1.1,0.4-1.8
		C25.3,25.5,25.3,25,25.3,24.5z"/>
</g>
</svg>
