<?xml version="1.0" encoding="utf-8"?>
<!-- Generator: Adobe Illustrator 25.1.0, SVG Export Plug-In . SVG Version: 6.00 Build 0)  -->
<svg version="1.1" id="Layer_1" xmlns="http://www.w3.org/2000/svg" xmlns:xlink="http://www.w3.org/1999/xlink" x="0px" y="0px"
	 viewBox="0 0 97.4 47.5" style="enable-background:new 0 0 97.4 47.5;" xml:space="preserve">
<g>
	<path d="M30,46.6c-0.1-0.1-0.2-0.1-0.3-0.1c-2-0.4-3.5-2-3.8-4.1c0-0.2,0-0.3,0-0.5c0-1.9,0-3.9,0-5.8c0-0.3,0-0.4,0.4-0.4
		c1.9,0,3.7,0,5.6,0c3.7,0,7.4,0,11.1,0c9.4-0.1,18.8,0,28.2,0h0.1c0.3,0,0.3,0,0.3,0.3c0,0.9,0,1.8,0,2.8s0,2.1,0,3.1
		c0,2.8-2.1,4.2-3.7,4.6c-0.2,0-0.3,0.1-0.5,0.1C54.9,46.6,42.5,46.6,30,46.6z M65.6,37.7C65.6,37.6,65.6,37.7,65.6,37.7
		c0.2,0.4,0.3,0.9,0.5,1.3c0,0.1,0,0.1,0.1,0.2c0.1,0.1,0.2,0.1,0.3,0.1c0.1,0,0.1-0.2,0.1-0.3c0-0.3,0-0.7,0-1s0-0.6,0-0.8
		S66.5,37,66.4,37s-0.2,0.1-0.2,0.2c0,0.3,0,0.6,0,0.8c0,0.1,0,0.3,0,0.4c-0.1,0-0.1,0-0.1-0.1c-0.1-0.4-0.3-0.7-0.4-1.1
		c0-0.1,0-0.1-0.1-0.2c-0.1-0.1-0.2-0.1-0.4-0.1c-0.1,0-0.1,0.2-0.1,0.2c0,0.6,0,1.2,0,1.8c0,0.2,0.1,0.2,0.2,0.2
		c0.2,0,0.2-0.1,0.2-0.2C65.6,38.5,65.6,38.1,65.6,37.7z M54.5,41.3c0,0.2,0,0.4,0,0.7s0.2,0.5,0.5,0.5c0.4,0,0.6-0.1,0.7-0.4
		c0.1-0.2,0-0.4,0-0.5c0-0.5-0.2-0.6-0.7-0.5c-0.1,0-0.1,0-0.1-0.1s0-0.3,0.1-0.4c0.1-0.1,0.2,0,0.3,0.1c0,0,0,0,0.1,0
		s0.2,0.1,0.3,0s0-0.2,0-0.2c-0.1-0.2-0.3-0.3-0.6-0.2s-0.4,0.2-0.5,0.5C54.5,40.9,54.5,41.1,54.5,41.3z M59,40.2
		c-0.2,0-0.3,0-0.4,0.2c-0.1,0.6-0.3,1.3-0.5,1.9c0,0.1,0,0.1,0,0.1c0.1,0.1,0.3,0,0.4-0.1c0-0.1,0-0.1,0.1-0.2
		c0-0.1,0.1-0.2,0.2-0.2c0.3,0,0.4,0,0.4,0.3v0.1c0,0.1,0.2,0.2,0.3,0.1c0.1,0,0.1-0.2,0.1-0.2c-0.1-0.6-0.3-1.2-0.4-1.7
		C59.2,40.3,59.2,40.2,59,40.2z M64,38.4L64,38.4c0-0.2,0-0.5,0-0.7s-0.1-0.3-0.3-0.2c-0.1,0-0.2,0-0.2,0c-0.3-0.1-0.6,0-0.6,0.4
		c0,0.3,0,0.6,0,0.9c0.1,0.4,0.2,0.6,0.7,0.4c0.1,0,0.1,0,0.1,0.1c0,0.2-0.1,0.3-0.3,0.2c-0.1,0-0.1-0.1-0.2-0.1
		c-0.1,0-0.2-0.1-0.2,0s0,0.2,0.1,0.2c0.2,0.2,0.4,0.2,0.6,0.1c0.2-0.1,0.4-0.3,0.4-0.5C64,38.9,64,38.7,64,38.4z M27.9,38.1
		c0-0.2,0-0.4,0-0.6c0-0.2,0.1-0.3,0.3-0.3c0.2,0,0.2,0.1,0.2,0.2c0,0,0,0,0,0.1c0.1,0.2,0.2,0.1,0.3,0.1c0.1,0,0.1-0.1,0.1-0.2
		c0-0.3-0.3-0.5-0.6-0.5c-0.4,0-0.6,0.2-0.7,0.5c-0.1,0.5-0.1,0.9,0,1.4c0,0.1,0.1,0.2,0.2,0.3c0.2,0.2,0.5,0.2,0.8,0.1
		c0.3-0.1,0.3-0.3,0.3-0.6c0-0.2,0-0.2-0.2-0.2c-0.1,0-0.2,0.1-0.2,0.2c0,0.1,0,0.3-0.2,0.3s-0.3-0.1-0.3-0.3
		C27.9,38.4,27.9,38.2,27.9,38.1z M68.7,38.7C68.6,38.7,68.6,38.7,68.7,38.7c-0.1-0.6-0.2-1-0.3-1.5c0-0.1,0-0.2-0.1-0.2
		c-0.1-0.2-0.2-0.1-0.3-0.1c-0.1,0-0.1,0.1,0,0.2c0.1,0.6,0.3,1.2,0.4,1.8c0,0.1,0.1,0.2,0.2,0.2c0.2,0,0.4,0,0.4-0.2
		c0.1-0.6,0.3-1.3,0.4-1.9c0-0.1,0-0.1-0.1-0.2c-0.2,0-0.3,0-0.3,0.3C68.9,37.7,68.8,38.2,68.7,38.7z M44.2,44.3c0-0.2,0-0.4,0-0.6
		c0-0.2,0.2-0.3,0.3-0.2c0.1,0,0.2,0.1,0.2,0.2c0,0.2,0.2,0.1,0.3,0.1s0.1-0.1,0.1-0.2c-0.1-0.3-0.3-0.5-0.7-0.5s-0.6,0.2-0.6,0.5
		c-0.1,0.4-0.1,0.8,0,1.3c0.1,0.4,0.3,0.6,0.7,0.6s0.6-0.2,0.6-0.6c0-0.2,0-0.3-0.3-0.2c-0.2,0-0.1,0.1-0.1,0.2
		c0,0.1-0.1,0.3-0.2,0.3c-0.2,0-0.2-0.1-0.3-0.2C44.2,44.6,44.2,44.4,44.2,44.3z M50.5,40.3c-0.1,0-0.2,0-0.3,0
		c-0.2,0-0.3,0-0.2,0.2c0,0.2,0,0.5,0,0.7s0,0.3,0.2,0.2c0.1,0,0.1,0,0.2-0.1c0.2-0.1,0.3-0.1,0.4,0.1c0.1,0.2,0,0.3,0,0.5
		c0,0.1-0.1,0.2-0.2,0.2c-0.2,0-0.2-0.1-0.2-0.3s-0.2-0.2-0.3-0.1c-0.1,0-0.1,0.1-0.1,0.2c0,0.3,0.2,0.5,0.5,0.5
		c0.4,0,0.6-0.1,0.7-0.4c0.1-0.2,0.1-0.4,0-0.7c-0.1-0.4-0.3-0.6-0.7-0.5h-0.1c0-0.1,0-0.2,0-0.3s0.1-0.1,0.2-0.1c0.1,0,0.3,0,0.4,0
		c0.1,0,0.1-0.1,0.1-0.2c0-0.1,0-0.1-0.1-0.1C50.8,40.3,50.7,40.3,50.5,40.3z M51.5,41c0,0.1,0,0.2,0,0.3s0,0.2,0.1,0.2s0.2,0,0.3,0
		c0,0,0,0,0.1-0.1c0.2-0.1,0.3-0.1,0.4,0.1c0.1,0.2,0,0.4,0,0.6c0,0.1-0.1,0.1-0.2,0.1c-0.1,0-0.2,0-0.2-0.1V42
		c0-0.2-0.1-0.2-0.2-0.2c-0.1,0-0.2,0.1-0.1,0.2c0,0.3,0.2,0.5,0.4,0.5c0.4,0.1,0.6,0,0.8-0.3C53,42,53,41.8,53,41.6
		c0-0.4-0.2-0.7-0.7-0.6h-0.1c0-0.1,0-0.2,0-0.3s0.1-0.1,0.2-0.1c0.1,0,0.3,0,0.4,0c0.1,0,0.2,0,0.2-0.1s0-0.2-0.1-0.2
		c-0.3,0-0.5,0-0.8,0c-0.1,0-0.2,0-0.2,0.1C51.5,40.6,51.5,40.8,51.5,41z M53.5,42.5c0.3,0,0.6-0.1,0.7-0.3c0.1-0.3,0.1-0.6-0.1-0.8
		c-0.1-0.1-0.1-0.1,0-0.3c0.2-0.2,0.2-0.4,0.1-0.7c-0.1-0.3-0.4-0.3-0.6-0.3c-0.2,0-0.4,0.1-0.5,0.4c0,0.1-0.1,0.2,0.1,0.3
		c0.1,0,0.3,0.1,0.3-0.1c0-0.1,0.1-0.2,0.2-0.2c0.1,0,0.2,0.1,0.2,0.2c0.1,0.2,0,0.3-0.3,0.4c-0.1,0-0.1,0.1-0.1,0.2
		c0,0.1,0.1,0.1,0.2,0.1c0.1,0,0.2,0,0.3,0.2c0,0.1,0,0.3,0,0.4c0,0.1-0.1,0.2-0.2,0.2c-0.1,0-0.2,0-0.2-0.1s0-0.1-0.1-0.2
		c0-0.1-0.1-0.2-0.2-0.1c-0.1,0-0.1,0.1-0.1,0.2C52.9,42.3,53.2,42.5,53.5,42.5z M33.6,38.3c0-0.1,0-0.3,0-0.4c0-0.1,0-0.2,0.1-0.2
		s0.1,0.1,0.2,0.2c0,0.1,0.1,0.2,0.2,0.1c0.1,0,0.1-0.1,0.1-0.2c0-0.1-0.1-0.3-0.2-0.3c-0.2-0.1-0.4-0.1-0.6,0
		c-0.2,0.1-0.2,0.3-0.3,0.4c0,0.2,0,0.5,0,0.7s0.1,0.4,0.3,0.5c0.1,0,0.1,0,0.1,0.1c-0.1,0.1,0,0.2,0.1,0.2s0.1,0,0.1,0.1
		s-0.1,0.1-0.1,0.1s-0.1,0-0.2,0h-0.1c0,0.1,0.1,0.1,0.1,0.1c0.2,0,0.2,0.1,0.2,0.2c0,0.1,0,0.2,0.2,0.2c0.1,0,0.2-0.1,0.2-0.2
		c0-0.1,0-0.2-0.1-0.2s-0.1,0,0-0.1c0.2-0.2,0.1-0.3-0.1-0.4c-0.1,0-0.1-0.1,0-0.1h0.1c0.2-0.1,0.4-0.3,0.3-0.5
		c0-0.1-0.1-0.1-0.1-0.1c-0.1,0-0.3,0-0.2,0.2c0,0.1,0,0.2-0.1,0.2s-0.1-0.1-0.1-0.2C33.6,38.6,33.6,38.5,33.6,38.3z M49.9,44.5
		c0-0.1,0-0.3,0-0.4c0-0.1,0-0.2,0.2-0.2c0.1,0,0.1,0.1,0.1,0.2c0,0.2,0.1,0.2,0.3,0.2c0.1,0,0.1-0.1,0.1-0.2c0-0.2-0.1-0.3-0.2-0.3
		c-0.4-0.2-0.8,0-0.8,0.5c0,0.2,0,0.5,0,0.7s0.1,0.4,0.3,0.5c0.1,0,0.1,0.1,0.1,0.1c-0.1,0.1,0,0.1,0.1,0.2c0.1,0,0.1,0.1,0.1,0.1
		c0,0.1-0.1,0.1-0.1,0.1H50c0,0-0.1,0-0.1,0.1s0.1,0.1,0.1,0.1c0.2,0,0.3,0.1,0.2,0.3c0,0.1,0.1,0.1,0.2,0.1c0.1,0,0.2,0,0.2-0.2
		c0-0.1,0-0.2-0.1-0.2s-0.1-0.1,0-0.2c0.1-0.1,0.1-0.3-0.1-0.4c-0.1,0-0.2,0-0.1-0.1c0-0.1,0.1-0.1,0.2-0.1c0.2-0.1,0.4-0.3,0.3-0.5
		c0-0.1,0-0.1-0.1-0.1s-0.2,0-0.2,0.2c0,0.1,0,0.2-0.1,0.2C50,45.1,50,45,50,44.9C49.9,44.8,49.9,44.7,49.9,44.5z M60.5,42.5
		L60.5,42.5c0.2,0,0.3,0,0.5,0c0.1,0,0.2,0,0.2-0.2c0-0.1-0.1-0.1-0.2-0.1c-0.2,0-0.3,0-0.5,0s-0.2,0-0.1-0.2
		c0.2-0.4,0.4-0.8,0.6-1.2c0.1-0.1,0.1-0.3,0.1-0.4c0-0.1,0-0.2-0.2-0.2c-0.3,0-0.6,0-0.9,0c-0.1,0-0.1,0-0.1,0.1s0,0.2,0.1,0.2
		s0.3,0,0.4,0c0.2,0,0.2,0,0.1,0.2c-0.2,0.4-0.4,0.8-0.6,1.2c-0.1,0.1-0.1,0.2-0.1,0.4c0,0.1,0,0.2,0.2,0.2S60.4,42.5,60.5,42.5z
		 M49.2,44.5L49.2,44.5c0-0.2,0-0.4,0-0.5s0-0.2-0.2-0.3s-0.5-0.1-0.8,0c-0.1,0-0.2,0.1-0.2,0.2c0,0.1-0.1,0.2,0,0.2
		c0.1,0.1,0.2,0,0.3,0s0.1-0.1,0.1-0.1c0.1-0.1,0.1-0.1,0.2-0.1c0.1,0,0.1,0,0.1,0.1s0,0.2-0.1,0.2s-0.1,0.1-0.2,0.1
		c-0.1,0-0.2,0.1-0.3,0.1c-0.2,0.1-0.3,0.5-0.1,0.7c0.1,0.2,0.4,0.2,0.6,0.1c0.1,0,0.1,0,0.2,0c0.1,0.1,0.2,0.1,0.3,0
		c0.1,0,0-0.1,0-0.2C49.2,44.9,49.2,44.7,49.2,44.5z M56.1,38.3L56.1,38.3c0,0.1,0,0.3,0,0.4c0,0.3,0.2,0.4,0.5,0.5
		c0.4,0,0.6-0.1,0.7-0.3c0-0.1,0.1-0.2-0.1-0.3c-0.1,0-0.2,0-0.3,0.1c0,0.1-0.1,0.2-0.2,0.2c-0.2,0-0.2-0.2-0.2-0.3s0.1-0.2,0.2-0.2
		c0.1,0,0.3,0,0.4,0c0.1,0,0.2,0,0.2-0.1c0-0.2,0-0.5-0.2-0.7s-0.4-0.2-0.7-0.1c-0.2,0.1-0.3,0.2-0.3,0.4
		C56.1,38,56.1,38.2,56.1,38.3z M44.3,41.7c0,0.1,0,0.3,0,0.5s0.2,0.3,0.4,0.4c0.2,0,0.5,0.1,0.7-0.1c0.1-0.1,0.1-0.2,0.1-0.3
		s0-0.1-0.1-0.1s-0.2,0-0.3,0.2s-0.2,0.2-0.3,0.1c-0.1-0.1-0.1-0.2-0.1-0.4c0-0.1,0.2-0.1,0.2-0.1H45c0.5,0,0.5,0,0.4-0.5
		c-0.1-0.3-0.3-0.4-0.7-0.4c-0.3,0-0.5,0.2-0.5,0.5C44.3,41.4,44.3,41.5,44.3,41.7z M52,44.6L52,44.6c0-0.2,0-0.4,0-0.6
		c0-0.1-0.1-0.2-0.2-0.3c-0.2-0.1-0.5-0.1-0.7,0c-0.1,0-0.2,0.1-0.2,0.2c0,0.1-0.1,0.2,0,0.2s0.2,0.1,0.3-0.1c0-0.1,0.1-0.2,0.3-0.1
		c0.1,0,0.1,0.1,0.1,0.1c0,0.1-0.1,0.2-0.2,0.2c-0.1,0.1-0.3,0.1-0.4,0.2c-0.2,0.1-0.3,0.5-0.2,0.7s0.3,0.3,0.5,0.2
		c0.1,0,0.2-0.1,0.3,0c0.2,0.1,0.3,0,0.2-0.2C52,45,52,44.8,52,44.6z M45.3,38.4L45.3,38.4c0-0.2,0-0.4,0-0.5c0-0.3-0.1-0.4-0.4-0.4
		c-0.4-0.1-0.7,0-0.7,0.3l0,0c-0.1,0.2,0,0.2,0.1,0.2s0.2,0,0.2-0.1c0.1-0.1,0.2-0.2,0.3-0.1c0.1,0,0.1,0.1,0.1,0.1
		c0,0.1-0.1,0.2-0.2,0.2c-0.1,0.1-0.2,0.1-0.3,0.2c-0.2,0.1-0.3,0.5-0.2,0.7s0.4,0.2,0.6,0.1c0.1,0,0.1,0,0.2,0
		c0.2,0.1,0.3,0,0.3-0.2C45.3,38.8,45.3,38.6,45.3,38.4z M41.6,38.5c0,0.1,0,0.2,0,0.2c0,0.3,0.2,0.5,0.5,0.5c0.4,0,0.6-0.1,0.7-0.4
		c0-0.1,0.1-0.2,0-0.2s-0.2,0-0.3,0.1c0,0,0,0.1-0.1,0.1c0,0.1-0.1,0.1-0.2,0.1c-0.1,0-0.2,0-0.2-0.1c-0.1-0.3,0-0.4,0.3-0.4
		c0.6,0,0.5,0,0.5-0.6c0-0.2-0.1-0.3-0.3-0.3s-0.3,0-0.5,0c-0.2,0.1-0.3,0.2-0.3,0.4C41.6,38.1,41.5,38.3,41.6,38.5z M35.7,38.5
		L35.7,38.5c0-0.2,0-0.3,0-0.5c0-0.3-0.1-0.5-0.5-0.5c-0.2,0-0.3,0-0.5,0.1c-0.1,0-0.2,0.1-0.2,0.2c0,0.1-0.1,0.2,0,0.2
		s0.2,0.1,0.3-0.1c0.1-0.1,0.2-0.2,0.3-0.1c0.1,0,0.1,0.1,0.1,0.1c0,0.1-0.1,0.2-0.2,0.2c0,0-0.1,0-0.1,0.1c-0.1,0-0.2,0.1-0.2,0.1
		c-0.2,0.1-0.3,0.5-0.2,0.7s0.3,0.2,0.6,0.1c0.1,0,0.1,0,0.2,0c0.2,0.1,0.3,0,0.3-0.2C35.7,38.8,35.7,38.6,35.7,38.5z M50,38.5
		c0,0.1,0,0.2,0,0.3c0,0.2,0.2,0.4,0.4,0.4c0.4,0,0.6,0,0.7-0.3c0-0.1,0.1-0.2,0-0.3s-0.3,0-0.3,0.1s-0.1,0.1-0.2,0.1
		c-0.1,0-0.2-0.1-0.2-0.1c-0.1-0.2,0-0.4,0.3-0.4c0.5,0,0.6,0.1,0.4-0.6c-0.1-0.3-0.3-0.4-0.6-0.4S50,37.5,50,37.7
		C50,38.1,50,38.3,50,38.5z M39.9,41.6L39.9,41.6c0,0.1,0,0.3,0,0.4c0,0.3,0.3,0.5,0.6,0.5s0.5-0.2,0.6-0.4c0-0.1,0-0.1-0.1-0.2
		c-0.1-0.1-0.3,0-0.3,0.1s-0.1,0.2-0.2,0.2c-0.1,0-0.2-0.1-0.2-0.2c-0.1-0.3,0-0.3,0.3-0.3c0.5,0,0.6-0.1,0.5-0.6
		c0-0.2-0.1-0.3-0.3-0.3s-0.3,0-0.5,0c-0.2,0.1-0.3,0.2-0.4,0.4C39.9,41.3,39.9,41.5,39.9,41.6z M32.8,38.4L32.8,38.4
		c0-0.2,0-0.3,0-0.5s-0.1-0.3-0.3-0.4c-0.1,0-0.3,0-0.4,0c-0.2,0-0.3,0.1-0.3,0.2c0,0.1-0.1,0.2,0,0.2c0.1,0.1,0.2,0,0.2,0
		c0.1,0,0.1-0.1,0.1-0.1c0.1-0.1,0.2-0.1,0.3-0.1s0.1,0,0.1,0.1s0,0.2-0.1,0.2s-0.1,0.1-0.2,0.1c-0.1,0-0.2,0.1-0.3,0.2
		c-0.2,0.2-0.2,0.5,0,0.7c0.1,0.1,0.4,0.2,0.5,0.1c0.1,0,0.1-0.1,0.3,0s0.3,0,0.3-0.2C32.8,38.8,32.8,38.6,32.8,38.4z M53.6,44.5
		c0-0.2,0-0.4,0-0.5c0-0.2-0.2-0.3-0.4-0.4c-0.1,0-0.2,0-0.3,0c-0.3,0-0.4,0.1-0.4,0.4c-0.1,0.3-0.1,0.7,0,1c0,0.2,0.2,0.3,0.4,0.3
		s0.5,0.1,0.7-0.2c0,0,0-0.1,0.1-0.2C53.6,44.9,53.6,44.7,53.6,44.5z M61.3,38.3c0,0.2,0,0.4,0,0.6c0,0.1,0,0.2,0.2,0.2
		s0.2-0.1,0.2-0.2c0-0.3,0-0.6,0-0.9c0-0.1,0-0.3,0.2-0.3s0.2,0.1,0.2,0.3c0,0.3,0,0.6,0,0.9c0,0.1,0,0.2,0.2,0.2s0.2-0.1,0.2-0.2
		c0-0.4,0-0.7,0-1.1c0-0.3-0.2-0.5-0.5-0.4c-0.1,0-0.2,0.1-0.3,0c-0.2-0.1-0.3,0-0.3,0.2C61.3,37.9,61.3,38.1,61.3,38.3z M39.2,38.3
		L39.2,38.3c0,0.2,0,0.4,0,0.7c0,0.2,0.1,0.2,0.3,0.2c0.1,0,0.1-0.1,0.1-0.2c0-0.3,0-0.6,0-1c0-0.1,0-0.2,0.1-0.2s0.1,0,0.2,0
		C40,37.9,40,38,40,38.1c0,0.3,0,0.6,0,0.9c0,0.2,0.1,0.2,0.2,0.2c0.1,0,0.2-0.1,0.2-0.2c0-0.4,0-0.8,0-1.2c0-0.3-0.2-0.5-0.5-0.4
		c-0.1,0-0.2,0.1-0.3,0c-0.2-0.1-0.3,0-0.3,0.2C39.2,37.9,39.2,38.1,39.2,38.3z M58.7,38.4c0-0.2,0-0.4,0-0.5c0-0.3-0.3-0.5-0.6-0.4
		c-0.1,0-0.1,0.1-0.2,0c-0.2-0.1-0.3,0-0.3,0.2c0,0.4,0,0.8,0,1.2c0,0.1,0,0.2,0.2,0.2S58,39,58,38.9c0-0.3,0-0.6,0-0.9
		c0-0.1,0-0.3,0.2-0.2c0.2,0,0.2,0.1,0.2,0.3c0,0.3,0,0.6,0,0.9c0,0.1,0,0.2,0.2,0.2s0.2-0.1,0.2-0.2C58.7,38.8,58.7,38.6,58.7,38.4
		z M41.5,41.6c0,0.2,0,0.4,0,0.6c0,0.1,0,0.3,0.2,0.3s0.2-0.1,0.2-0.2c0-0.3,0-0.6,0-0.9c0-0.1,0-0.3,0.2-0.3s0.2,0.1,0.2,0.3
		c0,0.3,0,0.6,0,0.9c0,0.1,0,0.2,0.2,0.2c0.1,0,0.2,0,0.2-0.2c0-0.4,0-0.8,0-1.2c0-0.3-0.3-0.5-0.6-0.3c-0.1,0-0.2,0.1-0.3,0
		c-0.2-0.1-0.3,0-0.3,0.2C41.5,41.2,41.5,41.4,41.5,41.6z M36.1,38.4c0,0.1,0,0.1,0,0.2c0,0.6,0.1,0.7,0.7,0.7
		c0.2,0,0.3-0.1,0.4-0.3c0.1-0.3,0-0.5,0-0.8c0-0.5-0.3-0.7-0.8-0.6c-0.2,0-0.3,0.2-0.4,0.4C36.1,38,36.1,38.2,36.1,38.4z
		 M47.8,41.7L47.8,41.7c0-0.2,0-0.4,0-0.6c0-0.3-0.3-0.5-0.5-0.3c-0.1,0-0.2,0.1-0.3,0c-0.2-0.1-0.3,0-0.3,0.2c0,0.4,0,0.9,0,1.3
		c0,0.1,0,0.2,0.2,0.2c0.1,0,0.2,0,0.2-0.2c0-0.3,0-0.6,0-1c0-0.1,0-0.3,0.2-0.3s0.2,0.1,0.2,0.3c0,0.3,0,0.6,0,1
		c0,0.1,0.1,0.2,0.2,0.2c0.1,0,0.2,0,0.2-0.2C47.8,42.1,47.8,41.9,47.8,41.7z M45.9,44.4L45.9,44.4c0-0.2,0-0.3,0-0.5
		c0-0.1-0.1-0.2-0.2-0.2c-0.1,0-0.2,0-0.2,0.2c0,0.4,0,0.8,0,1.1c0,0.4,0.3,0.5,0.6,0.3c0,0,0.1-0.1,0.1,0c0.1,0.1,0.2,0.1,0.3,0
		c0.1,0,0.1-0.2,0.1-0.3c0-0.4,0-0.8,0-1.2c0-0.1,0-0.2-0.2-0.2s-0.2,0.1-0.2,0.2c0,0.3,0,0.7,0,1c0,0.1-0.1,0.2-0.2,0.2
		c-0.1,0-0.2-0.1-0.2-0.2C45.9,44.7,45.9,44.5,45.9,44.4z M30.3,38.3L30.3,38.3c0-0.2,0-0.4,0-0.7c0-0.1,0-0.2-0.2-0.2
		s-0.2,0.1-0.2,0.2c0,0.4,0,0.7,0,1.1c0,0.1-0.1,0.2-0.2,0.2s-0.2-0.1-0.2-0.2c0-0.1,0-0.1,0-0.2c0-0.3,0-0.6,0-0.9
		c0-0.1,0-0.2-0.2-0.2c-0.1,0-0.2,0.1-0.2,0.2c0,0.4,0,0.8,0,1.2s0.3,0.5,0.6,0.3c0.1,0,0.1-0.1,0.2,0s0.2,0,0.3,0
		c0.1,0,0.1-0.1,0.1-0.2C30.3,38.8,30.3,38.6,30.3,38.3z M59.6,37.5c-0.3,0-0.5,0.1-0.5,0.3c-0.1,0.2,0,0.4,0.2,0.6
		c0.1,0.1,0.2,0.1,0.3,0.2c0.1,0,0.1,0.1,0.2,0.1c0.1,0.1,0.1,0.1,0,0.2c0,0.1-0.1,0.1-0.2,0.1c-0.1,0-0.1,0-0.2-0.1v-0.1
		c-0.1-0.2-0.2-0.1-0.3-0.1S59,38.8,59,38.9c0.1,0.2,0.3,0.4,0.6,0.4c0.2,0,0.5-0.1,0.5-0.3c0.1-0.2,0-0.4-0.2-0.6
		c-0.1-0.1-0.3-0.2-0.4-0.3c-0.1,0-0.1-0.1-0.1-0.2c0-0.1,0.1-0.1,0.1-0.1c0.1,0,0.1,0,0.2,0.1c0,0,0,0,0,0.1c0.2,0,0.3,0,0.4,0
		s0.1-0.2,0-0.2C60.1,37.6,59.9,37.5,59.6,37.5z M57.9,41.2L57.9,41.2c0-0.3,0-0.5,0-0.8c0-0.2-0.1-0.2-0.2-0.2
		c-0.2,0-0.2,0.1-0.2,0.2c0,0.5,0,0.9,0,1.4c0,0.1,0.1,0.3-0.1,0.3c-0.2,0-0.2-0.2-0.2-0.3s-0.1-0.1-0.2-0.1c-0.1,0-0.2,0-0.2,0.1
		c0,0.3,0.1,0.6,0.4,0.6c0.5,0.1,0.7-0.1,0.7-0.5C57.9,41.8,57.9,41.5,57.9,41.2z M43.5,42.5c0.3,0,0.5-0.1,0.5-0.3
		c0.1-0.3,0-0.4-0.3-0.6c-0.1-0.1-0.2-0.2-0.3-0.2c-0.1-0.1-0.1-0.1-0.1-0.2c0-0.1,0.1-0.1,0.1-0.1c0.1,0,0.2,0,0.2,0.1
		c0.1,0.1,0.3,0.2,0.3,0.1c0.1-0.1,0-0.2,0-0.3c-0.2-0.2-0.4-0.2-0.7-0.2c-0.3,0.1-0.5,0.3-0.3,0.6c0.1,0.1,0.1,0.2,0.2,0.3
		c0.1,0.1,0.3,0.2,0.4,0.3c0.1,0.1,0.1,0.1,0,0.2c-0.1,0.1-0.1,0.1-0.2,0.1c-0.1,0-0.1-0.1-0.1-0.1c0-0.2-0.2-0.1-0.3-0.1
		s-0.1,0.2,0,0.2C43,42.4,43.2,42.5,43.5,42.5z M55,38.3c0-0.1,0-0.2,0-0.3s0-0.2,0.1-0.2s0.1,0.1,0.1,0.2c0,0.2,0.1,0.1,0.2,0.1
		c0.1,0,0.1-0.1,0.1-0.2c0-0.3-0.2-0.4-0.5-0.4s-0.5,0.1-0.6,0.4c-0.1,0.3-0.1,0.7,0,1c0,0.3,0.2,0.4,0.5,0.4s0.5-0.2,0.5-0.4
		s0-0.3-0.2-0.3c-0.1,0-0.2,0.1-0.2,0.2c0,0.1,0,0.2-0.1,0.2s-0.1-0.1-0.1-0.2C55.1,38.6,55.1,38.4,55,38.3z M45.6,38.4
		c0,0.1,0,0.3,0,0.5c0.1,0.2,0.2,0.4,0.5,0.4s0.5-0.1,0.5-0.4c0-0.1,0.1-0.3-0.1-0.3c-0.2-0.1-0.2,0-0.3,0.2c0,0.1,0,0.2-0.1,0.2
		s-0.1-0.1-0.2-0.2c0-0.3,0-0.6,0-0.9c0-0.1,0.1-0.1,0.1-0.1c0.1,0,0.1,0.1,0.1,0.2c0,0.2,0.1,0.1,0.2,0.1c0.1,0,0.2-0.1,0.1-0.2
		c0-0.2-0.2-0.4-0.5-0.4s-0.5,0.1-0.5,0.3C45.6,38,45.6,38.1,45.6,38.4z M38.5,41.6c0,0.1,0,0.3,0,0.4c0,0.3,0.2,0.4,0.5,0.4
		s0.5-0.1,0.5-0.4c0-0.1,0-0.2-0.1-0.2s-0.3,0-0.3,0.2c0,0.1,0,0.2-0.2,0.2c-0.1,0-0.1-0.1-0.2-0.2c0-0.2,0-0.5,0-0.7
		c0-0.1,0-0.2,0.2-0.2c0.1,0,0.1,0.1,0.1,0.2c0,0.2,0.1,0.1,0.2,0.1c0.1,0,0.1-0.1,0.1-0.2c0-0.2-0.2-0.4-0.4-0.4
		c-0.3,0-0.6,0.1-0.6,0.3C38.5,41.3,38.6,41.5,38.5,41.6z M36.2,41.3c0,0.3,0,0.6,0,0.9c0,0.1,0,0.2,0.1,0.2c0.3,0,0.6,0,0.9,0
		c0.1,0,0.1-0.1,0.1-0.1c0-0.1,0-0.1-0.1-0.1s-0.2,0-0.4,0c-0.3,0-0.3,0-0.3-0.3c0-0.5,0-1,0-1.5c0-0.1-0.1-0.2-0.2-0.2
		c-0.1,0-0.2,0.1-0.2,0.2C36.3,40.7,36.2,41,36.2,41.3z M49.2,38.6c-0.1-0.1-0.1-0.1-0.1-0.2C49,38.1,49,37.8,49,37.6
		s-0.2-0.1-0.3-0.1c-0.2,0-0.1,0.1-0.1,0.2c0,0.2,0.1,0.3,0.1,0.5c0.1,0.3,0.1,0.5,0.2,0.8c0,0.1,0.1,0.2,0.3,0.2
		c0.1,0,0.2,0,0.3-0.1c0.1-0.5,0.2-0.9,0.3-1.4c0-0.1,0-0.1-0.1-0.2c-0.2,0-0.2,0-0.3,0.2C49.4,38,49.3,38.3,49.2,38.6z M52.8,37.9
		L52.8,37.9c0-0.2,0-0.5,0-0.7S52.7,37,52.6,37c-0.2,0-0.2,0.1-0.2,0.2c0,0.1,0,0.3,0,0.4c0,0.5,0,0.9,0,1.4c0,0.1,0,0.2,0.2,0.2
		c0.3,0,0.6,0,0.9,0c0.1,0,0.1-0.1,0.1-0.1c0-0.1,0-0.1-0.1-0.1s-0.2,0-0.4,0s-0.3-0.1-0.3-0.3C52.8,38.3,52.8,38.1,52.8,37.9z
		 M47.1,38.4C47,38.4,47,38.4,47.1,38.4c0,0.1,0,0.3,0,0.4c0,0.2,0.1,0.3,0.3,0.3c0.1,0,0.2,0,0.2-0.1s0-0.2,0-0.2
		c-0.1-0.1-0.1-0.2-0.1-0.3c0-0.2,0-0.4,0-0.6c0-0.1,0-0.2,0.1-0.3s0.1-0.2,0-0.2c-0.1-0.1-0.1-0.2-0.1-0.3s0-0.2-0.2-0.2
		c-0.1,0-0.2,0-0.2,0.2c0,0.1,0,0.2-0.1,0.3s-0.1,0.2,0,0.2c0.1,0.1,0.1,0.2,0.1,0.3C47,38.2,47.1,38.3,47.1,38.4z M40.8,38.4
		c0,0.1,0,0.3,0,0.4c0,0.3,0.1,0.4,0.4,0.4c0.1,0,0.1,0,0.1-0.1s0-0.2,0-0.2s-0.1,0-0.1-0.1c0-0.3,0-0.6,0-0.9
		c0-0.1,0.1-0.1,0.1-0.1c0.1-0.1,0.1-0.2,0-0.2c-0.1-0.1-0.1-0.2-0.1-0.3s-0.1-0.2-0.2-0.2c-0.1,0-0.2,0-0.2,0.2
		c0,0.1,0,0.2-0.1,0.3s-0.1,0.2,0,0.2c0.1,0.1,0.1,0.2,0.1,0.3C40.8,38.2,40.8,38.3,40.8,38.4z M38.4,38L38.4,38c0,0.3,0,0.6,0,0.9
		c0,0.1,0,0.2,0.2,0.2s0.2,0,0.2-0.2c0-0.6,0-1.3,0-1.9c0-0.1-0.1-0.2-0.2-0.2c-0.1,0-0.2,0-0.2,0.2C38.4,37.4,38.4,37.7,38.4,38z
		 M47.4,43.9c0-0.2-0.1-0.2-0.3-0.2c-0.1,0-0.1,0.1-0.1,0.2c0,0.4,0,0.8,0,1.2c0,0.1,0,0.2,0.2,0.2s0.2-0.1,0.2-0.2
		c0-0.2,0-0.5,0-0.7c0-0.1,0-0.3,0.2-0.3c0.2-0.1,0.2-0.2,0.2-0.4c0-0.1-0.1-0.1-0.1-0.1C47.6,43.7,47.5,43.8,47.4,43.9z M31.1,37.7
		c0-0.2-0.1-0.2-0.2-0.2c-0.2,0-0.1,0.1-0.1,0.2c0,0.4,0,0.8,0,1.2c0,0.2,0.1,0.2,0.2,0.2s0.2-0.1,0.2-0.2c0-0.2,0-0.5,0-0.7
		s0.1-0.3,0.2-0.3s0.2-0.1,0.2-0.2c0-0.1,0-0.2-0.1-0.2C31.3,37.5,31.2,37.6,31.1,37.7C31.2,37.6,31.1,37.7,31.1,37.7z M48.9,41
		c0,0,0-0.1,0-0.2c-0.1,0-0.2,0-0.2,0.1c0,0,0,0-0.1,0.1h-0.1c0-0.2-0.1-0.1-0.2-0.1c-0.1,0-0.1,0.1-0.1,0.2c0,0.4,0,0.8,0,1.3
		c0,0.1,0,0.2,0.2,0.2s0.2-0.1,0.2-0.2c0-0.2,0-0.5,0-0.7c0-0.1,0.1-0.3,0.2-0.3C48.9,41.2,48.9,41.1,48.9,41z M43.5,37.7
		C43.5,37.6,43.5,37.6,43.5,37.7c0-0.2-0.1-0.2-0.2-0.2c-0.1,0-0.1,0.1-0.1,0.1c0,0.4,0,0.9,0,1.3c0,0.1,0,0.2,0.2,0.2
		s0.2-0.1,0.2-0.2c0-0.2,0-0.5,0-0.7c0-0.1,0.1-0.3,0.2-0.3c0.1,0,0.2,0,0.2-0.2c0-0.1,0-0.2-0.1-0.3C43.7,37.5,43.7,37.6,43.5,37.7
		C43.6,37.6,43.6,37.7,43.5,37.7z M55.9,42.6C55.9,42.7,55.9,42.7,55.9,42.6c0.1,0.1,0.1,0.1,0.2,0.1c0-0.1,0.1-0.1,0.1-0.2
		c0.1-0.4,0.2-0.9,0.4-1.3c0.1-0.3,0.2-0.6,0.2-0.8c0-0.1,0-0.1-0.1-0.2c-0.1,0-0.1,0-0.2,0.1v0.1c-0.1,0.4-0.2,0.8-0.3,1.2
		C56.1,42,56,42.3,55.9,42.6z M53.9,38.3c0,0.2,0,0.5,0,0.7c0,0.1,0.1,0.2,0.2,0.2c0.1,0,0.2,0,0.2-0.2c0-0.5,0-0.9,0-1.4
		c0-0.1-0.1-0.2-0.2-0.2c-0.1,0-0.2,0-0.2,0.2C53.9,37.9,53.9,38.1,53.9,38.3z M48.3,38.3c0-0.2,0-0.4,0-0.7c0-0.1,0-0.2-0.2-0.2
		c-0.1,0-0.2,0-0.2,0.2c0,0.4,0,0.9,0,1.3c0,0.1,0.1,0.2,0.2,0.2c0.1,0,0.2,0,0.2-0.2C48.3,38.8,48.3,38.6,48.3,38.3z M37.8,41.6
		c0,0.2,0,0.4,0,0.7c0,0.1,0,0.2,0.2,0.2c0.1,0,0.2,0,0.2-0.2c0-0.4,0-0.9,0-1.3c0-0.1-0.1-0.2-0.2-0.2c-0.1,0-0.2,0-0.2,0.2
		S37.8,41.4,37.8,41.6z M60.9,38.3c0-0.2,0-0.5,0-0.7c0-0.1-0.1-0.2-0.2-0.2c-0.1,0-0.2,0-0.2,0.1c0,0.5,0,0.9,0,1.4
		c0,0.1,0.1,0.2,0.2,0.2c0.1,0,0.2,0,0.2-0.2C60.9,38.8,60.9,38.6,60.9,38.3z M67.3,39.2c0.2,0,0.2-0.1,0.2-0.2c0-0.1,0-0.2-0.2-0.2
		c-0.1,0-0.2,0-0.2,0.2C67.1,39.1,67.2,39.2,67.3,39.2z M69.8,39.2c0.1,0,0.2,0,0.2-0.2c0-0.1,0-0.2-0.2-0.2c-0.1,0-0.2,0-0.2,0.2
		C69.6,39.1,69.6,39.2,69.8,39.2z"/>
	<path d="M67.3,0.9c0.4,0.1,0.9,0.2,1.3,0.4c1.7,0.8,2.7,2.1,2.9,3.9c0,0.2,0,0.5,0,0.7c0,6.3,0,12.7,0,19c0,0.5,0,0.5-0.5,0.5
		c-1,0-1.9,0-2.9,0c-0.6,0-1.2,0-1.8,0c-0.3,0-0.3,0-0.3-0.3c1.2-4.7,2.4-9.4,3.6-14c0.1-0.4,0.2-0.8,0.3-1.2c0.1-0.2,0-0.3-0.2-0.3
		c-1.2,0-2.3,0-3.5,0c-3.4,0-6.7,0-10.1,0c-9.2,0.1-18.3,0-27.5,0c-0.1,0-0.1,0-0.2,0c-0.3,0-0.3,0-0.4,0.3c-0.5,2-1,4-1.5,6
		c-0.2,0.9-0.5,1.8-0.7,2.7c0,0.1,0,0.2-0.1,0.2s0-0.1,0-0.2c0-4.4,0-8.8,0-13.2c0-2.2,1.8-4.2,4-4.5c0.1,0,0.2,0,0.2-0.1
		C42.5,0.9,54.9,0.9,67.3,0.9z M45.4,6.3C45.4,6.2,45.4,6.2,45.4,6.3C45,5,44.5,3.8,44,2.7c0-0.1-0.1-0.2-0.3-0.2s-0.4,0-0.6,0
		c-0.2,0-0.2,0.1-0.2,0.2c0,0.3,0,0.6,0,0.9c0,1.3,0,2.7,0,4c0,0.2,0,0.3,0.3,0.3c0.2,0,0.3,0,0.5,0s0.2-0.1,0.2-0.2
		c0-1.1,0-2.2-0.1-3.3c0-0.1,0-0.2,0-0.2c0.1,0,0.1,0.1,0.1,0.1c0.3,1.2,0.9,2.3,1.3,3.4c0,0.1,0.1,0.2,0.3,0.2s0.4,0,0.6,0
		c0.2,0,0.3,0,0.3-0.3c0-0.7,0-1.4,0-2c0-0.9,0-1.9,0-2.8c0-0.2,0-0.2-0.2-0.2s-0.4,0-0.6,0c-0.1,0-0.2,0-0.2,0.2c0,0.3,0,0.6,0,0.9
		C45.4,4.5,45.5,5.3,45.4,6.3C45.4,6.1,45.5,6.2,45.4,6.3z M63.5,5C63.5,4.9,63.6,4.9,63.5,5C63.9,4.7,64,4.5,64,4.2
		c0-0.2,0-0.4,0-0.5c0-0.7-0.4-1.1-1.1-1.1c-0.6,0-1.1,0-1.7,0c-0.1,0-0.2,0-0.2,0.2c0,1.7,0,3.3,0,5C61,8,61.1,8,61.2,8
		c0.6,0,1.2,0,1.7,0s0.8-0.2,1-0.6c0.2-0.4,0.2-0.8,0.2-1.3C64.2,5.5,64,5.1,63.5,5C63.6,5,63.6,5,63.5,5z M54.9,5.1
		c0,0.8,0,1.6,0,2.4c0,0.3,0,0.3,0.3,0.3c0.5,0,1.1,0,1.6,0c0.7,0,1.2-0.4,1.3-1.1c0.3-1.1,0.3-2.2,0-3.4c-0.1-0.6-0.6-0.9-1.2-0.9
		c-0.6,0-1.2,0-1.9,0c-0.2,0-0.2,0.1-0.2,0.2C54.9,3.5,54.9,4.3,54.9,5.1z M48.2,6.4c0-0.1,0-0.1,0-0.2C48.2,6,48.1,5.9,48,6
		c-0.2,0-0.4,0-0.6,0c-0.1,0-0.2,0.1-0.2,0.2c0,0.2,0,0.4,0,0.7c0.1,0.6,0.4,0.9,1,1.1c0.3,0,0.6,0,0.9,0c0.6-0.1,1.1-0.4,1.3-1
		c0.2-0.7,0.1-1.3-0.5-1.7c-0.4-0.3-0.8-0.6-1.3-0.9c-0.2-0.1-0.3-0.3-0.4-0.5c-0.1-0.3,0-0.6,0.3-0.7c0.4-0.1,0.7,0,0.8,0.4
		c0,0.1,0.1,0.3,0.1,0.4s0.1,0.2,0.2,0.2c0.2,0,0.4,0,0.6,0c0.1,0,0.2,0,0.2-0.2c0-0.3,0-0.5-0.1-0.7C50.2,3,50,2.7,49.6,2.6
		c-0.4-0.1-0.7-0.2-1.1-0.1c-1,0.1-1.5,1.1-1.1,2c0.2,0.4,0.5,0.6,0.8,0.8c0.3,0.2,0.7,0.5,1,0.7s0.4,0.6,0.3,0.9
		c-0.1,0.2-0.3,0.4-0.5,0.4c-0.3,0-0.5-0.1-0.6-0.3C48.2,6.7,48.2,6.5,48.2,6.4z M36.3,5.2c0-0.4,0-0.8,0-1.2c0-0.2,0.1-0.5,0.2-0.7
		c0.2-0.2,0.4-0.3,0.6-0.2c0.2,0,0.3,0.2,0.3,0.4c0,0.1,0,0.3,0.1,0.4c0,0.1,0,0.1,0.1,0.1c0.2,0,0.4,0,0.7,0c0.1,0,0.2-0.1,0.2-0.2
		c0-0.1,0-0.1,0-0.2c0-0.7-0.4-1.1-0.9-1.3c-0.3-0.1-0.6-0.1-0.9-0.1c-0.7,0.1-1.1,0.4-1.3,1.1c-0.1,0.5-0.1,0.9-0.1,1.4
		c0,0.6,0,1.3,0.1,1.9c0.1,0.5,0.4,0.9,0.9,1.1C36.6,8,37,8,37.3,8c0.4-0.1,0.8-0.3,1-0.7c0.1-0.3,0.2-0.7,0.2-1.1
		c0-0.1-0.1-0.2-0.2-0.2c-0.2,0-0.4,0-0.6,0c-0.2,0-0.3,0-0.3,0.3c0,0.2,0,0.4-0.1,0.7c-0.1,0.3-0.3,0.4-0.6,0.3S36.3,7,36.2,6.7
		C36.2,6.1,36.3,5.6,36.3,5.2z M51.3,5.2c0,0.8,0,1.6,0,2.5c0,0.1,0,0.2,0.2,0.2c0.8,0,1.6,0,2.5,0c0.1,0,0.2-0.1,0.2-0.2
		s0-0.2,0-0.3c0-0.3,0-0.3-0.3-0.3c-0.4,0-0.9,0-1.3,0c-0.2,0-0.3,0-0.3-0.2c0-0.4,0-0.8,0-1.2c0-0.2,0-0.3,0.3-0.3
		c0.4,0,0.8,0,1.2,0c0.2,0,0.2,0,0.2-0.2c0-0.1,0-0.2,0-0.3c0-0.2,0-0.3-0.2-0.3c-0.4,0-0.8,0-1.2,0c-0.2,0-0.3,0-0.3-0.3
		s0-0.6,0-0.9c0-0.2,0-0.2,0.3-0.2c0.5,0,0.9,0,1.4,0c0.1,0,0.2-0.1,0.2-0.2c0-0.1,0-0.3,0-0.4c0-0.2-0.1-0.2-0.2-0.2
		c-0.8,0-1.6,0-2.3,0c-0.2,0-0.3,0-0.3,0.3C51.3,3.6,51.3,4.4,51.3,5.2z M39.3,5.2c0,0.8,0,1.6,0,2.4c0,0.2,0.1,0.2,0.2,0.2
		c0.8,0,1.6,0,2.4,0c0.2,0,0.2,0,0.2-0.2c0-0.1,0-0.2,0-0.3c0-0.2-0.1-0.2-0.2-0.2c-0.4,0-0.9,0-1.3,0c-0.3,0-0.3,0-0.3-0.3
		c0-0.4,0-0.7,0-1.1c0-0.3,0-0.3,0.3-0.3c0.4,0,0.8,0,1.1,0c0.2,0,0.3,0,0.3-0.3c0-0.1,0-0.2,0-0.3c0-0.2,0-0.2-0.2-0.2
		c-0.4,0-0.8,0-1.2,0c-0.2,0-0.3,0-0.3-0.2c0-0.3,0-0.6,0-0.8c0-0.3,0-0.3,0.3-0.3c0.4,0,0.9,0,1.3,0c0.1,0,0.2-0.1,0.2-0.2
		c0-0.1,0-0.2,0-0.4s0-0.3-0.2-0.3c-0.8,0-1.5,0-2.3,0c-0.3,0-0.3,0-0.3,0.3C39.3,3.6,39.3,4.4,39.3,5.2z M66.6,4.6
		C66.6,4.6,66.6,4.5,66.6,4.6c-0.2-0.7-0.5-1.3-0.7-1.9c-0.1-0.1-0.1-0.2-0.3-0.2c-0.2,0-0.4,0-0.6,0c-0.3,0-0.3,0-0.2,0.3
		c0.4,0.9,0.8,1.7,1.2,2.6c0.1,0.2,0.1,0.4,0.1,0.6c0,0.6,0,1.1,0,1.7c0,0.1,0.1,0.2,0.2,0.2c0.2,0,0.4,0,0.6,0s0.2-0.1,0.2-0.2
		c0-0.5,0-1.1,0-1.6c0-0.3,0.1-0.6,0.2-0.8c0.4-0.8,0.8-1.7,1.1-2.5c0.1-0.2,0.1-0.2-0.1-0.2s-0.5,0-0.7,0c-0.1,0-0.2,0.1-0.3,0.2
		C67.2,3.3,66.9,3.9,66.6,4.6C66.7,4.5,66.7,4.6,66.6,4.6z M29.7,5.2c0,0.8,0,1.6,0,2.4c0,0.2,0.1,0.2,0.2,0.2c0.8,0,1.6,0,2.4,0
		c0.2,0,0.2-0.1,0.2-0.2s0-0.2,0-0.3c0-0.2-0.1-0.2-0.2-0.2c-0.4,0-0.9,0-1.3,0c-0.3,0-0.4-0.1-0.4-0.4s0-0.7,0-1c0-0.5,0-1,0-1.5
		s0-1.1,0-1.6c0-0.1-0.1-0.2-0.2-0.2c-0.2,0-0.4,0-0.5,0c-0.2,0-0.3,0-0.3,0.3C29.7,3.6,29.7,4.4,29.7,5.2z M33.3,5.2L33.3,5.2
		c0,0.8,0,1.6,0,2.4c0,0.2,0,0.3,0.2,0.2c0.2,0,0.3,0,0.5,0c0.3,0,0.3,0,0.3-0.3c0-1.1,0-2.2,0-3.3c0-0.5,0-1,0-1.5
		c0-0.2-0.1-0.2-0.2-0.2c-0.2,0-0.3,0-0.5,0c-0.3,0-0.3,0-0.3,0.3C33.3,3.6,33.3,4.4,33.3,5.2z"/>
	<path d="M23.6,34c0.2-0.7,0.4-1.5,0.6-2.2c1.3-5.3,2.7-10.5,4-15.8c0.4-1.5,0.8-3,1.1-4.4c0.1-0.3,0.1-0.3,0.4-0.3
		c6.9,0,13.7,0,20.6,0c0.3,0,0.3,0,0.3,0.3c-0.7,2.8-1.4,5.5-2.1,8.3c-0.1,0.3-0.1,0.3-0.4,0.3c-1.2,0-2.4,0-3.7,0
		c-0.3,0-0.3,0-0.3-0.3c-0.4-2.2-2-3.8-4.2-4.3c-1.6-0.3-3.2-0.1-4.7,0.6c-2.6,1.1-4.5,3-5.5,5.6c-0.4,0.9-0.6,1.9-0.5,3
		c0.1,2.6,1.9,4.8,4.7,5.2c2,0.3,3.9-0.3,5.6-1.3c1.2-0.7,2.2-1.7,3.1-2.9c0.2-0.3,0.4-0.5,0.8-0.5c0.1,0,0.3,0,0.4,0c1,0,2,0,3,0
		c0.3,0,0.3,0,0.2,0.3c-0.7,2.8-1.4,5.6-2.2,8.4c-0.1,0.3-0.1,0.3-0.4,0.3c-0.5,0-1,0-1.5,0c-6.4,0-12.7,0-19.1,0
		c-0.1,0-0.2,0-0.3,0C23.6,34.1,23.6,34.1,23.6,34z"/>
	<path d="M73.7,27.1c-0.2,0.6-0.3,1.3-0.5,2c-0.4,1.6-0.8,3.2-1.2,4.8c-0.1,0.3-0.1,0.3-0.4,0.3c-4.8,0-9.6,0-14.4,0
		c-0.6,0-1.2,0-1.8,0c-0.3,0-0.3,0-0.2-0.3c1.2-4.6,2.4-9.3,3.5-13.9c0.7-2.8,1.4-5.7,2.2-8.5c0.1-0.3,0.1-0.3,0.4-0.3
		c2.2,0,4.5,0,6.7,0c0.3,0,0.3,0,0.2,0.3c-1.3,5-2.6,10-3.8,15.1l0,0c-0.1,0.3-0.1,0.4,0.3,0.4c2.9,0,5.9,0,8.8,0c0.1,0,0.2,0,0.3,0
		C73.7,27,73.7,27.1,73.7,27.1z"/>
	<path d="M37.9,18.1c1,0,2,0.3,2.7,1c0.7,0.8,1.1,1.7,0.9,2.7c-0.3,2.5-1.8,4.2-4.1,5.1c-1,0.4-2.1,0.5-3.2,0.1
		c-1.2-0.4-1.9-1.3-2.2-2.6c-0.2-1,0-2.1,0.5-3c0.9-1.8,2.4-2.9,4.3-3.3c0.2,0,0.4-0.1,0.5-0.1C37.6,18.1,37.7,18.1,37.9,18.1z"/>
	<path d="M50,34.2c-1.1,0-2.2,0-3.3,0c-0.3,0-0.4,0-0.3-0.4c0.7-2.7,1.4-5.4,2.1-8.1c0.2-0.6,0-0.6,0.7-0.6c2.1,0,4.2,0,6.3,0
		c0.1,0,0.1,0,0.2,0c0.2,0,0.2,0.1,0.2,0.2c-0.1,0.4-0.2,0.8-0.3,1.2c-0.6,2.4-1.2,4.9-1.9,7.3c-0.1,0.2-0.1,0.3-0.4,0.3
		C52.3,34.2,51.1,34.2,50,34.2L50,34.2z"/>
	<path d="M53.6,20.1c-1.1,0-2.2,0-3.3,0c-0.3,0-0.4,0-0.3-0.3c0.7-2.6,1.3-5.2,2-7.8c0-0.2,0.1-0.4,0.1-0.5c0.1-0.3,0.1-0.3,0.4-0.3
		c2,0,4.1,0,6.1,0c0.2,0,0.4,0,0.6,0c0.3,0,0.3,0,0.3,0.3c-0.3,1.1-0.6,2.3-0.9,3.4c-0.4,1.7-0.9,3.4-1.3,5c0,0.2-0.1,0.2-0.3,0.2
		c-0.4,0-0.7,0-1.1,0C55.2,20.1,54.4,20.1,53.6,20.1L53.6,20.1z"/>
	<path d="M54.9,41.7c0-0.1,0-0.2,0-0.3s0.1-0.2,0.2-0.2c0.1,0,0.2,0.1,0.2,0.2c0.1,0.2,0.1,0.4,0,0.6c0,0.1-0.1,0.1-0.2,0.1
		c-0.1,0-0.2-0.1-0.2-0.2C54.9,41.9,54.9,41.8,54.9,41.7z"/>
	<path d="M59,40.6c0,0.3,0.1,0.6,0.1,0.9c0,0.1-0.1,0.1-0.2,0.1c-0.1,0-0.2,0-0.2-0.1C58.8,41.2,58.8,40.9,59,40.6
		C58.9,40.6,58.9,40.6,59,40.6z"/>
	<path d="M63.6,38.3c0,0.1,0,0.3,0,0.4c0,0.1-0.1,0.2-0.2,0.2c-0.1,0-0.2-0.1-0.2-0.2c0-0.3,0-0.5,0-0.8c0-0.1,0.1-0.2,0.2-0.2
		c0.1,0,0.2,0.1,0.2,0.2C63.6,38.1,63.6,38.2,63.6,38.3L63.6,38.3z"/>
	<path d="M48.8,44.7L48.8,44.7c0,0.2,0,0.3-0.2,0.3c-0.1,0-0.1,0-0.2-0.1c-0.1-0.1-0.1-0.2,0-0.3s0.2-0.2,0.3-0.2s0.1,0,0.1,0.1
		C48.8,44.6,48.8,44.7,48.8,44.7z"/>
	<path d="M56.6,38.1c-0.1,0-0.2,0-0.2-0.2c0-0.1,0.1-0.2,0.2-0.2c0.2,0,0.2,0.1,0.2,0.2C56.9,38.1,56.8,38.1,56.6,38.1z"/>
	<path d="M45.1,41.3c0,0.2-0.1,0.2-0.2,0.2c-0.1,0-0.2,0-0.2-0.2c0-0.1,0.1-0.2,0.2-0.2C45,41,45.1,41.1,45.1,41.3z"/>
	<path d="M51.7,44.7C51.7,44.8,51.7,44.8,51.7,44.7c0,0.2,0,0.3-0.2,0.4c-0.1,0-0.2,0-0.2-0.1c-0.1-0.1-0.1-0.2,0-0.3l0.1-0.1
		c0.1,0,0.2-0.2,0.2-0.1C51.7,44.6,51.7,44.7,51.7,44.7z"/>
	<path d="M44.9,38.6c0,0.1,0,0.1,0,0.2c0,0.1-0.1,0.2-0.2,0.2c-0.2,0-0.2-0.2-0.2-0.3s0.2-0.3,0.3-0.4c0,0,0.1,0,0.1,0.1
		C44.9,38.4,44.9,38.5,44.9,38.6L44.9,38.6z"/>
	<path d="M42.2,38.1c-0.1,0-0.2,0-0.2-0.2c0-0.1,0.1-0.2,0.2-0.2c0.2,0,0.2,0.1,0.2,0.2C42.4,38.1,42.3,38.1,42.2,38.1z"/>
	<path d="M35.3,38.6L35.3,38.6c0,0.2,0,0.3-0.2,0.3c-0.1,0-0.2,0-0.2-0.1c-0.1-0.1-0.1-0.2,0-0.3s0.1-0.1,0.2-0.2
		c0.1-0.1,0.1,0,0.1,0.1C35.3,38.5,35.3,38.5,35.3,38.6L35.3,38.6z"/>
	<path d="M50.6,38.1c-0.1,0-0.2,0-0.2-0.2c0-0.1,0.1-0.2,0.2-0.2c0.2,0,0.2,0.1,0.2,0.2C50.8,38.1,50.7,38.1,50.6,38.1z"/>
	<path d="M40.5,41.4c-0.2,0-0.2,0-0.2-0.2c0-0.1,0.1-0.2,0.2-0.2c0.2,0,0.2,0.1,0.2,0.2C40.7,41.4,40.6,41.4,40.5,41.4z"/>
	<path d="M32.4,38.6C32.4,38.7,32.4,38.7,32.4,38.6c0,0.2,0,0.3-0.2,0.4c-0.1,0-0.1,0-0.2,0c-0.1-0.1-0.1-0.2,0-0.3l0.1-0.1
		C32.2,38.5,32.3,38.4,32.4,38.6C32.5,38.4,32.4,38.5,32.4,38.6z"/>
	<path d="M52.8,44.5c0-0.1,0-0.3,0-0.4c0-0.1,0.1-0.2,0.2-0.2c0.1,0,0.2,0.1,0.2,0.2c0,0.3,0,0.5,0,0.8c0,0.1-0.1,0.2-0.2,0.2
		c-0.1,0-0.2-0.1-0.2-0.2C52.8,44.8,52.8,44.7,52.8,44.5L52.8,44.5z"/>
	<path d="M36.9,38.4c0,0.1,0,0.2,0,0.4c0,0.1-0.1,0.2-0.2,0.2c-0.1,0-0.2-0.1-0.2-0.2c0-0.3,0-0.5,0-0.8c0-0.1,0.1-0.2,0.2-0.2
		c0.1,0,0.2,0.1,0.2,0.2C36.9,38.1,36.9,38.2,36.9,38.4L36.9,38.4z"/>
	<path d="M62.1,6.3c0-0.2,0-0.4,0-0.6c0-0.1,0.1-0.2,0.2-0.2c0.2,0,0.4,0,0.6,0c0.2,0.1,0.3,0.2,0.4,0.4c0.1,0.3,0.1,0.5,0,0.8
		C63.2,6.9,63,7,62.8,7.1c-0.2,0-0.3,0-0.5,0S62.1,7,62.1,6.8C62.1,6.6,62.1,6.4,62.1,6.3L62.1,6.3z"/>
	<path d="M62.1,4c0-0.2,0-0.3,0-0.5c0-0.1,0.1-0.2,0.2-0.2c0.1,0,0.1,0,0.2,0c0.5,0,0.7,0.2,0.7,0.7c0,0.1,0,0.2,0,0.3
		c0,0.2-0.2,0.3-0.4,0.4c-0.6,0.1-0.7,0.1-0.7-0.5C62.1,4.1,62.1,4,62.1,4z"/>
	<path d="M55.9,5.2c0-0.5,0-1.1,0-1.6c0-0.3,0-0.3,0.3-0.3c0.1,0,0.2,0,0.3,0c0.4,0,0.6,0.1,0.7,0.6c0.1,0.2,0.1,0.5,0.1,0.7
		c0,0.6,0.1,1.3-0.1,1.9c-0.1,0.5-0.3,0.7-0.8,0.7s-0.5,0-0.5-0.5C55.9,6.1,55.9,5.6,55.9,5.2L55.9,5.2z"/>
</g>
</svg>
